<?xml version="1.0" encoding="utf-8"?>
<!-- Generator: Adobe Illustrator 19.0.0, SVG Export Plug-In . SVG Version: 6.00 Build 0)  -->
<svg version="1.1" id="Layer_1" xmlns="http://www.w3.org/2000/svg" xmlns:xlink="http://www.w3.org/1999/xlink" x="0px" y="0px"
	 width="88.3570023px" height="70.0270004px" viewBox="-260.6784973 361.4865112 88.3570023 70.0270004"
	 style="enable-background:new -260.6784973 361.4865112 88.3570023 70.0270004;" xml:space="preserve">
<style type="text/css">
	.st0{fill:#179317;}
</style>
<path class="st0" d="M-249.7624969,394.2345276c-3.4329987,1.5099792-6.1100006,3.776001-8.0330048,6.7969971
	c-1.9219971,3.019989-2.8829956,6.5899963-2.8829956,10.7099915c0,5.9039917,1.8540039,10.6749878,5.5610046,14.3139954
	c3.7070007,3.6380005,8.4440002,5.4580078,14.2109985,5.4580078s10.5390015-1.8540039,14.3150024-5.5610046
	s5.6640015-8.4450073,5.6640015-14.2120056c0-2.7460022-0.3440094-5.4920044-1.0299988-8.2379761
	c-0.6870117-2.7460022-2.1970062-6.8650208-4.5310059-12.3580017l-11.9459991-29.65802h-20.3899994L-249.7624969,394.2345276z
	 M-201.1555023,394.2345276c-3.4329987,1.5099792-6.1100006,3.776001-8.0330048,6.7969971
	c-1.9219971,3.019989-2.8829956,6.5899963-2.8829956,10.7099915c0,5.9039917,1.8540039,10.6749878,5.5599976,14.3139954
	c3.7080078,3.6380005,8.4450073,5.4580078,14.2120056,5.4580078s10.5390015-1.8540039,14.3140106-5.5610046
	c3.776001-3.7070007,5.6640015-8.4450073,5.6640015-14.2120056c0-2.7460022-0.3430023-5.4920044-1.0299988-8.2379761
	c-0.6860046-2.7460022-2.1959991-6.8650208-4.5299988-12.3580017l-11.9470062-29.65802h-20.3899994L-201.1555023,394.2345276z"/>
</svg>
