<?xml version="1.0" encoding="utf-8"?>
<!-- Generator: Adobe Illustrator 27.0.0, SVG Export Plug-In . SVG Version: 6.00 Build 0)  -->
<svg version="1.1" id="Layer_1" xmlns="http://www.w3.org/2000/svg" xmlns:xlink="http://www.w3.org/1999/xlink" x="0px" y="0px"
	 viewBox="0 0 218 224" style="enable-background:new 0 0 218 224;" xml:space="preserve">
<style type="text/css">
	.st0{fill:#E6EBF0;}
	.st1{fill-rule:evenodd;clip-rule:evenodd;fill:#AAB6C2;}
	.st2{fill-rule:evenodd;clip-rule:evenodd;fill:#F58634;}
	.st3{fill:#FFFFFF;}
	.st4{fill-rule:evenodd;clip-rule:evenodd;}
	.st5{fill:#AAB6C2;}
	.st6{fill:#F58634;}
</style>
<path d="M202.7,223.7H12.9v-1.4h189.8V223.7z"/>
<path class="st0" d="M7.2,119.4C14.7,70.6,57.1-19.5,119.3,16.8c53.3,31.1,16.6,68.8,60.5,84.3c74.9,26.5,9.8,138.3-81.1,118.9
	C7.8,200.7,0.2,164.8,7.2,119.4z"/>
<path class="st0" d="M195.3,57c22.7,22.2,34.8,49.5,0,38.1c-34.8-11.3-40.9-44.5-37.4-62.3C163.2,6,172.6,34.7,195.3,57z"/>
<path class="st1" d="M175.5,168.2h-17.9v-9.8h17.9V168.2z M158.7,167.2h15.7v-7.7h-15.7V167.2z"/>
<path class="st1" d="M187.7,176.9h-17.9v-9.8h17.9V176.9z M170.9,175.9h15.7v-7.7h-15.7V175.9z"/>
<path class="st1" d="M131.5,84.2h-17.8v-9.7h17.8V84.2z M114.7,83.1h15.8v-7.7h-15.8V83.1z"/>
<path class="st1" d="M100.2,192.1H82.3v-9.8h17.9V192.1z M83.4,191.1h15.8v-7.8H83.4V191.1z"/>
<path class="st1" d="M117,192.1H99.2v-9.8H117V192.1z M100.2,191.1H116v-7.8h-15.8V191.1z"/>
<path class="st1" d="M108.6,200.8H90.7V191h17.9V200.8z M91.8,199.8h15.8v-7.7H91.8V199.8z"/>
<path class="st1" d="M71.5,131.5H53.7v-9.8h17.8V131.5z M54.7,130.5h15.8v-7.7H54.7V130.5z"/>
<path class="st1" d="M59.3,140.3H41.4v-9.8h17.9V140.3z M42.5,139.3h15.7v-7.8H42.5V139.3z"/>
<path class="st1" d="M68,49.4H50.2v-9.8H68V49.4z M51.2,48.4H67v-7.8H51.2V48.4z"/>
<path class="st1" d="M59.6,58.1H41.8v-9.8h17.8V58.1z M42.8,57.1h15.8v-7.7H42.8V57.1z"/>
<path class="st1" d="M145.8,29.9c-0.9,1.9-2.1,3.6-3.6,5l1.9,3.9l-5.9,3.6l-2.7-3.5c-1.9,0.6-3.9,0.9-6,0.9L128,44l-6.7-1.7l0.6-4.4
	c-1.8-0.9-3.5-2.1-4.9-3.6l-4,1.9l-3.6-5.9l3.6-2.7c-0.6-1.9-1-3.9-0.9-6l-4.2-1.4l1.7-6.8l4.3,0.6c1-1.8,2.2-3.5,3.7-4.9l-2-4
	l6-3.6l2.6,3.6c1.9-0.6,4-1,6.1-0.9l1.4-4.2l6.8,1.7L137.8,6c1.9,1,3.6,2.2,5,3.7l3.9-2l3.6,6l-3.5,2.6c0.6,1.9,0.9,4,0.9,6.1
	l4.2,1.4l-1.7,6.8L145.8,29.9z M142.1,25c1.7-6.8-2.4-13.6-9.2-15.3c-6.8-1.7-13.6,2.5-15.3,9.2c-1.7,6.8,2.5,13.7,9.2,15.3
	C133.6,35.9,140.4,31.8,142.1,25z"/>
<path class="st2" d="M44.6,99.3c-1.1,2.1-2.4,4-4.1,5.5l2.2,4.5l-6.7,4l-2.9-4c-2.1,0.7-4.4,1.1-6.7,1l-1.6,4.7l-7.6-1.9l0.8-4.8
	c-2.1-1.1-4-2.5-5.5-4.1L8,106.4l-4-6.7l4-2.9c-0.7-2.1-1.1-4.4-1-6.8l-4.7-1.6l1.9-7.5L9,81.6c1.1-2,2.5-3.9,4.1-5.5l-2.2-4.4
	l6.7-4l2.9,4c2.1-0.7,4.4-1.1,6.8-1l1.6-4.7l7.5,1.9l-0.7,4.8c2,1.1,3.9,2.4,5.5,4.1l4.4-2.2l4,6.7l-4,2.9c0.7,2.1,1.1,4.4,1,6.7
	l4.7,1.6l-1.9,7.6L44.6,99.3z M40.5,93.8c1.9-7.5-2.7-15.1-10.2-17c-7.6-1.9-15.2,2.7-17.1,10.3c-1.8,7.5,2.8,15.1,10.3,17
	C31.1,106,38.7,101.4,40.5,93.8z"/>
<path d="M83.2,41.8h-3.1V16.6h3.1V41.8z"/>
<path d="M54.7,221.6h-1.6l23-63.9h1.5L54.7,221.6z"/>
<path d="M82.4,221.6h-1.5v-63.9h1.5V221.6z"/>
<path d="M110.3,221.6h-1.5l-23-63.9h1.5L110.3,221.6z"/>
<path d="M64.8,186.9l10.4-29.2h3.1l-10.5,29.2H64.8z"/>
<path d="M80.1,184.6v-26.9h3.1v26.9H80.1z"/>
<path d="M95.5,186.9L85,157.7h3l10.5,29.2H95.5z"/>
<path d="M88,157.7H75.2v-3.3H88V157.7z"/>
<path d="M87.4,22.4H75.9v-3.3h11.5V22.4z"/>
<path d="M95.1,159.9H68.2v-3.2h26.9V159.9z"/>
<path d="M81.4,194l-20.3,8.1v-1.3l20.3-8.1V194z"/>
<path d="M102.4,202.1L81.9,194v-1.3l20.5,8.1V202.1z"/>
<path d="M21.6,156.2v-2.9c0-0.3,0.2-0.5,0.5-0.5h114.3c0.3,0,0.5,0.2,0.5,0.5v2.9c0,0.2-0.2,0.5-0.5,0.5H22.1
	C21.8,156.7,21.6,156.4,21.6,156.2z"/>
<path d="M21.6,25.3v-2c0-0.5,0.4-0.9,0.9-0.9h113.4c0.6,0,1,0.4,1,0.9v2c0,0.5-0.4,0.9-1,0.9H22.5C22,26.2,21.6,25.8,21.6,25.3z"/>
<path class="st3" d="M27.1,156.4V24.6h107.4v131.8H27.1z"/>
<path class="st4" d="M134.8,156.7h-108V24.3h108V156.7z M27.3,24.9v131.3h107V24.9H27.3z"/>
<path d="M23.1,156.2v-2.9c0-0.3,0.2-0.5,0.5-0.5h114.3c0.3,0,0.5,0.2,0.5,0.5v2.9c0,0.2-0.2,0.5-0.5,0.5H23.6
	C23.3,156.7,23.1,156.4,23.1,156.2z"/>
<path d="M23.1,25.3v-2c0-0.5,0.4-0.9,1-0.9h113.4c0.5,0,0.9,0.4,0.9,0.9v2c0,0.5-0.4,0.9-0.9,0.9H24.1
	C23.5,26.2,23.1,25.8,23.1,25.3z"/>
<path class="st5" d="M58.1,52.1V54H35.6v-1.9H58.1z"/>
<path class="st5" d="M76.2,57.7v1.8H35.6v-1.8H76.2z"/>
<path class="st5" d="M73.3,63.3v1.8H35.6v-1.8H73.3z"/>
<path class="st5" d="M60.4,52.1h7V54h-7V52.1z"/>
<path class="st5" d="M58.1,73.8v1.8H35.6v-1.8H58.1z"/>
<path class="st5" d="M76.2,79.4v1.8H35.6v-1.8H76.2z"/>
<path class="st5" d="M73.3,84.9v1.9H35.6v-1.9H73.3z"/>
<path class="st5" d="M60.4,73.8h7v1.8h-7V73.8z"/>
<path class="st5" d="M107.6,52.1l-0.1,1.9H85v-1.9H107.6z"/>
<path class="st5" d="M125.7,57.7v1.8H85v-1.8H125.7z"/>
<path class="st5" d="M122.8,63.3v1.8H85v-1.8H122.8z"/>
<path class="st5" d="M109.9,52.1h7l-0.1,1.9h-6.9V52.1z"/>
<path class="st5" d="M107.6,73.8l-0.1,1.8H85v-1.8H107.6z"/>
<path class="st5" d="M125.7,79.4v1.8H85v-1.8H125.7z"/>
<path class="st5" d="M122.8,84.9v1.9H85v-1.9H122.8z"/>
<path class="st5" d="M109.9,73.8h7l-0.1,1.8h-6.9V73.8z"/>
<path class="st5" d="M105.7,145.9V95.6c0-0.2,0.1-0.3,0.3-0.3c0.1,0,0.3,0.1,0.3,0.3v50.3c0,0.2-0.2,0.3-0.3,0.3
	C105.8,146.2,105.7,146.1,105.7,145.9z"/>
<path class="st5" d="M33.2,105.5c0-0.2,0.1-0.3,0.3-0.3h96c0.1,0,0.3,0.1,0.3,0.3c0,0.1-0.2,0.3-0.3,0.3h-96
	C33.3,105.8,33.2,105.6,33.2,105.5z"/>
<path class="st5" d="M33.2,116.4c0-0.2,0.1-0.3,0.3-0.3h96c0.1,0,0.3,0.1,0.3,0.3c0,0.2-0.2,0.3-0.3,0.3h-96
	C33.3,116.7,33.2,116.6,33.2,116.4z"/>
<path class="st5" d="M33.2,127.3c0-0.1,0.1-0.3,0.3-0.3h96c0.1,0,0.3,0.2,0.3,0.3c0,0.2-0.2,0.3-0.3,0.3h-96
	C33.3,127.6,33.2,127.5,33.2,127.3z"/>
<path class="st5" d="M33.2,138.2c0-0.1,0.1-0.3,0.3-0.3h96c0.1,0,0.3,0.2,0.3,0.3c0,0.2-0.2,0.3-0.3,0.3h-96
	C33.3,138.5,33.2,138.4,33.2,138.2z"/>
<path class="st5" d="M95.9,145.9V95.6c0-0.2,0.1-0.3,0.3-0.3c0.1,0,0.3,0.1,0.3,0.3v50.3c0,0.2-0.2,0.3-0.3,0.3
	C96,146.2,95.9,146.1,95.9,145.9z"/>
<path class="st5" d="M125.6,145.9V95.6c0-0.2,0.1-0.3,0.2-0.3c0.2,0,0.3,0.1,0.3,0.3v50.3c0,0.2-0.1,0.3-0.3,0.3
	C125.7,146.2,125.6,146.1,125.6,145.9z"/>
<path class="st5" d="M115.7,145.9V95.6c0-0.2,0.2-0.3,0.3-0.3c0.2,0,0.3,0.1,0.3,0.3v50.3c0,0.2-0.1,0.3-0.3,0.3
	C115.9,146.2,115.7,146.1,115.7,145.9z"/>
<path class="st5" d="M86.1,145.9V95.6c0-0.2,0.1-0.3,0.2-0.3c0.2,0,0.3,0.1,0.3,0.3v50.3c0,0.2-0.1,0.3-0.3,0.3
	C86.2,146.2,86.1,146.1,86.1,145.9z"/>
<path class="st5" d="M76.2,145.9V95.6c0-0.2,0.2-0.3,0.3-0.3c0.2,0,0.3,0.1,0.3,0.3v50.3c0,0.2-0.1,0.3-0.3,0.3
	C76.4,146.2,76.2,146.1,76.2,145.9z"/>
<path class="st5" d="M66.4,145.9V95.6c0-0.2,0.1-0.3,0.3-0.3s0.3,0.1,0.3,0.3v50.3c0,0.2-0.1,0.3-0.3,0.3S66.4,146.1,66.4,145.9z"/>
<path class="st5" d="M56.6,145.9V95.6c0-0.2,0.1-0.3,0.3-0.3c0.1,0,0.3,0.1,0.3,0.3v50.3c0,0.2-0.2,0.3-0.3,0.3
	C56.7,146.2,56.6,146.1,56.6,145.9z"/>
<path class="st5" d="M46.8,145.9V95.6c0-0.2,0.1-0.3,0.3-0.3c0.1,0,0.2,0.1,0.2,0.3v50.3c0,0.2-0.1,0.3-0.2,0.3
	C46.9,146.2,46.8,146.1,46.8,145.9z"/>
<path class="st5" d="M36.9,145.9V95.6c0-0.2,0.2-0.3,0.3-0.3c0.2,0,0.3,0.1,0.3,0.3v50.3c0,0.2-0.1,0.3-0.3,0.3
	C37.1,146.2,36.9,146.1,36.9,145.9z"/>
<path class="st6" d="M33.2,141c-0.3,0-0.5-0.1-0.7-0.2c-0.5-0.4-0.5-1.1-0.1-1.5l12.2-13.2c0.3-0.3,0.9-0.4,1.4-0.2l12.5,6.2
	l11.7-15.7c0.1-0.2,0.4-0.4,0.8-0.4c0.3-0.1,0.6,0,0.8,0.2L84,126.6l9-16.3c0.2-0.2,0.4-0.4,0.7-0.5c0.3-0.1,0.6,0,0.9,0.1l11.5,6.5
	l12.4-15.7c0.4-0.5,1.1-0.6,1.6-0.2c0.5,0.3,0.6,1,0.2,1.4l-12.9,16.6c-0.4,0.4-1,0.5-1.5,0.2l-11.5-6.4l-9.1,16.4
	c-0.2,0.3-0.5,0.5-0.8,0.6c-0.4,0.1-0.7,0-1-0.3l-12.2-10.4L59.8,134c-0.3,0.5-0.9,0.6-1.4,0.3l-12.7-6.1l-11.6,12.5
	C33.9,140.9,33.5,141,33.2,141z"/>
<path class="st6" d="M121.8,107.3c-0.6,0-1.1-0.4-1.1-0.9l-1-5.6l-6.9,1.5c-0.6,0.2-1.2-0.2-1.3-0.8c-0.2-0.5,0.2-1.1,0.8-1.2
	l8.1-1.8c0.3-0.1,0.6-0.1,0.9,0.1c0.2,0.2,0.4,0.4,0.5,0.7l1.1,6.8C123,106.6,122.6,107.2,121.8,107.3
	C121.8,107.3,121.8,107.3,121.8,107.3z"/>
<path class="st4" d="M33,33.8h3.4c0.7,0,1.2,0,1.5,0c0.3,0.1,0.6,0.2,0.9,0.4c0.3,0.2,0.5,0.5,0.7,0.8c0.1,0.3,0.2,0.7,0.2,1
	c0,0.5-0.1,0.9-0.3,1.2c-0.2,0.4-0.5,0.7-0.9,0.8c0.5,0.2,0.9,0.5,1.2,0.8c0.3,0.4,0.5,0.9,0.5,1.4c0,0.4-0.1,0.8-0.3,1.2
	c-0.2,0.4-0.4,0.7-0.7,1c-0.3,0.2-0.7,0.3-1.2,0.4c-0.3,0-1,0-2.1,0.1H33V33.8z M34.7,35.3v2.1h1.2c0.7,0,1.1,0,1.2-0.1
	c0.3,0,0.6-0.1,0.7-0.3c0.2-0.2,0.3-0.4,0.3-0.7s-0.1-0.5-0.3-0.7c-0.1-0.1-0.3-0.2-0.6-0.3c-0.2,0-0.7,0-1.5,0H34.7z M34.7,38.9
	v2.4h1.6c0.6,0,1,0,1.2,0c0.3-0.1,0.5-0.2,0.6-0.4c0.2-0.2,0.3-0.5,0.3-0.8c0-0.3-0.1-0.5-0.2-0.7c-0.1-0.2-0.3-0.3-0.6-0.4
	c-0.2-0.1-0.7-0.1-1.5-0.1H34.7z"/>
<path d="M41.6,33.8h1.7v4.9c0,0.8,0,1.3,0.1,1.5c0.1,0.4,0.2,0.7,0.5,0.9c0.3,0.2,0.7,0.3,1.2,0.3c0.5,0,0.8-0.1,1.1-0.3
	c0.3-0.2,0.4-0.5,0.4-0.8c0.1-0.3,0.1-0.8,0.1-1.5v-5h1.8v4.7c0,1.1-0.1,1.9-0.2,2.3c-0.1,0.5-0.2,0.9-0.5,1.2
	c-0.3,0.3-0.6,0.6-1,0.7c-0.4,0.2-1,0.3-1.7,0.3c-0.8,0-1.4-0.1-1.8-0.3c-0.5-0.2-0.8-0.5-1-0.8c-0.3-0.3-0.4-0.7-0.5-1
	c-0.1-0.5-0.2-1.3-0.2-2.3V33.8z"/>
<path d="M49.8,39.9l1.7-0.2c0.1,0.6,0.3,1,0.6,1.3c0.3,0.3,0.8,0.5,1.3,0.5c0.5,0,1-0.1,1.3-0.4c0.3-0.3,0.4-0.6,0.4-0.9
	c0-0.2-0.1-0.4-0.2-0.5c-0.1-0.2-0.3-0.3-0.6-0.4c-0.2-0.1-0.7-0.2-1.4-0.4c-0.9-0.3-1.6-0.6-2-0.9c-0.5-0.5-0.8-1.2-0.8-1.9
	c0-0.5,0.1-0.9,0.4-1.3c0.3-0.4,0.6-0.7,1.1-0.9c0.5-0.2,1-0.3,1.7-0.3c1.1,0,1.9,0.3,2.4,0.8c0.5,0.5,0.8,1.1,0.9,2h-1.8
	c-0.1-0.5-0.2-0.8-0.4-1c-0.3-0.2-0.6-0.3-1.1-0.3c-0.5,0-0.9,0.1-1.2,0.3c-0.2,0.2-0.3,0.4-0.3,0.6s0.1,0.4,0.3,0.6
	c0.2,0.2,0.7,0.4,1.6,0.6c0.8,0.2,1.4,0.4,1.8,0.6c0.4,0.3,0.7,0.6,1,1c0.2,0.3,0.3,0.8,0.3,1.4c0,0.5-0.1,1-0.4,1.5
	c-0.3,0.4-0.7,0.7-1.2,1c-0.5,0.2-1.1,0.3-1.8,0.3c-1.1,0-2-0.3-2.5-0.8C50.3,41.7,49.9,40.9,49.8,39.9z"/>
<path d="M58.2,42.9v-9.1h1.7v9.1H58.2z"/>
<path d="M61.6,42.9v-9.1h1.7l3.5,6v-6h1.6v9.1h-1.7l-3.5-6v6H61.6z"/>
<path d="M70.2,42.9v-9.1h6.4v1.5H72v2h4.3v1.5H72v2.5h4.8v1.6H70.2z"/>
<path d="M77.8,39.9l1.7-0.2c0.1,0.6,0.3,1,0.6,1.3c0.3,0.3,0.7,0.5,1.2,0.5c0.6,0,1-0.1,1.3-0.4c0.3-0.3,0.4-0.6,0.4-0.9
	c0-0.2-0.1-0.4-0.2-0.5c-0.1-0.2-0.3-0.3-0.6-0.4c-0.2-0.1-0.7-0.2-1.4-0.4c-0.9-0.3-1.6-0.6-1.9-0.9c-0.5-0.5-0.8-1.2-0.8-1.9
	c0-0.5,0.1-0.9,0.4-1.3c0.2-0.4,0.5-0.7,1-0.9c0.5-0.2,1-0.3,1.7-0.3c1.1,0,1.9,0.3,2.5,0.8c0.5,0.5,0.8,1.1,0.8,2h-1.7
	c-0.1-0.5-0.2-0.8-0.5-1c-0.3-0.2-0.6-0.3-1.1-0.3c-0.5,0-0.9,0.1-1.2,0.3c-0.1,0.2-0.2,0.4-0.2,0.6s0.1,0.4,0.2,0.6
	c0.2,0.2,0.7,0.4,1.6,0.6c0.9,0.2,1.5,0.4,1.9,0.6c0.4,0.3,0.7,0.6,0.9,1c0.3,0.3,0.4,0.8,0.4,1.4c0,0.5-0.2,1-0.5,1.5
	c-0.3,0.4-0.6,0.7-1.1,1C82.7,42.9,82,43,81.3,43c-1.1,0-1.9-0.3-2.5-0.8C78.3,41.7,77.9,40.9,77.8,39.9z"/>
<path d="M85.8,39.9l1.7-0.2c0.1,0.6,0.3,1,0.6,1.3c0.3,0.3,0.7,0.5,1.2,0.5c0.6,0,1-0.1,1.3-0.4c0.3-0.3,0.4-0.6,0.4-0.9
	c0-0.2-0.1-0.4-0.2-0.5c-0.1-0.2-0.3-0.3-0.6-0.4c-0.2-0.1-0.7-0.2-1.4-0.4c-0.9-0.3-1.6-0.6-1.9-0.9c-0.5-0.5-0.8-1.2-0.8-1.9
	c0-0.5,0.1-0.9,0.4-1.3c0.2-0.4,0.5-0.7,1-0.9c0.5-0.2,1-0.3,1.7-0.3c1.1,0,1.9,0.3,2.4,0.8c0.6,0.5,0.9,1.1,0.9,2h-1.7
	c-0.1-0.5-0.2-0.8-0.5-1c-0.3-0.2-0.6-0.3-1.1-0.3c-0.5,0-0.9,0.1-1.2,0.3c-0.2,0.2-0.3,0.4-0.3,0.6s0.1,0.4,0.3,0.6
	c0.2,0.2,0.7,0.4,1.6,0.6c0.9,0.2,1.5,0.4,1.9,0.6c0.4,0.3,0.7,0.6,0.9,1c0.2,0.3,0.3,0.8,0.3,1.4c0,0.5-0.1,1-0.4,1.5
	c-0.3,0.4-0.6,0.7-1.1,1C90.7,42.9,90,43,89.3,43c-1.1,0-1.9-0.3-2.5-0.8C86.2,41.7,85.9,40.9,85.8,39.9z"/>
<path class="st4" d="M97.5,42.9v-9.1h2.8c1.1,0,1.8,0,2.1,0.1c0.5,0.1,0.9,0.4,1.2,0.9c0.3,0.5,0.5,1.1,0.5,1.8c0,0.5-0.1,1-0.3,1.4
	c-0.2,0.3-0.4,0.6-0.7,0.9c-0.3,0.2-0.6,0.3-0.9,0.4c-0.4,0.1-1,0.1-1.8,0.1h-1.1v3.5H97.5z M99.2,35.3v2.6h0.9
	c0.7,0,1.2-0.1,1.4-0.2c0.3-0.1,0.4-0.2,0.5-0.4c0.1-0.2,0.2-0.4,0.2-0.7c0-0.3-0.1-0.6-0.2-0.8c-0.2-0.3-0.4-0.4-0.7-0.4
	c-0.2-0.1-0.6-0.1-1.3-0.1H99.2z"/>
<path d="M105.6,42.9v-9.1h1.7v7.5h4.3v1.6H105.6z"/>
<path class="st4" d="M120.6,42.9h-1.9l-0.8-2.1h-3.4l-0.7,2.1H112l3.3-9.1h1.8L120.6,42.9z M117.4,39.3l-1.1-3.4l-1.2,3.4H117.4z"/>
<path d="M121.5,42.9v-9.1h1.7l3.5,6v-6h1.6v9.1h-1.7l-3.5-6v6H121.5z"/>
<path class="st6" d="M97,222.4H81c-2.7,0-4.9-2.2-4.9-5c0-2.7,2.2-4.9,4.9-4.9h16V222.4z"/>
<path class="st6" d="M76.1,216.9c0.3-2.5,2.4-4.4,4.9-4.4h16v3.9c-1.9,0.7-4.1,1.6-4.8,0.5c-0.8-1.3-3.4-3.2-3.4-3.2
	s-5.2-0.1-8.6-0.1C76.7,213.6,76.1,216.8,76.1,216.9z"/>
<path class="st3" d="M91.7,221.1c-2.1,0-3.8-1.6-3.8-3.7c0-2.1,1.7-3.8,3.8-3.8H120v7.5H91.7z"/>
<path class="st4" d="M120.3,221.4H91.7c-2.2,0-4-1.8-4-4c0-2.2,1.8-4,4-4h28.6V221.4z M91.7,213.8c-2,0-3.5,1.6-3.5,3.5
	c0,2,1.5,3.6,3.5,3.6h28.1v-7.1H91.7z"/>
<path d="M122,222.4H91.9c-2.7,0-4.9-2.2-4.9-5c0-2.7,2.2-4.9,4.9-4.9H122v1.7H91.9c-1.8,0-3.2,1.5-3.2,3.2c0,1.8,1.4,3.3,3.2,3.3
	H122V222.4z"/>
<path class="st6" d="M99.9,198.5H87.5c-2.1,0-3.8-1.7-3.8-3.8c0-2.2,1.7-3.9,3.8-3.9h12.4V198.5z"/>
<path class="st3" d="M95.8,197.5c-1.6,0-2.9-1.3-2.9-2.9c0-1.6,1.3-2.9,2.9-2.9h21.9v5.8H95.8z"/>
<path class="st4" d="M118,197.7H95.8c-1.7,0-3.1-1.4-3.1-3.1c0-1.7,1.4-3.1,3.1-3.1H118V197.7z M95.8,192c-1.4,0-2.6,1.1-2.6,2.6
	c0,1.4,1.2,2.6,2.6,2.6h21.7V192H95.8z"/>
<path d="M119.3,198.5H96c-2.1,0-3.8-1.7-3.8-3.8c0-2.2,1.7-3.9,3.8-3.9h23.3v1.3H96c-1.4,0-2.5,1.2-2.5,2.6c0,1.3,1.1,2.5,2.5,2.5
	h23.3V198.5z"/>
<path class="st5" d="M101.4,204.3H88c-1.6,0-3-1.3-3-2.9c0-1.6,1.4-2.9,3-2.9h13.4V204.3z"/>
<path d="M85.1,202.1c-0.1-0.2-0.1-0.4-0.1-0.7c0-1.6,1.4-2.9,3-2.9h13.4v1.3l-3.3-0.3h-10C88.1,199.5,85.5,199.5,85.1,202.1z"/>
<path class="st3" d="M100.2,203.5c-1.1,0-2.1-1-2.1-2.1c0-1.2,1-2.2,2.1-2.2h21.5v4.3H100.2z"/>
<path class="st4" d="M121.9,203.7h-21.7c-1.3,0-2.4-1-2.4-2.3c0-1.4,1.1-2.4,2.4-2.4h21.7V203.7z M100.2,199.4c-1,0-1.9,0.9-1.9,1.9
	s0.9,1.9,1.9,1.9h21.2v-3.8H100.2z"/>
<path d="M122.9,204.3h-22.5c-1.6,0-3-1.3-3-2.9c0-1.6,1.4-2.9,3-2.9h22.5v1h-22.5c-1.1,0-2,0.8-2,1.9c0,1.1,0.9,1.9,2,1.9h22.5
	V204.3z"/>
<path class="st5" d="M90.1,204.3h24.6c2.2,0,4.1,1.9,4.1,4.1c0,2.3-1.9,4.1-4.1,4.1H90.1V204.3z"/>
<path d="M114.7,204.3c2.2,0,4.1,1.9,4.1,4.1c0,0.1,0,0.3,0,0.5c-0.1,0-1.2-2.8-4.5-2.9c-3.3,0-17.6,0-17.6,0l-3.9-1.7H114.7z"/>
<path class="st3" d="M80.4,211.4v-6.1h14.1c1.7,0,3.1,1.4,3.1,3.1c0,1.7-1.4,3-3.1,3H80.4z"/>
<path class="st4" d="M97.8,208.4c0,1.8-1.5,3.3-3.3,3.3H80.2V205h14.3C96.3,205,97.8,206.5,97.8,208.4z M80.7,205.5v5.7h13.8
	c1.6,0,2.8-1.3,2.8-2.8c0-1.6-1.2-2.9-2.8-2.9H80.7z"/>
<path d="M78.7,211.1h15.6c1.5,0,2.7-1.2,2.7-2.7s-1.2-2.7-2.7-2.7H78.7v-1.4h15.6c2.3,0,4.1,1.9,4.1,4.1c0,2.3-1.8,4.1-4.1,4.1H78.7
	V211.1z"/>
<path class="st3" d="M123.9,101.5c-4.1,0-8.2-1.1-12.2-3.2c-4.4-2.4-2-22.7,1-28.7l0.1-0.1l-0.1-0.2c-0.2-0.2-0.5-0.5-0.8-1.1
	c-0.7-1.1-0.5-1.8-0.4-2c0-0.2,0.2-0.2,0.2-0.3l1.1,1.4l-0.7-1.6c-0.3-0.5-0.2-1,0-1.3c0.1-0.1,0.1-0.2,0.2-0.2l0.5,0.3l-0.1-0.5
	c-0.1-0.3,0-0.7,0.2-1c0.2-0.2,0.4-0.3,0.6-0.3c0.3,0,0.5,0.1,0.6,0.4l0.9,1.3l-0.4-1.5c-0.3-1-1.5-2.6-2.2-3.2
	c-0.3-0.3-0.3-0.5-0.3-0.7c0.1-0.1,0.2-0.1,0.3-0.2c0.1,0,0.1,0,0.1,0.1c0.3,0,1.1,0.4,2.7,2.4c0.7,1,2,3,2.1,5.2v0.4l0.3-0.1
	c0.1-0.1,0.3-0.1,0.4-0.2h0.2v-0.2c0-0.3-0.1-0.7-0.1-0.9c-0.1-0.2,0-0.3,0-0.4c0.1-0.1,0.3-0.2,0.4-0.2c0.1,0,0.2,0.1,0.3,0.2
	c0.3,0.7,0.5,1.3,0.3,1.9c-0.1,0.2-1.8,2.9-2.4,3.3l-0.1,0.1l0.1,0.2c0.2,1,0.5,3.1,0.8,5.4c1.5,9.9,2.1,12.6,2.8,12.7h0.1
	c0.9,0,3.3-1,7.2-2.7c0.1-0.1,1-0.4,1-0.4c0.3-0.1,0.5-0.3,0.8-0.4h0.2c6.8-3,13.3-4.7,17.7-4.7c0.9,0,1.8,0.1,2.5,0.3
	c0.4,0.1,0.6,0.2,0.7,0.5c0.6,2.3-7.5,9.9-10.7,12.6c-0.1,0.1-0.9,1.5-2.6,3.2c-1.7,1.7-3.3,2.5-6.6,3.5h-0.1c-0.1,0-0.2,0-0.3,0.1
	c-0.7,0.2-1.4,0.4-2.3,0.5c-0.6,0.1-1.2,0.1-1.8,0.2c-0.4,0.1-0.8,0.1-1.2,0.1C124.6,101.5,124.2,101.5,123.9,101.5z"/>
<path class="st4" d="M112.6,58.6c0.8,0.2,2.2,1.8,2.8,2.6c1.1,1.5,2.1,3.4,2.1,5.3c0.2,0,0.4,0,0.5-0.1c0-0.3-0.1-0.6-0.2-0.9
	c-0.1-0.4,0.3-0.8,0.7-0.8c0.2,0,0.4,0.1,0.5,0.3c0.4,0.7,0.6,1.3,0.3,2.1c0,0.1-1.8,3-2.4,3.4c0.7,3.6,2.4,17.8,3.5,17.9
	c0.9,0,3.6-1.1,7.1-2.6c0.2-0.1,0.4-0.2,0.7-0.3c0.3-0.2,0.7-0.4,1.1-0.5c0.1,0,0.1,0,0.1,0c6.2-2.7,13-4.7,17.9-4.7
	c0.9,0,1.8,0.1,2.5,0.2c4.7,1-9.8,13.6-9.8,13.6s-0.9,1.5-2.7,3.2c-1.7,1.7-3.4,2.6-6.6,3.5c-0.1,0-0.3,0-0.4,0.1
	c-0.7,0.2-1.5,0.4-2.3,0.5c-0.6,0.1-1.2,0.2-1.9,0.3c-0.4,0-0.8,0-1.2,0.1c-0.3,0-0.7,0-1,0c-3.6,0-7.8-0.8-12.3-3.3
	c-4.8-2.6-2-23.1,0.9-29c-0.3-0.3-0.5-0.7-0.8-1.2c-1.1-1.5-0.4-2.6,0-2.6c0.1,0,0.1,0,0.1,0.1c-0.4-0.9,0-1.8,0.5-1.8
	c0,0,0,0,0.1,0c-0.1-0.7,0.5-1.6,1.1-1.6c0.3,0,0.6,0.2,0.8,0.5c-0.2-0.8-1.4-2.4-2.1-3c-0.6-0.6-0.4-1.3,0.2-1.3
	C112.5,58.6,112.5,58.6,112.6,58.6z M112.3,59.1c0,0.1,0.1,0.2,0.2,0.4c0.8,0.7,2,2.3,2.3,3.3l0.9,3l-1.8-2.6
	c-0.1-0.1-0.2-0.3-0.4-0.3c-0.1,0-0.2,0.1-0.4,0.3c-0.1,0.2-0.2,0.5-0.2,0.7l0.3,1.1l-0.9-0.5c-0.1,0.2-0.2,0.6,0,1.1l1.4,3.1
	l-2-2.4c-0.1,0.3-0.2,0.9,0.4,1.7c0.3,0.6,0.6,0.9,0.8,1.2l0.2,0.2l-0.1,0.3c-3,5.9-5.5,26-1.2,28.3c4,2.2,8,3.3,12.1,3.3
	c0.3,0,0.7,0,1,0c0.5-0.1,0.9-0.1,1.2-0.1c0.6-0.1,1.2-0.1,1.8-0.2c0.9-0.2,1.6-0.4,2.3-0.6c0.1,0,0.1,0,0.2,0l0.1-0.1
	c3.3-0.9,4.9-1.8,6.5-3.3c1.7-1.7,2.5-3.1,2.5-3.1l0.1-0.1v-0.1c4.4-3.7,11.1-10.4,10.6-12.3c0-0.1,0-0.3-0.5-0.4
	c-0.7-0.1-1.5-0.2-2.4-0.2c-4.3,0-10.8,1.7-17.7,4.6l-0.1,0.1c-0.3,0.1-0.5,0.2-0.8,0.3l-0.3,0.1c-0.1,0.1-0.3,0.1-0.4,0.2
	c-0.1,0.1-0.2,0.1-0.3,0.1c-3.9,1.7-6.4,2.7-7.3,2.7c0,0,0,0-0.1,0c-0.9-0.1-1.4-1.8-3-12.8c-0.4-2.4-0.7-4.4-0.9-5.5l-0.1-0.3
	l0.3-0.2c0.5-0.3,2.1-2.9,2.3-3.2c0.2-0.5,0-1-0.3-1.7c-0.1,0-0.1,0-0.1,0c-0.1,0-0.1,0-0.2,0.1c0,0.1,0,0.1,0,0.1
	c0.1,0.3,0.2,0.6,0.2,1v0.4l-0.4,0.1c-0.1,0-0.3,0-0.4,0.1l-0.7,0.2v-0.7c0-2.1-1.3-4.1-2-5c-1.7-2.1-2.3-2.4-2.5-2.4
	C112.5,59.1,112.5,59.1,112.3,59.1C112.4,59.1,112.4,59.1,112.3,59.1z"/>
<path class="st3" d="M146.2,217.5c-1.8,0-4.5-0.5-5.1-1.1c0-0.1,0-0.1,0-0.1c0-1.5,0.2-4.7,0.7-5.2c0,0,0.1,0,0.6,0
	c1.6,0,4.7,0.7,5.3,1c0,1.5-0.3,5-0.7,5.3C147,217.4,146.8,217.5,146.2,217.5z"/>
<path class="st4" d="M147.9,212c0.1,1.1-0.2,5.1-0.8,5.6c-0.1,0.1-0.5,0.1-0.9,0.1c-1.8,0-5.4-0.6-5.4-1.4c0-0.9,0.2-4.8,0.8-5.3
	c0.1-0.1,0.4-0.2,0.8-0.2C144.1,210.8,147.9,211.7,147.9,212z M141.9,211.4c-0.3,0.4-0.6,3.2-0.6,4.8c0.4,0.4,3,1,4.9,1
	c0.4,0,0.5,0,0.6,0c0.4-0.5,0.6-3.5,0.6-5c-0.7-0.2-3.5-0.9-5-0.9C142.1,211.3,142,211.3,141.9,211.4z"/>
<path class="st3" d="M190.6,212.8c-0.1,0-0.2,0-0.2,0c-0.9-1.3-2.6-4.1-2.5-4.6c0.2-0.6,4.5-2.6,5.4-2.7c0.9,1.2,2.7,4.2,2.5,4.7
	C195.6,210.7,192,212.8,190.6,212.8z"/>
<path class="st4" d="M193.4,205.2c0.7,0.9,2.9,4.3,2.6,5.1c-0.1,0.6-4,2.8-5.4,2.8c-0.2,0-0.3-0.1-0.4-0.2c-0.5-0.7-2.6-4-2.5-4.8
	C187.8,207.3,192.6,205.2,193.4,205.2C193.4,205.2,193.4,205.2,193.4,205.2z M188.2,208.2c0,0.6,1.4,3,2.3,4.4c0.1,0,0.1,0,0.1,0
	c1.2,0,4.5-1.9,5-2.5c-0.1-0.6-1.6-3.2-2.5-4.4C192.2,206,188.6,207.6,188.2,208.2z"/>
<path d="M161.4,139.2c-0.4,1-0.8,2-1.2,3.1c-2.8,7.3-6.3,15.8-6.7,20.2c-0.6,8.1-4.4,28.1-4.4,37.8c0,7.9-2.2,13.2-2,15.1l-7.2-1.4
	c-2.8-11.4-5.6-38.9-5.6-51.3c0-12.5,1.1-33.2,5.6-43.1c4.4-9.3,21.7,7.7,23.8,10C164.4,130.5,163.2,134.3,161.4,139.2z"/>
<path d="M161.4,139.2c-0.4,1-0.8,2-1.2,3.1c-2.8,7.3-6.3,15.8-6.7,20.2c-0.6,8.1-3.9,50.1-4.6,52.8c-1.3,0.8-3.8,0.2-5.5-0.6
	c-0.6-7,2.7-13.6,3.5-20.4c1.5-13-3-26.8,2.5-39.3c1.6-3.5,4.1-7.1,3.9-11.1c-0.2-1.9-1.4-4.2-0.3-6.1c2-3.4,5.8-1.1,7.5,1.2
	c0.2,0,0.5-0.1,0.7,0.1C161.3,139.2,161.3,139.2,161.4,139.2z"/>
<path d="M159.9,124.5c4.4-4.8,9.6-7.5,12.8-7.9c0.7-0.1,1.4,0,1.9,0.1c0.4,0.2,0.7,0.5,0.9,0.8c1.5,2.4,2.6,4.6,3.5,6.7
	c0.3,0.6,0.5,1.2,0.7,1.8c4.6,12.5,0.2,20.8,0.3,37.7c0,8.2-1.7,15.4,6.4,27.9c3.1,4.8,9.5,16.4,9.5,16.4l-1.3,0.7l-5.7,3
	c-10.4-7.9-26.1-28.2-27.5-40.5c-2.2-19.2-2.8-38.9-2.9-43.9c0-0.8,0-1.2,0-1.3C159,125.5,159.4,125,159.9,124.5z"/>
<path d="M175.7,151.7c1.6-8.1,2.5-15.8,0.1-23.9c-0.1-0.3,0-0.5,0.2-0.6c0.1-0.1,0.2-0.2,0.3-0.2c0.9-0.3,2.1-0.8,3.4-1
	c4.6,12.5,0.2,20.8,0.3,37.7c0,8.2-1.7,15.4,6.4,27.9c3.1,4.8,9.5,16.4,9.5,16.4l-1.3,0.7c-4.6-4.3-9.4-8.6-12.2-14.3
	c-3.1-6.5-5.1-13.9-6.7-20.9C174.1,166.1,174.3,159.1,175.7,151.7z"/>
<path d="M147.3,216.2c0,0,1.7,4.2-0.6,6.8c0,0-13.2-1.9-16.9-3.3c0,0,0.8-5.1,4.3-4.9c3.4,0.3,6.8,1.1,6.8,1.1
	S144.3,218.5,147.3,216.2z"/>
<path d="M195.6,208.7c0,0,4,2.2,3.8,5.7c0,0-11.3,6.9-15.2,8.2c0,0-2.5-4.5,0.3-6.5s5.9-3.5,5.9-3.5S194.7,212.4,195.6,208.7z"/>
<path class="st3" d="M136.4,100.6c-6.2-4.8-7.4-13-5.4-18.4c6.4-5.4,13.6-11,18-11.8c0.1-0.1,0.1-0.1,0.2-0.1c0.3,0,0.5,0.1,0.6,0.3
	c0.4,0.6,0.6,3-2.8,11.3c-1.5,3.5-2.9,6.4-2.9,6.4l-0.1,0.2l0.1,0.1c0.1,0,2.7,3.4,1.8,5.5c-0.3,0.9-1.3,1.8-2.9,2.8
	c-0.9,0.5-1.8,1-2.8,1.5C138.9,99.1,137.6,99.8,136.4,100.6z"/>
<path class="st4" d="M147.2,82c-1.4,3.5-2.9,6.4-2.9,6.4s2.8,3.5,1.9,5.8c-0.5,1.1-1.6,2-3.1,2.9c-2,1.2-4.6,2.4-6.7,3.8
	c-6.5-4.9-7.6-13.4-5.6-18.9c5.8-4.9,13.5-11,18.2-11.9c0.1,0,0.1,0,0.2,0C151.7,70.1,149.4,76.7,147.2,82z M149,70.6
	c-4.3,0.8-11.4,6.3-17.8,11.7c-1.9,5.3-0.7,13.3,5.2,18c1.2-0.8,2.4-1.4,3.6-2.1c1-0.5,1.9-1,2.8-1.5c1.6-1,2.6-1.8,2.9-2.7
	c0.7-1.6-1-4.3-1.8-5.2l-0.1-0.3l0.1-0.3c0,0,1.4-2.9,2.8-6.4c3.6-8.5,3.2-10.6,2.9-11.1c-0.1,0-0.2-0.1-0.4-0.1
	C149.1,70.6,149.1,70.6,149,70.6z"/>
<path class="st3" d="M177.8,128.4c-5.9,0-37.6-7.3-38.6-8.9c0.4-1.8,1.2-4.7,2.1-7.7c1.1-3.5,2.3-7.6,2.8-10.7
	c0.1-0.7,0.2-1.3,0.3-2.1c0.1-1.9-0.1-4.7-0.4-7.9l-0.1-1.2c-0.8-8.6-1.2-17.1,2.8-18.7l0.3-0.1c0.2-0.1,0.4-0.1,0.6-0.2
	c1.2-0.5,2.5-0.8,3.8-1.1l0.1-0.1c2.1-0.5,4.1-0.7,6.2-0.7c2.4,0,4.8,0.3,7.2,1c2.3,0.6,4.6,1.4,6.8,2.6c1.2,0.6,2.3,1.3,3.3,2
	c0.8,0.5,1.3,0.8,1.7,1.2c1.8,1.4,2.8,8.8,2.8,20.3c0,1.6-0.1,3.4-0.1,5.6c-0.2,5.3,0.5,12,1,17.3c0.4,4.2,0.7,7.7,0.4,8.3
	c-0.1,0.2-0.4,0.7-2.4,1C178.3,128.4,178.1,128.4,177.8,128.4z"/>
<path class="st4" d="M165,69.7c2.6,0.7,4.9,1.6,6.8,2.7c1.3,0.7,2.4,1.3,3.4,2c0.6,0.4,1.2,0.8,1.7,1.2c2.2,1.7,2.9,10.8,2.8,20.5
	c0,1.9,0,3.8-0.1,5.6c-0.3,9.7,2.1,24.3,1.4,25.7c-0.2,0.5-1.1,0.9-2.6,1.2c-0.1,0-0.3,0-0.6,0c-5.8,0-38.8-7.5-38.8-9
	c0.7-4.2,3.9-12.8,4.9-18.6c0.1-0.7,0.2-1.3,0.2-2c0.2-2.1-0.2-5.4-0.5-9.1c-0.7-7.8-1.3-17.2,3-18.9c0.3-0.1,0.6-0.2,0.9-0.3
	c1.3-0.5,2.6-0.9,3.8-1.2c2.2-0.5,4.4-0.7,6.4-0.7C160.3,68.8,162.8,69.1,165,69.7z M151.8,69.9L151.8,69.9l-0.4,0.1
	c-1.3,0.3-2.5,0.6-3.7,1.1c-0.2,0.1-0.4,0.2-0.6,0.3l-0.3,0.1c-4.2,1.6-3.2,12.1-2.7,18.4l0.1,1.2c0.3,3.2,0.5,6,0.4,7.9
	c0,0.8-0.1,1.5-0.2,2.1c-0.6,3.2-1.8,7.2-2.8,10.8c-0.9,2.9-1.7,5.7-2.1,7.5c2.4,1.8,32.7,8.7,38.3,8.7c0.3,0,0.4,0,0.5,0
	c2-0.4,2.3-0.9,2.3-0.9c0.2-0.5-0.1-4.4-0.5-8.1c-0.5-5.4-1.1-12.1-1-17.4c0.1-2.2,0.1-4,0.1-5.6c0.1-11.4-0.9-18.8-2.6-20.1
	c-0.5-0.4-1-0.7-1.7-1.2c-1.1-0.7-2.2-1.4-3.3-2c-2.2-1.1-4.4-2-6.7-2.6c-2.4-0.6-4.8-0.9-7.2-0.9C155.8,69.3,153.8,69.5,151.8,69.9
	z"/>
<path class="st3" d="M155.6,70.7c-0.1,0-0.3,0-0.5,0c-0.1,0-0.1-0.1-0.2-0.2c-0.1-0.3,0.2-1.1,0.4-1.5v-4.1l4.9-2v5.9
	C159.7,69.1,157.4,70.7,155.6,70.7z"/>
<path class="st4" d="M160.4,68.9c0,0-2.6,2.1-4.8,2.1c-0.1,0-0.3,0-0.5-0.1c-1-0.2,0-2,0-2v-4.2l5.3-2.2V68.9z M155.6,65v4l-0.1,0.1
	c-0.3,0.6-0.4,1.2-0.3,1.3c0.1,0.1,0.3,0.1,0.4,0.1c1.7,0,3.7-1.4,4.3-1.9v-5.4L155.6,65z"/>
<path class="st3" d="M155.8,66.1c-2,0-3.9-1.2-4-2.7c-0.4-3.2,0.3-7,0.5-7.8l8.3-1.3c0.4,0.9,2,5.4-0.6,9.3
	C159,65.3,157.5,66.1,155.8,66.1z"/>
<path class="st4" d="M160.3,63.8c-1.3,1.9-2.9,2.6-4.5,2.6c-2.2,0-4.1-1.4-4.3-2.9c-0.4-3.8,0.6-8.1,0.6-8.1l8.7-1.4
	C160.8,54,163.2,59.2,160.3,63.8z M152.5,55.8c-0.2,1.1-0.8,4.6-0.5,7.6c0.1,1.2,1.8,2.5,3.8,2.5c1.6,0,3-0.8,4-2.4
	c2.4-3.6,1.1-7.7,0.7-9L152.5,55.8z"/>
<path class="st6" d="M182.7,130c-0.9,0.6-25.5-3.2-25.5-3.2c-1.7-5.6-7.1-28.6-6.9-30.9c0.9-14.4,14.2-26,14.2-26
	c5.3-0.2,11.9,5.8,11.9,5.8c-1.6-3.1-8.3-2.9-9.4-1.2c-2.2,3.4-1.6,13.9,0.5,18.3c5.9,12.7,11.7,13.4,11.7,13.4L182.7,130z"/>
<path class="st6" d="M153,101.5c0.7,1.9-9.7,21.8-9.7,21.8s-7.3-1.4-7.5-1.5c0,0,3.1-8.3,5.4-14.2c0.5-1.1,0.9-2.2,1.3-3.3v-0.1
	c0.4-1.1,0.7-2.2,0.9-3c0.2-0.9,0.3-1.7,0.3-2.1c0.1-2.1-1.7-6-1.8-9.7c-0.2-6.5,2.2-17.5,4.3-18.3c0.2-0.1,0.4-0.1,0.6-0.2
	c0.1-0.1,0.2-0.1,0.3-0.1c1.3-0.5,2.5-0.8,3.7-1.1c0.1,0,0.1,0,0.1,0S148.1,89.1,153,101.5z"/>
<path d="M150.5,53.7c-0.6-3.1,4.7-2.5,6.5-2.3c1.2,0.1,5.5,0.9,5.7,2.8c1.1,1.9,1.2,4.6,0.4,6.6c0,0.5-0.2,0.9-0.7,1.3
	c-0.8,0.4-1.8,0.1-2.2-0.7c-0.7-1.1-0.3-2.8-0.4-4.1c0-0.2-0.1-1.1-0.1-1.9c-0.7-0.3-1.3-0.5-2.3-0.3c-1.1,0.2-2.1,0.5-3.2,0.7
	C152.5,56,149.3,55.6,150.5,53.7z"/>
<path class="st4" d="M159,96.8c1.7,0.5,2.7,2.4,2.2,4.2c-0.6,1.7-2.4,2.7-4.2,2.2c-1.8-0.6-2.8-2.4-2.2-4.2
	C155.3,97.2,157.2,96.2,159,96.8z M157.3,102c1.2,0.4,2.4-0.2,2.8-1.4c0.3-1.1-0.3-2.4-1.5-2.7c-1.1-0.4-2.3,0.3-2.7,1.4
	C155.6,100.5,156.2,101.7,157.3,102z"/>
<path class="st5" d="M140.9,121.2l6.7-21.6c0.4-1.4,2-2.2,3.4-1.8l14,4.3c1.4,0.5,2.2,2,1.8,3.4l-6.7,21.7c-0.4,1.4-2,2.2-3.4,1.7
	l-14-4.3C141.3,124.2,140.5,122.7,140.9,121.2z"/>
<path class="st3" d="M177.7,123.6c-0.2,0-0.4,0-0.6,0l-1-0.1c-9.7-1.2-26.4-8.4-28-9.2v-0.6l-0.4,0.4c-0.4,0.5-1,0.7-1.7,0.7
	c-0.2,0-0.4,0-0.7-0.1c-0.7-0.1-2.5-0.6-2.6-1.6c0-0.3,0.1-0.5,0.4-0.5l0.3-0.1l-0.2-0.3c-0.2-0.4-0.2-0.7,0.1-1l0.1-0.1l0.2-0.2
	l-0.2-0.2c-0.3-0.3-0.2-0.6-0.1-0.7c0.1-0.3,0.4-0.4,0.7-0.5h0.2v-0.2c0-0.1,0-0.1,0.1-0.2c0.1-0.3,0.3-0.5,0.6-0.5
	c0.6,0,1.3,0.4,1.8,0.7l0.4,0.2V109c-0.1-0.1-0.1-0.3-0.3-0.5c-0.4-0.5-1-0.6-1.5-0.7c-0.2-0.1-0.3-0.3-0.3-0.4
	c0-0.2,0.1-0.4,0.3-0.4c0.3-0.1,0.5-0.1,0.7-0.1c0.7,0,1.2,0.2,1.7,0.6c0.5,0.4,1.1,1.8,1.5,2.8v0.2h4.3c5.5,0.2,13.8,0.3,18.2,0.5
	c0.5,0,1,0,1.5,0c0.4,0.1,0.7,0.1,1,0.1c0.2,0,0.4,0,0.6,0h0.1h0.1l0.1-0.1c0.1,0,0.2-0.1,0.3-0.3c0.6-1.5-0.5-9.1-2.1-12
	c-0.9-1.6-1.8-3.2-2.5-4.2c-1.8-3.1-2.6-6.6-2.2-10c0.4-2.8,1.5-5.4,3.2-7.6c0.9-1.1,2.2-1.7,3.5-1.7c1.6,0,3.1,0.8,3.9,2.1
	c3.5,5.3,5.2,8,8.8,16.8v0.1c2.9,6.9,1.7,17.9-2.7,24.5C183.8,120.9,181.2,123.6,177.7,123.6z"/>
<path class="st4" d="M179.4,77.1c3.5,5.3,5.2,8.1,8.8,16.9c0.1,0,0.1,0,0.1,0.1c4.5,10.8-1.1,29.7-10.6,29.7c-0.2,0-0.4,0-0.6,0
	c-0.3,0-0.7,0-1-0.1c-10.3-1.2-28.2-9.2-28.2-9.2c0-0.1,0-0.1,0-0.2c-0.5,0.5-1.2,0.8-1.9,0.8c-0.3,0-0.5,0-0.7-0.1
	c-0.9-0.2-2.8-0.7-2.8-1.9c-0.1-0.4,0.2-0.7,0.5-0.8c-0.2-0.4-0.3-0.9,0.1-1.3c0-0.1,0-0.1,0.1-0.1c-0.2-0.3-0.3-0.7-0.1-1.1
	c0.2-0.3,0.5-0.4,0.9-0.5c0-0.1,0-0.2,0.1-0.3c0.1-0.5,0.4-0.6,0.8-0.6c0.6,0,1.3,0.3,1.9,0.7c0-0.2-0.1-0.4-0.2-0.5
	c-0.3-0.4-0.9-0.5-1.4-0.6c-0.6-0.1-0.6-1.1,0-1.2c0.3-0.1,0.5-0.1,0.8-0.1c0.7,0,1.3,0.1,1.8,0.6c0.6,0.5,1.3,2,1.6,2.9
	c4.6,0.1,16.6,0.3,22.3,0.5c0.6,0.1,1.1,0.1,1.5,0.1c0.3,0.1,0.7,0.1,1,0.1c0.2,0,0.4,0,0.6-0.1c0.1,0,0.1,0,0.1,0s0,0,0.1,0
	c1-0.2-0.2-8.7-1.9-12c-0.8-1.5-1.7-2.9-2.5-4.2c-1.8-3-2.7-6.6-2.2-10.1c0.5-3.4,1.8-5.9,3.2-7.8c1-1.2,2.4-1.8,3.7-1.8
	C176.9,74.9,178.5,75.7,179.4,77.1z M172,77c-1.7,2.2-2.7,4.7-3.1,7.6c-0.5,3.2,0.3,6.7,2.2,9.8c0.9,1.4,1.7,2.9,2.4,4.2
	c1.7,3,2.8,10.6,2.1,12.2c-0.1,0.3-0.3,0.4-0.4,0.5h-0.1h-0.2c0,0,0,0-0.1,0c-0.2,0.1-0.4,0.1-0.6,0.1c-0.3,0-0.7,0-1-0.1h-0.1
	c-0.4,0-0.9,0-1.4-0.1c-4.4-0.1-12.7-0.3-18.2-0.4c-1.6,0-3.1-0.1-4.1-0.1H149l-0.1-0.3c-0.3-1-0.9-2.3-1.4-2.7
	c-0.4-0.3-0.9-0.5-1.5-0.5c-0.2,0-0.4,0-0.7,0c0,0.1,0,0.2,0,0.2v0.1c0.6,0.1,1.3,0.3,1.7,0.8c0.2,0.3,0.3,0.5,0.3,0.7l0.1,1
	l-0.8-0.5c-0.3-0.2-1.1-0.6-1.7-0.6c-0.2,0-0.3,0-0.4,0.2c0,0.1,0,0.1,0,0.2v0.4l-0.4,0.1c-0.4,0-0.5,0.2-0.6,0.3
	c0,0.1-0.1,0.2,0.1,0.5l0.3,0.3l-0.3,0.3c-0.1,0.1-0.1,0.1-0.1,0.1c-0.1,0.2-0.3,0.4,0,0.8l0.2,0.5l-0.5,0.2c-0.2,0-0.2,0.1-0.2,0.3
	c0,0.6,0.9,1.1,2.4,1.4c0.2,0.1,0.4,0.1,0.6,0.1c0.4,0,1-0.1,1.5-0.6l0.8-0.9l0.1,1.1c2.2,1,18.2,7.9,27.8,9
	c0.3,0.1,0.6,0.1,0.9,0.1c0.2,0,0.4,0,0.6,0c3.4,0,5.9-2.6,7.4-4.8c4.3-6.5,5.6-17.4,2.7-24.2v-0.1c0,0,0,0-0.1-0.1
	c-3.5-8.6-5.2-11.4-8.7-16.7c-0.8-1.2-2.2-2-3.7-2C174,75.4,172.8,76,172,77z"/>
<path class="st3" d="M172.1,98.2c-0.5,0-1,0-1.5-0.1c-6.1-11.3-7-19.4-2.6-24.2c0.7-0.7,1.8-1.1,3.3-1.1c3.2,0,7,1.8,8.5,3
	c5.2,4.1,7.7,12.9,8.3,15C183.3,95.6,177.7,98.2,172.1,98.2z"/>
<path class="st4" d="M180,75.6c5.4,4.3,8,13.8,8.3,15.3c-4.6,4.6-10.3,7.5-16.2,7.5c-0.5,0-1.1,0-1.6,0c-4.2-7.6-8.5-18.3-2.6-24.6
	c0.8-0.9,2-1.3,3.4-1.3C174.4,72.5,178.3,74.3,180,75.6z M168.2,74.1c-4.3,4.7-3.5,12.7,2.6,23.8c0.5,0,0.9,0,1.3,0
	c5.5,0,11-2.5,15.7-7.2c-0.6-2.3-3.2-10.8-8.1-14.7c-1.5-1.2-5.3-3-8.4-3C169.9,73,168.9,73.4,168.2,74.1z"/>
<path class="st3" d="M165.4,51c-0.4,0-0.7-0.1-0.7-0.1h-0.4l0.2-0.3c1.2-1.8,0.4-5.3-0.5-8c-5.8-3.9-9.2-10.4-9.2-17.4
	c0-11.6,9.4-21.1,21-21.1c11.7,0,21.1,9.5,21.1,21.1s-9.4,21.1-21.1,21.1c-0.3,0-0.7,0-1-0.1h-0.2C171.1,50.5,167,51,165.4,51z"/>
<path class="st4" d="M197.2,25.2c0,11.8-9.6,21.3-21.4,21.3c-0.3,0-0.7,0-1.1,0c-3.6,4.3-7.6,4.7-9.3,4.7c-0.4,0-0.7,0-0.8,0
	l-0.7-0.1l0.4-0.7c0.8-1.3,0.7-4-0.5-7.6c-5.8-4-9.3-10.6-9.3-17.6c0-11.8,9.6-21.3,21.3-21.3C187.6,3.9,197.2,13.4,197.2,25.2z
	 M155,25.2c0,7.2,3.7,13.5,9.2,17.3c0.9,2.7,1.7,6.3,0.5,8.2c0,0,0.3,0,0.7,0c1.6,0,5.6-0.4,9.1-4.7c0.5,0,0.9,0,1.3,0
	c11.5,0,20.9-9.3,20.9-20.8s-9.4-20.8-20.9-20.8S155,13.7,155,25.2z"/>
<path class="st4" d="M175.1,39.7v-2.9c-1.5-0.2-2.6-0.5-3.5-1c-0.9-0.5-1.7-1.2-2.4-2.2c-0.6-1.1-1-2.3-1.1-3.8l2.9-0.5
	c0.2,1.5,0.6,2.7,1.2,3.4c0.8,1,1.8,1.6,2.9,1.7v-9.2c-1.2-0.2-2.4-0.6-3.7-1.3c-0.9-0.5-1.6-1.3-2.1-2.2c-0.5-0.9-0.7-1.9-0.7-3
	c0-2.1,0.7-3.7,2.1-5c1-0.9,2.4-1.4,4.3-1.6v-1.3h1.7v1.3c1.7,0.2,3,0.7,4,1.5c1.3,1.1,2,2.5,2.3,4.3l-3,0.4c-0.1-1.1-0.5-2-1-2.6
	c-0.6-0.6-1.4-1-2.3-1.1l0.1,8.2c1.4,0.4,2.3,0.7,2.8,0.9c0.9,0.4,1.7,0.9,2.2,1.4c0.6,0.5,1,1.2,1.3,2c0.3,0.8,0.5,1.6,0.5,2.5
	c0,2-0.6,3.7-1.9,5c-1.3,1.3-2.9,2-4.9,2.1v3H175.1z M175,14.5c-1.1,0.2-1.9,0.7-2.6,1.4c-0.7,0.7-1,1.6-1,2.5c0,1,0.3,1.8,0.9,2.5
	c0.5,0.7,1.5,1.2,2.8,1.6L175,14.5z M176.7,34.3c1.1-0.1,2-0.6,2.7-1.5c0.7-0.8,1.1-1.8,1.1-3c0-1.1-0.3-1.9-0.8-2.5
	c-0.5-0.7-1.5-1.2-3-1.7V34.3z"/>
<path d="M38,153c1.6,0,3.1-0.6,4.4-1.5c0.1,2.8-0.1,5.5-0.6,8.2c-1.8,2.9-6.7,8-6.3,8c1.3-0.1,2.6-0.5,3.9-0.9
	c-0.9,1.7-1.9,3.4-3,4.9c-2.4,3.1-5.7,5.6-7,9.5c0,0.1,0,0.1-0.1,0.1c-0.1,0.2-0.3,0.4-0.5,0.2c-6.3-6-7.5-15.1-8.4-23.4
	c-0.1-0.4-0.1-0.8-0.1-1.2c1.7,1.8,3.6,3.4,5.8,4.6c0.3,0.2-4-6.7-6-9.8c0-2,0.3-4,1-5.9c1.5-4,4.1-7.7,6.5-11.1
	c0.1-0.1,0.3-0.3,0.4-0.4c0.6,1.7,1.5,3.4,2.7,4.9c0.2,0.3-0.5-5-0.9-7.4c0.7-0.8,1.3-1.6,1.9-2.3c0.9-1,1.9-2.7,3.4-2.4
	c1.5,0.2,4.9,6.2,5.3,7.9c0.2,0.7,0.4,1.5,0.5,2.3c0.1,0.3,0.1,0.6,0.2,0.9c0.5,3.1,0.9,6.2,1.1,9.2c-0.1,0.2-0.2,0.4-0.3,0.5
	C40.6,149.6,37.7,153,38,153z"/>
<path class="st3" d="M32.6,211.5c-2.4-11.1-3.6-20.9-3.8-29.9c-0.1-0.1-0.1-0.3-0.1-0.4c0-1.1,0-2.1,0.1-3.2c0-1.7,0-3.3,0.1-4.9
	c0-0.1,0-0.1,0.1-0.2c0.2-4.4,0.6-8.8,1-13.2c0,0,0,0-0.1-0.1c-1.5-1.8-2.7-3.8-3.5-6c-0.1-0.2,0-0.4,0.1-0.6
	c0.1-0.1,0.3-0.3,0.5-0.3c0.2,0,0.4,0.2,0.5,0.4c0.7,1.7,1.6,3.4,2.7,4.9c0.1-1.1,0.3-2.2,0.4-3.3c-0.1-0.1-0.1-0.1-0.2-0.2
	c-2-2.7-3.5-5.7-4.5-8.8c-0.1-0.2,0-0.4,0.1-0.6c0.1-0.1,0.3-0.2,0.5-0.2c0.3,0,0.5,0.1,0.5,0.4c0.9,2.7,2.2,5.3,3.8,7.7
	c0.7-6.1,1.7-12.1,2.9-17.9c0-0.3,0.3-0.5,0.6-0.5c0.2,0,0.3,0.1,0.4,0.3c0.1,0.1,0.2,0.3,0.2,0.4c-0.9,4.3-1.7,8.9-2.3,13.6
	c2.8-0.6,5-2.6,6.8-4.2c0.1-0.1,0.3-0.1,0.4-0.1c0.2,0,0.4,0.1,0.5,0.4c0.1,0.2,0.1,0.5-0.1,0.7c-2.4,2.1-4.8,4-7.8,4.5
	c-1.1,7.4-1.8,14.9-2.2,22.3c1-0.8,1.8-1.7,2.5-2.7c0.1-0.2,0.3-0.3,0.5-0.3c0.2,0,0.4,0.1,0.5,0.4c0.2,0.2,0.1,0.4,0,0.6
	c-0.9,1.3-2,2.5-3.3,3.4c-0.1,0.1-0.2,0.1-0.3,0.1c0,1.1,0,2.3-0.1,3.4c-0.2,10.2,1,21,3.8,33.8v0.3l-1.1,0.3L32.6,211.5z"/>
<path class="st4" d="M34.9,134.7c0.2,0.2,0.3,0.4,0.2,0.7c-0.8,4.2-1.6,8.6-2.2,13.2c2.5-0.7,4.6-2.6,6.3-4.1
	c0.2-0.1,0.4-0.2,0.6-0.2c0.3,0,0.6,0.2,0.8,0.6c0.1,0.3,0,0.7-0.3,0.9c-2.3,2.1-4.7,4-7.7,4.6c-1,7.2-1.7,14.4-2.1,21.6
	c0.8-0.7,1.5-1.5,2-2.4c0.2-0.2,0.4-0.3,0.7-0.3c0.3,0,0.6,0.1,0.8,0.4c0.1,0.3,0.1,0.7-0.1,0.9c-0.9,1.4-2,2.6-3.4,3.5
	c-0.1,0.1-0.1,0.1-0.1,0.1c-0.1,1.1-0.1,2.1-0.1,3.2c-0.2,10.2,1,20.9,3.7,33.8l0.1,0.5l-0.4,0.1h-0.3c-0.1,0.1-0.3,0.1-0.4,0.1
	l-0.5,0.2l-0.1-0.5c-2.4-11.1-3.7-20.9-3.9-29.9c-0.1-0.1-0.1-0.3-0.1-0.5c0.1-1.1,0.1-2.1,0.1-3.2c0.1-1.7,0.1-3.3,0.2-4.9
	c0-0.1,0-0.1,0-0.2c0.3-4.4,0.6-8.8,1.1-13.1c0,0,0,0-0.1,0c-1.5-1.8-2.7-3.9-3.5-6.1c-0.1-0.3-0.1-0.6,0.1-0.8
	c0.1-0.3,0.4-0.4,0.7-0.4s0.6,0.2,0.8,0.5c0.5,1.5,1.3,3,2.2,4.3c0.1-0.8,0.2-1.6,0.3-2.5c-0.1,0-0.1,0-0.1-0.1
	c-2-2.8-3.5-5.8-4.5-8.9c-0.1-0.3-0.1-0.6,0.1-0.8c0.1-0.3,0.4-0.4,0.7-0.4c0.4,0,0.7,0.2,0.8,0.6c0.8,2.5,1.9,4.8,3.3,7.1
	c0.8-5.9,1.7-11.6,2.8-17.2c0.1-0.4,0.4-0.7,0.9-0.7C34.5,134.4,34.8,134.5,34.9,134.7z M33.9,135.2c-1.2,6.1-2.2,12.3-3,18.5
	c-1.8-2.6-3.2-5.4-4.1-8.4c-0.1-0.1-0.2-0.2-0.3-0.2c-0.2,0-0.5,0.2-0.4,0.5c1.1,3.1,2.6,6.1,4.5,8.8c0.1,0.1,0.1,0.1,0.2,0.1
	c-0.1,1.4-0.3,2.8-0.4,4.1c-1.3-1.6-2.4-3.4-3.1-5.4c-0.1-0.1-0.2-0.2-0.3-0.2c-0.2,0-0.5,0.2-0.4,0.5c0.9,2.2,2,4.2,3.5,6
	c0.1,0,0.1,0,0.2,0.1c-0.5,4.4-0.8,8.9-1.1,13.4c0,0,0,0,0,0.1c-0.1,1.7-0.1,3.3-0.2,4.9c0,1.1,0,2.1-0.1,3.2c0,0.1,0,0.2,0.1,0.3
	c0.2,10.1,1.7,20.1,3.8,30c0.3-0.1,0.5-0.1,0.7-0.2c-2.4-11.2-4-22.5-3.7-33.9c0-1.2,0-2.4,0.1-3.6c0.1,0,0.1,0,0.1,0
	c0.1,0,0.1,0,0.2-0.1c1.3-0.9,2.4-2,3.3-3.3c0.2-0.3-0.1-0.6-0.3-0.6c-0.1,0-0.2,0-0.3,0.1c-0.8,1.3-1.8,2.3-3,3.1
	c0.4-7.7,1.2-15.4,2.3-23c3.1-0.5,5.5-2.5,7.8-4.5c0.3-0.3,0.1-0.7-0.2-0.7c-0.1,0-0.1,0-0.2,0.1c-2.2,1.9-4.4,3.8-7.3,4.3
	c0.7-4.7,1.4-9.3,2.3-13.9c0.1-0.3-0.1-0.4-0.3-0.4S33.9,135,33.9,135.2z"/>
<path class="st3" d="M23.1,189v-0.1h-0.2c-1.5-1.7-3.7-2.6-5.8-3.5c-1-0.5-2-0.9-2.9-1.4c-1.2-0.7-2.4-1.4-3.5-2.3
	c0.9,0,2-0.2,3.1-0.5l0.1-0.1V181c0.1-0.3,0.1-0.3-2.1-1.3c-1.8-0.8-4.3-2-5.6-2.9c-1.1-1.5-2-3.3-2.7-5.4c0.3,0.1,0.7,0.1,1.1,0.1
	c1,0,1.9-0.2,2.8-0.6h0.1l0.1-0.2c0-0.2-0.1-0.3-2.6-1.5c-0.8-0.4-1.8-0.9-2.4-1.2c-0.1-0.1-0.2-0.1-0.3-0.2
	c-0.8-2.8-1.3-5.1-1.7-7.2c-0.1-0.3-0.1-0.5-0.1-0.8c-0.1-0.6-0.1-1.2-0.2-1.8c-0.2-1.4,1-6.9,2-7.5c0.3-0.1,0.5-0.2,0.8-0.2
	c0.7,0,1.4,0.4,2.1,0.7c0.1,0.1,0.3,0.1,0.5,0.2c0.7,0.3,1.4,0.7,2.1,1.1c0.2,0.9,1.2,5.9,1.7,5.9h0.1l0.1-0.2
	c0.5-1.3,0.8-2.7,0.9-4.2c3,1.6,6.3,3.6,8.7,6.2c1.1,1,1.9,2.3,2.6,3.8c-0.3,1-2.5,9.2-2.3,9.6l0.1,0.1h0.2l0.1-0.1
	c1.3-1.3,2.3-2.8,3.4-4.9c0,0.1,0,0.2,0.1,0.3C25,174.9,26.8,182.4,23.1,189C23.1,189,23.1,189,23.1,189z"/>
<path class="st4" d="M5.8,151c0.7,0.3,1.5,0.7,2.2,1.1c0.4,1.9,1.3,5.9,1.5,5.9c0.5-1.5,0.8-3.1,0.9-4.7c0.1,0.1,0.3,0.2,0.4,0.3
	c3,1.7,6.3,3.7,8.7,6.2c1.2,1.2,2,2.6,2.6,4c-0.8,3-2.4,9.4-2.3,9.4c1.6-1.6,2.7-3.4,3.7-5.3c0.1,0.3,0.1,0.6,0.2,0.9
	c1.6,6.5,3.3,13.7-0.3,20.3c-0.1,0.1-0.1,0.2-0.2,0.2c-0.1,0-0.2-0.1-0.3-0.2c-0.1,0-0.1,0-0.1,0c-2.2-2.5-5.8-3.3-8.8-4.9
	c-1.4-0.7-2.7-1.6-3.9-2.6c1.2-0.1,2.4-0.3,3.6-0.6c0.3-0.1-5.4-2.4-7.7-4c-1.2-1.8-2.2-3.8-2.9-5.9c0.5,0.1,1,0.1,1.5,0.1
	c0.9,0,1.8-0.2,2.7-0.5c0.3-0.1-3.3-1.7-4.8-2.5c-0.1-0.1-0.3-0.2-0.4-0.3c-0.7-2.3-1.3-4.8-1.7-7.2c-0.1-0.3-0.1-0.5-0.2-0.8
	c-0.1-0.7-0.1-1.3-0.2-1.9c-0.1-1.4,1-7.1,2.2-7.7c0.3-0.2,0.6-0.3,0.9-0.3C4.1,150,5,150.7,5.8,151z M2.4,150.7
	c-0.9,0.5-2,5.7-1.9,7.3c0.1,0.5,0.1,1.1,0.2,1.8c0.1,0.3,0.1,0.5,0.2,0.7c0.3,2.1,0.8,4.4,1.6,7.1c0.1,0.1,0.1,0.1,0.2,0.1
	c0.6,0.4,1.6,0.8,2.5,1.3c2.5,1.2,2.6,1.3,2.6,1.7v0.3l-0.3,0.2c-0.9,0.3-1.9,0.5-2.9,0.5c-0.3,0-0.5,0-0.8,0c0.8,1.9,1.6,3.5,2.6,5
	c1.3,0.8,3.9,2,5.5,2.8c2.3,1.1,2.3,1.1,2.3,1.5v0.3l-0.4,0.1c-0.8,0.3-1.7,0.4-2.4,0.5c0.9,0.7,1.9,1.4,2.9,1.9
	c0.9,0.5,1.9,0.9,2.9,1.3c2.1,0.9,4.3,1.8,5.8,3.5h0.1c3.3-6.3,1.7-13.5,0.2-19.4c-1,1.8-2,3.1-3.1,4.4l-0.1,0.1h-0.3h-0.2l-0.2-0.2
	c-0.1-0.2-0.2-0.3,0.7-4c0.5-2,1.1-4.2,1.5-5.6c-0.7-1.5-1.5-2.8-2.4-3.8c-2.4-2.4-5.5-4.3-8.4-5.9c-0.1,1.3-0.4,2.6-0.9,3.9
	l-0.1,0.4H9.5c-0.5,0-0.5-0.1-1.2-2.6c-0.2-1.2-0.5-2.5-0.7-3.5c-0.7-0.3-1.3-0.6-2-0.9c-0.2-0.1-0.4-0.2-0.5-0.3
	c-0.6-0.3-1.4-0.7-2-0.7C2.8,150.5,2.6,150.6,2.4,150.7z"/>
<path d="M28,213.1c-1.2-9.2-3.1-18.2-6.6-26.8c-0.4-0.9-0.8-1.7-1.2-2.6c-0.1,0.1-0.2,0.1-0.3,0c-1.4-0.2-2.7-0.7-3.8-1.4
	c-0.3-0.2,0.1-0.7,0.4-0.5c1,0.7,2.1,1.1,3.4,1.3c-2.5-5.7-5.4-11.2-8.5-16.6c-0.1,0-0.1,0-0.1,0c-2.8,0.7-5.4,0-7.9-0.8
	c-0.4-0.1-0.2-0.7,0.2-0.5c2.4,0.7,4.8,1.4,7.5,0.8c-1.9-3.3-4-6.5-6.1-9.7c-0.2-0.3,0.4-0.6,0.6-0.3c2.8,4.2,5.4,8.5,7.9,12.9
	c0.7-2.5,1.1-5.1,1.1-7.6c0-0.4,0.6-0.4,0.6,0c0.1,2.7-0.3,5.3-1.2,8c-0.1,0.1-0.1,0.2-0.2,0.2c0.5,1,1.1,2,1.6,2.9
	c0.6-1.7,0.9-3.3,1-5c0-0.4,0.7-0.4,0.7,0c-0.1,1.9-0.5,3.7-1.3,5.6c0,0.1,0,0.1-0.1,0.1c1.7,3.2,3.3,6.4,4.8,9.7
	c0.1,0.1,0.1,0.1,0.1,0.1c0.5,1.2,1.1,2.4,1.6,3.7c0.3,0.8,0.7,1.6,1,2.4c0,0.1,0,0.1,0,0.2c2.7,7.6,4.4,15.6,5.4,23.7
	C28.4,213,28.2,213,28,213.1z"/>
<path d="M5.6,162.6c-1.9-0.4-3.6-1-5.2-1.9c-0.1-0.3-0.1-0.5-0.2-0.8c1.7,1,3.5,1.7,5.6,2.1C6.2,162.1,6,162.7,5.6,162.6z"/>
<path class="st5" d="M66.3,167.4c0,2.6-6,3.8-7.9,4.5c-4.2,1.6-8.3,3.2-11.4,6.5c-3.6,4-6.8,8.6-9.9,13c-0.2,0.3-0.5,0.4-0.8,0.3
	c0,0-0.4-0.7-0.8-1.9c-1.1-2.7-2.8-7.6-2.4-10.4c0.3-1.9,1-3.8,1.9-5.5c0.2,0.9,0.6,1.7,1.2,2.3c0.2,0.2,0.5-3.5,0.7-5.2
	c0.3-0.3,0.6-0.6,0.9-0.9c0.7-0.7,1.4-1.4,2.2-2.1c0.1-0.1,0.3-0.3,0.5-0.4c0.6-0.5,1.3-0.9,2-1.3c0.2-0.1,0.4-0.2,0.5-0.3
	c0.7-0.4,1.3-0.7,2-1c0.3,1.2,0.6,2.5,1.2,3.7c0.1,0.2,0.4-2.9,0.4-4.3c0.7-0.3,1.3-0.5,2-0.7c0.2,0.8,0.4,1.6,0.8,2.4
	c0.1,0.2,1-2,1.3-2.9c2.1-0.4,4.3-0.6,6.4-0.5c0.2,0,0.4,0,0.5,0c0.6,0.1,1.2,0.1,1.7,0.2C61.4,163.2,66.2,164.5,66.3,167.4
	C66.3,167.4,66.3,167.4,66.3,167.4z"/>
<path d="M66.3,167.4c0,2.6-6,3.8-7.9,4.5c-4.2,1.6-8.3,3.2-11.4,6.5c-3.6,4-6.8,8.6-9.9,13c-0.1,0.1-0.2,0.1-0.3,0.2
	c-0.7,1.8-0.9,3.7-1,5.6c-0.1,3.7-0.1,7.5,0,11.2c0,0.9,0,1.7,0.1,2.6c-0.3,0.1-0.5,0.1-0.7,0.1c-0.1-1.3-0.1-2.7-0.2-4.1
	c-0.1-4.1-0.3-8.5,0.4-12.6c0.1-1.2,0.5-2.4,1-3.4c0.3-2.6,1.9-11.8,7-16.8C49.2,168.4,58.4,168.3,66.3,167.4z"/>
<path d="M42.6,171.8c-0.3-1.8-0.4-3.6-0.1-5.5c0.2-0.1,0.4-0.2,0.5-0.3c-0.3,1.9-0.2,3.8,0.1,5.7C43.2,172.1,42.7,172.2,42.6,171.8z
	"/>
<path d="M40.7,172.9c-0.4-1.6-0.6-3.2-0.7-4.9c0.1-0.1,0.3-0.3,0.5-0.4c0,1.7,0.2,3.5,0.7,5.2C41.3,173.1,40.8,173.2,40.7,172.9z"/>
<path class="st6" d="M49.7,207.2c0,1.4-0.1,2.7-0.4,4c-1,4.5-3.6,8.5-7.3,11.1H20.1c-3.6-2.6-6.3-6.6-7.2-11.1
	c-0.3-1.3-0.4-2.6-0.4-4c0-1.4,0.1-2.7,0.4-4c0.3-1.1,0.6-2.2,1-3.2h34.3c0.5,1,0.8,2.1,1,3.2C49.5,204.5,49.7,205.8,49.7,207.2z"/>
<path d="M49.7,207.2c0,1.4-0.1,2.7-0.4,4c-1,4.5-3.6,8.5-7.3,11.1H20.1c28.6,1.4,28.1-22.3,28.1-22.3c0.5,1,0.8,2.1,1,3.2
	C49.5,204.5,49.7,205.8,49.7,207.2z"/>
</svg>
