<?xml version="1.0" encoding="utf-8"?>
<!-- Generator: Adobe Illustrator 27.0.0, SVG Export Plug-In . SVG Version: 6.00 Build 0)  -->
<svg version="1.1" id="Layer_1" xmlns="http://www.w3.org/2000/svg" xmlns:xlink="http://www.w3.org/1999/xlink" x="0px" y="0px"
	 viewBox="0 0 244 210" style="enable-background:new 0 0 244 210;" xml:space="preserve">
<style type="text/css">
	.st0{fill:#E6EBF0;}
	.st1{fill-rule:evenodd;clip-rule:evenodd;fill:#AAB6C2;}
	.st2{fill-rule:evenodd;clip-rule:evenodd;fill:#F58634;}
	.st3{fill-rule:evenodd;clip-rule:evenodd;fill:#FFFFFF;}
	.st4{fill-rule:evenodd;clip-rule:evenodd;}
	.st5{fill:#AAB6C2;}
	.st6{fill:#FFFFFF;}
	.st7{opacity:0.5;fill:#E6EBF0;enable-background:new    ;}
	.st8{fill:#F58634;}
	.st9{opacity:0.3;enable-background:new    ;}
</style>
<path class="st0" d="M65.4,36.4c35.6,1.3,38.6-9.1,76.8-25.7c5.2-2.2,10.6-3.5,16.1-3.9c0.6-0.1,1.2-0.1,1.8-0.1
	C194.4,5.3,230,37,220.8,72.8c-10.7,42.1,19.2,91.8-21.4,112.4c-40.6,20.7-120,38.9-160.5,0C-1.6,146.4-26.4,33.1,65.4,36.4z"/>
<path class="st0" d="M65.4,36.4c35.6,1.3,38.6-9.1,76.8-25.7c5.2-2.2,10.6-3.5,16.1-3.9c0.6-0.1,1.2-0.1,1.8-0.1
	C194.4,5.3,230,37,220.8,72.8c-10.7,42.1,19.2,91.8-21.4,112.4c-40.6,20.7-120,38.9-160.5,0C-1.6,146.4-26.4,33.1,65.4,36.4z"/>
<path class="st0" d="M114.4,11.2C97.4,29.2,77,26.5,70,24.9c-1.7-0.4-2.8-2-2.6-3.8C69.9,1.6,134.3-9.8,114.4,11.2z"/>
<path d="M206.1,209.5H16.3v-1.4h189.8V209.5z"/>
<path class="st1" d="M167.5,22.9h-17.8v-9.8h17.8V22.9z M150.7,21.9h15.8v-7.7h-15.8V21.9z"/>
<path class="st1" d="M155.3,31.7h-17.9v-9.8h17.9V31.7z M138.5,30.7h15.8v-7.8h-15.8V30.7z"/>
<path class="st1" d="M172.4,113.7h-17.8v-9.8h17.8V113.7z M155.6,112.7h15.8V105h-15.8V112.7z"/>
<path class="st1" d="M219.8,140.3H202v-9.7h17.8V140.3z M203,139.2h15.8v-7.7H203V139.2z"/>
<path class="st1" d="M104.4,190H86.6v-9.8h17.8V190z M87.6,189h15.8v-7.7H87.6V189z"/>
<path class="st1" d="M87.6,190H69.8v-9.8h17.8V190z M70.8,189h15.8v-7.7H70.8V189z"/>
<path class="st1" d="M96,198.7H78.2V189H96V198.7z M79.2,197.6H95v-7.7H79.2V197.6z"/>
<path class="st1" d="M40.7,128.6H22.9v-9.8h17.8V128.6z M23.9,127.6h15.8v-7.7H23.9V127.6z"/>
<path class="st1" d="M52.9,137.3H35.1v-9.7h17.8V137.3z M36.1,136.2h15.8v-7.7H36.1V136.2z"/>
<path class="st1" d="M121.6,72.4h-17.8v-9.8h17.8V72.4z M104.8,71.4h15.8v-7.7h-15.8V71.4z"/>
<path class="st1" d="M104.8,72.4H86.9v-9.8h17.9V72.4z M88,71.4h15.7v-7.7H88V71.4z"/>
<path class="st1" d="M113.2,81.1H95.4v-9.7h17.8V81.1z M96.4,80.1h15.8v-7.8H96.4V80.1z"/>
<path class="st2" d="M121.9,110.3c-0.9,1.7-2,3.3-3.4,4.6l1.8,3.7l-5.6,3.4l-2.4-3.4c-1.8,0.6-3.7,0.9-5.7,0.9l-1.3,3.9l-6.3-1.6
	l0.6-4c-1.7-0.9-3.3-2.1-4.6-3.4l-3.7,1.8l-3.4-5.6l3.4-2.4c-0.6-1.8-0.9-3.7-0.9-5.7l-3.9-1.3l1.6-6.4l4,0.7
	c0.9-1.8,2.1-3.3,3.4-4.6l-1.8-3.7l5.6-3.4l2.4,3.3c1.8-0.6,3.7-0.9,5.7-0.8l1.3-3.9l6.4,1.5l-0.7,4.1c1.8,0.9,3.3,2,4.6,3.4
	l3.7-1.8l3.4,5.6l-3.3,2.4c0.6,1.8,0.9,3.7,0.8,5.7l3.9,1.3l-1.5,6.3L121.9,110.3z M118.4,105.8c1.6-6.4-2.3-12.8-8.6-14.3
	c-6.3-1.6-12.7,2.3-14.2,8.6c-1.6,6.3,2.3,12.7,8.6,14.3C110.5,115.9,116.9,112.1,118.4,105.8z"/>
<path class="st3" d="M146.4,39.6c-0.8,1.8-2,3.3-3.4,4.6l1.9,3.7l-5.6,3.4l-2.5-3.3c-1.8,0.6-3.7,0.9-5.6,0.8l-1.3,3.9l-6.4-1.5
	l0.7-4.1c-1.8-0.9-3.3-2-4.7-3.4l-3.7,1.8l-3.3-5.6l3.3-2.4c-0.6-1.8-0.9-3.7-0.9-5.7l-3.9-1.3l1.6-6.3l4.1,0.6
	c0.9-1.7,2-3.3,3.4-4.6l-1.8-3.7l5.5-3.4l2.5,3.4c1.8-0.7,3.7-1,5.6-0.9l1.4-3.9l6.3,1.6l-0.6,4c1.7,0.9,3.3,2.1,4.6,3.4l3.7-1.8
	l3.4,5.6l-3.4,2.4c0.6,1.8,0.9,3.7,0.9,5.7l3.9,1.3l-1.6,6.4L146.4,39.6z M143,35c1.5-6.3-2.3-12.7-8.6-14.3
	c-6.3-1.5-12.7,2.3-14.3,8.6c-1.6,6.3,2.3,12.7,8.6,14.3C135,45.1,141.4,41.3,143,35z"/>
<path class="st4" d="M130,53l-6.8-1.6l0.7-4.2c-1.7-0.8-3.1-1.9-4.4-3.2l-3.8,1.8l-3.6-5.9l3.4-2.5c-0.5-1.7-0.8-3.5-0.8-5.4l-4-1.3
	l1.7-6.8l4.1,0.6c0.9-1.6,2-3.1,3.3-4.4l-1.9-3.7l6-3.6l2.5,3.4c1.7-0.6,3.5-0.9,5.4-0.9l1.3-3.9l6.8,1.7l-0.7,4.1
	c1.7,0.8,3.1,1.9,4.4,3.2l3.8-1.8l3.6,6l-3.4,2.4c0.6,1.8,0.9,3.6,0.8,5.4l4,1.4l-1.7,6.7l-4.1-0.6c-0.9,1.6-2,3.1-3.3,4.4l1.9,3.7
	l-6,3.6l-2.4-3.3c-1.8,0.5-3.6,0.8-5.4,0.8L130,53z M123.7,50.9l5.9,1.5l1.4-3.9h0.1c1.9,0.1,3.8-0.2,5.6-0.8l0.2-0.1l2.4,3.3
	l5.2-3.1l-1.8-3.7l0.1-0.1c1.4-1.3,2.5-2.9,3.4-4.6v-0.1l4.1,0.6l1.4-5.9l-3.8-1.3v-0.2c0-1.9-0.3-3.7-0.9-5.6v-0.1l3.3-2.4
	l-3.2-5.2l-3.6,1.8l-0.2-0.2c-1.3-1.3-2.8-2.4-4.5-3.3l-0.2-0.1l0.7-4l-5.9-1.5l-1.3,3.9h-0.2c-1.9-0.1-3.8,0.2-5.6,0.8l-0.2,0.1
	l-2.4-3.3l-5.2,3.1l1.8,3.7l-0.1,0.1c-1.4,1.3-2.5,2.9-3.3,4.6l-0.1,0.1l-4.1-0.6l-1.4,5.9l3.9,1.3l-0.1,0.2c0,1.9,0.3,3.7,0.9,5.6
	l0.1,0.1l-3.3,2.4l3.1,5.2l3.7-1.8l0.1,0.2c1.3,1.3,2.8,2.4,4.5,3.3l0.2,0.1L123.7,50.9z M131.4,44.1c-0.9,0.1-1.9,0-2.8-0.3
	c-6.5-1.6-10.4-8.1-8.8-14.6c0.7-3.1,2.7-5.7,5.4-7.4c2.8-1.6,6-2.1,9.1-1.4c3.1,0.8,5.8,2.7,7.4,5.5c1.7,2.7,2.2,6,1.4,9.1
	C141.8,40.5,136.8,44.1,131.4,44.1z M131.4,20.6c-2.1,0-4.1,0.5-5.9,1.6c-2.7,1.6-4.5,4.2-5.2,7.1c-1.6,6.2,2.2,12.5,8.4,14
	c6.1,1.5,12.4-2.2,13.9-8.4c0.8-3,0.3-6.1-1.3-8.7c-1.6-2.7-4.1-4.5-7.1-5.3C133.2,20.7,132.3,20.6,131.4,20.6z"/>
<path class="st1" d="M205.3,54.6c-0.7,1.3-1.6,2.5-2.7,3.6l1.4,2.9l-4.3,2.6l-1.9-2.6c-1.5,0.5-3,0.7-4.5,0.7l-1,3l-5-1.2l0.5-3.2
	c-1.4-0.7-2.6-1.6-3.6-2.7l-2.9,1.5l-2.7-4.4l2.6-1.9c-0.4-1.4-0.7-2.9-0.6-4.5l-3.1-1l1.2-5l3.2,0.5c0.7-1.3,1.6-2.5,2.7-3.6
	l-1.4-2.9l4.3-2.6l2,2.6c1.4-0.5,2.9-0.7,4.4-0.7l1-3.1l5,1.3l-0.5,3.2c1.4,0.7,2.6,1.5,3.6,2.6l2.9-1.4l2.7,4.4l-2.6,1.9
	c0.5,1.4,0.7,2.9,0.6,4.4l3.1,1.1l-1.2,5L205.3,54.6z M202.6,51c1.2-5-1.8-10-6.8-11.2c-4.9-1.3-9.9,1.8-11.2,6.7
	c-1.2,5,1.8,10,6.8,11.2C196.3,58.9,201.4,55.9,202.6,51z"/>
<path class="st4" d="M33.8,49.3c-0.5,1.1-1.2,2-2.1,2.8l1.1,2.3l-3.4,2.1l-1.5-2.1c-1.1,0.4-2.3,0.6-3.5,0.6l-0.8,2.4l-3.9-1
	l0.4-2.5c-1.1-0.5-2-1.2-2.8-2.1L15,52.9l-2.1-3.4L15,48c-0.4-1.1-0.6-2.2-0.5-3.4l-2.4-0.9l0.9-3.8l2.5,0.3c0.5-1.1,1.2-2,2.1-2.8
	l-1.1-2.3l3.4-2l1.5,2c1.1-0.3,2.3-0.5,3.5-0.5l0.8-2.4l3.9,1l-0.4,2.5c1.1,0.5,2,1.2,2.8,2.1l2.3-1.2l2,3.5l-2,1.4
	c0.4,1.1,0.6,2.3,0.5,3.5l2.4,0.8l-0.9,3.9L33.8,49.3z M31.7,46.5c0.9-3.9-1.4-7.8-5.3-8.7c-3.9-1-7.8,1.4-8.8,5.2
	c-0.9,3.9,1.4,7.8,5.3,8.8C26.8,52.7,30.7,50.4,31.7,46.5z"/>
<path d="M11.7,201.5L0.1,112.8c-0.5-3.9,2.2-7.1,6-7.1h130.2c3.9,0,7.5,3.2,8,7.1l11.5,88.7c0.6,3.8-2.1,7-6,7H19.7
	C15.8,208.5,12.2,205.3,11.7,201.5z"/>
<path class="st5" d="M16.9,194.9L5.3,112.8c-0.5-3.9,2.2-7.1,6.1-7.1h130.1c3.9,0,7.5,3.2,8,7.1l11.6,82.1c0.5,3.8-2.2,7-6,7H24.9
	C21,201.9,17.4,198.7,16.9,194.9z"/>
<path class="st6" d="M29.4,197.9c-3.4,0-6.6-2.8-7.1-6.3l-10.6-75.7c-0.3-1.6,0.2-3.2,1.2-4.4c1-1.1,2.4-1.7,4.1-1.7h120
	c3.4,0,6.6,2.8,7.1,6.2l10.6,75.7c0.3,1.6-0.2,3.2-1.2,4.4c-1,1.1-2.4,1.8-4.1,1.8H29.4z"/>
<path class="st4" d="M144.3,116l10.7,75.6c0.5,3.6-2,6.5-5.6,6.5h-120c-3.5,0-6.8-2.9-7.3-6.5L11.4,116c-0.5-3.6,2-6.5,5.6-6.5h120
	C140.5,109.5,143.8,112.4,144.3,116z M17,110c-1.6,0-3,0.6-3.9,1.7c-1,1.1-1.4,2.6-1.2,4.2l10.7,75.7c0.4,3.3,3.5,6,6.8,6h120
	c1.6,0,3-0.6,3.9-1.7c1-1.1,1.4-2.6,1.2-4.2L143.9,116c-0.5-3.3-3.6-6-6.9-6H17z"/>
<path class="st7" d="M149.4,198.1h-120c-3.5,0-6.8-2.9-7.3-6.4l-6.8-48.6l-0.4-2.6L12,119.7l-0.6-3.7c0-0.1,0-0.1,0-0.1
	c-0.4-3.5,2.1-6.4,5.6-6.4h120c3.5,0,6.8,2.9,7.3,6.5l10.7,75.7C155.5,195.2,153,198.1,149.4,198.1z"/>
<path d="M16.3,199.8v-6.3h194.3v6.3c0,4.8-3.9,8.7-8.7,8.7H25C20.2,208.5,16.3,204.6,16.3,199.8z"/>
<path class="st5" d="M16.7,193.5h194.1v5.5H17.3L16.7,193.5z"/>
<path d="M39.4,184.2l3.5-2.4l24.3,14.4l-3.7,3.4L39.4,184.2z"/>
<path d="M233.6,92.7l-1.5,2l-2.5,3.3l-4,5.1l-4.3,5.6l-61.7,84.1c-0.9,1.4-2.4,2.1-3.9,2.1h-0.1c-0.1,0-0.2,0-0.3,0
	c-0.8,0-1.6-0.3-2.2-0.8l-1.1-0.7l-3.6-2.3l-43.2-28l-2.2,4l-20.5,32.6l-3.9,6.2H66.9l29.5-46.8h0.1l2.9-5.5
	c0.1-0.1,0.2-0.3,0.3-0.4c0.6-1,1.7-1.8,2.8-2.1c0.4-0.1,0.8-0.2,1.1-0.2h0.3c0.9,0,1.7,0.3,2.4,0.7l43.4,28.1l5.2,3.4l45-62.4
	l8.5-11l10.9-14.2l5.1-6.6l0.5-0.7l1.1-1.5c0.5-0.6,1.1-1.1,1.7-1.4c1.6-0.9,3.7-0.9,5.2,0.3c0.6,0.5,1.1,1.2,1.4,1.9
	C235,89.1,234.8,91.1,233.6,92.7z"/>
<path d="M238.7,118.6c-2.3,0-4.3-1.8-4.6-4.3l-2.8-27.2l-30.2,7.6c-2.6,0.6-5.2-1.1-5.7-3.8c-0.5-2.7,1.3-5.4,3.9-6.1l35.4-8.8
	c1.4-0.3,2.7-0.1,3.8,0.7c1.1,0.8,1.8,2,2,3.4l3.3,32.6c0.3,2.8-1.7,5.4-4.3,5.8C239.2,118.6,238.9,118.6,238.7,118.6z"/>
<path d="M94.3,150.9h9.6l1,9.1l-8.4-0.5L94.3,150.9z"/>
<path d="M148.2,188.4l9,2l-1.5,4.5h-7L148.2,188.4z"/>
<path d="M209.2,104.4L220,88.6l8.1-0.6l-15.6,26.4l-13,6.5L209.2,104.4z"/>
<path d="M222.4,75.9h13.7l-1.1,7.8L219.8,84L222.4,75.9z"/>
<path d="M225.4,107.3l1-14.9l9.7-6.1l2.6,32.2h-11L225.4,107.3z"/>
<path d="M183.4,87.6c0,0,19.7-0.9,20.2-1.3c0.6-0.4-3.4,8.5-3.4,8.5h-13.6L183.4,87.6z"/>
<path class="st8" d="M221.6,89.6c0,1.1-0.3,2.2-1,3.1l-1.4,2l-10.8,15l-7.6,10.6l-46.2,69.5l-2.1,3c-0.2,0.3-0.4,0.5-0.5,0.6
	c-0.9,1-2.1,1.5-3.3,1.5c-0.9,0-1.9-0.2-2.7-0.7l-43-27.1l-6.4-4L76.1,199l-3.9,6.9H57.8l-19-11.3c1,0.9-26.6,3.5-26,2.3l26.6-12.7
	l24.8,14.7l0.1,0.1l0.3-0.4l1.6-2.9l24.2-42.1c0.6-1.2,1.7-2.1,3-2.5c0.3-0.1,0.6-0.2,0.9-0.2c0.1,0,0.1,0,0.1,0h0.4
	c0.8,0,1.7,0.3,2.4,0.7l2.5,1.6l4.8,3l42.7,26.9l2.5-3.4l58.7-86.8l2.9-4l1.5-2.2c1.6-2.2,4.6-2.7,6.8-1c0.9,0.7,1.6,1.7,1.8,2.8
	C221.5,88.8,221.6,89.2,221.6,89.6z"/>
<path class="st8" d="M226.9,118.6c-2.3,0-4.4-1.8-4.7-4.3l-4.1-27.2l-29.9,7.6c-2.6,0.6-5.2-1.1-5.8-3.8c-0.7-2.7,0.9-5.4,3.6-6.1
	l35-8.8c1.3-0.3,2.7-0.1,3.8,0.7c1.1,0.8,1.9,2,2.1,3.4l4.9,32.6c0.4,2.8-1.5,5.4-4.1,5.8C227.4,118.6,227.1,118.6,226.9,118.6z"/>
<path d="M60.5,104.4c4.1-1.4,14.6-2.7,14.6-2.7S97,99.9,97.7,114c0.5,10.1-3.3,28-3.3,28l-2.6,1.1c0,0-6.6-16.7-10.4-20.7
	c-5.6-5.9-27.6-3.9-32.4-7.5C48.1,114.2,60.3,104.4,60.5,104.4z"/>
<path d="M49,114.9c0,0,4.1-7,8.6-9.5c1.4-0.8,29.6,2.5,33.9,14.6c4.8,13.5,0.3,23.1,0.3,23.1s-5-14.4-10.4-20.7
	C76.5,116.6,53.8,118.5,49,114.9z"/>
<path class="st6" d="M42.8,176.5l-3.1,3.8l-2-1.1l1.6-5.3L42.8,176.5z"/>
<path class="st4" d="M39.7,180.6l-2.3-1.3l1.8-5.8l4,2.9L39.7,180.6z M37.9,179l1.6,1l2.8-3.5l-3-2.2L37.9,179z"/>
<path d="M62.6,102.2c0,0,1.3,17.2-3.6,41.5C56.2,157.9,42.8,176,42.8,176h-4.1c0,0,5.6-15.3,5.1-35.2c-0.4-16.6-7.3-29.1-4.7-36.3
	C40.3,100.9,62.6,102.2,62.6,102.2z"/>
<path d="M37.5,175.6c-0.7-0.5,0.3-0.8,0.3-0.8s-0.5-0.4,0.2-1.1c0.6-0.7,6.5,2.1,6.5,2.5c-0.1,0.3-0.5,0.9-0.5,0.9c0,1-1,1-1,1
	C40.7,177.9,38.2,176.1,37.5,175.6z"/>
<path class="st5" d="M40.7,179.1c0,0,8.8,4.8,8,10.3l-14.3-8c0,0,0.5-3.8,3.7-3.6C38.1,177.8,38.6,179.2,40.7,179.1z"/>
<path d="M34.6,180.9l9.8,5.5c0.6-1,1.4-1.8,2.3-2.5c0.1-0.1,0.2,0.1,0.1,0.1c-0.9,0.7-1.7,1.5-2.2,2.4l4.3,2.4
	c0.1,0.1,0,0.2-0.1,0.2l-4.3-2.4c-0.1,0.1-0.1,0.2-0.2,0.3c0,0.1-0.2,0-0.1-0.1c0.1-0.1,0.1-0.2,0.2-0.3L34.6,180.9
	C34.4,181,34.5,180.8,34.6,180.9z"/>
<path class="st4" d="M42.7,180.3C42.7,180.3,42.7,180.3,42.7,180.3c0.2-1.1,3-3.2,3.7-1.6c0.3,0.5-0.1,1.2-0.5,1.6
	c-0.1,0.5-0.7,0.9-1.1,0.9c-0.4,0.1-0.7,0-1.1-0.2c0,0.1,0,0.1,0,0.1c-0.7,0.1-1.3,0.6-1.6,1.2c0,0.1-0.2,0-0.1-0.1
	c0.3-0.6,0.9-1.1,1.6-1.2c-0.3-0.2-0.5-0.4-0.7-0.6c0,0,0,0-0.1,0c0,0.1,0,0.1,0,0.1c-0.8,0.1-1.4,0.5-1.8,1.2c0,0.1-0.2,0-0.1-0.1
	C41.2,180.9,41.9,180.4,42.7,180.3z M46.3,179.3c0.2-1.4-1.4-0.9-2-0.5c-0.5,0.3-1.1,0.7-1.4,1.3c0.4-0.5,1-0.7,1.5-0.7
	c0.5-0.1,1.3,0.1,1.5,0.7C46.1,179.9,46.2,179.7,46.3,179.3z M43,180.3c0.8,0.1,2,0.3,2.7-0.1c0-0.3-0.2-0.4-0.5-0.6
	c-0.3-0.1-0.7-0.1-1.1,0C43.7,179.7,43.2,179.9,43,180.3z M44.1,181c0.5,0.2,1.3,0,1.5-0.5c0,0,0,0,0-0.1c-0.6,0.4-1.6,0.2-2.4,0.1
	C43.5,180.7,43.8,180.9,44.1,181z"/>
<path class="st9" d="M36.3,112.9C36.3,112.9,36.3,113,36.3,112.9h-1.6c-0.1-0.3-0.3-0.5-0.5-0.7c-0.3-0.3-0.7-0.5-1.2-0.5h-4.8V111
	c0-0.3,0.1-0.7,0.3-1l4.5,0.1c0.9,0,1.8,0.3,2.4,0.9C35.9,111.6,36.2,112.2,36.3,112.9z"/>
<path d="M38,112.9l1,0.1h-2.7l-1.6-0.1H38z"/>
<path d="M52.3,136.7v2.4c-0.1,0.5-0.2,1-0.3,1.5c-0.4,0.1-0.8,0.1-1.2,0.1h-2.6c2.3,0,4-1.8,4.1-4.1V136.7z"/>
<path d="M37.5,112.4v-1.9c0-0.5-0.1-0.9-0.5-1.2c-0.3-0.3-0.7-0.5-1.2-0.5h-5.7c-0.5,0-0.9,0.2-1.2,0.5c-0.3,0.3-0.5,0.7-0.5,1.2v2
	h-1.6v-2c0-0.9,0.3-1.7,0.9-2.4c0.7-0.6,1.5-0.9,2.4-0.9l5.7-0.1c0.9,0,1.8,0.4,2.4,1c0.6,0.7,1,1.5,1,2.4v1.9H37.5z"/>
<path d="M10.9,136.2l-0.1-19.6c0-2.3,1.9-4.1,4.1-4.1h32.2c2.2-0.1,4.1,1.8,4.1,4v19.6c0,2.3-1.8,4.1-4.1,4.1L15,140.3
	C12.7,140.3,10.9,138.4,10.9,136.2z"/>
<path class="st5" d="M13.5,136.2v-19.6c0-2.3,1.8-4.1,4.1-4.1h32.1c2.2-0.1,4.1,1.8,4.1,4v19.6c0,2.3-1.8,4.1-4.1,4.1l-32.1,0.1
	C15.3,140.3,13.5,138.4,13.5,136.2z"/>
<path d="M13.5,122.3l40.3-0.1v1.2l-40.3,0.1V122.3z"/>
<path class="st8" d="M44.7,124.8v-3.3h3.4v3.3c0,0.9-0.7,1.5-1.5,1.5h-0.4C45.4,126.3,44.7,125.7,44.7,124.8z"/>
<path class="st8" d="M20,124.9v-3.3h3.4v3.2c0,0.9-0.7,1.6-1.6,1.6h-0.2C20.7,126.4,20,125.7,20,124.9z"/>
<path class="st6" d="M95.4,142.5l-0.8,4.9l-2.3,0.1l-1.2-5.4L95.4,142.5z"/>
<path class="st4" d="M92.1,147.7l-1.4-5.9l4.9,0.5l-0.8,5.4H92.1z M91.4,142.3l1.1,4.9l1.9-0.1l0.7-4.4L91.4,142.3z"/>
<path class="st5" d="M94.7,146.4c0,0,10.3,0,12.3,5.1l-16.4,0.1c0,0-1.4-3.6,1.5-5C92.1,146.6,93,147.6,94.7,146.4z"/>
<path d="M90.5,151h11.3c0-1.1,0.2-2.2,0.7-3.3c0.1-0.1,0.2,0,0.2,0.1c-0.5,1-0.8,2.1-0.7,3.2h4.9c0.1,0,0.1,0.1,0,0.1H102
	c0,0.1,0,0.3,0,0.4c0,0.1-0.2,0.1-0.2,0c0-0.1,0-0.3,0-0.4l-11.3,0.1C90.4,151.2,90.4,151,90.5,151z"/>
<path class="st4" d="M97.3,146.6c0-0.1,0-0.1-0.1-0.1c-0.2-1,1.2-4.2,2.6-3.2c0.5,0.4,0.5,1.1,0.3,1.7c0.2,0.4-0.2,1.1-0.5,1.4
	c-0.3,0.2-0.7,0.3-1,0.3c0,0,0,0,0,0.1c-0.6,0.4-0.9,1.1-0.8,1.8c0,0.1-0.2,0.1-0.2,0c0-0.7,0.3-1.4,0.8-1.9c-0.3,0-0.6,0-0.9-0.1
	c-0.7,0.5-1,1.2-0.9,2c0,0.1-0.2,0.1-0.2,0C96.3,147.8,96.7,147.1,97.3,146.6z M100,143.9c-0.5-1.3-1.7-0.1-2,0.5
	c-0.3,0.6-0.7,1.2-0.6,1.8c0.1-0.5,0.5-1,1-1.3c0.4-0.3,1.2-0.5,1.6-0.1C100,144.6,100,144.3,100,143.9z M97.5,146.4
	c0.8-0.3,2-0.7,2.4-1.4c-0.2-0.2-0.4-0.3-0.7-0.3c-0.4,0.1-0.7,0.3-1,0.5C97.9,145.5,97.6,145.9,97.5,146.4z M98.9,146.5
	c0.5-0.2,1.1-0.6,1.1-1.2c0,0,0,0,0-0.1c-0.4,0.7-1.4,1-2.1,1.3C98.2,146.5,98.6,146.6,98.9,146.5z"/>
<path d="M89.9,144.7c-0.9-0.1-0.2-0.8-0.2-0.8s-0.6-0.2-0.4-1.1c0.3-1,6.8-1.1,6.9-0.8c0.2,0.3,0.1,1,0.1,1c0.5,0.9-0.4,1.4-0.4,1.4
	C93.8,145.3,90.7,144.8,89.9,144.7z"/>
<path class="st6" d="M95.3,41c0.9,1.4-2.6,3.6-4.6,4.4c-0.9,2.5-2,3.2-2.5,2.9c-1.1-0.8-1.9-3.7-1.6-7.2c0-0.9,1.2-2.1,1.7-2.2
	c0.2,0,0.5,0,0.6,0.3c0.1,0.3-0.1,0.6-0.3,0.8c-0.3,0.3-0.7,1.3-0.3,1.6c0.3,0.2,1.9-0.7,3.1-2.6c0.4-0.6,0.6-1.7,1.3-2
	c0.8-0.2,1,0.6,1,0.7c0-0.1,0.6-0.4,1-0.4c0.7,0,0.9,1.1,0.6,1.5C96.3,38.8,96.4,40.3,95.3,41z"/>
<path class="st4" d="M88.5,48.6c-0.2,0-0.3,0-0.4-0.1c-1.3-0.9-2.1-4.1-1.8-7.5c0.1-0.9,1.3-2.2,1.9-2.3c0.6-0.1,0.9,0.2,0.9,0.5
	c0.2,0.3,0,0.7-0.3,1c-0.2,0.2-0.4,0.7-0.4,1c0,0.1,0,0.1,0,0.2c0.3,0,1.6-0.7,2.8-2.5c0.1-0.2,0.2-0.4,0.3-0.7
	c0.2-0.5,0.5-1.2,1.1-1.4c0.3-0.1,0.6-0.1,0.8,0c0.2,0.1,0.3,0.3,0.4,0.5c0.2-0.1,0.6-0.3,0.9-0.3c0.4,0,0.7,0.3,0.9,0.7
	c0.1,0.3,0.1,0.6,0.1,0.9c0.3,0.1,0.5,0.3,0.6,0.7c0.2,0.5,0,1.3-0.7,1.8c0.1,0.3,0.1,0.5,0,0.8c-0.4,1.4-3.3,3.1-4.7,3.7
	c-0.6,1.6-1.4,2.7-2.2,3C88.6,48.6,88.5,48.6,88.5,48.6z M88.5,39.1c-0.1,0-0.1,0-0.2,0.1c-0.3,0-1.4,1.1-1.5,1.9
	c-0.3,3.5,0.6,6.3,1.6,7c0,0,0.1,0,0.2,0c0.5-0.1,1.2-0.9,1.9-2.8v-0.1h0.1c1.7-0.7,4.2-2.3,4.6-3.5c0.1-0.2,0-0.4-0.1-0.5L95,41
	l0.2-0.2c0.6-0.3,0.7-1,0.6-1.4c0-0.2-0.2-0.4-0.5-0.4h-0.6l0.4-0.4c0.1-0.1,0.1-0.4,0-0.7c0-0.1-0.2-0.4-0.4-0.4
	c-0.3,0-0.8,0.3-0.8,0.3L93.7,38l-0.2-0.2l-0.1-0.1c0-0.1-0.1-0.3-0.2-0.4c-0.1-0.1-0.3-0.1-0.4,0c-0.4,0.1-0.6,0.6-0.8,1.1
	c-0.1,0.3-0.3,0.5-0.4,0.8c-1,1.5-2.2,2.5-3,2.6c-0.2,0.1-0.4,0.1-0.5,0c-0.1-0.1-0.2-0.2-0.2-0.5c0-0.5,0.2-1.2,0.6-1.5
	c0.1-0.1,0.2-0.3,0.2-0.5C88.6,39.2,88.6,39.1,88.5,39.1z"/>
<path class="st6" d="M36.8,110.1c-0.1,1.2-0.8,1-1.1-0.1c-0.6-2-1.4-2.2-0.9-0.1c0.1,0.7,0,2.6-0.4,2.7c-0.9,0.2-1-2.7-1.3-3.6
	c-0.6-0.7-0.3,2.4-0.7,2.8c-1,0.8-1.3-3.3-1.6-3.4c-0.8-0.3,0.7,2.9-0.7,2.4c-1-0.4-1.1-4.2-1.5-5c-0.3-0.7-1-1-0.7-1.7
	c0.4-1.2,2.3-1.1,3.7-0.7c1.6-0.2,4.5-0.2,4.6,1.5c0.1,0.4-0.5,0.5-0.8,0.4c-0.5-0.3-0.9-0.5-1.5-0.5
	C35.4,106.2,37,108.2,36.8,110.1z"/>
<path class="st4" d="M34.3,112.8c-0.1,0-0.2,0-0.3-0.1c-0.5-0.3-0.7-1.2-0.9-2.5c-0.1-0.3-0.1-0.5-0.2-0.7c0,0.2,0,0.5,0,0.8
	c-0.1,0.9-0.1,1.4-0.4,1.7c-0.2,0.2-0.4,0.2-0.5,0.1c-0.5-0.1-0.8-1-1.1-2.3c0.1,0.5,0.1,1-0.2,1.2c-0.1,0.1-0.4,0.1-0.7,0
	c-0.7-0.2-1-1.6-1.3-3.4c-0.1-0.8-0.2-1.4-0.3-1.7c-0.1-0.2-0.3-0.4-0.4-0.5c-0.2-0.4-0.6-0.8-0.3-1.4c0.4-1.3,2.4-1.3,3.9-0.9
	c1-0.1,3.3-0.2,4.3,0.7c0.3,0.3,0.5,0.6,0.6,1.1c0,0.3-0.1,0.5-0.3,0.6c-0.3,0.1-0.6,0.1-0.9,0l-0.1-0.1c-0.2-0.1-0.4-0.1-0.5-0.2
	c1.3,1.3,2.6,3.2,2.3,5c-0.1,0.8-0.4,0.9-0.6,0.9c-0.4,0.1-0.8-0.3-1-1s-0.4-1.1-0.5-1.3c0,0.1,0,0.5,0.1,1.1
	C35.1,110.4,35.1,112.6,34.3,112.8C34.4,112.8,34.3,112.8,34.3,112.8z M32.9,108.6c0.1,0,0.2,0.1,0.4,0.2v0.1
	c0.1,0.3,0.2,0.7,0.3,1.2c0.1,0.8,0.3,2,0.6,2.2c0.1,0,0.1,0,0.1,0c0.2-0.1,0.4-1.7,0.2-2.3c-0.3-1.5,0-1.8,0.2-1.8
	c0.6-0.2,1,1,1.2,1.8c0.2,0.5,0.4,0.7,0.4,0.6c0.1,0,0.2-0.1,0.2-0.5c0.3-2-1.6-4.1-2.8-5.1l-0.4-0.4l0.6-0.1c0.6,0,1.1,0.3,1.5,0.5
	l0.2,0.1c0.1,0,0.2,0,0.3-0.1c0.1,0,0.1,0,0.1-0.1c0-0.3-0.1-0.5-0.4-0.7c-0.7-0.7-2.5-0.7-3.9-0.6h-0.1c-1.1-0.3-3.1-0.5-3.5,0.5
	c-0.1,0.4,0,0.6,0.3,1c0.1,0.1,0.3,0.3,0.4,0.6c0.2,0.3,0.3,1,0.4,1.8c0.2,1.1,0.5,2.9,1,3.1c0.1,0,0.2,0,0.2,0
	c0.1-0.1,0-0.8-0.1-1.1c0-0.6-0.1-1.1,0.1-1.3c0.1,0,0.2-0.1,0.4,0c0.3,0.1,0.3,0.3,0.5,1.2c0.2,0.7,0.5,2.2,0.8,2.2c0,0,0,0,0.1,0
	c0.1-0.1,0.2-0.9,0.2-1.3C32.4,109.2,32.5,108.8,32.9,108.6C32.8,108.6,32.9,108.6,32.9,108.6z"/>
<path class="st8" d="M59.3,62.7c3.5-4.3,16.5,0.1,21.8,2c1.2,0.4,2.2,0.7,3.1,0.8c0.4,0.1,0.8,0.1,1.2,0.1c0.7,0,1.3-0.3,1.6-0.9
	c0.4-0.7,0.7-1.8,0.8-3c0.1-0.4,0.1-0.8,0.1-1.3c0-0.3,0-0.5,0-0.8c0-1.3-0.1-2.8-0.3-4.2c0-0.4,0-0.8-0.1-1.2
	c-0.1-0.5-0.1-0.9-0.2-1.2c-0.5-3.9-1-6.1-1-6.1l3.5-0.3c1.3,1.2,2.8,3.4,4.2,6c0.1,0.3,0.3,0.7,0.5,1c1.2,2.5,2.4,5.4,3.2,8.1
	c0.1,0.4,0.2,0.8,0.3,1.2c1.2,4.7,1.4,9.2-0.6,11.4c-1.2,1.3-3.2,2.3-5.7,2.8c-0.4,0.1-0.8,0.2-1.3,0.3C77.4,79.7,50.8,73,59.3,62.7
	z"/>
<path d="M67.6,75.6C61,74,61.2,60.8,61.2,60.8c5-0.4,9,4.4,9,4.4c8.2,5.4,8.5,12.3,8.5,12.3S73.7,77.1,67.6,75.6z"/>
<path class="st8" d="M37.6,98.8c0-0.4,0-0.8,0-1.2c0.1-2.5,0.3-5.5,0.7-8.7c0.1-0.3,0.1-0.7,0.1-1.1c0.6-4.3,1.5-8.8,3-13
	c0.1-0.3,0.3-0.7,0.4-1.1c1.4-3.6,3.2-6.8,5.6-9.3c0.2-0.3,0.4-0.5,0.7-0.7c2.9-2.8,6.7-4.4,11.6-4.2c7.1,0.3,11.2,3.6,13.9,10.1
	c0.1,0.4,0.3,0.8,0.4,1.1c1.2,3.4,2.2,7.5,3,12.5c0.1,0.3,0.1,0.7,0.2,1.2c0.6,3.3,1.1,7.1,1.7,11.2c0,0.4,0,0.8,0.1,1.2
	c0.3,2,0.6,4.1,0.9,6.4c0,0-2.1,1-6.2,2c-0.3,0.1-0.7,0.1-1.1,0.2c-3.3,0.8-7.7,1.4-13.3,1.6c-0.4,0-0.8,0-1.2,0
	c-3.2,0-6.8-0.1-10.8-0.5c-0.4,0-0.8,0-1.1-0.1c-2.7-0.3-5.6-0.7-8.6-1.2C37.6,105.2,37.5,102.7,37.6,98.8z"/>
<path d="M37.6,105.2c0,0-0.6-21.3,4.1-30l3.8,3.2c0,0-1.9,6.9-3.1,12c-2.1,9.5-1.8,15.3-1.8,15.3L37.6,105.2z"/>
<path d="M51,64.5c0,0,4.2,4,0.2,10.7c-3.1,4.9-6.3,5.3-6.3,5.3l0.6-2.1c8.2-5.6,1.6-13.8,1.6-13.8L51,64.5z"/>
<path class="st8" d="M18.5,88.7c0-0.4,0-0.8,0.1-1.2c0.2-1.3,0.6-2.7,1.1-4.2c0.8-2.4,3.3-6.7,7.8-10.9c0.3-0.3,0.6-0.6,1-0.9
	c3-2.7,6.8-5.3,11.6-7.3c0.4-0.1,0.9-0.3,1.4-0.5c3.1-1.2,6.6-2.2,10.5-2.7c0,0,0.7,3.4-0.4,7.7c-0.1,0.3-0.2,0.6-0.3,0.9
	c-0.9,3-2.7,6.2-6.2,9c0,0-2.3,0.6-5.1,1.8c-0.4,0.1-0.8,0.3-1.1,0.4c-1.8,0.8-3.7,1.7-5.3,2.9c-0.3,0.2-0.7,0.4-1,0.6
	c-1.3,1-2.5,2.2-3.2,3.4c-0.1,0.2-0.2,0.4-0.3,0.7c-0.2,0.3-0.3,0.7-0.4,1.2c-0.6,2.3-0.1,5,0.6,7.5c0.1,0.3,0.3,0.7,0.4,1.1
	c1.1,3.2,2.5,5.8,2.5,5.8l-2.2,0.3l-1.3,0.2l-1.2,0.2c-1.3-1-2.6-2.2-3.9-3.5c-0.3-0.3-0.5-0.6-0.8-0.9
	C20.2,97.2,18.2,93.5,18.5,88.7z"/>
<path class="st6" d="M60.1,60.9c-1.1,0-2.4-0.4-3.9-1.3c0.2-0.7,0.8-2.9,0.2-5.3l4.8,1.1c-0.1,0.7-0.1,2.4,1.4,4.5
	C62.4,60.2,61.6,60.9,60.1,60.9z"/>
<path class="st4" d="M61.5,55.3c0,0-0.5,2,1.4,4.5c0,0-0.8,1.4-2.8,1.4c-1,0-2.4-0.4-4.2-1.5c0,0,1-2.8,0.2-5.8L61.5,55.3z
	 M56.5,59.6c1.4,0.8,2.6,1.2,3.6,1.2c1.2,0,1.9-0.5,2.2-0.9c-1.3-1.8-1.4-3.4-1.4-4.2l-4.1-1C57.2,56.8,56.7,58.8,56.5,59.6z"/>
<path d="M25.8,105c0.5-0.1,7.2-3.5,7.2-3.5l0.6,1.9c-2.9,2.4-5.7,3.3-5.7,3.3L25.8,105z"/>
<path d="M85.7,46.9c0,0,4.2-1.7,5.6-1l0.9,2l-6.1,0.8L85.7,46.9z"/>
<path class="st6" d="M64.5,49.3c0.8,3.8-0.7,7.4-3.5,8c-2.7,0.6-5.6-2-6.5-5.8c-0.8-3.9,0.7-7.5,3.4-8.1
	C60.7,42.8,63.6,45.4,64.5,49.3z"/>
<path class="st4" d="M60.2,57.7c-1.1,0-2.3-0.5-3.3-1.4c-1.3-1.2-2.2-2.9-2.6-4.8c-0.5-1.9-0.3-3.8,0.4-5.4c0.6-1.6,1.8-2.6,3.2-3
	c1.4-0.3,2.9,0.2,4.2,1.4c1.3,1.1,2.2,2.8,2.6,4.7c0.4,1.9,0.3,3.8-0.4,5.4c-0.7,1.6-1.8,2.7-3.2,3C60.8,57.7,60.5,57.7,60.2,57.7z
	 M58,43.6c-1.2,0.3-2.3,1.3-2.9,2.7c-0.6,1.5-0.7,3.3-0.3,5.1c0.4,1.8,1.2,3.4,2.4,4.5c1.2,1,2.5,1.5,3.8,1.2
	c1.2-0.3,2.2-1.2,2.9-2.7c0.6-1.5,0.7-3.3,0.3-5.1c-0.4-1.8-1.3-3.4-2.5-4.5C60.6,43.8,59.3,43.4,58,43.6z"/>
<path class="st6" d="M63.1,49.1c0,0,1.8,2.3,2.4,3.6c0.1,0.2,0,0.5-0.2,0.5c-0.7,0.2-2,0.6-2.6,0.5C62,53.7,63.1,49.1,63.1,49.1z"/>
<path class="st4" d="M62.8,54c-0.1,0-0.1,0-0.1,0c-0.1,0-0.2-0.1-0.3-0.2c-0.5-0.7,0.2-3.8,0.4-4.8l0.1-0.5l0.3,0.4
	c0.1,0.1,1.9,2.4,2.5,3.7c0.1,0.2,0.1,0.4,0,0.5c-0.1,0.2-0.2,0.3-0.4,0.4C64.6,53.7,63.4,54,62.8,54z M63.2,49.6
	c-0.4,2-0.6,3.7-0.4,3.9c0.3,0,1.2-0.2,2.4-0.5c0.1,0,0.1,0,0.1-0.1c0,0,0,0,0-0.1C64.8,51.9,63.7,50.3,63.2,49.6z"/>
<path d="M55.7,54.4c-2,0.1-3.3-3.8-3.7-6.2c-0.6-3.4,2.7-7.1,5.5-7.6c1.6-0.3,6.6,0.1,8.5,1.6c2.1,1.6,0.7,3.9-0.4,4.5
	c-1.5,0.9-3.6,0.6-5-0.1c-1.3-0.7-3.2-0.8-3.6,0.6c-0.4,1.5-1.7,1.4-1.7,1.4C54.5,50.2,55.2,51.9,55.7,54.4z"/>
<path class="st6" d="M55.9,52.7c-1.4,0.9-2.6-2-1.8-2.9c0.8-0.9,1.8,0.3,1.8,0.3S57.2,51.7,55.9,52.7z"/>
<path d="M56,55.2c-0.5-0.8-0.6-1.3-0.6-2.3c0.2-0.7,0.7-2.6,0.4-4.9c0-0.5,0.7-0.2,0.7-0.2s2.8,9,7.9,5.7c0,0,0.3,2.5-0.4,3.3
	c-1.7,2.1-5.5,1.2-6.6,0.3C57,56.8,56.1,55.6,56,55.2z"/>
<path class="st6" d="M63.7,48.7l-0.9,5.4l-1.1-0.5L61.2,51l1-3.4L63.7,48.7z"/>
<path d="M118.8,142.3l-1.2-1.8c-2.7-3.9-1.1-10,3.6-13.7c4.7-3.6,10.7-3.4,13.5,0.5l1.2,1.9l-0.2,0.2c1.1,3.8-0.7,8.6-4.6,11.7
	c-4,3.1-9,3.4-12,1L118.8,142.3z"/>
<path class="st8" d="M132.3,142.9c-4.7,3.6-10.8,3.4-13.5-0.6c-2.8-3.9-1.1-10,3.6-13.7c4.8-3.6,10.8-3.4,13.5,0.6
	C138.7,133.1,137.1,139.3,132.3,142.9z"/>
<path class="st8" d="M131.5,141.6c-3.9,3-9,2.8-11.2-0.4c-2.2-3.3-0.8-8.3,3-11.3c3.9-3,8.9-2.8,11.1,0.4
	C136.6,133.6,135.3,138.6,131.5,141.6z"/>
<path class="st4" d="M119.4,135.4c0.6-2.1,2-4.1,3.9-5.6c3.9-3,8.9-2.8,11.2,0.5c1.1,1.6,1.4,3.6,0.8,5.8c-0.6,2.1-1.9,4.1-3.8,5.6
	s-4.1,2.2-6.2,2.1c-2.2-0.1-4-1-5.1-2.6c-0.2-0.3-0.4-0.7-0.5-1C119.1,138.8,119,137.1,119.4,135.4z M131.4,141.6
	c1.9-1.5,3.2-3.4,3.7-5.5c0.6-2.2,0.3-4.2-0.8-5.7c-2.2-3.2-7.1-3.4-10.9-0.4c-1.9,1.4-3.2,3.4-3.8,5.5c-0.6,2.1-0.3,4.1,0.8,5.6
	c1,1.6,2.8,2.5,4.9,2.5C127.4,143.7,129.5,143,131.4,141.6z"/>
<path class="st4" d="M126.2,140.3c-0.4,0-0.7-0.1-1-0.2c-0.3-0.1-0.6-0.3-0.9-0.6c-0.2-0.2-0.4-0.4-0.6-0.7l-1.4,0.7l-0.5-1l1.4-0.8
	c-0.1-0.3-0.1-0.7-0.1-1.1c0-0.1,0-0.3,0.1-0.5c0-0.1,0-0.1,0-0.1c0-0.1,0-0.1,0.1-0.2c0-0.1,0-0.1,0-0.2c0.1-0.3,0.3-0.6,0.5-0.9
	c0,0,0,0,0.1-0.1c0,0,0,0,0-0.1c0,0,0,0,0.1,0c0.2-0.3,0.4-0.5,0.7-0.8l0.6,1.1c-0.2,0.2-0.4,0.4-0.6,0.5c-0.1,0.2-0.2,0.4-0.3,0.5
	c0,0.1,0,0.1,0,0.1c-0.1,0.1-0.1,0.1-0.1,0.2c-0.1,0.1-0.1,0.3-0.1,0.4c-0.1,0.2-0.1,0.4,0,0.6l0.5-0.2l0.1-0.1l0.1-0.1l2.3-1.3
	c0-0.3,0-0.7,0-1c0,0,0,0,0-0.1s0-0.1,0-0.2c0-0.1,0-0.1,0-0.2c0-0.2,0-0.4,0.1-0.5c0.1-0.3,0.2-0.6,0.4-0.8
	c0.1-0.2,0.2-0.4,0.4-0.5c0.1-0.1,0.2-0.1,0.3-0.2c0.2-0.1,0.4-0.2,0.7-0.2c0.1-0.1,0.1-0.1,0.2-0.1c0.3,0,0.5,0.1,0.8,0.2
	c0.3,0.1,0.6,0.2,0.9,0.4c0.2,0.2,0.4,0.4,0.6,0.7l0.9-0.5l0.5,1.1l-0.9,0.5c0.1,0.3,0.2,0.6,0.2,0.9c0.1,0.3,0.1,0.6,0,0.9
	c-0.1,0.3-0.2,0.6-0.4,0.9c-0.2,0.3-0.4,0.6-0.7,0.8l-0.5-1c0.3-0.3,0.4-0.7,0.5-1c0.1-0.3,0.1-0.6,0-1l-2.8,1.6
	c0,0.3,0,0.5,0.1,0.7c0,0.3,0,0.5,0,0.8c-0.1,0.2-0.1,0.4-0.1,0.7c-0.1,0.2-0.1,0.4-0.2,0.6c-0.1,0.2-0.3,0.4-0.4,0.6
	c-0.1,0.1-0.3,0.3-0.5,0.4C126.9,140.2,126.5,140.3,126.2,140.3z M128.6,133.3c-0.1,0.1-0.1,0.3-0.2,0.4c-0.1,0.1-0.1,0.3-0.1,0.5
	c0,0.2,0,0.4,0,0.6l2.3-1.3c-0.2-0.3-0.5-0.5-0.8-0.6c-0.3-0.1-0.5-0.1-0.8,0.1C128.8,133.1,128.7,133.2,128.6,133.3z M126.7,138.9
	c0.1-0.1,0.2-0.3,0.3-0.4c0.1-0.1,0.2-0.3,0.2-0.5c0.1-0.2,0.1-0.4,0.1-0.6c0-0.3,0-0.5,0-0.7l-2.7,1.5c0.2,0.2,0.4,0.4,0.5,0.5
	c0.2,0.1,0.4,0.2,0.5,0.3c0.2,0.1,0.4,0.1,0.6,0C126.3,139,126.5,139,126.7,138.9z"/>
<path d="M217.8,177.4l-2.3,1c-5.1,2.4-11.8-0.7-15.1-6.9c-3.2-6.1-1.7-13,3.3-15.4l2.4-1.1l0.2,0.4c4.6-0.6,9.8,2.4,12.5,7.6
	c2.8,5.2,2.2,10.9-1.2,14L217.8,177.4z"/>
<path class="st8" d="M221.2,161.9c3.2,6.2,1.7,13.2-3.4,15.5c-5.1,2.4-11.8-0.8-15-7c-3.3-6.1-1.8-13,3.3-15.4
	C211.2,152.7,217.9,155.7,221.2,161.9z"/>
<path class="st8" d="M219.5,162.7c2.7,5,1.4,10.8-2.7,12.7c-4.2,1.9-9.7-0.7-12.4-5.7c-2.7-5.1-1.4-10.8,2.7-12.7
	C211.3,155.1,216.9,157.6,219.5,162.7z"/>
<path class="st4" d="M210,175.3c-2.4-1.1-4.4-3.1-5.7-5.6c-2.7-5.1-1.4-10.8,2.8-12.8c2-0.9,4.5-0.9,6.8,0.2
	c2.4,1.1,4.4,3.1,5.7,5.5c1.3,2.5,1.8,5.2,1.2,7.6c-0.5,2.5-1.9,4.3-4,5.3c-0.4,0.2-0.8,0.4-1.3,0.5
	C213.8,176.4,211.9,176.1,210,175.3z M219.4,162.7c-1.2-2.4-3.2-4.3-5.5-5.4c-2.4-1-4.7-1.1-6.7-0.2c-4.1,1.9-5.3,7.5-2.7,12.5
	c1.3,2.5,3.3,4.4,5.6,5.5c2.3,1,4.6,1.1,6.6,0.2c2-0.9,3.4-2.7,3.9-5.1C221.1,167.8,220.7,165.1,219.4,162.7z"/>
<path class="st4" d="M216.9,168.5c-0.1,0.4-0.2,0.8-0.4,1.1c-0.2,0.3-0.5,0.6-0.8,0.8c-0.3,0.3-0.7,0.5-1,0.6l0.6,1.8l-1.3,0.4
	l-0.6-1.8c-0.5,0-0.9,0-1.3-0.1c-0.2-0.1-0.4-0.1-0.6-0.2c-0.1-0.1-0.1-0.1-0.1-0.1c-0.1,0-0.1,0-0.2-0.1c-0.1,0-0.1,0-0.2-0.1
	c-0.3-0.2-0.6-0.4-0.9-0.7c0,0,0,0-0.1,0c0,0,0,0,0-0.1c0,0,0,0-0.1,0c0-0.1,0-0.1,0-0.1s0,0-0.1,0c-0.3-0.3-0.5-0.7-0.7-1l1.4-0.5
	c0.1,0.3,0.3,0.5,0.5,0.7c0.1,0.2,0.3,0.4,0.4,0.5c0.1,0,0.1,0,0.1,0.1c0.1,0,0.1,0,0.1,0c0.1,0,0.1,0,0.1,0.1
	c0.2,0.1,0.4,0.1,0.5,0.2c0.3,0.1,0.5,0.1,0.7,0.1l-0.2-0.6v-0.1l-0.1-0.1l-1-3c-0.5-0.1-0.9-0.1-1.3-0.2c-0.1,0-0.2,0-0.3,0
	c-0.1-0.1-0.2-0.1-0.3-0.1c-0.1-0.1-0.3-0.1-0.5-0.2c-0.3-0.1-0.6-0.3-0.9-0.6c-0.1-0.1-0.3-0.3-0.4-0.6c-0.1-0.1-0.1-0.3-0.2-0.4
	c-0.1-0.3-0.1-0.5-0.1-0.8c0-0.1,0-0.1,0-0.2c0.1-0.3,0.2-0.7,0.3-1c0.2-0.3,0.4-0.6,0.7-0.8c0.3-0.3,0.6-0.5,1-0.7l-0.4-1.1
	l1.3-0.4l0.4,1.1c0.3-0.1,0.7-0.1,1.1,0c0.3,0,0.7,0.1,1,0.3c0.3,0.1,0.7,0.3,1,0.6c0.3,0.3,0.5,0.6,0.8,1l-1.3,0.4
	c-0.3-0.4-0.7-0.7-1-0.9c-0.3-0.1-0.7-0.2-1.2-0.1l1.2,3.5c0.3,0,0.6,0,0.9,0.1c0.3,0,0.6,0,0.9,0.1c0.3,0.1,0.5,0.1,0.8,0.2
	c0.3,0.1,0.5,0.3,0.7,0.4c0.2,0.1,0.4,0.3,0.6,0.5c0.1,0.2,0.3,0.5,0.4,0.8C216.9,167.7,216.9,168.1,216.9,168.5z M209.3,164.3
	c0.1,0.1,0.3,0.2,0.5,0.3c0.1,0.1,0.3,0.1,0.6,0.2c0.2,0.1,0.4,0.1,0.7,0.2l-1.1-3c-0.5,0.2-0.8,0.5-0.9,0.8c-0.1,0.3-0.1,0.7,0,1
	C209.1,164,209.2,164.2,209.3,164.3z M215.4,167.6c-0.1-0.2-0.2-0.4-0.3-0.5c-0.1-0.1-0.3-0.2-0.6-0.3c-0.2-0.1-0.4-0.1-0.7-0.2
	c-0.3-0.1-0.5-0.1-0.8-0.2l1.2,3.4c0.3-0.1,0.5-0.3,0.7-0.4c0.2-0.2,0.3-0.4,0.4-0.6c0.1-0.2,0.2-0.4,0.2-0.6
	C215.5,168,215.4,167.8,215.4,167.6z"/>
<path d="M164.2,93.9l-2.7,1.2c-6.1,2.8-14.2-0.9-18.1-8.3c-4-7.4-2.2-15.6,3.9-18.5l2.8-1.3l0.3,0.5c5.5-0.7,11.8,2.9,15,9.1
	c3.4,6.2,2.6,13.1-1.4,16.8L164.2,93.9z"/>
<path class="st8" d="M168.3,75.3c3.9,7.4,2,15.8-4.1,18.6c-6.1,2.8-14.1-1-18-8.4c-3.9-7.4-2.2-15.7,3.9-18.5
	C156.2,64.2,164.3,67.9,168.3,75.3z"/>
<path class="st8" d="M166.3,76.2c3.2,6.1,1.7,13-3.3,15.3c-5,2.3-11.7-0.8-14.9-6.9c-3.2-6.1-1.7-12.9,3.3-15.2
	C156.4,67.1,163.1,70.1,166.3,76.2z"/>
<path class="st4" d="M154.8,91.3c-2.8-1.3-5.2-3.7-6.8-6.6c-3.2-6.2-1.7-13,3.3-15.4c2.5-1.1,5.4-1,8.3,0.3c2.8,1.2,5.2,3.6,6.8,6.6
	c1.6,2.9,2.1,6.2,1.4,9.1c-0.6,2.9-2.3,5.2-4.8,6.3c-0.5,0.3-1,0.5-1.6,0.6C159.4,92.6,157.1,92.4,154.8,91.3z M166.2,76.3
	c-1.6-3-3.9-5.3-6.7-6.5c-2.8-1.3-5.7-1.4-8-0.3c-5,2.3-6.4,9.1-3.2,15.1c1.5,2.9,3.9,5.2,6.6,6.5c2.8,1.3,5.6,1.4,8,0.3
	c2.4-1.1,4.1-3.3,4.7-6.2C168.2,82.4,167.7,79.2,166.2,76.3z"/>
<path class="st4" d="M163.1,83.2c-0.1,0.5-0.2,0.9-0.4,1.3c-0.3,0.4-0.6,0.7-1,1c-0.4,0.3-0.8,0.6-1.2,0.7l0.7,2.2l-1.6,0.4
	l-0.7-2.1c-0.5,0-1-0.1-1.5-0.2c-0.3,0-0.5-0.1-0.8-0.2c0,0,0,0-0.1-0.1c-0.1,0-0.1,0-0.2-0.1c-0.1,0-0.2,0-0.3-0.1
	c-0.4-0.3-0.8-0.6-1.1-0.9c-0.1,0-0.1,0-0.1-0.1c-0.1-0.1-0.1-0.1-0.1-0.1c-0.4-0.4-0.7-0.8-0.9-1.3l1.6-0.5
	c0.2,0.3,0.4,0.6,0.6,0.9c0.2,0.2,0.4,0.4,0.6,0.5c0,0.1,0,0.1,0.1,0.1c0.1,0.1,0.1,0.1,0.2,0.1c0.2,0.1,0.4,0.2,0.6,0.3
	c0.3,0.1,0.5,0.1,0.8,0.2l-0.2-0.8l-0.1-0.1v-0.2l-1.3-3.5c-0.5-0.1-1-0.1-1.5-0.2c-0.1-0.1-0.3-0.1-0.4-0.1
	c-0.1-0.1-0.2-0.1-0.3-0.1c-0.2-0.1-0.4-0.1-0.6-0.2c-0.4-0.2-0.8-0.4-1.1-0.7c-0.2-0.2-0.4-0.5-0.5-0.8c-0.1-0.1-0.1-0.3-0.2-0.4
	c-0.1-0.3-0.2-0.7-0.2-1c0-0.1,0-0.2,0.1-0.3c0-0.4,0.1-0.8,0.3-1.2c0.2-0.3,0.5-0.7,0.8-1c0.4-0.3,0.8-0.5,1.2-0.7l-0.5-1.4
	l1.6-0.4l0.5,1.3c0.4-0.1,0.8-0.1,1.3,0c0.5,0,0.9,0.1,1.3,0.3c0.4,0.1,0.8,0.4,1.1,0.7c0.4,0.3,0.7,0.7,1,1.2l-1.6,0.5
	c-0.3-0.5-0.7-0.8-1.2-1c-0.4-0.2-0.9-0.3-1.4-0.2l1.5,4.2c0.3,0,0.7,0,1.1,0.1c0.3,0.1,0.7,0.1,1,0.2c0.3,0.1,0.6,0.1,0.9,0.2
	c0.3,0.1,0.6,0.3,0.9,0.5c0.3,0.1,0.5,0.3,0.7,0.6c0.2,0.3,0.3,0.6,0.4,0.9C163.1,82.2,163.2,82.8,163.1,83.2z M154.1,78.1
	c0.1,0.2,0.3,0.3,0.5,0.4c0.2,0.1,0.4,0.2,0.7,0.3c0.3,0.1,0.5,0.1,0.8,0.2l-1.3-3.6c-0.5,0.2-0.8,0.5-1,0.9s-0.2,0.8-0.1,1.3
	C153.7,77.8,153.9,78,154.1,78.1z M161.3,82.1c-0.1-0.2-0.2-0.4-0.4-0.6c-0.1-0.1-0.3-0.2-0.6-0.3c-0.3-0.1-0.6-0.2-0.9-0.3
	c-0.3-0.1-0.6-0.1-0.9-0.2l1.4,4.1c0.3-0.1,0.6-0.3,0.8-0.5c0.3-0.2,0.4-0.4,0.5-0.7c0.1-0.2,0.2-0.4,0.3-0.7
	C161.5,82.7,161.4,82.4,161.3,82.1z"/>
</svg>
