<?xml version="1.0" encoding="utf-8"?>
<!-- Generator: Adobe Illustrator 27.0.0, SVG Export Plug-In . SVG Version: 6.00 Build 0)  -->
<svg version="1.1" id="Layer_1" xmlns="http://www.w3.org/2000/svg" xmlns:xlink="http://www.w3.org/1999/xlink" x="0px" y="0px"
	 viewBox="0 0 249 213" style="enable-background:new 0 0 249 213;" xml:space="preserve">
<style type="text/css">
	.st0{fill:#E6EBF0;}
	.st1{fill:#C6D0DB;}
	.st2{fill:#AAB6C2;}
	.st3{fill:#7977C6;}
	.st4{fill:#F58634;}
	.st5{fill:#FFFFFF;}
	.st6{fill-rule:evenodd;clip-rule:evenodd;}
	.st7{opacity:0.3;}
	.st8{fill-rule:evenodd;clip-rule:evenodd;fill:#F58634;}
</style>
<path d="M196.9,208.7H7.1v-1.4h189.8V208.7z"/>
<path class="st0" d="M103.4,4.4C199.2-19,200.2,55.1,206,118.3c5.7,63.2-16.9,91.6-63.4,88.8c-46.5-2.9-11.2-48.4-66.9-48.2
	C20.1,159.2-5.9,128,1.1,91.4C7.6,57.2,42.9,19.2,103.4,4.4z"/>
<path class="st0" d="M39.8,168.6c17.2-4.2,51.2-7.7,62,8.4c10.9,16.1,0.1,22-19.5,14.2C62.8,183.4,15.9,174.4,39.8,168.6z"/>
<path class="st1" d="M55.6,56.9v-7.8h12.8v-37H72v37h13.8v7.8h7.5v155.4H39.8V56.9H55.6z"/>
<path class="st2" d="M39.8,56.9h7.4v139.7h-7.4V56.9z"/>
<path class="st1" d="M66.5,93.9H120v118.4H66.5V93.9z"/>
<path class="st2" d="M66.5,93.9h7.4v118.4h-7.4V93.9z"/>
<path class="st2" d="M104.9,98.9h7.6v3.2h-7.6V98.9z"/>
<path class="st2" d="M91.9,98.9h7.7v3.2h-7.7V98.9z"/>
<path class="st2" d="M104.9,110.5h7.6v3.2h-7.6V110.5z"/>
<path class="st2" d="M91.9,110.5h7.7v3.2h-7.7V110.5z"/>
<path class="st2" d="M79,110.5h7.7v3.2H79V110.5z"/>
<path class="st2" d="M104.9,122.1h7.6v3.2h-7.6V122.1z"/>
<path class="st2" d="M79,122.1h7.7v3.2H79V122.1z"/>
<path class="st2" d="M91.9,127.9h7.7v3.2h-7.7V127.9z"/>
<path class="st2" d="M104.9,133.7h7.6v3.2h-7.6V133.7z"/>
<path class="st2" d="M91.9,139.5h7.7v3.2h-7.7V139.5z"/>
<path class="st2" d="M104.9,145.4h7.6v3.1h-7.6V145.4z"/>
<path class="st2" d="M79,145.4h7.7v3.1H79V145.4z"/>
<path class="st2" d="M104.9,156.1h7.6v3.2h-7.6V156.1z"/>
<path class="st2" d="M91.9,156.1h7.7v3.2h-7.7V156.1z"/>
<path class="st2" d="M104.9,167.7h7.6v3.2h-7.6V167.7z"/>
<path class="st2" d="M91.9,167.7h7.7v3.2h-7.7V167.7z"/>
<path class="st2" d="M79,167.7h7.7v3.2H79V167.7z"/>
<path class="st2" d="M104.9,179.3h7.6v3.2h-7.6V179.3z"/>
<path class="st2" d="M79,179.3h7.7v3.2H79V179.3z"/>
<path class="st2" d="M91.9,185.1h7.7v3.2h-7.7V185.1z"/>
<path class="st2" d="M79,185.1h7.7v3.2H79V185.1z"/>
<path class="st2" d="M104.9,190.9h7.6v3.2h-7.6V190.9z"/>
<path class="st2" d="M91.9,196.7h7.7v3.2h-7.7V196.7z"/>
<path class="st2" d="M104.9,202.5h7.6v3.2h-7.6V202.5z"/>
<path class="st2" d="M79,202.5h7.7v3.2H79V202.5z"/>
<path class="st1" d="M194.5,93.9H248v118.4h-53.5V93.9z"/>
<path class="st2" d="M194.5,93.9h7.5v118.4h-7.5V93.9z"/>
<path class="st1" d="M118.5,37.6h71.8v174.7h-71.8V37.6z"/>
<path class="st2" d="M118.5,37.6h7.4v174.7h-7.4V37.6z"/>
<path class="st2" d="M171.5,46h11.3v4.6h-11.3V46z"/>
<path class="st2" d="M152.7,46h11.2v4.6h-11.2V46z"/>
<path class="st2" d="M171.5,62.9h11.3v4.7h-11.3V62.9z"/>
<path class="st2" d="M152.7,62.9h11.2v4.7h-11.2V62.9z"/>
<path class="st2" d="M133.8,62.9H145v4.7h-11.2V62.9z"/>
<path class="st2" d="M171.5,79.9h11.3v4.6h-11.3V79.9z"/>
<path class="st2" d="M133.8,79.9H145v4.6h-11.2V79.9z"/>
<path class="st2" d="M152.7,88.3h11.2V93h-11.2V88.3z"/>
<path class="st2" d="M171.5,96.8h11.3v4.7h-11.3V96.8z"/>
<path class="st2" d="M152.7,105.3h11.2v4.6h-11.2V105.3z"/>
<path class="st2" d="M171.5,113.7h11.3v4.7h-11.3V113.7z"/>
<path class="st2" d="M133.8,113.7H145v4.7h-11.2V113.7z"/>
<path class="st2" d="M171.5,129.4h11.3v4.7h-11.3V129.4z"/>
<path class="st2" d="M152.7,129.4h11.2v4.7h-11.2V129.4z"/>
<path class="st2" d="M171.5,146.3h11.3v4.7h-11.3V146.3z"/>
<path class="st2" d="M152.7,146.3h11.2v4.7h-11.2V146.3z"/>
<path class="st2" d="M133.8,146.3H145v4.7h-11.2V146.3z"/>
<path class="st2" d="M171.5,163.3h11.3v4.6h-11.3V163.3z"/>
<path class="st2" d="M133.8,163.3H145v4.6h-11.2V163.3z"/>
<path class="st2" d="M152.7,171.8h11.2v4.6h-11.2V171.8z"/>
<path class="st2" d="M133.8,171.8H145v4.6h-11.2V171.8z"/>
<path class="st2" d="M171.5,180.2h11.3v4.7h-11.3V180.2z"/>
<path class="st2" d="M152.7,188.7h11.2v4.7h-11.2V188.7z"/>
<path class="st2" d="M171.5,197.2h11.3v4.6h-11.3V197.2z"/>
<path class="st2" d="M133.8,197.2H145v4.6h-11.2V197.2z"/>
<path class="st1" d="M4,102h45.3v110.3H4V102z"/>
<path class="st2" d="M4,102h4.7v110.3H4V102z"/>
<path class="st2" d="M37.5,107.3h7v2.9h-7V107.3z"/>
<path class="st2" d="M25.5,107.3h7.1v2.9h-7.1V107.3z"/>
<path class="st2" d="M37.5,118h7v2.9h-7V118z"/>
<path class="st2" d="M25.5,118h7.1v2.9h-7.1V118z"/>
<path class="st2" d="M13.6,118h7.1v2.9h-7.1V118z"/>
<path class="st2" d="M37.5,128.7h7v2.9h-7V128.7z"/>
<path class="st2" d="M13.6,128.7h7.1v2.9h-7.1V128.7z"/>
<path class="st2" d="M25.5,134h7.1v3h-7.1V134z"/>
<path class="st2" d="M37.5,139.4h7v2.9h-7V139.4z"/>
<path class="st2" d="M25.5,144.7h7.1v3h-7.1V144.7z"/>
<path class="st2" d="M37.5,150.1h7v2.9h-7V150.1z"/>
<path class="st2" d="M13.6,150.1h7.1v2.9h-7.1V150.1z"/>
<path class="st2" d="M37.5,160h7v2.9h-7V160z"/>
<path class="st2" d="M25.5,160h7.1v2.9h-7.1V160z"/>
<path class="st2" d="M37.5,170.6h7v3h-7V170.6z"/>
<path class="st2" d="M25.5,170.6h7.1v3h-7.1V170.6z"/>
<path class="st2" d="M13.6,170.6h7.1v3h-7.1V170.6z"/>
<path class="st2" d="M37.5,181.3h7v3h-7V181.3z"/>
<path class="st2" d="M13.6,181.3h7.1v3h-7.1V181.3z"/>
<path class="st2" d="M25.5,186.7h7.1v2.9h-7.1V186.7z"/>
<path class="st2" d="M13.6,186.7h7.1v2.9h-7.1V186.7z"/>
<path class="st2" d="M37.5,192h7v3h-7V192z"/>
<path class="st2" d="M25.5,197.4h7.1v2.9h-7.1V197.4z"/>
<path class="st2" d="M37.5,202.7h7v3h-7V202.7z"/>
<path class="st2" d="M13.6,202.7h7.1v3h-7.1V202.7z"/>
<path d="M22.6,105.1c0,0,1.3,0.1,3.6,0C25,105.2,23.8,105.2,22.6,105.1z"/>
<path d="M111.4,35.8c-1.1,3.6-2.4,7.2-3.9,10.7l-0.8,1.8c-0.3,0.6-0.5,1.2-0.8,1.8c-0.3,0.6-0.6,1.2-0.9,1.8l-0.8,1.7l-0.5,0.9
	l-0.4,0.9l-1,1.8c-0.3,0.5-0.6,1.1-0.9,1.7c-0.3,0.6-0.7,1.2-1.1,1.7c-5.4,9.2-12.4,17.6-20.7,24.5c-4.1,3.4-8.5,6.4-13.1,8.9
	c-4.7,2.6-9.4,4.7-14.3,6.4c-2.5,0.8-4.9,1.5-7.4,2.1c-2.5,0.6-4.9,1.1-7.4,1.5c-2.5,0.4-4.9,0.7-7.4,0.9c-1.3,0.1-2.5,0.2-3.8,0.2
	c8-0.3,28.3-3.4,49.9-24.1c7.2-6.8,13-14.9,17.3-23.5c3.6-7.2,6.3-14.7,8.2-22.3l-10.1-0.7l20.1-25.4l10.1,27.4L111.4,35.8z"/>
<path class="st3" d="M25.6,105.2c0,0,1.3,0.2,3.7,0.1C28.1,105.3,26.9,105.3,25.6,105.2z"/>
<path class="st4" d="M114.4,36c-1.1,3.6-2.4,7.1-3.9,10.6l-0.8,1.8c-0.3,0.6-0.5,1.2-0.8,1.8c-0.3,0.6-0.5,1.2-0.8,1.8l-0.9,1.8
	l-0.4,0.9l-0.5,0.9l-0.9,1.7c-0.3,0.6-0.7,1.2-1,1.8c-0.3,0.6-0.7,1.2-1,1.7C98,70,90.9,78.4,82.7,85.3c-4.2,3.4-8.6,6.4-13.2,8.9
	c-4.6,2.6-9.4,4.7-14.3,6.3c-2.4,0.9-4.8,1.6-7.3,2.2c-2.5,0.6-4.9,1.1-7.4,1.5c-2.5,0.4-5,0.7-7.5,0.9c-1.3,0.1-2.5,0.1-3.7,0.2
	c8-0.3,28.3-3.4,49.8-24.1c7.2-6.8,13-14.9,17.4-23.5c3.6-7.2,6.2-14.7,8.2-22.3l-10.2-0.7l20.1-25.4l10.2,27.4L114.4,36z"/>
<path d="M111.6,9.1l3,0.2l-2,2.5L111.6,9.1z"/>
<path d="M40.1,207.3c-0.1,0-0.1,0-0.2,0c-0.8-0.1-1.3-0.9-1.2-1.6l7.2-59.7c0.1-0.8,0.8-1.3,1.6-1.2s1.3,0.8,1.2,1.6l-7.2,59.7
	C41.4,206.8,40.8,207.3,40.1,207.3z"/>
<path d="M17.3,207.3c-0.1,0-0.1,0-0.2,0c-0.7-0.1-1.3-0.9-1.2-1.6l7.2-59.7c0.1-0.8,0.8-1.3,1.6-1.2c0.8,0.1,1.3,0.8,1.2,1.6
	l-7.1,59.7C18.7,206.8,18,207.3,17.3,207.3z"/>
<path d="M41.4,188.5h-20c-0.8,0-1.4-0.6-1.4-1.4s0.6-1.4,1.4-1.4h20c0.8,0,1.4,0.6,1.4,1.4S42.2,188.5,41.4,188.5z"/>
<path d="M35.5,207.3c-0.7,0-1.3-0.5-1.4-1.2L27,148c-0.2-0.7,0.4-1.5,1.2-1.6c0.8-0.1,1.5,0.5,1.6,1.2l7.2,58.1
	c0.1,0.7-0.5,1.5-1.3,1.6C35.7,207.3,35.6,207.3,35.5,207.3z"/>
<path d="M58.3,207.3c-0.7,0-1.3-0.5-1.4-1.2L49.7,148c-0.1-0.7,0.4-1.5,1.2-1.6c0.8-0.1,1.5,0.5,1.6,1.2l7.2,58.1
	c0.1,0.7-0.4,1.5-1.2,1.6C58.5,207.3,58.4,207.3,58.3,207.3z"/>
<path d="M54.3,188.5H34.2c-0.8,0-1.4-0.6-1.4-1.4s0.6-1.4,1.4-1.4h20.1c0.7,0,1.4,0.6,1.4,1.4S55,188.5,54.3,188.5z"/>
<path class="st4" d="M18.8,138.5h11.3H44h11.3c1.3,0,2.4,1.1,2.4,2.4v5.3c0,1.3-1.1,2.4-2.4,2.4H44H30.1H18.8
	c-1.3,0-2.4-1.1-2.4-2.4v-5.3C16.4,139.6,17.5,138.5,18.8,138.5z"/>
<path class="st5" d="M53.8,179.8c-0.8,0.6-4.3-3.3-4.3-4c0.1-0.7,3-3,3.8-3.5c0.3-0.2,4.2,3.4,4.1,4.2
	C57.2,177.2,54.5,179.4,53.8,179.8z"/>
<path class="st6" d="M53.6,180.2c-0.2,0-0.5-0.2-0.6-0.2c-1.2-0.7-3.8-3.4-3.8-4.2c0.1-1,3.6-3.5,4-3.8c0.2-0.1,0.4,0,0.6,0.2
	c0.7,0.4,4,3.4,3.8,4.3c-0.1,1-3.6,3.6-3.6,3.6C53.9,180.2,53.8,180.2,53.6,180.2z M53.4,172.6c-1.2,0.7-3.6,2.8-3.6,3.2
	s2,2.8,3.3,3.6c0.4,0.3,0.5,0.2,0.5,0.2c1.2-0.8,3.4-2.7,3.5-3.2C57.1,175.9,54.1,173,53.4,172.6z"/>
<path d="M53.5,179.9c0,0,2.3,2.3,4.2,5c1.9,2.7-1.6,5.8-1.6,5.8c-3-2.4-11.1-12.3-11.1-12.3c0.9-3.1,5.1-3.6,5.1-3.6
	C49.8,178.3,53.5,179.9,53.5,179.9z"/>
<path d="M54.2,115.2c0,0,25.3,9.8,27.9,27.2c1.6,10.4-13.8,24.9-24,35.5c0,0-2.8-1-4.9-2.5c-1.3-0.9-2.3-1.9-2.2-3
	c3.3-6.1,15.8-16,14.2-23.4c-0.4-1.8-0.8-3.8-5.7-5.6c-8.3-2.8-19.4-6.2-22.1-12.7C32.7,119.2,50,109.8,54.2,115.2z"/>
<path class="st5" d="M40.3,180.3c-0.6,0.7-4.7-2.6-4.8-3.3c-0.1-0.7,2.4-3.4,3.2-4.1c0.2-0.2,4.6,2.8,4.6,3.5
	C43.3,177.2,40.9,179.8,40.3,180.3z"/>
<path class="st6" d="M40.1,180.7c-0.3,0-0.5-0.1-0.6-0.1c-1.3-0.5-4.2-2.8-4.3-3.5c-0.1-1,3-4.1,3.3-4.4c0.1-0.1,0.4,0,0.6,0.1
	c0.8,0.3,4.5,2.7,4.5,3.6c0,1-3,4.1-3.1,4.1C40.4,180.7,40.2,180.7,40.1,180.7z M38.8,173.2c-1,0.9-3.1,3.3-3,3.8
	c0.1,0.4,2.3,2.4,3.7,3c0.5,0.2,0.6,0.1,0.6,0.1c1-1,2.9-3.1,2.9-3.7C42.9,175.9,39.6,173.5,38.8,173.2z"/>
<path d="M50.2,118.6c0.4,0,0.6,0.2,0.6,0.5c0.1,0.1,0.1,0.1,0.1,0.1c4.9,3.9,11.7,5.9,15.2,11.4c1.3,2.2,2.9,4.9,3.4,7.4
	c0.9,3.9,1,5.4,0.6,10.3c-0.5,6.8-3.7,11.5-7.5,17.1c-1.9,2.8-4.1,5.5-6.7,7.8c-0.8,0.8-1.7,1.6-2.7,2.2c-1.3-0.9-2.3-1.9-2.2-3
	c3.3-6.1,15.8-16,14.2-23.4c-0.4-1.8-0.8-3.8-5.7-5.6c-1.7-2.4-3.6-4.7-5.5-7c-2.6-2.9-5.6-5.4-8-8.4
	C42.4,123.6,45.1,119.7,50.2,118.6z"/>
<path d="M40.1,180.4c0,0,2.6,2,4.9,4.4c2.3,2.3-0.7,5.9-0.7,5.9c-3.4-1.9-12.9-10.4-12.9-10.4c0.4-3.2,4.5-4.4,4.5-4.4
	C36.1,179.4,40.1,180.4,40.1,180.4z"/>
<path d="M21.4,126.3c1.2-8.5,12.9-14.9,16.6-10.8c0,0,29.5,11,28.4,28.5c-0.7,11.4-16.1,28.2-24.4,35.4c0,0-3.2-2.4-4.6-4.8
	c-0.2-0.3-0.3-0.7-0.4-1c4.2-2.7,13.9-22.1,11.8-29.3c-1.4-4.9-21.2-2-26.3-12.1C21.5,130.2,21.2,128.2,21.4,126.3z"/>
<path d="M21.4,126.3c0.9-5.1,3-6.5,4.1-6.4c0.6,0-0.3,6.7-0.7,6.9c2.7,7.7,11.4,9.7,18.5,11.1c5.1,1,9.2,2.5,10.3,8
	c0.7,3.3-0.3,3.1-1.5,6.3c-1.1,3-2.2,6.1-3.6,9.1c-2.4,5.5-6.2,10-11.1,13.3c-0.2-0.3-0.3-0.7-0.4-1c4.2-2.7,13.9-22.1,11.8-29.3
	c-1.4-4.9-21.2-2-26.3-12.1C21.5,130.2,21.2,128.2,21.4,126.3z"/>
<path d="M19.8,66.8c1.2,0.5,4.1,2.2,6.1,0c0.8-0.8,1.3-2.4,1.7-3.5c0.6-1.6,1.1-3.2,1.9-4.7c1-1.8,2.4-3.7,4.4-4.4
	c3.2-1.2,7.8,1.7,8.4,5c0.1,0.3-0.1,0.6-0.3,0.7c-0.1,0-0.1,0-0.2,0.1c-2.1,1.4-4,0.9-5.5,3.9c-0.8,1.4-0.9,3.2-1.4,4.8
	C34,71.6,32,74.6,29,75.6c-4.9,1.6-10.7-3.7-10.4-8.5C18.6,66.5,19.4,66.4,19.8,66.8z"/>
<path class="st5" d="M66.8,112.3c-0.7,0.8-4,2.3-4.9,2.2c-6.1-0.9-9.5-6.2-11.9-8.7c-0.4-0.4-0.8-0.8-1.1-1.3
	c-1.6-2.2-2.3-4.5-2.6-6.5c-0.3-1.9-0.2-3.3-0.2-3.3S43,78.5,46.5,80.1c3.5,1.7,7.7,8.2,10.9,13.8c0.1,0.1,0.2,0.3,0.3,0.4
	c0.2,0.4,0.4,0.7,0.6,1c0.5,0.9,1,1.7,1.4,2.4c0.9,1.6,3.2,5.1,3.2,5.1S69.7,108.8,66.8,112.3z"/>
<path class="st6" d="M62,114.8C62,114.8,61.9,114.8,62,114.8c-5.3-0.8-8.4-4.5-10.7-7.2c-0.5-0.6-1-1.2-1.5-1.6
	c-0.4-0.5-0.8-0.9-1.1-1.3c-1.4-1.9-2.3-4.1-2.7-6.6c-0.3-1.8-0.2-3.2-0.1-3.4c-0.3-1.5-2.5-13.2-0.5-14.8c0.2-0.1,0.6-0.3,1.2,0
	c3.7,1.7,8.1,8.7,11.1,13.8l0.1,0.2c0.1,0.1,0.1,0.2,0.2,0.3l0.2,0.3c0.1,0.3,0.2,0.5,0.3,0.7c0.5,0.9,1,1.7,1.4,2.4
	c0.9,1.4,3,4.7,3.2,5.1c0.6,0.4,6.8,6.2,3.9,9.7C66.4,113.3,63.2,114.8,62,114.8z M46,80.3c-0.1,0-0.2,0-0.2,0.1
	c-1.4,1-0.4,9.1,0.6,14.2v0.1c0,0-0.1,1.4,0.2,3.3c0.3,2.4,1.2,4.5,2.5,6.3c0.3,0.5,0.7,0.9,1.1,1.3c0.5,0.5,1,1,1.5,1.6
	c2.2,2.7,5.3,6.3,10.2,7c0.9,0.1,4.1-1.3,4.7-2.1c2.6-3.2-3.8-9-3.9-9V103c0,0-2.3-3.6-3.3-5.1c-0.4-0.7-0.8-1.5-1.3-2.4
	c-0.1-0.2-0.3-0.4-0.4-0.7l-0.2-0.3c-0.1-0.1-0.1-0.2-0.2-0.3L57.2,94c-2.9-5-7.2-12-10.8-13.6C46.3,80.4,46.2,80.3,46,80.3z"/>
<path class="st4" d="M46.3,79.6c3.5,1.6,8.2,7.8,11.8,12.8c2.3,3.3-5.9,16.3-8.2,13.7c-2.4-2.7-3.3-5.8-3.6-8.1
	c-0.3-1.9-0.2-3.3-0.2-3.3S42.8,78,46.3,79.6z"/>
<path d="M52.4,93.7c0,0-1,3.5-0.3,5.8c0.7,2.3,2.5,3.6,2.5,3.6s-1.7,2.4-2.8,2.9c-1,0.5-5.3-9.6-2.7-11.4
	C51.6,92.8,52.4,93.7,52.4,93.7z"/>
<path class="st4" d="M60.8,119.5c0,0-26.7,9.9-41.5,1.6c0,0,9.4-9.3,9-19.2c-0.1-0.4-0.1-0.8-0.1-1.3c-0.1-0.9-0.3-1.7-0.5-2.6
	c-2-10.1-7-22.4,14.1-21.2c0,0,11.9,5.9,11.6,12.5c-0.3,6.6-5.2,7.6-1.4,15.1C55.7,111.8,60.8,119.5,60.8,119.5z"/>
<path d="M33.1,95.7c-1,1.8-3.4,9.2-5.2,10.5c0-0.4,0.3-5.1,0.3-5.6c-0.1-0.9-0.3-1.7-0.5-2.6c0.6-1.1,1.5-2.4,2.9-3.7
	c3.9-3.7,3.5-12.6,3.5-12.6C35,86.2,34.6,93,33.1,95.7z"/>
<path class="st5" d="M44,74v3.7c0,0,1,1.8,0,2c-2.2,0.5-5.4-3-5.4-3v-5L44,74z"/>
<path class="st6" d="M43.6,80.1c-2.3,0-5.1-3-5.2-3.2l-0.1-0.1v-5.5l6,2.5v3.8c0.1,0.3,0.6,1.4,0.3,2c-0.1,0.2-0.2,0.3-0.5,0.4
	C43.9,80.1,43.8,80.1,43.6,80.1z M38.9,76.6c0.5,0.5,3.2,3.2,5,2.9c0.2-0.1,0.2-0.1,0.2-0.2c0.2-0.3-0.1-1-0.4-1.5v-0.1v-3.5l-4.8-2
	V76.6z"/>
<path class="st5" d="M46.7,63.8c0,0,0.8,4.4,0.2,8.2c-0.4,2.6-6,4.6-8.8-0.1C35.3,67.2,38,62,38,62L46.7,63.8z"/>
<path class="st6" d="M42.7,75c-2,0-3.7-1-4.8-2.9c-2.9-4.8-0.3-10-0.2-10.2l0.1-0.2l9.2,1.9v0.1c0,0.2,0.8,4.6,0.2,8.3
	c-0.2,1.4-1.6,2.6-3.4,2.9C43.4,75,43.1,75,42.7,75z M38.1,62.3c-0.4,1-2.1,5.5,0.3,9.5c1.2,2,3.1,3,5.2,2.6
	c1.6-0.3,2.9-1.4,3.1-2.5c0.4-3.2-0.1-7-0.2-7.9L38.1,62.3z"/>
<path d="M48.5,66.5c-0.8,0.7-2,0.3-2.7-0.3c-0.5-0.4-0.9-0.9-1.2-1.4c-0.2-0.4-0.3-0.9-0.5-1.3c-1.2-0.3-2.4,0.1-3.4,0.9
	c-0.2,0.5-0.4,0.9-0.5,1.5c-0.3,1.6-0.6,3-1.7,4.2c-1.5,1.7-2.9,0-3.5-1.7c-0.6-2.2,0.4-5.1,2.1-6.6c0.8-0.7,2.7-1.6,4.2-1.5
	c-0.1-0.3,0.1-0.7,0.6-0.7c1.5,0.1,3.1,0.3,4.4,1.2c0.4,0.4,0.7,0.8,1,1.3c0.3,0.6-0.1,0.8,0.5,1.5c0.2,0.2,0.6,0.4,0.8,0.6
	C49.2,64.9,49.2,65.9,48.5,66.5z"/>
<path class="st5" d="M39.4,68.6c-0.7,0-1.6-1-0.9-2.2c0.7-1.1,2,0,2,0C40.7,67.1,40.1,68.5,39.4,68.6z"/>
<path class="st6" d="M39.4,68.8c-0.5,0-0.9-0.2-1.1-0.7c-0.4-0.5-0.4-1.2,0-1.8c0.2-0.4,0.5-0.6,0.8-0.7c0.7-0.1,1.5,0.5,1.6,0.6
	v0.1h0.1c0.1,0.6-0.1,1.4-0.5,1.9C40.1,68.6,39.8,68.8,39.4,68.8z M39.3,66.2C39.3,66.2,39.2,66.2,39.3,66.2c-0.3,0-0.5,0.1-0.6,0.4
	c-0.3,0.6-0.1,1.1,0,1.2c0.2,0.3,0.5,0.5,0.7,0.5c0.1,0,0.3-0.1,0.5-0.4c0.2-0.5,0.4-1,0.3-1.3C40,66.4,39.6,66.2,39.3,66.2z"/>
<path class="st4" d="M38.2,60.6c1-1.4,2.7-1.8,4.3-1.9c0.8,0,1,1.3,0.2,1.4c-1.3,0-2.6,0.2-3.4,1.3C38.8,62.1,37.7,61.3,38.2,60.6z"
	/>
<path class="st5" d="M17,91.4c0.1-0.2,6.6-8.7,10.7-12c2.1-1.7,5.3-0.9,6.2,1.7c0.7,1.8,1.1,4.2,0.6,6.9c-0.5,2.9-2.1,5.5-4.3,7.5
	c-0.9,0.7-1.9,1.7-2.9,2.6c-2.3,2.2-3.5,10.5-3.1,11.2c2.4,4,14.4,3,14.4,3l0.3,3.6c0,0-20.4,6.1-25.1-0.4C9.2,109,11.2,99,17,91.4z
	"/>
<path class="st6" d="M22.9,118.8c-4,0-7.6-0.8-9.3-3.1c-4.4-6.2-3.1-16.3,3.1-24.5h0.1c1.1-1.5,7-8.9,10.7-12
	c1.1-0.9,2.5-1.2,3.9-0.8c1.3,0.4,2.3,1.3,2.8,2.6c0.8,2.2,1,4.6,0.6,7.1c-0.5,2.8-2,5.5-4.4,7.6c-1.1,0.9-2.1,1.8-2.9,2.6
	c-2.2,2.1-3.4,10.2-3.1,10.9c2.3,3.8,14.1,2.9,14.2,2.9l0.3-0.1l0.3,4.1l-0.2,0.1C38.5,116.4,30.1,118.8,22.9,118.8z M30.2,78.8
	c-0.8,0-1.7,0.3-2.3,0.9c-3.7,3-9.5,10.4-10.7,11.8v0.1c-6.1,8-7.4,17.8-3.1,23.8c4.2,5.8,22.3,0.9,24.5,0.3l-0.2-3.1
	c-1.9,0.2-12.2,0.7-14.4-3.1c-0.6-0.9,0.7-9.3,3.1-11.6c0.8-0.8,1.9-1.7,2.9-2.7c2.3-1.9,3.8-4.5,4.3-7.2c0.4-2.4,0.2-4.7-0.6-6.8
	c-0.4-1.1-1.3-1.9-2.5-2.2C30.9,78.9,30.6,78.8,30.2,78.8z"/>
<path class="st4" d="M14.6,90.1c4.7-5.6,12-13.2,17.1-12c3.2,0.7,4,7.1,3.5,9.7c-0.8,5.6-7,11.2-7.9,12.1
	C21.5,98.4,16.8,95,14.6,90.1z"/>
<path class="st2" d="M52.4,121.5L39.7,118l13.3-0.8L52.4,121.5z"/>
<path class="st5" d="M39.9,119v-0.7l12.2,3.5v1L39.9,119z"/>
<path class="st6" d="M52.4,121.5v1.6l-12.8-3.9l0.1-1.2L52.4,121.5z M40.2,118.7l11.6,3.6v-0.4L40.2,118.7L40.2,118.7z"/>
<path class="st2" d="M80,121.3l-27.6,1.8v-1.6l27.6-1.6V121.3z"/>
<path class="st5" d="M54.8,106.6c0.1-0.4,0.4-0.7,0.8-0.7l25.3-1.5c0.3,0,0.5,0.1,0.7,0.2c0.1,0.2,0.2,0.4,0.2,0.7l-2.1,14.3
	l-27,1.6L54.8,106.6z"/>
<path class="st6" d="M82,105.3l-2,14.6l-27.6,1.6l2.1-14.9c0.1-0.5,0.5-0.9,1.1-1l25.3-1.5c0,0,0,0,0.1,0
	C81.6,104.1,82.1,104.7,82,105.3z M80.9,104.7l-25.3,1.5c-0.3,0-0.5,0.2-0.5,0.4l-2,14.3l26.4-1.6l2-14.1c0-0.1,0-0.3-0.1-0.4
	C81.3,104.8,81.2,104.7,80.9,104.7L80.9,104.7z"/>
<path class="st5" d="M51.7,114.6c-0.2,0.4-0.8,0.5-1.1,0.2c-0.7-0.8-1.4-1.4-2.2-1.8c0.2,0.5,0.1,1.1-0.4,1.6
	c-0.1,0.1-0.3,0.3-0.5,0.4c0,0.2,0,0.4-0.2,0.5c-0.1,0.1-0.3,0.2-0.5,0.3c0.1,0.3,0,0.7-0.4,0.8c-0.9,0.1-1.8,0-2.6-0.3
	c-0.2,0.1-0.4,0.1-0.6,0.2c-0.9,0.3-1.9,0.1-2.8-0.1c-0.6-0.1-1.1-0.3-1.5-0.5c-0.5-0.2-1.1-0.5-1.2-1.2c-0.2-0.5-0.2-1.4,0.1-1.8
	c0.4-0.6,1.3-0.6,1.9-0.7c0.8-0.2,1.6-0.2,2.3-0.5c0.7-0.4,1.4-1.1,1.9-1.7c0.4-0.5,1-1.7,1.9-1.3c0.8,0.3,0.8,1.5,0.5,2.2
	c-0.1,0.1-0.1,0.2-0.2,0.3c0.1,0,0.2,0,0.3,0c1,0,1.9,0,2.7,0.3C50.2,111.9,52.3,113.2,51.7,114.6z"/>
<path class="st6" d="M45.6,117c-0.6,0-1.2-0.1-1.8-0.4c-0.1,0.1-0.3,0.1-0.5,0.2c-1.1,0.3-2.2,0.1-3-0.2c-0.5,0-1.1-0.2-1.5-0.4
	c-0.6-0.3-1.2-0.6-1.4-1.4c-0.2-0.5-0.2-1.5,0.2-2.1c0.3-0.6,1.1-0.7,1.7-0.8c0.1,0,0.2,0,0.3,0c0.2-0.1,0.4-0.1,0.6-0.1
	c0.6-0.1,1.2-0.2,1.7-0.4c0.7-0.4,1.3-1,1.8-1.6c0.1-0.1,0.1-0.2,0.2-0.3c0.4-0.6,1.1-1.4,2-1.1c0.3,0.2,0.6,0.5,0.7,0.8
	c0.3,0.6,0.1,1.3-0.1,1.7c1-0.1,1.9,0,2.7,0.3c0.8,0.3,2.3,1.1,2.7,2.2c0.2,0.5,0.2,0.9,0,1.3c-0.1,0.3-0.4,0.5-0.7,0.5
	c-0.3,0.1-0.6,0-0.8-0.2c-0.6-0.7-1.2-1.2-1.7-1.5c0,0.5-0.2,1-0.5,1.3c-0.1,0.1-0.3,0.2-0.4,0.3c-0.1,0.3-0.2,0.5-0.3,0.6
	c-0.1,0.1-0.2,0.2-0.4,0.3c0.1,0.2,0,0.4-0.1,0.5c-0.1,0.2-0.3,0.3-0.6,0.4S45.9,117,45.6,117z M43.8,116L43.8,116
	c0.9,0.3,1.7,0.4,2.5,0.3c0.1,0,0.2,0,0.2-0.1c0.1-0.1,0.1-0.2,0.1-0.3l-0.1-0.3l0.2-0.1c0.2,0,0.3-0.1,0.4-0.2
	c0.1-0.1,0.1-0.2,0.1-0.3l0.1-0.2l0.1-0.1c0.1-0.1,0.3-0.2,0.4-0.3c0.4-0.4,0.5-0.9,0.3-1.3l-0.2-0.7l0.6,0.3c0.8,0.4,1.5,1,2.3,1.9
	c0.1,0.1,0.2,0.1,0.3,0.1c0.1-0.1,0.2-0.2,0.3-0.3c0.1-0.3,0.1-0.5,0-0.8c-0.4-0.8-1.6-1.6-2.3-1.8c-0.8-0.3-1.7-0.4-2.7-0.3h-0.1
	c-0.1,0-0.1,0-0.1,0c-0.1,0-0.1,0-0.2-0.1h-0.4l0.3-0.5c0.1-0.1,0.1-0.1,0.1-0.2c0.2-0.3,0.3-0.9,0.1-1.3c-0.1-0.2-0.2-0.3-0.4-0.4
	c-0.5-0.2-0.9,0.2-1.3,0.8c-0.1,0.1-0.2,0.3-0.3,0.4c-0.5,0.6-1.1,1.3-2,1.7c-0.6,0.3-1.2,0.4-1.8,0.5c-0.2,0-0.4,0-0.6,0
	c-0.1,0.1-0.2,0.1-0.3,0.1c-0.5,0.1-1.1,0.1-1.3,0.5c-0.3,0.3-0.3,1.2-0.2,1.7c0.1,0.5,0.6,0.7,1.1,1c0.3,0.1,0.9,0.3,1.5,0.4
	c0.7,0.2,1.7,0.4,2.6,0.2c0.2-0.1,0.4-0.2,0.5-0.3H43.8z"/>
<path class="st5" d="M70.3,121.2c0.1-0.3,0.3-0.7,0.7-0.7c0.1,0.1,0.1,0.1,0.1,0.1c0-0.2,0-0.4,0.1-0.5c0.1-0.4,0.4-1,1-0.7
	c0.2,0.1,0.3,0.3,0.4,0.5c0.1-0.3,0.3-0.6,0.8-0.8c0.6-0.2,0.9,0.2,1,0.7c0.2-0.5,0.4-1.2,1-0.8c0.4,0.2,0.6,0.6,0.8,0.9
	c0.3,0.4,0.5,0.8,0.6,1.3c0,0.1,0,0.1,0,0.1c0,0.1,0,0.1,0,0.2c-0.2,0.5-0.8,1-1.4,0.5c-0.1-0.1-0.3-0.2-0.4-0.4
	c0.1,0.5,0,0.9-0.5,1s-1-0.3-1.3-0.7c-0.1,0.2-0.3,0.5-0.6,0.5c-0.2,0-0.4-0.2-0.6-0.4c0,0.1,0,0.1-0.1,0.1
	C71.1,122.6,70.2,122,70.3,121.2z"/>
<path class="st6" d="M74.3,122.9c-0.3,0-0.7-0.1-1-0.6c-0.2,0.2-0.4,0.3-0.7,0.4c-0.2-0.1-0.4-0.2-0.6-0.3c-0.5,0.3-1,0.2-1.5-0.1
	c-0.3-0.3-0.5-0.7-0.4-1.2c0-0.3,0.3-0.8,0.7-0.8c0.1-0.1,0.1-0.2,0.1-0.3c0.1-0.3,0.3-0.7,0.7-0.9c0.1-0.1,0.4-0.1,0.7,0.1
	c0.1,0.1,0.2,0.1,0.3,0.2c0.1-0.3,0.4-0.4,0.7-0.5c0.3-0.1,0.5-0.1,0.8,0c0.1,0.1,0.2,0.1,0.3,0.2c0.1-0.2,0.2-0.3,0.4-0.4
	c0.2-0.1,0.4-0.2,0.8,0c0.3,0.2,0.6,0.6,0.8,0.9v0.2c0.3,0.4,0.5,0.9,0.6,1.4c0.1,0.1,0.1,0.3,0.1,0.4c-0.2,0.3-0.5,0.7-0.9,0.9
	c-0.3,0.1-0.6,0-0.9-0.2c0,0,0,0-0.1,0c-0.1,0.4-0.4,0.5-0.7,0.5C74.5,122.9,74.4,122.9,74.3,122.9z M73.2,121.3l0.3,0.4
	c0.2,0.3,0.5,0.7,0.9,0.6c0.2,0,0.4-0.1,0.3-0.6v-0.9l0.5,0.7c0.1,0.1,0.3,0.2,0.4,0.3c0.1,0.1,0.3,0.2,0.4,0.1
	c0.2,0,0.4-0.2,0.5-0.5v-0.1c-0.1-0.5-0.3-0.9-0.6-1.3v-0.1c-0.2-0.2-0.4-0.6-0.6-0.7c-0.1-0.1-0.2,0-0.2,0c-0.2,0-0.3,0.3-0.4,0.6
	l-0.2,1l-0.3-0.9c-0.1-0.3-0.3-0.4-0.4-0.5c-0.1-0.1-0.2-0.1-0.3,0c-0.3,0.1-0.5,0.3-0.6,0.6l-0.1,0.7l-0.4-0.6
	c-0.1-0.2-0.3-0.3-0.4-0.4c-0.1-0.1-0.2-0.1-0.2-0.1c-0.2,0.1-0.3,0.3-0.4,0.5c0,0.1,0,0.3,0,0.5l0.1,0.6l-0.5-0.4
	c-0.2,0-0.4,0.3-0.4,0.4c0,0.3,0.1,0.5,0.3,0.6c0.2,0.2,0.5,0.3,0.8,0.1l0.1-0.5l0.4,0.4c0.1,0.1,0.3,0.3,0.4,0.3s0.3-0.2,0.4-0.3
	L73.2,121.3z"/>
<path class="st5" d="M41.5,65.6l0.4,1.9l-0.5,3.1c0,0-2.7-0.7-2.2-1.4c0.4-0.6,1.1-3.4,1.1-3.4L41.5,65.6z"/>
<path class="st5" d="M37,112.7l2.2-0.2v3.2c0,0-0.7,0-1.6,0.3c-0.9,0.3-2.2-1.7-1.8-2.1C36.1,113.4,37,112.7,37,112.7z"/>
<path d="M32.2,166.9l4.8,38.8c0.1,0.7-0.5,1.5-1.3,1.6c-0.1,0-0.1,0-0.2,0c-0.7,0-1.3-0.5-1.4-1.2l-4.8-39.2H32.2z"/>
<path class="st4" d="M176.1,21.6h16.2v185.9h-16.2V21.6z"/>
<path class="st2" d="M148.8,50.8h16.3v156.7h-16.3V50.8z"/>
<path class="st4" d="M121.6,104.2h16.3v103.3h-16.3V104.2z"/>
<path class="st2" d="M94.4,84.7h16.3v122.8H94.4V84.7z"/>
<path class="st4" d="M67.2,142.1h16.3v65.4H67.2V142.1z"/>
<path class="st2" d="M40,165.9h16.3v41.6H40V165.9z"/>
<path class="st4" d="M12.8,164.9h16.3v42.6H12.8V164.9z"/>
<path class="st4" d="M26.1,23.9c0-6.6,5.4-11.8,11.9-11.8c6.6,0,11.9,5.4,11.9,12c-0.1,3-1.2,5.8-3.1,7.9c-2.4,2.6-4.1,5.9-4.1,9.4
	v0.4L33,41.7v-0.3c0.1-3.5-1.6-6.9-3.9-9.6C27.2,29.7,26.1,26.9,26.1,23.9z"/>
<path class="st6" d="M34.9,32.7c0,0-0.6-2.6-1-5.2c-0.3-1.5-0.4-2.6-0.4-3.4c-0.3-0.1-0.5-0.2-0.7-0.3c-1.8-1.3-0.1-3.9-0.1-4
	c0.1-0.1,0.3-0.2,0.4-0.1c0.2,0.1,0.2,0.2,0.2,0.3c-0.5,0.7-1.4,2.7-0.2,3.5c0.1,0.1,0.3,0.1,0.4,0.2C33.4,22.1,33.8,22,34,22
	c0.4-0.1,0.7,0,0.9,0.3c0.4,0.4,0.1,1.4-0.5,1.7c-0.1,0.1-0.3,0.1-0.4,0.1c0.1,2,0.7,5.4,1.5,8.6c0,0.2-0.1,0.2-0.3,0.2
	c0,0,0,0-0.1,0C35,32.9,34.9,32.8,34.9,32.7z M34.3,22.4c-0.2,0-0.3,0.5-0.3,1.2c0.5-0.3,0.7-1,0.5-1.2
	C34.5,22.4,34.5,22.4,34.3,22.4C34.4,22.4,34.4,22.4,34.3,22.4z"/>
<path class="st6" d="M40.7,32.9c0,0.1,0,0.1-0.1,0.1c-0.2,0-0.3-0.1-0.2-0.2c0.8-3.2,1.4-6.6,1.5-8.6c-0.1-0.1-0.2-0.1-0.3-0.1
	c-0.7-0.4-1-1.3-0.5-1.8c0.2-0.2,0.5-0.3,0.9-0.3c0.2,0.1,0.6,0.1,0.5,1.8c0.1-0.1,0.2-0.1,0.3-0.2c1.3-0.8,0.4-2.8,0-3.5
	c-0.1-0.1,0-0.2,0.1-0.3c0.2-0.1,0.3-0.1,0.4,0s1.7,2.8-0.1,4.1c-0.3,0.1-0.5,0.2-0.7,0.3C42.4,25,42.3,26,42,27.6
	c-0.4,2.5-1.1,5.1-1.1,5.1C40.9,32.9,40.9,32.9,40.7,32.9z M41.5,22.4C41.5,22.4,41.5,22.5,41.5,22.4c-0.2,0.3,0,1,0.4,1.3
	c0.1-0.8,0-1.2-0.2-1.3C41.7,22.4,41.6,22.4,41.5,22.4z"/>
<path class="st6" d="M34.9,32.4l0.3-0.2c1.6-1.3,3.9-1.3,5.4,0l0.3,0.2V42h-6.1L34.9,32.4z M40.4,32.7L40.4,32.7
	c-1.5-1.2-3.4-1.2-4.8-0.1l-0.1,0.1l-0.1,8.7l4.9,0.1L40.4,32.7z"/>
<path d="M32.1,41.7c0-0.4,0.4-0.7,0.8-0.7h9.9c0.4,0,0.8,0.4,0.8,0.8c0,0.4-0.4,0.7-0.8,0.7l-9.9-0.1C32.5,42.4,32.1,42.1,32.1,41.7
	z"/>
<path class="st2" d="M32.7,43.2c0-0.4,0.3-0.8,0.7-0.8l8.9,0.1c0.3,0,0.6,0.3,0.6,0.8c0,0.4-0.3,0.7-0.6,0.7l-8.9-0.1
	C33,43.9,32.7,43.6,32.7,43.2z"/>
<path d="M32.7,44.6c0-0.4,0.3-0.7,0.7-0.7l8.9,0.1c0.3,0,0.6,0.3,0.6,0.7c0,0.4-0.3,0.8-0.6,0.8l-8.9-0.1
	C33,45.4,32.7,45.1,32.7,44.6z"/>
<path class="st2" d="M32.7,46.1c0-0.4,0.3-0.7,0.7-0.7l8.9,0.1c0.3,0,0.6,0.3,0.6,0.7c0,0.4-0.3,0.7-0.6,0.7h-8.9
	C33,46.9,32.7,46.5,32.7,46.1z"/>
<path d="M32.7,47.6c0-0.4,0.3-0.7,0.7-0.7h8.9c0.3,0,0.6,0.4,0.6,0.8c0,0.4-0.3,0.7-0.7,0.7l-8.9-0.1C33,48.3,32.7,48,32.7,47.6z"/>
<path class="st2" d="M40.1,49.9l-4.7-0.1c-0.8,0-1.4-0.7-1.4-1.5l7.6,0.1C41.6,49.2,40.9,49.9,40.1,49.9z"/>
<path class="st4" d="M37.9,8.5c-0.4-0.1-0.6-0.4-0.6-0.8V2.9c0-0.4,0.4-0.8,0.9-0.8c0.4,0,0.8,0.4,0.8,0.8v4.8
	c0,0.5-0.4,0.8-0.9,0.8C38.1,8.5,38,8.5,37.9,8.5z"/>
<path class="st4" d="M29.9,10c-0.3,0-0.5-0.1-0.6-0.3l-2.5-4.2c-0.3-0.4-0.1-0.9,0.3-1.1c0.4-0.3,0.9-0.1,1.1,0.3l2.6,4.1
	c0.2,0.4,0.1,0.9-0.3,1.1C30.3,10.1,30.1,10.1,29.9,10z"/>
<path class="st4" d="M24.4,16.3C24.4,16.3,24.3,16.3,24.4,16.3l-4.6-2.1c-0.4-0.2-0.6-0.7-0.4-1.1c0.2-0.4,0.7-0.6,1.1-0.4l4.5,2
	c0.4,0.2,0.6,0.7,0.4,1.1C25.2,16.2,24.8,16.4,24.4,16.3z"/>
<path class="st4" d="M18.4,26.4c-0.3-0.1-0.6-0.4-0.6-0.8c0-0.5,0.3-0.8,0.8-0.9l4-0.1c0.5,0,0.9,0.3,0.9,0.8s-0.3,0.9-0.8,0.9
	l-4,0.1C18.6,26.4,18.5,26.4,18.4,26.4z"/>
<path class="st4" d="M46.5,10.2c-0.1-0.1-0.1-0.1-0.2-0.1c-0.4-0.3-0.5-0.8-0.3-1.2l2.6-4.1c0.3-0.4,0.8-0.5,1.2-0.2
	c0.4,0.2,0.5,0.7,0.3,1.1l-2.7,4.1C47.2,10.1,46.9,10.2,46.5,10.2z"/>
<path class="st4" d="M51.9,16.5c-0.3-0.1-0.5-0.2-0.6-0.5c-0.2-0.4,0-0.9,0.4-1.1l4.5-1.9c0.4-0.2,0.9,0,1.1,0.4
	c0.2,0.4,0,0.9-0.4,1.1l-4.5,1.9C52.2,16.6,52.1,16.6,51.9,16.5z"/>
<path class="st4" d="M53.7,26.5c-0.4-0.1-0.7-0.4-0.7-0.9c0.1-0.4,0.5-0.8,0.9-0.8l4,0.2c0.5,0.1,0.9,0.5,0.8,0.9
	c0,0.5-0.4,0.9-0.8,0.8L53.7,26.5C53.8,26.5,53.8,26.5,53.7,26.5z"/>
<path class="st5" d="M163.7,207.2v-13.3h22.1c3.6,0,6.6,3,6.6,6.7c0,3.6-3,6.6-6.6,6.6H163.7z"/>
<path class="st6" d="M192.7,200.6c0,3.8-3.1,6.9-6.9,6.9h-22.4v-13.9h22.4C189.6,193.6,192.7,196.7,192.7,200.6z M164,194.2v12.7
	h21.8c3.5,0,6.3-2.9,6.3-6.3c0-3.5-2.8-6.4-6.3-6.4H164z"/>
<g class="st7">
	<path d="M187,195.2c-4.9,0-12,0-12,0s-3.8,2.8-4.9,4.6c-1,1.5-4,0.3-6.7-0.7v-5.5h22.4c3.5,0,6.5,2.7,6.9,6.2
		C192.6,199.7,191.8,195.2,187,195.2z"/>
</g>
<path class="st5" d="M131.1,205.8v-10.7h39.8c2.9,0,5.3,2.4,5.3,5.4c0,2.9-2.4,5.3-5.3,5.3H131.1z"/>
<path class="st6" d="M176.5,200.5c0,3.1-2.5,5.6-5.6,5.6h-40.1v-11.3h40.1C174,194.8,176.5,197.3,176.5,200.5z M131.4,195.4v10.1
	h39.5c2.8,0,5-2.3,5-5c0-2.8-2.2-5.1-5-5.1H131.4z"/>
<path d="M128.5,205.1h42c2.5,0,4.6-2,4.6-4.5s-2.1-4.6-4.6-4.6h-42v-2.4h42c3.9,0,7,3.1,7,7c0,3.8-3.1,6.9-7,6.9h-42V205.1z"/>
<path class="st5" d="M159.6,173.7v-10.1h17.1c2.8,0,5,2.3,5,5.1c0,2.8-2.2,5-5,5H159.6z"/>
<path class="st6" d="M182,168.7c0,2.9-2.4,5.3-5.3,5.3h-17.3v-10.7h17.3C179.6,163.3,182,165.7,182,168.7z M159.9,163.9v9.5h16.8
	c2.6,0,4.7-2.1,4.7-4.7c0-2.7-2.1-4.8-4.7-4.8H159.9z"/>
<path class="st5" d="M134.4,172.7v-8.2h30.7c2.3,0,4.1,1.8,4.1,4.1c0,2.2-1.8,4.1-4.1,4.1H134.4z"/>
<path class="st6" d="M169.5,168.6c0,2.4-2,4.3-4.4,4.3h-31v-8.7h31C167.5,164.2,169.5,166.2,169.5,168.6z M134.7,164.8v7.6h30.4
	c2.1,0,3.8-1.7,3.8-3.8c0-2.1-1.7-3.8-3.8-3.8H134.7z"/>
<path d="M132.3,172.2h32.6c1.9,0,3.5-1.6,3.5-3.5c0-2-1.6-3.6-3.5-3.6h-32.6v-1.8h32.6c2.9,0,5.3,2.4,5.3,5.4c0,2.9-2.4,5.3-5.3,5.3
	h-32.6V172.2z"/>
<path class="st2" d="M157.2,174h18.9c2.2,0,4.1,1.8,4.1,4.1s-1.9,4.1-4.1,4.1h-18.9V174z"/>
<g class="st7">
	<path d="M175.9,175.4h-14.1l-4.6,0.5V174h18.9c2.2,0,4.1,1.8,4.1,4.1c0,0.3-0.1,0.7-0.2,1C179.5,175.4,175.9,175.4,175.9,175.4z"/>
</g>
<path class="st5" d="M128.9,181.1V175h30c1.7,0,3.1,1.4,3.1,3c0,1.7-1.4,3.1-3.1,3.1H128.9z"/>
<path class="st6" d="M162.3,178c0,1.9-1.5,3.4-3.4,3.4h-30.3v-6.7h30.3C160.8,174.7,162.3,176.2,162.3,178z M129.2,175.3v5.5h29.7
	c1.5,0,2.8-1.2,2.8-2.8c0-1.5-1.3-2.7-2.8-2.7H129.2z"/>
<path d="M127.2,180.8h31.5c1.5,0,2.7-1.2,2.7-2.7s-1.2-2.7-2.7-2.7h-31.5V174h31.5c2.3,0,4.1,1.8,4.1,4.1s-1.8,4.1-4.1,4.1h-31.5
	V180.8z"/>
<path class="st4" d="M173.1,193.6h-34.4c-3.2,0-5.7-2.5-5.7-5.7c0-3.1,2.5-5.7,5.7-5.7h34.4V193.6z"/>
<g class="st7">
	<path d="M169.3,182.2l-5.4,2.4c0,0-20,0-24.6,0c-4.6,0-6.3,3.9-6.3,3.9c0-0.2,0-0.4,0-0.6c0-3.1,2.5-5.7,5.7-5.7H169.3z"/>
</g>
<path class="st5" d="M166.9,192.2c-2.4,0-4.4-1.9-4.4-4.4c0-2.4,2-4.3,4.4-4.3h19.8v8.7H166.9z"/>
<path class="st6" d="M187,192.5h-20.1c-2.5,0-4.6-2.1-4.6-4.7c0-2.5,2.1-4.6,4.6-4.6H187V192.5z M166.9,183.7
	c-2.2,0-4.1,1.9-4.1,4.1c0,2.3,1.9,4.1,4.1,4.1h19.5v-8.2H166.9z"/>
<path d="M189,193.6h-21.8c-3.2,0-5.7-2.5-5.7-5.7c0-3.1,2.5-5.7,5.7-5.7H189v2h-21.8c-2.1,0-3.8,1.6-3.8,3.7c0,2.1,1.7,3.8,3.8,3.8
	H189V193.6z"/>
<path d="M144.7,199.7c-14.6,12.6-33.6,10.1-41.9-6c-8.2-16-3.1-39.2,11.6-51.7c14.6-12.6,33.2-9.7,41.5,6.3
	C164.1,164.4,159.4,187.2,144.7,199.7z"/>
<path class="st4" d="M122.6,206.1c-9,0-16.8-5-21.3-13.8c-8.1-15.6-3-38.2,11.2-50.4c5.8-5,12.4-7.6,19-7.6c9.1,0,16.9,5,21.4,13.7
	c8,15.7,3,38.3-11.3,50.5C135.8,203.5,129.2,206.1,122.6,206.1z"/>
<path class="st6" d="M153,147.9c8.1,15.8,3.1,38.5-11.3,50.8c-6,5.1-12.7,7.6-19.1,7.6c-8.7,0-16.8-4.7-21.5-13.9
	C93,176.7,98,154,112.4,141.7c6-5.2,12.7-7.7,19.1-7.7C140.3,134,148.3,138.8,153,147.9z M131.5,134.5c-6.6,0-13.1,2.6-18.8,7.5
	c-14.2,12.2-19.3,34.7-11.3,50.2c4.5,8.7,12.2,13.7,21.2,13.7c6.6,0,13.1-2.6,18.9-7.5c14.2-12.2,19.2-34.7,11.2-50.3
	C148.2,139.4,140.5,134.5,131.5,134.5V134V134.5z"/>
<path class="st5" d="M123.3,201c-7.8,0-14.5-4.3-18.3-11.8c-6.9-13.4-2.6-32.8,9.6-43.3c5-4.2,10.6-6.5,16.2-6.5
	c7.8,0,14.5,4.3,18.4,11.8c6.8,13.4,2.5,32.8-9.7,43.2C134.5,198.7,128.9,201,123.3,201z"/>
<path class="st6" d="M149.3,151.1c7,13.5,2.6,33-9.7,43.5c-5.1,4.4-10.9,6.6-16.3,6.6c-7.5,0-14.5-4.1-18.5-11.9
	c-7-13.5-2.6-33,9.7-43.5c5.2-4.4,10.9-6.6,16.3-6.6C138.4,139.2,145.3,143.3,149.3,151.1z M130.8,139.6c-5.5,0-11.1,2.3-16,6.5
	c-12.2,10.4-16.5,29.7-9.6,43c3.8,7.4,10.4,11.7,18.1,11.7c5.6,0,11.1-2.3,16.1-6.5c12.1-10.4,16.4-29.7,9.6-43
	C145.1,143.9,138.5,139.6,130.8,139.6v-0.4V139.6z"/>
<path class="st4" d="M137.5,190.5c-10.2,8.8-23.2,6.8-29-4.4c-5.8-11.3-2.2-27.5,8.1-36.3c10.2-8.7,23.2-6.7,29,4.5
	S147.8,181.8,137.5,190.5z"/>
<path class="st8" d="M123.9,196.2c-1.1,0-2.2-0.1-3.3-0.3c-5.2-1-9.6-4.5-12.3-9.7c-5.8-11.3-2.1-27.7,8.2-36.5
	c5.1-4.4,11.3-6.3,17-5.2c5.2,1,9.6,4.5,12.3,9.7c5.8,11.3,2.2,27.7-8.1,36.5C133.5,194.3,128.6,196.2,123.9,196.2z M130.3,144.6
	c-4.7,0-9.5,1.9-13.6,5.4c-10.1,8.7-13.8,24.8-8,36c2.6,5.1,6.9,8.5,12,9.5c5.6,1.1,11.6-0.8,16.7-5.1c10.2-8.7,13.8-24.9,8-36
	c-2.6-5.1-6.9-8.5-12-9.5C132.4,144.7,131.4,144.6,130.3,144.6z"/>
<path class="st5" d="M124.5,190.6c-5.1,0-9.5-2.8-12.1-7.8c-4.6-8.9-1.7-21.8,6.4-28.7c3.3-2.9,7-4.4,10.8-4.4
	c5.1,0,9.6,2.9,12.1,7.9c4.6,8.9,1.7,21.8-6.4,28.7C132,189.1,128.3,190.6,124.5,190.6z"/>
<path class="st6" d="M141.9,157.5c4.6,9,1.7,21.9-6.5,29c-3.4,2.9-7.2,4.3-10.9,4.3c-5,0-9.6-2.7-12.3-7.9c-4.6-9-1.7-22,6.5-29
	c3.4-2.9,7.3-4.4,10.9-4.4C134.6,149.5,139.2,152.3,141.9,157.5z M118.9,154.2c-8,6.9-10.9,19.7-6.3,28.5c2.5,4.9,6.9,7.7,11.9,7.7
	c3.7,0,7.4-1.5,10.7-4.3c8-6.8,10.9-19.6,6.3-28.4c-2.5-4.9-6.8-7.8-11.9-7.8C125.9,149.9,122.2,151.4,118.9,154.2z"/>
<path class="st4" d="M133.3,182.4c-6.1,5.3-13.9,4.1-17.4-2.7c-3.4-6.7-1.3-16.5,4.9-21.7c6.1-5.3,13.9-4.1,17.4,2.7
	C141.7,167.4,139.5,177.1,133.3,182.4z"/>
<path class="st6" d="M125.1,185.9c-0.6,0-1.2-0.1-1.9-0.2c-3.2-0.6-5.8-2.7-7.5-5.9c-3.5-6.8-1.3-16.7,4.9-22
	c3.2-2.6,6.9-3.8,10.3-3.1c3.2,0.6,5.8,2.7,7.5,5.9c3.5,6.8,1.3,16.6-4.9,21.9C130.9,184.7,128,185.9,125.1,185.9z M129,154.9
	c-2.8,0-5.6,1.1-8.1,3.2c-6.1,5.2-8.2,14.9-4.8,21.5c1.6,3.1,4.1,5.1,7.2,5.7c3.3,0.6,6.9-0.5,9.9-3.1c6.1-5.2,8.2-14.8,4.8-21.5
	c-1.6-3-4.1-5-7.1-5.6C130.3,155,129.6,154.9,129,154.9z"/>
<path class="st5" d="M125.8,180.3c-2.5,0-4.7-1.4-6-3.9c-2.2-4.4-0.8-10.8,3.2-14.2c1.6-1.4,3.5-2.1,5.3-2.1c2.6,0,4.7,1.4,6,3.8
	c2.3,4.4,0.8,10.8-3.2,14.3C129.5,179.6,127.6,180.3,125.8,180.3z"/>
<path class="st6" d="M134.5,163.8c2.3,4.5,0.9,11-3.2,14.5c-1.8,1.5-3.7,2.2-5.5,2.2c-2.5,0-4.8-1.4-6.2-4
	c-2.3-4.5-0.8-10.9,3.3-14.5c1.7-1.4,3.6-2.1,5.4-2.1C130.8,159.9,133.1,161.2,134.5,163.8z M123.1,162.4c-3.9,3.3-5.3,9.6-3.1,14
	c1.2,2.3,3.3,3.7,5.8,3.7c1.8,0,3.6-0.7,5.2-2.1c3.9-3.4,5.3-9.7,3.1-14c-1.2-2.4-3.3-3.7-5.8-3.7
	C126.5,160.3,124.7,161,123.1,162.4z"/>
<path class="st4" d="M129.2,174.3c-2.1,1.7-4.7,1.3-5.9-0.9c-1.1-2.3-0.4-5.5,1.7-7.3c2-1.7,4.6-1.3,5.8,0.9
	C131.9,169.3,131.2,172.5,129.2,174.3z"/>
<path class="st6" d="M126.4,175.6c-0.2,0-0.4,0-0.7-0.1c-1.1-0.2-2-0.9-2.5-2c-1.2-2.4-0.5-5.7,1.6-7.5c1.1-1,2.4-1.3,3.6-1.1
	c1.1,0.2,2,0.9,2.6,2c1.2,2.3,0.4,5.7-1.7,7.5C128.4,175.2,127.4,175.6,126.4,175.6z M127.7,165.2c-0.9,0-1.8,0.4-2.6,1.1
	c-2,1.7-2.7,4.8-1.6,7c0.5,0.9,1.4,1.6,2.3,1.8c1.1,0.2,2.2-0.2,3.2-1c2-1.7,2.7-4.8,1.6-7c-0.5-1-1.3-1.6-2.3-1.8
	C128.1,165.3,127.9,165.2,127.7,165.2z"/>
<path d="M97.2,141.2l30.1,27.9c0.3,0.3,0.3,0.8,0,1.2c-0.3,0.3-0.8,0.3-1.2,0l-30-27.9L97.2,141.2z"/>
<path d="M104.3,149.7L94,147.6l-8.1-7.5l8.6-0.3l-0.3-8.6l8,7.5l2.9,10.1L104.3,149.7z"/>
</svg>
