<?xml version="1.0" encoding="utf-8"?>
<!-- Generator: Adobe Illustrator 27.0.0, SVG Export Plug-In . SVG Version: 6.00 Build 0)  -->
<svg version="1.1" id="Layer_1" xmlns="http://www.w3.org/2000/svg" xmlns:xlink="http://www.w3.org/1999/xlink" x="0px" y="0px"
	 viewBox="0 0 228 212" style="enable-background:new 0 0 228 212;" xml:space="preserve">
<style type="text/css">
	.st0{fill:#E6EBF0;}
	.st1{fill-rule:evenodd;clip-rule:evenodd;fill:#AAB6C2;}
	.st2{fill:#FFFFFF;}
	.st3{fill-rule:evenodd;clip-rule:evenodd;}
	.st4{fill:#AAB6C2;}
	.st5{fill:#F58634;}
	.st6{fill-rule:evenodd;clip-rule:evenodd;fill:#F58634;}
	.st7{fill:#7977C6;}
	.st8{fill:#FDFCFF;}
	.st9{fill-rule:evenodd;clip-rule:evenodd;fill:#20110E;}
</style>
<path class="st0" d="M34.5,94.6C88.2,71,60.8-9.7,130.7,13.6c69.8,23.2,73.5,65,76,96.8c2.4,31.8-10.6,105.8-95.8,99.9
	c-66.1-4.5-93.7-30.5-101.9-50.7c-4-9.8-11.2-27.4-1.4-45.9C12.5,104.3,24.9,98.8,34.5,94.6z"/>
<path class="st0" d="M34.5,94.6C88.2,71,60.8-9.7,130.7,13.6c69.8,23.2,73.5,65,76,96.8c2.4,31.8-10.6,105.8-95.8,99.9
	c-66.1-4.5-93.7-30.5-101.9-50.7c-4-9.8-11.2-27.4-1.4-45.9C12.5,104.3,24.9,98.8,34.5,94.6z"/>
<path class="st0" d="M15.9,62.3C24.5,48,48,34.5,62.4,33.2c14.3-1.3-0.3,15.9-13.7,32.6c-11.9,15-23.5,18.3-31.5,17.5
	c-2-0.2-3.8-1.5-4.6-3.4C11.4,76.7,10.6,71,15.9,62.3z"/>
<path class="st0" d="M34.5,94.6C88.2,71,60.8-9.7,130.7,13.6c69.8,23.2,73.5,65,76,96.8c2.4,31.8-10.6,105.8-95.8,99.9
	c-66.1-4.5-93.7-30.5-101.9-50.7c-4-9.8-11.2-27.4-1.4-45.9C12.5,104.3,24.9,98.8,34.5,94.6z"/>
<path d="M199.6,212H10.1v-1.4h189.6V212z"/>
<path class="st1" d="M51.4,146.3H33.7v-9.8h17.8V146.3z M34.7,145.3h15.8v-7.7H34.7V145.3z"/>
<path class="st1" d="M39.3,155H21.5v-9.7h17.8V155z M22.5,154h15.8v-7.8H22.5V154z"/>
<path class="st1" d="M95.4,62.7H77.6v-9.8h17.8V62.7z M78.6,61.7h15.8v-7.8H78.6V61.7z"/>
<path class="st1" d="M126.6,170.1h-17.8v-9.8h17.8V170.1z M109.9,169.1h15.8v-7.7h-15.8V169.1z"/>
<path class="st1" d="M109.9,170.1H92.1v-9.8h17.8V170.1z M93.1,169.1h15.8v-7.7H93.1V169.1z"/>
<path class="st1" d="M118.3,178.8h-17.8v-9.7h17.8V178.8z M101.5,177.7h15.8V170h-15.8V177.7z"/>
<path class="st1" d="M112.2,107H94.4v-9.7h17.8V107z M95.4,105.9h15.8v-7.7H95.4V105.9z"/>
<path class="st1" d="M124.3,115.8h-17.8v-9.8h17.8V115.8z M107.6,114.8h15.8v-7.7h-15.8V114.8z"/>
<path class="st1" d="M182.2,74.1h-17.8v-9.7h17.8V74.1z M165.4,73h15.8v-7.7h-15.8V73z"/>
<path class="st1" d="M165.4,74.1h-17.8v-9.7h17.8V74.1z M148.6,73h15.8v-7.7h-15.8V73z"/>
<path class="st1" d="M173.8,82.8H156v-9.8h17.8V82.8z M157,81.8h15.8v-7.7H157V81.8z"/>
<path class="st0" d="M190.7,188.2c-47.4-1.7-50.8-3.1-123.2,15.2C-8.4,222.5-19,105.1,29.1,75c48.1-30.1,63.3-63.9,93.2-69.8
	C216.7-13.4,250.1,190.3,190.7,188.2z"/>
<path class="st0" d="M29,33.2C40,21.6,53.7-13.3,60.3,5.4c6.7,18.8-5,38.2-19,49.4C12,78.1,13,50,29,33.2z"/>
<path d="M213.8,206.9H6.6v-1.4h207.2V206.9z"/>
<path d="M203.7,148.4c1.3,0,2.6-0.4,3.6-1.2c0.1,2.3-0.1,4.5-0.5,6.8c-1.5,2.3-5.5,6.6-5.2,6.5c1.1-0.1,2.2-0.4,3.2-0.7
	c-0.7,1.4-1.5,2.7-2.4,4c-2,2.6-4.7,4.6-5.8,7.8c0,0.1,0,0.1-0.1,0.1c0,0.2-0.2,0.3-0.4,0.2c-5.2-5-6.1-12.5-6.9-19.3
	c0-0.3,0-0.6-0.1-0.9c1.5,1.4,3,2.7,4.8,3.7c0.3,0.2-3.2-5.5-5-8.1c0.1-1.6,0.3-3.2,0.9-4.8c1.3-3.3,3.3-6.3,5.4-9.1
	c0.1-0.1,0.1-0.3,0.2-0.4c0.6,1.5,1.4,2.8,2.3,4.1c0.1,0.2-0.4-4.1-0.7-6.1c0.5-0.7,1-1.3,1.5-1.9c0.7-0.8,1.6-2.2,2.8-2
	c1.2,0.2,4,5.1,4.4,6.5c0.1,0.7,0.3,1.3,0.4,1.9c0.1,0.3,0.1,0.5,0.1,0.8c0.5,2.5,0.8,5,1,7.6c-0.1,0.1-0.2,0.3-0.3,0.4
	C205.9,145.6,203.4,148.4,203.7,148.4z"/>
<path class="st2" d="M199.2,196.5c-2-9.1-3-17.1-3.1-24.6c-0.1-0.1-0.1-0.2-0.1-0.3c0-0.9,0-1.7,0.1-2.6c0-1.3,0-2.7,0.1-4
	c0-0.1,0-0.1,0-0.2c0.2-3.6,0.5-7.3,0.9-10.9c0,0,0,0-0.1,0c-1.3-1.5-2.2-3.1-2.9-5c-0.1-0.2,0-0.4,0.1-0.5c0.1-0.1,0.3-0.2,0.4-0.2
	c0.3,0,0.4,0.1,0.5,0.3c0.5,1.4,1.2,2.7,2.1,3.9c0.1-0.9,0.2-1.7,0.3-2.5c-0.1-0.1-0.1-0.1-0.1-0.2c-1.6-2.2-2.9-4.7-3.7-7.3
	c-0.1-0.2,0-0.4,0.1-0.5c0.1-0.1,0.3-0.2,0.4-0.2c0.3,0,0.4,0.1,0.5,0.3c0.7,2.3,1.7,4.4,3,6.3c0.7-5,1.4-9.9,2.4-14.6
	c0-0.2,0.2-0.4,0.5-0.4c0.2,0,0.4,0.1,0.5,0.2c0.1,0.1,0.1,0.3,0.1,0.4c-0.7,3.5-1.4,7.3-1.9,11.1c2.2-0.5,4-2.1,5.5-3.4
	c0.1-0.1,0.3-0.2,0.4-0.2c0.2,0,0.4,0.2,0.5,0.4c0,0.2,0,0.5-0.2,0.6c-1.9,1.7-3.9,3.3-6.4,3.8c-0.8,6-1.4,12.1-1.8,18.2
	c0.8-0.7,1.5-1.4,2-2.2c0.1-0.1,0.3-0.2,0.4-0.2c0.2,0,0.4,0.1,0.5,0.3c0.1,0.1,0.1,0.4,0,0.5c-0.7,1.1-1.7,2.1-2.8,2.9
	c0,0,0,0-0.1,0c-0.1,0.9-0.1,1.9-0.1,2.8c-0.2,8.4,0.8,17.2,3.1,27.8v0.2l-1,0.3L199.2,196.5z"/>
<path class="st3" d="M201.2,133.3c0.2,0.2,0.3,0.4,0.2,0.7c-0.7,3.4-1.3,7-1.8,10.7c2-0.6,3.7-2.1,5.1-3.3c0.1-0.1,0.3-0.2,0.5-0.2
	c0.3,0,0.6,0.2,0.7,0.5c0.1,0.3,0,0.7-0.2,0.9c-1.9,1.7-3.9,3.3-6.4,3.8c-0.8,5.8-1.3,11.6-1.7,17.4c0.6-0.5,1.1-1.1,1.5-1.7
	c0.2-0.3,0.4-0.4,0.6-0.4c0.3,0,0.6,0.2,0.7,0.4c0.2,0.3,0.2,0.6,0,0.9c-0.7,1.1-1.7,2.1-2.8,2.9c-0.1,0-0.1,0-0.1,0
	c0,0.9,0,1.7-0.1,2.6c-0.1,8.4,0.8,17.2,3.1,27.8l0.1,0.4l-0.5,0.1l-0.2,0.1c-0.1,0-0.2,0-0.3,0.1l-0.5,0.1l-0.1-0.5
	c-2-9.1-3-17.2-3.2-24.6c-0.1-0.1-0.1-0.3-0.1-0.4c0.1-0.9,0.1-1.7,0.1-2.6c0-1.4,0.1-2.8,0.2-4.1c0-0.1,0-0.1,0-0.2
	c0.2-3.5,0.5-7.1,0.8-10.7c-1.3-1.5-2.2-3.1-2.9-5c-0.1-0.2-0.1-0.5,0.1-0.7c0.1-0.2,0.4-0.4,0.6-0.4c0.4,0,0.6,0.2,0.8,0.5
	c0.4,1.2,1,2.3,1.7,3.3c0.1-0.6,0.1-1.2,0.2-1.7c-0.1-0.1-0.1-0.1-0.1-0.1c-1.6-2.3-2.9-4.8-3.7-7.4c-0.1-0.3-0.1-0.5,0.1-0.7
	c0.1-0.2,0.4-0.4,0.6-0.4c0.4,0,0.7,0.2,0.8,0.6c0.6,1.9,1.5,3.8,2.6,5.6c0.6-4.7,1.3-9.4,2.2-13.9c0.1-0.4,0.4-0.7,0.8-0.7
	C200.9,133,201.1,133.1,201.2,133.3z M200.3,133.8c-1,5-1.8,10.1-2.4,15.2c-1.5-2.1-2.6-4.4-3.4-6.9c-0.1-0.1-0.2-0.2-0.3-0.2
	c-0.1,0-0.3,0.2-0.3,0.4c0.9,2.6,2.1,5,3.7,7.3c0.1,0.1,0.1,0.1,0.2,0.1c-0.1,1.1-0.3,2.2-0.4,3.3c-1.1-1.3-1.9-2.8-2.5-4.4
	c-0.1-0.1-0.2-0.2-0.3-0.2c-0.1,0-0.3,0.2-0.3,0.4c0.7,1.8,1.7,3.4,2.9,4.9c0.1,0.1,0.1,0.1,0.1,0.1c-0.3,3.7-0.6,7.3-0.8,11
	c0,0.1,0,0.1,0,0.2c-0.1,1.3-0.2,2.7-0.2,4c0,0.9,0,1.8-0.1,2.7c0,0.1,0,0.1,0.1,0.2c0.2,8.3,1.4,16.5,3.2,24.6
	c0.1-0.1,0.3-0.1,0.5-0.1c-1.9-9.2-3.3-18.5-3.1-27.9c0.1-1,0.1-2,0.1-3c0.1,0,0.1,0,0.1,0c0.1,0,0.1,0,0.2,0c1.1-0.8,2-1.7,2.7-2.8
	c0.1-0.2-0.1-0.5-0.3-0.5c-0.1,0-0.1,0-0.2,0.1c-0.7,1.1-1.5,1.9-2.4,2.6c0.3-6.3,0.9-12.7,1.8-19c2.6-0.4,4.5-2,6.4-3.7
	c0.3-0.2,0.1-0.5-0.1-0.5c-0.1,0-0.1,0-0.2,0.1c-1.8,1.5-3.6,3.1-6,3.5c0.5-3.8,1.2-7.6,1.9-11.4c0.1-0.2-0.1-0.4-0.3-0.4
	C200.5,133.5,200.4,133.6,200.3,133.8z"/>
<path class="st2" d="M191.4,177.9L191.4,177.9c-1.3-1.4-3.1-2.2-4.9-2.9c-0.8-0.3-1.6-0.7-2.4-1.1c-0.9-0.5-1.8-1.1-2.7-1.8
	c0.7-0.1,1.5-0.2,2.4-0.5h0.1l0.1-0.2c0-0.2,0-0.2-1.8-1c-1.4-0.7-3.5-1.7-4.7-2.4c-0.8-1.3-1.5-2.7-2.1-4.4
	c0.3,0.1,0.5,0.1,0.8,0.1c0.8,0,1.6-0.2,2.3-0.5h0.2V163c0-0.2,0-0.3-2.1-1.3c-0.7-0.3-1.5-0.7-2-1c-0.1-0.1-0.1-0.1-0.2-0.2
	c-0.7-2.3-1.1-4.1-1.4-5.8c-0.1-0.3-0.1-0.5-0.1-0.7c-0.1-0.5-0.1-1-0.2-1.5c-0.1-1.1,0.8-5.6,1.6-6.1c0.2-0.1,0.4-0.2,0.7-0.1
	c0.6,0,1.2,0.3,1.7,0.5c0.1,0.1,0.3,0.1,0.4,0.2c0.6,0.3,1.2,0.6,1.7,0.9c0.3,1.5,1,4.9,1.4,4.9h0.2l0.1-0.2
	c0.4-1.1,0.6-2.3,0.7-3.5c2.4,1.4,5.1,3,7.1,5.1c0.8,0.8,1.5,1.9,2.1,3.1c-0.2,0.9-2.1,7.6-1.8,7.9v0.1h0.3v-0.1
	c1-1,1.9-2.3,2.8-3.9c0,0.1,0,0.1,0,0.2c1.2,4.9,2.7,11-0.2,16.5L191.4,177.9z"/>
<path class="st3" d="M177.2,146.8c0.6,0.3,1.2,0.6,1.9,0.9c0.3,1.5,1,4.8,1.1,4.8c0.5-1.3,0.7-2.5,0.8-3.8c0.1,0.1,0.2,0.1,0.3,0.2
	c2.5,1.4,5.2,3,7.2,5.1c0.9,1,1.6,2.1,2.2,3.3c-0.7,2.5-2.1,7.7-1.9,7.7c1.2-1.3,2.1-2.8,3-4.4c0.1,0.3,0.1,0.5,0.1,0.8
	c1.4,5.3,2.8,11.3-0.2,16.7c-0.1,0.1-0.1,0.2-0.2,0.2c-0.1-0.1-0.1-0.1-0.2-0.2c-0.1,0-0.1,0-0.1,0c-1.9-2-4.8-2.7-7.2-4
	c-1.2-0.6-2.3-1.3-3.2-2.2c0.9-0.1,1.9-0.2,2.9-0.5c0.2-0.1-4.4-2-6.3-3.2c-1-1.5-1.8-3.2-2.4-4.9c0.4,0.1,0.8,0.1,1.2,0.1
	c0.7,0,1.5-0.1,2.2-0.4c0.3-0.1-2.6-1.4-3.9-2.1c-0.1-0.1-0.2-0.1-0.3-0.2c-0.6-1.9-1.1-4-1.5-6c0-0.2,0-0.4-0.1-0.6
	c-0.1-0.5-0.1-1.1-0.1-1.6c-0.2-1.1,0.7-5.8,1.7-6.3c0.3-0.1,0.5-0.2,0.8-0.2C175.8,146,176.6,146.5,177.2,146.8z M174.5,146.6
	c-0.7,0.4-1.7,4.6-1.5,5.9c0,0.5,0,1,0.1,1.5c0.1,0.2,0.1,0.4,0.1,0.6c0.3,1.7,0.7,3.5,1.4,5.8c0.1,0,0.1,0,0.1,0.1
	c0.5,0.3,1.3,0.6,2,1c2.1,1,2.3,1.1,2.3,1.5l-0.1,0.3l-0.3,0.2c-0.7,0.3-1.5,0.4-2.4,0.4c-0.1,0-0.3,0-0.5,0
	c0.6,1.5,1.3,2.8,2.1,3.9c1.1,0.7,3.1,1.7,4.5,2.3c1.9,0.9,1.9,0.9,1.9,1.3v0.4l-0.4,0.1c-0.6,0.2-1.2,0.3-1.8,0.4
	c0.7,0.5,1.5,0.9,2.2,1.4c0.8,0.4,1.6,0.7,2.4,1.1c1.7,0.7,3.5,1.4,4.8,2.8c2.6-5.1,1.3-10.9,0.2-15.6c-0.8,1.4-1.6,2.4-2.5,3.4
	l-0.1,0.1h-0.2h-0.3l-0.1-0.2c-0.2-0.2-0.3-0.2,0.5-3.4c0.4-1.5,0.9-3.3,1.2-4.5c-0.5-1.2-1.2-2.2-2-3.1c-1.8-1.9-4.4-3.4-6.7-4.8
	c-0.1,1.1-0.3,2.2-0.7,3.2l-0.1,0.3h-0.4c-0.3,0-0.6,0-1.6-5c-0.5-0.3-1.1-0.5-1.6-0.8c-0.1,0-0.3-0.1-0.4-0.2
	c-0.5-0.2-1.1-0.5-1.6-0.5C174.8,146.5,174.7,146.5,174.5,146.6z"/>
<path d="M195.5,197.8c-1-7.5-2.6-15-5.5-22c-0.3-0.7-0.7-1.5-1-2.2c0,0.1-0.1,0.1-0.2,0.1c-1.1-0.2-2.2-0.6-3.1-1.2
	c-0.3-0.2,0-0.6,0.3-0.4c0.9,0.5,1.8,0.9,2.8,1.1c-2.1-4.7-4.4-9.2-7-13.7c0,0,0,0,0,0.1c-2.3,0.5-4.5-0.1-6.6-0.7
	c-0.3-0.1-0.1-0.6,0.2-0.5c1.9,0.6,4,1.2,6.1,0.7c-1.5-2.7-3.2-5.3-4.9-8c-0.2-0.2,0.3-0.5,0.4-0.2c2.3,3.5,4.5,7,6.5,10.6
	c0.7-2.1,1-4.2,0.9-6.3c0-0.3,0.5-0.3,0.6,0c0,2.3-0.4,4.5-1.1,6.7c0,0.1,0,0.1-0.1,0.1c0.5,0.8,0.9,1.6,1.3,2.4
	c0.5-1.3,0.8-2.7,0.9-4.2c0-0.3,0.5-0.3,0.5,0c-0.1,1.6-0.4,3.2-1,4.7c-0.1,0-0.1,0-0.1,0.1c1.4,2.6,2.7,5.3,3.9,8
	c0.1,0,0.1,0,0.1,0.1c0.5,0.9,0.9,1.9,1.3,2.9c0.3,0.7,0.5,1.3,0.8,2c0,0.1,0,0.1,0,0.2c2.3,6.3,3.6,12.8,4.5,19.5
	C195.8,197.8,195.7,197.8,195.5,197.8z"/>
<path d="M177.1,156.3c-1.6-0.3-3.1-0.8-4.4-1.6c0-0.2,0-0.4-0.1-0.6c1.4,0.9,2.9,1.5,4.6,1.8C177.6,155.9,177.4,156.4,177.1,156.3z"
	/>
<path class="st4" d="M227,160.3c0,2.1-5,3.1-6.5,3.7c-3.5,1.3-6.8,2.6-9.4,5.3c-3,3.3-5.6,7.1-8.2,10.7c-0.1,0.2-0.4,0.3-0.6,0.3
	c0,0-0.3-0.7-0.7-1.6c-0.9-2.2-2.3-6.2-1.9-8.5c0.2-1.6,0.8-3.2,1.5-4.6c0.2,0.7,0.5,1.4,1,1.9c0.1,0.2,0.4-2.9,0.6-4.2
	c0.2-0.3,0.4-0.6,0.7-0.9c0.5-0.6,1.1-1.1,1.8-1.6c0.1-0.1,0.3-0.2,0.4-0.3c0.5-0.4,1.1-0.8,1.7-1.1c0.1-0.1,0.3-0.2,0.4-0.3
	c0.5-0.3,1.1-0.6,1.7-0.8c0.2,1,0.4,2,0.9,3c0.1,0.2,0.3-2.4,0.4-3.5c0.5-0.2,1.1-0.4,1.6-0.6c0.1,0.7,0.4,1.4,0.7,2
	c0,0.1,0.8-1.6,1-2.4c1.8-0.3,3.6-0.5,5.3-0.4c0.1,0,0.3,0,0.4,0c0.5,0.1,0.9,0.1,1.4,0.2c1.7,0.3,5.7,1.3,5.8,3.6
	C227,160.2,227,160.2,227,160.3z"/>
<path d="M227,160.3c0,2.1-5,3.1-6.5,3.7c-3.5,1.3-6.8,2.6-9.4,5.3c-3,3.3-5.6,7.1-8.2,10.7c-0.1,0.1-0.1,0.1-0.2,0.2
	c-0.6,1.4-0.7,3-0.8,4.6c-0.1,3.1-0.1,6.1,0,9.2c0,0.7,0,1.4,0.1,2.1c-0.2,0.1-0.4,0.1-0.6,0.1c-0.1-1.1-0.1-2.2-0.2-3.3
	c0-3.5-0.2-7,0.3-10.4c0.1-1,0.4-1.9,0.9-2.8c0.2-2.2,1.5-9.7,5.7-13.8C212.9,161.1,220.4,161,227,160.3z"/>
<path d="M207.5,163.9c-0.3-1.5-0.3-3-0.1-4.5c0.1-0.1,0.3-0.2,0.4-0.3c-0.2,1.6-0.2,3.2,0.1,4.7C208,164.1,207.6,164.2,207.5,163.9z
	"/>
<path d="M205.9,164.8c-0.3-1.3-0.5-2.7-0.6-4c0.1-0.1,0.3-0.2,0.4-0.3c0.1,1.4,0.3,2.8,0.6,4.2C206.4,164.9,206,165,205.9,164.8z"/>
<path class="st5" d="M213.3,193c0,1.1-0.1,2.2-0.3,3.2c-0.8,3.8-3,7-6,9.2h-18c-3-2.2-5.2-5.4-6-9.2c-0.2-1-0.3-2.1-0.3-3.2
	c0-1.1,0.1-2.2,0.4-3.3c0.2-0.9,0.5-1.8,0.8-2.6h28.2c0.3,0.8,0.6,1.7,0.8,2.6C213.2,190.8,213.3,191.9,213.3,193z"/>
<path d="M213.3,193c0,1.1-0.1,2.2-0.3,3.2c-0.8,3.8-3,7-6,9.2h-18c23.5,1.2,23.1-18.3,23.1-18.3c0.3,0.8,0.6,1.7,0.8,2.6
	C213.2,190.8,213.3,191.9,213.3,193z"/>
<path class="st6" d="M210.3,42.7c-1.2,2.4-2.8,4.5-4.7,6.3l2.5,5l-7.6,4.6l-3.3-4.5c-2.4,0.8-5,1.2-7.7,1.2l-1.8,5.3l-8.6-2.2
	l0.9-5.5c-2.4-1.2-4.5-2.8-6.3-4.6l-5.1,2.4l-4.5-7.5l4.5-3.4c-0.8-2.4-1.2-5-1.2-7.7l-5.3-1.8l2.1-8.6l5.6,0.9
	c1.2-2.4,2.7-4.5,4.6-6.3l-2.5-5l7.6-4.6l3.3,4.5c2.5-0.8,5.1-1.2,7.7-1.1l1.9-5.4l8.6,2.2l-0.9,5.5c2.4,1.2,4.5,2.8,6.3,4.6l5-2.4
	l4.6,7.6l-4.5,3.3c0.8,2.4,1.2,5,1.1,7.7l5.3,1.8l-2.1,8.6L210.3,42.7z M205.6,36.5c2.2-8.6-3.1-17.3-11.7-19.4
	c-8.6-2.2-17.3,3.1-19.4,11.7c-2.1,8.6,3.1,17.3,11.7,19.4C194.8,50.3,203.5,45.1,205.6,36.5z"/>
<path class="st3" d="M218.7,80.7c-0.5,0.9-1.1,1.8-1.9,2.5l1.1,2.1l-3.1,1.9l-1.4-1.9c-1,0.3-2,0.5-3.1,0.5l-0.8,2.2l-3.5-0.9
	l0.4-2.3c-1-0.5-1.9-1.1-2.6-1.9l-2.1,1l-1.8-3.1l1.8-1.3c-0.3-1-0.5-2.1-0.5-3.2l-2.1-0.7l0.8-3.5l2.3,0.3c0.5-0.9,1.1-1.8,1.9-2.5
	l-1-2.1l3.1-1.9l1.3,1.9c1-0.3,2.1-0.5,3.2-0.5l0.7-2.1l3.5,0.8l-0.3,2.3c0.9,0.5,1.8,1.1,2.5,1.9l2.1-1l1.9,3.1l-1.9,1.3
	c0.3,1,0.5,2.1,0.5,3.2l2.2,0.7L221,81L218.7,80.7z M216.8,78.2c0.9-3.5-1.3-7.1-4.8-7.9c-3.5-0.9-7.1,1.2-7.9,4.7
	c-0.9,3.5,1.3,7.1,4.8,8C212.4,83.8,215.9,81.7,216.8,78.2z"/>
<path class="st1" d="M88.6,155.7c-1.1,2.1-2.5,4-4.2,5.6l2.3,4.6l-6.9,4.2l-3-4.2c-2.2,0.8-4.6,1.2-7,1.1l-1.6,4.8l-7.8-1.9l0.8-5
	c-2.2-1.1-4.1-2.5-5.7-4.2l-4.5,2.2l-4.2-6.8l4.1-3c-0.7-2.2-1.1-4.6-1-7l-4.8-1.6l1.9-7.8l5,0.8c1.1-2.2,2.5-4.1,4.2-5.7l-2.3-4.6
	l6.9-4.1l3,4.1c2.2-0.7,4.6-1.1,7-1.1l1.6-4.8l7.8,2l-0.8,5c2.2,1.1,4.1,2.5,5.7,4.2l4.5-2.3l4.2,6.9l-4.1,3c0.7,2.2,1.1,4.5,1,6.9
	l4.8,1.7l-1.9,7.8L88.6,155.7z M84.4,150c1.9-7.7-2.8-15.6-10.6-17.5c-7.8-1.9-15.6,2.8-17.5,10.6c-2,7.8,2.8,15.6,10.5,17.5
	C74.6,162.5,82.5,157.8,84.4,150z"/>
<path class="st4" d="M111,130.6h3v16h-3V130.6z"/>
<path class="st2" d="M35.2,129.9v-97h154.6v97H35.2z"/>
<path class="st3" d="M190,130.2H35V32.7h155V130.2z M35.5,33.1v96.6h154V33.1H35.5z"/>
<path class="st6" d="M104.5,151.9c0-4.5,3.6-8,8-8c4.4,0,8,3.5,8,8c0,4.4-3.6,8-8,8C108.1,159.9,104.5,156.3,104.5,151.9z
	 M108.1,151.9c0,2.4,2,4.3,4.4,4.3c2.4,0,4.4-1.9,4.4-4.3c0-2.4-2-4.4-4.4-4.4C110.1,147.5,108.1,149.5,108.1,151.9z"/>
<path d="M193.4,29.3v5.8c0,0.9-0.7,1.6-1.6,1.6H33.2c-0.9,0-1.7-0.7-1.7-1.6v-5.8c0-0.9,0.8-1.6,1.7-1.6h158.6
	C192.7,27.7,193.4,28.4,193.4,29.3z"/>
<path d="M193.4,126.8v5.8c0,0.9-0.7,1.6-1.6,1.6H33.2c-0.9,0-1.7-0.7-1.7-1.6v-5.8c0-0.9,0.8-1.6,1.7-1.6h158.6
	C192.7,125.2,193.4,125.9,193.4,126.8z"/>
<path d="M151.3,113.8h-74V47.9H78v65.2h73.3V113.8z"/>
<path d="M80.5,55.3h-5.8v-0.7h5.8V55.3z"/>
<path d="M80.5,73.2h-5.8v-0.7h5.8V73.2z"/>
<path d="M80.5,91.1h-5.8v-0.6h5.8V91.1z"/>
<path d="M97.2,116.3h-0.7v-5.8h0.7V116.3z"/>
<path d="M118.2,116.3h-0.6v-5.8h0.6V116.3z"/>
<path d="M139.3,116.3h-0.7v-5.8h0.7V116.3z"/>
<path d="M100.5,63.5V65h-15v-1.5H100.5z"/>
<path d="M117.3,67.9v1.5H85.5v-1.5H117.3z"/>
<path d="M110.7,72.3l-0.1,1.4H85.5v-1.4H110.7z"/>
<path d="M102.1,63.5h4.6V65h-4.6V63.5z"/>
<path d="M82.8,106.1c0,0,0.8,0.1,2.2,0C84.3,106.1,83.6,106.1,82.8,106.1z"/>
<path d="M137.6,63.3c-0.7,2.3-1.5,4.5-2.4,6.6l-0.5,1.1c-0.2,0.4-0.4,0.8-0.5,1.1c-0.2,0.4-0.4,0.8-0.5,1.1l-0.6,1.1l-0.2,0.6
	l-0.3,0.5l-0.6,1.1c-0.2,0.3-0.4,0.7-0.6,1.1c-0.2,0.3-0.4,0.7-0.6,1c-3.4,5.7-7.7,10.9-12.8,15.1c-2.6,2.1-5.3,4-8.1,5.6
	c-2.9,1.5-5.8,2.8-8.9,3.9c-1.5,0.5-3,0.9-4.5,1.3c-1.5,0.4-3.1,0.7-4.6,0.9c-1.5,0.3-3,0.5-4.5,0.6c-0.8,0.1-1.6,0.1-2.4,0.1
	c5-0.2,17.5-2.1,30.8-14.9c4.4-4.2,8-9.2,10.7-14.5c2.2-4.4,3.9-9,5.1-13.8l-6.3-0.4l12.4-15.7l6.3,17L137.6,63.3z"/>
<path class="st7" d="M84.7,106.2c0,0,0.8,0.1,2.2,0C86.2,106.2,85.5,106.2,84.7,106.2z"/>
<path class="st5" d="M139.5,63.5c-0.7,2.2-1.6,4.4-2.5,6.5l-0.4,1.1c-0.2,0.4-0.4,0.8-0.5,1.1c-0.2,0.4-0.4,0.8-0.6,1.1l-0.5,1.1
	l-0.3,0.6l-0.3,0.5l-0.5,1.1c-0.2,0.4-0.4,0.8-0.6,1.1c-0.2,0.3-0.4,0.7-0.7,1.1c-3.3,5.6-7.6,10.8-12.7,15c-2.6,2.1-5.3,4-8.2,5.6
	c-2.9,1.5-5.8,2.8-8.8,3.9c-1.5,0.5-3,0.9-4.5,1.3c-1.5,0.4-3.1,0.7-4.6,1c-1.5,0.2-3.1,0.4-4.6,0.5c-0.7,0.1-1.5,0.1-2.3,0.1
	c4.9-0.2,17.5-2.1,30.8-14.9c4.4-4.2,8-9.1,10.7-14.5c2.2-4.4,3.8-9,5-13.7l-6.2-0.5L139.6,47l6.2,16.9L139.5,63.5z"/>
<path d="M137.7,46.8l1.9,0.2l-1.3,1.5L137.7,46.8z"/>
<path d="M170.4,48.1v1.4h-12.6v-1.4H170.4z"/>
<path d="M184.5,52.5v1.4h-26.7v-1.4H184.5z"/>
<path d="M178.9,56.8v1.5h-21.1v-1.5H178.9z"/>
<path d="M171.7,48.1h3.9v1.4h-3.9V48.1z"/>
<path d="M170.4,66.5V68h-12.6v-1.5H170.4z"/>
<path d="M184.5,70.9v1.4h-26.7v-1.4H184.5z"/>
<path d="M178.9,75.3v1.4h-21.1v-1.4H178.9z"/>
<path d="M171.7,66.5h3.9V68h-3.9V66.5z"/>
<path d="M170.4,84.9v1.5h-12.6v-1.5H170.4z"/>
<path d="M184.5,89.3v1.5h-26.7v-1.5H184.5z"/>
<path d="M178.9,93.7v1.5h-21.1v-1.5H178.9z"/>
<path d="M171.7,84.9h3.9v1.5h-3.9V84.9z"/>
<path d="M170.4,103.4v1.4h-12.6v-1.4H170.4z"/>
<path d="M184.5,107.7v1.5h-26.7v-1.5H184.5z"/>
<path d="M178.9,112.1v1.5h-21.1v-1.5H178.9z"/>
<path d="M171.7,103.4h3.9v1.4h-3.9V103.4z"/>
<path d="M54.1,48.1v1.4H41.5v-1.4H54.1z"/>
<path d="M68.3,52.5v1.4H41.5v-1.4H68.3z"/>
<path d="M62.7,56.8v1.5H41.5v-1.5H62.7z"/>
<path d="M55.5,48.1h3.8v1.4h-3.9L55.5,48.1z"/>
<path d="M54.1,66.5V68H41.5v-1.5H54.1z"/>
<path d="M68.3,70.9v1.4H41.5v-1.4H68.3z"/>
<path d="M62.7,75.3v1.4H41.5v-1.4H62.7z"/>
<path d="M55.5,66.5h3.8V68h-3.9L55.5,66.5z"/>
<path d="M54.1,84.9v1.5H41.5v-1.5H54.1z"/>
<path d="M68.3,89.3v1.5H41.5v-1.5H68.3z"/>
<path d="M62.7,93.7v1.5H41.5v-1.5H62.7z"/>
<path d="M55.5,84.9h3.8v1.5h-3.9L55.5,84.9z"/>
<path d="M54.1,103.4v1.4H41.5v-1.4H54.1z"/>
<path d="M68.3,107.7v1.5H41.5v-1.5H68.3z"/>
<path d="M62.7,112.1v1.5H41.5v-1.5H62.7z"/>
<path d="M55.5,103.4h3.8v1.4h-3.9L55.5,103.4z"/>
<path class="st2" d="M77.3,112.4c-1.2-0.4-2.9-0.8-4.9-1.2c-4.6-1.1-11-2.5-15.7-5.8c-7.6-5.3-13.8-24-13.1-27
	c0.2-1,0.1-1.5-0.1-1.7c-0.1-0.2-0.2-0.2-0.2-0.2h-0.4l0.2-0.3c0.2-0.5,5.8-10.8,9.1-10.8c0.5,0,0.9,0.2,1.2,0.6
	c1.6,1.6,3.2,6.6,5.3,12.9c1.5,4.4,3.2,9.4,5.1,14.1c2.3,5.7,8.7,10.2,12.9,13.2c2.4,1.8,3.6,2.7,3.7,3.3c0,0.1-0.1,0.3-0.2,0.4
	c-0.1,0.1-0.3,0.3-0.5,0.6c-0.6,0.7-1.3,1.5-2.2,1.9l-0.1,0.1L77.3,112.4z"/>
<path class="st3" d="M52.2,65.7c0.4,0,0.7,0.1,1,0.4c2.6,2.7,5.7,15.6,10.4,27c3.7,9.1,17.7,15.4,16.4,16.6c-0.5,0.6-1.5,2-2.6,2.5
	c-4.3-1.5-13.9-2.3-20.6-7c-7.4-5.2-13.7-23.6-13-26.8c0.5-2-0.5-2.1-0.5-2.1S49,65.7,52.2,65.7z M52.2,65.2
	c-3.4,0-8.7,9.7-9.3,10.8l-0.4,0.8h0.7c0.1,0,0.4,0.4,0.1,1.5c-0.8,3.6,5.8,22.1,13.2,27.3c4.8,3.4,11.2,4.8,15.8,5.8
	c2,0.5,3.7,0.8,4.9,1.3h0.2h0.2c0.9-0.5,1.7-1.4,2.3-2c0.2-0.3,0.4-0.5,0.5-0.6c0.1-0.2,0.2-0.4,0.2-0.6c-0.1-0.8-1.1-1.6-3.8-3.5
	c-4.2-2.9-10.5-7.5-12.8-13.1c-1.9-4.7-3.6-9.7-5-14.1c-2.1-6.3-3.8-11.4-5.4-13C53.2,65.4,52.8,65.2,52.2,65.2z"/>
<path class="st2" d="M49.2,200.1c-1.3,0-2.1-0.1-2.2-0.3c-0.4-0.3-0.3-3.6-0.1-5c0.5-0.1,2.4-0.4,4-0.4c1.4,0,1.6,0.2,1.6,0.2
	c0.4,0.5,0.2,3.5,0.1,4.9C52.6,199.7,51.4,200.1,49.2,200.1z"/>
<path class="st3" d="M52.7,194.5c0.5,0.6,0.2,4.2,0.1,5c0,0.6-1.9,0.8-3.6,0.8c-1.2,0-2.2-0.1-2.4-0.3c-0.5-0.5-0.3-4.3-0.1-5.3
	c0-0.2,2.4-0.5,4.2-0.5C51.8,194.2,52.5,194.3,52.7,194.5z M47.2,195c-0.2,1.3-0.3,4.1,0,4.7c0.2,0,0.8,0.1,2,0.1
	c1.8,0,2.9-0.2,3.1-0.4c0.2-1.5,0.3-4.1,0-4.6c-0.1,0-0.4-0.1-1.4-0.1C49.4,194.7,47.7,194.9,47.2,195z"/>
<path d="M52.7,199.8c0-0.1,3.4-0.2,6.8,0.2c3.3,0.5,3.2,5.3,3.2,5.3c-3.9,0.6-17,0-17,0c-1.8-2.8,0.7-6.4,0.7-6.4
	c2.5,2.6,6.3,0.8,6.3,0.8V199.8z"/>
<path class="st2" d="M20.3,200.1c-1.3,0-2.1-0.1-2.2-0.3c-0.4-0.3-0.3-3.6-0.1-5c0.4-0.1,2.4-0.4,4-0.4c1.4,0,1.6,0.2,1.6,0.2
	c0.3,0.5,0.2,3.5,0.1,4.9C23.6,199.7,22.5,200.1,20.3,200.1z"/>
<path class="st3" d="M23.8,194.5c0.5,0.6,0.2,4.2,0.1,5c0,0.6-2,0.8-3.6,0.8c-1.2,0-2.2-0.1-2.4-0.3c-0.5-0.5-0.3-4.3-0.1-5.3
	c0-0.2,2.4-0.5,4.2-0.5C22.9,194.2,23.6,194.3,23.8,194.5z M18.2,195c-0.1,1.3-0.2,4.1,0,4.7c0.2,0,0.9,0.1,2.1,0.1
	c1.8,0,2.9-0.2,3.1-0.4c0.2-1.5,0.2-4.1,0-4.6c-0.1,0-0.4-0.1-1.4-0.1C20.5,194.7,18.8,194.9,18.2,195z"/>
<path d="M23.8,199.8c0-0.1,3.3-0.2,6.7,0.2c3.4,0.5,3.3,5.3,3.3,5.3c-3.9,0.6-17,0-17,0c-1.8-2.8,0.7-6.4,0.7-6.4
	c2.5,2.6,6.3,0.8,6.3,0.8V199.8z"/>
<path d="M60.8,150.4c0,11.7-4.4,36.3-7.4,46.9h-7.7c0-0.1-0.1-12.2,0-16.9c0-8.5-2.4-22.5-3-30.2c-0.3-4.2-0.2-14.5-2.8-21.3
	c-0.5-1.3-1-2.5-1.4-3.6c-1.6-4.3-2.6-7.6-1.9-8.3c1.9-2.2,18.2-18.2,22.3-9.4C63.2,116.9,60.8,138.7,60.8,150.4z"/>
<path d="M49.7,197.3c-2.1,0.1-3.2,0-4,0c0-0.1,0.8-7.8-0.6-19.1c-3.7-29.4-6.2-51.8-6.6-52.9c0.9-1.8,2.2-3.6,4.3-3.6
	c1.7,0,2.9,1.1,3.2,2.7c0.6,3-0.7,6.7-0.7,9.8c0.1,4.3,1,8.5,1.8,12.8c0.8,3.6,1.5,7.3,1.6,11c0.2,4.4-0.4,8.7-0.3,13
	C48.5,178.6,51.4,189.6,49.7,197.3z"/>
<path d="M17.6,179.6c0.3-3.8,0.2-14.5,0.3-18.2c0.1-3.6,0-7.1-0.1-10.2c0-1.1,0-2.1,0-3.1c0.1-16.4-0.9-23.2,4.2-35.6
	c0.1-0.2,0.1-0.4,0.2-0.6c0.8-2,1.9-4.1,3.3-6.3c0.4-0.7,1.3-1,2.6-0.8c3.2,0.4,8.4,3.2,12.7,8.1c0.3,0.3,0.5,0.5,0.7,0.7
	c0,0.1,0,0.5-0.1,1.2c0,1.5-0.4,4.2-1,7.9c-0.3,1.5-0.5,8.4-0.8,10.2c-1.4,7.6-3.2,12.3-4.3,22.2c-1.4,11.6-7.6,30.2-10.6,42.6h-3.9
	H17C16.7,195.7,17,186.2,17.6,179.6z"/>
<path class="st2" d="M29.3,118.4c-1.1,0-2.1,0-3,0c-3.7-0.2-5.8-0.7-6.2-1.4c-0.3-0.7-0.2-3.6,0.1-8.7c0.2-4.3,0.4-9.7,0.3-14.2
	c-0.1-1.5-0.1-2.9-0.1-4.4c-0.1-8.3,0.4-18.5,2.8-20.4c0.4-0.3,0.9-0.7,1.6-1.2c1-0.7,2-1.3,3.1-1.9c2.1-1.1,4.3-1.9,6.5-2.5
	c2.3-0.6,4.6-0.9,6.9-0.9c2.1,0,4.1,0.2,6.1,0.7l0.2,0.1c1.2,0.3,2.3,0.6,3.4,1c0.2,0.1,0.4,0.2,0.6,0.3h0.3c4,1.7,3.6,9.8,2.9,18.1
	l-0.1,1c-0.2,3.1-0.5,5.7-0.4,7.4c0.1,0.8,0.2,1.4,0.3,1.9c0.5,2.9,2.4,7.2,4,11c1.4,3.2,2.8,6.3,3.1,8.2v0.1
	c-0.3,0.9-17.4,4.5-20.2,4.9C37.9,118.1,33.4,118.4,29.3,118.4z"/>
<path class="st3" d="M47.5,63.3l0.3,0.1c1.1,0.3,2.2,0.6,3.3,1c0.2,0.1,0.4,0.1,0.6,0.2l0.3,0.1c4.2,1.7,3.8,10,3.1,18.3L55,84.1
	c-0.3,3-0.5,5.6-0.4,7.3c0,0.7,0.1,1.3,0.2,1.9c0.5,2.9,2.4,7.1,4,10.9c1.5,3.3,2.8,6.3,3.2,8.2v0.1l-0.1,0.1
	c-0.1,0.4-0.2,0.7-8.6,2.7c-4.7,1.1-9.5,2.1-11.7,2.5c-3.7,0.6-8.2,0.9-12.3,0.9c-1.1,0-2.1,0-3-0.1c-5.8-0.3-6.2-1.2-6.4-1.5
	c-0.4-0.8-0.3-3.6,0-8.8c0.2-4.3,0.5-9.7,0.4-14.2c-0.1-1.4-0.1-2.8-0.1-4.4C20.1,81.3,20.5,71,23,69.1c0.5-0.3,1-0.7,1.7-1.2
	c1-0.7,2-1.3,3.1-1.9c2.1-1.1,4.3-1.9,6.6-2.5c2.3-0.6,4.6-0.9,6.9-0.9C43.4,62.6,45.5,62.8,47.5,63.3z M34.5,64
	c-2.4,0.6-4.6,1.5-6.4,2.5c-1.2,0.6-2.3,1.2-3.2,1.8c-0.6,0.4-1.1,0.8-1.6,1.2c-2.1,1.6-2.7,10.7-2.6,20.2c0,1.5,0,2.9,0.1,4.4
	c0.2,9-1.1,21.4-0.5,22.8c0.4,0.6,2.7,1.1,6,1.2c0.9,0.1,1.9,0.1,3,0.1c3.8,0,8.3-0.3,12.2-0.9c4.6-0.7,19.8-4.2,20-4.8
	c-0.7-4-6.3-13.7-7.2-19.1c-0.1-0.7-0.1-1.3-0.2-2c-0.1-1.9,0.2-5,0.5-8.4c0.6-7.4,1.2-16.2-2.8-17.8c-0.3-0.1-0.6-0.2-0.9-0.3
	c-1.2-0.5-2.4-0.8-3.5-1.1c-0.1,0-0.1,0-0.1,0c-2-0.5-4.1-0.7-6-0.7C38.9,63.1,36.6,63.4,34.5,64z"/>
<path d="M28.3,70.6c0.1,0.1,3.3,3.5,2.1,9.4c-1,4.9-3.3,8.8-4.3,13.7c-1,4.8-0.5,9.5-0.1,14.3c0.2,2.2,0.4,4.4,0.6,6.7
	c0.1,1.2,0.3,2.4-0.3,3.4c-3.3-0.1-5.6-0.6-6-1.2c-0.6-1.4,0.7-13.8,0.5-22.8c-0.1-1.5-0.1-2.9-0.1-4.4c0.2-0.5,0.4-0.9,0.7-1.4
	c2.2-3.6,2.6-12.3,5.2-15.6C27,72.1,28.7,70,28.3,70.6z"/>
<path class="st8" d="M37.8,63.1l1-0.2l3.2,1.3c0-0.4,0.1-1,0.6-1.2c0.1-0.1,0.4-0.2,0.7-0.2c0.7,0,1.6,0.3,1.6,0.3H45l3,4.8
	l-4.2-2.5L40,68.3L37.8,63.1z"/>
<path class="st9" d="M45,62.8l0.2,0.1l0.1,0.2l2.3,3.8l1.1,1.8l-1.8-1.1l-3.1-1.9l-3.4,2.6l-0.5,0.4l-0.2-0.6l-2-4.6l-0.2-0.6
	l0.6-0.1l0.6-0.1h0.2H39l2.8,1.2c0-0.5,0.2-1,0.7-1.2c0.2-0.1,0.5-0.1,0.8-0.1C44.1,62.6,45,62.8,45,62.8z M42.7,63.2
	c-0.7,0.3-0.3,1.4-0.3,1.4l-3.6-1.4l-0.6,0.1l1.9,4.6l3.7-2.8l3.4,2.1l-2.3-3.9c0,0-0.9-0.2-1.6-0.2C43.1,63.1,42.9,63.1,42.7,63.2z
	"/>
<path class="st2" d="M43.3,64.9c-1.7,0-3.8-1.5-4.3-1.8v-5.5l4.5,1.8v3.9h0.1c0.2,0.4,0.5,1.1,0.3,1.4c0,0.1,0,0.1-0.2,0.2
	C43.6,64.9,43.5,64.9,43.3,64.9z"/>
<path class="st3" d="M43.8,59.3v3.9c0,0,0.9,1.7,0,1.9c-0.2,0.1-0.4,0.1-0.5,0.1c-2,0-4.5-2-4.5-2v-6L43.8,59.3z M39.3,63
	c0.6,0.4,2.5,1.7,4,1.7c0.1,0,0.3,0,0.4-0.1c0.1-0.1-0.1-0.7-0.4-1.1v-0.1v-3.8l-4-1.6V63z"/>
<path class="st2" d="M41.8,60.2c-1.2,0-2.4-0.5-3.5-1.5c-3-3.1-2.4-7.6-2.3-8.5l7.9-0.4c0.3,0.7,1.7,4.1,2,7.1
	c0,0.6-0.2,1.3-0.8,1.9C44.3,59.7,43.1,60.2,41.8,60.2z"/>
<path class="st3" d="M46.1,56.9c0.2,1.6-1.9,3.6-4.3,3.6c-1.2,0-2.5-0.5-3.6-1.7c-3.6-3.6-2.4-8.9-2.4-8.9l8.3-0.4
	C44.1,49.5,45.8,53.4,46.1,56.9z M36.2,50.4c-0.2,1.2-0.5,5.2,2.3,8.1c1,1,2.1,1.5,3.3,1.5s2.4-0.5,3.1-1.4c0.5-0.5,0.8-1.2,0.7-1.7
	c-0.2-2.8-1.4-5.9-1.8-6.8L36.2,50.4z"/>
<path d="M46.3,48.8c-1.6,2.7-5.9,3-9.1,3.1c0.1,0.3,0.1,0.7,0.1,0.9c0.2,1.2,0.9,2.7,0.5,3.9c-0.3,0.8-1.1,1.2-1.9,1
	c-0.6-0.2-0.8-0.6-0.9-1c-1.4-2-1.7-5.7-0.4-7.6c0.9-1.2,2.1-1.6,3.5-1.9c1.1-0.2,2-0.4,2.9-1c0.6-0.4,1-0.8,1.7-0.9
	C45.3,44.6,48,46.1,46.3,48.8z"/>
<path class="st5" d="M45.6,66.2L45,67.8l-1.4,0.1l-1.4-1.6l1.6-1.2L45.6,66.2z"/>
<path class="st5" d="M45,67.8c0,0,3.8,8.8,2.7,18.6L45,89.3l-2-2.4c0,0,2-12.7,0.6-19L45,67.8z"/>
<path class="st2" d="M80.9,114.5c-1,0-2.1-0.8-3.3-2.5c-0.7-1.5,0.5-2.7,0.7-2.9c0.1-0.1,0.4-0.1,0.7-0.1l0.2-0.1v-0.2
	c0-0.1,0-0.4,1.3-0.8c0.1,0,0.3,0,0.4,0c0.8,0,1.8,0.4,2,0.7c0.1,0.2,0.1,0.3,0,0.4c-0.1,0.1-0.2,0.1-0.3,0.1c-0.1,0-0.1,0-0.2-0.1
	c-0.3-0.1-0.7-0.2-0.8-0.2H80l1.5,0.5c0.6,0.2,1.2,0.5,1.7,0.8c0.5,0.2,0.9,1.2,0.9,1.4c-0.1,0.1-0.1,0.1-0.1,0.1
	c-0.2,0-0.2-0.1-0.3-0.2c-0.1-0.4-0.6-0.8-1-0.8c-0.1,0-0.2,0-0.3,0c-0.1,0.1-0.2,0.4-0.6,2c-0.2,0.6-0.4,1.5-0.5,1.9
	C81.2,114.5,81.1,114.5,80.9,114.5z"/>
<path class="st3" d="M83.1,108.4c0.1,0.3,0.2,0.5-0.1,0.8c-0.1,0.1-0.2,0.1-0.4,0.1c-0.1,0-0.3,0-0.4-0.1c-0.1-0.1-0.4-0.1-0.6-0.1
	c-0.1,0-0.1,0-0.1,0c0.6,0.2,1.2,0.5,1.9,0.8c0.5,0.2,1,1.3,0.9,1.6c0,0.2-0.1,0.4-0.3,0.4c-0.1,0-0.1,0-0.1,0
	c-0.2,0-0.4-0.2-0.4-0.4c-0.1-0.3-0.6-0.7-0.8-0.7c-0.1,0-0.1,0-0.1,0c-0.3,0.2-1,4-1.2,4c-0.1,0-0.1,0-0.1-0.1
	c-0.1,0.1-0.3,0.1-0.4,0.1c-1,0-2.1-0.7-3.5-2.6c-0.8-1.7,0.4-3.1,0.7-3.3c0.2-0.1,0.5-0.2,0.8-0.2c0-0.3,0.4-0.7,1.5-1
	c0.1-0.1,0.3-0.1,0.5-0.1C81.7,107.6,82.9,108.1,83.1,108.4z M79.5,109.2H79c-0.4,0-0.5,0.1-0.6,0.2c-0.2,0.1-1.2,1.2-0.6,2.5
	c1.2,1.6,2.2,2.4,3.1,2.4c0.1,0,0.1,0,0.2-0.1c0.1-0.4,0.3-1.1,0.4-1.6c0.5-1.8,0.5-2,0.8-2.2c0.1-0.1,0.3-0.1,0.4-0.1
	c0.2,0,0.5,0.1,0.8,0.4c-0.1-0.2-0.3-0.3-0.4-0.4c-0.5-0.3-1.1-0.6-1.7-0.7l-1.9-0.7V109.2z M80.6,108.2c-0.6,0.2-0.9,0.4-1.1,0.5
	l2-0.1c0.2,0,0.6,0.1,0.9,0.2c0.1,0.1,0.1,0.1,0.2,0.1c0.1,0,0.1,0,0.1-0.1c0,0,0,0-0.1,0c-0.1-0.2-1-0.6-1.7-0.6
	C80.8,108.2,80.7,108.2,80.6,108.2z"/>
<path class="st2" d="M81.9,115.3c-0.1,0-0.3-0.1-0.5-0.2c-0.4-0.2-0.6-0.6-0.6-0.9c0-0.3,0.1-0.5,0.4-0.6l0.3-0.1l-0.2-0.3
	c-0.1-0.1-0.2-0.2-0.2-0.3c-0.1-0.1-0.1-0.3-0.1-0.4c0.1-0.1,0.2-0.2,0.4-0.2H82l-0.3-0.4c-0.1-0.1-0.1-0.2-0.1-0.3
	c0.1-0.1,0.1-0.2,0.2-0.3c0.3-0.1,0.5-0.2,0.8-0.2h0.6l-0.4-0.5h-0.1l-0.1-0.1c-0.3-0.1-0.6-0.3-0.8-0.5c0-0.1,0-0.3,0.1-0.4
	c0,0,0.1,0,0.2,0c0.4,0,1,0.2,1.4,0.5c0.6,0.3,0.8,0.7,0.6,1.3c-0.1,0.3-0.2,0.5-0.5,0.6l-0.3,0.1l0.1,0.2c0.2,0.5,0.2,1-0.2,1.3
	h-0.3l-0.1,0.2c0,0.1,0,0.3-0.1,0.4c0,0.1,0,0.1-0.1,0.2l-0.1,0.1v0.1C82.2,115.1,82.1,115.3,81.9,115.3z"/>
<path class="st3" d="M83.7,109.9c0.5,0.3,0.8,0.8,0.7,1.5c-0.1,0.4-0.4,0.7-0.7,0.8c0,0.1,0,0.1,0,0.1c0.2,0.5,0.1,1.2-0.4,1.5
	c-0.1,0-0.1,0-0.2,0c0,0.2-0.1,0.4-0.2,0.5c-0.1,0.1-0.1,0.2-0.2,0.3c0,0,0,0,0,0.1c-0.3,0.6-0.5,0.9-0.8,0.9
	c-0.1,0-0.3-0.1-0.6-0.2c-0.8-0.5-1.2-1.6-0.2-2c-0.1-0.1-0.2-0.3-0.3-0.4c-0.2-0.4,0.1-0.9,0.6-1c0.1,0,0.1,0,0.1,0
	c-0.2-0.2-0.2-0.7,0.2-0.9c0.3-0.2,0.6-0.3,0.9-0.3c-0.6-0.2-1.3-0.7-1-1.3c0.1-0.1,0.3-0.2,0.5-0.2
	C82.6,109.3,83.2,109.6,83.7,109.9z M82.1,109.8C82.1,109.9,82.1,109.9,82.1,109.8c0,0.3,0.3,0.4,0.6,0.5c0.1,0,0.2,0.1,0.3,0.1
	l0.8,0.9h-1.2c-0.3,0-0.5,0.1-0.6,0.2c-0.1,0-0.1,0-0.1,0.1c0,0.1,0,0.1,0,0.1l0.7,0.8h-1c-0.1,0-0.1,0-0.2,0
	c-0.1,0.1-0.1,0.1-0.1,0.1c-0.1,0.1-0.1,0.1,0,0.2c0,0.1,0,0.1,0.1,0.2l0.1,0.1l0.4,0.5l-0.6,0.2c-0.2,0.1-0.3,0.3-0.3,0.4
	c0,0.2,0.2,0.6,0.5,0.7c0.2,0.1,0.3,0.2,0.4,0.2c0.1-0.1,0.2-0.4,0.3-0.6c0.1-0.1,0.1-0.1,0.1-0.1v-0.1h0.1c0.1-0.1,0.1-0.1,0.1-0.2
	c0.1-0.1,0.1-0.2,0.1-0.3l0.1-0.4H83l0.1-0.1c0.2-0.1,0.2-0.6,0.1-0.8v-0.1L83,112l0.5-0.2c0.2-0.1,0.3-0.3,0.4-0.5
	c0.1-0.4,0-0.7-0.5-1C83,110,82.4,109.8,82.1,109.8z"/>
<path class="st3" d="M11.5,106.2l19.9-22.8c1.3-1.5,3.6-1.7,5.1-0.4l4,3.5c1.6-1.9,4.4-2.1,6.3-0.5c1.9,1.7,2,4.5,0.4,6.4l4,3.5
	c1.5,1.3,1.7,3.5,0.4,5.1l-19.9,22.7c-1.3,1.6-3.6,1.7-5.1,0.4l-14.7-12.8C10.4,109.9,10.2,107.7,11.5,106.2z M46,91.3
	c1.1-1.2,1-3-0.3-4.1c-1.2-1-3-0.9-4,0.3L46,91.3z"/>
<path class="st8" d="M27,121.3l-12.4-10.8c-1.2-1.1-1.4-3-0.3-4.3l17.8-20.4c1.1-1.3,3-1.4,4.3-0.3l12.3,10.8c1.3,1.1,1.4,3,0.3,4.3
	L31.3,121C30.2,122.2,28.2,122.4,27,121.3z"/>
<path class="st9" d="M29,122.2c-0.8,0-1.5-0.3-2.1-0.8l-12.4-10.8c-1.3-1.1-1.5-3.2-0.3-4.5L32,85.7c0.5-0.6,1.3-1,2.2-1.1
	c0.8,0,1.6,0.2,2.3,0.8l12.4,10.8c0.6,0.5,1,1.3,1,2.1c0.1,0.9-0.2,1.7-0.7,2.4l-17.8,20.4c-0.6,0.6-1.4,1-2.2,1.1
	C29.2,122.2,29.1,122.2,29,122.2z M34.4,84.9c-0.1,0-0.1,0-0.2,0c-0.8,0.1-1.5,0.4-2,1l-17.8,20.4c-0.5,0.6-0.7,1.3-0.7,2.1
	c0.1,0.8,0.4,1.5,1,2l12.4,10.7c0.6,0.5,1.3,0.8,2.1,0.7c0.7,0,1.4-0.4,1.9-0.9l17.8-20.4c0.5-0.6,0.8-1.4,0.7-2.1
	c0-0.8-0.4-1.5-1-2L36.3,85.6C35.7,85.2,35.1,84.9,34.4,84.9z"/>
<path class="st5" d="M44.3,94.3l-5.4-4.7c-0.6-0.5-0.7-1.3-0.2-1.9l1.4-1.5l7.4,6.5l-1.3,1.5C45.7,94.8,44.9,94.8,44.3,94.3z"/>
<path class="st4" d="M45.7,102c-0.3,0-0.5-0.1-0.7-0.2L31.7,90.2c-0.4-0.3-0.4-1-0.1-1.4c0.4-0.4,1.1-0.5,1.5-0.1l13.3,11.5
	c0.4,0.4,0.4,1.1,0.1,1.5C46.3,101.9,46,102.1,45.7,102z"/>
<path class="st4" d="M43.7,104.3c-0.3,0-0.5-0.1-0.7-0.2L29.7,92.5c-0.4-0.3-0.4-1-0.1-1.4c0.4-0.5,1.1-0.5,1.5-0.1l13.3,11.5
	c0.4,0.4,0.4,1.1,0.1,1.5C44.3,104.2,44,104.3,43.7,104.3z"/>
<path class="st4" d="M39.7,108.9c-0.3,0-0.5-0.1-0.7-0.2L25.8,97.1c-0.5-0.4-0.5-1-0.1-1.4c0.3-0.5,1-0.5,1.4-0.1l13.3,11.5
	c0.4,0.4,0.5,1,0.1,1.5C40.3,108.8,40,108.9,39.7,108.9z"/>
<path class="st4" d="M37.7,111.2c-0.3,0-0.5-0.1-0.7-0.2L23.8,99.4c-0.5-0.4-0.5-1-0.1-1.5c0.3-0.4,1-0.4,1.4-0.1l13.3,11.6
	c0.4,0.4,0.5,1,0.1,1.5C38.3,111.1,38,111.2,37.7,111.2z"/>
<path class="st4" d="M35.7,113.5c-0.3,0-0.5-0.1-0.7-0.3l-13.2-11.5c-0.5-0.4-0.5-1-0.1-1.5c0.3-0.4,1-0.4,1.4-0.1l13.3,11.6
	c0.4,0.4,0.5,1,0.1,1.4C36.3,113.4,36,113.5,35.7,113.5z"/>
<path class="st4" d="M29.7,120.4c-0.2,0-0.4-0.1-0.6-0.3l-13.3-11.5c-0.4-0.4-0.5-1.1-0.1-1.5c0.4-0.4,1-0.5,1.4-0.1l13.3,11.6
	c0.4,0.3,0.5,1,0.1,1.4C30.3,120.3,30,120.4,29.7,120.4z"/>
<path class="st2" d="M38.2,118.9c-0.8,0-1.8-0.5-2.9-1.6c-1.1-1-1.4-2.3-0.7-3.6c0.1-0.1,0.2-0.3,0.3-0.5l0.2-0.2l-0.3-0.1
	c0,0,0-0.1,0-0.4c0.1-0.8,0.5-1.6,0.7-1.6h0.1c0.9-0.6,2.8-1.3,3.9-1.3c0.1,0,0.1,0,0.2,0c0.9,0.1,1.7,0.7,2.4,1.7
	c0.1,0.2,0.1,0.4,0,0.5c-0.1,0.2-0.3,0.3-0.5,0.3c-0.1,0-0.1,0-0.2-0.1c-0.5-0.3-1.1-0.7-1.8-0.7c0,0,0,0-0.1,0
	c-0.1,0-0.3,0-0.4,0.1l-0.5,0.2l0.6,0.3c0.9,0.4,2.4,1,2.6,1.8c0.1,0.3,0,0.5-0.1,0.7c-0.1,0.1-0.1,0.1-0.2,0.2l-0.2,0.2l0.1,0.1
	c0.2,0.4,0.2,0.8,0.1,1.1c-0.1,0.3-0.4,0.4-0.8,0.4h-0.2l-0.2,0.2v0.2c-0.1,0.5-0.5,0.7-1,0.8l-0.3,0.1l0.1,0.3
	c0.1,0.3,0,0.6-0.3,0.8C38.6,118.9,38.4,118.9,38.2,118.9z"/>
<path class="st3" d="M39.7,109.4c1.2,0.1,2,0.8,2.6,1.8c0.3,0.5-0.2,1.1-0.7,1.1c-0.1,0-0.3,0-0.4-0.1c-0.4-0.3-1-0.7-1.6-0.7
	c0,0,0,0-0.1,0c-0.1,0-0.2,0-0.3,0.1c1.3,0.6,3.6,1.6,2.7,2.9c-0.1,0.1-0.2,0.2-0.3,0.3c0.2,0.5,0.3,0.9,0.1,1.3
	c-0.2,0.4-0.6,0.6-1,0.6c-0.1,0-0.1,0-0.1,0c0,0.1,0,0.1,0,0.2c-0.2,0.6-0.7,0.9-1.3,1c0.2,0.4,0.1,0.8-0.4,1.1
	c-0.2,0.1-0.4,0.2-0.7,0.2c-1.1,0-2.4-1.1-3.1-1.7c-1.1-1-1.5-2.5-0.8-3.9c0.1-0.1,0.3-0.3,0.4-0.5c-0.5-0.3,0.3-2.5,0.8-2.5
	c0.9-0.5,2.8-1.2,4-1.2C39.6,109.4,39.7,109.4,39.7,109.4z M35.7,111.1l-0.1,0.1v-0.1c-0.3,0.3-0.6,1.3-0.6,1.6l0.4,0.3l-0.3,0.4
	c-0.1,0.1-0.2,0.3-0.3,0.5c-0.9,1.5,0.2,2.8,0.7,3.2c1,1,2,1.6,2.7,1.6c0.1,0,0.3,0,0.4-0.1c0.3-0.2,0.3-0.4,0.2-0.6l-0.1-0.5
	l0.5-0.1c0.7-0.1,0.8-0.4,0.9-0.6c0-0.1,0-0.1,0-0.2l0.1-0.4h0.4h0.1c0.4,0,0.5-0.2,0.6-0.3c0-0.2,0.1-0.4-0.1-0.8l-0.2-0.4l0.3-0.3
	c0.1,0,0.1,0,0.2-0.1c0.1-0.3,0.1-0.4,0.1-0.5c-0.2-0.7-1.7-1.3-2.5-1.7L39,112l-1-0.5l1.1-0.4c0.1-0.1,0.3-0.1,0.4-0.1
	c0,0,0,0,0.1,0c0.8,0,1.4,0.5,1.9,0.8c0,0,0,0,0.1,0c0.1,0,0.2,0,0.3-0.2c0-0.1,0-0.1,0-0.1c-0.7-1-1.4-1.5-2.2-1.6
	c-0.1,0-0.1,0-0.2,0C38.5,109.9,36.6,110.6,35.7,111.1z"/>
<path class="st2" d="M27.5,116.6c-0.3,0-0.7,0-1.1,0h-0.1c-5.3-0.2-9.5-2-12.7-5.4c-0.3-0.3-0.6-0.6-0.9-1c-0.9-1.1-2.2-3.9-2.6-5.8
	c-0.6-2.8-0.7-8.4,1.1-14.8c0.1-0.5,0.3-1,0.4-1.5c1.5-4.8,3.8-9.4,6.7-13.6c0.3-0.4,0.7-0.8,1-1.3l0.4-0.4c2-2.7,3-4,9.3-7.1h0.1
	l0.2,0.1c0,0.1,1.5,1.7,2.9,6.4c0.1,0.4,0.2,0.7,0.3,1c0.2,0.9,0.4,1.8,0.5,2.7c0.5,4.4-0.8,8.8-3.8,12.5c-0.4,0.5-0.8,1.1-1.2,1.7
	c-0.3,0.3-0.5,0.7-0.8,1c-1.4,2.1-2.5,4-3.3,5.7c-0.2,0.4-0.4,0.8-0.5,1.2c-0.7,1.9-1.1,3.5-1.1,5c0,0.2,0,0.4,0.1,0.7
	c0.2,0.5,3.8,3.5,6.4,4.8c0.4,0.2,0.8,0.4,1.2,0.5c3.4,1.5,5.5,2,5.6,2l0.2,0.1l-0.5,2.6l-1.7,2.5h-0.1c-2.2,0.3-4,0.4-5.7,0.4h-0.1
	H27.5z"/>
<path class="st3" d="M29.4,65.6c0.1,0.1,1.6,1.8,3,6.5v0.1c0.1,0.3,0.2,0.6,0.3,0.9c0.2,0.9,0.4,1.8,0.5,2.7c0.5,4.5-0.8,9-3.8,12.8
	c-0.4,0.5-0.8,1.1-1.2,1.6c-0.3,0.3-0.5,0.7-0.8,1.1c-1.3,2-2.5,3.9-3.3,5.6c-0.1,0.4-0.3,0.8-0.5,1.2c-0.7,1.8-1,3.4-1,4.9
	c0,0.2,0,0.4,0,0.6c0.4,0.6,3.9,3.4,6.3,4.6c0.4,0.2,0.8,0.4,1.2,0.6c3.3,1.5,5.5,2,5.5,2l0.5,0.1l-0.1,0.5l-0.4,2.3l-0.1,0.1v0.1
	l-0.8,1.2l-0.8,1.2l-0.2,0.1l-0.2,0.1c-2.1,0.2-3.9,0.4-5.6,0.4h-0.2h-0.2c-0.3,0-0.7,0-1.1,0h-0.1c-5.4-0.3-9.6-2-12.9-5.5
	c-0.3-0.3-0.6-0.7-0.9-1c-1-1.2-2.2-4.1-2.6-5.9c-0.6-2.9-0.7-8.5,1-14.9c0.1-0.5,0.3-0.9,0.5-1.5c1.5-4.9,3.7-9.5,6.7-13.7
	c0.3-0.5,0.7-0.9,1-1.3l0.4-0.5c2-2.7,3-4,9.3-7.1l0.4-0.2L29.4,65.6z M19.5,73.4c-0.3,0.4-0.7,0.8-1,1.3c-3.3,4.6-5.4,9.3-6.7,13.5
	c-0.2,0.5-0.3,1-0.4,1.5c-1.8,6.6-1.7,12-1.1,14.7c0.4,1.7,1.6,4.5,2.5,5.7c0.3,0.3,0.6,0.7,0.9,1c3.7,3.8,8.1,5.1,12.6,5.3
	c0.4,0,0.8,0,1.1,0c0.1,0,0.2,0,0.3,0c2,0,3.9-0.2,5.7-0.4l0.8-1.2l0.8-1.2l0.5-2.3c0,0-2.2-0.5-5.7-2c-0.4-0.2-0.8-0.4-1.2-0.6
	c-2.5-1.3-6.4-4.5-6.5-4.9c-0.1-0.3-0.1-0.5-0.1-0.8c0-1.6,0.4-3.4,1.1-5.1c0.2-0.4,0.4-0.8,0.5-1.2c1-2,2.2-4,3.4-5.7
	c0.3-0.3,0.5-0.7,0.7-1.1c0.5-0.5,0.9-1.1,1.3-1.6c2.7-3.5,4.2-8,3.7-12.4c-0.1-0.9-0.3-1.8-0.5-2.6c-0.1-0.4-0.2-0.7-0.3-1
	C30.5,67.6,29,66,29,66C22.4,69.2,21.7,70.4,19.5,73.4z"/>
<path class="st8" d="M33.5,67.9l1.2,8.8l-3.1,2l-3.4-12.3l1.6-0.8L33.5,67.9z"/>
<path class="st8" d="M56,71.5c0,0.4,1.1,11.2,1,11.4c0,0.2-5.2-1-5.2-1l1.4-15.5l1.1,1.1C54.3,67.5,55.9,71,56,71.5z"/>
<path d="M158.7,204.8l-6.7-55.1c-0.1-0.7,0.4-1.4,1.1-1.5c0.8-0.1,1.4,0.4,1.5,1.1l6.7,55.1c0.1,0.8-0.4,1.4-1.2,1.5c0,0,0,0-0.1,0
	C159.3,205.9,158.8,205.5,158.7,204.8z"/>
<path d="M179.7,204.8l-6.7-55.1c-0.1-0.7,0.4-1.4,1.2-1.5c0.7-0.1,1.4,0.4,1.5,1.1l6.6,55.1c0.1,0.8-0.4,1.4-1.1,1.5
	c-0.1,0-0.1,0-0.2,0C180.3,205.9,179.8,205.5,179.7,204.8z"/>
<path d="M157.4,187.3c0-0.7,0.6-1.3,1.3-1.3h18.5c0.8,0,1.4,0.6,1.4,1.3s-0.6,1.3-1.4,1.3h-18.5C158,188.6,157.4,188,157.4,187.3z"
	/>
<path d="M164,205.9c-0.7-0.1-1.2-0.7-1.1-1.5l6.6-53.6c0.1-0.7,0.8-1.2,1.5-1.1c0.7,0.1,1.2,0.8,1.1,1.5l-6.6,53.6
	c-0.1,0.7-0.7,1.1-1.3,1.1C164.2,205.9,164.1,205.9,164,205.9z"/>
<path d="M143,205.9c-0.8-0.1-1.3-0.7-1.2-1.5l6.7-53.6c0.1-0.7,0.7-1.2,1.5-1.1c0.7,0.1,1.2,0.8,1.1,1.5l-6.7,53.6
	c0,0.7-0.6,1.1-1.3,1.1C143.1,205.9,143.1,205.9,143,205.9z"/>
<path d="M145.6,187.3c0-0.7,0.6-1.3,1.3-1.3h18.5c0.7,0,1.3,0.6,1.3,1.3s-0.6,1.3-1.3,1.3h-18.5C146.2,188.6,145.6,188,145.6,187.3z
	"/>
<path class="st4" d="M181.9,144.6v4.9c0,1.2-1,2.3-2.3,2.3h-10.4h-12.8h-10.5c-1.2,0-2.2-1.1-2.2-2.3v-4.9c0-1.2,1-2.2,2.2-2.2h10.5
	h12.8h10.4C180.9,142.4,181.9,143.4,181.9,144.6z"/>
<path class="st2" d="M144,177.5c-0.1-0.8,3.5-4.1,3.8-3.9c0.7,0.5,3.4,2.6,3.5,3.3c0,0.6-3.3,4.2-4,3.7
	C146.7,180.1,144.1,178.1,144,177.5z"/>
<path class="st3" d="M147.5,180.9c-0.1,0-0.2,0-0.3-0.1c-0.1,0-3.3-2.4-3.4-3.3c-0.2-0.9,2.9-3.6,3.5-4c0.2-0.1,0.4-0.2,0.6-0.1
	c0.3,0.2,3.6,2.6,3.6,3.5c0,0.7-2.3,3.2-3.4,3.8C148,180.8,147.7,180.9,147.5,180.9z M147.9,180.2c1.2-0.7,3.1-2.9,3.1-3.3
	c0-0.5-2.2-2.3-3.3-3c-0.7,0.3-3.4,3-3.4,3.5c0.1,0.5,2.1,2.2,3.2,3C147.5,180.4,147.6,180.4,147.9,180.2z"/>
<path class="st4" d="M150.7,175.9c0,0,3.9,0.5,4.7,3.4c0,0-7.4,9.1-10.2,11.3c0,0-3.3-2.8-1.5-5.3c1.7-2.5,3.8-4.7,3.8-4.7
	S151,179.2,150.7,175.9z"/>
<path d="M162.5,135.1c-2.5,6.1-12.8,9.2-20.4,11.9c-4.6,1.6-5,3.4-5.3,5.1c-1.4,6.8,10.1,16,13.1,21.6c0.1,1-0.9,2-2.1,2.8
	c-1.9,1.4-4.5,2.3-4.5,2.3c-9.4-9.8-23.6-23.2-22.2-32.8c2.5-16.1,25.9-25.2,25.9-25.2C150.8,115.9,166.8,124.6,162.5,135.1z"/>
<path class="st2" d="M157,177.4c0-0.7,4.1-3.4,4.3-3.2c0.7,0.6,3,3.1,2.9,3.8c0,0.6-3.8,3.7-4.4,3C159.2,180.5,157,178.1,157,177.4z
	"/>
<path class="st3" d="M160,181.4c-0.1,0-0.3-0.1-0.4-0.2c0,0-2.8-2.8-2.9-3.8c0-0.8,3.5-3,4.2-3.3c0.2-0.1,0.4-0.2,0.6-0.1
	c0.2,0.3,3.1,3.1,3,4c-0.1,0.7-2.8,2.9-4,3.3C160.4,181.3,160.2,181.4,160,181.4z M159.9,180.9c0,0,0.1,0,0.5-0.1
	c1.3-0.5,3.5-2.5,3.6-2.9c0-0.4-1.9-2.6-2.8-3.4c-0.7,0.2-3.9,2.4-4,2.9C157.3,177.9,159,179.9,159.9,180.9z"/>
<path d="M154.6,132.7c-2.3,2.7-5.1,5-7.5,7.8c-1.8,2.1-3.5,4.2-5,6.5c-4.6,1.6-5,3.4-5.3,5.1c-1.4,6.8,10.1,16,13.1,21.6
	c0.1,1-0.9,2-2.1,2.8c-0.9-0.6-1.7-1.4-2.4-2c-2.4-2.2-4.4-4.6-6.2-7.2c-3.5-5.3-6.5-9.6-7-15.9c-0.3-4.5-0.2-5.9,0.6-9.5
	c0.5-2.2,1.9-4.8,3.2-6.8c3.2-5.1,9.5-6.9,13.9-10.5c0.1-0.1,0.1-0.1,0.2-0.1c0-0.3,0.2-0.5,0.5-0.4
	C155.3,125,157.9,128.6,154.6,132.7z"/>
<path class="st4" d="M163.8,177c0,0,3.8,1,4.2,4c0,0-8.8,7.8-11.9,9.6c0,0-2.8-3.3-0.7-5.5c2.2-2.2,4.6-4,4.6-4
	S163.6,180.2,163.8,177z"/>
<path d="M176.2,136.6c-4.6,9.3-23,6.6-24.3,11.2c-1.9,6.6,7.1,24.5,11,27c-0.1,0.3-0.3,0.6-0.5,0.9c-1.2,2.3-4.2,4.5-4.2,4.5
	c-7.7-6.7-21.9-22.2-22.5-32.7c-1-16.2,26.2-26.3,26.2-26.3c3.4-3.8,14.3,2.1,15.3,9.9C177.4,132.9,177.2,134.7,176.2,136.6z"/>
<path d="M176.2,136.6c-4.6,9.3-23,6.6-24.3,11.2c-1.9,6.6,7.1,24.5,11,27c-0.1,0.3-0.3,0.6-0.5,0.9c-4.5-3-7.9-7.2-10.2-12.2
	c-1.3-2.8-2.3-5.7-3.3-8.5c-1.1-2.9-2-2.7-1.4-5.7c1-5.2,4.8-6.5,9.5-7.5c6.6-1.3,14.6-3.1,17.1-10.2c-0.4-0.2-1.2-6.4-0.7-6.4
	c1.1-0.1,3,1.2,3.8,5.9C177.4,132.9,177.2,134.7,176.2,136.6z"/>
<path d="M179.8,76.5c0.3,4.4-5.1,9.3-9.6,7.8c-2.7-1-4.6-3.7-5.5-6.4c-0.4-1.4-0.5-3.1-1.2-4.5c-1.4-2.6-3.1-2.2-5.1-3.5
	c-0.1-0.1-0.1-0.1-0.2-0.1c-0.2-0.1-0.3-0.3-0.3-0.7c0.6-3,4.8-5.7,7.8-4.6c1.9,0.7,3.2,2.4,4.1,4.1c0.7,1.4,1.1,2.9,1.7,4.3
	c0.4,1,0.9,2.6,1.6,3.3c1.9,2,4.5,0.5,5.6-0.1C179.1,75.8,179.8,75.9,179.8,76.5z"/>
<path class="st2" d="M138.9,109.5c0,0,2.1-3.3,3-4.8c0.4-0.6,0.8-1.3,1.3-2.2c0.1-0.3,0.3-0.6,0.5-0.9c0.1-0.1,0.1-0.3,0.2-0.4
	c3-5.2,6.9-11.2,10.2-12.7c3.2-1.5,0.3,13.4,0.3,13.4s0.1,1.3-0.1,3.1c-0.3,1.8-1,4-2.5,6c-0.3,0.4-0.6,0.8-1,1.2
	c-2.2,2.3-5.3,7.2-11,8c-0.8,0.1-3.9-1.3-4.5-2C132.7,115,138.9,109.5,138.9,109.5z"/>
<path class="st3" d="M139.7,120.5c-1,0-3.9-1.4-4.6-2.2c-2.7-3.3,3.1-8.6,3.6-9c0.2-0.3,2.2-3.3,3-4.7c0.3-0.7,0.7-1.4,1.2-2.2
	c0.1-0.2,0.3-0.4,0.4-0.6l0.2-0.3c0.1-0.1,0.1-0.2,0.1-0.3l0.1-0.2c2.8-4.7,6.8-11.2,10.3-12.8c0.5-0.2,0.8-0.1,1.1,0.1
	c1.8,1.5-0.2,12.2-0.5,13.6c0.1,0.3,0.1,1.5-0.1,3.2c-0.3,2.3-1.2,4.3-2.5,6c-0.3,0.5-0.6,0.9-1,1.3c-0.4,0.4-0.9,0.9-1.3,1.4
	c-2.2,2.5-5.1,6-9.8,6.6C139.9,120.5,139.8,120.5,139.7,120.5z M154.5,88.6c-0.1,0-0.2,0-0.3,0.1c-3.4,1.5-7.3,7.9-10,12.6l-0.1,0.2
	c-0.1,0.1-0.1,0.1-0.2,0.2l-0.2,0.3c-0.1,0.3-0.2,0.5-0.3,0.7c-0.5,0.8-0.9,1.5-1.3,2.2c-0.9,1.4-3,4.7-3,4.7H139
	c0,0.1-6,5.4-3.5,8.4c0.6,0.7,3.5,2.1,4.3,2c4.5-0.7,7.4-4,9.5-6.5c0.5-0.5,0.9-1,1.3-1.5c0.4-0.4,0.7-0.8,1-1.2
	c1.3-1.7,2.1-3.6,2.4-5.8c0.3-1.8,0.1-3,0.1-3.1c1-4.8,1.9-12.2,0.6-13.2C154.7,88.6,154.7,88.6,154.5,88.6z"/>
<path class="st5" d="M154.4,101.9c0,0,0.1,1.3-0.1,3.1c-0.4,2.1-1.2,5-3.3,7.4c-2.2,2.5-9.8-9.6-7.6-12.6
	c3.3-4.6,7.6-10.3,10.8-11.8C157.5,86.5,154.4,101.9,154.4,101.9z"/>
<path d="M151.7,101.8c2.3,1.7-1.6,11-2.6,10.6c-0.9-0.5-2.6-2.7-2.6-2.7s1.8-1.2,2.4-3.3c0.7-2.1-0.3-5.4-0.3-5.4
	S149.4,100.2,151.7,101.8z"/>
<path class="st5" d="M149,110.9c3.4-6.9-1.1-7.8-1.3-13.9c-0.3-6.1,10.7-11.6,10.7-11.6c19.5-1.1,14.9,10.3,13,19.5
	c-0.2,0.9-0.3,1.7-0.4,2.5c-0.1,0.4-0.1,0.8-0.1,1.2c-0.4,9.1,8.3,17.8,8.3,17.8c-13.6,7.6-38.4-1.6-38.4-1.6S145.5,117.7,149,110.9
	z"/>
<path d="M165.5,90c0,0-0.3,8.2,3.2,11.5c1.4,1.3,2.2,2.5,2.7,3.4c-0.2,0.9-0.3,1.7-0.4,2.5c-0.1,0.4,0.3,4.8,0.3,5.2
	c-1.7-1.3-3.9-8-4.9-9.7C165.1,100.3,164.7,94.1,165.5,90z"/>
<path class="st2" d="M161.3,80.7v4.6c0,0-2.9,3.2-4.9,2.8c-1-0.2,0-1.9,0-1.9v-3.4L161.3,80.7z"/>
<path class="st3" d="M156.7,88.4c-0.1,0-0.3,0-0.4,0c-0.3-0.1-0.4-0.2-0.5-0.4c-0.3-0.6,0.2-1.6,0.3-1.8v-3.6l5.5-2.3v5.1l-0.1,0.1
	C161.4,85.6,158.8,88.4,156.7,88.4z M156.6,83v3.4c-0.2,0.4-0.5,1.1-0.4,1.4c0.1,0,0.1,0.1,0.2,0.1c1.7,0.3,4.3-2.2,4.7-2.7v-4.1
	L156.6,83z"/>
<path class="st2" d="M161.9,71.8c0,0,2.5,4.8-0.1,9.1c-2.6,4.4-7.8,2.5-8.2,0c-0.5-3.4,0.3-7.5,0.3-7.5L161.9,71.8z"/>
<path class="st3" d="M157.6,83.8c-0.3,0-0.7,0-1-0.1c-1.7-0.4-3-1.5-3.2-2.7c-0.5-3.5,0.2-7.6,0.2-7.7v-0.1l8.5-1.7v0.1
	c0.1,0.1,2.5,5-0.1,9.4C161,82.8,159.4,83.8,157.6,83.8z M154.1,73.6c-0.2,0.8-0.7,4.3-0.2,7.3c0.1,1,1.3,2,2.8,2.3
	c1.9,0.4,3.8-0.5,4.9-2.4c2.2-3.7,0.6-7.9,0.2-8.8L154.1,73.6z"/>
<path d="M152.1,73.8c0.2-0.3,0.5-0.4,0.7-0.6c0.6-0.6,0.2-0.8,0.5-1.4c0.3-0.5,0.5-0.8,1-1.1c1.1-0.9,2.7-1.1,4-1.2
	c0.5,0,0.6,0.4,0.6,0.7c1.3-0.1,3.1,0.7,3.9,1.4c1.5,1.3,2.5,4,1.8,6c-0.4,1.6-1.8,3.2-3.1,1.7c-1.1-1.2-1.3-2.5-1.7-3.9
	c-0.1-0.5-0.2-1-0.3-1.4c-1-0.8-2.2-1.1-3.2-0.8c-0.2,0.3-0.3,0.8-0.5,1.1c-0.3,0.5-0.6,1-1.1,1.3c-0.6,0.6-1.7,1-2.5,0.3
	C151.5,75.4,151.6,74.4,152.1,73.8z"/>
<path class="st2" d="M159.6,75.8c0,0,1.2-1,1.8,0c0.7,1.1-0.2,2-0.8,2C160,77.7,159.4,76.4,159.6,75.8z"/>
<path class="st3" d="M160.7,78c-0.1,0-0.1,0-0.1,0c-0.3,0-0.6-0.2-0.8-0.6c-0.3-0.4-0.6-1.2-0.4-1.7v-0.1c0.1,0,0.8-0.6,1.5-0.5
	c0.3,0.1,0.6,0.3,0.8,0.6c0.3,0.6,0.3,1.2,0,1.7C161.4,77.8,161,78,160.7,78z M159.8,76c0,0.3,0.1,0.8,0.4,1.2
	c0.1,0.2,0.3,0.3,0.4,0.3c0.2,0.1,0.5-0.1,0.6-0.4c0.1-0.1,0.4-0.6,0-1.2c-0.1-0.2-0.2-0.3-0.4-0.3C160.5,75.6,160,75.8,159.8,76z"
	/>
<path class="st5" d="M160.7,71.2c-0.7-1-2-1.2-3.1-1.3c-0.8,0-0.6-1.2,0.2-1.2c1.5,0.1,3,0.5,3.9,1.7
	C162.2,71.1,161.2,71.8,160.7,71.2z"/>
<path class="st2" d="M184.2,121.2c-4.2,6-23.1,0.3-23.1,0.3l0.2-3.3c0,0,11.1,0.9,13.4-2.8c0.4-0.6-0.8-8.3-2.9-10.3
	c-0.9-0.9-1.9-1.7-2.7-2.5c-2.1-1.7-3.5-4.1-4-6.8c-0.4-2.6-0.1-4.7,0.5-6.4c0.9-2.4,3.9-3.1,5.8-1.6c3.8,3.1,9.8,10.9,9.9,11.1
	C186.7,105.9,188.5,115.2,184.2,121.2z"/>
<path class="st3" d="M175.9,124.2c-6.7,0-14.4-2.3-14.9-2.4l-0.2-0.1l0.3-3.7h0.2c0.2,0,11,0.8,13.1-2.7c0.3-0.6-0.7-8.1-2.8-10
	c-0.8-0.8-1.7-1.6-2.7-2.5c-2.1-1.9-3.6-4.4-4-7c-0.4-2.3-0.2-4.4,0.5-6.5c0.4-1.2,1.4-2.1,2.6-2.4c1.3-0.3,2.6-0.1,3.6,0.8
	c3.4,2.8,8.8,9.6,9.9,11c5.8,7.6,7,16.9,2.9,22.6C182.9,123.5,179.5,124.2,175.9,124.2z M161.3,121.4c2,0.5,18.8,5.1,22.7-0.4
	c4-5.5,2.8-14.6-2.9-22c-1-1.3-6.4-8.2-9.8-11c-0.9-0.7-2.1-0.9-3.2-0.6c-1,0.3-1.8,1-2.2,2.1c-0.7,2-0.9,4.1-0.5,6.2
	c0.4,2.6,1.8,4.9,3.8,6.7c1.1,0.9,2,1.8,2.8,2.5c2.1,2.1,3.3,9.9,2.9,10.7c-2.1,3.5-11.6,3-13.3,2.9L161.3,121.4z"/>
<path class="st5" d="M171.8,106.8c-0.8-0.8-6.5-6.1-7.4-11.3c-0.3-2.3,0.3-8.2,3.3-8.9c4.7-1.1,11.4,5.9,15.8,11.1
	C181.5,102.2,177.1,105.3,171.8,106.8z"/>
<path class="st4" d="M148.1,122.7l12.3,0.7l-11.8,3.3L148.1,122.7z"/>
<path class="st2" d="M148.8,126.9l11.3-3.1l0.1,0.6l-11.4,3.5V126.9z"/>
<path class="st3" d="M160.4,124.6l-11.8,3.6v-1.5l11.8-3.3V124.6z M149,127.1v0.5l10.8-3.3v-0.2L149,127.1z"/>
<path class="st4" d="M123.1,125.2l25.5,1.5v1.5l-25.5-1.7V125.2z"/>
<path class="st2" d="M123.4,125l-1.9-13.3c-0.1-0.2,0-0.4,0.2-0.6c0.1-0.1,0.3-0.2,0.5-0.2l23.5,1.4c0.3,0,0.6,0.3,0.7,0.6l1.9,13.6
	L123.4,125z"/>
<path class="st3" d="M122.3,110.6l23.4,1.4c0.5,0.1,0.9,0.4,0.9,0.9l2,13.8l-25.5-1.5l-1.9-13.4
	C121.2,111.1,121.6,110.6,122.3,110.6C122.3,110.6,122.3,110.6,122.3,110.6z M121.8,111.3c-0.1,0.1-0.1,0.3-0.1,0.4l1.9,13l24.4,1.5
	l-1.9-13.2c0-0.3-0.2-0.5-0.4-0.5l-23.4-1.4h-0.1C122.1,111.1,122,111.2,121.8,111.3z"/>
<path class="st2" d="M151.6,117.5c0.8-0.3,1.7-0.4,2.5-0.3c0.1,0,0.3,0,0.4-0.1c-0.1-0.1-0.1-0.1-0.2-0.2c-0.3-0.7-0.3-1.7,0.4-2
	c0.8-0.4,1.4,0.7,1.8,1.2c0.5,0.6,1,1.1,1.7,1.5c0.7,0.3,1.4,0.3,2.2,0.5c0.5,0.1,1.4,0.1,1.7,0.6c0.2,0.4,0.2,1.3,0.1,1.7
	c-0.1,0.6-0.6,0.9-1.1,1.1c-0.4,0.2-0.9,0.4-1.4,0.4c-0.9,0.3-1.7,0.4-2.6,0.2c-0.2-0.1-0.4-0.1-0.5-0.2c-0.8,0.3-1.6,0.4-2.4,0.3
	c-0.4-0.1-0.5-0.5-0.4-0.8c-0.2,0-0.4-0.1-0.5-0.2c-0.1-0.2-0.2-0.4-0.2-0.5c-0.1-0.1-0.3-0.3-0.4-0.4c-0.5-0.4-0.5-1-0.4-1.5
	c-0.8,0.4-1.4,1-2,1.7c-0.4,0.3-0.8,0.2-1-0.2C148.7,119,150.6,117.8,151.6,117.5z"/>
<path class="st3" d="M154.9,122.5c-0.3,0-0.5,0-0.8-0.1c-0.2,0-0.4-0.1-0.5-0.3c-0.1-0.1-0.1-0.3-0.1-0.5c-0.1-0.1-0.3-0.1-0.4-0.2
	c-0.1-0.2-0.2-0.4-0.2-0.6c-0.1-0.1-0.3-0.2-0.4-0.3c-0.3-0.3-0.5-0.8-0.5-1.2c-0.5,0.3-1,0.7-1.6,1.3c-0.2,0.2-0.4,0.3-0.7,0.3
	c-0.3,0-0.5-0.2-0.6-0.5c-0.2-0.4-0.2-0.8,0-1.2c0.4-1,1.7-1.7,2.4-2c0.7-0.2,1.6-0.3,2.5-0.3c-0.1-0.4-0.3-1,0-1.6
	c0.1-0.3,0.3-0.6,0.6-0.7c0.9-0.3,1.5,0.5,1.8,1c0.1,0.1,0.2,0.2,0.3,0.3c0.4,0.5,0.9,1.1,1.6,1.5c0.5,0.2,1,0.3,1.6,0.3
	c0.1,0.1,0.3,0.1,0.5,0.1c0.1,0,0.2,0,0.3,0.1c0.5,0,1.3,0.1,1.6,0.7c0.3,0.5,0.3,1.4,0.2,1.9c-0.2,0.7-0.8,1-1.3,1.3
	c-0.4,0.2-1,0.3-1.5,0.4c-0.7,0.2-1.7,0.4-2.7,0.1c-0.1,0-0.3,0-0.4-0.1C156,122.4,155.5,122.5,154.9,122.5z M152.8,118.3l-0.2,0.6
	c-0.2,0.4-0.1,0.9,0.3,1.3c0.1,0.1,0.2,0.1,0.3,0.2l0.1,0.1l0.1,0.1c0,0.2,0,0.3,0.1,0.4c0.1,0.1,0.2,0.1,0.3,0.2l0.3,0.1l-0.1,0.2
	c-0.1,0.1-0.1,0.2,0,0.3c0.1,0.1,0.1,0.1,0.2,0.1c0.8,0.1,1.6,0.1,2.3-0.2l0.1-0.1l0.1,0.1c0.1,0.1,0.3,0.1,0.5,0.2
	c0.8,0.2,1.7,0,2.4-0.2c0.6-0.1,1.1-0.3,1.4-0.4c0.4-0.2,0.9-0.4,1-0.9c0.1-0.5,0.1-1.2-0.1-1.6c-0.2-0.3-0.8-0.4-1.3-0.4
	c-0.1-0.1-0.2-0.1-0.3-0.1c-0.1,0-0.3,0-0.5-0.1c-0.6-0.1-1.2-0.1-1.7-0.4c-0.8-0.4-1.4-1-1.8-1.6c-0.1-0.1-0.2-0.2-0.3-0.3
	c-0.4-0.6-0.7-1-1.2-0.8c-0.2,0.1-0.3,0.2-0.4,0.4c-0.1,0.4,0,0.9,0.1,1.3c0,0,0,0,0.1,0.1c0,0.1,0,0.1,0.1,0.1l0.1,0.3l-0.3,0.1
	c-0.1,0-0.1,0-0.1,0c-0.1,0-0.1,0-0.2,0h-0.1c-0.9,0-1.7,0.1-2.4,0.3c-0.7,0.2-1.8,0.9-2.2,1.7c-0.1,0.3-0.1,0.5,0,0.8
	c0.1,0.1,0.2,0.2,0.3,0.2c0.1,0,0.2,0,0.3-0.1c0.7-0.8,1.4-1.4,2.1-1.7L152.8,118.3z"/>
<path class="st2" d="M130.6,127.3C130.6,127.2,130.5,127.2,130.6,127.3c-0.2,0-0.4,0.2-0.7,0.2c-0.2,0-0.4-0.2-0.5-0.4
	c0,0,0,0,0-0.1c-0.3,0.4-0.7,0.8-1.2,0.7c-0.4-0.1-0.5-0.5-0.5-0.9c-0.1,0.1-0.3,0.3-0.4,0.4c-0.5,0.4-1.1-0.1-1.2-0.5
	c-0.1-0.1-0.1-0.1,0-0.2c0,0,0,0,0-0.1c0.1-0.4,0.3-0.8,0.5-1.2c0.2-0.3,0.4-0.7,0.7-0.8c0.6-0.4,0.8,0.3,0.9,0.7
	c0.2-0.4,0.5-0.8,1-0.6c0.4,0.2,0.6,0.4,0.7,0.8c0.1-0.2,0.3-0.4,0.5-0.5c0.4-0.3,0.8,0.2,0.9,0.6c0,0.1,0,0.3,0,0.5
	c0-0.1,0-0.1,0.1-0.1c0.4-0.1,0.6,0.4,0.6,0.6C132.2,127.1,131.3,127.7,130.6,127.3z"/>
<path class="st3" d="M128.4,127.9c-0.1,0-0.1,0-0.2,0c-0.3,0-0.6-0.1-0.7-0.5c-0.3,0.2-0.5,0.3-0.8,0.2c-0.5-0.2-0.8-0.5-0.9-0.8
	c0-0.1,0-0.3,0.1-0.4c0.1-0.5,0.3-0.9,0.5-1.3l0.1-0.1c0.1-0.3,0.4-0.7,0.7-0.9c0.3-0.1,0.5-0.1,0.7,0c0.2,0.1,0.3,0.2,0.4,0.4
	c0.1-0.1,0.2-0.1,0.3-0.2c0.2-0.1,0.4-0.1,0.7,0c0.3,0.1,0.6,0.2,0.7,0.5c0.1-0.1,0.1-0.2,0.2-0.2c0.3-0.2,0.6-0.2,0.7-0.1
	c0.4,0.1,0.6,0.5,0.6,0.8c0.1,0.1,0.1,0.2,0.1,0.3c0.1,0,0.2,0,0.3,0.1c0.2,0.1,0.3,0.4,0.4,0.7c0.1,0.4-0.1,0.8-0.5,1
	c-0.4,0.3-0.9,0.3-1.3,0.1c-0.1,0.1-0.3,0.2-0.6,0.2c-0.2,0-0.4-0.1-0.6-0.2C129,127.8,128.6,127.9,128.4,127.9z M128,126.1v0.8
	c-0.1,0.5,0.1,0.5,0.3,0.5c0.3,0.1,0.7-0.2,0.9-0.5l0.2-0.4l0.2,0.5c0.1,0.1,0.2,0.2,0.3,0.2c0.2,0,0.3-0.1,0.4-0.2l0.4-0.4l0.1,0.5
	c0.3,0.1,0.6,0.1,0.7-0.1c0.2-0.1,0.3-0.3,0.3-0.6c0-0.1-0.1-0.2-0.2-0.3c-0.1-0.1-0.1-0.1-0.1,0l-0.5,0.2v-0.5
	c0.1-0.1,0.1-0.3,0-0.4c0-0.2-0.1-0.4-0.3-0.4c0-0.1-0.1-0.1-0.2,0c-0.1,0.1-0.3,0.2-0.4,0.4l-0.3,0.5l-0.1-0.6
	c-0.1-0.3-0.2-0.4-0.5-0.5c-0.2-0.1-0.3-0.1-0.4-0.1c-0.1,0.1-0.2,0.2-0.3,0.5l-0.3,0.8l-0.2-0.9c-0.1-0.3-0.2-0.5-0.3-0.6
	c0,0-0.1,0-0.3,0.1c-0.2,0.1-0.3,0.4-0.5,0.6v0.1c-0.3,0.4-0.5,0.8-0.6,1.2v0.1c0.1,0.3,0.3,0.4,0.5,0.5c0.1,0,0.3,0,0.4-0.1
	c0.1-0.1,0.2-0.2,0.3-0.3L128,126.1z"/>
<path class="st2" d="M159.8,75.3c0,0,0.6,2.5,1,3.1c0.5,0.6-2,1.3-2,1.3l-0.5-2.9l0.3-1.7L159.8,75.3z"/>
<path class="st2" d="M164,119.7c0.3,0.4-0.9,2.2-1.7,1.9c-0.8-0.3-1.5-0.2-1.5-0.2v-3l2.1,0.2C162.9,118.6,163.7,119.2,164,119.7z"
	/>
<path d="M169.9,168.7l-4.4,36.1c-0.1,0.7-0.7,1.1-1.3,1.1c-0.1,0-0.1,0-0.2,0c-0.7-0.1-1.2-0.7-1.1-1.5l4.4-35.7H169.9z"/>
</svg>
