<?xml version="1.0" encoding="utf-8"?>
<!-- Generator: Adobe Illustrator 27.0.0, SVG Export Plug-In . SVG Version: 6.00 Build 0)  -->
<svg version="1.1" id="Layer_1" xmlns="http://www.w3.org/2000/svg" xmlns:xlink="http://www.w3.org/1999/xlink" x="0px" y="0px"
	 viewBox="0 0 262 211" style="enable-background:new 0 0 262 211;" xml:space="preserve">
<style type="text/css">
	.st0{fill:#E6EBF0;}
	.st1{fill:#C6D0DB;}
	.st2{fill:#AAB6C2;}
	.st3{fill-rule:evenodd;clip-rule:evenodd;fill:#AAB6C2;}
	.st4{fill-rule:evenodd;clip-rule:evenodd;fill:#C6D0DB;}
	.st5{opacity:0.3;fill:#FFFFFF;enable-background:new    ;}
	.st6{opacity:0.6;fill:#FFFFFF;enable-background:new    ;}
	.st7{fill:#FFFFFF;}
	.st8{fill-rule:evenodd;clip-rule:evenodd;}
	.st9{fill:#F58634;}
	.st10{fill:#EBEBEB;}
	.st11{fill:#F6F6F6;}
</style>
<path d="M254.1,210.9H64.3v-1.4h189.8V210.9z"/>
<path class="st0" d="M255.8,94.3c17.9,100.2-69.6,143-113.3,95.6c-50.3-54.5-108-29.5-95.6-99.9C60,16.2,128.3-4.4,196.6,22.3
	c30.1,11.8,52.5,38,58.8,69.7C255.5,92.7,255.7,93.5,255.8,94.3z"/>
<path class="st0" d="M71.9,161.3c21.2,8.6,35.8,2.7,52.9,24c17.2,21.2,11.9,25.9-20.7,15.7C59.4,187,52.2,153.4,71.9,161.3z"/>
<path class="st0" d="M142.2,136.6H38V3h104.2V136.6z"/>
<path class="st1" d="M100.9,108.4c-0.8,4-7.4,4.8-10.7,3.6c-1-0.4-1.9-1-2.5-2c-0.2-0.2-0.3-0.7-0.5-0.8c-0.2-0.2-1.9-0.7-2.1-0.7
	c-0.6-0.1-1.3,0.1-1.9,0c-3.4-0.5-6.5-2.9-9.4-4.6c-0.1,0-0.2,0-0.3-0.1c-2.1-1.3-4.3-3.7-3.3-6.4c0.1-0.3,0.3-0.5,0.4-0.7
	c0.4-0.7,1.1-1.3,1.8-1.5c0.6-0.2,1-0.1,1.6-0.1c0.3,0,0.5,0,0.6,0c-0.3-0.6-0.5-1.2-0.6-1.8c0-0.2,0-0.3,0.1-0.4
	c0.1-0.2,0.3-0.2,0.5-0.2c0.1,0,0.2,0,0.3,0.1c0.5,0.3,0.8,0.8,1,1.4c0.1-0.1,0.3-0.3,0.4-0.4c2.1-2.6,5.1-3.1,8.1-2.5
	c0.1-0.2,0.3-0.4,0.5-0.6c0.4-0.3,0.9-0.7,1.4-0.6s0.8,0.6,0.6,1c-0.1,0.3-0.3,0.5-0.6,0.7c0.8,0.3,1.6,0.6,2.4,1
	c0.3-0.4,0.7-0.7,1.1-0.9c0.6-0.4,1.2,0.2,1,0.9c-0.1,0.3-0.3,0.6-0.5,0.8c0.5,0.3,1,0.6,1.5,0.9c1.2,0.8,2.4,1.7,3.6,2.5
	c-0.1-0.6-0.1-1.2,0.5-1.2c0.4,0,0.6,0.3,0.7,0.7c0.1,0.4,0.1,0.8,0.2,1.2c0.4-0.7,0.9-1.3,1.4-1.8c0.2-0.2,0.5-0.1,0.6,0.2
	c0.4,0.9,0,2-0.8,2.5c0.6,0.4,1.2,0.8,1.5,1.4c0.7,1.1,0.1,1.6-0.1,2.7c-0.4,1.9,1.1,2.3,1.4,4C100.9,107.3,101,107.9,100.9,108.4z"
	/>
<path class="st2" d="M100.9,108.4c-0.8,4-7.4,4.8-10.7,3.6c-1-0.4-1.9-1-2.5-2c-0.2-0.2-0.3-0.7-0.5-0.8c-0.2-0.2-1.9-0.7-2.1-0.7
	c-0.6-0.1-1.3,0.1-1.9,0c-3.4-0.5-6.5-2.9-9.4-4.6c-0.1,0-0.2,0-0.3-0.1c-2.1-1.3-4.3-3.7-3.3-6.4c0.1-0.3,0.3-0.5,0.4-0.7
	c1.1,3.6,4.8,5.6,8.6,4.5c0.2-0.1,0.5,0.1,0.5,0.4c-0.2,1.9,1.6,3,3.3,3c1.1,0.1,2.4-0.4,3.5-0.8c0.3-0.1,0.5,0.1,0.5,0.4
	c0.1,1.1,0.6,2.2,1.7,2.8c0.4,0.2,0.9,0.2,1.2,0.4c0.6,0.3,0.5,0.6,0.8,1.2c1.9,3.1,7.1,0.6,9.7-0.5c0.1,0,0.3,0,0.3,0.1
	C100.8,108.3,100.8,108.3,100.9,108.4z"/>
<path class="st1" d="M76.1,102.9c-0.1,0.4-0.5,0.4-0.7,0.1c-0.7-1-0.9-2.2-0.7-3.4c0.1-0.4,0.8-0.2,0.7,0.2c0,0.1,0,0.2,0,0.3
	c0,0,0,0,0.1,0C76.2,100.9,76.4,101.9,76.1,102.9z"/>
<path class="st1" d="M85.6,105.6c-0.1,0.3-0.5,0.4-0.6,0.2c-0.8-0.9-1.4-2-1.7-3.2c-0.1-0.5,0.6-0.7,0.8-0.2
	c0.1,0.4,0.2,0.8,0.4,1.2c0.1-0.1,0.2-0.1,0.3,0C85.4,104.1,85.7,104.8,85.6,105.6z"/>
<path class="st1" d="M92.5,107.9c-0.1,0.1-0.3,0.3-0.4,0.4c0.1,0.1,0.1,0.1,0.1,0.1c0.1,0.7,0,1.5-0.1,2.2c-0.1,0.3-0.4,0.3-0.6,0.2
	c-1.3-1-0.3-2.5,0.4-3.4C92.3,107,92.8,107.5,92.5,107.9z"/>
<path class="st2" d="M81.6,96.1c-0.2,0.7-0.6,1.4-1.1,2c-0.2,0.4-0.7-0.1-0.5-0.5c0-0.6,0.3-4,1.4-3.1
	C81.9,94.8,81.7,95.6,81.6,96.1z"/>
<path class="st2" d="M87.7,99.6c0.1,0.5-0.7,0.7-0.8,0.2c-0.2-1.1-0.2-2.2,0.2-3.3c0.2-0.6,0.6-1.6,1.4-1.4c0.2,0.1,0.3,0.2,0.3,0.4
	c-0.1,1.3-0.5,2.6-1.2,3.7C87.6,99.3,87.6,99.5,87.7,99.6z"/>
<path class="st1" d="M90.1,103.9c-0.2,0.3-0.4,0.2-0.6,0.1c-0.6-0.4-0.9-1.1-0.9-1.8c0-0.1,0-0.1,0-0.2c0-0.2,0.4-0.5,0.7-0.3
	C89.9,102.3,90.6,103.1,90.1,103.9z"/>
<path class="st2" d="M94.8,103.9c0,0.1,0,0.1-0.1,0.1c-0.1,0.1-0.3,0.1-0.4,0c-0.1,0-0.1,0-0.1,0c-0.4,0-0.5-0.5-0.2-0.7
	c0.3-0.2,0.7-0.4,1.1-0.6c0.5-0.3,1-0.6,1.5-0.9c0.6-0.2,1.3,0,1.3,0.8C97.8,104,96,103.9,94.8,103.9z"/>
<path class="st1" d="M52.3,99.6c0.1,0.2,0,0.3-0.1,0.4c-2.8,1.3-3.1,8.5-6.9,7.2c-0.2-0.1-0.4-0.3-0.5-0.5c-0.7-0.4-1.4-0.6-2.2-0.7
	c-0.3,0-0.6-0.1-1-0.2c-0.7-0.4-1.2-1.1-1.5-1.9c-0.3-0.8-0.2-1.8,0-2.8c0.3-1.2,0.8-2.3,1.4-3.1c0.6-0.7,1-0.7,1.8-1
	c0.1,0,0.1,0,0.2-0.1c-0.3-0.4-0.5-0.8-0.6-1.3c-0.1-0.4,0.4-0.6,0.6-0.4c0.3,0.3,0.6,0.6,0.9,0.9c0.3-0.5,0.3-1.1,0.7-1.8
	c0.1-0.2,0.3-0.4,0.5-0.6c-0.2-0.3-0.4-0.7-0.5-1c-0.2-0.4-0.4-0.9-0.1-1.3s0.7-0.4,1-0.1c0.4,0.4,0.4,1,0.5,1.5c0,0,0,0,0.1,0
	c0.1-0.5,0.2-1,0.4-1.5c0.2-0.4,0.9-0.2,0.7,0.2c-0.1,0.2-0.1,0.4-0.2,0.6c0.6-0.3,1.2-0.6,1.8-0.7c0.2-0.1,0.4-0.1,0.6-0.1
	c1.7-0.1,3.3,1.9,4,3.4C54.8,96.6,53.7,98.3,52.3,99.6z"/>
<path class="st2" d="M52.3,99.6c0.1,0.2,0,0.3-0.1,0.4c-2.8,1.3-3.1,8.5-6.9,7.2c-0.2-0.1-0.4-0.3-0.5-0.5c-0.7-0.4-1.4-0.6-2.2-0.7
	c-0.3,0-0.6-0.1-1-0.2c-0.7-0.4-1.2-1.1-1.5-1.9c-0.3-0.8-0.2-1.8,0-2.8c0.2,0.6,0.3,1.3,0.7,1.8c0.7,1.3,2.3,1.5,3.6,1.3
	c1.3-0.2,3.1-0.6,2.8-2.2c-0.1-0.4-0.3-0.9-0.2-1.3c0.3-1.1,1.6-1.4,2.3-2.2c1.9-2,1.8-5.1,0.1-7.1c-0.1,0-0.1,0-0.1,0
	c0.2-0.1,0.4-0.1,0.6-0.1c1.7-0.1,3.3,1.9,4,3.4C54.8,96.6,53.7,98.3,52.3,99.6z"/>
<path class="st1" d="M45.1,105.4c-0.2,0.3-0.6,0.2-0.7-0.1c-0.1-0.7-0.2-1.3-0.1-2c0-0.3,0.3-0.4,0.5-0.3c0.1,0,0.2,0.1,0.3,0.2
	C45.5,103.9,45.5,104.7,45.1,105.4z"/>
<path class="st1" d="M47.9,103.8c0.1,0.3-0.3,0.5-0.5,0.4c-0.6-0.3-1.1-0.8-1.4-1.3c-0.2-0.4,0.3-0.7,0.5-0.5c0.1-0.1,0.3-0.1,0.4,0
	C47.4,102.7,47.7,103.2,47.9,103.8z"/>
<path class="st1" d="M52.1,96.2c-0.1,0.5-0.6,0.7-1,0.7c-0.5,0-0.9-0.4-1.2-0.7c-0.1-0.1-0.1-0.3,0-0.4c-0.1,0-0.1,0-0.1,0
	c-0.3,0-0.5-0.3-0.4-0.6c0.4-0.8,1.2-1.3,2.1-1.3c0.3,0,0.5,0.4,0.3,0.6c-0.4,0.4-0.8,0.7-1.3,1c0.5,0,0.9,0.1,1.3,0.3
	C52,95.8,52.1,96,52.1,96.2z"/>
<path class="st2" d="M44.2,100.3c-0.4,0.4-1.4,1.8-2,0.8c-0.2-0.3-0.2-0.8,0.1-1c0.2-0.3,0.6-0.4,0.9-0.4c0.3-0.1,0.6-0.2,0.9-0.1
	C44.3,99.7,44.4,100.1,44.2,100.3z"/>
<path class="st2" d="M47.1,96.8c-0.1,0.1-0.1,0.1-0.2,0.1c-0.1,0.3-0.6,0.3-0.6-0.1c-0.1-0.7-0.2-1.4-0.1-2.1
	c0.1-0.4,0.5-0.5,0.7-0.2C47.4,95.2,47.4,96,47.1,96.8z"/>
<path class="st1" d="M46.1,98.8c0-0.1,0-0.2-0.1-0.3c-0.2-0.5,0.6-0.7,0.7-0.2c0.1,0.1,0.1,0.2,0.1,0.3C47,99.1,46.3,99.3,46.1,98.8
	z"/>
<path class="st1" d="M108.8,71.8c0.3,4.8-4.1,4.6-6.3,7.8c-0.7,1-1.4,1.9-2.2,2.6c-1.6,1.6-3.5,2.4-6.3,2.3c-5-0.3-7.4-3.9-10.9-6.8
	c-2.4-2-5.7-1.1-8.5-2.4c-1.8-0.8-3.3-2-4.4-3.6c-0.4-0.6-0.9-2-1.4-2.3c-1.7-1.3-3.8,0.1-5.3,0.7c-2.5,1.1-4.5,2.3-7.3,2.8
	c-1.1,0.2-2.2,0.1-3.3,0.3c-2.1,0.3-1.4-0.4-2.2,1.8c-0.8,2.2-0.9,4-2.6,5.8c-2.2,2.5-5.2,3.5-8.4,2.8c-1.4,2.9-4.9,4.1-7.8,2.4
	c-1.3,3.6-4.2,6.4-8.1,7.1c-4.5,0.8-9.1,1.6-13.4-0.7c-2.4-1.2-4.6-3.3-6-5.7c-0.8-1.3-1.3-2.8-1.5-4.2c-1.1-0.1-2.1-0.5-2.8-1.4
	c-0.2-0.2-0.1-0.6,0.2-0.6c0.7,0.1,1.3,0.1,1.9,0.2c-0.5-0.9-0.6-2-0.6-3c-0.5-0.7,0.2-1.7,1-1.5c0.4-0.1,0.8,0.1,0.9,0.6
	c0.1,0,0.1,0,0.2,0.1c0.8-1.7,2-3.2,3.5-4.6c-1-2-1.2-4.5-1.5-6.8c-0.6-4.1,0.9-6.1,4.5-7.8c0.1,0,0.1,0,0.1,0
	c0.1-0.3,0.2-0.6,0.3-0.9c-1-0.1-1.9-0.7-2.4-1.6c-0.1-0.1-0.1-0.3,0-0.4c0-0.1,0.1-0.2,0.3-0.2c0.9,0.1,1.8,0.4,2.5,1
	c0.1-0.5,0.3-0.9,0.5-1.3c-0.9-1.4-1.1-3-0.6-4.6c0.1-0.7,0.4-1.3,1-1.5c0.1-0.1,0.3-0.1,0.4-0.1c0,0.1,0,0.1,0.1,0.1
	c0,0.1,0,0.1,0.1,0.1c0.3,0.2,0.5,0.4,0.7,0.7c0.1-0.3,0.2-0.7,0.4-1c0.1-0.3,0.5-0.2,0.6,0.1c0.1,0.2,0.2,0.4,0.2,0.6
	c3.1-4.3,7.7-6.4,14.8-4.6c2.1,0.5,3.5,0.4,4.7-0.2c-0.7-0.5-1.4-1.2-2-2c-0.9-0.5-0.4-2.1,0.7-1.8c1.5,0.4,2.7,1.2,3.6,2.3
	c0.4-0.2,0.8-0.5,1.2-0.8c1.8-1.5,3.9-2.7,6.1-3.5c0.5-1,1.1-1.9,1.9-2.6c0.6-0.7,1.6-1.9,2.6-1.3c0.8,0.5,0.8,1.6,0.5,2.5
	c1.1-0.2,2.2-0.3,3.3-0.4c1.1,0,2.1-0.1,3.1-0.3c0.2-0.8,0.5-1.7,1.3-2.3c0.3-0.2,0.8-0.5,1.2-0.3c0.4,0.2,0.2,0.8,0.1,1.2
	c0,0.2-0.1,0.6-0.3,1c1.5-0.4,3-0.9,4.6-1.6c0.4-0.2,0.8-0.4,1.3-0.5c0.2-0.4,0.4-0.8,0.6-1.1c0.1-0.3,0.5-0.6,0.9-0.3
	c0.2,0.3,0.2,0.5,0.2,0.8c3.6-1.1,7.6-1.2,11.2,0.2c0.8,0.3,1.6,0.6,2.3,1.1c0.1-0.7,0.2-1.2,0.6-1.8c0.1-0.2,0.5-0.3,0.6,0
	c0.3,0.6,1.2,2.3,0.4,2.9c0.6,0.4,1.1,0.9,1.6,1.4c1.3,1.4,2.5,2.3,3.7,3.1c0-0.1,0-0.3,0.1-0.5c0-0.6,0.1-1.2,0.6-1.7
	c0.1-0.2,0.4-0.3,0.5-0.1c0.3,0.3,0.5,0.6,0.8,1c0.1,0.1,0.2,0.2,0.3,0.3c0.4,0.6,0.7,1.2,0.8,1.9c0.2-0.6,0.6-1.1,1.1-1.6
	c0.2-0.2,0.5-0.1,0.6,0.1c0.2,1,0,1.9-0.4,2.6c0.1,0.1,0.3,0.1,0.4,0.2c2.9,0.8,5.9,2.4,8.2,4.5c0.1-0.1,0.2-0.3,0.3-0.4
	c0.1-0.1,0.2-0.2,0.3-0.3c0,0,0,0,0.1-0.1c0.3-0.4,0.7-0.7,1.2-0.6c0.2,0.1,0.3,0.3,0.3,0.5c-0.1,0.5-0.5,1.4-1.1,1.9
	c0.6,0.7,1.1,1.3,1.6,2c-0.1-1,1.5-1.3,1.9-0.2c0.4,1.3,0.2,2.7-0.5,3.9c0.2,1.7-0.1,3.6-1.2,5.6c0.8,0.9,1.7,1.9,2.6,3
	c0.9,0.7,1.9,1.4,2.9,2.1c0.8,0.5,1.9,1.3,1,2.4c-0.1,0.2-0.3,0.3-0.5,0.4C108,68.4,108.7,70.1,108.8,71.8z"/>
<path class="st2" d="M96.6,84.8c0.4,0.3,0,0.7-0.3,0.7c-0.9-0.2-1.8-0.5-2.5-1c-4.9-0.4-7.3-3.9-10.7-6.8c-0.8-0.7-1.8-1-2.7-1.2
	c0,0.4,0,0.8-0.1,1.2c-0.1,0.2-0.4,0.3-0.6,0.1c-0.5-0.4-0.7-1-0.6-1.6C78,76.1,77,76,75.9,75.8c0.1,0.3,0.2,0.7,0.1,1.1
	c0,0.2-0.5,0.3-0.6,0.1c-0.5-0.6-1-1.3-1.3-2c-1.6-0.8-2.9-1.9-3.9-3.3c-0.4-0.6-0.9-2-1.4-2.3c-1.7-1.3-3.8,0.1-5.3,0.7
	c-0.1,0-0.1,0-0.2,0.1c0,0.3-0.1,0.5-0.2,0.7c-0.1,0.3-0.5,0.4-0.7,0.1c-0.1-0.1-0.1-0.2-0.1-0.3c-0.4,0.1-0.8,0.3-1.1,0.4
	c0.1,0.1,0.2,0.1,0.2,0.1c0.2,0.2,0.4,0.4,0.4,0.7c0,0.2-0.2,0.4-0.5,0.4c-0.5-0.1-0.9-0.3-1.3-0.6c-1.2,0.5-2.4,0.9-3.8,1.2
	c-1.1,0.2-2.2,0.1-3.3,0.3c-2.1,0.3-1.4-0.4-2.2,1.8s-0.9,4-2.6,5.8c-1.1,1.3-2.5,2.2-4,2.7c-0.1,0.4-0.4,0.8-0.7,1.2
	c-0.1,0.2-0.3,0.2-0.5,0.1c-0.1,0-0.3-0.1-0.4-0.3c-0.1-0.2-0.1-0.4-0.1-0.7c-0.9,0.1-1.8,0-2.7-0.2c-1.4,2.9-4.9,4.1-7.8,2.4
	c-0.6,1.5-1.3,2.8-2.3,3.9c0,0.4,0,0.8,0,1.3c0,0.3-0.2,0.4-0.4,0.4c-0.1,0.1-0.1,0.1-0.2,0.1c-0.4,0.1-0.7-0.2-0.8-0.5
	c-1.3,0.9-2.7,1.6-4.4,1.9c-0.4,0.1-0.8,0.1-1.3,0.2c-0.4,0.7-0.9,1.2-1.7,1.5c-0.1,0.1-0.2,0.1-0.3,0c-0.3,0.1-0.7-0.1-0.5-0.4
	c0.1-0.3,0.2-0.5,0.3-0.7c-3.4,0.4-6.7,0.4-9.9-1.3c-2.4-1.2-4.6-3.3-6-5.7c4.3,1.9,9.2,3.1,13.7,0.9c5.4-2.6,5.6-8.4,5.3-13.6
	c-0.5-0.6-1-1.2-1.3-1.9c-0.5-1.2,1.2-2.1,1.7-1c0.3,0.7,0.8,1.3,1.3,1.8c3.8,1.9,4.9-0.4,7.7-1.8c0.6-0.3,1.3-0.6,2-0.8
	c-0.8-0.3-1.4-0.9-1.9-1.7c-0.6-1.1,4.6,0.4,6.1-0.7c1.8-2.6,1.7-5.6,4.3-7.9c0.4-0.3,1-0.4,1.4,0c2.1,2.1,4.4,2.7,6.7,2.3
	c0.1-0.1,0.2-0.1,0.4-0.2c0.9-0.2,3.6-1.4,2.1-2.7c-0.3-0.2-0.3-0.5-0.3-0.7c-0.3-1,1.1-1.9,1.7-0.8c0.6,1,1.6,1.3,2.7,1.3
	c1.7-1.3,3.2-2.7,4.5-3.9c0.3-0.4,1-0.4,1.3,0c1.9,2.3,4.4,2.5,6.7,3.9c1.1,0.7,1.8,1.9,2.7,2.8c0.1,0.1,0.3,0.3,0.4,0.4
	c-0.2-0.6-0.1-1.3,0.3-1.9c0.2-0.3,0.7-0.1,0.7,0.2c0.1,0.1,0.1,0.1,0.2,0.2c0.1,0.4,0.1,0.8,0.1,1.2c0,0.6,0.3,1,0.7,1.5
	c0.4,0.4,0.9,0.9,1.5,1.1c0.6-0.1,1-0.4,1.1-1c0,0,0,0,0-0.1c-0.1-1,1-1.2,1.6-0.7c0.2,0.2,0.3,0.4,0.3,0.7c0,0,0,0,0,0.1
	c0.1,0.9-0.3,1.7,0.4,2.4c0.1,0.1,0.3,0.2,0.4,0.4c2.4,0.6,5,0.7,7.5,0.2c0.6-0.1,1.2,0.2,1.2,0.9c-0.1,4.6,0.1,9.2,5.1,10.9
	c1.5,0.5,3.3,0.8,4.6,2c0.5,0.5,0.8,1.1,1,1.7c-1.1,1.2-2.5,1.9-4.3,2.2C96.2,84.5,96.4,84.7,96.6,84.8z"/>
<path class="st2" d="M22.6,58.8c-1.3-0.8-2.2-2-2.6-3.5c-0.1-0.4,0-0.6,0.1-0.8c0.2-0.6,1-1.1,1.7-0.5c1.1,1.1,1.8,2.3,2.3,3.7
	C24.3,58.5,23.3,59.3,22.6,58.8z"/>
<path class="st2" d="M43.7,53.4c-0.4,0.9-1.7,0.4-1.8-0.5c-0.1-1.1,0.1-2.1,0.4-3.1c0.4-1.2,2.1-0.8,1.9,0.3
	C44.4,51.3,44.3,52.3,43.7,53.4z"/>
<path class="st2" d="M16.4,69.1c-1.2-0.1-2.1-0.6-2.8-1.6c-0.1-0.1-0.2-0.3-0.2-0.5c-1.2-0.2-1.2-2,0.1-1.9c1.6,0.1,3,1,3.8,2.5
	C17.6,68.2,17.2,69.1,16.4,69.1z"/>
<path class="st1" d="M68.7,60.1c0,0.3-0.3,0.3-0.5,0.2c-0.3-0.1-0.5-0.3-0.6-0.4c0-0.1,0-0.1-0.1-0.1c-0.6-0.8-0.5-2.1-0.1-3.1
	c0.1-0.4,0.8-0.2,0.7,0.2c0,0,0,0,0,0.1c0.1,0,0.1,0,0.2,0.1C68.8,58,68.9,59,68.7,60.1z"/>
<path class="st1" d="M61.6,58.3c0,0.2-0.2,0.5-0.5,0.4c-0.7-0.2-1.3-0.7-1.6-1.3c-0.2-0.4,0.2-0.7,0.5-0.6
	C60.7,56.9,61.4,57.5,61.6,58.3z"/>
<path class="st1" d="M55.3,61.7c-0.5,0.1-1,0-1.4-0.2c0,0.9-0.1,1.7-0.4,2.5c-0.1,0.2-0.3,0.4-0.5,0.2c-1.3-0.8-1.3-2.3-0.9-3.6
	c0.1-0.4,0.7-0.3,0.7,0.1c0,0.1,0,0.1,0,0.1c0.1-0.1,0.2-0.1,0.3-0.1c0-0.1,0-0.1,0-0.2c0-0.2,0.2-0.3,0.4-0.3c0.1,0,0.1,0,0.1,0
	c0.1,0,0.1,0,0.1,0c-0.3-0.3-0.6-0.5-0.9-0.7c-0.4-0.3-0.1-0.9,0.3-0.7c0.9,0.7,1.7,1.4,2.4,2.3C55.7,61.3,55.5,61.6,55.3,61.7z"/>
<path class="st1" d="M35.6,71.3c-1.1,0.4-2.4,0.3-3.4-0.4c-0.3-0.2-0.2-0.6,0-0.7c-0.3-0.2-0.1-0.7,0.3-0.6c1.1,0.2,2.1,0.5,3.1,0.9
	C36,70.7,35.9,71.1,35.6,71.3z"/>
<path class="st1" d="M38,70.2c-0.9-0.5-1.6-1.2-2.2-2c-0.2-0.4,0.4-0.7,0.7-0.4c0.1-0.2,0.4-0.4,0.6-0.1c0.5,0.5,1,1.2,1.4,1.9
	C38.6,70,38.3,70.4,38,70.2z"/>
<path class="st1" d="M24.4,80.3c-1.1-0.4-1.7-1.3-1.9-2.5c0-0.2,0.1-0.3,0.3-0.4c-0.1-0.1-0.3-0.3-0.4-0.4c-0.3-0.4,0.3-0.9,0.6-0.5
	c0.8,1,1.4,2.1,1.9,3.4C25,80.1,24.7,80.4,24.4,80.3z"/>
<path class="st1" d="M8.7,88.4c-1.2,0.5-2.5,0.4-3.5-0.5c-0.3-0.1-0.1-0.5,0.1-0.6c0.7-0.2,1.5-0.4,2.2-0.6c0.3,0,0.5,0.3,0.4,0.6
	c0.3,0.1,0.6,0.2,0.8,0.5C8.9,87.9,8.9,88.3,8.7,88.4z"/>
<path class="st1" d="M17,89.1c-0.1,0.3-0.3,0.6-0.6,0.7c-0.1,0-0.1,0-0.1,0c-0.1,0.1-0.1,0.1-0.2,0.2c-0.2,0.2-0.6,0.2-0.7-0.1
	c0-0.3,0-0.5,0-0.8c-0.1-0.4,0-0.9,0-1.2c0-0.4,0.4-0.5,0.6-0.3c0.1,0,0.3-0.1,0.4,0c0.1-0.3,0.2-0.6,0.3-0.9c0.1-0.3,0.7-0.4,0.7,0
	C17.7,87.6,17.4,88.4,17,89.1z"/>
<path class="st1" d="M84.5,66.9c-0.1,0.7-0.3,1.5-0.6,2.2c-0.1,0.3-0.4,0.4-0.6,0.2c-1-0.9-0.3-2.2,0.4-3c0.2-0.3,0.6-0.1,0.6,0.2
	C84.4,66.5,84.5,66.7,84.5,66.9z"/>
<path class="st1" d="M90.5,72.2c-0.3,0.5-0.7,1-1,1.4c-0.2,0.1-0.4,0.1-0.6,0c-0.3-0.4-0.4-0.9-0.1-1.3c0.2-0.5,0.7-0.7,1.2-0.7
	c0.1,0,0.2,0,0.3,0.1C90.5,71.8,90.6,72,90.5,72.2z"/>
<path class="st1" d="M94.9,79.4c0.1,0.2-0.2,0.4-0.4,0.3c-0.6-0.2-0.9-0.7-1.1-1.3c-0.3-1-0.5-2.1-0.6-3.2c-0.1-0.4,0.7-0.4,0.7,0
	c0.1,0.6,0.2,1.2,0.3,1.9c0.2-0.1,0.3,0,0.4,0.1C94.6,77.9,94.9,78.6,94.9,79.4z"/>
<path class="st2" d="M56.4,48.4c-0.2,0.3-0.6,0.1-0.6-0.2c-0.1-0.1-0.1-0.2-0.1-0.3c-0.6-0.9-0.8-1.9-0.7-3c0.1-0.4,0.2-1.7,1-1.6
	c0.7,0.1,1,1.8,1.1,2.3C57.2,46.6,57,47.5,56.4,48.4z"/>
<path class="st2" d="M61.5,45.6c-0.2,0.1-0.5,0-0.6-0.3c0-0.1,0-0.2,0.1-0.3c0-0.1,0-0.1,0.1-0.1c0.5-1.3,1.6-2.3,2.9-2.6
	c0.3-0.1,0.5,0.1,0.5,0.3C64.5,44.3,63.2,45.6,61.5,45.6z"/>
<path class="st2" d="M74.1,54.2c-0.1,0.2-0.4,0.4-0.6,0.3c-0.4-0.3-0.6-0.8-0.6-1.2c-0.1-0.1-0.1-0.1-0.1-0.1
	c-0.3-1.2-0.1-2.3,0.7-3.3c0.1-0.2,0.4-0.2,0.6,0C74.9,51.3,74.6,52.8,74.1,54.2z"/>
<path class="st2" d="M85.1,43.9c-0.1,0.5-0.6,0.9-1,1.1c-0.7,0.4-3.5,2-3.8,0.4c0-0.3,0.1-0.6,0.4-0.8c0.2-0.5,0.6-0.9,1.2-1.1
	c0.7-0.3,1.8-0.4,2.5-0.4C84.9,43.1,85.2,43.3,85.1,43.9z"/>
<path class="st2" d="M92.3,54c-1.3,0.4-2.6,0.1-3.7-0.7c-0.1-0.1-0.2-0.3-0.2-0.4c-0.2-0.4,0.1-1,0.6-1.1c1.2-0.1,2.4,0.2,3.5,0.8
	C93.1,52.9,92.8,53.7,92.3,54z"/>
<path class="st2" d="M96.2,64.2c-0.1,0.6-0.3,1.1-0.7,1.5c-0.1,0.1-0.1,0.1-0.2,0.2c-0.5,0.4-1.3,0.2-1.3-0.5c0-0.7,0.1-1.3,0.3-1.9
	c0.2-0.6,0.7-1.3,1.4-0.9C96.3,62.9,96.3,63.7,96.2,64.2z"/>
<path class="st1" d="M100.5,70.8c-0.6,0.1-1.2,0.1-1.8-0.1c-0.4-0.2-0.6-0.5-0.5-1c0-0.1,0-0.1,0-0.2c0-0.5,0.3-0.8,0.7-0.8
	c0.7,0,1.5,0.3,2,0.8C101.2,69.9,101.1,70.7,100.5,70.8z"/>
<path class="st2" d="M79,104.6c-0.1,0-0.3-0.1-0.4-0.2c-3.5,3.8-7.9,6.5-12.9,8.1c-1.3,11.6-0.5,31.6,1,43.1c0.1,0.6-0.4,1.2-1,1.2
	c-2,0.1-3.7-0.1-5.6-0.5c-0.7-0.2-0.8-0.8-0.6-1.3c-0.1-12.6,0.2-32.9,1.5-45c0.3-2.3,0.5-4.8,0.6-7.2c-4.8-0.1-9.2-1.9-12.7-5.2
	c4.9,2.7,8.5,3.1,12.8,3.2c0.1-3.7-0.2-7.5-1.3-11c-2.1-6.6-7.1-11.7-11.8-16.6c-0.9-0.9,4.9,2.3,6.6,4.3c0.1-2.4,0-4.8-0.1-7.1
	c-0.1-1.3,2,9.3,1.9,9.4c1.6,1.9,2.9,4,4,6.3c0.6,1.3,1.1,2.6,1.4,4c0.6-7.9,5.7-27.2,5.6-25.9c-0.6,8.2-2.6,16.1-2.3,23.3
	c0.3,6.5,1.2,12.7,0.6,19.2c-0.1,1.2-0.1,1.6-0.3,2.8c2-0.6,5.5-2.3,5.8-2.6c1.6-1.4,2.4-3.5,2.1-5.6c-0.2-1.2,2,2.2,1.6,3.5
	c2-1.9,3.8-4,5.3-6.5c0.6-1.1,0.2,3.2-0.7,4.3c4.3-0.1,8.6-0.6,12.8-1.7C94.1,100.5,83.9,104.6,79,104.6z"/>
<path class="st3" d="M188.2,143.9c-0.7,0.4-1.8,0.3-2.6,0.2c-0.1,0-0.1,0-0.1,0c-0.6,0.3-1.2,0.6-1.8,0.9c0.7,0,1.3,0.1,2,0.4
	c0.6,0.3,1.7,1.1,1.1,1.7c-0.7,0.8-3.4-0.2-4.5-1c-0.8,0.7-1.5,1.4-2.1,2.2c0.6-0.1,1.2,0,1.9,0.1c0.7,0.2,1.8,0.9,1.3,1.6
	c-0.5,0.8-2.9,0.3-4.3-0.4c-0.5,0.8-1,1.6-1.4,2.5c0.6-0.2,1.2-0.3,1.8-0.2c0.7,0,2,0.4,1.7,1.1c-0.4,1-2.9,1-4.3,0.7
	c-0.4,0.9-0.7,1.6-1.1,2.4c0.6-0.3,1.3-0.5,2-0.6c0.7-0.1,2,0.1,1.8,0.9c-0.2,1.1-3.1,1.5-4.4,1.3c-0.2,0.2-0.8-0.1-0.7-0.4
	c0-0.1,0-0.1,0.1-0.2c-0.5-0.3-0.8-0.7-1.1-1.2c0,0,0,0,0,0.1c0,1.1-2.6,1.9-4,1.9c-0.2,0.2-0.5,0.1-0.6-0.1
	c-0.2-0.1-0.4-0.3-0.7-0.6c-0.3,0.3-0.5,0.5-0.7,0.6c-0.1,0.2-0.4,0.3-0.6,0.1c-1.4,0-4-0.8-4-1.9c-0.1-0.8,1.2-0.8,1.9-0.6
	c0.6,0.1,1.2,0.4,1.7,0.8c-0.1-0.5-0.2-0.9-0.3-1.3c-1-0.1-2.5-0.5-3.4-1.1c0.1,0.5-0.1,1.1-0.1,1.4c-0.2,0.8-0.6,1.5-1.3,1.9
	c0.1,0.1,0.1,0.1,0.1,0.2c0.1,0.3-0.4,0.6-0.6,0.4c-1.4,0.2-4.3-0.2-4.5-1.3c-0.2-0.8,1.1-1,1.8-0.9c0.7,0.1,1.4,0.3,2,0.6
	c-0.3-0.8-0.7-1.5-1.1-2.4c-1.4,0.3-3.9,0.3-4.3-0.7c-0.2-0.7,1-1.1,1.7-1.1c0.6-0.1,1.2,0,1.8,0.2c-0.4-0.9-0.9-1.7-1.4-2.5
	c-1.4,0.7-3.8,1.2-4.3,0.4c-0.5-0.7,0.6-1.4,1.3-1.6c0.7-0.1,1.3-0.2,2-0.1c-0.7-0.8-1.4-1.5-2.2-2.2c-1.1,0.8-3.8,1.8-4.5,1
	c-0.6-0.6,0.5-1.4,1.1-1.7c0.7-0.3,1.3-0.4,2-0.4c-0.5-0.3-1.1-0.6-1.8-0.9c0,0,0,0-0.1,0c-0.8,0.1-1.9,0.2-2.6-0.2
	c-0.6-0.3-0.9-1.2-0.9-1.9c0-0.1,0.1-0.2,0.2-0.3c0.7-0.2,1.7-0.1,2.3,0.1c0.8,0.3,1.2,0.9,1.6,1.7c0.4,0.2,0.8,0.4,1.2,0.6
	c-0.1-0.4-0.2-0.9-0.2-1.4c0-0.4,0.1-1.8,0.9-1.6c0.6,0.1,1.1,1.4,1.3,2c0.2,0.7,0.1,1.5-0.3,2.2c0.7,0.6,1.4,1.3,2,2
	c-0.1-0.5-0.1-0.9,0-1.3c0.1-0.5,0.3-1.9,1.1-1.6c0.6,0.3,0.9,1.6,1,2.2c0.1,0.8,0,1.7-0.6,2.3c0.1,0.1,0.1,0.2,0,0.3
	c0.5,0.7,0.9,1.3,1.3,2c0,0.1,0,0.1,0,0.1c0.1-0.5,0.2-0.9,0.3-1.4c0.2-0.4,0.7-1.7,1.4-1.2c0.6,0.3,0.5,1.7,0.5,2.3
	c-0.1,0.8-0.4,1.6-1.1,2.1c0,0.1,0,0.2,0,0.3c0.3,0.5,0.5,1.1,0.7,1.6c0.1-0.4,0.3-0.8,0.5-1.1c0.2-0.3,0.7-1.2,1.3-1.1
	c0.2-0.7,1.3-0.6,1.9-0.5c0.6,0.2,1.2,0.5,1.7,0.8c-0.3-1.1-0.5-2.1-0.8-3.1c-1.3,0-4.2-0.9-4.2-2c0-0.8,1.3-0.8,1.9-0.6
	c0.7,0.2,1.4,0.5,1.9,1c-0.2-0.9-0.4-1.7-0.7-2.6c-1.4,0.1-3.9-0.3-4.1-1.3c-0.1-0.8,1.1-1,1.8-0.9c0.7,0.1,1.3,0.2,1.8,0.5
	c-0.3-0.9-0.7-1.8-1.1-2.7c-1.4,0.5-3.9,0.6-4.3-0.3c-0.3-0.8,0.9-1.2,1.6-1.3c0.7-0.1,1.3,0,2,0.1c-0.5-0.9-1.1-1.7-1.8-2.5
	c-1.3,0.7-4.1,1.3-4.7,0.4c-0.4-0.8,0.7-1.4,1.4-1.5c0.7-0.2,1.3-0.2,2-0.1c-0.5-0.5-1-0.9-1.6-1.3c0,0.1,0,0.1-0.1,0.1
	c-0.8,0-1.9-0.1-2.5-0.6c-0.5-0.5-0.8-1.4-0.6-2c0-0.1,0.1-0.2,0.3-0.3c0.6-0.1,1.6,0.1,2.2,0.4c0.8,0.4,1.1,1.2,1.3,1.9
	c0,0.1,0,0.1,0,0.1c0.4,0.3,0.8,0.5,1.1,0.8c-0.1-0.5-0.1-0.9,0-1.4c0.1-0.5,0.4-1.9,1.2-1.5c0.6,0.2,0.8,1.6,0.9,2.1
	c0.1,0.8-0.1,1.6-0.6,2.2c0.7,0.7,1.2,1.5,1.7,2.2c0-0.4,0.1-0.8,0.2-1.2c0.1-0.5,0.6-1.8,1.3-1.4c0.6,0.3,0.6,1.7,0.6,2.3
	c0.1,0.9-0.3,1.6-0.9,2.2c0,0.1,0,0.2,0,0.3c0.3,0.7,0.6,1.4,0.9,2.1c0,0.1,0,0.1,0,0.2c0.1-0.5,0.3-0.9,0.5-1.3
	c0.3-0.5,1-1.6,1.6-1.1c0.5,0.4,0.2,1.8,0.1,2.4c-0.2,0.8-0.6,1.5-1.4,1.9c0,0.1,0,0.2-0.1,0.3c0.2,0.5,0.4,1.1,0.5,1.7
	c0.2-0.3,0.4-0.7,0.6-1c0.3-0.4,1.2-1.4,1.8-0.8c0.4,0.5-0.1,1.9-0.3,2.4c-0.3,0.7-0.8,1.3-1.5,1.6c0.3,1,0.5,2,0.7,3
	c0.1-0.5,0.4-0.9,0.7-1.3c0,0,0,0,0.1-0.1c0-0.3,0.1-0.5,0.2-0.6c0.2-0.3,0.4-0.3,0.7-0.2c0.3-0.1,0.5-0.1,0.7,0.2
	c0.1,0.1,0.2,0.3,0.2,0.6c0.1,0.1,0.1,0.1,0.1,0.1c0.3,0.4,0.6,0.8,0.7,1.3c0.2-1,0.4-2,0.7-3c-0.7-0.3-1.2-0.9-1.5-1.6
	c-0.2-0.5-0.7-1.9-0.3-2.4c0.6-0.6,1.5,0.4,1.8,0.8c0.2,0.3,0.4,0.7,0.6,1c0.1-0.6,0.3-1.2,0.5-1.7c-0.1-0.1-0.1-0.2-0.1-0.3
	c-0.8-0.4-1.2-1.1-1.4-1.9c-0.1-0.6-0.4-2,0.1-2.4c0.6-0.5,1.3,0.6,1.6,1.1c0.2,0.4,0.4,0.8,0.5,1.3c0-0.1,0-0.1,0-0.2
	c0.3-0.7,0.6-1.4,0.9-2.1c0-0.1,0-0.2,0-0.3c-0.7-0.6-1-1.3-0.9-2.2c0-0.6,0-2,0.6-2.3c0.7-0.4,1.2,0.9,1.3,1.4
	c0.1,0.4,0.2,0.8,0.2,1.2c0.5-0.7,1-1.5,1.7-2.2c-0.5-0.6-0.7-1.4-0.6-2.2c0.1-0.5,0.3-1.9,0.9-2.1c0.8-0.4,1.1,1,1.2,1.5
	c0.1,0.5,0.1,0.9,0,1.4c0.3-0.3,0.7-0.5,1.1-0.8c0,0,0,0,0-0.1c0.2-0.7,0.5-1.5,1.3-1.9c0.6-0.3,1.6-0.5,2.2-0.4
	c0.2,0.1,0.3,0.2,0.3,0.3c0.2,0.6-0.1,1.5-0.6,2c-0.6,0.5-1.7,0.6-2.5,0.6c-0.1,0-0.1,0-0.1-0.1c-0.6,0.4-1.1,0.8-1.6,1.3
	c0.7-0.1,1.3-0.1,2,0.1c0.7,0.1,1.8,0.7,1.4,1.5c-0.6,0.9-3.4,0.3-4.7-0.4c-0.7,0.8-1.3,1.6-1.8,2.5c0.7-0.1,1.3-0.2,2-0.1
	c0.7,0.1,1.9,0.5,1.5,1.3c-0.4,0.9-2.8,0.8-4.2,0.3c-0.4,0.9-0.8,1.8-1.1,2.7c0.5-0.3,1.1-0.4,1.8-0.5c0.7-0.1,1.9,0.1,1.8,0.9
	c-0.2,1-2.7,1.4-4.1,1.3c-0.3,0.9-0.5,1.7-0.7,2.6c0.5-0.5,1.2-0.8,1.9-1c0.6-0.2,1.9-0.2,1.9,0.6c0,1.1-2.9,2-4.2,2
	c-0.3,1-0.5,2-0.8,3.1c0.5-0.3,1.1-0.6,1.7-0.8c0.7-0.1,1.8-0.2,1.9,0.6c0.4,0.2,0.8,0.8,0.9,1c0.2,0.3,0.4,0.7,0.5,1.1
	c0.2-0.5,0.4-1.1,0.7-1.6c0-0.1,0-0.2,0-0.3c-0.7-0.5-1-1.3-1.1-2.1c0-0.6,0-2,0.5-2.3c0.7-0.5,1.2,0.8,1.4,1.2
	c0.2,0.5,0.3,0.9,0.3,1.4c0,0,0,0,0.1-0.1c0.3-0.7,0.7-1.3,1.2-2c-0.1-0.1-0.1-0.2,0-0.3c-0.6-0.6-0.7-1.5-0.6-2.3
	c0.1-0.6,0.4-1.9,1-2.2c0.8-0.3,1,1.1,1.1,1.6c0.1,0.4,0.1,0.8,0,1.3c0.6-0.7,1.3-1.4,2-2c-0.4-0.7-0.5-1.5-0.2-2.2
	c0.1-0.6,0.6-1.9,1.2-2c0.8-0.2,0.9,1.2,0.9,1.6c0,0.5-0.1,1-0.2,1.4c0.4-0.2,0.8-0.4,1.2-0.6c0.4-0.8,0.8-1.4,1.6-1.7
	c0.6-0.2,1.6-0.3,2.3-0.1c0.1,0.1,0.2,0.2,0.2,0.3C189.1,142.7,188.8,143.6,188.2,143.9z M168.2,153.8c0,0,0,0,0.1-0.1
	c-0.1,0-0.1,0-0.1-0.1c0,0.1,0,0.1-0.1,0.1C168.2,153.8,168.2,153.8,168.2,153.8z M173.5,155.7c-0.1-0.1-0.1-0.3-0.2-0.5
	c0-0.2-0.1-0.7-0.1-1.2c-0.9,0.5-2.2,0.8-3,0.9c-0.1,0.4-0.2,0.8-0.3,1.3c0.5-0.4,1.1-0.7,1.7-0.8
	C172.2,155.2,173.2,155.2,173.5,155.7z"/>
<path class="st1" d="M103.2,26.6c2.1-2.9,4.5-5.6,7-8.2c2.3-2.3,4.9-5.1,8.6-5.9c7.3-1.7,14.4,5.2,18.4,9.1
	c4.6,4.6,8.2,9.9,10.6,15.6c2.5,6.1,3.5,12.5,3,18.9c-1.1,13.1-9.8,28.1-27.4,31.4c-0.5,0.1-3.5,0.2-3.9,0c-6-1.8-11.1-3.8-15.2-6.2
	c-6.4-3.7-10.4-8.5-11.9-15.4C89.3,52.2,94.4,38.3,103.2,26.6z"/>
<path class="st2" d="M121.9,77.5c6.3-2.3,12.6-4.9,16.8-9.4c4.2-4.4,6.2-9.8,7.3-15.2c1.1-5.1,2.1-10.5,1.8-15.7
	c2.5,6.1,3.5,12.5,3,18.9c-1.1,13.1-9.8,28.1-27.4,31.4c-0.5,0.1-3.5,0.2-3.9,0c-6-1.8-11.1-3.8-15.2-6.2
	C110.4,81,116.3,79.6,121.9,77.5z"/>
<path class="st1" d="M152.7,47.7c0.3-0.2,0.8,0.1,0.8,0.4c-0.1,1.9,0.1,4.1-1.5,5.6c-1.2,1.3-3,1.5-4.9,1.7
	c-0.3,0.1-0.5-0.1-0.6-0.2c-0.1-0.1-0.1-0.1-0.2-0.2C144.7,51.5,149.5,49.1,152.7,47.7z"/>
<path class="st1" d="M145.7,29.7c0.3-0.2,0.8,0,0.9,0.3c0.5,1.8,1.3,3.9,0.3,5.7c-0.9,1.5-2.6,2-4.4,2.6c-0.3,0.1-0.5,0-0.6-0.2
	c-0.1,0-0.2,0-0.3-0.1C139.1,34.9,143,31.7,145.7,29.7z"/>
<path class="st1" d="M140.9,21.1c0.3-0.3,0.8,0,0.9,0.3c0.5,1.8,1.2,3.9,0.2,5.6c-0.8,1.5-2.6,2-4.3,2.6c-0.3,0.1-0.5,0-0.7-0.1
	c-0.1-0.1-0.1-0.1-0.2-0.2C134.2,26.2,138.2,23,140.9,21.1z"/>
<path class="st1" d="M135.7,16.8c0.3-0.3,0.8-0.1,0.9,0.2c0.5,1.8,1.3,3.9,0.2,5.7c-0.8,1.5-2.5,2-4.3,2.6c-0.3,0.1-0.5,0-0.7-0.2
	c-0.1,0-0.1,0-0.2-0.1C129,21.9,133,18.7,135.7,16.8z"/>
<path class="st1" d="M128.6,11c0.2-0.3,0.8-0.1,0.9,0.2c0.8,1.7,1.9,3.7,1.2,5.6c-0.6,1.5-2.3,2.2-3.9,3c-0.3,0.1-0.5,0-0.7-0.1
	c-0.1,0-0.2,0-0.3-0.1C122.8,16.8,126.2,13.2,128.6,11z"/>
<path class="st1" d="M101.5,38c-0.1,0.1-0.2,0.1-0.3,0.1c-0.1,0.2-0.3,0.3-0.6,0.2c-1.8-0.6-3.5-1.1-4.4-2.6c-1-1.8-0.2-3.9,0.3-5.7
	c0-0.3,0.5-0.5,0.9-0.3C100.1,31.7,104,34.9,101.5,38z"/>
<path class="st2" d="M106.3,32.5c-0.1,0.1-0.1,0.2-0.2,0.2c-0.2,0.1-0.4,0.2-0.7,0.1c-1.7-0.5-3.5-1.1-4.3-2.5
	c-1.1-1.8-0.3-3.9,0.2-5.7c0.1-0.3,0.6-0.5,0.9-0.3C104.9,26.3,108.9,29.5,106.3,32.5z"/>
<path class="st1" d="M111.5,25c-0.1,0.1-0.2,0.1-0.3,0.1c-0.1,0.2-0.3,0.3-0.6,0.2c-1.8-0.6-3.5-1.1-4.4-2.6c-1-1.8-0.2-3.9,0.3-5.7
	c0.1-0.3,0.5-0.5,0.9-0.2C110.1,18.7,114,21.9,111.5,25z"/>
<path class="st1" d="M117.2,19.6c-0.1,0.1-0.1,0.1-0.2,0.1c-0.2,0.1-0.4,0.2-0.7,0.1c-1.6-0.8-3.3-1.5-3.9-3
	c-0.7-1.9,0.4-3.9,1.2-5.6c0.1-0.3,0.6-0.5,0.9-0.2C116.9,13.2,120.3,16.8,117.2,19.6z"/>
<path class="st1" d="M121,6.5c0.2-0.3,0.7-0.2,0.9,0.1c1.2,1.6,2.7,3.4,2.5,5.3c-0.2,1.6-1.7,2.5-3.2,3.5c-0.2,0.2-0.4,0.1-0.6,0
	c-0.1,0-0.2,0-0.3-0.1C116.7,13.1,119.2,9,121,6.5z"/>
<path class="st1" d="M156,56.1c0.5,0,0.7,0.5,0.5,0.7c-1.2,1.6-2.4,3.6-4.7,4.3c-1.9,0.7-3.6,0.1-5.4-0.4c-0.3-0.1-0.4-0.3-0.4-0.4
	c0-0.1,0-0.2,0-0.3C146.7,56.4,152.4,56.2,156,56.1z"/>
<path class="st2" d="M145.6,63.8c0.4,0,0.6,0.4,0.4,0.7c-1.2,1.6-2.4,3.5-4.7,4.3c-1.9,0.6-3.6,0.1-5.4-0.4
	c-0.3-0.1-0.4-0.3-0.3-0.5c-0.1-0.1-0.1-0.1-0.1-0.2C136.2,64,141.9,63.8,145.6,63.8z"/>
<path class="st1" d="M139,70.8c0.4,0.1,0.3,0.6,0,0.7c-2,1-4.2,2.3-6.7,2.2c-2-0.1-3.2-1.2-4.5-2.3c-0.2-0.2-0.2-0.4-0.1-0.6
	c0-0.1,0-0.1,0.1-0.2C130.5,67.6,135.7,69.5,139,70.8z"/>
<path class="st1" d="M130.6,75.6c0.4,0.1,0.3,0.6,0,0.7c-2,1-4.2,2.3-6.7,2.2c-2-0.1-3.2-1.2-4.5-2.3c-0.2-0.2-0.2-0.4-0.1-0.5
	c0-0.1,0-0.2,0.1-0.3C122.1,72.5,127.3,74.3,130.6,75.6z"/>
<path class="st2" d="M148.2,54.8c0.4-0.1,0.7,0.3,0.6,0.6c-0.8,1.7-1.4,3.8-3.5,4.9c-1.6,1-3.5,0.7-5.4,0.5c-0.3,0-0.4-0.2-0.4-0.4
	c-0.1-0.1-0.1-0.1-0.1-0.2C139.1,56.5,144.6,55.4,148.2,54.8z"/>
<path class="st1" d="M135.7,85.2c0.3,0.1,0.1,0.5-0.1,0.5c-1.7,0.5-3.7,1.1-5.5,0.7c-1.5-0.4-2.2-1.4-2.9-2.4
	c-0.1-0.2,0-0.3,0.1-0.4c0-0.1,0-0.1,0.1-0.2C130.2,81.6,133.6,83.7,135.7,85.2z"/>
<path class="st1" d="M152.5,64.3c0.4-0.1,0.7,0.2,0.6,0.5c-0.6,1.8-1.2,4-3.1,5.2c-1.6,0.9-3.5,0.8-5.4,0.6c-0.3,0-0.4-0.2-0.5-0.3
	c-0.1-0.1-0.1-0.2-0.1-0.3C143.5,66.4,148.9,65,152.5,64.3z"/>
<path class="st2" d="M98.7,46.4c-0.1,0.1-0.1,0.2-0.2,0.2c-0.1,0.2-0.3,0.3-0.6,0.3c-1.9-0.3-3.7-0.5-5-1.7
	c-1.5-1.6-1.3-3.8-1.4-5.6c0-0.3,0.4-0.6,0.8-0.5C95.5,40.6,100.3,43,98.7,46.4z"/>
<path class="st2" d="M95.8,50.7c0,0.1,0,0.2-0.1,0.3c0,0.2-0.1,0.3-0.3,0.4c-1.8,0.5-3.6,1.1-5.4,0.5c-2.3-0.8-3.5-2.8-4.7-4.3
	c-0.2-0.3,0-0.7,0.4-0.7C89.4,46.9,95,47.1,95.8,50.7z"/>
<path class="st1" d="M98.8,72.7c0,0.1,0,0.2,0,0.3c0,0.1,0,0.3-0.3,0.5c-1.6,0.7-3.2,1.5-5.1,1.2c-2.5-0.4-4.1-2.1-5.7-3.5
	c-0.3-0.2-0.2-0.7,0.3-0.7C91.6,69.9,97.2,69.3,98.8,72.7z"/>
<path class="st1" d="M107.9,80c0,0.1,0,0.2,0,0.3c0,0.1,0,0.3-0.3,0.5c-1.6,0.7-3.2,1.5-5.1,1.2c-2.5-0.4-4.1-2.1-5.7-3.5
	c-0.3-0.2-0.2-0.7,0.3-0.7C100.7,77.2,106.3,76.6,107.9,80z"/>
<path class="st2" d="M114.6,84.9c0.1,0.1,0.1,0.2,0,0.3c0.1,0.1,0,0.3-0.2,0.5c-1.6,0.7-3.2,1.6-5.2,1.2c-2.4-0.4-4.1-2.1-5.7-3.5
	c-0.2-0.2-0.1-0.7,0.3-0.7C107.4,82.1,113,81.5,114.6,84.9z"/>
<path class="st1" d="M119,86.1C119.1,86.1,119.1,86.1,119,86.1c0.2,0.2,0.3,0.3,0.2,0.4c-0.6,0.8-1.2,1.7-2.5,2
	c-1.5,0.3-3-0.3-4.4-0.7c-0.3,0-0.4-0.3-0.2-0.4C113.9,86.2,116.8,84.5,119,86.1z"/>
<path class="st1" d="M128.6,87.4c0.2,0.1,0.1,0.4-0.1,0.4c-1.2,0.4-2.5,1-3.8,0.7c-1-0.3-1.5-1.2-2.1-2c0-0.1,0-0.2,0.1-0.3
	c0-0.1,0-0.1,0.1-0.1C124.6,84.5,127.1,86.2,128.6,87.4z"/>
<path class="st2" d="M97.7,60.8c0,0.1,0,0.1-0.1,0.2c0,0.2-0.2,0.3-0.5,0.4c-1.9,0.1-3.7,0.3-5.3-0.7c-2-1.2-2.5-3.4-3.2-5.1
	c-0.1-0.3,0.2-0.7,0.7-0.6C92.8,55.7,98.2,57.1,97.7,60.8z"/>
<path class="st1" d="M97.7,66.8c0,0.1,0,0.1-0.1,0.2c0,0.2-0.2,0.4-0.5,0.4c-1.9,0.1-3.7,0.3-5.3-0.7c-2-1.2-2.5-3.3-3.2-5.1
	c-0.1-0.3,0.2-0.7,0.7-0.6C92.8,61.8,98.2,63.1,97.7,66.8z"/>
<path class="st1" d="M142.9,79.2c0.4,0.2,0.3,0.6,0,0.8c-2,1-4.2,2.3-6.7,2.1c-2-0.1-3.2-1.2-4.5-2.3c-0.2-0.2-0.2-0.4-0.1-0.5
	c0-0.1,0-0.2,0.1-0.3C134.5,76.1,139.6,77.9,142.9,79.2z"/>
<path class="st1" d="M147.4,74.7c0.4,0.1,0.4,0.5,0.1,0.7c-1.7,1.3-3.6,2.9-6,3.1c-2,0.2-3.5-0.7-5-1.6c-0.3-0.2-0.3-0.4-0.2-0.5
	c0-0.1,0-0.2,0-0.3C138.3,72.8,143.8,73.8,147.4,74.7z"/>
<path class="st1" d="M114.3,16.8c0.1-0.2,0.5-0.2,0.6,0c0.9,0.9,2,1.9,2,3.2c0,1-0.8,1.7-1.6,2.3c-0.1,0.2-0.3,0.2-0.4,0.1
	c-0.1,0-0.1,0-0.2,0C112.2,21.1,113.4,18.5,114.3,16.8z"/>
<path class="st1" d="M98.9,45.2c0-0.3,0.4-0.3,0.6-0.2c1.1,0.7,2.6,1.5,3,2.7c0.3,0.9-0.2,1.8-0.8,2.6c-0.1,0.1-0.2,0.2-0.4,0.1
	c0,0.1,0,0.1-0.1,0C98.3,49.8,98.6,47,98.9,45.2z"/>
<path class="st2" d="M114.9,50.5c0.2-0.2,0.5-0.1,0.6,0c0.7,1.1,1.7,2.2,1.5,3.4c-0.2,1-1.1,1.6-2.1,2.2c-0.1,0.1-0.3,0.1-0.4,0
	c-0.1,0-0.1,0-0.2-0.1C112.1,54.6,113.8,52.1,114.9,50.5z"/>
<path class="st1" d="M136.4,35.3c0.4-0.2,0.8,0.1,0.8,0.4c-0.1,1.8,0.1,4-1.4,5.6c-1.3,1.2-3.1,1.4-5,1.7c-0.3,0-0.5-0.1-0.6-0.3
	c-0.1,0-0.1-0.1-0.2-0.2C128.4,39.1,133.2,36.7,136.4,35.3z"/>
<path class="st2" d="M113,31.4c0.2-0.4,0.8-0.4,1.1-0.2c1.9,1.1,4.3,2.3,4.6,4.1c0.3,1.5-1,2.6-2.3,3.9c-0.2,0.2-0.5,0.2-0.8,0.2
	c-0.1,0-0.2,0-0.3-0.1C110.4,38.2,111.9,34,113,31.4z"/>
<path class="st1" d="M132.2,20.3c0.3-0.1,0.7,0.1,0.7,0.4c0.2,1.4,0.7,3.2-0.4,4.3c-0.9,0.9-2.6,0.9-4.2,0.9c-0.2,0-0.4-0.1-0.5-0.3
	c-0.1,0-0.1,0-0.2-0.1C125.7,22.6,129.6,21.1,132.2,20.3z"/>
<path class="st1" d="M132.8,55.1c0.3-0.1,0.7,0.1,0.8,0.4c0.2,1.4,0.6,3.2-0.5,4.3c-0.9,0.9-2.5,0.9-4.1,0.9c-0.3,0-0.5-0.1-0.6-0.3
	c-0.1,0-0.1,0-0.2-0.1C126.3,57.4,130.2,55.9,132.8,55.1z"/>
<path class="st1" d="M140.6,80.7c1.5-0.1,2.9-0.1,4.4,0c1.3,0.1,2.8,0.2,4.1,1.1c2.6,1.9,2.7,5.9,2.8,8.1c0.1,2.7-0.4,5.2-1.3,7.4
	c-1,2.4-2.4,4.4-4.4,5.9c-4,3-10.7,4.3-16.7-0.3c-0.2-0.2-1.1-1.1-1.2-1.3c-1.2-2.3-2.1-4.4-2.6-6.3c-0.8-3-0.7-5.5,0.8-7.7
	C129.5,83,134.8,81,140.6,80.7z"/>
<path class="st2" d="M131.8,99.8c2.5,1.3,5.1,2.6,7.5,2.7c2.5,0.2,4.6-0.6,6.4-1.6c1.8-1,3.6-2.2,4.9-3.6c-1,2.4-2.4,4.4-4.4,5.9
	c-4,3-10.7,4.3-16.7-0.3c-0.2-0.2-1.1-1.1-1.2-1.3c-1.2-2.3-2.1-4.4-2.6-6.3C127.5,97.1,129.6,98.5,131.8,99.8z"/>
<path class="st2" d="M144.6,83.4c-0.1,0-0.1,0-0.1-0.1c-0.1,0-0.3,0-0.3-0.2c-0.4-1-0.8-2-0.6-3c0.4-1.2,1.5-1.7,2.4-2.2
	c0.2-0.1,0.5,0,0.5,0.3C146.7,80.2,146.8,83.2,144.6,83.4z"/>
<path class="st1" d="M135.1,84.6c-0.1,0-0.1,0-0.2-0.1c-0.1,0-0.2,0-0.3-0.2c-0.4-1-0.8-2-0.5-3c0.4-1.2,1.5-1.7,2.4-2.2
	c0.2-0.1,0.4,0,0.4,0.3C137.1,81.4,137.2,84.4,135.1,84.6z"/>
<path class="st1" d="M131.2,86C131.1,86,131.1,86,131.2,86c-0.2,0.1-0.4,0-0.5-0.1c-0.7-0.9-1.3-1.7-1.3-2.7
	c-0.1-1.2,0.9-2.1,1.6-2.9c0.1-0.1,0.4,0,0.5,0.2C132.2,82.3,133.3,85.2,131.2,86z"/>
<path class="st1" d="M146.4,83.9C146.4,83.9,146.4,83.9,146.4,83.9c-0.1-0.2-0.2-0.3-0.1-0.5c0.4-1,0.8-2,1.7-2.5
	c1.1-0.6,2.3-0.2,3.3,0.1c0.2,0,0.3,0.3,0.1,0.5C150.2,83,148.1,85.3,146.4,83.9z"/>
<path class="st1" d="M153.8,86.5c0.2,0,0.3,0.3,0.2,0.4c-0.7,0.8-1.4,1.9-2.5,2.1c-1,0.2-1.9-0.3-2.8-0.8c-0.2,0-0.2-0.1-0.2-0.2
	c0-0.1,0-0.1,0-0.2C149,85.7,151.9,86.1,153.8,86.5z"/>
<path class="st2" d="M152.9,94.7c0.2,0.1,0.3,0.3,0.2,0.5c-0.7,0.8-1.4,1.8-2.6,2.1c-0.9,0.2-1.8-0.3-2.7-0.8
	c-0.2,0-0.2-0.2-0.2-0.3c0,0,0,0,0-0.1C148.1,94,151,94.4,152.9,94.7z"/>
<path class="st1" d="M138.2,103.1c0,0.2-0.1,0.4-0.3,0.4c-1.1-0.2-2.3-0.2-3.1-1.1c-0.7-0.8-0.7-1.8-0.8-2.8c0-0.2,0.1-0.3,0.2-0.3
	c0-0.1,0-0.1,0.1-0.1C136.3,98.6,137.5,101.3,138.2,103.1z"/>
<path class="st2" d="M135.9,106.8c0,0.2-0.3,0.4-0.5,0.4c-1.4-0.2-3-0.3-3.9-1.2c-0.7-0.8-0.5-1.8-0.3-2.8c0-0.1,0.2-0.2,0.3-0.2
	c0.1-0.1,0.1-0.1,0.2-0.1C134.5,102.3,135.4,105,135.9,106.8z"/>
<path class="st2" d="M144.8,105.8c0.2,0.2,0,0.5-0.2,0.6c-1.3,0.4-2.8,1-4,0.6c-1-0.4-1.2-1.4-1.5-2.3c-0.1-0.2,0-0.3,0.1-0.4
	c0-0.1,0-0.1,0.1-0.2C141.7,102.4,143.6,104.4,144.8,105.8z"/>
<path class="st2" d="M151.1,101.1c0.2,0,0.2,0.3,0,0.5c-0.9,0.8-1.9,1.8-3,1.9c-0.9,0-1.4-0.7-2-1.3c-0.1-0.2-0.1-0.3,0-0.4
	c0-0.1,0-0.1,0-0.2C147.4,99.4,149.7,100.4,151.1,101.1z"/>
<path class="st2" d="M137.9,83.6c0.1-0.1,0.4,0,0.5,0.2c0.5,1.2,1.2,2.4,0.9,3.5c-0.3,0.9-1.2,1.2-2.1,1.5c-0.2,0-0.3,0-0.4-0.1
	c-0.1-0.1-0.1-0.1-0.2-0.1C134.8,86.6,136.6,84.8,137.9,83.6z"/>
<path class="st2" d="M130.7,87.9c0.1-0.1,0.4,0,0.5,0.1c0.7,1,1.7,2.2,1.5,3.3c-0.1,0.9-1,1.3-1.8,1.8c-0.1,0.1-0.3,0.1-0.4,0
	c-0.1,0-0.1,0-0.2-0.1C128.2,91.4,129.7,89.3,130.7,87.9z"/>
<path class="st1" d="M146.8,84.5c0.2,0,0.3,0.3,0.3,0.5c-0.2,1.2-0.4,2.6-1.2,3.3c-0.8,0.6-1.7,0.3-2.6,0.1
	c-0.1-0.1-0.2-0.2-0.2-0.3C143,88,143,88,143,87.9C142.5,85.3,145.1,84.7,146.8,84.5z"/>
<path class="st1" d="M143.5,94.8c0.2,0.1,0.1,0.5,0,0.6c-1,0.7-2.1,1.7-3.2,1.6c-0.9-0.1-1.4-0.9-1.9-1.7c-0.1-0.1-0.1-0.3,0-0.4
	c0-0.1,0-0.1,0.1-0.2C139.9,92.5,142.2,93.9,143.5,94.8z"/>
<path class="st2" d="M123.2,70.5c0,0-0.8,79.5,1.8,109.3h-8.9C116.1,179.8,122.6,77.9,123.2,70.5z"/>
<path class="st2" d="M121.6,95.5c-1.3-5-8.6-19.5-8.6-19.5c1.8,4,9.1,13.6,9.1,13.6L121.6,95.5z"/>
<path class="st2" d="M122,107c0,0,5.2-4.9,10.8-9.8c0,0-7.1,10.6-10.4,15.6L122,107z"/>
<path class="st2" d="M122.3,85.5c0,0,4.2-5.7,5.3-8c0,0-4.2,8.5-5,11.5L122.3,85.5z"/>
<path class="st4" d="M153.5,162.2c-1,0.6-2.5,0.5-3.6,0.3c-0.1-0.1-0.1-0.1-0.1-0.1c-0.9,0.4-1.7,0.8-2.5,1.3c1,0,1.9,0.2,2.7,0.6
	c0.9,0.4,2.3,1.4,1.6,2.3c-0.9,1.1-4.7-0.3-6.2-1.5c-1.1,0.9-2,2-2.9,3.1c0.9-0.1,1.7-0.1,2.6,0.2c1,0.3,2.5,1.1,1.9,2.1
	c-0.8,1.1-4.1,0.4-5.9-0.4c-0.7,1.1-1.4,2.2-2,3.3c0.8-0.3,1.6-0.4,2.5-0.3c1,0,2.7,0.5,2.3,1.6c-0.5,1.3-3.9,1.3-5.9,0.9
	c-0.5,1.2-1,2.2-1.5,3.3c0.9-0.5,1.8-0.8,2.8-0.9c0.9-0.1,2.7,0.2,2.5,1.3c-0.3,1.4-4.3,2-6.2,1.7c-0.2,0.4-1,0-0.9-0.4
	c0.1-0.1,0.1-0.2,0.1-0.3c-0.6-0.5-1.1-1-1.4-1.7c0,0.1,0,0.1,0,0.2c0,1.4-3.6,2.5-5.5,2.6c-0.3,0.2-0.7,0.1-0.8-0.2
	c-0.3-0.2-0.6-0.5-1-0.8c-0.3,0.3-0.7,0.6-1,0.8c-0.1,0.3-0.5,0.4-0.7,0.2c-2-0.1-5.5-1.2-5.6-2.6c0-1.2,1.7-1.1,2.7-0.9
	c0.8,0.3,1.6,0.6,2.3,1.1c-0.1-0.6-0.3-1.2-0.4-1.8c-1.4-0.1-3.5-0.6-4.6-1.5c0,0.8-0.1,1.6-0.2,2c-0.3,1.1-0.8,2-1.7,2.6
	c0,0.1,0,0.2,0.1,0.3c0.1,0.4-0.7,0.8-0.9,0.4c-1.9,0.3-5.9-0.3-6.2-1.7c-0.2-1.1,1.5-1.4,2.5-1.3s1.9,0.4,2.8,0.9
	c-0.5-1.1-1-2.1-1.5-3.3c-2,0.4-5.4,0.4-5.9-0.9c-0.4-1.1,1.3-1.6,2.3-1.6c0.9-0.1,1.7,0,2.5,0.3c-0.6-1.1-1.3-2.2-2-3.3
	c-1.8,0.8-5.1,1.5-5.9,0.4c-0.6-1,0.9-1.8,1.9-2.1c0.9-0.3,1.7-0.3,2.6-0.2c-0.9-1.1-1.8-2.2-2.9-3.1c-1.5,1.2-5.3,2.6-6.2,1.5
	c-0.7-0.9,0.7-1.9,1.6-2.3c0.8-0.4,1.7-0.6,2.7-0.6c-0.8-0.5-1.6-0.9-2.5-1.3c0,0,0,0-0.1,0.1c-1.1,0.2-2.6,0.3-3.6-0.3
	c-0.8-0.5-1.3-1.7-1.2-2.6c0-0.1,0.2-0.3,0.3-0.4c0.9-0.3,2.2-0.2,3.1,0.1c1.1,0.4,1.7,1.3,2.2,2.3c0.6,0.3,1.2,0.6,1.7,0.9
	c-0.2-0.6-0.3-1.2-0.3-1.9c0-0.6,0.1-2.6,1.2-2.3c0.9,0.2,1.5,2,1.7,2.8c0.3,1,0.3,2.1-0.3,3c1,0.8,1.9,1.7,2.7,2.7
	c-0.1-0.6-0.1-1.2,0-1.8c0.1-0.6,0.5-2.5,1.5-2.1c0.8,0.3,1.2,2.2,1.4,2.9c0.2,1.2-0.1,2.4-0.9,3.3c0.1,0.1,0.2,0.3,0.1,0.4
	c0.6,0.9,1.2,1.8,1.7,2.7c0,0.1,0,0.1,0,0.1c0.1-0.6,0.2-1.2,0.4-1.9c0.3-0.6,1-2.3,2-1.7c0.7,0.5,0.7,2.4,0.6,3.2
	c-0.1,1.2-0.5,2.2-1.5,2.9c0,0.1,0,0.2,0,0.3c0.3,0.7,0.7,1.5,1,2.2c0.1-0.5,0.3-0.9,0.6-1.4c0.3-0.5,1.1-1.7,1.8-1.6
	c0.3-0.8,1.8-0.8,2.6-0.6c0.9,0.3,1.6,0.6,2.3,1.1c-0.3-1.5-0.6-2.9-1-4.3c-1.9,0-5.7-1.2-5.8-2.6c0-1.2,1.7-1.2,2.7-0.9
	c0.9,0.2,1.8,0.7,2.6,1.3c-0.3-1.2-0.7-2.4-1-3.5c-2,0.1-5.4-0.5-5.6-1.8c-0.2-1.1,1.5-1.4,2.5-1.2c0.8,0.1,1.6,0.3,2.4,0.7
	c-0.4-1.3-0.9-2.5-1.5-3.7c-1.9,0.6-5.3,0.8-5.8-0.4c-0.5-1.1,1.1-1.7,2.1-1.8c0.9-0.1,1.8-0.1,2.7,0.2c-0.7-1.3-1.6-2.4-2.5-3.5
	c-1.7,0.9-5.6,1.8-6.3,0.5c-0.6-1,0.9-1.8,1.9-2c0.9-0.3,1.8-0.3,2.7-0.2c-0.7-0.6-1.4-1.2-2.2-1.7c0,0.1,0,0.1-0.1,0.1
	c-1.1,0-2.6-0.1-3.5-0.8c-0.7-0.6-1-1.9-0.8-2.7c0.1-0.2,0.2-0.3,0.4-0.4c0.9-0.2,2.2,0.1,3,0.5c1.1,0.6,1.5,1.6,1.8,2.7
	c0.5,0.3,1,0.7,1.5,1.1c-0.1-0.6,0-1.2,0.1-1.9c0.1-0.7,0.5-2.5,1.5-2.1c0.8,0.3,1.2,2.2,1.3,3c0.1,1.1-0.1,2.1-0.8,3
	c0.9,0.9,1.6,1.9,2.3,3c0-0.6,0.1-1.2,0.3-1.7c0.1-0.6,0.8-2.4,1.8-1.9c0.7,0.4,0.8,2.4,0.8,3.1c0,1.2-0.4,2.3-1.3,3.1
	c0.1,0.1,0.1,0.3,0,0.4c0.5,0.9,0.9,1.9,1.2,2.9c0.1,0.1,0.1,0.1,0.1,0.2c0.1-0.7,0.4-1.3,0.7-1.8c0.3-0.6,1.3-2.2,2.2-1.4
	c0.6,0.5,0.3,2.4,0.1,3.2c-0.3,1.1-0.9,2.1-2,2.7c0.1,0.1,0.1,0.2,0,0.3c0.2,0.8,0.4,1.6,0.7,2.3c0.2-0.5,0.5-0.9,0.8-1.3
	c0.4-0.5,1.6-2,2.4-1.1c0.5,0.7-0.1,2.5-0.4,3.2c-0.4,1-1.1,1.8-2.1,2.3c0.3,1.3,0.7,2.7,1,4.1c0.2-0.7,0.5-1.3,0.9-1.8
	c0.1,0,0.1-0.1,0.2-0.2c0-0.3,0.1-0.6,0.2-0.8c0.3-0.4,0.7-0.4,1-0.2c0.4-0.2,0.7-0.2,1,0.2c0.2,0.2,0.2,0.5,0.2,0.8
	c0.1,0.1,0.1,0.2,0.2,0.2c0.4,0.5,0.7,1.1,1,1.8c0.3-1.4,0.6-2.8,0.9-4.1c-1-0.5-1.7-1.3-2.1-2.3c-0.3-0.7-0.9-2.5-0.3-3.2
	c0.7-0.9,1.9,0.6,2.3,1.1c0.3,0.4,0.6,0.8,0.9,1.3c0.2-0.7,0.4-1.5,0.6-2.3c0-0.1,0-0.2,0-0.3c-1.1-0.6-1.7-1.6-2-2.7
	c-0.1-0.8-0.5-2.7,0.2-3.2c0.8-0.8,1.8,0.8,2.1,1.4c0.3,0.5,0.6,1.1,0.7,1.8c0.1-0.1,0.1-0.1,0.1-0.2c0.3-1,0.7-2,1.2-2.9
	c-0.1-0.1-0.1-0.3,0-0.4c-0.9-0.8-1.3-1.9-1.3-3.1c0-0.7,0.1-2.7,0.9-3.1c1-0.5,1.6,1.3,1.8,1.9c0.1,0.5,0.2,1.1,0.2,1.7
	c0.7-1.1,1.5-2.1,2.3-3c-0.7-0.9-0.9-1.9-0.7-3c0.1-0.8,0.4-2.7,1.2-3c1.1-0.4,1.5,1.4,1.6,2.1c0.1,0.7,0.1,1.3,0,1.9
	c0.5-0.4,1-0.8,1.5-1.1c0.3-1.1,0.8-2.1,1.8-2.7c0.8-0.4,2.1-0.7,3.1-0.5c0.1,0.1,0.3,0.2,0.3,0.4c0.2,0.8-0.1,2.1-0.8,2.7
	c-0.9,0.7-2.4,0.8-3.5,0.8c0,0,0,0-0.1-0.1c-0.8,0.5-1.5,1.1-2.2,1.7c0.9-0.1,1.8-0.1,2.7,0.2c1,0.2,2.5,1,1.9,2
	c-0.7,1.3-4.6,0.4-6.3-0.5c-0.9,1.1-1.7,2.2-2.4,3.5c0.9-0.3,1.7-0.3,2.6-0.2c1,0.1,2.6,0.7,2.2,1.8c-0.6,1.2-4,1-5.9,0.4
	c-0.5,1.2-1,2.4-1.5,3.7c0.8-0.4,1.6-0.6,2.5-0.7c0.9-0.2,2.7,0.1,2.5,1.2c-0.3,1.3-3.7,1.9-5.7,1.8c-0.3,1.1-0.7,2.3-1,3.5
	c0.8-0.6,1.7-1.1,2.6-1.3c1-0.3,2.7-0.3,2.7,0.9c-0.1,1.4-3.9,2.6-5.8,2.6c-0.3,1.4-0.7,2.8-1,4.3c0.7-0.5,1.4-0.8,2.3-1.1
	c0.9-0.2,2.5-0.2,2.6,0.7c0.6,0.4,1.1,1.2,1.3,1.5c0.3,0.5,0.5,0.9,0.6,1.4c0.3-0.7,0.7-1.5,1-2.2c0-0.1,0-0.2,0-0.3
	c-1-0.7-1.5-1.7-1.5-2.9c-0.1-0.8-0.1-2.7,0.6-3.2c1-0.6,1.7,1.1,1.9,1.7c0.3,0.7,0.4,1.3,0.4,1.9c0.1,0,0.1,0,0.1-0.1
	c0.5-0.9,1.1-1.8,1.7-2.7c-0.1-0.1-0.1-0.3,0-0.4c-0.7-0.9-1-2.1-0.8-3.3c0.2-0.7,0.6-2.6,1.4-2.9c1-0.4,1.4,1.5,1.5,2.1
	c0.1,0.6,0.1,1.2,0,1.8c0.8-1,1.7-1.9,2.7-2.7c-0.6-0.9-0.6-2-0.3-3c0.2-0.8,0.8-2.6,1.7-2.8c1.1-0.3,1.2,1.7,1.2,2.3
	c0,0.7-0.1,1.3-0.3,1.9c0.5-0.3,1.1-0.6,1.7-0.9c0.5-1,1.1-1.9,2.2-2.3c0.8-0.3,2.2-0.4,3.1-0.1c0.1,0.1,0.3,0.3,0.3,0.4
	C154.8,160.5,154.2,161.7,153.5,162.2z M126.1,175.8c0.1-0.1,0.1-0.1,0.1-0.1c0-0.1,0-0.1-0.1-0.2c0,0.1,0,0.1-0.1,0.2
	C126.1,175.7,126.1,175.7,126.1,175.8z M133.3,178.3c-0.1-0.2-0.1-0.4-0.2-0.6c0-0.3-0.2-1-0.2-1.6c-1.2,0.6-2.9,1-4.1,1.1
	c-0.1,0.6-0.3,1.2-0.4,1.8c0.7-0.5,1.5-0.8,2.4-1.1C131.6,177.7,132.9,177.7,133.3,178.3z"/>
<path class="st5" d="M37.8,1.5h104.3V136H37.8V1.5z"/>
<path class="st6" d="M59.5,3h10.9l46.4,130.6h-10.9L59.5,3z"/>
<path class="st6" d="M78.8,3h5.4l46.4,130.6h-5.4L78.8,3z"/>
<path class="st6" d="M37.9,24.8l1.2-7.6l38.5,116.4h-5.5L37.9,24.8z"/>
<path class="st7" d="M140.7,0h3v137.8h-3V0z"/>
<path class="st7" d="M105.9,0.7h3.1v136.4h-3.1V0.7z"/>
<path class="st7" d="M143.8,0v3H36.4V0H143.8z"/>
<path class="st7" d="M143.8,134.5v3.1H36.4v-3.1H143.8z"/>
<path class="st7" d="M71.1,0.7h3.1v136.4h-3.1V0.7z"/>
<path class="st7" d="M36.4,0h3v137.8h-3V0z"/>
<path class="st7" d="M143.8,67.3v3.1H36.4v-3.1H143.8z"/>
<path class="st2" d="M39.5,71.5v-1.1h101.2v1.1H39.5z"/>
<path class="st2" d="M39.5,134.7v-1.1h101.2v1.1H39.5z"/>
<path class="st2" d="M39.4,4.1V3h101.3v1.1H39.4z"/>
<path class="st7" d="M249.1,196.3c0-0.9,4.9-3.8,5.1-3.5c0.8,0.7,3.3,3.8,3.2,4.5s-2.7,4.8-3.3,4.1
	C253.5,200.7,249,197.1,249.1,196.3z"/>
<path class="st8" d="M254.3,201.7c-0.2,0-0.3-0.1-0.4-0.2c-0.2-0.1-0.6-0.5-1.2-1c-2.6-2.4-3.9-3.7-3.9-4.3c0.1-0.9,4-3.2,5-3.6
	c0.2-0.1,0.4-0.2,0.6,0c0.5,0.5,3.4,3.8,3.3,4.7c-0.2,0.7-2.2,4.1-3.2,4.4C254.4,201.7,254.4,201.7,254.3,201.7z M249.3,196.3
	c0,0.5,2.7,2.8,3.8,3.8c0.5,0.5,1,0.9,1.1,1.1c0,0,0,0,0.1,0c0.8-0.2,2.8-3.3,2.9-3.9c0.1-0.6-2-3.2-3.1-4.3
	C253.3,193.2,249.4,195.7,249.3,196.3z"/>
<path d="M257,196.1c0,0,4.3,1.4,4.6,4.9c0,0-8.9,6.5-12.6,8.4c0,0-4.2-1.4-1.6-3.8c2.6-2.4,4.9-4.9,4.9-4.9S256.6,199.8,257,196.1z"
	/>
<path class="st7" d="M202.7,196.2c0.6-0.6,6.1,0.8,6.1,1.2c0,1-0.3,5-1,5.4c-0.6,0.4-6.1-0.5-6.1-1.5
	C201.8,200.4,202.1,196.7,202.7,196.2z"/>
<path class="st8" d="M207.1,203.2c-1.4,0-3.9-0.5-5-1.1c-0.4-0.3-0.6-0.5-0.6-0.8c0,0,0.3-4.6,1-5.3c0.8-0.7,5.1,0.5,6.1,0.9
	c0.2,0.1,0.5,0.3,0.5,0.5c0,0.7-0.3,5.1-1.1,5.6C207.8,203.1,207.5,203.2,207.1,203.2z M202.9,196.3c-0.5,0.4-0.8,3.5-0.9,5
	c0,0.1,0,0.2,0.3,0.3c1.3,0.8,5,1.3,5.4,1c0.4-0.3,0.9-3.7,0.9-5.1C207.9,197,203.4,196,202.9,196.3z"/>
<path d="M208.4,201.7c0,0,2,4.1-0.3,6.7c0,0-10.8-1.7-14.8-3c0,0-1.9-4,1.6-3.9c3.5,0.2,7,0.1,7,0.1S205.5,204,208.4,201.7z"/>
<path d="M195.7,150.7c0-12.2,1.3-34.7,9-43.3c6.6-7.5,17.7,8.8,19.7,11c0.7,0.9-0.5,4.6-2.2,9.4c-0.4,1-0.8,2-1.2,3
	c-2.8,7.1-6.1,15.4-6.5,19.7c-0.1,0.6-0.1,1.3-0.1,2c-0.7,8.5-4.5,20.8-4.4,29.5c0,7,0.5,15.4,0.1,16.4c-0.1,0-0.1,0-0.1,0
	c0,0.1,0,0.1,0,0.1l-5.2-0.5l-3.9-0.4C199,185.5,195.7,162.8,195.7,150.7z"/>
<path d="M208,181.5c1.5-12.7-2.9-26.1,2.5-38.3c1.5-3.4,4-6.9,3.7-10.8c-0.1-1.9-1.3-4.1-0.2-6c1.9-3.3,5.6-1.1,7.3,1.2
	c0.2-0.1,0.5-0.1,0.7,0.1c0.1,0,0.1,0,0.2,0.1c-0.4,1-0.8,2-1.2,3c-2.8,7.1-6.1,15.4-6.5,19.7c-0.1,0.6-0.1,1.3-0.1,2
	c-0.8,8.5-2,19.8-2.9,28.5c-1.2,10.9-0.9,16.5-1.4,17.4c-0.1,0-0.1,0-0.1,0c0,0.1,0,0.1,0,0.1l-5.2-0.5
	C204.3,191.2,207.2,188.2,208,181.5z"/>
<path d="M217,111.5c4.3-4.6,16.2-6.4,16.4-6.1c1.4,2.4,5.1,5.7,5.9,7.8c0.4,0.9,0.7,1.7,1,2.5c4,11.8-0.1,19.9,0,36
	c0.1,8,3.9,12.3,8.2,26.1c2.4,7.8,6.3,12.5,7.8,16.5c0.2,0.7-5.6,4.2-5.6,4.2c-9.3-5.3-27.2-27.5-28.5-39.5
	C220.1,140.2,216.5,112,217,111.5z"/>
<path d="M238,123.2c0.2-1.7,0.7-5.8,2.3-7.5c4,11.8-0.1,19.9,0,36c0.1,8,14.5,38.6,16,42.6c0.2,0.7-1.1,1.5-2.5,2.2
	c-1.2-1-6.6-19.5-10.2-26.5c-3.6-7-6.3-13.6-6.2-21.5c0.1-0.9,0.1-1.7,0.2-2.5C237,138.4,237,130.8,238,123.2z"/>
<path d="M241.8,66.3c-1,4.6-7.8,7.9-11.8,5.1c-2.6-1.7-3.7-5-3.7-8c-0.1-1.6,0.3-3.2,0-4.8c-0.6-3.1-2.5-3.2-4.1-5.1
	c-0.1-0.1-0.1-0.1-0.1-0.2c-0.2-0.1-0.3-0.4-0.1-0.7c1.4-2.9,6.5-4.3,9.1-2.4c1.7,1.2,2.5,3.3,2.9,5.3c0.4,1.6,0.4,3.2,0.5,4.8
	c0.1,1.2,0.2,2.9,0.7,3.8c1.3,2.6,4.3,1.8,5.7,1.6C241.3,65.5,242,65.8,241.8,66.3z"/>
<path class="st2" d="M198.5,98.9c-7.1-4.1-13.1-17.4-13.1-17.4l4.1-2.6c0.3,0.2,11.5,12.1,13,10.5c0.7-0.7,1.4-16.2,12.1-18.7
	c2.2-0.5,1.7,0,2.5,2.2c1.5,4.4,0.4,15-3.1,21.1C209.8,101.2,205.1,102.9,198.5,98.9z"/>
<path class="st2" d="M241.1,111.2c-2.1,1.2-4.5,2-7,2.5c-14.3,2.9-33.1-4.1-33.1-4.1s4.1-6.2,7.6-12.8c0.3-0.6,0.6-1.2,0.9-1.8
	c1.6-3,1.2-5,0.3-6.7c-1.3-2.5-3.6-4.5-3.8-8.2c-0.2-6.3,13.4-11.7,13.4-11.7c20.3-1.2,15.5,10.8,13.6,20.5
	c-0.2,0.9-0.4,1.7-0.5,2.5c0,0.2,0,0.4,0,0.6c-0.1,0.2-0.1,0.4-0.1,0.7C232.1,102.2,241.1,111.2,241.1,111.2z"/>
<path d="M230.6,92.7c0,0-10.6,23.8-24.6,8.8l0.6-1.9L229,89L230.6,92.7z"/>
<path d="M241.1,111.2c-2.1,1.2-4.5,2-7,2.5c-1-1.6-1.7-4.7-2.2-6.1c-1.1-2.7-2.1-5.4-2.2-8.3c-0.2-3.3,0.6-6.6-0.5-9.8
	c-0.1-0.1-1.1-2.3-1.5-2.8c-1.4-2.7-0.7-11.1,0.1-15.4c0,0-0.4,8.9,3.3,12.4c1.4,1.3,1.3,4.1,1.9,5.1c-0.2,0.9-0.4,1.8-0.5,2.6
	c0,0.3,0,0.5,0,0.8c-0.1,0.1-0.1,0.3-0.1,0.5C232.1,102.2,241.1,111.2,241.1,111.2z"/>
<path class="st7" d="M222.4,63.5v4.9c0,0-3,3.3-5.2,2.9c-0.9-0.2,0-2,0-2v-3.6L222.4,63.5z"/>
<path class="st8" d="M217.6,71.5c-0.1,0-0.3,0-0.4,0c-0.3-0.1-0.5-0.2-0.6-0.4c-0.2-0.6,0.2-1.6,0.4-1.9v-3.7l5.7-2.4v5.4h-0.1
	C222.5,68.7,219.8,71.5,217.6,71.5z M217.5,65.8v3.6c-0.3,0.4-0.5,1.2-0.4,1.5c0,0,0.1,0.1,0.2,0.1c1.8,0.4,4.4-2.3,4.9-2.7v-4.4
	L217.5,65.8z"/>
<path class="st7" d="M224.5,55.9c0,0,1.1,5.5-2.7,9.1c-3.9,3.6-8.6,0.2-8.2-2.3c0.4-3.6,2.4-7.5,2.4-7.5L224.5,55.9z"/>
<path class="st8" d="M218.1,66.8c-0.8,0-1.6-0.2-2.4-0.5c-1.6-0.9-2.6-2.3-2.4-3.7c0.5-3.6,2.4-7.5,2.4-7.5l0.1-0.2l8.9,0.7l0.1,0.2
	c0,0.1,1,5.7-2.9,9.4C220.8,66.3,219.4,66.8,218.1,66.8z M216.1,55.4c-0.3,0.8-1.9,4.2-2.3,7.3c-0.1,1.1,0.8,2.4,2.2,3.1
	c1.8,1,3.9,0.6,5.6-1c3.3-3.1,2.9-7.7,2.7-8.7L216.1,55.4z"/>
<path d="M214.1,55c0.3-0.1,0.6-0.1,0.9-0.3c0.7-0.5,0.4-0.7,0.9-1.2c0.4-0.5,0.7-0.8,1.3-1c1.4-0.5,3-0.3,4.4,0.1
	c0.4,0.1,0.5,0.5,0.3,0.8c1.4,0.3,2.9,1.6,3.5,2.5c1.2,1.8,1.4,4.8,0.2,6.6c-1,1.5-2.8,2.7-3.7,0.8c-0.7-1.5-0.6-2.9-0.5-4.4
	c0-0.6,0.1-1.1,0-1.5c-0.8-1-1.8-1.8-2.9-1.8c-0.3,0.3-0.6,0.8-0.8,1c-0.5,0.5-1,0.8-1.5,1.1c-0.8,0.3-2,0.4-2.6-0.5
	C213,56.5,213.4,55.5,214.1,55z"/>
<path class="st7" d="M221,59.3c0,0,1.6-0.7,1.9,0.5c0.3,1.2-0.8,2-1.4,1.7C220.9,61.3,220.7,59.8,221,59.3z"/>
<path class="st9" d="M224.2,55.5c-0.4-1.2-1.7-1.8-2.8-2.2c-0.8-0.2-0.2-1.4,0.5-1.1c1.5,0.5,2.9,1.3,3.5,2.8
	C225.7,55.8,224.5,56.2,224.2,55.5z"/>
<path d="M217.8,91.4c-0.4,1.3-2.9,1.9-3.9,2.3c-2,0.8-3.5,2.1-5.3,3.1c0.3-0.6,0.6-1.2,0.9-1.8c1.6-3-2.2-13.3-3.2-15
	c2.2,1,4.8,8.6,6.9,9.5C213.9,89.7,218,90.5,217.8,91.4z"/>
<path d="M211.6,89c0,0,9.6-13.7,14.4-15.8l-1.4,11.6l-8.8,8.6l-2.3,0.5L211.6,89z"/>
<path class="st7" d="M187.3,76.4l0.9,1.4l-1.1,0.8l-0.6-0.9L187.3,76.4z"/>
<path d="M187.3,90c-2.9-2.6-3.6-7.6-1.4-12.1c2.1-4.4,6.4-6.9,10.2-6.4l0.2-0.3l1.9,0.9c4.3,2.1,5.7,8,3.2,13.3s-8.1,7.9-12.3,5.8
	l-2-0.8L187.3,90z"/>
<path class="st9" d="M196.3,71.2c4.2,2,5.7,8,3.1,13.2c-2.5,5.3-8,8-12.3,6c-4.2-2.1-5.7-8.1-3.2-13.4
	C186.4,71.7,192,69.1,196.3,71.2z"/>
<path class="st9" d="M195.4,72.9c3.6,1.7,4.7,6.5,2.6,10.9c-2,4.3-6.5,6.5-10.1,4.8c-3.5-1.7-4.7-6.6-2.6-10.9
	C187.4,73.3,191.9,71.2,195.4,72.9z"/>
<path class="st8" d="M193.4,84.4c-0.3,0.3-0.6,0.5-0.9,0.6c-0.3,0.1-0.7,0.2-1.1,0.3c-0.3,0-0.7,0-1.1-0.1l-0.5,1.6l-1.2-0.4
	l0.6-1.6c-0.3-0.2-0.6-0.4-0.9-0.7c-0.1-0.2-0.2-0.4-0.3-0.5c0-0.1,0-0.1-0.1-0.1c0-0.1,0-0.1,0-0.2c-0.1-0.1-0.1-0.1-0.1-0.2
	c-0.1-0.3-0.2-0.6-0.3-1c0,0,0,0,0-0.1c0-0.1,0-0.1,0-0.1s0,0,0-0.1c-0.1-0.3-0.1-0.7,0-1.1l1.2,0.4c0,0.3,0,0.5,0,0.8
	c0,0.2,0,0.4,0.1,0.6c0,0,0,0,0,0.1c0.1,0.1,0.1,0.1,0.1,0.1c0.1,0.2,0.1,0.3,0.2,0.4c0.1,0.2,0.3,0.4,0.5,0.5l0.1-0.6l0.1-0.1v-0.1
	l0.9-2.7c-0.3-0.3-0.5-0.5-0.8-0.7c0-0.1,0-0.1,0-0.1c-0.1-0.1-0.1-0.1-0.2-0.2c-0.1-0.1-0.1-0.1-0.1-0.2c-0.1-0.1-0.2-0.3-0.3-0.4
	c-0.2-0.3-0.3-0.6-0.3-0.9c-0.1-0.2-0.1-0.4,0-0.7c0-0.1,0-0.2,0.1-0.3c0.1-0.3,0.2-0.5,0.3-0.7c0.1-0.1,0.1-0.1,0.2-0.1
	c0.2-0.3,0.4-0.5,0.7-0.6c0.3-0.1,0.7-0.2,1-0.3c0.3,0,0.7,0,1.1,0.1l0.3-1.1l1.2,0.4l-0.4,1c0.3,0.2,0.6,0.4,0.9,0.6
	c0.2,0.2,0.4,0.4,0.6,0.7s0.3,0.6,0.4,1c0.1,0.3,0.1,0.7,0,1.1l-1.2-0.4c0-0.4-0.1-0.8-0.2-1.1c-0.2-0.3-0.5-0.5-0.8-0.7l-1.1,3.2
	c0.2,0.1,0.4,0.3,0.6,0.5c0.2,0.2,0.4,0.4,0.6,0.6c0.1,0.1,0.3,0.3,0.4,0.5c0.1,0.2,0.2,0.4,0.3,0.7c0.1,0.2,0.1,0.4,0.1,0.6
	c0.1,0.3,0,0.5-0.1,0.8C193.9,83.8,193.7,84.1,193.4,84.4z M190.2,77.5c0.1,0.1,0.1,0.3,0.2,0.4c0.1,0.2,0.2,0.4,0.3,0.5
	c0.1,0.1,0.3,0.3,0.4,0.5l0.9-2.8c-0.5-0.1-0.8,0-1.1,0.1c-0.3,0.2-0.5,0.5-0.6,0.8C190.2,77.1,190.2,77.3,190.2,77.5z M192.8,83
	c0.1-0.1,0.1-0.3,0-0.5c0-0.2-0.1-0.4-0.2-0.5c-0.1-0.2-0.3-0.4-0.4-0.5c-0.1-0.2-0.3-0.4-0.5-0.5l-1,3.1c0.3,0,0.5,0,0.7,0
	c0.3-0.1,0.5-0.1,0.6-0.2c0.2-0.1,0.4-0.2,0.5-0.4C192.6,83.4,192.7,83.2,192.8,83z"/>
<path class="st8" d="M189,89.1c-0.4-0.1-0.8-0.2-1.1-0.4c-1.7-0.8-3-2.4-3.5-4.5c-0.5-2.1-0.2-4.5,0.8-6.6s2.7-3.8,4.6-4.7
	c1.9-0.9,3.9-0.9,5.7-0.1c3.5,1.7,4.7,6.6,2.6,11c-1,2.1-2.6,3.8-4.5,4.7C192,89.3,190.5,89.5,189,89.1z M185.4,77.7
	c-1,2.1-1.3,4.4-0.8,6.4c0.5,2.1,1.7,3.7,3.4,4.5c1.7,0.8,3.6,0.7,5.5-0.2c1.9-0.9,3.5-2.6,4.5-4.7c2-4.2,0.9-9.1-2.6-10.7
	c-1.7-0.9-3.6-0.8-5.5,0.1S186.4,75.6,185.4,77.7z"/>
<path class="st7" d="M185.3,75.9c-0.3,0-0.8-0.2-1.3-0.6l-0.1-0.1v-0.1c0-0.7,0.4-1.2,1.1-1.2c0.1,0,0.1,0,0.2,0
	c0-0.4,0.3-0.8,0.7-1.1c0.2-0.1,0.5-0.2,0.8-0.2c0.1,0,0.1,0,0.1,0h0.1c0.1-0.8,0.6-1.2,1.4-1.2h0.2c0-0.4,0.2-0.7,0.6-1
	c0.2-0.1,0.4-0.2,0.7-0.2h0.3l0.1,0.1c0.2,0.3,0.4,0.5,0.5,0.8c0.3,0.7,0.3,1.1,0.1,1.3c-0.1,0.1-0.2,0.2-0.5,0.2
	c-0.1,0-0.3,0-0.4,0c0.3,0.3,0.5,0.7,0.5,1c0.1,0.2,0,0.4-0.1,0.4c-0.1,0.3-0.3,0.4-0.6,0.4c-0.6,0-1.4-0.5-2-1
	c0.3,0.5,0.6,0.8,0.6,1c0.1,0.5,0,0.8-0.1,1c-0.1,0-0.2,0.2-0.5,0.2c-0.4,0-1.1-0.4-1.9-1c0.3,0.4,0.4,0.7,0.3,1
	c-0.2,0.3-0.6,0.3-0.7,0.3H185.3z"/>
<path class="st8" d="M189.9,70h0.2h0.2l0.1,0.2c0.2,0.2,0.4,0.5,0.5,0.8c0.4,0.8,0.3,1.2,0.2,1.5c-0.2,0.2-0.4,0.3-0.7,0.4
	c0.1,0.2,0.2,0.4,0.3,0.6c0,0.4-0.1,0.6-0.2,0.7c-0.2,0.3-0.5,0.4-0.8,0.4c-0.4,0-0.8-0.1-1.2-0.3c0,0,0,0,0,0.1
	c0.1,0.3,0.2,0.8-0.1,1.1c-0.2,0.2-0.4,0.3-0.7,0.3c-0.3,0-0.8-0.2-1.3-0.5c0,0.1,0,0.3-0.1,0.4c-0.1,0.3-0.4,0.4-0.9,0.5h-0.1
	c-0.4,0-0.9-0.3-1.5-0.8l-0.1-0.1v-0.2c0-1.1,0.7-1.4,1.3-1.4c0.1-0.5,0.3-0.8,0.7-1.1c0.3-0.2,0.7-0.3,1-0.3
	c0.2-0.8,0.9-1.1,1.6-1.2c0.1-0.3,0.3-0.6,0.6-0.9c0.3-0.1,0.6-0.2,0.9-0.2H189.9z M188.4,71.6c-0.4,0-1.1,0.2-1.2,1.1
	c0.8,0.6,1.8,1.4,2.5,1.4c0.2,0,0.4-0.1,0.5-0.2c0.3-0.4-0.6-1.5-1.2-1.9c-0.1-0.1-0.3-0.3-0.4-0.4
	C188.6,71.6,188.5,71.6,188.4,71.6z M186,73c-0.3,0.2-0.5,0.6-0.5,1c0.7,0.5,1.7,1.3,2.3,1.3c0.3,0,0.4-0.2,0.3-0.8
	c-0.1-0.3-0.7-1.1-1.1-1.7h-0.1c-0.1,0-0.1,0-0.2,0C186.4,72.8,186.2,72.9,186,73z M184.2,75.1c0.4,0.3,0.8,0.6,1.2,0.6
	c1-0.1,0.3-0.8-0.1-1.5c0,0,0,0-0.1,0s-0.1,0-0.2,0C184.7,74.2,184.2,74.3,184.2,75.1z M189.3,70.6c-0.3,0.2-0.5,0.5-0.5,0.9
	c0.2,0.1,0.4,0.3,0.7,0.5c0.3,0.3,0.6,0.4,0.8,0.4c0.4,0,0.6-0.4,0.2-1.2c-0.1-0.3-0.3-0.5-0.4-0.7h-0.2
	C189.6,70.5,189.4,70.5,189.3,70.6z"/>
<path class="st7" d="M196.7,74.5c0.2-0.4,1.5-0.2,2,0c2.8,1.2,1.7,0.2-0.2-0.5c-1-0.3-1-1.1,0.1-1.2c1.7-0.1,3.5,1.1,4.7,2.5
	c0,0,0,0-0.1,0c-0.1-0.4-0.2-0.9-0.1-1.3c0.2-0.6,0.7-0.3,1,0.1c0.4,0.6,0.4,2.1,0.4,3.1c1.6,1.8,0.6,9-1.5,5.5
	c-0.2-0.3-0.4-0.6-0.5-0.9c-0.3-0.1-0.5-0.5-0.9-0.7c-0.8-0.5-3.6-0.5-4.1-1.5c-0.6-1.2,2,0,1.9-0.9c0-0.3-4.1-1.4-2.2-2.1
	c0.5-0.1,2.7,0.4,2.1-0.3C198.5,76,196.4,75.4,196.7,74.5z"/>
<path class="st8" d="M204.1,83.9c-0.5,0-0.9-0.4-1.3-1.1c-0.2-0.3-0.4-0.5-0.5-0.8c-0.1-0.1-0.3-0.2-0.4-0.3
	c-0.1-0.1-0.3-0.3-0.5-0.4c-0.2-0.2-0.8-0.3-1.4-0.4c-1.1-0.2-2.3-0.5-2.7-1.2c0-0.1-0.2-0.4,0-0.7c0.2-0.3,0.7-0.2,1.2-0.2
	c0.1,0,0.5,0,0.6,0c-0.1-0.1-0.4-0.2-0.6-0.3c-1.2-0.5-2.1-0.9-2-1.4c0-0.5,0.5-0.7,0.6-0.7c0.2-0.1,0.6-0.1,1.1,0
	c0.2,0,0.4,0,0.6,0c0,0,0,0-0.1,0c-0.9-0.4-1.9-0.8-2.2-1.4c-0.1-0.2-0.1-0.4,0-0.6c0-0.1,0.1-0.2,0.3-0.3c0.3-0.1,0.8-0.1,1.3,0
	c-0.4-0.2-0.6-0.5-0.6-0.8c0-0.2,0.2-0.6,1.1-0.7c1.8-0.2,3.3,1,4.2,1.9c0-0.2,0-0.4,0.1-0.6c0.1-0.4,0.3-0.5,0.5-0.5
	c0.4-0.1,0.7,0.3,0.9,0.5c0.3,0.5,0.5,1.6,0.5,3.2c1,1.3,0.9,4.4,0.3,5.8C204.8,83.7,204.4,83.9,204.1,83.9z M197.7,79.3
	c0,0,0,0.1,0.1,0.2c0.2,0.5,1.4,0.7,2.3,0.9c0.7,0.1,1.3,0.3,1.6,0.5c0.2,0.1,0.4,0.3,0.5,0.4c0.1,0.1,0.3,0.2,0.4,0.3l0.1,0.1
	c0.1,0.3,0.3,0.6,0.5,0.9c0.3,0.5,0.6,0.8,0.9,0.8c0.2,0,0.4-0.2,0.6-0.6c0.6-1.5,0.5-4.5-0.4-5.5v-0.1c0-2-0.2-2.7-0.4-3
	c-0.2-0.2-0.3-0.3-0.4-0.3c0,0-0.1,0-0.1,0.2c-0.1,0.3,0,0.9,0.1,1.1l0.2,0.9l-0.6-0.7c-0.7-0.7-2.5-2.5-4.5-2.3
	c-0.4,0-0.6,0.1-0.6,0.2s0.2,0.3,0.6,0.5c0,0,1.9,0.7,2,1.2l0.1,0.1l-0.2,0.1c-0.1,0.1-0.2,0.3-1.9-0.4c-0.6-0.3-1.6-0.3-1.6-0.2
	c-0.1,0.1-0.1,0.1,0,0.2c0.1,0.5,1.2,0.8,1.9,1.1c0.2,0.1,0.4,0.1,0.5,0.2l0.1,0.1c0.2,0.2,0.2,0.4,0.1,0.5
	c-0.1,0.3-0.6,0.2-1.4,0.2c-0.3-0.1-0.8-0.1-0.9-0.1c-0.3,0.2-0.3,0.3-0.3,0.3c0,0.2,1.2,0.8,1.7,1c0.7,0.3,0.9,0.4,1,0.6
	c0,0.2-0.1,0.4-0.1,0.4c-0.3,0.3-0.7,0.2-1.2,0.2C198.2,79.3,197.8,79.3,197.7,79.3z"/>
<path class="st2" d="M200.5,81.7c0.1-1.2,5.8-1.7,5.8-1.7c2,0.1,4,11.6,5.8,10.6c1.5-0.8,8.3-12.1,14.4-17.9c0.7-0.7,3.2-3,4.8-2.4
	c4.3,1.4,3.8,11.6,0.6,17.1c-2.3,4-9.5,14.3-18.2,15.6C197.4,105.2,200.5,81.7,200.5,81.7z"/>
<path d="M176,156.8l-8.9,0.1c-1.7,0-2.9-1.6-2.5-3.2l0.9-3.8c0.2-1.2,1.3-2,2.5-2l7-0.1c1.2,0,2.2,0.8,2.5,2l0.9,3.8
	C178.8,155.3,177.6,156.8,176,156.8z"/>
<path class="st9" d="M178.8,120.2l15.1,15.4c0.4,0.5,0.8,1.2,0.9,1.8l4.5,20.6c0.2,0.9-0.9,1.6-1.6,1l-11.7-9.8
	c-0.2-0.2-0.5-0.3-0.8-0.3l-7.3-0.5c-0.4-0.1-0.7-0.4-0.8-0.8l1-27C178,120,178.4,119.9,178.8,120.2z"/>
<path class="st9" d="M164.5,120.7l1.4,26.9c-0.1,0.5-0.4,0.8-0.8,0.9l-7.3,0.6c-0.3,0-0.5,0.1-0.8,0.3l-11.5,9.9
	c-0.7,0.6-1.8-0.1-1.6-1l4.2-20.6c0.1-0.7,0.4-1.3,0.9-1.8l14.8-15.6C164.3,119.9,164.6,120.1,164.5,120.7z"/>
<path class="st7" d="M171.4,153c-9,0-16.4-15.7-16.5-35.1c-0.1-9.3,1.6-18.7,4.5-26c1,1.8,6.4,2.8,11.4,2.8h0.3
	c3.1-0.1,6.1-0.4,8.3-1.1c1.4-0.3,2.9-1,3.4-1.9c3,7.3,4.7,16.7,4.8,26c0.1,9.4-1.6,18.3-4.7,25c-3,6.6-7.1,10.3-11.4,10.3H171.4z"
	/>
<path class="st8" d="M187.9,117.7c0.1,19.6-7.3,35.5-16.4,35.6c-0.1,0-0.1,0-0.1,0c-9.1,0-16.6-15.8-16.7-35.4
	c-0.1-10,1.8-19.8,4.8-27c-0.1,0.1-0.1,0.2-0.1,0.3c0.1,1.8,5.1,3.2,11.4,3.2c0.1,0,0.2,0,0.3,0c6.4,0,11.6-1.5,11.6-3.3
	c0-0.1,0-0.3,0-0.4C185.8,97.9,187.8,107.7,187.9,117.7z M171.1,94.9h-0.3c-4.8,0-9.8-0.9-11.4-2.5c-2.7,7.2-4.3,16.4-4.2,25.5
	c0.1,19.2,7.4,34.9,16.2,34.9c4.3-0.1,8.3-3.7,11.3-10.2c3.1-6.7,4.7-15.5,4.7-24.9c-0.1-9.1-1.8-18.3-4.6-25.5
	C181.2,93.9,176.1,94.9,171.1,94.9z"/>
<path class="st9" d="M163.7,119.4c0-4.4,3.5-7.8,7.9-7.8c4.3,0,7.8,3.6,7.7,7.9c0,2-0.7,3.8-2,5.2c-1.6,1.7-2.7,3.9-2.7,6.2v0.2
	h-6.3v-0.2c0-2.3-1.1-4.6-2.6-6.3C164.4,123.2,163.7,121.4,163.7,119.4z"/>
<path class="st8" d="M169.5,125.2c0-0.1-0.4-1.8-0.7-3.5c-0.1-1-0.2-1.7-0.2-2.2c-0.2-0.1-0.4-0.1-0.5-0.2c-1.2-0.9-0.1-2.6,0-2.7
	c0,0,0.1,0,0.2,0c0.1,0.1,0.2,0.1,0.1,0.2c-0.3,0.5-0.9,1.7-0.1,2.3c0.1,0.1,0.1,0.1,0.2,0.1c0-1,0.3-1.1,0.4-1.1
	c0.3,0,0.5,0,0.6,0.2c0.3,0.3,0.1,0.9-0.3,1.1c-0.1,0.1-0.2,0.1-0.3,0.1c0.1,1.3,0.5,3.6,1,5.7c0,0.1-0.1,0.1-0.2,0.1c0,0,0,0-0.1,0
	C169.5,125.2,169.5,125.2,169.5,125.2z M169.1,118.4c-0.1,0-0.2,0.3-0.2,0.8c0.3-0.2,0.4-0.7,0.3-0.8
	C169.2,118.4,169.2,118.4,169.1,118.4z"/>
<path class="st8" d="M173.3,125.3c0,0,0,0-0.1,0c-0.1,0-0.1,0-0.1-0.1c0.5-2.1,0.9-4.3,1-5.7c-0.1,0-0.1,0-0.2,0
	c-0.4-0.3-0.6-0.9-0.3-1.2c0.1-0.1,0.3-0.2,0.5-0.2c0.2,0.1,0.4,0.1,0.4,1.2c0.1-0.1,0.1-0.1,0.2-0.1c0.8-0.6,0.3-1.9,0-2.4
	c-0.1,0,0-0.1,0.1-0.1c0.1-0.1,0.2-0.1,0.2,0c0.1,0.1,1.2,1.8-0.1,2.6c-0.1,0.1-0.3,0.2-0.4,0.2c0,0.6-0.1,1.3-0.3,2.3
	c-0.3,1.7-0.7,3.4-0.7,3.4C173.4,125.3,173.4,125.3,173.3,125.3z M173.9,118.4c-0.2,0.2-0.1,0.6,0.2,0.8
	C174.1,118.7,174.1,118.4,173.9,118.4C173.9,118.4,173.9,118.4,173.9,118.4z"/>
<path class="st8" d="M169.5,125l0.2-0.2c1-0.8,2.5-0.8,3.6,0l0.2,0.2l-0.1,6.3h-3.9V125z M173,125.2L173,125.2
	c-0.9-0.8-2.2-0.8-3.1-0.1l-0.1,0.1v5.7l3.2,0.1V125.2z"/>
<path d="M167.7,131.1c0-0.3,0.2-0.5,0.5-0.5l6.5,0.1c0.3,0,0.5,0.2,0.5,0.4c0,0.3-0.2,0.5-0.5,0.5h-6.5
	C167.9,131.6,167.7,131.4,167.7,131.1z"/>
<path class="st2" d="M168.1,132.1c0-0.3,0.2-0.5,0.4-0.5h5.9c0.2,0,0.4,0.2,0.4,0.5c0,0.3-0.2,0.5-0.4,0.5l-5.9-0.1
	C168.3,132.5,168.1,132.3,168.1,132.1z"/>
<path d="M168.1,133c0-0.2,0.2-0.5,0.4-0.5l5.9,0.1c0.2,0,0.4,0.2,0.4,0.5c0,0.2-0.2,0.5-0.5,0.5l-5.8-0.1
	C168.2,133.5,168.1,133.3,168.1,133z"/>
<path class="st2" d="M168.1,134c0-0.3,0.1-0.5,0.4-0.5l5.8,0.1c0.3,0,0.5,0.2,0.5,0.4c0,0.3-0.2,0.5-0.5,0.5h-5.8
	C168.2,134.5,168.1,134.3,168.1,134z"/>
<path d="M168,135c0-0.3,0.2-0.5,0.5-0.5h5.8c0.3,0,0.5,0.2,0.5,0.5s-0.2,0.5-0.5,0.5l-5.8-0.1C168.2,135.4,168,135.2,168,135z"/>
<path class="st2" d="M172.9,136.5l-3.1-0.1c-0.5,0-0.9-0.4-0.9-0.9h5C173.9,136,173.5,136.5,172.9,136.5z"/>
<path class="st9" d="M171.5,109.2c-0.3,0-0.5-0.3-0.4-0.5v-3.1c0-0.4,0.2-0.6,0.5-0.6s0.6,0.3,0.6,0.6v3.1
	C172.2,109,171.9,109.2,171.5,109.2C171.5,109.2,171.5,109.2,171.5,109.2z"/>
<path class="st9" d="M166.2,110.2c-0.1,0-0.3-0.1-0.4-0.2l-1.6-2.7c-0.2-0.3-0.1-0.6,0.1-0.8c0.3-0.2,0.6-0.1,0.8,0.2l1.7,2.7
	c0.1,0.3,0.1,0.6-0.2,0.8C166.5,110.3,166.3,110.3,166.2,110.2z"/>
<path class="st9" d="M162.6,114.3C162.5,114.3,162.5,114.3,162.6,114.3l-3-1.3c-0.3-0.1-0.4-0.5-0.3-0.7c0.1-0.3,0.4-0.4,0.7-0.3
	l2.9,1.3c0.3,0.1,0.5,0.4,0.3,0.7C163.1,114.3,162.8,114.4,162.6,114.3z"/>
<path class="st9" d="M158.7,121c-0.3,0-0.5-0.3-0.5-0.5c0-0.3,0.3-0.6,0.6-0.6l2.6-0.1c0.3,0,0.6,0.2,0.6,0.6c0,0.3-0.2,0.5-0.5,0.5
	L158.7,121C158.7,121,158.7,121,158.7,121z"/>
<path class="st9" d="M177.2,110.3c-0.1,0-0.1,0-0.2-0.1c-0.3-0.1-0.4-0.5-0.2-0.7l1.7-2.7c0.2-0.3,0.5-0.3,0.8-0.2
	c0.3,0.2,0.3,0.5,0.2,0.8l-1.7,2.7C177.6,110.3,177.4,110.4,177.2,110.3z"/>
<path class="st9" d="M180.7,114.5c-0.2-0.1-0.3-0.2-0.4-0.3c-0.1-0.3,0-0.7,0.3-0.8l2.9-1.2c0.3-0.2,0.6,0,0.8,0.3
	c0.1,0.2,0,0.6-0.3,0.7l-3,1.2C180.9,114.5,180.8,114.5,180.7,114.5z"/>
<path class="st9" d="M181.9,121.1c-0.3-0.1-0.5-0.3-0.5-0.6s0.3-0.5,0.6-0.5l2.7,0.1c0.3,0,0.5,0.3,0.5,0.6c0,0.3-0.3,0.5-0.6,0.5
	l-2.6-0.1C181.9,121.1,181.9,121.1,181.9,121.1z"/>
<path d="M182.7,91.1c0,1.8-5.2,3.3-11.6,3.3c-6.4,0-11.6-1.4-11.7-3.2c0-1.8,5.2-3.3,11.7-3.3C177.5,87.9,182.7,89.3,182.7,91.1z"/>
<path class="st9" d="M144.7,73.5c1.4-2.2,7.3,3.4,10.1,6.8c2.7,3.3,6.9,10.2,4.5,11.2c-7.3,2.1-13.5,1.8-16.3-1.7
	C140.2,86.3,141.1,80.3,144.7,73.5z"/>
<path class="st7" d="M165.3,191.6l1.6-35.7h9.6l1.6,35.7H165.3z"/>
<path class="st8" d="M176.8,155.7l1.6,36.2H165l1.7-36.2H176.8z M165.6,191.4h12.3l-1.6-35.2h-9.2L165.6,191.4z"/>
<path class="st2" d="M174.1,191.9h-4.8l0.6-36.2h3.7L174.1,191.9z"/>
<path class="st2" d="M239.6,204.2c-0.1,3-2.5,5.3-5.3,5.5l-32.3-1.1c-3.5-0.1-6.3-3.1-6.2-6.6s3.1-6.3,6.6-6.2
	c1.1,0.1,2,0.4,2.9,0.8c0-0.3,0-0.6,0-0.9c0.2-4.9,4.3-8.8,9.3-8.6c3.6,0.1,6.7,2.4,8,5.6c1.1-0.9,2.5-1.4,4.1-1.4
	c3.4,0.1,6.1,3,5.9,6.4c0,0.3,0,0.5-0.1,0.8c0.5-0.1,1.1-0.2,1.6-0.1C237.2,198.5,239.7,201.1,239.6,204.2z"/>
<path class="st7" d="M197.9,209.3c-3.4,0-6.1-2.7-6.1-6.1c0-3.4,2.7-6.1,6.1-6.1c1,0,1.9,0.2,2.8,0.6l0.4,0.3v-0.5
	c-0.1-0.3-0.1-0.6-0.1-0.9c0-4.8,3.9-8.7,8.7-8.7c3.5,0,6.6,2,8,5.2l0.1,0.3l0.3-0.2c1.1-1,2.5-1.5,3.9-1.5c3.3,0,5.9,2.6,5.9,5.9
	c0,0.3,0,0.5-0.1,0.8v0.4l0.4-0.1c0.5-0.1,0.9-0.2,1.4-0.2c3,0,5.5,2.4,5.5,5.4c0,2.8-2.1,5.1-4.9,5.4H230H197.9z"/>
<path class="st8" d="M217.9,193c1.1-1,2.5-1.5,4.1-1.5c3.4,0,6.2,2.7,6.2,6.1c0,0.3,0,0.5-0.1,0.8c0.5-0.1,1-0.2,1.5-0.2
	c3.2,0,5.7,2.6,5.7,5.7c0,2.9-2.2,5.4-5.1,5.7h-32.3c-3.5,0-6.4-2.9-6.4-6.4s2.9-6.4,6.4-6.4c1,0,2,0.3,2.9,0.7c0-0.3,0-0.6,0-0.9
	c0-4.9,4-9,8.9-9C213.4,187.6,216.6,189.9,217.9,193z M201.3,196.6c0,0.3,0,0.6,0,0.9l0.1,0.9l-0.8-0.4c-0.9-0.5-1.8-0.7-2.7-0.7
	c-3.2,0-5.9,2.7-5.9,5.9s2.7,5.9,5.9,5.9H230h0.2c2.6-0.3,4.6-2.5,4.6-5.2c0-2.9-2.3-5.2-5.2-5.2c-0.5,0-0.9,0.1-1.4,0.2l-0.7,0.2
	l0.1-0.7c0.1-0.3,0.1-0.6,0.1-0.8c0-3.1-2.6-5.6-5.7-5.6c-1.4,0-2.7,0.5-3.7,1.4l-0.5,0.4l-0.3-0.6c-1.4-3.1-4.4-5.1-7.8-5.1
	C205.1,188.1,201.3,191.9,201.3,196.6z"/>
<path class="st10" d="M173.1,203.9c-0.1,3.1-2.5,5.6-5.6,5.8l-34.2-1.2c-3.7-0.1-6.6-3.2-6.5-7c0.1-3.7,3.3-6.6,7-6.5
	c1.1,0.1,2.1,0.4,3,0.9c0-0.3,0-0.7,0-1c0.2-5.2,4.6-9.3,9.9-9.2c3.8,0.2,7.1,2.6,8.5,6c1.1-0.9,2.7-1.5,4.3-1.5
	c3.6,0.2,6.4,3.2,6.3,6.8c0,0.3,0,0.6-0.1,0.9c0.5-0.1,1.1-0.2,1.6-0.2C170.7,197.8,173.3,200.6,173.1,203.9z"/>
<path class="st2" d="M168.6,203.6c0,3.1-2.3,5.6-5.4,5.9v0.1H129c-3.7,0-6.7-3.1-6.7-6.8s3-6.7,6.7-6.7c1.1,0,2.2,0.2,3.1,0.7
	c-0.1-0.3-0.1-0.7-0.1-1c0-5.2,4.3-9.5,9.5-9.5c3.9,0,7.3,2.4,8.7,5.7c1.2-1,2.7-1.6,4.3-1.6c3.6,0,6.5,2.9,6.5,6.5
	c0,0.3,0,0.6,0,0.9c0.5-0.2,1.1-0.3,1.6-0.3C165.9,197.5,168.6,200.2,168.6,203.6z"/>
<path class="st2" d="M226.4,205.2c-0.1,2.4-2.1,4.4-4.5,4.5l-26.7-0.9c-3-0.1-5.3-2.6-5.1-5.5c0.1-2.9,2.5-5.2,5.4-5.1
	c0.9,0,1.7,0.3,2.4,0.7c0-0.3,0-0.5,0-0.8c0.1-4.1,3.6-7.3,7.7-7.2c3.1,0.1,5.6,2.1,6.7,4.7c0.9-0.7,2.1-1.2,3.4-1.1
	c2.8,0.1,5,2.4,4.9,5.2c0,0.3,0,0.5-0.1,0.7c0.4-0.1,0.8-0.1,1.3-0.1C224.4,200.4,226.4,202.6,226.4,205.2z"/>
<path class="st7" d="M191.8,209.4c-2.8,0-5.1-2.3-5.1-5.1s2.3-5,5.1-5c0.8,0,1.6,0.2,2.3,0.5l0.4,0.2l-0.1-0.4c0-0.3,0-0.5,0-0.8
	c0-3.9,3.2-7.1,7.2-7.1c2.8,0,5.4,1.6,6.6,4.3l0.1,0.3l0.3-0.3c0.9-0.7,2-1.2,3.2-1.2c2.7,0,4.8,2.2,4.8,4.9c0,0.2,0,0.4,0,0.6
	l-0.1,0.4l0.4-0.1c0.4-0.1,0.8-0.2,1.2-0.2c2.5,0,4.5,2,4.5,4.5c0,2.3-1.8,4.2-4,4.4l-0.3,0.1H191.8z"/>
<path class="st8" d="M208.4,195.9c0.9-0.8,2.1-1.3,3.4-1.3c2.8,0,5.1,2.3,5.1,5.1c0,0.2,0,0.4-0.1,0.7c0.4-0.1,0.8-0.2,1.3-0.2
	c2.6,0,4.7,2.1,4.7,4.7c0,2.4-1.8,4.4-4.2,4.7h-26.8c-2.9,0-5.3-2.4-5.3-5.3c0-2.9,2.4-5.3,5.3-5.3c0.8,0,1.7,0.2,2.4,0.6
	c-0.1-0.3-0.1-0.5-0.1-0.8c0-4.1,3.4-7.4,7.5-7.4C204.6,191.4,207.3,193.2,208.4,195.9z M194.6,198.8c0,0.3,0,0.5,0.1,0.7l0.1,1
	L194,200c-0.7-0.3-1.5-0.5-2.2-0.5c-2.7,0-4.8,2.2-4.8,4.8c0,2.7,2.1,4.8,4.8,4.8h26.6h0.1c2.2-0.2,3.8-2,3.8-4.2
	c0-2.3-1.9-4.2-4.2-4.2c-0.4,0-0.8,0-1.1,0.1l-0.8,0.3l0.1-0.8c0.1-0.3,0.1-0.5,0.1-0.6c0-2.6-2.1-4.6-4.6-4.6
	c-1.1,0-2.2,0.4-3.1,1.1l-0.5,0.5l-0.3-0.6c-1.1-2.6-3.6-4.2-6.3-4.2C197.8,191.9,194.6,195,194.6,198.8z"/>
<path class="st11" d="M179.5,205.2c0,2.4-2,4.4-4.3,4.5h-0.1l-26.6-0.9c-2.9-0.1-5.2-2.6-5.1-5.5c0.1-2.9,2.6-5.1,5.5-5
	c0.9,0,1.7,0.2,2.4,0.6c-0.1-0.2-0.1-0.4,0-0.7c0.1-4.1,3.5-7.3,7.6-7.2c3,0.1,5.6,2.1,6.6,4.7c0.9-0.7,2.1-1.2,3.4-1.1
	c2.8,0.1,5,2.4,4.9,5.2c0,0.2,0,0.4-0.1,0.7c0.5-0.1,0.9-0.2,1.3-0.2C177.6,200.4,179.6,202.6,179.5,205.2z"/>
<path class="st7" d="M145.2,209.4c-2.8,0-5.1-2.3-5.1-5.1c0-2.7,2.3-5,5.1-5c0.8,0,1.5,0.2,2.2,0.6l0.4,0.2v-0.5c0-0.2,0-0.4,0-0.7
	c0-3.9,3.2-7.1,7.1-7.1c2.9,0,5.4,1.6,6.6,4.2l0.1,0.4l0.3-0.3c0.8-0.8,2-1.2,3.2-1.2c2.6,0,4.8,2.2,4.8,4.8c0,0.3,0,0.5-0.1,0.7
	v0.4l0.3-0.1c0.4-0.1,0.8-0.2,1.2-0.2c2.5,0,4.5,2,4.5,4.4c0,2.3-1.7,4.2-4,4.4l-0.2,0.1H145.2z"/>
<path class="st8" d="M161.7,195.9c0.9-0.8,2.1-1.2,3.4-1.2c2.8,0,5,2.2,5,5c0,0.3,0,0.5,0,0.7c0.4-0.1,0.8-0.2,1.2-0.2
	c2.6,0,4.7,2.1,4.7,4.7c0,2.5-1.8,4.5-4.2,4.7h-26.6c-2.9,0-5.3-2.4-5.3-5.3c0-2.9,2.4-5.2,5.3-5.2c0.8,0,1.6,0.2,2.4,0.6
	c-0.1-0.3-0.1-0.5-0.1-0.8c0-4.1,3.3-7.4,7.4-7.4C157.9,191.5,160.5,193.3,161.7,195.9z M148,198.9c0,0.3,0,0.5,0,0.7l0.1,0.9
	l-0.8-0.4c-0.7-0.3-1.4-0.5-2.1-0.5c-2.7,0-4.8,2.1-4.8,4.7c0,2.7,2.1,4.8,4.8,4.8h26.4h0.2c2.1-0.2,3.7-2,3.7-4.2
	c0-2.3-1.8-4.2-4.2-4.2c-0.3,0-0.7,0.1-1.1,0.2l-0.7,0.2l0.1-0.8c0-0.2,0-0.4,0-0.6c0-2.5-2-4.5-4.5-4.5c-1.2,0-2.2,0.4-3.1,1.1
	l-0.5,0.5l-0.3-0.7c-1.1-2.5-3.5-4.1-6.3-4.1C151.1,192,148,195.1,148,198.9z"/>
<path class="st7" d="M160.6,207.9c-4.8-0.2-8.5-4.3-8.3-9.2c0.2-4.7,3.9-8.4,8.6-8.4c0.1,0,0.2,0,0.3,0c1.3,0,2.6,0.4,3.8,1.1
	l0.4,0.2v-0.5c-0.1-0.4-0.1-0.8,0-1.2c0.2-6.8,5.5-12.1,12.1-12.1c0.1,0,0.3,0,0.4,0c4.8,0.2,9.1,3.3,10.8,7.9l0.2,0.3l0.2-0.2
	c1.5-1.2,3.4-1.9,5.3-1.9c0.1,0,0.2,0,0.3,0c4.5,0.1,8,4.1,7.9,8.7c0,0.3,0,0.7-0.1,1.2l-0.1,0.4l0.4-0.1c0.6-0.2,1.2-0.3,1.8-0.3
	h0.2c4.2,0.2,7.5,3.8,7.4,8.1c-0.2,4.1-3.2,7.3-7.1,7.5l-0.3,0.1L160.6,207.9z"/>
<path class="st8" d="M177.9,177.6c5.1,0.2,9.3,3.5,11.1,8c1.4-1.2,3.3-2,5.4-2c0.1,0,0.2,0,0.3,0c4.6,0.2,8.3,4.2,8.1,9
	c0,0.4,0,0.8-0.1,1.2c0.6-0.1,1.2-0.2,1.9-0.2c0.1,0,0.2,0,0.3,0c4.3,0.1,7.7,3.9,7.5,8.3c-0.1,4.2-3.4,7.5-7.3,7.8l-44.6-1.6
	c-4.8-0.2-8.6-4.4-8.4-9.4c0.1-4.9,4-8.7,8.8-8.7c0.1,0,0.2,0,0.3,0c1.4,0.1,2.8,0.5,3.9,1.1c0-0.4,0-0.8,0-1.3
	c0.2-6.8,5.7-12.2,12.4-12.2C177.6,177.6,177.8,177.6,177.9,177.6z M165.6,189.9c0,0.4,0,0.8,0,1.2l0.1,0.9l-0.8-0.4
	c-1.2-0.7-2.4-1-3.7-1.1c-0.1,0-0.2,0-0.3,0c-4.5,0-8.2,3.6-8.3,8.2c-0.2,4.8,3.4,8.7,8,8.9l44.2,1.6h0.2c3.8-0.3,6.8-3.4,6.9-7.3
	c0.1-4.2-3-7.7-7.1-7.8c-0.1,0-0.1,0-0.2,0c-0.6,0-1.2,0.1-1.8,0.2l-0.7,0.2l0.1-0.8c0.1-0.4,0.1-0.8,0.1-1.1
	c0.2-4.5-3.3-8.3-7.7-8.5c-0.1,0-0.1,0-0.2,0c-1.9,0-3.7,0.7-5.1,1.9l-0.5,0.5l-0.3-0.7c-1.7-4.5-5.9-7.5-10.6-7.7
	c-0.1,0-0.3,0-0.4,0C171,178.1,165.8,183.3,165.6,189.9z"/>
<path class="st2" d="M207.8,201.5c0,4.1-3.1,7.6-7,8h-44.6c-4.8,0-8.8-4-8.8-9s4-9.1,8.8-9.1c1.5,0,2.8,0.4,4,1
	c-0.1-0.4-0.1-0.8-0.1-1.3c0-7,5.6-12.7,12.4-12.7c5.1,0,9.4,3.1,11.3,7.6c1.5-1.4,3.5-2.2,5.7-2.2c4.6,0,8.4,3.9,8.4,8.7
	c0,0.4,0,0.8-0.1,1.2c0.7-0.2,1.5-0.3,2.2-0.3C204.3,193.4,207.8,197,207.8,201.5z"/>
<path class="st7" d="M146.5,170.3c-0.1,0-10.1-4.4-17.7-8.3c-7.4-3.9-13.7-13.4-11.3-22.6c0.6-2.2,5.4-4.3,8.8-4.3
	c0.8,0,1.5,0.1,2,0.4c1.6,0.8,1.9,5.1,2.3,9.2c0.2,2.7,0.5,5.7,1.1,6c2.9,1.6,14.7,14.3,15.2,14.8l0.1,0.1l-0.2,4.9L146.5,170.3z"/>
<path class="st8" d="M128.4,135.3c1.7,0.9,2.1,5.2,2.4,9.4c0.2,2.2,0.5,5.5,1,5.8c2.9,1.6,14.8,14.3,15.3,14.9l0.1,0.1v0.2l-0.1,4.4
	v0.7l-0.7-0.3c-0.1,0-10.1-4.4-17.7-8.3c-7.5-3.9-13.9-13.5-11.4-22.9c0.6-2.5,5.9-4.5,9-4.5C127.2,134.8,127.9,135,128.4,135.3z
	 M117.8,139.5c-2.4,9,3.6,18.4,11.1,22.3c7.7,3.9,17.7,8.3,17.7,8.3l0.1-4.4c0,0-12.3-13.2-15.1-14.7c-1.7-0.9-0.8-13.9-3.4-15.3
	c-0.5-0.3-1.2-0.4-1.9-0.4C123.1,135.3,118.3,137.3,117.8,139.5z"/>
<path class="st9" d="M115.2,142.9c-1.5-7.3-3.2-17.3,0.9-20.7c2.6-2.1,8,1.1,9.8,3c4,4.2,4.9,12.4,5,13.7
	C126.1,142.5,120.5,144.2,115.2,142.9z"/>
<path class="st7" d="M117,205.5c-0.6,0-2,0-2.4-0.4c-0.6-0.6-0.2-4.6-0.1-4.9c0.1-0.6,3.8-0.7,3.9-0.7c1.4,0,1.7,0.2,1.9,0.4
	c0.5,0.7,0.1,4.6,0.1,4.7C120.3,205.4,118.2,205.5,117,205.5z"/>
<path class="st8" d="M120.5,199.7c0.6,0.9,0.2,4.9,0.2,4.9c-0.1,0.8-1.4,1.2-3.7,1.2c-1.4,0-2.3-0.2-2.6-0.5
	c-0.7-0.8-0.2-5.1-0.1-5.2c0.1-0.7,2.6-0.8,4.1-0.8S120.3,199.5,120.5,199.7z M114.7,200.2c-0.1,0.9-0.4,4.3,0.1,4.8
	c0.2,0.2,1.2,0.3,2.2,0.3c1.5,0,3.1-0.2,3.2-0.7c0.1-0.8,0.3-4-0.1-4.5c-0.2-0.2-0.9-0.3-1.7-0.3C116.8,199.8,114.8,200,114.7,200.2
	z"/>
<path d="M120,204.8c0,0,3-0.1,6.1,0.2c3,0.4,2.8,4.7,2.8,4.7c-3.5,0.5-15.1-0.1-15.1-0.1c-1.6-2.5,0.7-5.7,0.7-5.7
	C116.6,206.3,120,204.8,120,204.8z"/>
<path d="M121.4,201.9l-5.5,0.2l-3,0.1h-0.1c-0.1,0-0.1,0,0-0.1c0.1-1.4,1.9-15.1,2.3-22.4c0.1-1.5-5.4-0.8-11.7-0.2
	c-7.3,0.8-15.8,1.7-17.9-0.7c-2.9-3.1,8.9-22.2,16.9-18.9c5.8,2.3,18.7-1,27.4,5.8C138,172.1,123,195.9,121.4,201.9z"/>
<path d="M119.2,181.4c-0.2,8.2-1.6,12.6-3.3,20.7l-3,0.1c-0.1-0.1-0.1-0.1-0.1-0.1c0.1-1.4,1.9-15.1,2.3-22.4
	c0.1-1.5-5.4-0.8-11.7-0.2c-0.1-0.1-0.1-0.1-0.1-0.2c-1.2-2.8-1.5-5.9-0.8-8.9c-0.2-0.2-0.3-0.6,0-0.9c0.8-0.5,1.7-0.7,2.6-0.5
	c0.3,0.1,0.4,0.4,0.4,0.6c3.7,1.5,7.6,3.1,10.9,5.4C118.7,176.5,119.3,178.6,119.2,181.4z"/>
<path class="st7" d="M72,205.9c-1,0-4.3-1.3-4.9-1.7c-0.3-0.1-0.4-0.4-0.3-0.7c0-1.2,1.5-4,2-4.3c0.1-0.1,0.2-0.1,0.3-0.1
	c1,0,3.7,1.3,4.4,1.8c0.2,0.1,0.2,0.3,0.1,1.1c0,0-0.5,3.6-1.3,3.9C72.2,205.9,72.1,205.9,72,205.9z"/>
<path class="st8" d="M69.1,199.4c0.9,0,3.6,1.3,4.3,1.7c0.2,0.1-0.5,4.3-1.2,4.5c-0.1,0-0.1,0-0.2,0c-0.9,0-4.2-1.3-4.8-1.6
	c-0.8-0.4,1.2-4.3,1.7-4.6C69,199.4,69,199.4,69.1,199.4z M69.1,198.9c-0.1,0-0.3,0-0.4,0.1c-0.7,0.3-2.1,3.3-2.2,4.5
	c0,0.6,0.2,0.8,0.5,0.9c0.5,0.3,3.9,1.7,5,1.7c0.1,0,0.3,0,0.4,0c1-0.3,1.5-3.9,1.5-4.1c0.1-0.7,0.1-1.1-0.3-1.3
	C73,200.3,70.2,198.9,69.1,198.9z"/>
<path d="M102.2,208.5c-9.4,4.6-21.8-0.2-30.8-2.4c0,0-0.3-2.7-0.4-4.8c-0.1-1.2-0.2-2.1-0.2-2.2c4.6,0.2,15.2,1.4,19.2-4.2
	c1.8-2.7-7.8-17.3-7.2-27c0.1-1.6,0.6-3.2,1.4-4.5c1.2-1.7,2.6-2.8,4.3-3.5c7.2-2.9,17.6,3.5,16.1,8.3
	C104.6,168.2,116.7,201.4,102.2,208.5z"/>
<path d="M91,198.7c-2.5,3.5-6.4,4.3-10.5,4.9c-5.2,0.7,3.3-0.1-1.9-0.9c-2.4-0.3-5.3-0.5-7.6-1.3c0-0.1,0-0.1,0-0.1
	c-0.1-1.2-0.2-2.1-0.2-2.2c4.6,0.2,15.2,1.4,19.2-4.2c1.8-2.7-7.8-17.3-7.2-27c0.5-0.4,1.1-0.8,1.6-1.1c2.7-1.6,4.4-0.2,5.5,2.3
	c0.4,0,0.7,0.6,0.3,1c-5.6,4.6-0.4,12,1.6,17C93.3,191,93.5,195.1,91,198.7z"/>
<path d="M121.3,138.9c-0.7,1.4-1.2,2.6-2,4.4c-1.3,0.1-2.7-0.1-4.1-0.4c-0.3-1.3-0.5-2.6-0.7-4l4.6-4.4l4-11.4
	C123.1,123.1,125.3,131.3,121.3,138.9z"/>
<path class="st9" d="M119.1,139.9c-1.2,2.8-2.3,5.4-2.7,7.1c-0.4,1.4-0.3,2.6-0.1,3.6c0.3,1.5,0.8,3.7,1.3,5
	c0.3,0.8,0.5,4.6,0.3,5.7c-0.6,1-5.2,6.3-14.7,9.7c-7.5,2.7-21.5,4.5-21.7,3c-0.2-1.4,3.7-26,5.9-33.8c0.6-2,1.2-3.9,1.8-5.7
	c1.7-4.9,3.6-9.2,5.1-11.8c0.5-0.9,1-1.7,1.4-2.2c0.2-0.1,0.4-0.3,0.5-0.4c0.7-0.6,1.8-1.1,3.1-1.4c7.4-1.6,19.3,0.8,24.2,4.6
	C124.7,127,121.6,133.8,119.1,139.9z"/>
<path class="st7" d="M115.6,122.1c-2.6,0-4.2-3-4.3-3.2l-0.3-4.2l5.1,1.8l0.2,3.3c0.1,0.3,0.6,1.4,0.4,1.9c-0.1,0.2-0.3,0.3-0.5,0.4
	C116,122.1,115.8,122.1,115.6,122.1z"/>
<path class="st8" d="M111.4,114.6l4.6,1.6l0.3,0.1v0.3l0.2,3.1c0.3,0.5,0.7,1.5,0.4,2.1c-0.1,0.3-0.3,0.4-0.6,0.5
	c-0.3,0.1-0.5,0.1-0.7,0.1c-2.8,0-4.5-3.2-4.5-3.3L111,119v-0.1l-0.2-3.8l-0.1-0.7L111.4,114.6z M111.5,118.8c0,0,1.6,3.1,4.1,3.1
	c0.2,0,0.4,0,0.6-0.1c0.8-0.2-0.2-2-0.2-2l-0.2-3.2l-4.5-1.6L111.5,118.8z"/>
<path d="M117.6,155.8c0,0.1,0,0.1,0,0.2c0,0.3-0.3,7.7-0.6,7.7c-5.8,0.8-12.5-8.4-16.4-12.5c-2.3-2.4-4.1-5.3-6.4-7.7
	c-0.4-0.4-3.9-6.3-5-9c1.7-4.9,4.1-11.2,7-14.4c0,0,3.3,13.7,1.9,16.2c-0.1,0.1-0.2,0.3-0.3,0.5c3.7,3.3,7.5,6,12,8.3
	c2.7,1.4,4.7,4.6,6.2,6.9C116.7,153.1,117.2,154.4,117.6,155.8z"/>
<path class="st7" d="M115.4,117.7c-0.9,0-2.3-0.3-3.6-1.7c-3-3.4-1.7-8.1-1.7-8.3l0.1-0.1h7.7l0.1,0.2c0,0.1,1.3,3.5,1.4,6.7
	c0.1,0.6-0.2,1.3-0.8,1.9C117.8,117.2,116.6,117.7,115.4,117.7z"/>
<path class="st8" d="M110.4,107.3l7.3,0.1h0.4l0.1,0.3c0,0.1,1.4,3.6,1.5,6.7c0,0.8-0.3,1.5-0.9,2.2c-0.9,0.9-2.1,1.4-3.4,1.4
	c-1,0-2.4-0.3-3.8-1.8c-3.1-3.6-1.8-8.3-1.7-8.5l0.1-0.4H110.4z M112,115.8c1.1,1.2,2.3,1.7,3.4,1.7c2.1,0,3.9-1.6,3.8-3
	c-0.1-3.2-1.5-6.6-1.5-6.6l-7.3-0.1C110.4,107.8,109,112.5,112,115.8z"/>
<path d="M119.7,107.3c-1.5,2.3-5.3,2.4-8.2,2.3c0,0.3,0,0.6,0.1,0.9c0.1,1,0.6,2.3,0.2,3.4c-0.3,0.7-1,1.1-1.8,0.8
	c-0.4-0.2-0.6-0.5-0.7-0.9c-1.2-1.8-1.2-5.2,0-6.8c0.8-1,2-1.3,3.2-1.5c1-0.1,1.8-0.2,2.7-0.8c0.5-0.3,0.9-0.6,1.5-0.7
	C119,103.5,121.4,105,119.7,107.3z"/>
<path d="M63.1,199.1c3.3-1.6,7.2,0.6,7.2,0.6c-3.2,2.2-1,5-1,5s-0.2,1.2-0.7,4c2.3,1.2,1.2,1.7,1.2,1.7c-2.7,0.9-5.6-0.3-5.6-0.3
	C63.7,206.4,63.1,199.1,63.1,199.1z"/>
<path d="M135.8,188c-3.6-3.3-4.4-9.5-1.8-15c2.7-5.5,7.9-8.6,12.7-8l0.2-0.4l2.4,1.2c5.3,2.5,7.1,9.9,3.9,16.4
	c-3.1,6.6-9.9,9.8-15.2,7.2l-2.4-1L135.8,188z"/>
<path class="st9" d="M146.9,164.6c5.3,2.6,7,9.9,3.9,16.5c-3.1,6.5-9.9,9.8-15.2,7.3c-5.3-2.6-7.1-10-4-16.6
	C134.7,165.3,141.6,162.1,146.9,164.6z"/>
<path class="st9" d="M145.9,166.7c4.3,2.1,5.7,8.2,3.2,13.5c-2.6,5.4-8.2,8.1-12.5,6c-4.4-2-5.9-8.2-3.3-13.5
	C135.9,167.3,141.5,164.7,145.9,166.7z"/>
<path class="st8" d="M143.3,181.1c-0.3,0.3-0.6,0.6-1.1,0.7c-0.4,0.2-0.8,0.3-1.3,0.3c-0.5,0-0.9,0-1.4-0.1l-0.6,2l-1.4-0.5l0.6-2
	c-0.4-0.3-0.7-0.6-1-0.9c-0.2-0.2-0.3-0.4-0.4-0.6c-0.1-0.1-0.1-0.1-0.1-0.2c-0.1,0-0.1,0-0.1-0.1c-0.1-0.1-0.1-0.2-0.1-0.3
	c-0.2-0.4-0.3-0.8-0.4-1.2c0-0.1,0-0.1,0-0.2s0-0.1,0-0.1s0,0,0-0.1c-0.1-0.4-0.1-0.8,0-1.3l1.5,0.5c0,0.3,0,0.6,0,0.9
	c0,0.3,0,0.5,0.1,0.7c0.1,0.1,0.1,0.1,0.1,0.1c0,0.1,0,0.1,0,0.1c0,0.1,0,0.1,0.1,0.2c0.1,0.1,0.1,0.3,0.2,0.5
	c0.2,0.2,0.4,0.4,0.6,0.5l0.2-0.7l0.1-0.1V179l1.1-3.3c-0.3-0.3-0.7-0.6-1-0.9c0-0.1,0-0.1,0-0.1c-0.1-0.1-0.1-0.1-0.2-0.2
	s-0.1-0.2-0.2-0.3c-0.1-0.1-0.2-0.3-0.3-0.4c-0.3-0.4-0.4-0.8-0.5-1.2c0-0.3,0-0.5,0.1-0.8c0-0.1,0-0.3,0.1-0.4
	c0.1-0.3,0.2-0.6,0.4-0.9c0.1-0.1,0.1-0.1,0.2-0.2c0.3-0.3,0.6-0.5,1-0.7c0.3-0.1,0.7-0.2,1.1-0.3c0.5-0.1,0.9-0.1,1.4,0l0.4-1.2
	l1.4,0.4l-0.4,1.3c0.4,0.2,0.7,0.4,1,0.7c0.3,0.3,0.6,0.6,0.8,0.9c0.2,0.3,0.4,0.7,0.5,1.1c0.1,0.5,0.1,0.9,0,1.4l-1.5-0.4
	c0-0.5-0.1-1-0.3-1.4c-0.2-0.4-0.5-0.7-0.9-0.9l-1.3,4c0.2,0.2,0.4,0.4,0.7,0.6c0.2,0.2,0.4,0.4,0.7,0.7c0.2,0.2,0.4,0.4,0.5,0.7
	c0.2,0.3,0.3,0.5,0.4,0.8c0.1,0.3,0.2,0.5,0.2,0.8c0,0.3-0.1,0.6-0.2,0.9C143.9,180.3,143.6,180.8,143.3,181.1z M139.4,172.4
	c0.1,0.2,0.1,0.4,0.2,0.6s0.2,0.4,0.4,0.6c0.1,0.2,0.3,0.4,0.5,0.5l1.1-3.4c-0.5-0.1-1,0-1.4,0.2c-0.3,0.2-0.6,0.5-0.7,0.9
	C139.4,172,139.4,172.2,139.4,172.4z M142.6,179.3c0.1-0.2,0.1-0.4,0-0.6c0-0.3-0.1-0.5-0.2-0.7c-0.1-0.2-0.3-0.4-0.5-0.6
	c-0.2-0.3-0.4-0.5-0.7-0.7l-1.2,3.9c0.3,0.1,0.6,0.1,0.9,0c0.3,0,0.5-0.1,0.8-0.2c0.2-0.1,0.4-0.3,0.5-0.5
	C142.4,179.8,142.5,179.6,142.6,179.3z"/>
<path class="st8" d="M137.9,186.8c-0.5-0.1-0.9-0.2-1.4-0.5c-2.1-1-3.6-3-4.3-5.6c-0.6-2.6-0.2-5.5,1-8.1c1.3-2.6,3.3-4.7,5.7-5.8
	c2.4-1.1,4.9-1.2,7-0.2c4.4,2.2,5.9,8.3,3.3,13.7c-1.3,2.6-3.3,4.7-5.7,5.8C141.7,187,139.7,187.3,137.9,186.8z M133.4,172.7
	c-1.2,2.6-1.6,5.4-0.9,8c0.6,2.5,2.1,4.5,4.1,5.4c2.1,1,4.5,1,6.9-0.2c2.3-1.1,4.2-3.1,5.5-5.7c2.5-5.3,1.1-11.3-3.2-13.4
	c-2.1-1-4.5-0.9-6.8,0.2C136.6,168.1,134.6,170.1,133.4,172.7z"/>
<path class="st7" d="M129.6,178.5c-0.1,0-0.1,0-0.2,0c-0.9-0.1-2.3-2.4-2.6-3c-0.1-0.1-0.4-0.2-0.7-0.5c-0.1-0.1-0.3-0.1-0.4-0.3
	c-4.2-2.9-15.2-13.8-20.2-20.1c-0.5-0.6-0.9-1.2-1.4-1.8c-4.3-5.3-9.7-11.9-8.7-20.3c0.2-2,4-2.7,7.2-2.7c1.8,0,3.4,0.2,4.3,0.6
	c1.9,0.7,3.9,6.9,5.5,11.9c0.7,2.5,1.4,4.7,1.8,5.1c2.3,2.9,9,13.9,12.5,19.8c1.2,1.9,2,3.4,2.4,3.9c0.9-0.3,2.1-0.7,2.9-0.7
	c0.1,0,0.2,0,0.3,0.1c0.4,0,0.8,0.2,0.8,0.6c0.1,0.1,0,0.4-0.3,0.6c-0.1,0.1-0.3,0.2-0.4,0.2c1.1,0.6,2.6,1.6,3,3.2
	c0.1,0.6,0,0.9-0.1,1c-0.1,0.1-0.3,0.2-0.4,0.2c-0.3,0-0.5-0.1-0.7-0.2c0.2,0.3,0.4,0.7,0.4,1c0,0.3-0.1,0.4-0.2,0.4
	c-0.1,0.1-0.3,0.2-0.5,0.2c-0.6,0-1.4-0.8-1.9-1.5c-0.1,0-0.1,0-0.1,0c0.1,0.1,0.1,0.3,0.2,0.4c0.3,0.5,0.4,0.8,0.4,1
	c0,0.7-0.4,0.9-0.6,0.9c-0.5,0-1-0.6-1.8-1.4c-0.1-0.1-0.3-0.3-0.4-0.4c0,0.1,0.1,0.3,0.2,0.5c0.2,0.4,0.4,0.8,0.2,1.1
	C130,178.4,129.8,178.5,129.6,178.5z"/>
<path class="st8" d="M107,130.1c1.9,0.7,3.6,5.7,5.6,12.1c0.7,2.3,1.4,4.7,1.8,5.1c2.3,2.9,8.7,13.5,12.5,19.8
	c1.1,1.7,1.9,3.1,2.3,3.7c0.9-0.3,2-0.6,2.8-0.6c0.1,0,0.3,0,0.4,0c0.4,0.1,0.9,0.4,1,0.8c0,0.2,0,0.6-0.5,0.9
	c1.1,0.6,2.3,1.6,2.7,3.1c0.2,0.7,0.1,1.1-0.1,1.3c-0.1,0.2-0.3,0.3-0.6,0.3c-0.1,0-0.1,0-0.2,0c0.1,0.2,0.1,0.4,0.1,0.6
	c0,0.3-0.1,0.4-0.2,0.5c-0.2,0.2-0.4,0.3-0.7,0.3c-0.4,0-0.8-0.2-1.2-0.6c0,0.1,0,0.1,0,0.2c0,1-0.6,1.1-0.8,1.1
	c-0.5,0-0.9-0.4-1.5-1c0,0.3,0,0.5-0.1,0.8c-0.1,0.1-0.3,0.3-0.7,0.3c-0.1,0-0.1,0-0.2,0c-1-0.1-2.3-2.2-2.8-3.1
	c-0.1-0.1-0.3-0.3-0.6-0.5c-0.2-0.1-0.4-0.2-0.5-0.3c-4.3-2.9-15.2-13.9-20.2-20.1c-0.5-0.6-0.9-1.2-1.4-1.9
	c-4.4-5.3-9.7-11.9-8.8-20.4c0.3-2.2,4-2.9,7.5-2.9C104.4,129.6,106,129.8,107,130.1z M95.6,132.5c-1,9.3,5.7,16.4,10.1,21.9
	c5.1,6.4,16,17.3,20.2,20.1c0.1,0.1,0.2,0.2,0.3,0.3c0.5,0.3,0.8,0.5,0.8,0.5s1.5,2.9,2.5,3c0,0,0,0,0.1,0c1,0-0.7-1.8,0-2
	c0.3,0,1.7,1.9,2.3,1.9c0.2,0,0.3-0.2,0.3-0.6c0-0.4-1-2-0.5-2c0,0,0,0,0.1,0c0.5,0.6,1.4,1.9,2.1,1.9c0.1,0,0.2,0,0.3-0.1
	c0.4-0.3-0.2-1.4-0.6-1.8c-0.9-0.9-1.1-1.3-0.9-1.3c0.1,0,0.8,0.5,1.4,1.3c0.3,0.3,0.6,0.5,0.8,0.5s0.4-0.3,0.2-0.9
	c-0.4-1.6-2-2.8-3.6-3.4c0.4,0,0.8-0.1,1.2-0.3c0.5-0.3,0-0.7-0.4-0.8c-0.1,0-0.2,0-0.3,0c-0.9,0-2.4,0.5-3,0.8
	c-1.1-1.7-11.9-20-15-23.9c-1.2-1.5-4.4-16-7.2-17c-0.9-0.3-2.5-0.5-4.2-0.5C99.4,130.1,95.8,130.8,95.6,132.5z"/>
<path class="st9" d="M95,140c-1-7.4-2.5-17.4,1.9-20.4c2.7-1.9,8.5,1.6,10.1,3.6c3.6,4.5,4,12.7,4,14
	C105.9,140.4,100.1,141.7,95,140z"/>
<path class="st7" d="M106.3,103.3c-7-1-11.7-9.9-11.9-14.6v-0.3l-28.5-0.2c-2.8,0-5-2.2-4.9-5l0.2-26.7c0-2.7,2.2-4.9,4.9-4.9
	l46.5,0.2c1.3,0,2.5,0.5,3.5,1.4c0.9,1,1.4,2.2,1.4,3.5l-0.2,26.8c0,2.7-2.3,4.9-5,4.9l-7,0.1l-0.1,0.2
	C103,94.1,105.6,101.5,106.3,103.3z"/>
<path class="st8" d="M66.1,51.3l46.5,0.2c2.8,0,5.2,2.4,5.1,5.2l-0.2,26.8c0,2.8-2.3,5.1-5.2,5.1l-6.8,0.2
	c-2.5,6.1,1.2,14.8,1.2,14.8c-7.7-0.7-12.3-10.3-12.5-14.9l-28.3-0.2c-2.9-0.1-5.2-2.4-5.2-5.3l0.2-26.7
	C60.9,53.6,63.3,51.3,66.1,51.3z M66.1,51.8c-2.6,0-4.7,2.1-4.7,4.7l-0.2,26.7c0,2.6,2.1,4.7,4.7,4.8l28.3,0.2h0.4l0.1,0.4
	c0.2,4.6,4.5,13.2,11.2,14.4c-0.8-2.4-3-9.2-0.9-14.4l0.1-0.3h0.4l6.8-0.2c2.6,0,4.7-2,4.7-4.6l0.2-26.8c0-1.2-0.4-2.4-1.3-3.3
	c-0.9-0.9-2.1-1.4-3.3-1.4L66.1,51.8v-0.5V51.8z"/>
<path class="st2" d="M88.1,86.3h-8.2v-7.6h8.2V86.3z"/>
<path class="st9" d="M76.2,86.3H68v-4.7h8.2V86.3z"/>
<path d="M99.4,86.3h-8.2V73.9h8.2V86.3z"/>
<path class="st9" d="M110.7,86.3h-8.2V69.2h8.2V86.3z"/>
<path class="st9" d="M67.1,78.6c-0.1,0-0.3,0-0.4-0.1c-0.3-0.2-0.3-0.6-0.1-0.8l5.8-7.4c0.1-0.3,0.4-0.3,0.7-0.2l6.9,2.6l5.3-8.7
	c0.1-0.1,0.3-0.2,0.4-0.3c0.2,0,0.4,0,0.5,0.1l6.8,4.9l4-8.9c0.1-0.1,0.2-0.2,0.4-0.3c0.1-0.1,0.3-0.1,0.5,0l6.3,2.9l4.3-6.5
	c0.2-0.3,0.5-0.4,0.8-0.2c0.3,0.1,0.4,0.5,0.2,0.7l-4.6,7c-0.1,0.2-0.5,0.3-0.7,0.2l-6.3-2.8l-4.1,9c-0.1,0.1-0.2,0.2-0.4,0.3
	c-0.2,0.1-0.4,0-0.5-0.1L86,65.1l-5.3,8.6c-0.1,0.2-0.5,0.3-0.7,0.2l-6.9-2.6l-5.6,7C67.4,78.4,67.3,78.5,67.1,78.6z"/>
<path class="st9" d="M110.5,59.2c-0.3,0-0.5-0.2-0.6-0.4l-0.8-2.9l-3.5,1.1c-0.3,0.1-0.6-0.1-0.7-0.3c-0.1-0.3,0-0.7,0.3-0.8
	l4.2-1.3c0.1,0,0.3,0,0.5,0.1c0.1,0.1,0.2,0.2,0.2,0.3l0.9,3.5c0.1,0.3-0.1,0.6-0.4,0.7C110.6,59.2,110.6,59.2,110.5,59.2z"/>
<path class="st7" d="M209.4,54.4c-5.4-0.8-8.9-7.6-9-11.2v-0.3l-22.1-0.1c-2,0-3.7-1.7-3.7-3.8l0.2-20.6c0-2,1.7-3.7,3.7-3.7
	l35.8,0.1c1,0,1.9,0.4,2.6,1.1c0.7,0.8,1.1,1.7,1.1,2.7l-0.1,20.6c-0.1,2-1.7,3.7-3.8,3.7l-5.4,0.1l-0.1,0.2
	C206.9,47.3,208.8,52.8,209.4,54.4z"/>
<path class="st8" d="M178.5,14.4l35.8,0.2c2.2,0,4,1.8,4,4l-0.2,20.6c0,2.2-1.8,4-4,4h-5.3c-1.9,4.7,1,11.5,1,11.5
	c-5.9-0.6-9.5-8-9.7-11.5L178.3,43c-2.2,0-3.9-1.8-3.9-4l0.1-20.6C174.5,16.2,176.3,14.4,178.5,14.4z M178.5,14.9
	c-1.9,0-3.5,1.6-3.5,3.5L174.9,39c0,1.9,1.5,3.5,3.4,3.5l21.8,0.2h0.5v0.5c0.2,3.4,3.4,9.8,8.4,10.8c-0.7-1.9-2.2-7-0.6-10.9
	l0.1-0.4h0.3h5.3c1.9,0,3.5-1.6,3.5-3.5l0.2-20.6c0-0.9-0.4-1.8-1-2.5c-0.7-0.6-1.6-1-2.5-1L178.5,14.9v-0.5V14.9z"/>
<path class="st8" d="M197,41v-2.4c-1.2-0.1-2.2-0.4-2.9-0.8c-0.7-0.3-1.4-0.9-1.9-1.8c-0.5-0.9-0.8-1.9-0.9-3.1l2.3-0.5
	c0.2,1.3,0.5,2.2,1,2.8c0.7,0.9,1.5,1.3,2.4,1.4v-7.5c-1-0.1-2-0.5-3-1.1c-0.7-0.4-1.3-1-1.7-1.7c-0.4-0.7-0.6-1.6-0.6-2.6
	c0-1.7,0.6-3,1.7-4c0.8-0.7,2-1.2,3.6-1.3v-1.1h1.4v1.1c1.3,0.1,2.4,0.5,3.2,1.2c1.1,0.9,1.7,2,1.9,3.5l-2.4,0.4
	c-0.2-0.9-0.5-1.7-0.9-2.2c-0.5-0.5-1.1-0.8-1.8-0.9v6.8c1.2,0.3,2,0.5,2.3,0.7c0.7,0.3,1.3,0.6,1.8,1.1c0.5,0.5,0.8,1,1.1,1.7
	c0.3,0.6,0.4,1.3,0.4,2c0,1.7-0.5,3-1.6,4.1c-1,1.1-2.3,1.7-4,1.8V41H197z M197,20.3c-0.9,0.2-1.7,0.6-2.2,1.2
	c-0.5,0.5-0.8,1.2-0.8,2.1c0,0.8,0.2,1.5,0.7,2c0.5,0.5,1.2,1,2.3,1.3V20.3z M198.4,36.5c0.9-0.1,1.7-0.5,2.2-1.2
	c0.6-0.7,0.9-1.5,0.9-2.5c0-0.9-0.2-1.5-0.6-2c-0.4-0.5-1.2-1-2.5-1.4V36.5z"/>
</svg>
