<?xml version="1.0" encoding="utf-8"?>
<!-- Generator: Adobe Illustrator 27.0.0, SVG Export Plug-In . SVG Version: 6.00 Build 0)  -->
<svg version="1.1" id="Layer_1" xmlns="http://www.w3.org/2000/svg" xmlns:xlink="http://www.w3.org/1999/xlink" x="0px" y="0px"
	 viewBox="0 0 500 500" style="enable-background:new 0 0 500 500;" xml:space="preserve">
<style type="text/css">
	.st0{fill:#EBEBEB;}
	.st1{fill:#DBDBDB;}
	.st2{fill:#FFFFFF;}
	.st3{fill:#263238;}
	.st4{fill:#F5821F;}
	.st5{fill:#A6A6A6;}
	.st6{fill:#056251;}
	.st7{opacity:0.1;fill:#056251;enable-background:new    ;}
	.st8{fill:#455A64;}
	.st9{fill:#AD6359;}
	.st10{fill:#C7C7C7;}
	.st11{fill:#37474F;}
	.st12{opacity:0.1;enable-background:new    ;}
	.st13{fill:#FF9ABB;}
	.st14{fill:#EB9481;}
</style>
<g id="freepik--background-complete--inject-424">
	
		<ellipse transform="matrix(0.1595 -0.9872 0.9872 0.1595 175.4819 368.1315)" class="st0" cx="303.9" cy="81" rx="26.8" ry="26.8"/>
	<circle class="st1" cx="305.4" cy="82.7" r="25.5"/>
	<ellipse transform="matrix(0.9257 -0.3782 0.3782 0.9257 -8.2737 122.141)" class="st2" cx="306.8" cy="82.1" rx="24" ry="24"/>
	<rect x="305.1" y="60.6" class="st0" width="0.6" height="3.6"/>
	
		<rect x="294.9" y="63.3" transform="matrix(0.8661 -0.4998 0.4998 0.8661 6.9755 156.2841)" class="st0" width="0.6" height="3.6"/>
	<rect x="287.8" y="69.6" transform="matrix(0.4983 -0.867 0.867 0.4983 82.6282 285.5911)" class="st0" width="0.6" height="3.6"/>
	<rect x="283.2" y="82.4" class="st0" width="3.6" height="0.6"/>
	<rect x="286" y="92.5" transform="matrix(0.8659 -0.5002 0.5002 0.8659 -7.8601 156.3849)" class="st0" width="3.6" height="0.6"/>
	
		<rect x="293.4" y="100" transform="matrix(0.4995 -0.8663 0.8663 0.4995 60.8806 305.9181)" class="st0" width="3.6" height="0.6"/>
	<rect x="305.1" y="101.2" class="st0" width="0.6" height="3.6"/>
	<rect x="315.2" y="98.5" transform="matrix(0.866 -0.5 0.5 0.866 -7.8779 171.2043)" class="st0" width="0.6" height="3.6"/>
	<rect x="322.6" y="91" transform="matrix(0.5 -0.866 0.866 0.5 81.0704 326.0987)" class="st0" width="0.6" height="3.6"/>
	<rect x="323.9" y="82.4" class="st0" width="3.6" height="0.6"/>
	<rect x="321.1" y="72.2" transform="matrix(0.866 -0.5 0.5 0.866 7.0066 171.1908)" class="st0" width="3.6" height="0.6"/>
	
		<rect x="313.7" y="64.8" transform="matrix(0.4995 -0.8663 0.8663 0.4995 101.5119 305.9344)" class="st0" width="3.6" height="0.6"/>
	
		<rect x="292.4" y="85.1" transform="matrix(0.4534 -0.8913 0.8913 0.4534 89.9749 317.6205)" class="st0" width="23.1" height="0.6"/>
	
		<rect x="305.6" y="74.3" transform="matrix(0.9805 -0.1963 0.1963 0.9805 -10.871 61.7276)" class="st1" width="0.8" height="22.7"/>
	<path class="st0" d="M227,254.8H55.3V56.6H227V254.8z M59.3,250.8H223V60.6H59.3L59.3,250.8z"/>
	<rect x="137.6" y="61.6" class="st0" width="4" height="191.2"/>
	<rect x="51.7" y="64.7" class="st0" width="178.9" height="5.6"/>
	<rect x="51.7" y="70.9" class="st0" width="178.9" height="5.6"/>
	<rect x="51.7" y="77.2" class="st0" width="178.9" height="5.6"/>
	<rect x="51.7" y="83.4" class="st0" width="178.9" height="5.6"/>
	<rect x="51.7" y="89.7" class="st0" width="178.9" height="5.6"/>
	<rect x="51.7" y="96" class="st0" width="178.9" height="5.6"/>
	<rect x="51.7" y="102.2" class="st0" width="178.9" height="5.6"/>
	<rect x="51.7" y="108.5" class="st0" width="178.9" height="5.6"/>
	<rect x="51.7" y="114.8" class="st0" width="178.9" height="5.6"/>
	<rect x="217.8" y="63.5" class="st3" width="1" height="128.4"/>
	<polygon class="st3" points="220,196.6 216.5,196.6 217.4,191.5 219.1,191.5 	"/>
	<rect x="221.4" y="63.5" class="st3" width="1" height="185.7"/>
	<polygon class="st3" points="223.6,253 220.1,253 221,247.9 222.8,247.9 	"/>
	<rect x="45.5" y="55.8" class="st1" width="191.4" height="11.7"/>
	<rect x="351.6" y="101.7" class="st0" width="107.9" height="135.9"/>
	<rect x="365" y="129.7" class="st1" width="80.8" height="2.6"/>
	<rect x="365" y="135.1" class="st1" width="68.4" height="2.6"/>
	<rect x="365" y="140.5" class="st1" width="52.2" height="2.6"/>
	<rect x="365" y="145.9" class="st1" width="78" height="2.6"/>
	<rect x="365" y="151.2" class="st1" width="71.3" height="2.6"/>
	<rect x="365" y="162" class="st1" width="74" height="2.6"/>
	<rect x="365" y="167.4" class="st1" width="28.4" height="2.6"/>
	<rect x="365" y="172.7" class="st1" width="57.2" height="2.6"/>
	<rect x="365" y="178.1" class="st1" width="78" height="2.6"/>
	<rect x="365" y="183.5" class="st1" width="67.2" height="2.6"/>
	<rect x="365" y="194.2" class="st1" width="72.9" height="2.6"/>
	<rect x="365" y="199.6" class="st1" width="44.1" height="2.6"/>
	<rect x="365" y="215.9" class="st1" width="44.1" height="2.6"/>
	<circle class="st4" cx="438.9" cy="218.4" r="8.2"/>
	<path class="st5" d="M377,112.1c1,0,1.9,0.3,2.7,0.9c0.1,0.1,0.2,0.3,0.1,0.4c0,0,0,0,0,0c-0.1,0.1-0.3,0.2-0.4,0.1c0,0,0,0,0,0
		c-0.7-0.5-1.5-0.8-2.4-0.8c-2,0-3.7,1.6-3.7,3.7c0,2,1.6,3.7,3.7,3.7c0.8,0,1.7-0.3,2.3-0.8c0.1-0.1,0.3-0.1,0.4,0c0,0,0,0,0,0
		c0.1,0.1,0.1,0.3,0,0.4c0,0,0,0,0,0c-0.8,0.6-1.7,0.9-2.7,0.9c-2.4,0-4.3-1.9-4.3-4.3S374.7,112.1,377,112.1
		C377,112.1,377,112.1,377,112.1L377,112.1z"/>
	<path class="st5" d="M385.7,112.1c2.4-0.1,4.4,1.7,4.5,4c0.1,2.4-1.7,4.4-4,4.5c-2.4,0.1-4.4-1.7-4.5-4c0-0.1,0-0.1,0-0.2
		C381.5,114.1,383.3,112.2,385.7,112.1C385.6,112.1,385.7,112.1,385.7,112.1z M385.7,120.1c2,0.1,3.8-1.4,3.9-3.5
		c0.1-2-1.4-3.8-3.5-3.9s-3.8,1.4-3.9,3.5c0,0.1,0,0.1,0,0.2C382.2,118.4,383.7,120,385.7,120.1z"/>
	<path class="st5" d="M392.5,113.5v6.9c0,0.2-0.1,0.3-0.2,0.3c-0.2,0-0.3-0.1-0.3-0.2c0,0,0-0.1,0-0.1v-7.7c0-0.1,0-0.2,0.1-0.3
		c0.1-0.1,0.3-0.1,0.4,0.1l5.1,7v-6.8c0-0.2,0.1-0.3,0.3-0.3c0.2,0,0.3,0.1,0.3,0.3c0,0,0,0,0,0v7.7c0,0.2-0.1,0.3-0.3,0.3
		c0,0,0,0,0,0c-0.1,0-0.2,0-0.2-0.1c0,0,0,0,0-0.1L392.5,113.5z"/>
	<path class="st5" d="M403.2,112.8h-2.5c-0.2,0-0.3-0.1-0.3-0.3c0-0.2,0.1-0.3,0.3-0.3h5.6c0.2,0,0.3,0.1,0.3,0.3
		c0,0.2-0.1,0.3-0.3,0.3h-2.5v7.5c0,0.2-0.1,0.3-0.3,0.3c-0.2,0-0.3-0.1-0.3-0.3c0,0,0,0,0,0L403.2,112.8z"/>
	<path class="st5" d="M413,118.8c0-0.5-0.3-1-0.7-1.3c-0.3-0.2-0.6-0.3-1-0.4h-0.1h-2v3.3c0,0.2-0.2,0.3-0.3,0.2
		c-0.1,0-0.2-0.1-0.2-0.2v-7.8c0-0.1,0.1-0.3,0.3-0.3h2.4c1.3,0,2.4,1.1,2.4,2.4c0,0.9-0.5,1.8-1.4,2.1c0,0,0.1,0,0.1,0.1
		c0.7,0.4,1.1,1.1,1.1,1.9c0,0.3,0,0.7,0.1,1c0,0.1,0.1,0.1,0.1,0.2c0.1,0,0.3,0.1,0.3,0.2c0,0.2,0,0.3-0.2,0.4h-0.2
		c-0.2,0-0.4-0.2-0.5-0.4C413,119.7,413,119.2,413,118.8z M411.3,112.8h-2.1v3.6h2.1c1,0,1.8-0.8,1.8-1.8
		C413.1,113.6,412.3,112.8,411.3,112.8L411.3,112.8z"/>
	<path class="st5" d="M420.9,118.5h-3.8l-0.7,2c0,0.1-0.1,0.2-0.3,0.2h-0.1c-0.2-0.1-0.2-0.2-0.2-0.4l2.9-7.8
		c0.1-0.1,0.2-0.2,0.3-0.2c0.1,0,0.2,0.1,0.3,0.2l2.9,7.8c0.1,0.1,0,0.3-0.1,0.4h-0.1c-0.1,0-0.2-0.1-0.3-0.2L420.9,118.5z
		 M417.3,117.9h3.4l-1.7-4.5L417.3,117.9z"/>
	<path class="st5" d="M427.5,112.1c1,0,1.9,0.3,2.7,0.9c0.1,0.1,0.2,0.3,0.1,0.4c0,0,0,0,0,0c-0.1,0.1-0.3,0.2-0.4,0.1c0,0,0,0,0,0
		c-0.7-0.5-1.5-0.8-2.4-0.8c-2,0-3.7,1.6-3.7,3.7c0,2,1.6,3.7,3.7,3.7l0,0c0.8,0,1.7-0.3,2.3-0.8c0.1-0.1,0.3-0.1,0.4,0c0,0,0,0,0,0
		c0.1,0.1,0.1,0.3,0,0.4c0,0,0,0,0,0c-0.8,0.6-1.7,0.9-2.7,0.9c-2.4,0-4.3-1.9-4.3-4.3S425.2,112.1,427.5,112.1
		C427.6,112.1,427.6,112.1,427.5,112.1L427.5,112.1z"/>
	<path class="st5" d="M435,112.8h-2.5c-0.2,0-0.3-0.1-0.3-0.3c0-0.2,0.1-0.3,0.3-0.3h5.6c0.2,0,0.3,0.1,0.3,0.3
		c0,0.2-0.1,0.3-0.3,0.3c0,0,0,0,0,0h-2.5v7.5c0,0.2-0.1,0.3-0.3,0.3c-0.2,0-0.3-0.1-0.3-0.3L435,112.8z"/>
	<polygon class="st0" points="257,366.1 455.1,366.1 459.2,284.9 252.9,284.9 	"/>
	<path class="st1" d="M445.7,322.1h-82.8l-1.5-28.2h86.2L445.7,322.1z M363.8,321.1h80.9l1.7-26.2h-84.1L363.8,321.1z"/>
	<path class="st1" d="M444.2,354.5h-78l-1.3-25.5h80.9L444.2,354.5z M367.1,353.5h76.2l1.5-23.5h-78.8L367.1,353.5z"/>
	<path class="st1" d="M412.3,311h-13.9l-0.9-6.8h15.7L412.3,311z M399.3,310h12.2l0.6-4.8h-13.4L399.3,310z"/>
	<path class="st1" d="M412.3,345.2h-13.9l-0.9-6.8h15.7L412.3,345.2z M399.3,344.2h12.2l0.6-4.8h-13.4L399.3,344.2z"/>
	<path class="st1" d="M348.3,322.1h-82.8l-1.5-28.2h86.2L348.3,322.1z M266.4,321.1h80.9l1.6-26.2h-84L266.4,321.1z"/>
	<path class="st1" d="M346.8,354.5h-78.1l-1.3-25.5h80.9L346.8,354.5z M269.7,353.5h76.2l1.5-23.5h-78.8L269.7,353.5z"/>
	<path class="st1" d="M314.9,311h-13.9l-0.9-6.8h15.7L314.9,311z M301.9,310H314l0.6-4.8h-13.4L301.9,310z"/>
	<path class="st1" d="M314.9,345.2h-13.9l-0.9-6.8h15.7L314.9,345.2z M301.9,344.2H314l0.6-4.8h-13.4L301.9,344.2z"/>
	<polygon class="st0" points="274.8,366.1 273.5,375 271,392.8 266.1,392.8 266.1,366.1 	"/>
	<polygon class="st1" points="274.8,366.1 273.5,375 266.1,375 266.1,366.1 	"/>
	<polygon class="st0" points="437.3,366.1 438.6,375 441.1,392.8 446,392.8 446,366.1 	"/>
	<polygon class="st1" points="437.3,366.1 438.6,375 446,375 446,366.1 	"/>
</g>
<g id="freepik--Shadow--inject-424">
	<ellipse class="st0" cx="250" cy="449.4" rx="180.4" ry="23.5"/>
	<ellipse class="st0" cx="84.5" cy="410.7" rx="54" ry="12.9"/>
</g>
<g id="freepik--Floor--inject-424">
	<polygon class="st3" points="33.4,392.8 87.6,392.5 141.7,392.5 250,392.3 358.3,392.5 412.5,392.5 466.6,392.8 412.5,393 
		358.3,393.1 250,393.3 141.7,393.1 87.6,393 	"/>
</g>
<g id="freepik--Plant--inject-424">
	<path class="st4" d="M86.1,219.6c0,0-26.9-3.8-20.6-36.2C65.5,183.4,95.5,190.1,86.1,219.6z"/>
	<path class="st6" d="M86.1,219.6c0,0-26.9-3.8-20.6-36.2C65.5,183.4,95.5,190.1,86.1,219.6z"/>
	<path class="st3" d="M84.7,212.8c-0.5-1.6-1.1-3.3-1.8-4.8c0-0.2,0-0.4-0.1-0.6c0-0.4-0.1-0.9-0.1-1.3c-0.1-1-0.1-1.9-0.2-2.9
		c-0.1-1.9-0.2-3.9-0.3-5.8c0-0.1-0.2-0.1-0.2,0c0,1.9,0,3.9,0,5.8c0,1,0.1,1.9,0.2,2.9c0,0.2,0,0.4,0,0.6c-1.5-3.2-3.3-6.3-5.4-9.2
		c-0.9-1.3-1.8-2.5-2.8-3.7c-1.1-1.2-2.2-2.4-3.3-3.6c-0.1-0.1-0.2,0-0.1,0.1c1.9,2.1,3.7,4.4,5.2,6.9c0.8,1.2,1.6,2.5,2.3,3.8
		l-0.2-0.1l-1-0.4l-2.2-0.8c-1.4-0.5-2.9-1.1-4.3-1.6c-0.1,0-0.2,0.1-0.1,0.1c1.4,0.6,2.8,1.2,4.3,1.8l2.1,0.9l1.1,0.4
		c0.2,0.1,0.5,0.2,0.7,0.2c0.5,1,1.1,1.9,1.6,2.9c1.2,2.5,2.3,5.1,3.3,7.8c0.1,0.2,0.1,0.4,0.2,0.6c-0.7-0.4-1.4-0.8-2.2-1.1
		l-2.8-1.3c-1.9-0.9-3.8-1.8-5.6-2.8c0,0-0.1,0-0.1,0s0,0.1,0,0.1c1.8,1,3.7,2.1,5.5,3.1c0.9,0.5,1.9,1,2.8,1.4
		c0.8,0.5,1.6,0.8,2.5,1c0.9,2.5,1.5,5,1.8,7.6c0.3,3.7,0.3,7.4,0.4,11.1 M85.9,232.1c0.3-3.3,0.4-6.7,0.4-10.1
		c0-3.1-0.6-6.2-1.6-9.2L85.9,232.1z"/>
	<path class="st3" d="M80.6,193.7c-0.3,1.9-0.4,3.8-0.3,5.7c0,0.1,0.1,0.1,0.1,0c0.1-1.9,0.1-3.8,0.3-5.7
		C80.7,193.7,80.6,193.6,80.6,193.7z"/>
	<path class="st3" d="M72.9,195.4c-1.2-0.5-2.4-1-3.5-1.7c-0.1-0.1-0.2,0.1-0.1,0.1c1.1,0.7,2.3,1.3,3.5,1.7
		C72.9,195.5,73,195.4,72.9,195.4z"/>
	<path class="st3" d="M86.9,271.1c0-3-0.1-5.9-0.1-8.9c-0.1-9.9-0.1-19.7-0.3-29.6c-0.1-7.8-0.3-15.7-0.6-23.5c0,0,0-0.1-0.1-0.1
		c0-2.1,0-4.3,0-6.4c0-0.1-0.1-0.1-0.1-0.1s-0.1,0-0.1,0.1c0,2.1,0,4.3,0,6.4c0,3.2-0.1,0.1-0.1,0.1c-0.4,14-0.7,27.9-0.8,41.8
		c0,2.8,0,5.7,0,8.5c-0.1,9.1-0.1,18.2-0.1,27.3c0,1.4,0,2.9,0,4.3c0,8.3,0.1,16.6,0.1,25c0,0.4,0.5,0.7,1,0.7s1.2-0.2,1.2-0.7
		c0-9.2,0.1-18.4,0.1-27.5C87,282.7,87,276.9,86.9,271.1z"/>
	<path class="st6" d="M75.7,262.1c0,0-12.9-9.6-25.2-3.1c-12.3,6.5-14.2,31.4-14.2,31.4s18,2.6,29.4-8.2
		C76.6,271.8,75.7,262.1,75.7,262.1z"/>
	<path class="st3" d="M79.2,262.7c-2.4-0.9-4.9-1.3-7.5-1c-0.5-0.1-1.1-0.1-1.6-0.2l-1.8-0.1l-3.8-0.3c-2.5-0.2-5.1-0.4-7.7-0.6
		c0,0-0.1,0.1-0.1,0.1c0,0,0,0,0.1,0.1c2.5,0.3,5,0.7,7.5,0.9c1.3,0.1,2.6,0.3,3.9,0.4l0.9,0.1c-0.4,0.1-0.8,0.2-1.2,0.3
		c-2,0.6-4,1.4-5.9,2.4c-1,0.2-2,0.5-3,0.7c-1.6,0.4-3.2,0.8-4.8,1.2c-3.1,0.8-6.2,1.8-9.4,2.7c-0.1,0,0,0.2,0,0.1
		c3.1-0.8,6.2-1.5,9.4-2.2l4.5-1.1l1.2-0.3c-3.5,2.2-6.6,4.9-9.2,8c-2.5,3.1-4.7,6.5-6.4,10.1c0,0.1,0.1,0.2,0.1,0.1
		c2.1-3.7,4.7-7.1,7.7-10.1c-0.1,0.2-0.1,0.4-0.2,0.5l-0.7,2.3c-0.5,1.5-1,3-1.4,4.6c0,0.1,0.1,0.1,0.2,0c0.5-1.5,1.1-3,1.6-4.5
		c0.2-0.7,0.5-1.5,0.8-2.2c0.1-0.4,0.3-0.8,0.4-1.1c0-0.1,0.1-0.2,0.1-0.4c1.4-1.4,3-2.7,4.6-3.9c2.1-1.6,4.4-2.9,6.9-3.9
		c0,0.2-0.1,0.5-0.1,0.7c-0.1,0.6-0.3,1.2-0.4,1.8c-0.2,1.2-0.5,2.5-0.7,3.7c-0.5,2.5-0.8,5-1.3,7.5c0,0.1,0.1,0.1,0.2,0
		c0.6-2.5,1.3-5,1.9-7.5c0.3-1.3,0.6-2.5,0.8-3.8l0.4-1.8c0.1-0.3,0.1-0.7,0.2-1l0.7-0.3c3.4-1.3,7.1-2.2,10.8-1.5
		c3.5,0.6,6.4,3,7.8,6.2c0.1,0.3,0.6,0.1,0.5-0.2C84.7,266.2,82.1,263.9,79.2,262.7z"/>
	<path class="st3" d="M59.4,273.4c-0.4,1.6-0.7,3.3-1.1,4.9c-0.4,1.6-0.7,3.2-0.9,4.8c0,0.1,0.1,0.1,0.1,0c0.5-1.6,0.8-3.2,1.1-4.8
		c0.3-1.6,0.6-3.2,1-4.9C59.6,273.3,59.4,273.3,59.4,273.4z"/>
	<path class="st3" d="M46.9,277.5c-1.7,0.8-3.2,1.8-5,2.5c0,0-0.1,0.1,0,0.1c0,0,0.1,0.1,0.1,0C43.7,279.4,45.4,278.5,46.9,277.5
		C47,277.6,47,277.5,46.9,277.5z"/>
	<path class="st6" d="M78.6,244.5c0,0-15.8,1-23.2-9.4s-5.7-25.3-5.7-25.3s16.6,2,23.2,9.5S78.6,244.5,78.6,244.5z"/>
	<path class="st3" d="M86,260.1c-0.6-1.7-1.2-3.4-1.9-5s-1.3-3.2-2-4.7c-1.4-3.2-3-6.3-4.7-9.3c-1.1-1.9-2.3-3.8-3.6-5.6
		c0-0.3-0.1-0.6-0.1-0.8c-0.1-0.5-0.1-1-0.2-1.5c-0.2-1-0.3-2-0.5-3c-0.4-2.2-0.8-4.4-1.2-6.5c0-0.1-0.2-0.1-0.2,0
		c0.3,2.2,0.5,4.3,0.8,6.5c0.2,1.1,0.3,2.1,0.4,3.2l0.2,1.1c-2.4-3.5-5-6.9-7.8-10.1l-1.1-1.3c0-0.1-0.1-0.2-0.2-0.4
		c-0.1-0.3-0.2-0.6-0.3-0.9c-0.2-0.6-0.5-1.2-0.7-1.9c-0.4-1.2-0.8-2.5-1.2-3.8c0-0.1-0.2-0.1-0.2,0c0.3,1.3,0.7,2.6,1,3.9
		c0.2,0.6,0.4,1.2,0.6,1.8c0,0.1,0.1,0.2,0.1,0.3c-2-2.2-4.1-4.3-6.3-6.4c-0.1-0.1-0.2,0-0.1,0.1c4.1,4.3,7.8,8.9,11.2,13.7
		c-0.4-0.1-0.8-0.2-1.2-0.3c-1.2-0.2-2.4-0.4-3.7-0.6c-2.6-0.3-5.2-0.6-7.7-1.1c-0.1,0-0.2,0.1,0,0.2c2.5,0.5,4.9,1,7.3,1.6
		c1.1,0.3,2.3,0.5,3.5,0.7c0.9,0.2,1.9,0.5,2.8,0.8c0.2,0.4,0.5,0.7,0.8,1.1c1.2,1.7,2.3,3.4,3.4,5.1l-1.6-0.3
		c-1.2-0.2-2.4-0.5-3.7-0.7c-2.4-0.4-4.8-0.8-7.2-1.4c-0.1,0-0.1,0.1,0,0.2c2.4,0.6,4.8,1.2,7.2,1.9c1.2,0.3,2.3,0.6,3.5,0.9
		l1.8,0.4c0.2,0.1,0.5,0.1,0.7,0.1c2.3,3.7,4.5,7.6,6.5,11.5c0.9,1.7,1.7,3.5,2.6,5.2c0.8,1.7,1.6,3.6,2.3,5.4
		C85.6,260.7,86.2,260.5,86,260.1z"/>
	<path class="st3" d="M69.8,223.8c-0.3-1.5-0.6-3-1-4.5c0-0.1-0.2-0.1-0.2,0c0.3,1.5,0.6,3,0.9,4.4c0.2,1.5,0.5,3,0.9,4.4l0,0
		C70.3,226.7,70.1,225.2,69.8,223.8z"/>
	<path class="st3" d="M60.6,223.4c-0.7-0.4-1.5-0.7-2.3-1l-1.2-0.5l-0.6-0.2c-0.2-0.1-0.5-0.2-0.7-0.3c-0.1-0.1-0.2,0.1-0.1,0.1
		c0.2,0.1,0.5,0.2,0.7,0.3l0.6,0.3l1.2,0.5c0.8,0.4,1.5,0.7,2.3,0.9C60.7,223.5,60.7,223.4,60.6,223.4z"/>
	<path class="st6" d="M94.8,232.1c0,0,9.6-17.9,24.1-20.6s23.5,12.2,23.5,12.2s-10.6,13.6-24,15.9S94.8,232.1,94.8,232.1z"/>
	<path class="st3" d="M128.7,219.5c-3.8-0.5-7.6-0.5-11.4,0.1l0.7-0.4l3.2-1.7c2.2-1.2,4.5-2.3,6.8-3.3c0.1-0.1,0-0.2-0.1-0.1
		c-2.3,1.1-4.6,2-6.9,3c-1.2,0.5-2.3,1.1-3.4,1.7c-0.7,0.4-1.5,0.7-2.2,1.2c-3.2,0.6-6.3,1.7-9.2,3.1l1.8-2c1.3-1.5,2.7-3.1,4.2-4.4
		c0.1-0.1,0-0.2-0.1-0.1c-1.5,1.4-3.1,2.7-4.6,4.1c-0.7,0.7-1.4,1.4-2.1,2.2c-0.3,0.4-0.7,0.8-1,1.1C94.2,229.4,87,239,84.8,250.3
		c0,0.1,0.1,0.1,0.2,0.1c2.1-6.8,5.7-13,10.7-18.1c5.4-5.4,12.1-9.3,19.5-11.2c4.4-1.1,8.9-1.5,13.5-1.2c0.1,0,0.2-0.1,0.2-0.1
		C128.8,219.5,128.8,219.5,128.7,219.5z"/>
	<path class="st7" d="M142.4,223.7c0,0-10.6,13.6-24,15.9c-10.2,1.8-18.6-3.5-22-6.1l-0.7-1.2c0,0,6.9-5.8,19.9-9.1
		S142.4,223.7,142.4,223.7z"/>
	<path class="st3" d="M120.2,213.1c-1.1,0.7-2.2,1.4-3.2,2.1c-1,0.8-2,1.6-2.8,2.6c0,0,0,0.1,0,0.1c0,0,0.1,0,0.1,0
		c1-0.8,1.9-1.7,2.9-2.5c1-0.8,2-1.5,3.1-2.2c0,0,0-0.1,0-0.1C120.3,213.1,120.2,213.1,120.2,213.1z"/>
	<path class="st3" d="M128.2,216.1c-0.5,0.2-1.1,0.4-1.6,0.6l-1.6,0.7c-0.1,0-0.1,0.2,0.1,0.2l1.6-0.7c0.6-0.2,1.1-0.5,1.6-0.7
		C128.4,216.2,128.3,216.1,128.2,216.1z"/>
	<path class="st6" d="M92.9,254.6c0,0,2.6,17.7,15.9,23.9s29.6,0,29.6,0S132,240.2,92.9,254.6z"/>
	<path class="st3" d="M129.2,267c-1.2-0.1-2.4-0.4-3.7-0.6l-1.8-0.3l-0.9-0.2c-0.4-0.3-0.7-0.7-1.1-1c-2.5-2.2-5.3-4.2-8.2-5.9
		c-1.6-0.9-3.2-1.8-4.9-2.5h0.2l4.4,0.2c2.9,0.1,5.8,0.2,8.8,0.4c0.1,0,0.1-0.1,0-0.2c-2.9-0.2-5.9-0.5-8.8-0.8l-4.3-0.4l-2.2-0.2
		l-0.6-0.1c-0.8-0.3-1.5-0.6-2.3-0.8c-3.6-1.2-7.5-1.5-11.3-0.6c-3.3,0.9-6.7,3.1-7.6,6.6c0,0.1,0.2,0.2,0.2,0.1
		c1.2-3,4.5-4.5,7.5-5.1c2-0.4,4-0.4,6-0.1c0.1,0.9,0.4,1.8,0.7,2.7c0.4,1.2,0.7,2.5,1.1,3.7c0.8,2.5,1.6,5,2.3,7.5
		c0,0,0,0.1,0.1,0.1s0.1,0,0.1-0.1c-0.6-2.5-1.2-5-1.8-7.5c-0.3-1.2-0.6-2.4-0.9-3.7c-0.2-0.9-0.4-1.7-0.7-2.5
		c1.2,0.2,2.3,0.5,3.5,0.8c2,0.6,4,1.4,6,2.2c0.2,1.3,0.5,2.5,0.8,3.8c0.4,1.6,0.8,3.1,1.3,4.6c0,0,0.1,0.1,0.1,0c0,0,0,0,0,0
		l-0.1-0.3l0,0c-0.3-1.5-0.6-2.9-0.9-4.4c-0.2-1.2-0.5-2.3-0.7-3.5c1.7,0.7,3.3,1.6,4.9,2.5c0,0.4,0.1,0.7,0.2,1.1
		c0.1,0.6,0.2,1.2,0.3,1.8c0.2,1.4,0.5,2.7,0.8,4.1c0.6,2.6,1.4,5.2,2.3,7.7c0,0,0,0.1,0,0.1l0.1,0.1c0.1,0.1,0.2,0,0.1-0.1
		c-0.6-2.6-1.3-5.2-1.9-7.9c-0.3-1.3-0.6-2.6-0.8-4c-0.1-0.7-0.2-1.3-0.4-2l-0.1-0.6c1.8,1.1,3.5,2.2,5.2,3.5
		c2.9,2.2,5.5,4.6,7.9,7.2c0.1,0.1,0.3,0,0.2-0.2c-1-1.3-2-2.6-3.2-3.9c-0.7-0.7-1.4-1.4-2.1-2.1h0.2c0.6,0.1,1.2,0.2,1.9,0.3
		c1.2,0.2,2.5,0.3,3.7,0.4C129.2,267.1,129.3,267,129.2,267z"/>
	<path class="st3" d="M119.8,273L119.8,273c0-0.1,0-0.3-0.1-0.5s-0.1-0.4-0.2-0.6l0,0c-0.3-1.2-0.5-2.4-0.7-3.6c0-0.1-0.1-0.1-0.1,0
		c0.1,1.6,0.4,3.2,1,4.6C119.7,273.1,119.8,273,119.8,273L119.8,273z"/>
	<path class="st3" d="M108.6,272.7C108.6,272.7,108.6,272.6,108.6,272.7c-0.5-1.6-0.8-3.2-1.1-4.8c-0.2-0.8-0.3-1.7-0.5-2.5
		c-0.1-0.5-0.2-0.9-0.2-1.4c0-0.4-0.1-0.8-0.3-1.1c0,0-0.1-0.1-0.1,0c0,0,0,0,0,0c0,0.8,0.1,1.6,0.3,2.4c0.2,0.9,0.3,1.7,0.5,2.6
		c0.4,1.8,0.8,3.5,1.3,5.2c0,0,0.1,0.1,0.1,0.1c0,0,0,0,0.1-0.1L108.6,272.7z"/>
	<path class="st3" d="M128,261.9c-2.4-0.3-4.9-0.7-7.3-1c-0.1,0-0.1,0.1,0,0.2c2.4,0.4,4.9,0.7,7.3,1C128,262,128.1,261.9,128,261.9
		z"/>
	<path class="st6" d="M86.1,213c0,0-8.2-35.8,30.3-50.3C116.3,162.7,127,209.8,86.1,213z"/>
	<path class="st3" d="M94.3,192.7l0.4-0.2l2.2-1.2l4.5-2.5c2.9-1.6,5.8-3.4,8.8-5c0.1,0,0-0.2-0.1-0.1c-3,1.6-6,3.1-8.9,4.7
		l-4.4,2.3l-1.8,1c1.3-2.4,2.7-4.8,4.2-7.1c2-3.1,4.2-6,6.5-8.8c0-0.1,0-0.1,0-0.2s-0.1,0-0.2,0c-3.4,3.3-6.4,6.9-8.9,10.9
		c0-0.1,0-0.3,0-0.4c0-0.9,0.1-1.8,0.1-2.7c0-1.8-0.1-3.5,0-5.2c0-0.1-0.2-0.1-0.2,0c-0.1,1.7-0.3,3.4-0.4,5.2
		c0,0.9-0.1,1.7-0.1,2.6c0,0.5,0,1,0,1.5c-0.8,1.3-1.5,2.5-2.3,3.8c-1.3,2.3-2.4,4.7-3.4,7.2c0-0.9-0.1-1.8-0.1-2.7
		c-0.1-2-0.3-3.9-0.4-5.9c0,0,0-0.1-0.1-0.1s-0.1,0-0.1,0.1c0,2,0,3.9,0,5.9c0,1,0.1,2,0.1,2.9c0,0.4,0,0.7,0.1,1.1
		c-1.2,3.2-2.2,6.5-2.9,9.8c-0.7,3.6-1.1,7.2-1.4,10.8l0,0c0.4-3.3,1.1-6.5,2-9.6c0.5-1.7,1-3.4,1.5-5c1.6-0.8,3.1-1.7,4.7-2.6
		l4.8-2.6c3.2-1.8,6.4-3.6,9.7-5.1c0.1,0,0-0.2-0.1-0.1c-3.3,1.5-6.7,3-10,4.6c-1.6,0.8-3.2,1.7-4.8,2.6c-1.3,0.8-2.7,1.5-4,2.4
		c0.4-1.1,0.8-2.2,1.2-3.3C91.5,198.6,92.9,195.6,94.3,192.7z"/>
	<path class="st3" d="M91.1,184.5c0,0-0.1-0.1-0.1-0.1c0,0,0,0-0.1,0.1c0.1,2,0.2,4.1,0.4,6.1c0,0,0,0.1,0.1,0.1c0,0,0.1,0,0.1-0.1
		C91.5,188.6,91.3,186.6,91.1,184.5z"/>
	<path class="st3" d="M109.5,191.4c-2.4,1-4.8,1.9-7.2,2.9c-0.1,0,0,0.1,0,0.1c2.4-0.9,4.8-1.9,7.2-2.8
		C109.7,191.5,109.6,191.3,109.5,191.4z"/>
	<path class="st3" d="M113.2,174.9c-2.4,1.1-4.6,2.3-6.8,3.7c0,0,0,0.1,0,0.2c0,0,0.1,0,0.1,0c2.2-1.3,4.5-2.6,6.8-3.7
		C113.4,175,113.3,174.8,113.2,174.9z"/>
	<rect x="57.2" y="290.4" class="st8" width="55.5" height="58.5"/>
	<rect x="53.3" y="311.1" class="st3" width="2.8" height="100.1"/>
	<rect x="113.3" y="311.1" class="st3" width="2.8" height="100.1"/>
	<rect x="84.8" y="311.1" class="st3" width="2.8" height="100.1"/>
	<rect x="54.8" y="345.1" class="st3" width="60" height="8.1"/>
</g>
<g id="freepik--Characters--inject-424">
	<path class="st9" d="M335.6,378.5c0,0,0,43.1,0,43.1c0,8.2-0.1,15.5-0.5,19.2c0,0,0,0,0,0.1c0,0.9-0.2,1.8-0.6,2.5l0,0
		c-2.4,1.7-68.2,3.9-70.6,3.2s-0.5-7.4,2-9.5s27.3-14.2,27.3-14.2l0.4-43L335.6,378.5z"/>
	<path class="st10" d="M335.6,412.8v8.9c0,8.2-0.1,15.5-0.5,19.2c0,0,0,0,0,0.1c-0.1,0.9-0.3,1.7-0.6,2.5l0,0
		c-2.4,1.7-68.2,3.9-70.6,3.2s-0.5-7.4,2-9.5s27.3-14.2,27.3-14.2l-0.1-9L335.6,412.8z"/>
	<path class="st3" d="M263.9,446.7c2.3,0.7,68.1-1.5,70.6-3.2c0.9-0.6,1.2-10.2,1.1-21.8v-0.4l-42.5,1l0,0.7
		c0,0-24.8,12.1-27.3,14.3S261.6,446,263.9,446.7z"/>
	<path class="st8" d="M264.6,444.1c11.1-0.7,55.9-2.2,66.9-2c0.1,0,0.1,0.1,0,0.1c-11,0.9-55.7,2.1-66.8,2.1
		C264.4,444.3,264.4,444.1,264.6,444.1z"/>
	<path class="st8" d="M289.6,423.2c4.3-1,9.7-0.5,13.1,2.5c0.1,0.1,0,0.3-0.2,0.3c-4.2-1.2-8.6-1.9-12.9-2.2c-0.2,0-0.3-0.2-0.2-0.3
		C289.4,423.3,289.5,423.2,289.6,423.2z"/>
	<path class="st8" d="M286.5,425.2c4.3-1,9.7-0.5,13.1,2.5c0.1,0.1,0,0.3-0.2,0.3c-4.2-1.2-8.6-2-12.9-2.2c-0.2,0-0.3-0.2-0.2-0.3
		C286.3,425.3,286.4,425.2,286.5,425.2z"/>
	<path class="st8" d="M283.5,427.2c4.3-1,9.7-0.5,13.1,2.5c0.1,0.1,0,0.3-0.2,0.3c-4.2-1.2-8.6-2-12.9-2.2c-0.2,0-0.3-0.2-0.2-0.3
		C283.3,427.3,283.3,427.2,283.5,427.2z"/>
	<polygon class="st8" points="339.4,218.8 339.4,221.7 337.8,347.5 337.7,348 336.8,423.4 290.7,422.5 299.6,219 299.7,216.3 
		300.2,192.6 339.1,192.6 	"/>
	<path class="st3" d="M292.7,414.8c7.2-0.1,5.1-0.1,12.3-0.1c3.5,0,26.6,0.1,29.9,0.7c0.1,0,0.1,0.1,0,0.1c-3.3,0.5-26.4,0-29.9-0.1
		c-7.2-0.1-5.1-0.2-12.3-0.4C292.6,415,292.6,414.9,292.7,414.8C292.6,414.8,292.6,414.8,292.7,414.8z"/>
	<path class="st3" d="M313.3,232.1C313.3,232,313.3,232,313.3,232.1c-0.1-0.1-0.2,0-0.2,0c0,12.1-0.5,18.8-0.8,30.8
		c-0.3,12-0.6,24.1-1,36.1c-0.6,24.1-1.6,48.1-2.5,72.2c-0.5,13.5-1.1,27-1.9,40.5c0,0,0,0.1,0.1,0.1s0.1,0,0.1-0.1
		c1.8-24,3.4-48.1,4.4-72.1s1.6-48.1,1.8-72.2C313.3,253.8,313.3,245.6,313.3,232.1z"/>
	<polygon class="st3" points="339.4,218.8 337.8,347.5 306.9,192.6 339.1,192.6 	"/>
	<path class="st9" d="M387.3,376.2c0,0,5.8,42.7,5.8,42.7c1.2,8.2,2,15.3,2.1,19.1c0,0,0,0,0,0.1c0.1,0.9,0,1.8-0.2,2.6
		c0,0,0,0,0,0.1c-2.2,2-67.1,13.1-69.5,12.7s-1.5-7.2,0.7-9.7s25.1-17.8,25.1-17.8l-5.4-42.7L387.3,376.2z"/>
	<path class="st10" d="M391.9,410.1c0,0,1.2,8.7,1.2,8.8c1.2,8.2,2,15.3,2.1,19.1c0,0,0,0,0,0.1c0,0.9-0.1,1.7-0.2,2.6
		c0,0,0,0,0,0.1c-2.2,2-67.1,13.1-69.5,12.7s-1.5-7.2,0.7-9.7s25.1-17.8,25.1-17.8l-1.4-8.9L391.9,410.1z"/>
	<path class="st3" d="M325.4,453.4c2.4,0.4,67.3-10.7,69.5-12.7c0.9-0.8-0.2-10.3-1.8-21.8l-0.1-0.4l-41.9,6.7l0.1,0.7
		c0,0-22.9,15.4-25.1,17.8S323,453,325.4,453.4z"/>
	<path class="st8" d="M325.7,450.8c10.9-2.1,55-9.8,66-11c0.1,0,0.1,0,0,0.1c-10.8,2.4-54.9,9.6-65.9,11.1
		C325.5,451,325.5,450.8,325.7,450.8z"/>
	<path class="st8" d="M347.7,426.6c4.2-1.5,9.5-1.8,13.4,0.7c0.1,0.1,0,0.3-0.1,0.3c-4.3-0.6-8.7-0.8-13.1-0.5
		c-0.2,0-0.3-0.1-0.3-0.3C347.6,426.8,347.6,426.7,347.7,426.6z"/>
	<path class="st8" d="M344.9,429c4.2-1.5,9.5-1.8,13.4,0.7c0.1,0.1,0,0.3-0.1,0.3c-4.3-0.6-8.7-0.8-13.1-0.5c-0.2,0-0.3-0.1-0.3-0.3
		C344.8,429.2,344.8,429.1,344.9,429z"/>
	<path class="st8" d="M342.2,431.5c4.2-1.5,9.5-1.8,13.4,0.7c0.1,0.1,0,0.3-0.1,0.3c-4.3-0.6-8.7-0.8-13.1-0.5
		c-0.2,0-0.3-0.1-0.3-0.3C342,431.6,342.1,431.5,342.2,431.5z"/>
	<path class="st8" d="M304.1,192.6L304.1,192.6c0.2,0.8,2.9,13.4,5.7,24.3c2,7.9,4.2,14.9,5.4,15.6c1.4,0.8,8,3.8,10.3,4.7
		l10.2,97.8l13.8,90.6l45.2-7l-32.2-198.2l-5.2-27.7H304.1z"/>
	<path class="st3" d="M349.9,416.5c7.1-1.1,5-0.9,12.2-2c3.5-0.5,26.4-3.9,29.7-3.8c0.1,0,0.1,0.1,0,0.1c-3.2,1-26.1,4-29.6,4.4
		c-7.1,0.9-5.1,0.6-12.2,1.4C349.8,416.7,349.8,416.6,349.9,416.5C349.8,416.5,349.8,416.5,349.9,416.5z"/>
	<path class="st3" d="M376,389.4c-1.1-6.3-2.2-12.6-3.4-18.8c-2.3-12.6-4.6-25.1-7-37.7c-4.7-25.1-9.4-50.3-14-75.4
		c-2.6-14.2-2.5-12.9-4.8-27.1c0-0.1-0.2-0.1-0.2,0c2.2,12.7,1.1,9.9,3.2,22.6c2,12.7,4.2,25.1,6.4,37.7c4.5,25.2,9.3,50.3,14,75.5
		c1.3,7.1,2.7,14.1,4.1,21.1c1.4,7.2,3,14.3,4.5,21.5c0,0.2,0.3,0.1,0.3,0C378.1,402.3,377.2,395.9,376,389.4z"/>
	<path class="st3" d="M363.6,231.3c-1.2-0.3-2.5-0.4-3.7-0.6c-1-0.2-2-0.3-3-0.6c-1.9-0.3-3.7-1.1-5.2-2.2c-1.7-1.3-2.6-3.3-3.4-5.3
		c-0.5-1.1-1-2.3-1.5-3.4l-0.8-1.6c-0.3-0.6-0.7-1.3-0.9-2c0-0.1-0.2,0-0.1,0c0.2,0.5,0.3,0.9,0.4,1.4c0.2,0.6,0.3,1.1,0.5,1.6
		c0.3,1,0.6,2,0.9,3c0.5,1.8,1.2,3.5,2.1,5.2c1.8,2.9,5.1,4.1,8.3,4.5c0.9,0.1,1.9,0.2,2.8,0.2c1.2,0.1,2.4,0.1,3.5,0
		C363.6,231.5,363.6,231.4,363.6,231.3C363.6,231.3,363.6,231.3,363.6,231.3z"/>
	<path class="st3" d="M311.7,230.7c4.8,1.7,9.4,3.9,13.8,6.4c0.1,0,0.1,0.1,0.1,0.2c0,0.1-0.1,0.1-0.2,0.1c-4.6-2-9.4-3.9-13.9-6.1
		c-0.1-0.1-0.2-0.3-0.1-0.4C311.4,230.8,311.5,230.7,311.7,230.7z"/>
	<path class="st3" d="M310.3,199c0-0.2,0.3-0.2,0.3,0c0,5.2,0.3,10.3,0.8,15.5c0.2,2.4,2.1,15.6,6.3,14.6c0.7-0.2,1-0.9,1.1-1.9
		c0-1.4-0.2-2.7-0.5-4.1c-0.5-2.8-0.8-5.5-1.1-8.3c-0.5-5.2-0.4-10.4,0.2-15.6c0-0.1,0.1-0.1,0.1-0.1s0.1,0.1,0.1,0.1
		c-0.1,7.2,0.3,14.4,1.3,21.6c0.5,3.4,2.2,8.6-1.3,9.1s-6-8.1-6.5-10.5C309.9,212.7,309.7,205.8,310.3,199z"/>
	<path class="st3" d="M317.5,229.4c0.4,0.9,0.7,1.8,0.9,2.7c0.3,0.7,0.4,1.5,0.4,2.2c0,0.1-0.1,0.1-0.2,0.1c0,0-0.1,0-0.1-0.1
		c-0.4-0.7-0.8-1.4-1-2.2c-0.3-0.8-0.6-1.7-0.9-2.5c-0.1-0.3,0-0.5,0.3-0.6C317.2,229,317.4,229.2,317.5,229.4z"/>
	<path class="st3" d="M363.1,223.2c-5.5-0.4-63.4-7-63.4-7l0.5-23.6h4l0,0h53.2l5.2,27.7L363.1,223.2z"/>
	<path class="st9" d="M322.6,138.4c-6.6,20.7-17.8,42.1-21.1,46.3c-8.7,11.3-34.8,22.5-42.8,23.9c-3.4,0.6-11.7-21.6-9.6-24.7
		s34.6-15.5,36.2-17.1c1.1-1.1,14.8-18.8,24-29.4C320.8,124.2,324.3,133,322.6,138.4z"/>
	<path class="st0" d="M256.1,179.6l12.8,26c0,0,27.2-11.8,33.7-20.2s18.2-37,20-46.1s-1.3-15.6-13.5-2.3s-22.3,26.6-24.5,28.8
		S256.1,179.6,256.1,179.6z"/>
	<path class="st11" d="M257.1,178.3l15.4,26.9c0,0,24-11.5,30.1-19s16.2-30.6,19.4-43.1s1.3-21.3-12.8-6.1s-22.1,26.4-25,28.9
		C282.8,167,257.1,178.3,257.1,178.3z"/>
	<circle class="st3" cx="263.6" cy="179.4" r="1.4"/>
	<circle class="st3" cx="270.3" cy="176.3" r="1.4"/>
	<path class="st3" d="M322,143.1c-3.2,12.5-13.2,35.6-19.4,43.1c-2.6,3.2-8.5,7.2-14.4,10.6l30.9-67.7
		C324,127.8,324.1,134.6,322,143.1z"/>
	<path class="st0" d="M366.1,213.3c-0.2,0.2-69.3,0.4-70-0.3c-0.9-1,14.7-76,21.8-85.2c1.5-2,6.5-2.5,10.8-2
		c1.1,0.1,2.2,0.3,3.3,0.7h0.1c0.9,0.3,1.7,0.7,2.4,1.2c11.8,9.5,21.8,42.5,24.1,52.5C362.6,196.5,366.7,212.7,366.1,213.3z"/>
	<path class="st11" d="M334.3,126.8c0,0-5.6,30.7-6.6,38.7s0.5,50.1,0.5,50.1l43.4,3.2c0,0-9.4-27.9-9.5-29.7
		c0,0-7.8-33.4-15.1-47.4C343.8,136,339.5,130.9,334.3,126.8z"/>
	<path class="st3" d="M371.6,218.8l-19.7-1.5l-14.1-87.5l0,0v0.1l8.8,11.3c0.1,0.2,0.2,0.4,0.3,0.5c7.3,14,15.1,47.4,15.1,47.4
		C362.2,190.9,371.6,218.8,371.6,218.8z"/>
	<path class="st11" d="M317.5,127.4c0,0-4.6,31.1-5.1,33.7s-7.5,53.3-7.5,53.3l-10.9,0.3l5.7-23.2
		C299.7,191.5,312.4,134.1,317.5,127.4z"/>
	<polygon class="st3" points="323.9,144.5 320.8,138.5 316.8,142.9 317.8,147.2 321.7,147.7 	"/>
	<polygon class="st3" points="321.7,147.7 323.6,191.8 315.3,206.4 311,190 317.8,147.2 	"/>
	
		<rect x="336.8" y="252.9" transform="matrix(1.047155e-03 -1 1 1.047155e-03 66.7202 658.0696)" class="st4" width="51.8" height="85.6"/>
	
		<rect x="350.5" y="239.2" transform="matrix(1.047155e-03 -1 1 1.047155e-03 80.4396 644.3847)" class="st12" width="24.4" height="85.6"/>
	
		<rect x="350.7" y="229.4" transform="matrix(1.047154e-03 -1 1 1.047154e-03 88.1972 636.6599)" class="st4" width="24.2" height="89.6"/>
	<polygon class="st3" points="343.9,248.3 343.9,262.1 350.4,262.1 350.4,254.2 375.1,254.3 375.1,262.1 381.6,262.1 381.6,248.3 	
		"/>
	
		<rect x="386.5" y="283.4" transform="matrix(1.047154e-03 -1 1 1.047154e-03 105.6199 678.329)" class="st3" width="11.6" height="5.8"/>
	
		<rect x="327.4" y="283.3" transform="matrix(1.047154e-03 -1 1 1.047154e-03 46.56 619.111)" class="st3" width="11.6" height="5.8"/>
	<path class="st9" d="M343.9,136c19.3,17.5,31.5,42.5,32.4,47.6c2,12.2,4.5,33.6,4.1,43c-0.2,3.5-26.5-0.7-26.5-4.5
		c0.2-11.6-1.4-37.2-1.5-37.7c-0.5-3.1-6.2-17.2-12-32.5S335.8,128.6,343.9,136z"/>
	<path class="st9" d="M351.1,258.6c1.6,0.7,3.4,0.4,4.6-0.9c0.8,1.2,1.9,2.1,3.3,2.6c2.4,0.7,4.6-2.8,4.6-2.8c1,1.1,2.4,1.9,3.9,2.2
		c2.4,0.4,5.1-2.8,5.1-2.8c1.5,0.5,3.2,0.4,4.6-0.2c2.5-1.2,4.6-8.3,5.1-12.4s-1.9-16.3-2.1-18.6l-26.4-3.5c0,0-7.6,17.8-7.5,22.7
		C346.5,249,348.2,257.1,351.1,258.6z"/>
	<path class="st3" d="M355.4,257.5c-1.1-4.4-0.9-8.9-0.9-13.4c0,0,0-0.1,0.1-0.1c0,0,0.1,0,0.1,0.1l0,0c0,4.5,0.8,8.9,1,13.3
		c0,0.1,0,0.1-0.1,0.1C355.4,257.6,355.4,257.6,355.4,257.5L355.4,257.5z"/>
	<path class="st3" d="M363.3,257.4c-0.2-1-0.2-2.1-0.1-3.1c0-1.1,0.1-2.2,0.2-3.3c0.2-2.2,0.4-4.4,0.7-6.5c0-0.1,0.2-0.1,0.1,0
		c-0.2,2.2-0.3,4.4-0.4,6.5c0,1.1-0.1,2.2-0.1,3.3c0,1,0,2.1-0.2,3.1C363.6,257.5,363.5,257.5,363.3,257.4
		C363.4,257.5,363.3,257.4,363.3,257.4z"/>
	<path class="st3" d="M372.6,256.8c-0.1-0.9-0.1-1.9,0.1-2.8c0.1-1,0.2-2,0.3-3c0.2-2,0.4-4,0.5-6c0-0.1,0.2-0.1,0.2,0
		c-0.1,2-0.2,4.1-0.3,6.1l-0.2,3c0,0.9-0.1,1.8-0.4,2.7C372.7,256.9,372.6,256.9,372.6,256.8C372.6,256.9,372.6,256.8,372.6,256.8z"
		/>
	<path class="st11" d="M352.6,222.2l29.2,1.6c0,0-2.2-32-4.5-40.9s-22.1-38.5-33.8-49.3c-11-10.1-11-1.7-6.8,10.1
		s14.5,40.5,14.8,42.6S352.6,222.2,352.6,222.2z"/>
	<path class="st3" d="M353.9,216.4c1.1-0.1,2.2,0,3.4,0s2.2,0.1,3.4,0.1c2.2,0.1,4.3,0.2,6.5,0.4l6.5,0.4c2.2,0.1,4.5,0.2,6.7,0.5
		c0,0,0.1,0.1,0,0.1c0,0,0,0,0,0c-2.2,0.1-4.5-0.1-6.7-0.2l-6.6-0.3c-2.2-0.1-4.4-0.2-6.6-0.4c-1.1-0.1-2.2-0.1-3.2-0.3
		s-2.2-0.1-3.2-0.3C353.8,216.5,353.8,216.4,353.9,216.4z"/>
	<path class="st9" d="M321.8,137.7c1.1-0.1,8.7-6,11-10.6c0.2-0.3-0.4-3.6-1-7.6c-0.3-2.4-0.6-5.1-0.7-7.6c0-0.5-1.7,0.5-1.7,0.5
		l-3.2,0.9l-10.6,2.9c1,3.1,1.6,6.3,1.8,9.5c0,0.3,0,0.7-0.1,1c0,0.1,0,0.1,0,0.2C317.2,128.9,320,137.8,321.8,137.7z"/>
	<path class="st3" d="M317.5,126.8c0,0.1,0,0.1,0,0.2c0.5,0.1,1.1,0.1,1.6,0c10.5-0.6,11.4-14,11.4-14l-4.1,0.3l-10.6,2.9
		c1,3.1,1.6,6.3,1.8,9.5C317.6,126.1,317.6,126.4,317.5,126.8z"/>
	<path class="st9" d="M330.8,90.8c2.5,5.2,2.1,21.5-1.2,25.6c-4.8,6-14,7.9-19.4,1.8c-5.2-5.9-4.3-27.1-0.5-31
		C315.4,81.6,327.1,83.1,330.8,90.8z"/>
	<path class="st3" d="M316.9,102.7C316.9,102.7,317,102.7,316.9,102.7c0,1.2,0.1,2.5,1.1,2.8c0,0,0,0.1,0,0.1
		C316.8,105.4,316.6,103.7,316.9,102.7z"/>
	<path class="st3" d="M317.9,101.6c1.8-0.1,1.8,3.4,0.2,3.5S316.4,101.7,317.9,101.6z"/>
	<path class="st3" d="M310.5,103C310.5,103,310.5,103.1,310.5,103c0,1.2-0.1,2.5-1.1,2.8 M309.4,105.9c1.2-0.2,1.4-1.9,1.1-2.9
		L309.4,105.9z"/>
	<path class="st3" d="M309.5,101.9c-1.8-0.1-1.8,3.4-0.2,3.5S311,102,309.5,101.9z"/>
	<path class="st3" d="M319.2,99.9c-0.5-0.1-0.9-0.3-1.4-0.5c-0.5-0.1-1-0.4-1.3-0.7c-0.2-0.3-0.1-0.7,0.1-0.9
		c0.5-0.4,1.2-0.5,1.9-0.2c0.7,0.2,1.2,0.6,1.6,1.2c0.2,0.4,0.1,0.9-0.3,1.1C319.6,99.9,319.4,100,319.2,99.9z"/>
	<path class="st3" d="M308.1,100.1c0.5-0.1,0.9-0.2,1.4-0.4c0.5-0.1,1-0.3,1.4-0.7c0.2-0.3,0.2-0.7-0.1-0.9
		c-0.5-0.4-1.2-0.6-1.9-0.3c-0.7,0.1-1.2,0.5-1.6,1.1c-0.2,0.4-0.1,0.9,0.2,1.1C307.7,100.1,307.9,100.1,308.1,100.1z"/>
	<path class="st3" d="M318.1,112.8c-0.3,0.3-0.5,0.6-0.9,0.7c-0.4,0-0.8-0.1-1.2-0.3 M315.9,113.3c0.3,0.4,0.9,0.7,1.4,0.6
		c0.5-0.1,0.8-0.5,0.8-1c0,0-0.1-0.1-0.1,0L315.9,113.3z"/>
	<path class="st3" d="M316.9,109.6c-0.5,0.9-1.4,1.5-2.5,1.7c-0.4,0.1-0.9,0.1-1.3,0.1c-0.1,0-0.2,0-0.3,0h-0.2
		c-0.1,0-0.2-0.1-0.2-0.2l0,0c0,0,0-0.1,0-0.1l0,0v-0.1c0-0.8,0-2.1,0-2.1c-0.3,0.2-1.9,0.9-1.9,0.4c0-3.8,0.5-7.6,1.2-11.3
		c0-0.1,0-0.1,0.1-0.1s0.1,0,0.1,0.1c0,3.5-0.6,7-0.7,10.5c0.6-0.3,1.1-0.5,1.8-0.6c0.1,0-0.2,2.5-0.1,2.9l0,0
		c1.4,0.1,2.8-0.3,3.8-1.3C316.8,109.4,316.9,109.5,316.9,109.6z"/>
	<path class="st3" d="M313.5,110.9c0.5,0.6,1.1,1.1,1.8,1.3c0.4,0.1,0.8,0.2,1.2,0.1c0.9-0.2,0.9-1,0.7-1.7c-0.1-0.3-0.2-0.7-0.4-1
		C315.9,110.4,314.8,110.9,313.5,110.9z"/>
	<path class="st13" d="M315.3,112.3c0.4,0.1,0.8,0.2,1.2,0.1c0.9-0.2,0.9-1,0.7-1.7C316.3,110.7,315.5,111.3,315.3,112.3z"/>
	<path class="st3" d="M307.5,92.7c0.6-1.4,1.2-2.8,2.1-3.1s1.4,1.7,3.3,1.8c2.6,0.1,3.8-2.2,7.4-2.6c5.1-0.5,7.5,3.8,7.8,11.1
		c0.2,6.5,4.2,7.1,4.2,7.1s2.1-14.5-2-19.2s-13.5-6.6-19.7-2C308.2,87.6,307.5,92.7,307.5,92.7z"/>
	<path class="st9" d="M328.9,104.5c0,0,2.9-5.6,5.4-4.7s0.8,8.8-1.8,10.2c-1.3,0.8-3,0.4-3.9-0.9c0,0,0-0.1-0.1-0.1L328.9,104.5z"/>
	<path class="st3" d="M333.7,102.1C333.7,102.1,333.8,102.2,333.7,102.1c-1.8,1.1-2.6,3-3,4.9c0.3-0.8,1.2-1.2,2-0.8
		c0.1,0,0.2,0.1,0.2,0.1c0,0,0,0.1,0,0.1c-0.7-0.1-1.4,0.2-1.8,0.8c-0.3,0.5-0.5,1.1-0.7,1.6c-0.1,0.2-0.4,0.1-0.4-0.1l0,0
		C329.7,106.4,331.1,102.7,333.7,102.1z"/>
	<path class="st0" d="M317.5,127.2l3.8,9.3l11.4-11.7l3.3,3.7c0,0-11.2,18.5-11.2,17.7l-3.8-7.9l-5.5,5.5l0.4-13.9L317.5,127.2z"/>
	<path class="st3" d="M315.2,136.9c0.1-2.3,0.2-4.6,0.5-6.9c0-0.1,0.1-0.1,0.2,0c0.5,2.2-0.1,11-0.1,13.1l0,0
		c0.2-0.2,5.1-4.9,5.1-4.8c0.8,1.3,3.6,7,3.8,7.6c1.8-2.9,8.5-13.7,10.6-16.5c0,0,0.1,0,0.1,0c0,0,0,0,0,0.1
		c-1.5,3.1-10.5,17.5-10.6,17.5c-1.5-2.7-2.8-5.5-4-8.4c-0.8,1-5.7,6.2-5.7,5.9C315,142,315,139.4,315.2,136.9z"/>
	<path class="st14" d="M188.3,136.7c12.6,24.8,25.4,84.6,26.6,92.6c0.8,5.4-27.7,10.3-27.7,6.6c0-4.8-5.8-61.2-5.2-83.5
		C182.2,140.1,185.7,131.6,188.3,136.7z"/>
	<path class="st14" d="M187,233.4c-0.5,3.3,0.6,14.6,2.8,23c1,4.1,5.3,15.5,8.5,15s2.3-4,2.3-4s2.5,4.6,5.7,3.7s1.5-6.2,1.5-6.2
		s2.9,4.5,6,3.4s0.6-6.2,0.6-6.2s2.5,4.2,4.7,2.3c2.6-2.4-2.8-9.7-3.8-14.3c-0.2-1-2.8-21.4-2.8-21.4L187,233.4z"/>
	<path class="st3" d="M214.3,262.2c-4-5.4-4.8-8.4-5.3-15c0-0.1-0.1-0.1-0.1-0.1c0,0-0.1,0-0.1,0.1c-0.1,6.5,0.4,10.5,5.3,15.2
		C214.3,262.6,214.5,262.4,214.3,262.2z"/>
	<path class="st3" d="M207.8,265.3c-3.7-6-4.6-9.2-5.6-16.1c0-0.1-0.2-0.1-0.2,0c0.4,6.8,1,10.8,5.5,16.2
		C207.7,265.6,208,265.5,207.8,265.3z"/>
	<path class="st3" d="M200.2,267c-3.1-6-4.3-9.6-4.4-16.4c0-0.1-0.1-0.1-0.2-0.1c0,0-0.1,0-0.1,0.1c-0.5,6.9,0.9,11.4,4.5,16.5
		C200.3,267.4,200.4,267.3,200.2,267z"/>
	<path class="st14" d="M214.7,227.8c0,0,4.6,7,5.9,10.6s1.5,18.5-1.8,18.8c-4.2,0.3-6-8.4-6.3-12.7c0,0-9.7,0.6-12.3-5.3
		S214.7,227.8,214.7,227.8z"/>
	<path class="st3" d="M217.7,256.9c-4-2.5-4.1-8.2-4.7-12.4c0-0.2-0.2-0.4-0.4-0.3c0,0-0.1,0-0.1,0c-4.1,0-9.8-1.2-12.3-4.7
		c0-0.1-0.1-0.1-0.1-0.1s-0.1,0.1-0.1,0.1c0,0,0,0,0,0c2.1,4.1,7.7,5.8,12.1,5.5C212.7,249.3,213,255.1,217.7,256.9
		C217.7,256.9,217.7,256.9,217.7,256.9z"/>
	<path class="st4" d="M217.6,226.1l-32.4,5c0,0-5.2-60.2-5.4-80.4s7.1-25.2,14.9-4.5S217.6,226.1,217.6,226.1z"/>
	<path class="st3" d="M185,226.1c13.3-3,27.7-4.1,30.2-4.5c0.1,0,0.1,0.2,0,0.2c-2.5,0.2-18.8,3.3-30.2,4.5
		C184.9,226.3,184.9,226.1,185,226.1z"/>
	<path class="st14" d="M256.9,446.6c-2.2,0.7-68.2-0.3-70.6-1.9c-0.3-0.2-0.3-6.1-0.2-14.3l-3.2-48.5l41.7,0.1l3.3,42
		c0,0,9.4,4.3,17.1,8.1l0,0c3.4,1.5,6.7,3.3,9.8,5.2C257.2,439.4,259.1,445.9,256.9,446.6z"/>
	<path class="st3" d="M256.9,446.6c-2.2,0.7-68.2-0.3-70.6-1.9c-0.3-0.2-0.3-6.1-0.2-14.3c16.3,3.6,59.7,9.5,61,6.1
		c0.5-1.4-0.5-2.9-2.1-4.4c3.4,1.5,6.7,3.3,9.8,5.2C257.2,439.4,259.1,445.9,256.9,446.6z"/>
	<path class="st11" d="M165.2,205.3c0,0,11.8,125.4,12.1,126.9c0,0.2,0.1,2.5,0.2,6.3c0.7,20.7,2.3,85.2,2.3,85.2h49.6
		c0,0-3.2-76.4-5.1-94.2c-2.4-22.8-16.9-124.2-16.9-124.2H165.2z"/>
	<path class="st3" d="M183.2,336.5c-1.5-26-3.8-52-6.9-78c-1.7-14.6-3.8-29.1-5.9-43.7c0-0.1-0.2-0.1-0.2,0
		c3.8,25.9,6.6,52,8.9,78.1s4,52.2,5,78.3c0.6,14.8,1.1,29.6,1.5,44.4c0,0.2,0.2,0.3,0.3,0.2c0.1,0,0.2-0.1,0.2-0.2
		C185.5,389.2,184.7,362.9,183.2,336.5z"/>
	<path class="st3" d="M226.2,415.8c-1.3-0.2-2.7-0.1-4-0.2c-1.5,0-3-0.1-4.5-0.1c-2.9-0.1-5.8-0.2-8.6-0.2
		c-5.8-0.1-11.6-0.1-17.4,0.1l-4.8,0.2c-1.7,0.1-3.4,0.2-5.1,0.2c-0.1,0-0.1,0.1,0,0.1c2.9,0,5.9,0.2,8.8,0.4s5.7,0.1,8.6,0.2
		c5.8,0.1,11.6,0,17.4-0.2c1.6-0.1,3.2-0.1,4.8-0.1l2.6-0.1c0.8,0,1.5,0,2.3-0.1C226.4,415.9,226.4,415.8,226.2,415.8z"/>
	<path class="st3" d="M201,205.3l-22.6,163.4c-0.3-12.2-0.6-23.4-0.9-30.1c-0.1-3.8-0.2-6.1-0.2-6.3c-0.3-1.5-12.1-126.9-12.1-126.9
		L201,205.3z"/>
	<path class="st14" d="M173.8,455.3c-2.4-0.2-62.9-26.5-64.5-28.9c-0.2-0.3,2-5.8,5.3-13.3l13.3-47l38.6,15.5l-10.9,41.7
		c0,0,7,7.6,12.7,14l0,0c2.5,2.7,4.9,5.6,7.1,8.6C176.9,448.8,176.2,455.5,173.8,455.3z"/>
	<path class="st3" d="M173.8,455.3c-2.4-0.2-62.9-26.5-64.5-28.9c-0.2-0.3,2-5.8,5.3-13.3c13.6,9.6,51.5,31.7,54,29.1
		c1-1.1,0.6-2.9-0.2-4.8c2.5,2.7,4.9,5.6,7.1,8.6C176.9,448.8,176.2,455.5,173.8,455.3z"/>
	<path class="st11" d="M110.3,408.3l48.4,15c0,0,23.6-82.9,25.4-102.3c1.8-19.3,3.5-58.7,4.3-87.3c0,0,8.1-4.8,10.1-7.4
		s3.9-12,7.9-21h-59.2c-14.1,27.5-3.5,39.7-3.5,45.7c0,28.9-4.4,67.3-5.8,73C135.1,335.9,110.3,408.3,110.3,408.3z"/>
	<path class="st3" d="M158.5,412.7c-1.2-0.5-2.6-0.8-3.8-1.2c-1.4-0.4-2.9-0.8-4.3-1.3c-2.7-0.9-5.5-1.7-8.3-2.4
		c-5.6-1.6-11.2-3-16.8-4.4l-4.7-1.1c-1.7-0.4-3.3-0.7-5-1.1c-0.1,0-0.2,0.1,0,0.1c2.8,0.7,5.6,1.8,8.4,2.6s5.5,1.6,8.3,2.4
		c5.6,1.6,11.2,3,16.8,4.3c1.6,0.4,3.1,0.7,4.6,1.1l2.5,0.5c0.7,0.2,1.5,0.4,2.2,0.5c0.1,0,0.1,0,0.1-0.1S158.6,412.7,158.5,412.7z"
		/>
	<path class="st3" d="M199.9,225.7c-2.8,1.3-5.5,2.9-8,4.7c-2.6,1.8-5.1,3.9-7.6,5.9c-0.1,0.1,0,0.2,0.1,0.2c2.7-1.7,5.5-3.2,8.2-5
		c2.7-1.6,5.2-3.5,7.5-5.6C200.1,225.8,200,225.6,199.9,225.7z"/>
	<path class="st3" d="M200.2,209c-0.3,1.8-0.8,3.7-1.2,5.5s-0.6,3.5-1.1,5.2c-0.4,1.6-1.2,3.1-2.4,4.3c-0.7,0.6-1.4,1.2-2.1,1.8
		c-0.4,0.3-0.8,0.6-1.2,0.9c0.1-0.2,0.1-0.5,0.1-0.8c0.1-0.7,0.2-1.4,0.4-2.1c0.3-1.6,0.5-3.1,0.8-4.7c0.5-3.1,0.9-6.1,1.5-9.2
		c0-0.1,0-0.1-0.1-0.1s-0.1,0-0.1,0.1c-0.8,3-1.6,6-2.3,9c-0.3,1.5-1.5,8.8-1.5,9.3s-0.1,1.1-0.1,1.6c-0.1,0.5-0.1,1.1,0,1.6
		c0,0.1,0.2,0.1,0.2,0l0,0c0.2-0.5,0.4-1,0.5-1.6c0.1-0.5,0.2-1.1,0.3-1.6c0-0.2,0.1-0.4,0.1-0.6c0.7-0.4,1.4-1,2.1-1.5
		s1.5-1,2.1-1.6c1.3-1.1,2.2-2.5,2.6-4.1c0.4-1.7,0.7-3.5,0.9-5.3c0.2-2.1,0.4-4.2,0.7-6.2C200.4,209,200.3,208.9,200.2,209z"/>
	<path class="st3" d="M199,129.3c-0.9,11.8-2.1,23.8-4.9,35.3c-2.1,8.9-7,15.9-16.7,16.8c-9,0.9-21.4-1-28.1-7.8
		c-3.1-3.2-3.8-7.1-2.9-11.4c1.1-5.9,10.3-37.8,13.1-47.7c1.7-6.1,3.4-12.2,6.1-17.9c5.8-12,12-11,12.9-11.2
		c0.8-0.4,5.9-1.8,12.3,1.2c3.4,1.6,6,4.6,7.1,8.3C201.4,105.6,199.9,118.3,199,129.3z"/>
	<path class="st3" d="M176.4,86.9c-7.9,2.5-10.8,10.4-13.6,17.4c-3.9,9.8-7.6,19.7-10.9,29.7c-1.6,4.8-3,9.7-4.3,14.6
		c-1.2,4.7-2.9,9.7-3.2,14.5c-0.6,8,6.2,12.7,13.2,14.8c0.1,0,0.3,0,0.3-0.2s0-0.3-0.2-0.3c-3.9-1.4-7.9-3-10.5-6.4
		c-3.3-4.4-2.2-9.3-1.1-14.2c1.9-8.4,4.4-16.6,7-24.8s5.7-16.2,8.8-24.2c3-7.6,5.8-17.8,14.4-20.7C176.5,87,176.5,86.8,176.4,86.9z"
		/>
	<path class="st3" d="M200.2,103.9c-0.6-6.3-2.9-12.7-9.1-15.3l0,0c7.9,3.8,8.7,13.1,8.8,20.8c0.1,8.1-0.2,16.3-0.7,24.4
		c-0.5,7.8-1.2,15.7-2.4,23.4c-1.3,8.3-3.9,16-9.8,22.2c-0.1,0-0.1,0.1,0,0.2c0,0.1,0.1,0.1,0.2,0c5.6-4.9,8.3-12.4,9.7-19.5
		c1.7-9.5,2.7-19.1,3.1-28.7C200.5,122.3,201.1,113,200.2,103.9z"/>
	<path class="st14" d="M175.9,130.9c0.4,1,6.2,7.1,10.9,6.3c1.5-0.3,0.4-8.7,0.4-8.7l0.1-0.6l0.8-9l-11.1-5.3l-1.6-0.7
		c0,0-0.1,2.5-0.1,5.6c0,0.2,0,0.3,0,0.4c0,0.2,0,0.3,0,0.5c0,0.5,0,0.9,0,1.4s0,0.7,0,1.1s0,0.8,0,1.1
		C175.3,125.6,175.5,128.2,175.9,130.9z"/>
	<path class="st3" d="M175.3,118.4c2.4,4.7,6.8,8.2,12,9.4l0.8-9l-11.1-5.3l-1.6-0.7C175.4,112.8,175.3,115.3,175.3,118.4z"/>
	<path class="st14" d="M199.6,105.5c1.3,15.8-8.1,18.3-11.5,18.6c-3.1,0.2-13.7,0.7-16.6-14.9s4.1-21.2,11.1-22.1
		S198.3,89.7,199.6,105.5z"/>
	<path class="st3" d="M196.9,102.2c-0.4-0.1-0.7-0.1-1.1-0.2c-0.4,0-0.8-0.2-1.1-0.4c-0.2-0.2-0.2-0.5,0-0.7
		c0.4-0.4,0.9-0.5,1.4-0.3c0.5,0.1,1,0.3,1.3,0.7c0.2,0.3,0.1,0.6-0.1,0.8C197.2,102.1,197.1,102.2,196.9,102.2z"/>
	<path class="st3" d="M186.4,102.4c0.4-0.1,0.7-0.2,1.1-0.2c0.4,0,0.7-0.2,1-0.4c0.2-0.2,0.2-0.5,0-0.7c-0.4-0.3-0.9-0.5-1.4-0.3
		c-0.5,0.1-1,0.3-1.3,0.7c-0.2,0.3-0.1,0.6,0.1,0.8C186.1,102.4,186.2,102.4,186.4,102.4z"/>
	<path class="st3" d="M188.9,106.4C188.9,106.4,188.8,106.4,188.9,106.4c0,1.2-0.1,2.4-1.1,2.8c0,0,0,0.1,0,0.1
		C189,109,189.1,107.4,188.9,106.4z"/>
	<path class="st3" d="M187.9,105.3c-1.7-0.1-1.8,3.4-0.1,3.5S189.3,105.3,187.9,105.3z"/>
	<path class="st3" d="M187.2,105.4c-0.3,0.2-0.6,0.5-1,0.6s-0.7-0.3-1-0.7h-0.1c0,0.7,0.2,1.3,1,1.4s1.1-0.5,1.3-1.2
		C187.4,105.6,187.3,105.4,187.2,105.4z"/>
	<path class="st3" d="M194.9,106.1C194.9,106.1,194.9,106.1,194.9,106.1c0,1.2,0.2,2.4,1.1,2.8c0,0,0,0.1,0,0.1
		C194.8,108.8,194.6,107.1,194.9,106.1z"/>
	<path class="st3" d="M195.8,105c1.7-0.1,1.8,3.4,0.2,3.5S194.4,105.1,195.8,105z"/>
	<path class="st3" d="M196.6,105.2c0.3,0.2,0.6,0.5,0.9,0.5s0.6-0.4,0.9-0.7h0.1c0,0.7-0.2,1.4-0.8,1.5s-1-0.4-1.2-1.1
		C196.4,105.3,196.5,105.1,196.6,105.2z"/>
	<path class="st3" d="M188.8,114.9c0.2,0.3,0.5,0.6,0.9,0.7c0.4,0,0.8-0.1,1.2-0.2 M190.8,115.4c-0.3,0.4-0.9,0.6-1.4,0.5
		c-0.4-0.1-0.8-0.5-0.8-1c0-0.1,0.1-0.1,0.1,0L190.8,115.4z"/>
	<path class="st3" d="M193.3,111c0,0,0.2,1.6,0.2,2.4c0,0.1-0.2,0.1-0.4,0.1l0,0c-1.3,0.3-2.7-0.3-3.5-1.3c0,0,0-0.1,0-0.1
		c0,0,0.1,0,0.1,0c1,0.7,2.1,1,3.3,0.9c0.1-0.2-0.5-2.8-0.4-2.8c0.6,0,1.2,0.2,1.7,0.4c-0.4-3.4-1.3-6.7-1.6-10c0-0.1,0-0.1,0.1-0.1
		c0.1,0,0.1,0,0.1,0.1c1.1,3.5,1.8,7.1,2.2,10.7C195.1,111.7,193.6,111.1,193.3,111z"/>
	<path class="st3" d="M194.5,107.2c-0.2-2.6,0.9-4.8,2.6-5s3.3,1.8,3.5,4.4s-1,4.8-2.6,5S194.7,109.8,194.5,107.2z M195.1,107.1
		c0.2,2.2,1.5,3.9,2.8,3.8s2.3-2.1,2.1-4.3s-1.5-3.9-2.9-3.8S194.9,104.9,195.1,107.1z"/>
	<path class="st3" d="M182.8,108.3c-0.1-2.4,1.9-4.4,4.3-4.5c2.4-0.1,4.4,1.9,4.5,4.3c0.1,2.3-1.7,4.3-4,4.5
		C185.1,112.7,182.9,110.8,182.8,108.3z M183.4,108.2c0.4,2,2.3,3.4,4.4,3c2-0.4,3.4-2.3,3-4.4c-0.3-1.9-2.1-3.3-4-3.1
		C184.6,104.1,183.1,106.1,183.4,108.2z"/>
	<path class="st3" d="M191.2,107.1c2.3-1,3.4-0.4,3.4-0.4l0.3-0.5c-0.1,0-1.4-0.9-4,0.3L191.2,107.1z"/>
	<path class="st3" d="M183,107.8l0.1-0.6c-0.4,0-10.1-0.9-11.2-0.9s-3.5,1.7-3.8,1.9l0.4,0.5c1-0.8,2.2-1.4,3.4-1.8h0.1
		C172.8,107,179.6,107.5,183,107.8z"/>
	<path class="st3" d="M172,108.1c1.7-0.1,6.2-4.8,6.3-13.1c0,0-0.6,7.4-1.2,8.5s2.5-2.7,2.7-9.3c2.1,1.5,4.4,2.7,6.9,3.6
		c3.1,0.9,5.1,0.8,5.3,0.6s-4.4-1.7-5.7-3.1c0,0,8.4,3.9,12.3,4.2c0.4,0,1-9.2-5-13.1s-15.4,0.3-18,2.8c0,0-3,0.4-6.2,4.8
		S170.2,108.2,172,108.1z"/>
	<path class="st14" d="M174.2,110.2c0,0-3.4-5-5.7-3.8s0.3,8.4,2.9,9.4c1.3,0.6,2.9,0,3.6-1.3c0,0,0-0.1,0-0.1L174.2,110.2z"/>
	<path class="st3" d="M169.3,108.6c1.8,0.8,2.8,2.5,3.5,4.3c-0.4-0.7-1.3-1-2-0.6c-0.1,0-0.1,0.1-0.2,0.1c0,0,0,0.1,0.1,0.1
		c0.7-0.2,1.4,0,1.8,0.6c0.3,0.5,0.6,1,0.9,1.5c0.1,0.2,0.4,0.1,0.3-0.1l0,0C173.6,112.1,171.8,108.8,169.3,108.6L169.3,108.6z"/>
	<path class="st2" d="M173.6,115.5c0,0.6-0.5,1.2-1.1,1.2c-0.6,0-1.2-0.5-1.2-1.1s0.5-1.2,1.1-1.2c0,0,0,0,0,0
		C173.1,114.4,173.6,114.9,173.6,115.5z"/>
	<path class="st4" d="M209,210.6c0,0-53.3,0.8-66.5-0.1c0,0,10.8-61.1,25-76.5c0.5-0.6,1.1-1.1,1.7-1.6c0.9-0.7,0.8-6.6,1.2-7
		s17.7,1.8,17.9,2.2s1.1,5.9,1.1,5.9c3.9,5,16.5,22.3,18,29.4s-3.2,15-3.2,15L209,210.6z"/>
	<path class="st14" d="M163.4,144.9c-3.1,15.2-1.3,48,6,54c12,9.8,40.8,12.7,48.9,13.6c3.5,0.4,10.4-22.3,8-25.2s-37.8-7.5-39.5-9
		c-1.2-1.1-6.7-20.9-11.4-32.1C169,131.1,164.6,139.3,163.4,144.9z"/>
	<path class="st14" d="M220.3,185.4c0,0,10.6-0.1,17.6,0.1c3.9,0.1,10.5,1,13.3,2.4c4.2,2.1,20.4,13.6,17.7,17.6
		c-2.5,3.6-7.3-1.1-7.3-1.1s5.8,4.7,2.2,7.5s-9.2-3.9-9.2-3.9s6.5,4.6,2.4,7.2c-3.5,2.3-10.9-4.8-10.9-4.8s7.3,4,3.9,6.8
		c-3.7,3-16.1-6.3-16.1-6.3c-8.9,2-14.5,2-21.1,0.9C211.7,211.7,220.3,185.4,220.3,185.4z"/>
	<path class="st3" d="M256.5,209.6l-1.5-1.5c-0.9-1-1.9-2-2.9-2.9c-1-0.9-2-1.7-3.1-2.5s-2.3-1.6-3.4-2.4c-0.1-0.1-0.2,0.1-0.1,0.1
		c1.1,0.8,2.1,1.7,3.1,2.7c1,0.9,2,1.8,3,2.7s2,1.7,3,2.6c0.5,0.4,1,0.9,1.5,1.3c0.4,0.5,0.9,0.9,1.4,1.3c0,0,0.1,0,0.1-0.1
		C257.2,210.5,256.9,210,256.5,209.6z"/>
	<path class="st3" d="M262.9,205.5c-1.6-1.9-3.3-3.8-5.2-5.5c-1.9-1.7-3.9-3.2-6.1-4.4c-0.1,0-0.2,0.1-0.1,0.1
		c1.9,1.7,3.8,3.4,5.7,5c0.9,0.8,5,4.6,5.5,5C262.8,205.7,262.9,205.6,262.9,205.5z"/>
	<path class="st3" d="M250.5,213.7c-1.6-1.8-3.2-3.5-5-5.1c-2-1.4-4-2.7-6.1-3.9c-0.1,0-0.2,0.1-0.1,0.1c1.9,1.4,3.9,2.8,5.8,4.4
		c0.9,0.8,4.4,3.9,5.3,4.6C250.5,213.9,250.6,213.8,250.5,213.7z"/>
	<path class="st4" d="M210.4,213.4l12.7-29.6c0,0-34.8-5.8-35.8-6.4s-7.4-23.8-11.5-32.8s-11.1-14.4-13.8,5.1s1.2,43.2,5.1,48.1
		C171.8,203.8,190.6,211.3,210.4,213.4z"/>
	<path class="st3" d="M192.5,209.7c-5.2-1.4-10.3-3.9-15.2-6c-4.3-1.8-8.6-4-11-8.2c-1.1-2.1-1.9-4.4-2.3-6.8c-0.6-2.6-1-5.3-1.4-8
		c-0.5-3.1-0.9-6.1-1.2-9.2c-0.2-1.6-0.4-3.2-0.5-4.7s-0.4-3.2-0.5-4.8c0,0,0-0.1-0.1-0.1s-0.1,0-0.1,0.1c0.1,1.5,0,2.9,0.1,4.4
		c0,1,0.1,1.9,0.2,2.9l-0.3-0.6c-0.3-0.7-0.5-1.4-0.7-2.2c0-0.1-0.2-0.1-0.1,0c0.2,0.8,0.4,1.5,0.6,2.2c0.1,0.4,0.2,0.7,0.4,1.1
		c0.1,0.2,0.2,0.5,0.3,0.7c0.2,2.9,0.6,5.7,0.9,8.6c0.4,2.8,0.8,5.5,1.3,8.2c0.4,2.4,1,4.8,1.9,7.1c0.9,2.1,2.3,4,4.1,5.6
		c1.8,1.5,3.8,2.8,6,3.7c4.9,2.3,9.9,4.1,15.1,5.6C196,211.3,197.9,211.2,192.5,209.7z"/>
	<path class="st3" d="M205.6,180.8c-1.3-0.2-16.4-3.4-17-3.5c-0.6-0.2-1.1-0.7-1.2-1.3c-0.5-1.2-0.9-2.5-1.3-3.7
		c-0.8-2.1-1.5-4.2-2.3-6.3c0-0.5-0.1-1-0.1-1.4s-0.1-1.1-0.2-1.7c-0.2-1.2-0.6-2.4-0.7-3.6c0-0.1-0.2-0.1-0.2,0
		c0.3,1.2,0.5,2.4,0.5,3.6c0.1,0.5,0.1,1,0.1,1.4c-0.5-1.2-0.9-2.5-1.4-3.7c-0.6-1.4-1.2-2.9-1.7-4.3c0-0.1-0.2-0.1-0.1,0
		c0.5,1.3,0.9,2.7,1.3,4s0.9,2.7,1.3,4.1c0.9,2.6,1.8,5.3,2.7,7.9c0.4,1.3,0.9,2.6,1.3,3.8c0.3,1,1,1.7,2,1.9
		c2.6,0.7,15.5,2.8,17.1,2.9C205.7,181.1,205.7,180.8,205.6,180.8z"/>
	<path class="st3" d="M216.6,184.3c-2,4.2-4,8.5-5.8,12.8c-1.8,4.3-3.4,8.6-4.8,13.1c0,0,0,0.1,0,0.1s0.1,0,0.1,0
		c2-4.2,3.8-8.5,5.5-12.8s3.4-8.7,5.2-13C216.9,184.3,216.7,184.1,216.6,184.3z"/>
	<path class="st9" d="M254,180.9c-1.5,0.9-10.3-1.6-13.8,1.1c-2.4,1.8-4.6,6-5.1,11.5c-0.5,5.7,4,5.4,5.7,3c2-3.2,3.8-6.5,5.3-10
		c1.6,0.3,3.2,0.7,4.7,1.3L254,180.9z"/>
	<path class="st9" d="M243.3,200.9c-2.7-2.8-16.2,7.6-12,12.3S246.3,204.1,243.3,200.9z"/>
	<path class="st9" d="M247.8,204.9c-2.7-2.8-16.2,7.6-12,12.3S250.8,208.2,247.8,204.9z"/>
	<path class="st9" d="M251.3,206.4c-2.9-2.2-13.7,9.1-9.2,12.8S254.6,208.9,251.3,206.4z"/>
	<path class="st9" d="M255.2,207c-3.3-1.2-10.2,12.4-4.9,14.5S258.9,208.4,255.2,207z"/>
	<path class="st3" d="M242.9,205.6c-0.8,0.5-1.5,1.1-2.1,1.7c-0.7,0.6-1.4,1.3-2.1,2c-0.6,0.7-1.2,1.4-1.8,2.1
		c-0.6,0.8-1.1,1.7-1.7,2.4c0,0,0,0.1,0,0.1s0.1,0,0.1,0c0,0,0,0,0,0c0.6-0.8,1.2-1.5,1.9-2.1c0.6-0.7,1.3-1.4,1.9-2.1
		s1.2-1.4,1.9-2s1.4-1.3,2-2C243,205.6,242.9,205.5,242.9,205.6z"/>
	<path class="st3" d="M248.2,206.8c-0.6,0.9-2.6,4.3-3.2,5.2s-1.3,1.7-1.9,2.6s-1.3,1.8-2.1,2.6c-0.1,0.1,0.1,0.2,0.1,0.1
		c0.8-0.8,1.6-1.5,2.3-2.4s1.4-1.7,2-2.6c1.1-1.8,2.1-3.6,3-5.5C248.4,206.8,248.3,206.7,248.2,206.8z"/>
	<path class="st3" d="M252,208.8c-0.6,1.3-1.1,2.7-1.7,4c-0.3,0.6-0.6,1.3-0.9,2l-0.4,0.9c-0.1,0.4-0.3,0.7-0.5,1.1
		c-0.1,0.1,0.1,0.2,0.1,0.1c0.2-0.4,0.4-0.8,0.7-1.1c0.2-0.3,0.4-0.6,0.5-0.9c0.3-0.7,0.6-1.3,0.9-1.9c0.6-1.3,1.1-2.6,1.5-4
		c0,0,0-0.1,0-0.1S252,208.7,252,208.8L252,208.8z"/>
</g>
<g id="freepik--speech-bubble--inject-424">
	<path class="st2" d="M260.8,95.1c-1.4,13.6-13.6,23.5-27.2,22.1c-5.3-0.6-10.3-2.8-14.2-6.4l-12.4,1.8l6.2-10.7
		c-5.2-12.7,0.9-27.1,13.6-32.3c3.8-1.5,7.9-2.1,11.9-1.7C252.4,69.3,262.2,81.5,260.8,95.1z"/>
	<path class="st3" d="M260.8,95.1c-0.5,4.6-2.2,8.9-5,12.6c-0.7,0.9-1.4,1.8-2.2,2.6c-0.8,0.8-1.7,1.5-2.6,2.2
		c-1.8,1.4-3.9,2.5-6,3.3c-2.1,0.8-4.4,1.4-6.7,1.6c-1.1,0.1-2.3,0.1-3.4,0.1c-1.2,0-2.3-0.1-3.4-0.4c-4.6-0.8-8.8-2.9-12.3-6
		l0.3,0.1l-12.4,1.8l-0.9,0.1l0.4-0.8l6.2-10.7v0.4c-2.9-7.2-2.4-15.3,1.5-22c1.9-3.3,4.6-6.1,7.8-8.3c11.5-7.7,27-4.6,34.7,6.9
		C260,83.5,261.4,89.3,260.8,95.1L260.8,95.1z M260.8,95.1c1.4-13.5-8.3-25.6-21.8-27c-2.1-0.2-4.2-0.2-6.3,0.1
		c-3.7,0.5-7.2,1.9-10.2,4c-3,2.1-5.6,4.9-7.4,8.1c-1.8,3.2-2.9,6.8-3.1,10.5c-0.2,3.7,0.4,7.4,1.7,10.8l0.1,0.2l-0.1,0.2l-6.2,10.7
		l-0.4-0.7l12.4-1.7h0.2l0.1,0.1c3.3,3.1,7.4,5.2,11.9,6.1c1.1,0.2,2.2,0.4,3.4,0.4c1.1,0.1,2.3,0.1,3.4,0c2.3-0.2,4.5-0.7,6.6-1.5
		c2.1-0.8,4.2-1.9,6-3.2c1.9-1.3,3.5-2.9,4.9-4.7C258.6,104,260.3,99.6,260.8,95.1z"/>
	<polygon class="st6" points="233.3,106.7 222.7,95.9 226.2,92.4 232.4,98.7 245.3,78.5 249.5,81.2 	"/>
</g>
</svg>
