<?xml version="1.0" encoding="utf-8"?>
<!-- Generator: Adobe Illustrator 27.0.0, SVG Export Plug-In . SVG Version: 6.00 Build 0)  -->
<svg version="1.1" id="Layer_1" xmlns="http://www.w3.org/2000/svg" xmlns:xlink="http://www.w3.org/1999/xlink" x="0px" y="0px"
	 viewBox="0 0 207 212" style="enable-background:new 0 0 207 212;" xml:space="preserve">
<style type="text/css">
	.st0{fill:#E6EBF0;}
	.st1{fill-rule:evenodd;clip-rule:evenodd;fill:#AAB6C2;}
	.st2{fill-rule:evenodd;clip-rule:evenodd;fill:#FFFFFF;}
	.st3{fill-rule:evenodd;clip-rule:evenodd;}
	.st4{fill:#FFFFFF;}
	.st5{fill:#AAB6C2;}
	.st6{fill:#F58634;}
</style>
<path class="st0" d="M34.5,94.6C88.2,71,60.8-9.7,130.7,13.6c69.8,23.2,73.5,65,76,96.8c2.4,31.8-10.6,105.8-95.8,99.9
	c-66.1-4.5-93.7-30.5-101.9-50.7c-4-9.8-11.2-27.4-1.4-45.9C12.5,104.3,24.9,98.8,34.5,94.6z"/>
<path class="st0" d="M34.5,94.6C88.2,71,60.8-9.7,130.7,13.6c69.8,23.2,73.5,65,76,96.8c2.4,31.8-10.6,105.8-95.8,99.9
	c-66.1-4.5-93.7-30.5-101.9-50.7c-4-9.8-11.2-27.4-1.4-45.9C12.5,104.3,24.9,98.8,34.5,94.6z"/>
<path class="st0" d="M15.9,62.3C24.5,48,48,34.5,62.4,33.2c14.3-1.3-0.3,15.9-13.7,32.6c-11.9,15-23.5,18.3-31.5,17.5
	c-2-0.2-3.8-1.5-4.6-3.4C11.4,76.7,10.6,71,15.9,62.3z"/>
<path class="st0" d="M34.5,94.6C88.2,71,60.8-9.7,130.7,13.6c69.8,23.2,73.5,65,76,96.8c2.4,31.8-10.6,105.8-95.8,99.9
	c-66.1-4.5-93.7-30.5-101.9-50.7c-4-9.8-11.2-27.4-1.4-45.9C12.5,104.3,24.9,98.8,34.5,94.6z"/>
<path d="M199.6,212H10.1v-1.4h189.6V212z"/>
<path class="st1" d="M51.4,146.3H33.7v-9.8h17.8V146.3z M34.7,145.3h15.8v-7.7H34.7V145.3z"/>
<path class="st1" d="M39.3,155H21.5v-9.7h17.8V155z M22.5,154h15.8v-7.8H22.5V154z"/>
<path class="st1" d="M95.4,62.7H77.6v-9.8h17.8V62.7z M78.6,61.7h15.8v-7.8H78.6V61.7z"/>
<path class="st1" d="M126.6,170.1h-17.8v-9.8h17.8V170.1z M109.9,169.1h15.8v-7.7h-15.8V169.1z"/>
<path class="st1" d="M109.9,170.1H92.1v-9.8h17.8V170.1z M93.1,169.1h15.8v-7.7H93.1V169.1z"/>
<path class="st1" d="M118.3,178.8h-17.8v-9.7h17.8V178.8z M101.5,177.7h15.8V170h-15.8V177.7z"/>
<path class="st1" d="M112.2,107H94.4v-9.7h17.8V107z M95.4,105.9h15.8v-7.7H95.4V105.9z"/>
<path class="st1" d="M124.3,115.8h-17.8v-9.8h17.8V115.8z M107.6,114.8h15.8v-7.7h-15.8V114.8z"/>
<path class="st1" d="M182.2,74.1h-17.8v-9.7h17.8V74.1z M165.4,73h15.8v-7.7h-15.8V73z"/>
<path class="st1" d="M165.4,74.1h-17.8v-9.7h17.8V74.1z M148.6,73h15.8v-7.7h-15.8V73z"/>
<path class="st1" d="M173.8,82.8H156v-9.8h17.8V82.8z M157,81.8h15.8v-7.7H157V81.8z"/>
<path class="st2" d="M188.2,125.5c-1,2-2.3,3.7-3.8,5.2l2,4.2l-6.3,3.8l-2.8-3.8c-2,0.7-4.1,1.1-6.4,1l-1.5,4.4l-7.2-1.7l0.8-4.7
	c-2-0.9-3.8-2.2-5.3-3.8l-4.2,2.1l-3.8-6.4l3.8-2.7c-0.7-2.1-1-4.2-1-6.4l-4.4-1.5l1.8-7.2l4.6,0.7c1-2,2.3-3.7,3.9-5.2l-2.1-4.2
	l6.3-3.8l2.8,3.7c2-0.6,4.2-1,6.4-0.9l1.5-4.5l7.2,1.8l-0.7,4.6c1.9,1,3.7,2.3,5.2,3.9l4.2-2.1l3.8,6.3l-3.8,2.8c0.7,2,1,4.2,1,6.4
	l4.4,1.5l-1.8,7.2L188.2,125.5z M184.3,120.3c1.8-7.1-2.6-14.4-9.7-16c-7.2-1.8-14.4,2.6-16.2,9.7c-1.7,7.2,2.6,14.4,9.8,16.1
	C175.3,131.8,182.6,127.5,184.3,120.3z"/>
<path class="st1" d="M60.7,53.1c-0.7,1.4-1.6,2.6-2.7,3.6l1.5,3l-4.4,2.6l-2-2.6c-1.4,0.5-2.9,0.7-4.4,0.7l-1.1,3.1l-5-1.3l0.5-3.2
	c-1.3-0.7-2.6-1.6-3.6-2.7l-2.9,1.5L34,53.4l2.7-2C36.2,50,35.9,48.5,36,47l-3.1-1.1l1.2-5l3.2,0.5c0.7-1.3,1.6-2.5,2.7-3.6L38.6,35
	l4.4-2.7l1.9,2.6c1.4-0.4,2.9-0.7,4.5-0.6l1-3.1l5,1.2l-0.5,3.2c1.4,0.7,2.6,1.6,3.6,2.7l3-1.4l2.6,4.4l-2.6,1.9
	c0.5,1.4,0.7,2.9,0.7,4.5l3.1,1l-1.3,5L60.7,53.1z M58,49.5c1.2-5-1.8-10-6.8-11.2c-5-1.3-10,1.8-11.2,6.7c-1.3,5,1.8,10.1,6.8,11.3
	C51.7,57.5,56.8,54.5,58,49.5z"/>
<path class="st3" d="M89.3,34.1c-0.3,0.8-0.8,1.5-1.5,2.1l0.8,1.7l-2.5,1.5L85,37.9c-0.8,0.3-1.6,0.4-2.5,0.4L81.9,40l-2.8-0.7
	l0.3-1.8c-0.8-0.4-1.5-0.9-2.1-1.5l-1.7,0.8l-1.5-2.5l1.5-1.1c-0.3-0.8-0.4-1.7-0.4-2.6L73.5,30l0.7-2.8l1.8,0.3
	c0.4-0.8,0.9-1.5,1.5-2.1l-0.8-1.6l2.5-1.5l1.1,1.5c0.8-0.3,1.6-0.5,2.5-0.4l0.6-1.8l2.9,0.7L86,24.1c0.8,0.4,1.5,0.9,2.1,1.6
	l1.6-0.8l1.5,2.5l-1.5,1c0.3,0.9,0.4,1.7,0.4,2.6l1.8,0.6l-0.7,2.8L89.3,34.1z M87.7,32.1c0.7-2.9-1-5.7-3.8-6.4
	c-2.9-0.7-5.7,1-6.4,3.8c-0.7,2.9,1,5.7,3.8,6.4C84.2,36.6,87,34.9,87.7,32.1z"/>
<path class="st4" d="M143.5,95.4c1.7,0.5,0.6,2.4-0.5,2.4c0.4,0.5-0.5,1.4-1.7,1.3c0.5,0.2-0.5,1.7-2.7,1c-0.9-0.2-1.5-0.4-1.9-0.7
	c-4.5,4.7-17.1,12.2-21.3,10.8c-4.9-1.7-6.2-1.9-9.4-4c-0.3-0.2-0.6-0.5-0.9-0.7c-0.4-0.4-0.8-0.8-1.2-1.1c-0.5-0.6-1-1.2-1.5-1.7
	c-0.1-0.1-0.1-0.1-0.2-0.2c-1.9-2.4-2.8-3.9-3.1-6.1c-0.4-2.2-0.3-3.7-0.3-3.7s-4.3-16.8-0.3-15.2c4,1.7,9,7.8,12.8,13.9
	c0.1,0,0.1,0,0.1,0c0.2,0.3,0.4,0.7,0.6,1c0.1,0.2,0.3,0.4,0.4,0.6c1.9,3,3.3,5.4,3.9,5.6c0.9,0.5,16.6-3.1,19.1-3.4
	c0.1-0.1,0.1-0.2,0.1-0.2c0.1-0.1,0.1-0.1,0.2-0.2c0.1-0.2,0.3-0.4,0.4-0.5c0.4-0.8,3.2-3.4,3.3-3.5c0.7-0.5,1.5-0.4,2.3-0.1
	c0.9,0.2,0.5,1.4-0.3,1.4c-0.3,0-0.6,0-1,0c0,0.3,0,0.5-0.1,0.8c1.7-0.1,3.3,0.2,4.8,0.8C146.1,94.1,144.6,95.4,143.5,95.4z"/>
<path class="st3" d="M116.8,110.5c-0.5,0-1-0.1-1.4-0.2c-1-0.3-1.9-0.6-2.6-0.9c-2.9-0.9-4.3-1.4-6.9-3.1c-0.3-0.2-0.5-0.4-0.8-0.6
	v-0.1c-0.5-0.4-0.9-0.8-1.3-1.2c-0.6-0.5-1.1-1.1-1.5-1.6c-0.1-0.1-0.1-0.1-0.1-0.2l-0.1-0.1c-2-2.5-2.8-4-3.2-6.1
	c-0.3-2-0.3-3.5-0.3-3.8c-0.4-1.5-3.3-13.5-1.2-15.2c0.2-0.2,0.6-0.4,1.3-0.1c3.6,1.5,8.5,6.7,13,13.9c0,0.1,0,0.1,0,0.1
	c0.1,0.2,0.3,0.4,0.4,0.7l0.4,0.5c0.1,0.1,0.1,0.3,0.2,0.4c1.6,2.6,3.2,5.3,3.8,5.5c0.6,0.3,7.5-1.2,12-2.1c3.1-0.7,5.8-1.2,6.8-1.3
	c0.1-0.1,0.1-0.1,0.2-0.2c0-0.1,0-0.1,0.1-0.1c0,0,0,0,0.1-0.1c0.1-0.1,0.2-0.3,0.3-0.4c0.4-0.9,3.2-3.5,3.3-3.6
	c0.9-0.6,1.8-0.4,2.6-0.2c0.5,0.2,0.7,0.6,0.6,1.1c0,0.4-0.4,0.9-1,0.8c-0.3,0-0.5,0-0.7,0c0,0.1,0,0.2-0.1,0.3
	c1.8,0,3.5,0.5,4.6,0.9c0.5,0.2,0.5,0.5,0.5,0.7c-0.1,0.5-0.8,1-1.5,1.3c0.4,0.3,0.4,0.8,0.4,1c-0.1,0.6-0.6,1.3-1.3,1.5
	c0.1,0.1,0.1,0.3,0,0.5c-0.2,0.4-0.9,0.8-1.6,0.8c0,0.1,0,0.1-0.1,0.2c-0.2,0.7-1.4,1.4-3.1,0.8c-0.8-0.2-1.3-0.3-1.8-0.6
	C132.7,103.9,121.9,110.5,116.8,110.5z M98.1,77.6c-0.2,0-0.3,0.1-0.4,0.2c-1.6,1.3,0.5,11.2,1.4,14.8v0.1c0,0-0.1,1.6,0.3,3.7
	c0.4,2,1.1,3.5,3.1,5.9l0.1,0.1c0,0.1,0,0.1,0.1,0.2c0.4,0.5,0.9,1,1.4,1.6c0.4,0.3,0.8,0.7,1.3,1.1l0.1,0.1
	c0.2,0.2,0.4,0.4,0.7,0.6c2.5,1.7,3.9,2.1,6.7,3c0.7,0.3,1.6,0.6,2.6,0.9c4.1,1.4,16.5-5.8,21.1-10.7l0.1-0.1l0.2,0.1
	c0.4,0.3,1,0.4,1.9,0.7c1.1,0.3,1.9,0.1,2.3-0.3c0.1-0.2,0.2-0.3,0.2-0.3l-1.6-0.7l1.7,0.2c0.8,0.1,1.4-0.3,1.5-0.6
	c0.1-0.1,0-0.2,0-0.2l-0.4-0.4h0.5c0.6-0.1,1.2-0.6,1.2-1.2c0.1-0.3-0.1-0.6-0.6-0.8l-1.6-0.4h1.6c0.7-0.1,1.6-0.7,1.7-1.1
	c0,0,0-0.1-0.2-0.2c-1.1-0.4-2.8-0.9-4.6-0.8H140l0.1-0.3c0.1-0.3,0.1-0.5,0.1-0.7v-0.2h0.2c0.3-0.1,0.7-0.1,1-0.1
	c0.3,0.1,0.5-0.2,0.6-0.4c0-0.1,0-0.4-0.3-0.5c-0.9-0.2-1.5-0.3-2.2,0.1c-0.2,0.1-2.7,2.6-3.2,3.3v0.1v0.1c-0.1,0.1-0.2,0.3-0.3,0.4
	c-0.1,0.1-0.1,0.1-0.2,0.2c0,0,0,0-0.1,0c0,0.1,0,0.1-0.1,0.2l-0.1,0.1h-0.1c-0.9,0.1-3.7,0.7-6.9,1.4c-8.1,1.7-11.8,2.3-12.4,2.1
	c-0.6-0.4-1.9-2.4-4-5.8c-0.1-0.1-0.1-0.2-0.2-0.3l-0.3-0.5c-0.1-0.3-0.3-0.5-0.4-0.7c-0.1-0.1-0.1-0.1-0.1-0.1
	c-3.4-5.5-8.6-12-12.7-13.8C98.3,77.7,98.1,77.6,98.1,77.6z"/>
<path class="st4" d="M103.4,105.2c-1.2-1.3-3-2.7-4.7-4.2c-0.7-0.5-1.3-1.1-1.8-1.6c-0.7-0.7-1.3-1.5-1.7-2.1
	c-0.2-0.3-0.3-0.7-0.4-1c-0.1-0.6-0.1-2.6-0.1-5.1c0-6.6,1.2-15.4,4.2-14.5c5.1,1.6,10,8.5,14.1,14
	C113.1,96.2,110.2,102.1,103.4,105.2z"/>
<path class="st3" d="M103.4,105.5l-0.1-0.1c-0.9-0.9-2.1-1.9-3.4-3c-0.5-0.4-0.9-0.8-1.4-1.2c-0.7-0.6-1.2-1.1-1.7-1.6
	c-0.9-0.9-1.5-1.6-1.8-2.2c-0.2-0.3-0.3-0.7-0.4-1c-0.1-0.7-0.2-2.8-0.2-5.2c0.1-5.7,0.9-13,3.1-14.5c0.5-0.3,1-0.4,1.5-0.3
	c4.7,1.5,9.1,7.4,13,12.6c0.4,0.5,0.8,1,1.2,1.5l0.1,0.1v0.1c0.1,6.4-3.6,11.9-9.7,14.8H103.4z M98.4,76.8c-0.2,0-0.4,0.1-0.7,0.2
	c-1.8,1.4-2.7,8.1-2.8,14.1c0,2.8,0.1,4.6,0.1,5.1c0.1,0.3,0.2,0.6,0.4,0.9c0.3,0.5,0.9,1.2,1.7,2c0.5,0.5,1,1.1,1.7,1.7
	c0.5,0.3,0.9,0.7,1.4,1.1c1.2,1,2.4,2,3.3,3c5.8-2.8,9.3-8.1,9.2-14.2c-0.3-0.5-0.7-1-1.1-1.5c-3.9-5.1-8.2-10.9-12.8-12.4
	C98.7,76.8,98.5,76.8,98.4,76.8z"/>
<path d="M100.3,80.2c0,0,2.2,7.7,0.8,12.3c-0.5,1.7-1.9,3.9-3.3,7.7c-0.8-0.8-2.2-2.3-2.6-2.9l4-7.9L100.3,80.2z"/>
<path class="st4" d="M91.2,204.5c-0.3,1-3.1,4.4-6.3,0.4c-0.5-0.6,1.1-5.7,1.5-6.7c0.1-0.3,5.5,0.3,5.8,1.1
	C92.6,200,91.5,203.7,91.2,204.5z"/>
<path class="st3" d="M88.1,207.1c-0.9,0-2.1-0.5-3.4-2c-0.6-0.8,1.4-6.9,1.4-7c0.1-0.2,0.4-0.2,0.7-0.2c0.9,0,5.2,0.4,5.6,1.3
	c0.5,0.9-0.9,5.4-0.9,5.4c-0.2,0.7-1.3,2.1-2.9,2.4C88.5,207.1,88.3,207.1,88.1,207.1z M86.6,198.4c-0.6,1.5-1.8,5.9-1.5,6.4
	c1.1,1.3,2.3,1.9,3.4,1.7c1.4-0.2,2.3-1.5,2.5-2c0.5-1.5,1.2-4.6,1-5.1C91.7,198.9,87.4,198.2,86.6,198.4z"/>
<path d="M91,204.9c0,0,3.4-0.2,6.7,0.1c3.4,0.3,3.5,5.4,3.5,5.4c-3.9,0.8-16.9,0.5-16.9,0.5c-1.9-2.9,0.5-6.8,0.5-6.8
	C87.3,206.9,91,204.9,91,204.9z"/>
<path d="M99.5,126.1c0,0,14.5,20.7,12.7,39.8c-1,11.3-10.8,35.5-19.2,37c0,0-3-0.3-5.5-1.2c-1.5-0.6-2.8-1.5-3-2.6
	c-3.5-6.3,10.6-25.7,12.6-33.6c0.6-2-2.3-5.4-6-9.4c-6.1-6.7-14.7-15.2-14.1-22.9C78,119.9,98.1,118.9,99.5,126.1z"/>
<path class="st4" d="M64.2,202.5c-0.6,0.7-4.5-3.6-4.6-4.3c-0.2-0.7,2.1-3.8,2.8-4.5c0.2-0.2,5,2.3,5.1,3.1
	C67.5,197.5,64.8,201.8,64.2,202.5z"/>
<path class="st3" d="M64,202.8c-0.1,0-0.1,0-0.2,0c-1.2-0.3-4.3-3.9-4.5-4.6c-0.2-0.9,2.4-4.2,2.9-4.7c0.1-0.1,0.4-0.1,0.6,0
	c0.9,0.3,4.8,2.3,4.9,3.2c0.1,1-2.9,5.5-3.3,5.9C64.4,202.7,64.2,202.8,64,202.8z M62.5,194c-1,1.1-2.8,3.7-2.7,4.2
	c0.1,0.5,2.6,3.3,3.8,4.1c0.3,0.1,0.4,0.1,0.4,0.1c0.7-0.8,3.3-4.9,3.2-5.5C67.1,196.3,63.3,194.2,62.5,194z"/>
<path d="M84,123.3c0.1,11.3,8.8,12,13.4,26.3c1.3,4,4.3,12.3,3.8,18.2c-0.4,5.6-4.5,13.7-6.9,20.6c-1.2,3.5-2.7,7-4.6,10.1
	c-0.7,1-1.4,2.1-2.2,3.1c-1.5-0.6-2.8-1.5-3-2.6c-4-6,10.6-25.7,12.6-33.6c0.6-2-6.2-9.9-9.9-13.9c-0.4-3.2-4.6-5.9-5.4-9
	C80.9,138.5,84.1,123,84,123.3z"/>
<path d="M62.8,122.8c6.4-5.9,19.8-3.3,20.1,2.3c0,0,13.1,22,6.4,38.6c-4.4,10.8-13,38.6-22.8,36.3c0,0-3.6-2.1-5.2-4.4
	c-0.3-0.3-0.5-0.7-0.6-1c4-3.2,8.8-32.9,11.9-39.9c2-4.8-15.4-15.3-12.8-26.5C60.3,125.9,61.4,124.1,62.8,122.8z"/>
<path d="M62.8,122.8c1,0.2,2,0.8,2.8,1.6c0.5,0.4,0,1.1-0.5,1c-2.9,7.8,2.6,15,7.3,20.7c3.4,4.1,4.6,9.6,3.9,15.2
	c-0.5,3.4-1.6,6.7-2.4,10c-0.9,3.2-1.7,6.5-2.7,9.7c-2,5.8-5.3,10.7-9.9,14.6c-0.3-0.3-0.5-0.7-0.6-1c-4.1-6.2,8.8-32.9,11.9-39.9
	c2-4.8-15.4-15.4-12.8-26.5C60.3,125.9,61.4,124.1,62.8,122.8z"/>
<path class="st4" d="M62.1,97.9c1.9-7.3,4.4-14.4,6.6-18.6c0.8-1.5,1.4-2.7,2-3.4c0.2-0.3,0.4-0.5,0.6-0.6c0.8-0.7,1.9-1.2,3.4-1.5
	c8.2-2.1,21.4,0.4,26.9,4.4c1.5,4.2-1.6,11.7-4.3,18.4c-1.2,3.2-2.3,6-2.7,7.9c-1.3,6,4.6,15,4.1,19.3c-0.7,1.1-12,7.1-20.8,8.2
	c-4.1,0.5-7.9,0.4-11.1-0.1c-5.8-0.8-9.7-2.6-9.9-3.7C56.7,126.7,59.9,106.5,62.1,97.9z"/>
<path class="st3" d="M72.5,132.6c-1.9,0-3.9-0.1-5.8-0.4c-5.3-0.8-9.8-2.5-10-3.9c-0.3-1.7,3-21.9,5.2-30.5c1.7-7,4.3-14.2,6.6-18.7
	c0.8-1.5,1.5-2.7,2.1-3.4c0.1-0.2,0.3-0.4,0.5-0.6c0.8-0.7,2-1.2,3.5-1.6c8.6-2.2,21.9,0.7,27.1,4.5l0.1,0.1
	c1.5,4-1.2,10.8-3.7,17.3l-0.9,2.2c-1.1,2.9-2,5.3-2.4,7c-0.7,3.3,0.9,7.6,2.2,11.5c1.1,3,2.1,5.9,1.9,7.9v0.1
	c-0.8,1.1-12.1,7.1-20.9,8.2C76.2,132.4,74.4,132.6,72.5,132.6z M57.2,128.2c0.1,0.8,3.5,2.6,9.6,3.5c3.6,0.5,7.4,0.5,11.1,0
	c8.8-1.1,19.7-7,20.5-8c0.2-1.8-0.8-4.6-1.8-7.6c-1.4-3.9-3-8.3-2.3-11.7c0.4-1.7,1.3-4.2,2.4-7l0.9-2.3c2.5-6.4,5.1-13.1,3.8-16.8
	c-5.2-3.8-18.2-6.6-26.7-4.4c-1.4,0.3-2.5,0.9-3.3,1.5c-0.1,0.1-0.3,0.3-0.5,0.5c-0.5,0.7-1.2,1.9-2,3.4c-2.3,4.5-4.8,11.7-6.6,18.5
	C60,106.8,57,126.8,57.2,128.2z"/>
<path d="M62.1,97.9c1.9-7.3,4.4-14.4,6.6-18.6c1.6-0.2,3.2,0.3,4.1,1.6c1.1,1.5,0.8,3.2-0.5,4.2c0,0.1,4.5,1.5,4.5,1.6
	c-3.4,7.4-8.6,14.3-9,22.2c-0.4,7.7-0.7,15.4-1,23c-5.8-0.8-9.7-2.6-9.9-3.7C56.7,126.7,59.9,106.5,62.1,97.9z"/>
<path d="M65.1,202.1c0,0,1.6,1.1,3.6,2.8c0.8,0.6,0.6,0.8,1.7,0.8c3.8,0.1,3,4.5,3,4.5c-1.5,0.4-6.6,1.4-8.9-0.4
	c-4.6-3.4-9.5-7.4-9.5-7.4c0.3-3.8,5-5.4,5-5.4C60.4,201.1,65.1,202.1,65.1,202.1z"/>
<path class="st4" d="M64.3,121.6c-1.2-0.2-1.7-2.1-1.8-3.1c-0.2-1.3,0.3-2.5,1.5-3.1c1-0.4,2.7-0.4,3.6,0.3c0,0.1,0,0.1,0.1,0.2
	c0.2,0,0.5,0.1,0.6,0.3c0.3,0.9,2,3.4,0.4,3.9c-0.1,0.1-0.2,0.1-0.3,0.1c-0.1,0.4-0.3,0.7-0.6,0.9c-0.4,0.2-0.8,0.1-1.1-0.2
	c-0.1,0.1-0.1,0.1-0.2,0.1c-0.4,0.4-0.9,0.3-1.3,0C65,121.4,64.8,121.6,64.3,121.6z"/>
<path class="st3" d="M64.4,121.8c-0.1,0-0.1,0-0.2,0c-1.2-0.1-1.7-1.8-1.9-3.2c-0.3-1.6,0.3-2.8,1.6-3.4c1.1-0.5,2.9-0.5,3.8,0.3
	c0.1,0.1,0.1,0.1,0.1,0.1c0.3,0.1,0.6,0.2,0.7,0.5c0.1,0.1,0.2,0.3,0.3,0.6c0.4,0.8,1.1,2.2,0.7,3c-0.1,0.3-0.3,0.6-0.7,0.7
	c-0.1,0-0.1,0-0.2,0c-0.1,0.5-0.4,0.8-0.7,0.9c-0.3,0.2-0.7,0.2-1.2-0.1c-0.3,0.3-0.8,0.4-1.4,0.2C65.1,121.7,64.8,121.8,64.4,121.8
	z M65.7,115.4c-0.6,0-1.1,0.1-1.6,0.3c-1,0.4-1.6,1.5-1.4,2.8c0.2,0.8,0.6,2.7,1.6,2.8c0.3,0.1,0.5,0,0.6-0.3l0.1-0.3l0.3,0.1
	c0.4,0.3,0.8,0.3,1.1,0c0.1,0,0.1,0,0.1-0.1l0.2-0.1l0.1,0.1c0.3,0.3,0.6,0.3,0.8,0.2c0.3-0.1,0.4-0.4,0.5-0.8l0.1-0.2h0.2
	c0.1,0,0.2,0,0.2,0c0.3-0.1,0.4-0.2,0.5-0.4c0.2-0.6-0.4-1.9-0.8-2.6c-0.1-0.2-0.1-0.4-0.2-0.6c-0.1-0.1-0.3-0.2-0.4-0.2h-0.1
	l-0.1-0.1l-0.1-0.1C67,115.5,66.3,115.4,65.7,115.4z"/>
<path class="st4" d="M69.8,118.9c-0.1-0.5-0.2-1.1-0.6-1.5c-0.3-0.3-0.7-0.2-1.1-0.2c-1-0.2-1.2-1.2-1-2c0.1-0.7,0-1.3,0.3-0.8
	c0.9,0.3,2.7,1.1,3.3,1.9c0.6,0.8,0.6,1.8,0.4,2.7C70.9,119.7,69.9,119.6,69.8,118.9z"/>
<path class="st3" d="M70.5,119.7C70.4,119.7,70.4,119.7,70.5,119.7c-0.6,0-0.9-0.3-1-0.7c0-0.5-0.1-1.1-0.4-1.4
	c-0.2-0.1-0.4-0.1-0.7-0.1c-0.1-0.1-0.3-0.1-0.4-0.1c-0.9-0.2-1.4-1.1-1.2-2.2c0-0.2,0-0.4,0.1-0.5c0-0.4,0-0.7,0.3-0.7
	c0.2-0.1,0.3,0.1,0.4,0.2c0.9,0.3,2.7,1.1,3.3,1.9c0.6,0.8,0.7,1.8,0.4,3C71.3,119.5,70.9,119.7,70.5,119.7z M67.4,114.6
	c0,0.1,0,0.1,0,0.2c-0.1,0.1-0.1,0.3-0.1,0.4c-0.1,0.4-0.1,1.5,0.8,1.7c0.1,0.1,0.3,0.1,0.4,0.1c0.3,0,0.6,0,0.9,0.3
	c0.5,0.4,0.6,1.1,0.6,1.6c0.1,0.2,0.3,0.3,0.4,0.3c0.2,0,0.4,0,0.5-0.2c0.2-1.1,0.1-1.9-0.4-2.6C70,115.7,68.2,114.9,67.4,114.6z"/>
<path class="st5" d="M175.1,0.6c6.2,0,11.3,5,11.3,11.3c0,6.3-5.1,11.4-11.3,11.4c-6.3,0-11.4-5.1-11.4-11.4
	C163.7,5.6,168.8,0.6,175.1,0.6z"/>
<path class="st4" d="M175.1,5.8c3.3,0,6.1,2.7,6.1,6.1s-2.8,6.1-6.1,6.1c-3.4,0-6.1-2.7-6.1-6.1S171.7,5.8,175.1,5.8z"/>
<path class="st3" d="M175.1,18.2c-3.5,0-6.4-2.9-6.4-6.4c0-3.5,2.9-6.3,6.4-6.3c3.5,0,6.3,2.8,6.3,6.3
	C181.4,15.3,178.6,18.2,175.1,18.2z M175.1,6.1c-3.3,0-5.9,2.6-5.9,5.8c0,3.2,2.6,5.9,5.9,5.9c3.2,0,5.8-2.7,5.8-5.9
	C180.9,8.7,178.3,6.1,175.1,6.1z"/>
<path class="st4" d="M56.6,120.4c0.1,0.9-1.4,0.9-1.7,0.3c-0.5-0.3-1.1,0.8-1.3,0.8c-0.5,0-1.3-0.5-1.8-1c-0.3,0.1-1.2,0.2-2.4,0.3
	c-4,0.3-8.8-0.3-14.3-2.9c-5.3-2.6-5.9-5-7.6-13.2c0,0,0,0,0-0.1c-1.4-6.4,7.7-4.5,7.8-3.4c0.1,0.5,0.2,1,0.3,1.5
	c0.8,2.8,2.1,6.6,2.5,6.9c0.5,0.3,3.7,3,4.6,3.5c1.6,0.9,1.5,1.2,3.8,2c3.2,1.1,6.3,2,7.1,2.3c0,0,0,0,0.1-0.1
	c0.5-0.1,1.8-0.4,2.3-0.2c0.3,0.1,0.6,0.5,0.2,0.7c-0.3,0.2-0.6,0.2-0.9,0.1C56,118.4,56.4,119.1,56.6,120.4z"/>
<path class="st3" d="M53.6,121.7c-0.6,0-1.4-0.4-1.9-0.9c-0.4,0-1.2,0.2-2.3,0.3c-4.6,0.3-9.5-0.7-14.4-3c-5.5-2.7-6.1-5.4-7.7-13.3
	l-0.1-0.1c-0.3-1.7,0-3,1-3.9c1.6-1.4,4.7-1.1,6.3-0.5c0.7,0.3,1,0.6,1,0.9c0.1,0.4,0.2,0.9,0.4,1.4c0.8,3.2,2,6.5,2.4,6.8
	c0.2,0.1,0.6,0.5,1.3,1c1.1,0.9,2.6,2.2,3.2,2.5c0.5,0.3,0.8,0.5,1.2,0.7c0.6,0.4,1,0.7,2.6,1.2c2,0.7,4,1.4,5.4,1.8
	c0.7,0.2,1.3,0.4,1.6,0.5c1.3-0.3,2.1-0.4,2.5-0.2c0.2,0.1,0.5,0.3,0.5,0.6c0,0.1,0,0.4-0.3,0.5c-0.1,0.1-0.2,0.1-0.3,0.2
	c0.4,0.5,0.7,1.2,0.8,2.2c0.1,0.4-0.2,0.8-0.6,0.9c-0.5,0.2-1.2,0-1.5-0.4c-0.1-0.1-0.4,0.3-0.6,0.5
	C53.9,121.6,53.8,121.7,53.6,121.7z M51.9,120.2L51.9,120.2c0.5,0.6,1.3,1,1.7,1c0,0,0.1-0.1,0.2-0.2c0.2-0.3,0.7-0.9,1.2-0.5h0.1
	c0.1,0.3,0.6,0.4,1,0.3c0.2-0.1,0.2-0.3,0.2-0.4c-0.1-1.1-0.4-1.8-1.1-2.3l-0.6-0.4h0.7c0.3,0,0.6,0,0.7-0.1c0.1,0,0.1,0,0.1-0.1
	c0,0-0.1-0.1-0.2-0.2c-0.2-0.1-0.8-0.1-2.2,0.3h-0.2c-0.3-0.1-0.9-0.3-1.7-0.5c-1.3-0.5-3.3-1.1-5.4-1.8c-1.6-0.6-2.1-0.9-2.7-1.3
	c-0.3-0.2-0.6-0.4-1.2-0.7c-0.6-0.3-2.1-1.6-3.3-2.5c-0.5-0.5-1-0.9-1.2-1c-0.6-0.4-2-5-2.6-7c-0.2-0.6-0.3-1.1-0.3-1.5
	c-0.1-0.1-0.3-0.3-1.1-0.6c-1.4-0.5-4.1-0.7-5.6,0.5c-0.8,0.7-1,1.9-0.7,3.4v0.1c1.7,8,2.2,10.4,7.5,12.9c4.9,2.3,9.6,3.3,14.2,3
	C50.6,120.5,51.5,120.3,51.9,120.2L51.9,120.2z"/>
<path d="M26.5,105.8c-1.2-6-2.7-14.3,0.1-17.2c1.7-1.8,4.8,1.4,6.1,2.9c2.9,3.4,3.9,10.5,4,11.6C33.5,106.1,30.2,106.7,26.5,105.8z"
	/>
<path class="st4" d="M16.7,201.6c0.3-6.3,0.8-16.9,0.6-19.9c-0.2-5.1,0.7-8.8,1.5-11.7c0.2-0.7,0.4-1.4,0.5-2
	c0.1-0.4-4.9-6.3-4.9-6.3l9.4-7.5c0,0,11.2,10.3,9.1,18.9c0,0-8.7,20.9-9.8,24.9c-1.1,4.1-2.3,9.9-2.3,9.9l-4.5-0.5
	C16.3,207.5,16.5,205,16.7,201.6z"/>
<path class="st3" d="M21,208.3l-4.9-0.6v-0.2c0,0,0.1-2.5,0.3-5.9c0.4-6.5,0.8-16.9,0.7-19.9c-0.3-5,0.6-8.7,1.5-11.8
	c0.1-0.7,0.3-1.3,0.5-1.9c-0.2-0.5-2.7-3.5-4.9-6.1l-0.1-0.2l9.7-7.8l0.2,0.1c0.5,0.5,11.3,10.5,9.2,19.2
	c-0.1,0.2-8.8,20.9-9.9,24.9c-1.1,4-2.2,9.8-2.3,9.9V208.3z M16.6,207.2l4.1,0.5c0.2-1.1,1.2-6.1,2.2-9.7c1.1-4,9.5-24.1,9.8-24.9
	c1.9-7.9-7.5-17.2-8.8-18.5l-9.1,7.3c5,5.7,4.9,6.1,4.8,6.2c-0.1,0.6-0.3,1.3-0.5,2c-0.8,3-1.7,6.7-1.5,11.7
	c0.1,2.9-0.3,13.4-0.6,19.9C16.8,204.4,16.7,206.5,16.6,207.2z"/>
<path class="st4" d="M48.6,148.6c0,0,8.3,12.4,5.2,26.2c0,0-7.6,22.3-8.5,26.4c-0.9,4.1-1.6,8.2-1.6,8.2l-4.7,0.5
	c0,0,0.5-2.5,0.7-6.2c0-0.1,0-0.3,0.1-0.5c0.8-18.9,0.6-28.5,1.1-31.2c0-0.1,0-0.1,0-0.2c0.1-0.4,0.2-0.8,0.2-1.2
	c0.2-3.1,3-15.4,3-15.4L48.6,148.6z"/>
<path class="st3" d="M38.8,210.2l0.1-0.4c0,0,0.5-2.5,0.7-6.1c0-0.1,0-0.3,0-0.5c0.5-9.7,0.6-16.8,0.7-22c0.1-4.9,0.2-7.9,0.4-9.2
	c0-0.1,0-0.2,0.1-0.2c0.1-0.5,0.1-0.9,0.2-1.2c0.2-3.1,2.9-15,3-15.4v-0.1l4.7-7l0.2,0.4c0.1,0.1,8.4,12.6,5.2,26.3
	c-0.1,0.3-7.6,22.4-8.4,26.5c-0.9,4-1.7,8.1-1.7,8.1v0.2L38.8,210.2z M44.5,155.4c-0.2,0.8-2.8,12.4-3,15.2
	c-0.1,0.4-0.1,0.8-0.2,1.3c0,0.1,0,0.1-0.1,0.1c-0.2,1.4-0.3,4.3-0.4,9.2c-0.1,5.3-0.2,12.4-0.7,22c0,0.2,0,0.4,0,0.6
	c-0.2,2.8-0.5,5-0.7,5.8l4.2-0.4c0.2-0.9,0.8-4.4,1.6-8c0.9-4.1,8.2-25.6,8.5-26.5c2.8-12.4-3.7-23.6-5-25.6L44.5,155.4z"/>
<path d="M44.2,205.5c0,0,4.6,1.1,7.8,1.7c3.3,0.6,0.7,3.8,0.7,3.8c-3.8,0.4-13.9-0.3-13.9-0.3c-1.5-2.8,0.8-5.9,0.8-5.9
	C41.9,207.4,44.2,205.5,44.2,205.5z"/>
<path d="M21.5,205.7c0,0,4.6,1.1,7.8,1.7c3.2,0.5,0.7,3.8,0.7,3.8c-3.8,0.3-13.9-0.3-13.9-0.3c-1.6-2.7,0.3-5.6,0.3-5.6
	C18.6,208,21.5,205.7,21.5,205.7z"/>
<path d="M58.6,159.8c-3.4,5.5-7.5,7-12.8,7.8c-1.6,0.3-3.3,0.5-5.1,0.7c-0.2,0-3.9,1.2-3.9,1.2c-4.3,3-9.2,4.8-13.9,3.9
	c-2.3-0.4-4.6-1.5-6.7-3.4c-3.4-9.2-7.4-16.8-9.9-24.4c-1.4-4.6-2.3-9.2-2.2-14c0-0.2,0-0.4,0-0.6c0.1-2,0.3-4.2,0.7-6.7
	c0.2-0.8,1-1.3,2.2-1.6c2.7-0.7,7.6-0.2,12.6,2.1c3.4-5.7,8.5-11.7,12.6-7.7C39.2,123.8,54.5,149.4,58.6,159.8z"/>
<path d="M3.3,84.1c1.2,0.3,3.9,1.4,5.4-0.8c0.6-0.8,5.6-11.5,13.5-8.8c0.3,0.1-3.8,3.8-3.5,7.6c0.5,5.3-3.6,7.2-6.1,8.5
	c-4.1,2.1-9.9-1.8-10.2-6.1C2.3,84,3,83.8,3.3,84.1z"/>
<path class="st6" d="M11.5,105.8c0-0.2,0-0.4,0.1-0.6c0-0.2,0-0.4,0-0.5c0-0.8,0-1.6-0.1-2.4c-0.5-9.1-3.4-20.5,15-16.8
	c0,0,11.7,6.5,10.6,12.3c-0.6,3.4-3,4.9-4.4,6.9c-1.1,1.5-1.6,3.3-0.6,6.2c0.2,0.6,0.4,1.2,0.6,1.8c2.3,6.4,7.1,8.6,7.1,8.6
	s-19.8,8-32.5,3.6c-2.2-0.8-4.2-1.8-6-3.2C1.3,121.5,10.7,114.4,11.5,105.8z"/>
<path d="M11.5,105.8c0-0.2,0-0.4,0.1-0.6c0.8-1,1.7-2,2.6-2.9c0.5-0.5,1.4,0.2,0.9,0.8c-0.1,0.1-0.2,0.1-0.3,0.2
	c-1.3,2.8-1,5.9-1.6,8.9c-0.5,2.6-1.8,4.9-3.1,7.3c-0.7,1.2-1.6,3.9-2.8,5.3c-2.2-0.8-4.2-1.8-6-3.2
	C1.3,121.5,10.7,114.4,11.5,105.8z"/>
<path d="M16.5,103.3c-1.1,1.5-3.3,4.3-5,5.2c0-0.4,0.1-3.5,0.1-3.9c0-0.7-0.5-9.2-0.5-10.1c0.6-0.8,7.4-6.3,7.4-6.3
	C20.5,92.3,18.1,101.1,16.5,103.3z"/>
<path class="st4" d="M28.7,83.1l-0.4,3.3c0,0,0.7,1.7-0.3,1.8c-1.9,0.1-4.3-3.3-4.3-3.3l0.6-4.4L28.7,83.1z"/>
<path class="st3" d="M27.9,88.5c-2,0-4.3-3.3-4.4-3.4L23.4,85l0.7-4.9L29,83l-0.4,3.4c0.1,0.3,0.4,1.2,0,1.7
	c-0.1,0.2-0.3,0.3-0.5,0.4C28,88.5,27.9,88.5,27.9,88.5z M23.9,84.8c0.4,0.5,2.4,3.2,4,3.2c0.1,0,0.1,0,0.1,0
	c0.1-0.1,0.2-0.1,0.2-0.1c0.2-0.3,0-1-0.1-1.4L28,86.4l0.5-3.1l-4-2.4L23.9,84.8z"/>
<path class="st4" d="M31.2,73.8c0,0,1.3,3.8,1.3,7.1c0,2.4-4.8,4.9-7.8,1.1c-3-3.7-1.4-8.6-1.4-8.6L31.2,73.8z"/>
<path class="st3" d="M28.5,84.1c-1.5,0-2.9-0.7-4-2c-3.1-3.8-1.5-8.7-1.4-8.9l0.1-0.2l8.2,0.5l0.1,0.1c0,0.2,1.2,3.9,1.2,7.2
	c0,1.3-1.1,2.5-2.6,3.1C29.5,84.1,29,84.1,28.5,84.1z M23.5,73.6c-0.2,0.9-1.2,5.1,1.4,8.3c1.3,1.6,3.2,2.2,5,1.6
	c1.3-0.5,2.3-1.6,2.3-2.6c0-2.9-0.9-6.1-1.2-6.9L23.5,73.6z"/>
<path d="M33.1,75.9c-0.6,0.7-1.7,0.5-2.4,0c-0.5-0.3-0.9-0.6-1.2-1.1c-0.2-0.3-0.4-0.7-0.6-1c-1.1-0.1-2.1,0.4-2.9,1.2
	c-0.1,0.4-0.2,0.9-0.2,1.4c-0.1,1.4-0.1,2.7-1,3.9c-1.1,1.6-2.6,0.4-3.2-1.1c-0.9-1.8-0.8-4.4,0.1-6.2c0.8-1.8,4.2-2.6,4.6-2.7
	c1.3-0.1,2.9,0.2,4.2,0.9c0.4,0.2,0.7,0.5,1,1c0.4,0.5,0.1,0.6,0.7,1.2c0.2,0.2,0.5,0.2,0.7,0.4C33.6,74.4,33.7,75.3,33.1,75.9z"/>
<path class="st4" d="M25.4,78.8c-0.6,0.1-1.5-0.7-1.1-1.7c0.5-1.1,1.8-0.3,1.8-0.3C26.4,77.3,26,78.7,25.4,78.8z"/>
<path class="st4" d="M26.8,126.8c-1,0.1-1.5-1.3-1.8-2c-0.3-0.9-0.1-1.9,0.8-2.5c0.6-0.5,1.9-0.7,2.6-0.3c0.1,0.1,0.1,0.1,0.2,0.1
	c0.1,0,0.3,0,0.5,0.2c0.3,0.6,1.9,2.3,0.8,2.9c-0.1,0-0.2,0-0.3,0.1c0,0.3-0.1,0.5-0.3,0.7c-0.3,0.2-0.5,0.2-0.8,0
	c-0.1,0.1-0.1,0.1-0.1,0.1c-0.3,0.3-0.7,0.4-1,0.2C27.3,126.6,27.1,126.8,26.8,126.8z"/>
<path class="st3" d="M26.7,127.1c-1,0-1.6-1.2-1.9-2.2c-0.4-1.2-0.1-2.2,0.8-2.8c0.8-0.5,2.1-0.8,2.9-0.3c0.1,0,0.1,0,0.2,0.1
	c0.2,0,0.4,0.1,0.6,0.3c0.1,0.1,0.1,0.2,0.2,0.3c0.5,0.6,1.2,1.5,1,2.3c-0.1,0.3-0.2,0.5-0.5,0.6c0,0,0,0-0.1,0.1
	c-0.1,0.3-0.2,0.6-0.4,0.7c-0.2,0.2-0.5,0.3-0.9,0.1c-0.3,0.2-0.6,0.4-1.1,0.3C27.3,126.8,27.1,127,26.7,127.1
	C26.7,127.1,26.7,127.1,26.7,127.1z M27.5,122c-0.6,0-1.2,0.2-1.6,0.5c-0.7,0.5-1,1.3-0.6,2.2c0.2,0.6,0.7,2,1.4,1.9
	c0.3,0,0.4-0.1,0.4-0.3l0.1-0.3l0.2,0.1c0.5,0.1,0.7,0,0.8-0.1l0.2-0.3l0.2,0.1c0.3,0.2,0.4,0.1,0.6,0c0.1-0.1,0.2-0.2,0.2-0.5V125
	h0.2c0.1,0,0.1,0,0.2,0c0.2-0.2,0.2-0.3,0.2-0.3c0.1-0.5-0.5-1.4-0.9-1.9c-0.1-0.1-0.2-0.2-0.3-0.3c0-0.1-0.1-0.2-0.2-0.1h-0.1
	l-0.1-0.1c-0.1-0.1-0.1-0.1-0.1-0.1C28.1,122.1,27.8,122,27.5,122z"/>
<path class="st4" d="M30.5,124.1c-0.1-0.3-0.2-0.8-0.6-1c-0.3-0.2-0.6-0.1-0.9-0.1c-0.7,0-2.3-0.5-2.3-1.1c-0.1-0.6,0.4-0.9,1-0.8
	c0.7,0.1,2.6,0.4,3.2,0.9c0.5,0.6,0.7,1.3,0.6,2C31.5,124.5,30.7,124.6,30.5,124.1z"/>
<path class="st3" d="M31,124.7c-0.3,0-0.6-0.2-0.7-0.5c-0.1-0.3-0.2-0.7-0.5-0.9c-0.1-0.1-0.3-0.1-0.5,0c-0.1,0-0.2,0-0.3,0
	c-0.7,0-2.6-0.5-2.6-1.4c0-0.3,0.1-0.6,0.4-0.8c0.3-0.3,0.6-0.3,1-0.2c0.7,0.1,2.6,0.4,3.2,0.9c0.6,0.5,0.9,1.3,0.8,2.2
	C31.8,124.4,31.5,124.6,31,124.7C31.1,124.7,31,124.7,31,124.7z M29.6,122.7c0.1,0,0.3,0.1,0.4,0.2c0.5,0.2,0.6,0.8,0.8,1.2
	c0,0.1,0.2,0.1,0.3,0.1c0,0,0.2,0,0.2-0.2c0.1-0.8-0.1-1.4-0.6-1.8c-0.4-0.3-1.9-0.7-3-0.8c-0.3-0.1-0.5,0-0.6,0.1
	c-0.1,0.1-0.2,0.2-0.2,0.4c0,0.3,1.3,0.9,2.1,0.9c0.1,0,0.2,0,0.3,0C29.3,122.7,29.4,122.7,29.6,122.7z"/>
<path class="st5" d="M7.7,189.8c-0.5-10.9,2.8-19.9,5.4-27.3c2.3-6.4,4.2-11.9,3.1-16.4c-0.3-1.1-0.6-2.1-0.9-3.1
	c-2.3-8.8-4.2-15.6,2.6-18.3c3.2-1.3,9.1-1.7,15.8-2.1c8.3-0.6,17.7-1.2,24.2-3.6c4.2-1.6,12.2-2.1,21.4-2.8
	c17.9-1.2,40-2.8,51.9-11.9c19.2-14.6,31.6-44,31.7-75V12.1C162.8,5.4,168.3,0,175,0c6.6,0,12.1,5.4,12.1,12.1v99.5h-1.4V12.1
	c0-5.9-4.8-10.7-10.7-10.7c-6,0-10.8,4.8-10.8,10.7v17.2c-0.1,31.4-12.8,61.3-32.2,76c-12.3,9.4-34.7,10.9-52.7,12.2
	c-9.1,0.6-17,1.2-21,2.7c-6.7,2.5-16.2,3.1-24.6,3.6c-6.6,0.5-12.4,0.9-15.4,2c-5.3,2.2-4.2,7.5-1.7,16.7c0.3,1.1,0.5,2.1,0.8,3.2
	c1.3,5-0.8,10.7-3.1,17.2c-2.7,7.6-5.8,16.2-5.4,26.8H7.7z"/>
<path class="st4" d="M68.7,120.1c-0.1,0.1-0.2,0.1-0.3,0.1c-0.1,0.4-0.3,0.7-0.6,0.9c-0.4,0.2-0.8,0.1-1.1-0.2
	c-0.1,0.1-0.1,0.1-0.2,0.1c-0.4,0.4-0.9,0.3-1.3,0c-0.2,0.4-0.4,0.6-0.9,0.6c-1.2-0.2-1.7-2.1-1.8-3.1c-0.1-0.3-0.1-0.7,0-1
	c-0.1,0-0.3,0-0.4-0.1c-4.1-1-16.6-4.6-17.3-11.1c-0.7-5.8,11.9-29.4,16.8-26.4c2.5,1.5,7.7,12,4.6,12.5c-3.1,0.5-11.3,10-11.7,12.3
	c-0.2,1.1,13.3,10,13.3,10l-0.8,0.8c0.2,0.1,0.4,0.2,0.6,0.3c0,0.1,0,0.1,0.1,0.2c0.2,0,0.5,0.1,0.6,0.3
	C68.6,117.1,70.3,119.6,68.7,120.1z"/>
<path class="st3" d="M64.4,121.8c-0.1,0-0.1,0-0.2,0c-1.2-0.1-1.7-1.8-1.9-3.2c-0.1-0.3-0.1-0.6-0.1-0.9H62
	c-2.8-0.7-16.7-4.4-17.5-11.3c-0.5-5.1,8.4-22.7,14.2-26.3c1.2-0.8,2.2-0.9,3-0.4c2.3,1.4,6.2,9,5.7,11.8c-0.2,0.8-0.7,1-1.1,1.1
	c-3,0.5-11.2,9.9-11.5,12.1c0.1,0.8,6.9,5.6,13.1,9.8l0.3,0.2l-0.8,0.7c0.1,0.1,0.2,0.1,0.3,0.2c0.1,0.1,0.1,0.1,0.1,0.1
	c0.3,0.1,0.6,0.2,0.7,0.5c0.1,0.1,0.2,0.3,0.3,0.6c0.4,0.8,1.1,2.2,0.7,3c-0.1,0.3-0.3,0.6-0.7,0.7c-0.1,0-0.1,0-0.2,0
	c-0.1,0.5-0.4,0.8-0.7,0.9c-0.3,0.2-0.7,0.2-1.2-0.1c-0.3,0.3-0.8,0.4-1.4,0.2C65.1,121.7,64.8,121.8,64.4,121.8z M60.6,79.9
	c-0.5,0-1,0.2-1.7,0.6c-5.5,3.5-14.4,21-13.9,25.8c0.7,6.6,14.4,10.2,17.1,10.9l0.7,0.1l-0.1,0.2c0,0.3,0,0.7,0,1
	c0.2,0.8,0.6,2.7,1.6,2.8c0.3,0.1,0.5,0,0.6-0.3l0.1-0.3l0.3,0.1c0.4,0.3,0.8,0.3,1.1,0c0.1,0,0.1,0,0.1-0.1l0.2-0.1l0.1,0.1
	c0.3,0.3,0.6,0.3,0.8,0.2c0.3-0.1,0.4-0.4,0.5-0.8l0.1-0.2h0.2c0.1,0,0.2,0,0.2,0c0.3-0.1,0.4-0.2,0.5-0.4c0.2-0.6-0.4-1.9-0.8-2.6
	c-0.1-0.2-0.1-0.4-0.2-0.6c-0.1-0.1-0.2-0.2-0.4-0.2h-0.1l-0.1-0.1l-0.1-0.1c-0.1-0.1-0.3-0.2-0.5-0.3l-0.4-0.1l0.9-0.9
	c-4.2-2.8-13.3-9-13.1-10.1c0.4-2.3,8.7-11.9,11.9-12.5c0.2,0,0.6-0.1,0.7-0.7c0.5-2.6-3.3-10-5.5-11.3C61.2,80,61,79.9,60.6,79.9z"
	/>
<path class="st4" d="M69.4,116.9l-1.1,0.1l-2.7-0.9l1.8-1.5l0.5,0.2L69.4,116.9z"/>
<path class="st4" d="M55.5,79.8c6.9-4,16.7-9.1,21.5-6c3,1.9,1.6,8.6,0.2,11.1c-3,5.5-11.1,9.2-12.3,9.7
	C59.5,90.9,55.9,85.6,55.5,79.8z"/>
<path class="st3" d="M64.8,94.9L64.8,94.9c-5.7-4-9.2-9.5-9.6-15.1v-0.1l0.2-0.1c7.6-4.5,17-9.1,21.8-6c3.1,2,1.6,8.9,0.2,11.4
	c-3,5.4-10.9,9.2-12.4,9.8L64.8,94.9z M55.7,80c0.4,5.4,3.7,10.6,9.1,14.4c1.8-0.8,9.3-4.4,12.1-9.6c1.3-2.3,2.8-8.9-0.1-10.8
	C72.3,71.2,63.2,75.7,55.7,80z"/>
<path class="st4" d="M140,97.7c-0.1-0.2-0.2-0.4-0.3-0.6c-0.2-0.8,0.3-1.4,1.1-1.3c0.1,0,0.1,0,0.2,0c-0.3-0.5-0.1-1.1,0.5-1.3
	c0.5-0.3,1-0.3,1.4-0.2c0,0,0,0,0-0.1c-0.8-0.3-1.7-1.2-1.1-2c0.5-0.6,2,0.1,2.9,1.1c0.7,0.6,1.1,1.4,0.6,2.4
	c-0.2,0.6-0.7,0.9-1.3,1c0.1,0.1,0.1,0.1,0.1,0.1c0.1,0.8-0.2,1.8-1,2.1c-0.1,0-0.2,0-0.3,0c-0.1,0.2-0.2,0.4-0.4,0.7
	c-0.1,0.1-0.2,0.2-0.3,0.3c-0.1,0.1-0.1,0.1-0.1,0.1c-1,1.3-1.1,1.5-2.2,0.6C138.7,99.8,138.5,98.1,140,97.7z"/>
<path class="st3" d="M140.8,101.4c-0.3,0-0.7-0.2-1.2-0.6c-0.7-0.5-1.1-1.4-0.9-2.2c0.1-0.5,0.4-0.9,0.9-1.1
	c-0.1-0.1-0.1-0.2-0.1-0.4c-0.2-0.4-0.1-0.8,0.2-1.1c0.2-0.3,0.5-0.4,0.9-0.5c0-0.1,0-0.3,0.1-0.5c0.1-0.3,0.3-0.6,0.7-0.8
	c0.2-0.1,0.4-0.1,0.6-0.2c-0.3-0.2-0.5-0.5-0.6-0.9c-0.1-0.4,0-0.8,0.3-1.1c0.1-0.1,0.2-0.3,0.6-0.3c0.8,0,1.9,0.6,2.6,1.4
	c0.9,0.8,1.1,1.7,0.7,2.7c-0.3,0.5-0.7,0.9-1.3,1.1c0.2,0.9-0.2,1.9-1.2,2.2c-0.1,0-0.1,0-0.1,0c-0.1,0.3-0.3,0.5-0.4,0.6
	c-0.1,0.2-0.3,0.3-0.4,0.4l-0.1,0.1C141.5,101,141.2,101.4,140.8,101.4z M139.9,100.4c0.9,0.7,0.9,0.7,1.9-0.5v-0.1c0,0,0,0,0.1,0
	v-0.1c0.1-0.1,0.2-0.2,0.3-0.3c0.1-0.2,0.3-0.4,0.4-0.6v-0.1l0.2-0.1c0.1,0,0.1,0,0.2,0c0.7-0.2,1-1,0.8-1.7l-0.1-0.4l0.3-0.1
	c0.5-0.1,0.9-0.3,1.1-0.8c0.3-0.8,0.2-1.5-0.5-2.1c-0.7-0.8-1.7-1.3-2.2-1.3c-0.1,0-0.1,0-0.1,0c-0.1,0-0.2,0-0.3,0.1
	c-0.1,0.2-0.2,0.4-0.1,0.7c0.1,0.4,0.6,0.8,1.1,1c0.1,0,0.1,0.1,0.1,0.2l0.4,0.5l-0.6-0.1c-0.5-0.1-0.9-0.1-1.3,0.1
	c-0.2,0.1-0.3,0.2-0.4,0.4c-0.1,0.2-0.1,0.4,0,0.6l0.3,0.4H141c-0.1,0-0.2,0-0.3-0.1c-0.2,0-0.5,0.1-0.7,0.3
	c-0.1,0.2-0.2,0.4-0.1,0.7c0.1,0.1,0.2,0.3,0.3,0.4l0.2,0.4l-0.3,0.1c-0.5,0.1-0.8,0.4-0.9,0.8C139.1,99.3,139.4,100,139.9,100.4z"
	/>
<path class="st4" d="M29.9,125.2c-0.1,0-0.2,0-0.3,0.1c0,0.3-0.1,0.5-0.3,0.7c-0.3,0.2-0.5,0.2-0.8,0c-0.1,0.1-0.1,0.1-0.1,0.1
	c-0.3,0.3-0.7,0.4-1,0.2c-0.1,0.3-0.3,0.5-0.6,0.5c-1,0.1-1.5-1.3-1.8-2c-0.1-0.2-0.1-0.4-0.1-0.5c-0.5-0.1-1.2-0.2-2.1-0.3
	c-4.8-0.7-13.2-4.6-19.1-8.5c-5.8-3.9-3.7-13.4,1.7-19.7c0-0.1,0-0.1,0-0.1c4.3-5.1,9.2,4.9,8.3,5.7c-0.3,0.3-0.7,0.7-1,1.2
	c-1.7,2.4-3.6,6.6-3.1,6.9c0.5,0.3,3.2,3.4,4.1,4.1c1.7,1.3,4.3,2.8,6.9,4.2c4,2.1,7.9,3.9,8,4.1c0,0-0.1,0.1-0.2,0.2
	c0.1,0.1,0.1,0.1,0.2,0.1c0.1,0,0.3,0,0.5,0.2C29.4,122.9,31,124.6,29.9,125.2z"/>
<path class="st3" d="M26.7,127.1c-1,0-1.6-1.2-1.9-2.2c-0.1-0.1-0.1-0.3-0.1-0.4c-0.6-0.1-1.2-0.1-1.9-0.2
	c-4.7-0.7-12.9-4.4-19.3-8.6c-1.9-1.3-3.1-3.3-3.4-5.8c-0.6-4.3,1.4-10,5.1-14.3v-0.1c1.1-1.3,2.2-1.8,3.5-1.5
	c2.6,0.6,4.7,4.4,5.2,6.2c0.2,0.7,0.2,1.1,0,1.3c-0.3,0.3-0.6,0.7-1,1.2c-1.7,2.3-3.3,6.1-3.1,6.6c0.2,0,0.7,0.6,1.6,1.6
	c0.9,1,2,2.1,2.5,2.4c1.4,1.1,3.7,2.5,6.8,4.1c2.3,1.3,4.5,2.4,6,3.2c1.7,0.8,2,0.9,2.1,1l0.2,0.2l-0.1,0.1c0.1,0.1,0.3,0.2,0.4,0.3
	c0.1,0.1,0.1,0.2,0.2,0.3c0.5,0.6,1.2,1.5,1,2.3c-0.1,0.3-0.2,0.5-0.5,0.6c0,0,0,0-0.1,0.1c-0.1,0.3-0.2,0.6-0.4,0.7
	c-0.2,0.2-0.5,0.3-0.9,0.1c-0.3,0.2-0.6,0.4-1.1,0.3C27.3,126.8,27.1,127,26.7,127.1C26.7,127.1,26.7,127.1,26.7,127.1z M8,94.5
	c-0.8,0-1.6,0.5-2.4,1.4V96c-3.6,4.2-5.6,9.7-5,13.9c0.3,2.4,1.4,4.2,3.2,5.5c6.2,4.1,14.6,7.8,19.1,8.5c0.7,0.1,1.3,0.1,2,0.2h0.2
	l0.1,0.2c0,0.2,0,0.4,0.1,0.5c0.2,0.6,0.7,2,1.4,1.9c0.3,0,0.4-0.1,0.4-0.3l0.1-0.3l0.2,0.1c0.5,0.1,0.7,0,0.8-0.1l0.2-0.3l0.2,0.1
	c0.3,0.2,0.4,0.1,0.6,0c0.1-0.1,0.2-0.2,0.2-0.5V125h0.2c0.1,0,0.1,0,0.2,0c0.2-0.1,0.2-0.3,0.2-0.3c0.1-0.5-0.5-1.4-0.9-1.9
	c-0.1-0.1-0.2-0.2-0.3-0.3c0-0.1-0.1-0.2-0.2-0.1h-0.1l-0.1-0.1c-0.1,0-0.1,0-0.1-0.1l-0.3-0.1l0.2-0.2c-0.3-0.2-1-0.5-1.7-0.9
	c-1.5-0.8-3.7-1.9-6-3.1c-3.1-1.7-5.5-3.1-6.9-4.2c-0.6-0.4-1.6-1.5-2.5-2.5c-0.7-0.7-1.4-1.5-1.6-1.6c-0.1,0-0.2-0.1-0.2-0.3
	c-0.2-0.9,1.7-4.8,3.2-6.9c0.4-0.5,0.7-0.9,1-1.2c0.3-0.5-1.1-4.3-3.5-6C9.3,94.8,8.7,94.5,8,94.5z"/>
<path class="st4" d="M30.1,122.8l-1.3,0.1l-1.9-1.7l2,0.4L30.1,122.8z"/>
<path class="st6" d="M3.8,95.3c4-4.7,9.8-11,14.2-10c2.7,0.6,2.3,5.6,1.9,7.8c-0.7,4.7-5.8,9.8-6.6,10.6
	C8.5,102.4,5.7,99.5,3.8,95.3z"/>
<path class="st4" d="M53.7,120.9c0-0.1,0-0.3,0.1-0.4c0.3-0.5,0.8-0.5,1.1-0.1c0,0,0,0,0.1,0.1c0.1-0.3,0.4-0.5,0.8-0.4
	c0.3,0.1,0.6,0.3,0.8,0.6c0,0,0,0,0-0.1c-0.3-0.5-0.2-1.3,0.5-1.4c0.4,0,0.8,1,0.7,1.9c0.1,0.6-0.1,1.1-0.8,1.3
	c-0.4,0.2-0.7,0.1-1-0.1c-0.1,0-0.1,0-0.1,0.1c-0.3,0.4-0.9,0.7-1.4,0.4c-0.1,0-0.1,0-0.1-0.1c-0.1,0.1-0.3,0.1-0.5,0.2
	c-0.1,0-0.2,0-0.3-0.1c-0.1,0-0.1,0-0.1,0c-1.1,0.2-1.2,0.2-1.3-0.7C52.1,121.2,52.8,120.3,53.7,120.9z"/>
<path class="st3" d="M54.9,123.2c-0.2,0-0.4-0.1-0.5-0.2c-0.1,0-0.1,0-0.1,0c-0.1,0.1-0.3,0.1-0.4,0.1c-0.1,0-0.3,0-0.4,0
	c-1.1,0.1-1.4,0.1-1.6-1c0-0.6,0.2-1.2,0.7-1.5c0.3-0.2,0.6-0.2,0.9-0.1c0.1-0.1,0.1-0.1,0.1-0.2c0.1-0.2,0.4-0.4,0.7-0.4
	c0.2-0.1,0.4,0,0.6,0.2c0.1-0.1,0.2-0.1,0.3-0.2c0.2-0.1,0.4-0.1,0.7,0c0.1,0,0.2,0,0.3,0.1c0-0.2,0.1-0.4,0.2-0.6
	c0.1-0.3,0.3-0.4,0.6-0.4c0.2,0,0.3,0,0.5,0.2c0.4,0.4,0.6,1.2,0.6,1.9c0,0.8-0.3,1.3-1,1.6c-0.4,0.1-0.8,0.1-1.1-0.1
	C55.7,123,55.3,123.2,54.9,123.2z M54.4,122.4L54.4,122.4c0.2,0.2,0.2,0.2,0.2,0.2c0.4,0.2,0.9-0.1,1.1-0.4l0.2-0.2l0.2,0.1
	c0.3,0.2,0.5,0.2,0.8,0.1c0.5-0.2,0.7-0.6,0.7-1.1c0-0.7-0.2-1.3-0.4-1.5c-0.1-0.1-0.1-0.1-0.1-0.1c-0.1,0-0.2,0.1-0.3,0.2
	c-0.1,0.2-0.1,0.5,0,0.9v0.1l-0.1,0.6l-0.4-0.5c-0.1-0.2-0.3-0.4-0.6-0.5c-0.1,0-0.2,0-0.3,0c-0.1,0.1-0.1,0.2-0.2,0.3l-0.1,0.4
	l-0.4-0.5c-0.1-0.1-0.3-0.1-0.4-0.1c-0.1,0-0.2,0.1-0.3,0.2c0,0.1,0,0.2-0.1,0.3l-0.1,0.3l-0.3-0.1c-0.2-0.2-0.4-0.2-0.6-0.1
	c-0.3,0.2-0.5,0.6-0.5,1.1c0.1,0.6,0.1,0.6,1,0.5h0.2c0.1,0,0.2,0,0.3,0C54.1,122.6,54.2,122.6,54.4,122.4L54.4,122.4z"/>
<path d="M199.7,210.6h-24.5v-99.8h24.5V210.6z"/>
<path class="st6" d="M197.7,210.6h-24.5v-99.8h24.5V210.6z"/>
<path d="M168.8,210.6h-24.5v-81.7h24.5V210.6z"/>
<path class="st5" d="M166.8,210.6h-24.5v-81.7h24.5V210.6z"/>
<path d="M137.9,210.6h-24.5v-60.4h24.5V210.6z"/>
<path class="st4" d="M135.9,210.6h-24.5v-60.4h24.5V210.6z"/>
<path class="st3" d="M136.2,210.8h-25v-60.9h25V210.8z M111.8,210.3h24v-59.9h-24V210.3z"/>
<path d="M107.2,210.6H82.7v-37h24.5V210.6z"/>
<path class="st6" d="M105.2,210.6H80.7v-37h24.5V210.6z"/>
<path class="st4" d="M82.1,82.5L76,81.3l-0.7-8h2.6L82.1,82.5z"/>
<path class="st4" d="M101.1,78l0.9,0.5l1,2.3l-0.7,5.9l-2.3-2.2L101.1,78z"/>
<path class="st6" d="M137.7,47.2c0,9.1-7.3,16.5-16.5,16.5c-9.1,0.1-16.6-7.3-16.7-16.3c0-9.2,7.3-16.5,16.5-16.6
	C130.1,30.7,137.6,38.1,137.7,47.2z"/>
<path class="st4" d="M119.3,57c-1.6-0.1-4.3-2.8-8.2-8.2c-0.4-0.7-0.3-1.6,0.4-2.1c0.2-0.2,0.5-0.3,0.8-0.3c0.5,0,0.9,0.3,1.2,0.7
	c1.9,2.5,4.1,5.2,5.3,6.4l0.2,0.2l0.2-0.3c2-3.3,7.3-11.6,9.5-15.1l0.1-0.1c0.3-0.5,0.7-0.7,1.2-0.7c0.3,0,0.6,0.1,0.8,0.2
	c0.7,0.4,0.9,1.3,0.5,2c-0.1,0.2-9.4,14.8-10.2,16.3c-0.3,0.5-0.9,0.9-1.5,0.9C119.5,57,119.4,57,119.3,57L119.3,57z"/>
<path class="st3" d="M130.8,37.6c0.8,0.5,1.1,1.6,0.6,2.4c-2.6,4-9.5,14.9-10.2,16.2c-0.4,0.6-1,1-1.7,1.1c-0.1,0-0.1,0-0.2,0
	c-0.1,0-0.1,0-0.1,0c-1-0.1-3-0.9-8.4-8.4c-0.5-0.8-0.4-1.8,0.4-2.4c0.3-0.2,0.7-0.3,1-0.3c0.6,0,1.1,0.2,1.4,0.7
	c1.8,2.4,4,5.2,5.3,6.4c2.4-3.9,9.2-14.8,9.6-15.2c0.3-0.5,0.9-0.8,1.4-0.8C130.3,37.3,130.6,37.4,130.8,37.6z M128.9,38.4
	c-0.3,0.5-7.2,11.3-9.6,15.2l-0.3,0.5l-0.4-0.4c-1.3-1.2-3.5-3.9-5.4-6.5c-0.2-0.3-0.6-0.5-1-0.5c-0.3,0-0.5,0.1-0.7,0.2
	c-0.3,0.2-0.4,0.5-0.5,0.8c-0.1,0.3,0,0.6,0.2,0.9c3.8,5.3,6.6,8.1,8,8.2h0.1c0.1,0,0.1,0,0.1,0c0.6-0.1,1.1-0.4,1.3-0.9
	c0.8-1.3,7.7-12.2,10.3-16.2c0.3-0.6,0.1-1.3-0.4-1.7c-0.2-0.1-0.4-0.2-0.7-0.2C129.5,37.8,129.1,38,128.9,38.4z"/>
<path class="st4" d="M93.3,76.3l-3.9,1.9L88,73.7l0.8,0.1l3.4,2.4l-0.1-0.6c0-0.3-0.1-1.1,0.3-1.2c0,0,0.1,0,0.2,0
	c0.6,0,1.9,0.5,2.4,0.8l1.5,3.4L93.3,76.3z"/>
<path class="st3" d="M88.9,73.5l3,2.1c0,0-0.3-1.2,0.4-1.4c0.1-0.1,0.2-0.1,0.3-0.1c0.8,0,2.6,0.9,2.6,0.9l1.9,4.3l-3.9-2.6l-4,1.9
	l-1.5-5.2L88.9,73.5z M92.4,74.6c-0.1,0.1-0.1,0.6-0.1,0.9l0.2,1l0.5-0.3l0.3-0.1l0.2,0.1l2.4,1.7l-1.1-2.5
	C94.1,75,93,74.6,92.4,74.6C92.4,74.6,92.4,74.6,92.4,74.6z M89.5,77.8l2.8-1.4l-0.8-0.5l-2.8-2h-0.4L89.5,77.8z"/>
<path class="st6" d="M95,77.4L94.2,79l-1.4-0.1l-1.3-1.7l1.8-1.1L95,77.4z"/>
<path class="st6" d="M94.2,79c0,0,2.9,9.5,0.7,19.2l-3,2.6L90,98.2c0,0,3.5-12.7,2.8-19.2L94.2,79z"/>
<path class="st4" d="M94.7,71.2L94,74.4c0,0,1.1,2,0.2,2.2c-3.2,0.7-5.3-3.2-5.3-3.2l1.3-5.2L94.7,71.2z"/>
<path class="st3" d="M93.4,76.8c-2.8,0-4.6-3.2-4.7-3.4l-0.1-0.1l1.5-5.6l4.9,3.3l-0.8,3.3c0.2,0.4,0.8,1.5,0.5,2.1
	c-0.1,0.2-0.2,0.3-0.5,0.3C93.9,76.8,93.7,76.8,93.4,76.8z M89.2,73.4c0.3,0.5,2.3,3.6,4.9,3c0.1-0.1,0.1-0.1,0.1-0.1
	c0.2-0.4-0.2-1.2-0.4-1.7l-0.1-0.1l0.7-3.2l-4-2.7L89.2,73.4z"/>
<path class="st4" d="M98.8,62.9c0,0-0.1,3.5-1.2,6.8c-0.9,2.4-6.3,3.9-8-0.8c-1.7-4.8,1.5-9,1.5-9L98.8,62.9z"/>
<path class="st3" d="M93.7,72.2c-2,0-3.6-1.2-4.3-3.3c-1.8-4.8,1.5-9.1,1.5-9.2l0.2-0.1l7.9,3.2v0.1c0,0.1-0.1,3.6-1.2,6.9
	C97.3,71.1,95.6,72.2,93.7,72.2z M91.2,60.2c-0.5,0.8-2.9,4.5-1.4,8.6c0.9,2.5,2.8,2.9,3.9,2.9c1.7,0,3.2-0.9,3.6-2
	c1-2.9,1.2-5.9,1.2-6.6L91.2,60.2z"/>
<path d="M89.7,60.8c0.5-4.3,9.5-3.3,11.4-0.8c1,1.3,0.9,3.4-0.9,4c-0.9,0.4-2,0-2.9-0.3c-1.9-0.6-3.7-1.1-5.7-1.5c0,0.1,0,0.1,0,0.1
	c-0.1,0.3-0.2,0.6-0.3,0.8c-0.3,1.2-0.3,2.7-1.1,3.7c-0.6,0.6-1.5,0.7-2.2,0.1c-0.7-0.7-0.2-1.5-0.2-2.4c0-0.5,0-0.8,0.4-1.2
	c0.1-0.2,0.2-0.2,0.4-0.3c-0.1-0.1,0-0.2,0-0.4C88.7,61.9,89.1,61.2,89.7,60.8z"/>
</svg>
