<?xml version="1.0" encoding="utf-8"?>
<!-- Generator: Adobe Illustrator 27.0.0, SVG Export Plug-In . SVG Version: 6.00 Build 0)  -->
<svg version="1.1" id="Layer_1" xmlns="http://www.w3.org/2000/svg" xmlns:xlink="http://www.w3.org/1999/xlink" x="0px" y="0px"
	 viewBox="0 0 258 210" style="enable-background:new 0 0 258 210;" xml:space="preserve">
<style type="text/css">
	.st0{fill:#E6EBF0;}
	.st1{fill:#C6D0DB;}
	.st2{fill:#AAB6C2;}
	.st3{fill-rule:evenodd;clip-rule:evenodd;fill:#AAB6C2;}
	.st4{fill-rule:evenodd;clip-rule:evenodd;fill:#C6D0DB;}
	.st5{opacity:0.3;fill:#FFFFFF;enable-background:new    ;}
	.st6{opacity:0.6;fill:#FFFFFF;enable-background:new    ;}
	.st7{fill:#FFFFFF;}
	.st8{fill-rule:evenodd;clip-rule:evenodd;}
	.st9{fill:#F58634;}
	.st10{fill:#835F59;}
	.st11{opacity:0.4;fill:#FFFFFF;enable-background:new    ;}
	.st12{fill-rule:evenodd;clip-rule:evenodd;fill:#FFFFFF;}
	.st13{opacity:0.3;enable-background:new    ;}
	.st14{fill:#7977C6;}
</style>
<path d="M250.4,209.8H60.6v-1.4h189.8V209.8z"/>
<path class="st0" d="M177,10.2c30.5,8.8,81.7,35.9,79.4,98.1c-2.3,62.3-56.6,30.2-97.5,86.5C128.5,236.7,1.2,179.3,76.4,56.1
	C106.3,7,150.6,2.6,177,10.2z"/>
<path class="st0" d="M242,175.2c-20,32.4-67.9,38.3-68.1,26.1c-0.2-10.8,3.5-23,30.4-31.2C218.6,165.8,262.1,142.8,242,175.2z"/>
<path class="st0" d="M46.9,3.1h104.3v133.6H46.9V3.1z"/>
<path class="st1" d="M88.3,106.7c0.3-1.6,1.8-2,1.4-3.9c-0.2-1.1-0.8-1.6-0.1-2.7c0.3-0.6,0.9-1,1.5-1.4c-0.8-0.5-1.2-1.6-0.8-2.5
	c0.1-0.3,0.4-0.4,0.6-0.2c0.5,0.5,1,1.1,1.4,1.8c0.1-0.5,0.1-0.9,0.2-1.3c0.1-0.3,0.3-0.6,0.7-0.6c0.6,0,0.6,0.6,0.5,1.2
	c1.2-0.9,2.4-1.7,3.6-2.5c0.5-0.3,1-0.6,1.5-0.9c-0.2-0.2-0.4-0.5-0.5-0.8c-0.2-0.7,0.4-1.3,1.1-0.9c0.3,0.2,0.7,0.5,1,0.8
	c0.8-0.3,1.6-0.7,2.4-1c-0.2-0.1-0.4-0.3-0.5-0.6c-0.3-0.4,0-1,0.5-1c0.5-0.1,1,0.3,1.4,0.6c0.2,0.2,0.4,0.4,0.5,0.5
	c3-0.5,6-0.1,8.1,2.6c0.1,0.1,0.3,0.3,0.4,0.4c0.2-0.6,0.5-1.1,1-1.5c0.1-0.1,0.2-0.1,0.3,0c0.2-0.1,0.4,0,0.5,0.2
	c0.1,0.1,0.1,0.2,0.1,0.3c-0.1,0.7-0.3,1.3-0.6,1.9c0.1,0,0.3,0,0.6,0c0.6,0,1-0.1,1.6,0c0.7,0.3,1.4,0.9,1.8,1.6
	c0.2,0.2,0.3,0.4,0.4,0.6c1,2.7-1.2,5.2-3.3,6.5c-0.1,0.1-0.2,0.1-0.3,0c-2.9,1.8-6,4.2-9.4,4.7c-0.6,0-1.3-0.1-1.9,0
	c-0.2,0-1.9,0.5-2.1,0.7c-0.2,0.1-0.3,0.6-0.4,0.8c-0.7,0.9-1.5,1.6-2.6,2c-3.3,1.2-9.9,0.4-10.6-3.7
	C88.2,107.9,88.2,107.4,88.3,106.7z"/>
<path class="st2" d="M88.4,108.3c0.1-0.1,0.2-0.2,0.3-0.1c2.6,1,7.8,3.6,9.7,0.4c0.3-0.5,0.2-0.8,0.8-1.1c0.3-0.3,0.9-0.2,1.2-0.4
	c1.1-0.6,1.7-1.7,1.7-2.9c0-0.2,0.3-0.4,0.5-0.3c1.1,0.4,2.4,0.9,3.5,0.8c1.7-0.1,3.5-1.1,3.3-3.1c0-0.2,0.3-0.4,0.5-0.3
	c3.8,1.1,7.5-1,8.6-4.5c0.2,0.2,0.3,0.4,0.4,0.6c1,2.7-1.2,5.2-3.3,6.5c-0.1,0.1-0.2,0.1-0.3,0c-2.9,1.8-6,4.2-9.4,4.7
	c-0.6,0-1.3-0.1-1.9,0c-0.2,0-1.9,0.5-2.1,0.7c-0.2,0.1-0.3,0.6-0.4,0.8c-0.7,0.9-1.5,1.6-2.6,2c-3.3,1.2-9.9,0.4-10.6-3.7
	C88.3,108.4,88.3,108.4,88.4,108.3z"/>
<path class="st1" d="M113.6,100.2C113.7,100.2,113.7,100.2,113.6,100.2c0.1-0.2,0.1-0.2,0.1-0.3c-0.1-0.5,0.6-0.7,0.7-0.2
	c0.3,1.2,0,2.4-0.7,3.4c-0.2,0.3-0.6,0.2-0.7-0.1C112.7,102,112.9,101,113.6,100.2z"/>
<path class="st1" d="M104.3,103.7c0.1-0.1,0.3-0.1,0.4-0.1c0.1-0.3,0.3-0.7,0.4-1.2c0.1-0.4,0.8-0.2,0.7,0.2
	c-0.3,1.2-0.9,2.3-1.6,3.3c-0.2,0.2-0.6,0.1-0.7-0.2C103.4,104.9,103.7,104.2,104.3,103.7z"/>
<path class="st1" d="M97.2,107.4c0.8,0.9,1.7,2.5,0.5,3.4c-0.3,0.2-0.6,0.2-0.7-0.1c-0.1-0.7-0.2-1.5-0.1-2.2c0-0.1,0-0.1,0.1-0.1
	c-0.1-0.1-0.3-0.3-0.4-0.4C96.3,107.6,96.9,107.1,97.2,107.4z"/>
<path class="st2" d="M107.7,94.5c1.1-0.8,1.4,2.6,1.4,3.2c0.2,0.3-0.3,0.8-0.5,0.5c-0.5-0.6-0.9-1.3-1.1-2
	C107.4,95.7,107.2,94.9,107.7,94.5z"/>
<path class="st2" d="M101.5,99.3C101.5,99.2,101.5,99.2,101.5,99.3c-0.7-1.2-1.1-2.4-1.2-3.7c0-0.2,0.1-0.3,0.3-0.4
	c0.8-0.3,1.2,0.8,1.4,1.4c0.4,1.1,0.4,2.2,0.2,3.3c-0.1,0.5-0.9,0.3-0.8-0.2C101.5,99.6,101.5,99.4,101.5,99.3z"/>
<path class="st1" d="M99.8,101.8c0.3-0.2,0.7,0,0.7,0.3c0,0.1,0,0.1,0,0.2c0,0.7-0.3,1.3-0.9,1.8c-0.2,0.1-0.4,0.1-0.6-0.1
	C98.6,103.1,99.2,102.3,99.8,101.8z"/>
<path class="st2" d="M91.3,102.6c-0.1-0.7,0.6-0.9,1.2-0.7c0.5,0.2,1,0.6,1.5,0.9c0.4,0.2,0.8,0.4,1.1,0.6c0.3,0.1,0.2,0.7-0.2,0.7
	c0-0.1,0-0.1-0.1-0.1c-0.1,0.1-0.3,0.2-0.4,0c0,0,0,0-0.1,0C93.2,104,91.3,104.1,91.3,102.6z"/>
<path class="st1" d="M135.2,94.7c0.7-1.4,2.3-3.4,4-3.3c0.2,0,0.4,0,0.6,0c0.6,0.2,1.2,0.4,1.8,0.8c-0.1-0.2-0.1-0.4-0.2-0.6
	c-0.2-0.5,0.5-0.6,0.7-0.2c0.2,0.5,0.3,0.9,0.4,1.4c0.1,0.1,0.1,0.1,0.1,0.1c0.1-0.5,0.2-1.2,0.5-1.5c0.3-0.3,0.7-0.3,1,0
	c0.3,0.4,0.1,1-0.1,1.4c-0.1,0.3-0.3,0.7-0.5,1c0.2,0.2,0.4,0.4,0.5,0.6c0.4,0.6,0.4,1.3,0.7,1.8c0.3-0.3,0.6-0.6,0.9-0.9
	c0.2-0.2,0.7,0,0.6,0.4c-0.1,0.5-0.3,0.9-0.6,1.3c0.1,0.1,0.1,0.1,0.2,0.1c0.8,0.3,1.2,0.3,1.8,1c0.6,0.7,1.2,1.9,1.4,3
	c0.3,1,0.3,2.1,0,2.9c-0.2,0.8-0.8,1.5-1.5,1.9c-0.4,0.1-0.7,0.1-1,0.2c-0.8,0-1.5,0.2-2.2,0.7c-0.1,0.2-0.3,0.3-0.5,0.4
	c-3.8,1.3-4.1-5.8-6.8-7.1c-0.2-0.1-0.3-0.3-0.2-0.4C135.4,98.3,134.3,96.7,135.2,94.7z"/>
<path class="st2" d="M135.2,94.7c0.7-1.4,2.3-3.4,4-3.3c0.2,0,0.4,0,0.6,0c0,0.1,0,0.1,0,0.1c-1.8,2-1.9,5.1,0,7.1
	c0.7,0.7,2,1.1,2.3,2.1c0.1,0.5-0.1,1-0.2,1.4c-0.2,1.6,1.5,2,2.8,2.2c1.3,0.2,2.9,0,3.6-1.3c0.4-0.6,0.5-1.2,0.7-1.9
	c0.3,1,0.3,2.1,0,2.9c-0.2,0.8-0.8,1.5-1.5,1.9c-0.4,0.1-0.7,0.1-1,0.2c-0.8,0-1.5,0.2-2.2,0.7c-0.1,0.2-0.3,0.3-0.5,0.4
	c-3.8,1.3-4.1-5.8-6.8-7.1c-0.2-0.1-0.3-0.3-0.2-0.4C135.4,98.3,134.3,96.7,135.2,94.7z"/>
<path class="st1" d="M144,103.3c0.1-0.1,0.2-0.2,0.3-0.2c0.2-0.1,0.5,0,0.5,0.3c0.1,0.7,0.1,1.3-0.1,2c-0.1,0.3-0.5,0.4-0.7,0.1
	C143.7,104.8,143.7,104,144,103.3z"/>
<path class="st1" d="M142.2,102.5c0.1-0.1,0.3-0.1,0.4,0c0.2-0.2,0.7,0.1,0.5,0.5c-0.3,0.5-0.8,1-1.3,1.3c-0.3,0.1-0.7-0.1-0.6-0.4
	C141.4,103.3,141.7,102.8,142.2,102.5z"/>
<path class="st1" d="M137.3,95.8c0.4-0.1,0.8-0.2,1.3-0.2c-0.5-0.3-0.9-0.6-1.3-1c-0.2-0.2,0-0.6,0.3-0.6c0.9,0,1.7,0.5,2.1,1.3
	c0.1,0.3-0.1,0.5-0.3,0.5c-0.1,0.1-0.1,0.1-0.1,0.1c0,0.1,0,0.2-0.1,0.3c-0.3,0.4-0.7,0.8-1.2,0.8c-0.4,0-0.9-0.3-0.9-0.7
	C137,96.1,137.1,95.9,137.3,95.8z"/>
<path class="st2" d="M145.1,99.7c0.3-0.1,0.5,0,0.8,0.1c0.4,0,0.7,0.1,0.9,0.3c0.3,0.3,0.3,0.7,0.1,1.1c-0.6,1-1.6-0.4-2-0.9
	C144.7,100.1,144.8,99.8,145.1,99.7z"/>
<path class="st2" d="M142.2,94.6c0.2-0.4,0.6-0.2,0.7,0.2c0.1,0.7,0,1.4-0.1,2.1c0,0.4-0.5,0.3-0.6,0.1c-0.1,0-0.1-0.1-0.2-0.2
	C141.7,96.1,141.7,95.3,142.2,94.6z"/>
<path class="st1" d="M142.3,98.7c0-0.1,0-0.3,0.1-0.4c0.1-0.4,0.9-0.2,0.7,0.2c0,0.1,0,0.3-0.1,0.4
	C142.8,99.4,142.1,99.2,142.3,98.7z"/>
<path class="st1" d="M82,66.7c-0.2-0.1-0.4-0.2-0.5-0.3c-0.9-1.1,0.2-1.9,1-2.4c1-0.7,2-1.4,3-2.1c0.8-1.1,1.7-2.1,2.5-3.1
	c-1.1-1.9-1.4-3.8-1.1-5.6c-0.8-1.1-1-2.5-0.6-3.9c0.4-1.1,2-0.7,1.9,0.3c0.5-0.7,1-1.4,1.6-2c-0.6-0.5-1-1.4-1.1-1.9
	c0-0.2,0.1-0.4,0.3-0.5c0.5-0.1,0.9,0.2,1.3,0.6c0,0,0,0,0,0.1c0.1,0.1,0.2,0.2,0.3,0.3c0.1,0.1,0.2,0.3,0.3,0.4
	c2.3-2.1,5.4-3.7,8.2-4.6c0.1,0,0.3,0,0.4-0.1c-0.4-0.8-0.6-1.7-0.4-2.6c0.1-0.3,0.5-0.3,0.7-0.1c0.5,0.5,0.8,1,1,1.6
	c0.2-0.7,0.5-1.3,0.8-1.9c0.1-0.2,0.2-0.3,0.3-0.4c0.3-0.3,0.5-0.6,0.8-0.9c0.1-0.2,0.4-0.1,0.6,0c0.4,0.6,0.6,1.2,0.5,1.8
	c0.1,0.2,0.1,0.4,0.1,0.5c1.2-0.8,2.4-1.8,3.7-3.1c0.5-0.5,1-1,1.6-1.5c-0.8-0.5,0.1-2.2,0.4-2.8c0.1-0.3,0.5-0.2,0.6,0
	c0.4,0.5,0.6,1.1,0.6,1.7c0.7-0.4,1.5-0.8,2.3-1.1c3.7-1.3,7.6-1.2,11.2-0.1c0-0.3,0-0.6,0.3-0.8c0.3-0.3,0.7,0,0.9,0.3
	c0.1,0.3,0.3,0.7,0.5,1c0.5,0.2,0.9,0.4,1.4,0.6c1.5,0.7,3,1.2,4.5,1.6c-0.2-0.5-0.3-0.9-0.3-1c-0.1-0.4-0.2-1,0.2-1.2
	c0.3-0.3,0.8,0.1,1.1,0.3c0.8,0.6,1.1,1.4,1.3,2.3c1,0.1,2,0.2,3.1,0.3c1.1,0.1,2.2,0.2,3.3,0.3c-0.3-0.8-0.3-2,0.5-2.4
	c1-0.6,2.1,0.6,2.6,1.2c0.8,0.8,1.4,1.7,1.9,2.6c2.2,0.9,4.3,2.1,6.2,3.5c0.4,0.4,0.7,0.6,1.1,0.9c1-1.1,2.1-1.9,3.6-2.3
	c1.1-0.3,1.6,1.3,0.7,1.8c-0.6,0.7-1.3,1.4-2,2c1.3,0.5,2.6,0.7,4.7,0.2c7.1-1.8,11.7,0.3,14.8,4.6c0.1-0.2,0.1-0.4,0.2-0.7
	c0.1-0.2,0.5-0.4,0.7-0.1c0.1,0.4,0.2,0.8,0.3,1.1c0.2-0.3,0.4-0.5,0.7-0.7c0.1-0.1,0.1-0.1,0.1-0.1c0.1,0,0.1,0,0.1-0.1
	c0.1-0.1,0.3,0,0.4,0c0.6,0.3,0.9,0.9,1,1.5c0.5,1.6,0.3,3.3-0.6,4.7c0.2,0.4,0.4,0.8,0.5,1.3c0.7-0.6,1.6-0.9,2.5-1
	c0.2-0.1,0.3,0.1,0.3,0.2c0.1,0.1,0.1,0.3,0.1,0.4c-0.6,0.9-1.5,1.4-2.5,1.6c0.1,0.3,0.2,0.6,0.3,0.9c0,0,0,0,0.1,0
	c3.6,1.6,5.2,3.7,4.6,7.8c-0.4,2.3-0.6,4.8-1.6,6.8c1.5,1.4,2.7,2.9,3.6,4.5c0,0,0,0,0.1-0.1c0.1-0.4,0.5-0.6,0.9-0.6
	c0.9-0.2,1.5,0.9,1,1.6c0,1-0.1,2.1-0.6,3c0.6-0.1,1.2-0.1,1.9-0.2c0.3-0.1,0.4,0.4,0.2,0.6c-0.7,0.8-1.7,1.3-2.7,1.3
	c-0.3,1.5-0.8,3-1.6,4.3c-1.4,2.4-3.6,4.5-6,5.7c-4.3,2.3-8.9,1.5-13.4,0.7c-3.9-0.7-6.7-3.5-8-7.1c-3,1.7-6.4,0.5-7.9-2.4
	c-3.2,0.7-6.2-0.3-8.4-2.8c-1.7-1.9-1.8-3.6-2.6-5.9c-0.8-2.2-0.1-1.5-2.2-1.7c-1.1-0.2-2.2-0.1-3.3-0.3c-2.8-0.5-4.8-1.8-7.3-2.8
	c-1.5-0.6-3.6-2.1-5.3-0.8c-0.5,0.4-1,1.8-1.3,2.4c-1.2,1.5-2.7,2.7-4.5,3.6c-2.8,1.2-6.1,0.4-8.5,2.4c-3.5,2.9-5.9,6.5-10.9,6.8
	c-2.8,0.1-4.7-0.8-6.3-2.3c-0.8-0.8-1.5-1.6-2.2-2.6c-2.2-3.2-6.5-3-6.3-7.8C80.4,70.2,81.1,68.4,82,66.7z"/>
<path class="st2" d="M93.1,84.5c-1.8-0.3-3.1-1.1-4.3-2.2c0.2-0.7,0.6-1.2,1.1-1.7c1.2-1.3,3-1.5,4.5-2c5-1.8,5.2-6.4,5.1-10.9
	c0-0.7,0.6-1.1,1.2-1c2.6,0.5,5.1,0.5,7.5-0.2c0.1-0.1,0.3-0.2,0.4-0.3c0.7-0.7,0.3-1.5,0.4-2.4c0,0,0,0,0-0.1v-0.1
	c0-0.3,0.1-0.5,0.3-0.6c0.6-0.5,1.7-0.3,1.6,0.7c0,0,0,0,0,0.1c0.1,0.6,0.5,0.9,1.1,1c0.6-0.2,1.1-0.7,1.5-1.2
	c0.4-0.4,0.7-0.8,0.7-1.4c0.1-0.4,0-0.8,0.1-1.2c0.1-0.1,0.2-0.2,0.3-0.2c0-0.3,0.4-0.5,0.7-0.2c0.3,0.6,0.4,1.3,0.2,1.9
	c0.2-0.1,0.4-0.3,0.5-0.4c0.8-0.9,1.5-2.2,2.6-2.8c2.3-1.4,4.8-1.6,6.7-3.9c0.3-0.4,1-0.4,1.4,0c1.2,1.2,2.7,2.6,4.4,3.8
	c1.1,0,2.1-0.3,2.7-1.2c0.6-1.1,2.1-0.3,1.7,0.7c0,0.3,0,0.6-0.3,0.8c-1.5,1.3,1.2,2.4,2.2,2.7c0.1,0.1,0.2,0.1,0.3,0.2
	c2.3,0.3,4.6-0.2,6.7-2.3c0.4-0.4,1-0.4,1.4,0c2.6,2.2,2.5,5.3,4.3,7.8c1.5,1.2,6.7-0.3,6.1,0.8c-0.5,0.8-1.1,1.3-1.9,1.7
	c0.7,0.2,1.4,0.4,2,0.7c2.8,1.4,3.9,3.8,7.7,1.8c0.5-0.5,1-1,1.3-1.7c0.5-1.2,2.2-0.2,1.7,0.9c-0.3,0.7-0.8,1.4-1.3,2
	c-0.3,5.1-0.1,10.9,5.3,13.6c4.5,2.2,9.4,1,13.7-0.9c-1.4,2.4-3.6,4.5-6,5.7c-3.2,1.7-6.5,1.7-9.9,1.2c0.1,0.3,0.3,0.5,0.4,0.8
	c0.1,0.3-0.3,0.5-0.6,0.4c-0.1,0.1-0.2,0.1-0.3,0c-0.8-0.3-1.3-0.8-1.7-1.5c-0.5-0.1-0.9-0.1-1.3-0.2c-1.7-0.3-3.1-1-4.4-1.9
	c-0.1,0.3-0.4,0.5-0.8,0.5c-0.1-0.1-0.1-0.1-0.2-0.1c-0.2-0.1-0.4-0.2-0.4-0.4c0-0.5,0-0.9,0-1.4c-1-1.1-1.7-2.4-2.2-3.8
	c-3,1.7-6.4,0.5-7.9-2.4c-0.9,0.2-1.8,0.2-2.7,0.1c0,0.3,0,0.5-0.1,0.8c-0.1,0.2-0.3,0.3-0.4,0.2c-0.2,0.2-0.3,0.2-0.5,0
	c-0.3-0.4-0.6-0.8-0.7-1.3c-1.5-0.4-2.9-1.3-4-2.6c-1.7-1.9-1.8-3.6-2.6-5.9c-0.8-2.2-0.1-1.5-2.2-1.7c-1.1-0.2-2.2-0.1-3.3-0.3
	c-1.4-0.3-2.6-0.7-3.8-1.2c-0.4,0.2-0.8,0.4-1.3,0.5c-0.2,0.1-0.5-0.1-0.5-0.3c0-0.3,0.2-0.5,0.4-0.7c0.1,0,0.1,0,0.2-0.1
	c-0.3-0.1-0.7-0.3-1.1-0.5c0,0.1,0,0.3-0.1,0.4c-0.2,0.3-0.6,0.2-0.7-0.1c-0.1-0.3-0.1-0.5-0.2-0.7c-0.1-0.1-0.1-0.1-0.2-0.1
	c-1.5-0.6-3.6-2.1-5.3-0.8c-0.5,0.4-1,1.8-1.3,2.4c-1.1,1.4-2.4,2.5-3.9,3.3c-0.4,0.7-0.9,1.4-1.4,2c-0.1,0.2-0.5,0.1-0.6-0.2
	c-0.1-0.3,0-0.7,0.1-1.1c-1.1,0.3-2.1,0.4-3.2,0.5c0.1,0.6-0.1,1.2-0.6,1.6c-0.2,0.2-0.5,0.1-0.6-0.2c-0.1-0.4-0.1-0.8,0-1.2
	c-1,0.2-2,0.6-2.8,1.3c-3.4,2.8-5.8,6.4-10.7,6.7c-0.7,0.5-1.6,0.9-2.5,1c-0.3,0.1-0.6-0.3-0.3-0.6C92.7,84.8,92.9,84.6,93.1,84.5z"
	/>
<path class="st2" d="M165,57.8c0.5-1.5,1.3-2.7,2.4-3.7c0.6-0.6,1.4-0.2,1.6,0.4c0.1,0.2,0.2,0.5,0.1,0.8c-0.4,1.5-1.3,2.7-2.6,3.6
	C165.8,59.3,164.8,58.6,165,57.8z"/>
<path class="st2" d="M144.9,50.2c-0.2-1.1,1.5-1.5,1.9-0.4c0.3,1.1,0.5,2.1,0.4,3.2c-0.1,0.8-1.4,1.4-1.8,0.4
	C144.8,52.4,144.7,51.4,144.9,50.2z"/>
<path class="st2" d="M171.8,67.7c0.8-1.5,2.2-2.4,3.8-2.5c1.3-0.1,1.3,1.7,0.1,1.9c0,0.1,0,0.3-0.1,0.5c-0.8,1-1.7,1.5-2.9,1.5
	C171.9,69.1,171.5,68.3,171.8,67.7z"/>
<path class="st1" d="M120.8,57.2c0.1-0.1,0.1-0.1,0.2-0.2c-0.1-0.4,0.6-0.6,0.7-0.2c0.4,1,0.5,2.3-0.1,3.1c-0.1,0-0.1,0-0.1,0
	c-0.1,0.2-0.3,0.4-0.5,0.5c-0.2,0.1-0.6,0-0.6-0.2C120.3,59.1,120.4,58.1,120.8,57.2z"/>
<path class="st1" d="M129.2,56.9c0.2-0.1,0.6,0.2,0.4,0.5c-0.3,0.7-0.9,1.2-1.6,1.4c-0.3,0.1-0.5-0.2-0.4-0.5
	C127.7,57.6,128.4,57,129.2,56.9z"/>
<path class="st1" d="M133.6,61.2c0.7-0.9,1.5-1.7,2.4-2.3c0.4-0.2,0.8,0.4,0.4,0.7c-0.4,0.2-0.7,0.4-1,0.7c0.1,0,0.1,0,0.1,0
	s0,0,0.1,0c0.2-0.1,0.4,0,0.4,0.3c0,0.1,0,0.1,0,0.2c0.1,0,0.2,0,0.3,0.1c0,0,0,0,0-0.1c0-0.4,0.6-0.5,0.7-0.1
	c0.5,1.3,0.4,2.8-0.8,3.6c-0.3,0.2-0.5,0-0.6-0.2c-0.3-0.8-0.4-1.6-0.4-2.5c-0.4,0.2-0.9,0.3-1.4,0.1
	C133.6,61.7,133.4,61.4,133.6,61.2z"/>
<path class="st1" d="M153.5,70.6c1-0.4,2-0.7,3.1-1c0.4-0.1,0.6,0.5,0.3,0.7c0.3,0.1,0.3,0.5,0,0.7c-1,0.7-2.3,0.8-3.4,0.3
	C153.2,71.2,153.2,70.8,153.5,70.6z"/>
<path class="st1" d="M150.7,69.7c0.3-0.7,0.8-1.4,1.3-2c0.3-0.2,0.5,0,0.6,0.2c0.3-0.4,1,0,0.7,0.4c-0.6,0.7-1.3,1.4-2.1,1.9
	C150.8,70.4,150.5,70,150.7,69.7z"/>
<path class="st1" d="M164.2,79.9c0.5-1.2,1.1-2.3,1.9-3.3c0.4-0.4,0.9,0.1,0.6,0.5c-0.1,0.1-0.3,0.3-0.4,0.4
	c0.2,0.1,0.3,0.2,0.3,0.4c-0.1,1.1-0.8,2-1.9,2.5C164.4,80.5,164.1,80.2,164.2,79.9z"/>
<path class="st1" d="M180.4,87.8c0.3-0.2,0.5-0.3,0.8-0.4c-0.1-0.3,0.1-0.7,0.4-0.6c0.7,0.2,1.5,0.4,2.2,0.6
	c0.2,0.1,0.4,0.4,0.1,0.6c-1,0.8-2.3,1-3.4,0.4C180.2,88.3,180.2,88,180.4,87.8z"/>
<path class="st1" d="M171.7,86.8c0.1-0.4,0.6-0.4,0.7,0c0.1,0.3,0.2,0.6,0.3,0.9c0.1-0.1,0.3-0.1,0.4,0c0.2-0.2,0.6-0.1,0.6,0.3
	c0,0.2,0.1,0.7,0,1.2c0,0.2,0,0.4,0,0.7c-0.1,0.3-0.5,0.4-0.6,0.2c-0.1-0.1-0.2-0.1-0.2-0.2c-0.1,0-0.1,0-0.2,0
	c-0.3-0.2-0.5-0.4-0.5-0.8C171.7,88.4,171.4,87.6,171.7,86.8z"/>
<path class="st1" d="M104.8,66.5c0.1-0.2,0.4-0.4,0.6-0.2c0.7,0.9,1.4,2.1,0.4,3.1c-0.2,0.2-0.5,0.1-0.6-0.2
	c-0.3-0.7-0.5-1.5-0.6-2.3C104.6,66.8,104.7,66.6,104.8,66.5z"/>
<path class="st1" d="M98.8,71.8c0.1-0.1,0.2-0.1,0.3-0.1c0.5,0,1,0.2,1.2,0.7c0.3,0.4,0.2,0.9-0.1,1.2c-0.2,0.2-0.4,0.2-0.6,0
	c-0.3-0.4-0.7-0.8-1-1.3C98.5,72.1,98.6,71.9,98.8,71.8z"/>
<path class="st1" d="M94.9,77.3c0.1-0.1,0.2-0.2,0.4-0.2c0.1-0.6,0.2-1.2,0.3-1.8c0-0.5,0.8-0.5,0.7,0c-0.1,1.1-0.3,2.1-0.6,3.2
	c-0.2,0.6-0.5,1.1-1.1,1.3c-0.2,0.1-0.5-0.1-0.4-0.3C94.3,78.7,94.5,78,94.9,77.3z"/>
<path class="st2" d="M132,45.7c0.1-0.6,0.4-2.2,1.1-2.3c0.8-0.1,0.9,1.2,1,1.6c0.1,1.1-0.1,2.1-0.7,3c0,0.1,0,0.2,0,0.3
	c-0.1,0.3-0.5,0.5-0.7,0.1C132.1,47.6,131.9,46.7,132,45.7z"/>
<path class="st2" d="M124.6,42.7c0-0.2,0.2-0.4,0.5-0.3c1.3,0.3,2.4,1.3,2.9,2.6c0.1,0,0.1,0,0.1,0.1c0.1,0.1,0.1,0.2,0.1,0.3
	c-0.1,0.3-0.4,0.4-0.6,0.2C125.9,45.7,124.6,44.4,124.6,42.7z"/>
<path class="st2" d="M115,50c0.2-0.3,0.5-0.2,0.7,0c0.7,0.9,0.9,2.1,0.6,3.3c0,0,0,0-0.1,0.1c0,0.4-0.2,0.8-0.6,1.1
	c-0.2,0.2-0.5,0-0.6-0.2C114.5,52.9,114.2,51.4,115,50z"/>
<path class="st2" d="M104.7,43.2c0.7,0,1.8,0,2.5,0.3c0.6,0.3,1,0.7,1.3,1.2c0.2,0.2,0.3,0.5,0.3,0.8c-0.2,1.6-3.1-0.1-3.7-0.4
	c-0.5-0.3-1-0.6-1.1-1.2C103.9,43.4,104.2,43.2,104.7,43.2z"/>
<path class="st2" d="M96.7,52.7c1-0.6,2.2-0.9,3.4-0.8c0.6,0,0.8,0.6,0.6,1.1c0,0.1-0.1,0.3-0.2,0.4c-1.1,0.8-2.4,1.1-3.7,0.6
	C96.3,53.8,96,53,96.7,52.7z"/>
<path class="st2" d="M93.4,62.7c0.7-0.4,1.2,0.3,1.4,0.9c0.2,0.6,0.3,1.2,0.3,1.8c0.1,0.8-0.8,0.9-1.2,0.5c-0.1,0-0.2,0-0.3-0.1
	c-0.4-0.5-0.6-1-0.7-1.5C92.8,63.8,92.8,63,93.4,62.7z"/>
<path class="st1" d="M88.3,69.6c0.4-0.5,1.2-0.8,1.9-0.8c0.4,0,0.7,0.3,0.7,0.7c0,0.1,0,0.2,0,0.3c0.1,0.4-0.1,0.8-0.5,0.9
	c-0.6,0.2-1.2,0.3-1.8,0.2C88,70.8,87.9,70,88.3,69.6z"/>
<path class="st2" d="M96.2,100.9c4.2,1.1,8.5,1.7,12.8,1.8c-0.9-1.1-1.3-5.4-0.6-4.3c1.4,2.4,3.2,4.6,5.2,6.4
	c-0.4-1.2,1.8-4.6,1.6-3.4c-0.3,2.1,0.5,4.2,2.1,5.6c0.3,0.2,3.8,1.9,5.8,2.6c-0.2-1.2-0.2-1.6-0.3-2.8c-0.6-6.5,0.3-12.7,0.6-19.2
	c0.4-7.2-1.7-15.1-2.3-23.3c-0.1-1.3,5,18,5.6,25.9c0.3-1.4,0.8-2.7,1.4-4c1.1-2.3,2.5-4.4,4-6.4c-0.1-0.1,2-10.6,2-9.3
	c-0.2,2.3-0.3,4.7-0.2,7.1c1.7-2,7.5-5.2,6.6-4.3c-4.7,4.9-9.7,10-11.8,16.6c-1.1,3.5-1.4,7.3-1.3,11c4.3-0.1,7.9-0.5,12.8-3.2
	c-3.5,3.3-7.9,5-12.7,5.2c0.1,2.4,0.3,4.8,0.6,7.2c1.3,12.1,1.6,32.4,1.5,45c0.2,0.5,0.1,1.1-0.6,1.3c-1.9,0.4-3.6,0.5-5.6,0.5
	c-0.6,0-1-0.6-1-1.2c1.5-11.5,2.3-31.5,1-43.1c-5-1.6-9.4-4.4-12.9-8.1c-0.1,0.1-0.2,0.1-0.4,0.1C105.2,104.6,95,100.6,96.2,100.9z"
	/>
<path class="st3" d="M0,142.1c0-0.1,0.1-0.2,0.2-0.3c0.7-0.2,1.7-0.2,2.3,0.1c0.8,0.2,1.2,0.9,1.6,1.7c0.4,0.2,0.8,0.4,1.2,0.6
	c-0.1-0.5-0.2-0.9-0.2-1.4c0-0.5,0.1-1.9,0.9-1.7c0.6,0.2,1.1,1.5,1.3,2c0.2,0.8,0.1,1.6-0.3,2.3c0.7,0.6,1.4,1.2,2,1.9
	c-0.1-0.4-0.1-0.8,0-1.2c0.1-0.5,0.3-1.9,1.1-1.6c0.6,0.2,0.9,1.6,1,2.1c0.2,0.9,0,1.7-0.6,2.4c0.1,0.1,0.1,0.2,0.1,0.3
	c0.4,0.6,0.8,1.3,1.2,2c0,0,0,0,0,0.1c0.1-0.5,0.2-0.9,0.3-1.4c0.2-0.4,0.7-1.7,1.4-1.3c0.6,0.4,0.5,1.8,0.5,2.3
	c-0.1,0.9-0.4,1.7-1.1,2.2c0,0.1,0,0.1,0,0.2c0.3,0.5,0.5,1.1,0.7,1.7c0.1-0.4,0.3-0.8,0.5-1.1c0.1-0.3,0.5-0.8,0.9-1.1
	c0.1-0.7,1.3-0.7,1.9-0.5c0.6,0.2,1.2,0.5,1.7,0.8c-0.3-1.1-0.5-2.1-0.7-3.2c-1.4,0-4.2-0.8-4.3-1.9c0-0.8,1.3-0.8,2-0.6
	c0.7,0.2,1.3,0.5,1.9,0.9c-0.3-0.9-0.5-1.7-0.8-2.5c-1.4,0.1-3.9-0.4-4.1-1.3c-0.1-0.9,1.1-1,1.8-0.9c0.7,0.1,1.3,0.2,1.8,0.5
	c-0.3-0.9-0.6-1.8-1-2.7c-1.5,0.4-3.9,0.6-4.3-0.3c-0.4-0.8,0.8-1.2,1.5-1.3c0.7-0.1,1.3,0,2,0.1c-0.5-0.9-1.1-1.7-1.8-2.5
	c-1.2,0.6-4.1,1.3-4.6,0.3c-0.5-0.7,0.7-1.3,1.3-1.5c0.7-0.1,1.4-0.1,2.1,0c-0.5-0.5-1.1-0.9-1.7-1.3c0,0,0,0-0.1,0
	c-0.8,0.1-1.8,0-2.5-0.5c-0.5-0.5-0.7-1.4-0.6-2c0-0.1,0.2-0.3,0.3-0.3c0.6-0.1,1.6,0.1,2.2,0.4c0.8,0.4,1.1,1.1,1.3,1.9
	c0.4,0.3,0.8,0.6,1.1,0.9c-0.1-0.5-0.1-1,0-1.5c0.1-0.4,0.4-1.8,1.2-1.5c0.6,0.3,0.8,1.7,0.9,2.2c0.1,0.8-0.1,1.6-0.6,2.2
	c0.7,0.7,1.2,1.4,1.7,2.2c0-0.4,0.1-0.8,0.2-1.2c0.1-0.5,0.6-1.8,1.3-1.4c0.6,0.3,0.6,1.7,0.7,2.3c0,0.8-0.3,1.6-1,2.2
	c0.1,0.1,0.1,0.2,0,0.3c0.3,0.7,0.6,1.4,0.9,2.1c0,0.1,0,0.1,0,0.2c0.1-0.5,0.3-0.9,0.5-1.4c0.3-0.4,1-1.6,1.6-1
	c0.5,0.4,0.3,1.8,0.1,2.3c-0.2,0.9-0.6,1.6-1.4,2c0,0.1,0,0.2,0,0.3c0.1,0.5,0.3,1.1,0.5,1.7c0.1-0.3,0.3-0.7,0.6-1
	c0.2-0.4,1.2-1.4,1.7-0.8c0.4,0.5-0.1,1.8-0.3,2.3c-0.3,0.8-0.8,1.4-1.5,1.7c0.3,1,0.5,2,0.7,3c0.1-0.5,0.4-0.9,0.7-1.3
	c0.1,0,0.1,0,0.1-0.1c0-0.3,0.1-0.5,0.2-0.7c0.2-0.2,0.5-0.2,0.7-0.1c0.3-0.1,0.5-0.1,0.7,0.1c0.1,0.2,0.2,0.4,0.2,0.7
	c0.1,0.1,0.1,0.1,0.1,0.1c0.3,0.4,0.6,0.8,0.7,1.3c0.2-1,0.4-2,0.7-3c-0.7-0.3-1.2-0.9-1.5-1.7c-0.2-0.5-0.7-1.8-0.3-2.3
	c0.6-0.6,1.5,0.4,1.8,0.8c0.2,0.3,0.4,0.7,0.6,1c0.1-0.6,0.3-1.2,0.5-1.7c-0.1-0.1-0.1-0.2-0.1-0.3c-0.7-0.4-1.2-1.1-1.4-2
	c-0.1-0.5-0.4-1.9,0.1-2.3c0.6-0.6,1.4,0.6,1.6,1c0.3,0.5,0.4,0.9,0.5,1.4c0-0.1,0-0.1,0-0.2c0.3-0.7,0.6-1.4,0.9-2.1
	c0-0.1,0-0.2,0-0.3c-0.6-0.6-0.9-1.4-0.9-2.2c0-0.6,0.1-2,0.6-2.3c0.7-0.4,1.2,0.9,1.3,1.4c0.1,0.4,0.2,0.8,0.2,1.2
	c0.5-0.8,1.1-1.5,1.7-2.2c-0.5-0.6-0.7-1.4-0.6-2.2c0.1-0.5,0.4-1.9,0.9-2.2c0.8-0.3,1.1,1.1,1.2,1.5c0.1,0.5,0.1,1,0,1.5
	c0.3-0.3,0.7-0.6,1.1-0.9c0.3-0.8,0.6-1.5,1.3-1.9c0.6-0.3,1.6-0.5,2.3-0.4c0.1,0,0.2,0.2,0.2,0.3c0.2,0.6-0.1,1.5-0.6,2
	c-0.6,0.5-1.7,0.6-2.5,0.5c-0.1,0-0.1,0-0.1,0c-0.6,0.4-1.1,0.8-1.6,1.3c0.7-0.1,1.3-0.1,2,0c0.7,0.2,1.8,0.8,1.4,1.5
	c-0.6,1-3.4,0.3-4.7-0.3c-0.7,0.8-1.2,1.6-1.7,2.5c0.6-0.1,1.2-0.2,1.9-0.1c0.7,0.1,1.9,0.5,1.6,1.3c-0.4,0.9-2.9,0.7-4.3,0.3
	c-0.4,0.9-0.8,1.8-1.1,2.7c0.5-0.3,1.1-0.4,1.8-0.5c0.7-0.1,2,0,1.8,0.9c-0.2,0.9-2.7,1.4-4.1,1.3c-0.3,0.8-0.5,1.6-0.7,2.5
	c0.5-0.4,1.2-0.7,1.9-0.9c0.7-0.2,1.9-0.2,1.9,0.6c0,1.1-2.8,1.9-4.2,1.9c-0.3,1.1-0.5,2.1-0.8,3.2c0.5-0.3,1.1-0.6,1.7-0.8
	c0.6-0.1,1.7-0.2,1.9,0.4c0.6-0.1,1.1,0.9,1.3,1.2c0.2,0.3,0.4,0.7,0.5,1.1c0.2-0.6,0.4-1.2,0.7-1.7c0-0.1,0-0.1,0-0.2
	c-0.7-0.5-1-1.3-1.1-2.2c0-0.5,0-1.9,0.5-2.3c0.7-0.4,1.2,0.9,1.4,1.3c0.2,0.5,0.3,0.9,0.3,1.4c0-0.1,0-0.1,0.1-0.1
	c0.3-0.7,0.7-1.4,1.2-2c-0.1-0.1-0.1-0.2,0-0.3c-0.6-0.7-0.7-1.5-0.6-2.4c0.1-0.5,0.4-1.9,1-2.1c0.8-0.3,1,1.1,1.1,1.6
	c0.1,0.4,0.1,0.8,0,1.2c0.6-0.7,1.3-1.3,2-1.9c-0.4-0.7-0.5-1.5-0.2-2.3c0.1-0.5,0.6-1.8,1.2-2c0.8-0.2,0.9,1.2,0.9,1.7
	c0,0.5-0.1,0.9-0.2,1.4c0.4-0.2,0.8-0.4,1.2-0.6c0.4-0.8,0.8-1.5,1.6-1.7c0.6-0.3,1.6-0.3,2.3-0.1c0.1,0.1,0.2,0.2,0.2,0.3
	c0,0.7-0.3,1.5-0.9,1.9c-0.7,0.4-1.8,0.3-2.6,0.2c-0.1,0-0.1,0-0.1-0.1c-0.6,0.3-1.2,0.6-1.8,1c0.7,0,1.3,0.1,2,0.4
	c0.6,0.3,1.7,1,1.1,1.7c-0.7,0.8-3.4-0.2-4.5-1.1c-0.8,0.7-1.5,1.4-2.1,2.2c0.6-0.1,1.2,0,1.9,0.2c0.7,0.2,1.8,0.8,1.3,1.5
	c-0.5,0.9-2.9,0.4-4.3-0.3c-0.5,0.8-0.9,1.6-1.4,2.5c0.6-0.2,1.2-0.3,1.8-0.3c0.7,0.1,2,0.4,1.7,1.2c-0.4,1-2.9,1-4.3,0.7
	c-0.4,0.8-0.7,1.6-1.1,2.4c0.6-0.3,1.3-0.6,2-0.7c0.7,0,2,0.2,1.8,1c-0.2,1-3.1,1.4-4.4,1.2c-0.2,0.3-0.8,0-0.7-0.3
	c0-0.1,0-0.1,0.1-0.2c-0.7-0.4-1.1-1.1-1.3-1.9c0-0.3-0.1-0.9-0.1-1.4c-0.9,0.6-2.4,1-3.4,1.1c-0.1,0.4-0.2,0.8-0.3,1.3
	c0.5-0.4,1.1-0.7,1.7-0.8c0.7-0.2,2-0.2,2,0.6c-0.1,1-2.7,1.8-4.1,1.9c-0.2,0.2-0.5,0.1-0.6-0.1c-0.2-0.2-0.4-0.4-0.7-0.6
	c-0.2,0.2-0.5,0.4-0.7,0.6c-0.1,0.2-0.4,0.3-0.6,0.1c-1.4-0.1-4-0.9-4-1.9c0-0.1,0-0.1,0-0.2c-0.2,0.5-0.6,1-1.1,1.3
	c0.1,0.1,0.1,0.1,0.1,0.2c0.1,0.3-0.4,0.6-0.6,0.3c-1.4,0.2-4.3-0.2-4.5-1.2c-0.2-0.8,1.1-1,1.8-1c0.7,0.1,1.4,0.4,2,0.7
	c-0.3-0.8-0.7-1.6-1.1-2.4c-1.4,0.3-3.9,0.3-4.3-0.7c-0.2-0.8,1-1.1,1.7-1.2c0.6,0,1.2,0.1,1.8,0.3c-0.4-0.9-0.9-1.7-1.4-2.5
	c-1.4,0.7-3.8,1.2-4.3,0.3c-0.5-0.7,0.6-1.3,1.3-1.5c0.7-0.2,1.3-0.3,2-0.2c-0.7-0.8-1.4-1.5-2.2-2.2C5.7,147,3,148,2.3,147.2
	c-0.6-0.7,0.5-1.4,1.1-1.7c0.7-0.3,1.3-0.4,2-0.4c-0.5-0.4-1.1-0.7-1.8-1c0,0.1,0,0.1-0.1,0.1c-0.8,0.1-1.9,0.2-2.6-0.2
	C0.3,143.6,0,142.8,0,142.1z M21,153.8c0,0,0,0-0.1-0.1c0,0.1,0,0.1-0.1,0.1c0.1,0.1,0.1,0.1,0.1,0.1C21,153.9,21,153.9,21,153.8z
	 M17.5,155.5c0.6,0.1,1.2,0.4,1.7,0.8c-0.1-0.5-0.1-0.9-0.2-1.3c-0.9-0.1-2.2-0.4-3.1-0.9c0,0.5-0.1,1-0.1,1.2
	c-0.1,0.2-0.1,0.4-0.2,0.5C15.9,155.3,16.9,155.3,17.5,155.5z"/>
<path class="st1" d="M96.7,66c-1.5,6.9-5.5,11.7-11.9,15.4c-4.1,2.4-9.2,4.4-15.2,6.2c-0.4,0.1-3.4,0.1-3.9,0
	c-17.6-3.3-26.3-18.3-27.4-31.4c-0.5-6.4,0.5-12.9,3.1-18.9c2.3-5.7,5.9-11,10.6-15.6c3.9-4,11-10.8,18.3-9.2c3.7,0.9,6.3,3.7,8.6,6
	c2.5,2.6,4.9,5.3,7,8.2C94.8,38.4,99.8,52.3,96.7,66z"/>
<path class="st2" d="M84.8,81.4c-4.1,2.4-9.2,4.4-15.2,6.2c-0.4,0.1-3.4,0.1-3.9,0c-17.6-3.3-26.3-18.3-27.4-31.4
	c-0.5-6.4,0.5-12.9,3.1-18.9C41,42.5,42,47.9,43.1,53c1.1,5.4,3.2,10.7,7.3,15.2c4.3,4.4,10.6,7.1,16.8,9.4
	C72.9,79.6,78.7,81.1,84.8,81.4z"/>
<path class="st1" d="M42.8,55c-0.1,0.1-0.1,0.2-0.2,0.2c-0.1,0.2-0.3,0.3-0.6,0.3c-1.8-0.3-3.7-0.5-4.9-1.7
	c-1.5-1.6-1.4-3.8-1.4-5.6c-0.1-0.3,0.4-0.6,0.8-0.4C39.6,49.2,44.4,51.6,42.8,55z"/>
<path class="st1" d="M47.5,38c-0.1,0.1-0.1,0.2-0.2,0.2c-0.2,0.1-0.4,0.2-0.7,0.1c-1.7-0.5-3.5-1.1-4.3-2.5
	c-1.1-1.8-0.3-3.9,0.2-5.7c0.1-0.3,0.6-0.5,0.9-0.3C46.1,31.8,50.1,35,47.5,38z"/>
<path class="st1" d="M52.3,29.4c-0.1,0.1-0.1,0.1-0.2,0.1c-0.2,0.2-0.4,0.3-0.7,0.2c-1.7-0.6-3.5-1.1-4.3-2.6
	c-1-1.8-0.2-3.9,0.2-5.7c0.1-0.3,0.6-0.5,0.9-0.2C50.9,23.1,54.9,26.3,52.3,29.4z"/>
<path class="st1" d="M57.5,25.1c-0.1,0.1-0.1,0.1-0.2,0.1c-0.2,0.2-0.4,0.2-0.7,0.1c-1.7-0.5-3.5-1.1-4.3-2.5
	c-1.1-1.8-0.3-3.9,0.2-5.7c0.1-0.3,0.6-0.5,0.9-0.3C56.1,18.8,60.1,22,57.5,25.1z"/>
<path class="st1" d="M63.3,19.7c-0.1,0.1-0.2,0.1-0.3,0.1c-0.2,0.1-0.4,0.2-0.7,0.1c-1.6-0.8-3.3-1.5-3.8-3
	c-0.8-1.9,0.4-3.9,1.1-5.6c0.1-0.3,0.7-0.5,0.9-0.2C62.9,13.3,66.3,16.9,63.3,19.7z"/>
<path class="st1" d="M91.7,29.8c0.4-0.2,0.9,0,0.9,0.3c0.5,1.8,1.3,3.9,0.3,5.7c-0.9,1.4-2.6,2-4.4,2.5c-0.2,0.1-0.5,0-0.6-0.1
	c-0.1,0-0.1-0.1-0.2-0.2C85.1,35,89.1,31.8,91.7,29.8z"/>
<path class="st2" d="M86.9,24.4c0.3-0.2,0.8,0,0.9,0.3c0.5,1.8,1.3,3.9,0.3,5.6c-0.9,1.5-2.6,2-4.4,2.6c-0.3,0.1-0.5,0-0.6-0.1
	c-0.1-0.1-0.2-0.1-0.3-0.2C80.3,29.6,84.2,26.4,86.9,24.4z"/>
<path class="st1" d="M81.7,16.8c0.4-0.2,0.9,0,0.9,0.3c0.5,1.8,1.3,3.9,0.3,5.7c-0.9,1.4-2.6,2-4.4,2.5c-0.2,0.1-0.5,0.1-0.6-0.1
	c-0.1,0-0.2,0-0.3-0.1C75.1,22,79,18.8,81.7,16.8z"/>
<path class="st1" d="M74.6,11.1c0.3-0.3,0.8-0.1,0.9,0.2c0.8,1.7,1.9,3.7,1.2,5.6c-0.6,1.5-2.3,2.2-3.9,3c-0.3,0.1-0.5,0-0.7-0.1
	c-0.1,0-0.1,0-0.2-0.1C68.8,16.9,72.2,13.3,74.6,11.1z"/>
<path class="st1" d="M68.8,15.4c-0.1,0.1-0.2,0.1-0.3,0.1c-0.2,0.1-0.4,0.1-0.6,0c-1.5-1-2.9-1.9-3.2-3.5c-0.2-2,1.3-3.8,2.5-5.4
	c0.2-0.2,0.7-0.3,1,0C69.9,9.1,72.5,13.1,68.8,15.4z"/>
<path class="st1" d="M43.1,60.1c0,0.1,0,0.1,0,0.2c0,0.2-0.1,0.4-0.4,0.5c-1.8,0.5-3.5,1-5.4,0.4c-2.2-0.7-3.4-2.7-4.6-4.3
	c-0.3-0.3-0.1-0.7,0.4-0.7C36.7,56.2,42.4,56.5,43.1,60.1z"/>
<path class="st2" d="M53.6,67.7c0,0.1,0,0.2-0.1,0.3c0.1,0.2,0,0.3-0.3,0.4c-1.8,0.5-3.5,1.1-5.4,0.5c-2.3-0.8-3.5-2.8-4.7-4.3
	c-0.2-0.3,0-0.7,0.4-0.7C47.2,63.9,52.9,64.1,53.6,67.7z"/>
<path class="st1" d="M61.3,70.7c0.1,0.1,0.1,0.1,0.1,0.2c0.1,0.2,0.1,0.4-0.1,0.6c-1.3,1.1-2.5,2.2-4.5,2.3
	c-2.5,0.1-4.7-1.2-6.7-2.2c-0.3-0.2-0.4-0.6,0-0.8C53.4,69.5,58.6,67.7,61.3,70.7z"/>
<path class="st1" d="M69.7,75.5c0.1,0.1,0.1,0.1,0.1,0.2c0.1,0.2,0.1,0.4-0.1,0.6c-1.3,1.1-2.5,2.2-4.5,2.3
	c-2.5,0.1-4.7-1.2-6.7-2.2c-0.3-0.1-0.4-0.6,0-0.7C61.8,74.4,67,72.5,69.7,75.5z"/>
<path class="st2" d="M49.7,60.3c0,0.1,0,0.1-0.1,0.2c0,0.2-0.1,0.4-0.4,0.4c-1.9,0.2-3.8,0.4-5.4-0.5c-2-1.1-2.7-3.2-3.4-5
	c-0.2-0.3,0.1-0.6,0.6-0.6C44.5,55.4,50,56.6,49.7,60.3z"/>
<path class="st1" d="M61.7,83.5C61.8,83.6,61.8,83.6,61.7,83.5c0.2,0.2,0.3,0.4,0.2,0.5c-0.7,1.1-1.4,2.1-2.9,2.5
	c-1.8,0.4-3.7-0.2-5.4-0.7c-0.3-0.1-0.5-0.4-0.2-0.6C55.5,83.8,58.9,81.7,61.7,83.5z"/>
<path class="st1" d="M45.1,70.1c0,0.1,0,0.2-0.1,0.2c-0.1,0.2-0.2,0.4-0.5,0.4c-1.9,0.1-3.8,0.3-5.4-0.7c-1.9-1.2-2.4-3.3-3.1-5.1
	c-0.1-0.3,0.2-0.6,0.6-0.6C40.2,65.1,45.6,66.5,45.1,70.1z"/>
<path class="st2" d="M96.8,39.2c0.4-0.1,0.8,0.1,0.8,0.5c-0.1,1.8,0.1,4-1.4,5.5c-1.3,1.3-3.1,1.5-5,1.7c-0.3,0.1-0.5,0-0.6-0.2
	c-0.1-0.1-0.1-0.1-0.2-0.2C88.8,43.1,93.6,40.6,96.8,39.2z"/>
<path class="st2" d="M103.4,46.9c0.4,0,0.6,0.5,0.4,0.7c-1.2,1.6-2.4,3.6-4.7,4.3c-1.8,0.7-3.6,0.1-5.3-0.4
	c-0.3-0.1-0.4-0.3-0.4-0.4c-0.1-0.1-0.1-0.2,0-0.3C94.1,47.2,99.7,47,103.4,46.9z"/>
<path class="st1" d="M101.2,70.5c0.4,0.1,0.5,0.6,0.2,0.8c-1.6,1.4-3.2,3.1-5.6,3.5c-2,0.3-3.6-0.5-5.2-1.3
	c-0.3-0.1-0.3-0.3-0.3-0.5c0-0.1,0-0.1,0-0.2C92,69.3,97.6,70,101.2,70.5z"/>
<path class="st1" d="M92,77.8c0.5,0.1,0.6,0.6,0.3,0.8c-1.6,1.3-3.2,3.1-5.6,3.5c-2,0.3-3.6-0.5-5.2-1.3c-0.3-0.1-0.3-0.3-0.3-0.5
	c0-0.1,0-0.1,0-0.2C82.8,76.6,88.5,77.3,92,77.8z"/>
<path class="st2" d="M85.3,82.8c0.5,0,0.5,0.5,0.3,0.7c-1.6,1.4-3.3,3.1-5.7,3.5c-2,0.3-3.5-0.5-5.2-1.3c-0.2-0.1-0.3-0.3-0.2-0.5
	c0-0.1,0-0.1,0-0.2C76.1,81.6,81.7,82.2,85.3,82.8z"/>
<path class="st1" d="M77,87.4c0.2,0.2,0.1,0.4-0.2,0.5c-1.3,0.4-2.9,1-4.4,0.6c-1.3-0.3-1.8-1.1-2.5-1.9c0-0.1,0-0.2,0.1-0.3
	c0-0.1,0-0.1,0.1-0.2C72.3,84.6,75.2,86.3,77,87.4z"/>
<path class="st1" d="M66.3,86.1c0.1,0.1,0.1,0.1,0.1,0.2c0.1,0.1,0.1,0.2,0.1,0.3c-0.6,0.8-1,1.6-2.1,1.9c-1.3,0.4-2.6-0.2-3.8-0.6
	c-0.2-0.1-0.3-0.3-0.1-0.5C62,86.3,64.5,84.6,66.3,86.1z"/>
<path class="st2" d="M99.8,55.1c0.5-0.1,0.8,0.2,0.7,0.5c-0.7,1.8-1.2,4-3.2,5.2c-1.5,0.9-3.4,0.8-5.3,0.6c-0.3,0-0.5-0.2-0.5-0.3
	c-0.1-0.1-0.1-0.2-0.1-0.3C90.9,57.2,96.3,55.8,99.8,55.1z"/>
<path class="st1" d="M99.8,61.1c0.5-0.1,0.8,0.3,0.7,0.6c-0.7,1.7-1.2,3.9-3.2,5.1c-1.5,1-3.4,0.8-5.3,0.7c-0.3-0.1-0.5-0.2-0.5-0.4
	c-0.1-0.1-0.1-0.1-0.1-0.2C90.9,63.2,96.3,61.8,99.8,61.1z"/>
<path class="st1" d="M57.4,79.1c0.1,0.1,0.1,0.1,0.1,0.2c0.1,0.2,0.1,0.4-0.1,0.6c-1.3,1.1-2.5,2.2-4.5,2.3
	c-2.5,0.2-4.7-1.1-6.7-2.1c-0.3-0.2-0.4-0.6,0-0.8C49.5,78,54.6,76.2,57.4,79.1z"/>
<path class="st1" d="M52.8,76.2c0,0.1,0,0.1,0,0.2c0.1,0.2,0.1,0.4-0.2,0.5c-1.5,0.9-3,1.9-5,1.7c-2.4-0.3-4.3-1.9-6-3.1
	c-0.3-0.2-0.3-0.7,0.2-0.8C45.3,73.9,50.8,72.9,52.8,76.2z"/>
<path class="st1" d="M74.4,22.4c-0.1,0.1-0.1,0.1-0.2,0.1c-0.1,0-0.3,0-0.4-0.1c-0.8-0.7-1.6-1.3-1.6-2.4c0-1.2,1.1-2.2,2-3.2
	c0.1-0.1,0.5-0.1,0.6,0.1C75.7,18.6,76.9,21.2,74.4,22.4z"/>
<path class="st1" d="M88,50.5c-0.1,0-0.1,0-0.2,0c-0.2,0-0.3,0-0.4-0.1c-0.6-0.9-1.1-1.7-0.8-2.7c0.4-1.2,1.9-1.9,3-2.6
	c0.2-0.1,0.6-0.1,0.6,0.1C90.5,47,90.8,49.9,88,50.5z"/>
<path class="st2" d="M74.8,56.1c-0.1,0.1-0.1,0.1-0.2,0.1c-0.1,0-0.3,0.1-0.4,0c-0.9-0.6-1.9-1.2-2.1-2.2c-0.2-1.2,0.8-2.4,1.5-3.4
	c0.1-0.2,0.4-0.2,0.6,0C75.4,52.1,77,54.6,74.8,56.1z"/>
<path class="st1" d="M59.1,42.6c-0.1,0.1-0.1,0.1-0.2,0.2c-0.1,0.2-0.3,0.3-0.6,0.3c-1.9-0.3-3.7-0.5-5-1.8
	c-1.5-1.5-1.3-3.7-1.4-5.5c0-0.3,0.4-0.6,0.8-0.5C55.9,36.8,60.7,39.2,59.1,42.6z"/>
<path class="st2" d="M73.8,39.4c-0.1,0.1-0.2,0.1-0.3,0c-0.3,0.1-0.5,0-0.8-0.2c-1.2-1.2-2.6-2.4-2.3-3.8c0.4-1.8,2.7-3,4.6-4.2
	c0.3-0.2,0.9-0.1,1.1,0.2C77.2,34.1,78.7,38.3,73.8,39.4z"/>
<path class="st1" d="M61.5,25.5c-0.1,0.1-0.1,0.2-0.2,0.2C61.2,25.8,61,26,60.8,26c-1.6-0.1-3.2-0.1-4.2-1c-1.1-1.1-0.6-2.8-0.4-4.3
	c0-0.2,0.4-0.5,0.7-0.4C59.5,21.2,63.4,22.7,61.5,25.5z"/>
<path class="st1" d="M60.9,60.4c-0.1,0.1-0.1,0.1-0.2,0.1c-0.1,0.2-0.3,0.3-0.6,0.3c-1.6-0.1-3.2,0-4.1-0.9
	c-1.1-1.1-0.7-2.9-0.5-4.3c0.1-0.3,0.5-0.6,0.8-0.5C58.9,56,62.8,57.5,60.9,60.4z"/>
<path class="st1" d="M62.6,87.6c1.5,2.3,1.6,4.8,0.8,7.8c-0.5,1.9-1.4,4-2.6,6.3c-0.1,0.2-1,1.1-1.2,1.2c-6,4.6-12.7,3.4-16.7,0.3
	c-1.9-1.5-3.4-3.5-4.4-5.8c-0.9-2.2-1.4-4.7-1.3-7.4c0.1-2.3,0.2-6.2,2.8-8.1c1.3-0.9,2.8-1,4.1-1.1c1.5-0.1,2.9-0.2,4.4-0.1
	C54.3,81.1,59.7,83.1,62.6,87.6z"/>
<path class="st2" d="M63.4,95.4c-0.5,1.9-1.4,4-2.6,6.3c-0.1,0.2-1,1.1-1.2,1.2c-6,4.6-12.7,3.4-16.7,0.3c-1.9-1.5-3.4-3.5-4.4-5.8
	c1.3,1.4,3.1,2.5,4.9,3.5c1.8,1.1,3.9,1.8,6.4,1.7c2.4-0.1,5-1.4,7.5-2.8C59.5,98.6,61.6,97.2,63.4,95.4z"/>
<path class="st2" d="M42.6,78.2c0-0.2,0.3-0.3,0.5-0.2c0.9,0.5,2,1,2.4,2.2c0.3,1-0.2,2-0.6,3c0,0.1-0.1,0.2-0.3,0.2c0,0,0,0-0.1,0
	C42.3,83.3,42.5,80.2,42.6,78.2z"/>
<path class="st1" d="M52.2,79.4c0-0.2,0.3-0.3,0.4-0.2c0.9,0.5,2.1,1,2.4,2.2c0.3,1-0.1,2-0.5,3c-0.1,0.1-0.2,0.2-0.3,0.2
	c-0.1,0-0.1,0-0.2,0C51.9,84.5,52,81.4,52.2,79.4z"/>
<path class="st1" d="M57.6,80.6c0.1-0.3,0.4-0.3,0.5-0.2c0.7,0.8,1.7,1.6,1.7,2.9c0,1-0.7,1.8-1.4,2.7c-0.1,0.1-0.3,0.1-0.4,0.1
	c0,0,0,0-0.1,0C55.9,85.3,56.9,82.4,57.6,80.6z"/>
<path class="st1" d="M37.7,81.6c-0.2-0.2-0.1-0.5,0.1-0.5c1-0.3,2.2-0.7,3.3-0.1c0.9,0.5,1.3,1.5,1.7,2.5c0.1,0.2,0,0.3-0.1,0.4
	c0,0,0,0,0,0.1C41,85.4,39,83.1,37.7,81.6z"/>
<path class="st1" d="M40.6,87.9C40.6,88,40.6,88,40.6,87.9c0,0.2,0,0.4-0.2,0.4c-0.9,0.5-1.8,1-2.7,0.8c-1.2-0.3-1.9-1.3-2.6-2.1
	c-0.1-0.2,0-0.4,0.2-0.5C37.2,86.2,40.1,85.8,40.6,87.9z"/>
<path class="st2" d="M41.5,96.2C41.5,96.2,41.5,96.2,41.5,96.2c0,0.2,0,0.3-0.2,0.4c-0.9,0.5-1.8,1-2.7,0.8
	c-1.2-0.3-1.9-1.3-2.6-2.2c-0.1-0.1,0-0.4,0.2-0.4C38.1,94.5,41.1,94.1,41.5,96.2z"/>
<path class="st1" d="M54.8,99.3C54.9,99.3,54.9,99.3,54.8,99.3c0.2,0.1,0.3,0.2,0.3,0.4c-0.1,1-0.1,2-0.8,2.7c-0.8,0.9-2,1-3.1,1.2
	c-0.1,0-0.3-0.2-0.3-0.4C51.6,101.4,52.8,98.6,54.8,99.3z"/>
<path class="st2" d="M57.4,103c0.1,0,0.2,0,0.2,0c0.2,0.1,0.3,0.2,0.3,0.3c0.2,1,0.4,2-0.3,2.7c-0.9,1-2.5,1.1-3.9,1.3
	c-0.2,0-0.5-0.2-0.4-0.4C53.7,105.1,54.6,102.4,57.4,103z"/>
<path class="st2" d="M49.8,104.2c0.1,0.1,0.1,0.1,0.1,0.2c0.1,0,0.2,0.2,0.1,0.3c-0.2,1-0.5,2-1.5,2.3c-1.1,0.5-2.7-0.1-4-0.5
	c-0.2-0.1-0.3-0.4-0.2-0.6C45.5,104.5,47.5,102.5,49.8,104.2z"/>
<path class="st2" d="M43,101.7c0.1,0.1,0.1,0.1,0.1,0.2c0,0.1,0,0.2-0.1,0.3c-0.5,0.7-1.1,1.4-2,1.4c-1.1-0.1-2.1-1.2-3-1.9
	c-0.2-0.2-0.2-0.5,0-0.6C39.4,100.4,41.8,99.5,43,101.7z"/>
<path class="st2" d="M52.5,88.7c-0.1,0-0.1,0-0.2,0c-0.1,0.1-0.2,0.2-0.4,0.2c-0.9-0.4-1.8-0.6-2.1-1.5c-0.3-1.1,0.4-2.4,0.9-3.5
	c0.1-0.2,0.4-0.3,0.5-0.2C52.5,84.9,54.3,86.7,52.5,88.7z"/>
<path class="st2" d="M58.8,93.1c-0.1,0-0.1,0-0.2,0.1c-0.1,0-0.3,0.1-0.4,0c-0.8-0.5-1.7-0.9-1.8-1.8c-0.1-1.1,0.8-2.3,1.5-3.3
	c0.1-0.2,0.4-0.2,0.5-0.1C59.5,89.4,60.9,91.5,58.8,93.1z"/>
<path class="st1" d="M46.1,88C46.1,88.1,46.1,88.1,46.1,88c-0.1,0.3-0.2,0.4-0.3,0.4c-0.9,0.3-1.8,0.6-2.6,0c-0.8-0.7-1-2.2-1.2-3.4
	c0-0.2,0.2-0.5,0.4-0.4C44,84.8,46.6,85.4,46.1,88z"/>
<path class="st1" d="M50.6,94.8c0.1,0.1,0.1,0.1,0.1,0.2c0.1,0.1,0.1,0.2,0,0.4c-0.5,0.8-1,1.6-1.9,1.7c-1.1,0.1-2.2-0.9-3.2-1.6
	c-0.1-0.2-0.2-0.5,0-0.6C47,93.9,49.2,92.6,50.6,94.8z"/>
<path class="st2" d="M73,179.9h-8.9c2.6-29.8,1.8-109.3,1.8-109.3C66.5,78,73,179.9,73,179.9z"/>
<path class="st2" d="M67.1,89.7c0,0,7.2-9.7,9-13.6c0,0-7.3,14.5-8.6,19.5L67.1,89.7z"/>
<path class="st2" d="M66.7,112.9c-3.2-5-10.3-15.7-10.3-15.7c5.5,5,10.7,9.9,10.7,9.9L66.7,112.9z"/>
<path class="st2" d="M66.5,89.1c-0.8-3-5-11.5-5-11.5c1.1,2.3,5.3,8,5.3,8L66.5,89.1z"/>
<path class="st4" d="M34.4,159.7c0.1-0.1,0.2-0.3,0.3-0.4c0.9-0.3,2.3-0.2,3.1,0.1c1.1,0.4,1.7,1.3,2.2,2.3c0.6,0.3,1.2,0.6,1.7,0.9
	c-0.2-0.6-0.3-1.2-0.3-1.9c0-0.7,0.1-2.6,1.2-2.3c0.9,0.2,1.5,2,1.7,2.7c0.3,1.1,0.3,2.2-0.3,3.1c1,0.8,1.9,1.7,2.8,2.7
	c-0.1-0.6-0.1-1.2,0-1.8c0-0.6,0.4-2.5,1.5-2.1c0.8,0.3,1.2,2.2,1.3,2.9c0.2,1.2-0.1,2.3-0.8,3.3c0.1,0.1,0.1,0.2,0,0.3
	c0.6,0.9,1.2,1.8,1.7,2.7c0,0.1,0,0.1,0.1,0.2c0-0.6,0.1-1.2,0.4-1.9c0.2-0.6,0.9-2.3,1.9-1.7c0.7,0.5,0.7,2.4,0.6,3.1
	c0,1.2-0.5,2.3-1.5,3c0,0.1,0,0.2,0,0.3c0.4,0.7,0.8,1.5,1.1,2.2c0.1-0.5,0.3-0.9,0.5-1.4c0.2-0.4,0.7-1.2,1.3-1.5
	c0.1-1,1.7-0.9,2.6-0.7c0.9,0.3,1.6,0.6,2.3,1.1c-0.3-1.5-0.7-2.9-1-4.3c-1.9,0-5.7-1.2-5.8-2.7c0-1.1,1.7-1.1,2.7-0.8
	c0.9,0.2,1.8,0.7,2.6,1.3c-0.3-1.2-0.7-2.4-1-3.5c-2,0.1-5.4-0.5-5.6-1.8c-0.3-1.1,1.5-1.4,2.4-1.3c0.9,0.1,1.7,0.4,2.5,0.8
	c-0.5-1.3-1-2.5-1.5-3.7c-1.9,0.6-5.3,0.8-5.9-0.5c-0.4-1,1.2-1.6,2.2-1.7c0.9-0.1,1.7-0.1,2.6,0.1c-0.7-1.2-1.5-2.3-2.4-3.4
	c-1.7,0.9-5.6,1.7-6.3,0.5c-0.6-1,0.9-1.8,1.9-2.1c0.9-0.2,1.8-0.2,2.7-0.1c-0.7-0.6-1.4-1.2-2.2-1.7c-0.1,0-0.1,0-0.1,0
	c-1.1,0.1-2.6,0-3.5-0.8c-0.7-0.5-1-1.8-0.8-2.7c0-0.1,0.2-0.3,0.4-0.3c0.9-0.2,2.2,0.1,3,0.5c1.1,0.6,1.5,1.6,1.8,2.6
	c0,0.1,0,0.1,0,0.1c0.5,0.3,1,0.7,1.5,1.1c-0.1-0.7-0.1-1.3,0-1.9c0.2-0.7,0.5-2.6,1.6-2.1c0.8,0.3,1.1,2.2,1.2,2.9
	c0.2,1.2,0,2.2-0.7,3.1c0.9,0.9,1.6,1.9,2.3,3c0-0.6,0.1-1.2,0.2-1.7c0.2-0.7,0.8-2.5,1.8-1.9c0.8,0.4,0.9,2.3,0.9,3.1
	c0,1.2-0.4,2.3-1.3,3.1c0.1,0.1,0.1,0.3,0,0.4c0.5,0.9,0.9,1.9,1.2,2.9c0,0.1,0,0.1,0.1,0.2c0.1-0.7,0.4-1.3,0.7-1.9
	c0.3-0.5,1.3-2.1,2.2-1.4c0.6,0.6,0.3,2.5,0.1,3.2c-0.3,1.2-0.9,2.2-2,2.7c0,0.1,0,0.3,0,0.4c0.2,0.7,0.4,1.5,0.6,2.3
	c0.3-0.5,0.6-0.9,0.9-1.3c0.4-0.5,1.6-2,2.3-1.1c0.6,0.7,0,2.5-0.3,3.2c-0.4,1-1.1,1.8-2.1,2.3c0.3,1.3,0.7,2.7,1,4
	c0.2-0.6,0.5-1.2,0.9-1.7c0.1-0.1,0.1-0.1,0.2-0.2c0-0.3,0-0.6,0.2-0.8c0.3-0.4,0.6-0.4,1-0.2c0.4-0.2,0.7-0.2,1,0.2
	c0.1,0.2,0.2,0.5,0.2,0.8c0.1,0.1,0.1,0.1,0.2,0.2c0.4,0.5,0.7,1.1,0.9,1.7c0.3-1.3,0.7-2.7,1-4c-1-0.5-1.7-1.3-2.1-2.3
	c-0.3-0.7-0.9-2.5-0.3-3.2c0.7-0.9,1.9,0.6,2.3,1.1c0.3,0.4,0.6,0.8,0.8,1.3c0.3-0.8,0.5-1.6,0.7-2.3c0-0.1,0-0.3,0-0.4
	c-1.1-0.5-1.7-1.5-2-2.7c-0.2-0.7-0.5-2.6,0.1-3.2c0.9-0.7,1.9,0.9,2.2,1.4c0.3,0.6,0.6,1.2,0.7,1.9c0-0.1,0-0.1,0.1-0.2
	c0.3-1,0.7-2,1.2-2.9c-0.1-0.1-0.1-0.3,0-0.4c-0.9-0.8-1.3-1.9-1.3-3.1c0-0.8,0.1-2.7,0.8-3.1c1.1-0.6,1.7,1.2,1.9,1.9
	c0.1,0.5,0.2,1.1,0.2,1.7c0.7-1.1,1.4-2.1,2.3-3c-0.7-0.9-0.9-1.9-0.8-3.1c0.1-0.7,0.5-2.6,1.3-2.9c1.1-0.5,1.4,1.4,1.6,2.1
	c0.1,0.6,0.1,1.2,0,1.9c0.5-0.4,1-0.8,1.5-1.1c0,0,0,0,0-0.1c0.3-1,0.7-2,1.8-2.6c0.8-0.4,2.1-0.7,3-0.5c0.2,0,0.3,0.2,0.4,0.3
	c0.2,0.9-0.1,2.2-0.8,2.7c-0.9,0.8-2.4,0.9-3.5,0.8c0,0,0,0-0.1,0c-0.8,0.5-1.5,1.1-2.2,1.7c0.9-0.1,1.8-0.1,2.7,0.1
	c1,0.3,2.5,1.1,1.9,2.1c-0.7,1.2-4.6,0.4-6.3-0.5c-0.9,1.1-1.7,2.2-2.4,3.4c0.9-0.2,1.7-0.2,2.6-0.1c1,0.1,2.6,0.7,2.1,1.7
	c-0.5,1.3-3.9,1.1-5.8,0.5c-0.6,1.2-1.1,2.4-1.5,3.7c0.8-0.4,1.6-0.7,2.5-0.8c0.9-0.1,2.7,0.2,2.4,1.3c-0.2,1.3-3.6,1.9-5.6,1.8
	c-0.3,1.1-0.7,2.3-1,3.5c0.8-0.6,1.7-1.1,2.6-1.3c1-0.3,2.7-0.3,2.7,0.8c-0.1,1.5-3.9,2.7-5.8,2.7c-0.3,1.4-0.7,2.8-1,4.3
	c0.7-0.5,1.4-0.8,2.3-1.1c0.8-0.2,2.3-0.2,2.6,0.6c0.7-0.1,1.5,1.1,1.8,1.6c0.3,0.5,0.5,0.9,0.6,1.4c0.3-0.7,0.7-1.5,1-2.2
	c0-0.1,0-0.2,0-0.3c-0.9-0.7-1.4-1.8-1.5-3c-0.1-0.7-0.1-2.6,0.6-3.1c1-0.6,1.7,1.1,2,1.7c0.2,0.7,0.3,1.3,0.4,1.9
	c0-0.1,0-0.1,0.1-0.2c0.5-0.9,1-1.8,1.6-2.7c0-0.1,0-0.2,0.1-0.3c-0.8-1-1.1-2.1-0.9-3.3c0.2-0.7,0.6-2.6,1.4-2.9
	c1.1-0.4,1.4,1.5,1.5,2.1c0.1,0.6,0.1,1.2,0,1.8c0.8-1,1.7-1.9,2.7-2.7c-0.5-0.9-0.6-2-0.3-3.1c0.2-0.7,0.9-2.5,1.7-2.7
	c1.1-0.3,1.2,1.6,1.2,2.3c0,0.7-0.1,1.3-0.3,1.9c0.6-0.3,1.2-0.6,1.7-0.9c0.5-1,1.1-1.9,2.2-2.3c0.9-0.3,2.2-0.4,3.1-0.1
	c0.2,0.1,0.3,0.3,0.3,0.4c0.1,0.9-0.4,2.1-1.2,2.6c-1,0.6-2.5,0.4-3.6,0.2c0,0,0,0-0.1,0c-0.9,0.4-1.7,0.8-2.5,1.3
	c1,0,1.9,0.2,2.8,0.6c0.8,0.3,2.2,1.4,1.5,2.3c-0.9,1.1-4.7-0.3-6.2-1.5c-1.1,0.9-2,2-2.9,3.1c0.9-0.1,1.7-0.1,2.6,0.2
	c1,0.2,2.5,1.1,1.9,2.1c-0.8,1.1-4.1,0.4-5.9-0.5c-0.7,1.1-1.4,2.3-2,3.4c0.8-0.3,1.6-0.4,2.5-0.3c1,0,2.7,0.5,2.3,1.6
	c-0.5,1.3-3.9,1.3-5.9,0.9c-0.5,1.1-1,2.2-1.5,3.3c0.9-0.5,1.8-0.8,2.8-0.9c1-0.1,2.7,0.1,2.5,1.3c-0.3,1.4-4.3,2-6.2,1.7
	c-0.2,0.3-0.9,0-0.9-0.5c0.1-0.1,0.1-0.2,0.1-0.3c-0.9-0.5-1.4-1.4-1.6-2.5c-0.1-0.4-0.3-1.3-0.3-2c-1.1,0.8-3.2,1.4-4.6,1.5
	c-0.1,0.6-0.3,1.2-0.4,1.8c0.7-0.5,1.5-0.9,2.4-1.1c0.9-0.3,2.6-0.3,2.6,0.9c0,1.4-3.6,2.5-5.5,2.6c-0.3,0.2-0.7,0.1-0.8-0.2
	c-0.3-0.2-0.6-0.5-1-0.8c-0.4,0.3-0.7,0.6-1,0.8c-0.1,0.3-0.5,0.4-0.8,0.2c-1.9-0.1-5.5-1.2-5.5-2.6c0-0.1,0-0.2,0-0.3
	c-0.3,0.7-0.7,1.3-1.4,1.7c0,0.1,0,0.2,0.1,0.3c0.1,0.5-0.6,0.8-0.9,0.5c-1.9,0.3-5.9-0.3-6.2-1.7c-0.2-1.2,1.6-1.4,2.5-1.3
	c1,0.1,1.9,0.4,2.8,0.9c-0.5-1.1-0.9-2.2-1.5-3.3c-2,0.4-5.4,0.4-5.9-0.9c-0.3-1.1,1.3-1.6,2.3-1.6c0.9-0.1,1.7,0,2.5,0.3
	c-0.6-1.1-1.3-2.3-2-3.4c-1.8,0.9-5.1,1.6-5.9,0.5c-0.6-1,1-1.9,1.9-2.1c0.9-0.3,1.7-0.3,2.6-0.2c-0.9-1.1-1.8-2.2-2.9-3.1
	c-1.5,1.2-5.2,2.6-6.2,1.5c-0.7-0.9,0.7-2,1.6-2.3c0.8-0.4,1.8-0.6,2.7-0.6c-0.8-0.5-1.6-0.9-2.5-1.3c0,0,0,0-0.1,0
	c-1.1,0.2-2.6,0.4-3.6-0.2C34.9,161.8,34.4,160.6,34.4,159.7z M63.1,175.7C63.1,175.7,63.1,175.7,63.1,175.7c-0.2,0-0.2,0-0.2,0
	c0,0.1,0,0.1,0.1,0.2C63.1,175.8,63.1,175.8,63.1,175.7z M58.3,178c0.9,0.2,1.7,0.6,2.4,1.1c-0.1-0.6-0.3-1.2-0.4-1.8
	c-1.2-0.1-2.9-0.5-4.1-1.2c0,0.7-0.1,1.3-0.2,1.7c-0.1,0.2-0.1,0.4-0.2,0.6C56.2,177.7,57.5,177.8,58.3,178z"/>
<path class="st5" d="M151.3,136.1H47V1.6h104.3V136.1z"/>
<path class="st6" d="M83.2,133.7H72.3L118.7,3.1h10.9L83.2,133.7z"/>
<path class="st6" d="M63.9,133.7h-5.4L104.9,3.1h5.4L63.9,133.7z"/>
<path class="st6" d="M117,133.7h-5.5L150,17.2l1.2,7.6L117,133.7z"/>
<path class="st7" d="M48.4,137.8h-3V0h3V137.8z"/>
<path class="st7" d="M83.2,137.1h-3.1V0.7h3.1V137.1z"/>
<path class="st7" d="M152.7,0v3.1H45.4V0H152.7z"/>
<path class="st7" d="M152.7,134.6v3H45.4v-3H152.7z"/>
<path class="st7" d="M118,137.1h-3.1V0.7h3.1V137.1z"/>
<path class="st7" d="M152.7,137.8h-3V0h3V137.8z"/>
<path class="st7" d="M152.7,67.4v3.1H45.4v-3.1H152.7z"/>
<path class="st2" d="M48.5,71.6v-1.1h101.1v1.1H48.5z"/>
<path class="st2" d="M48.5,134.7v-1h101.1v1H48.5z"/>
<path class="st2" d="M48.4,4.2V3.1h101.3v1.1H48.4z"/>
<path d="M229.8,181.5h0.9l1.2,26.9l-0.8,0.1L229.8,181.5z"/>
<path class="st8" d="M211,179.9c0-1.8,12.1-2,15.8-2s15.7,0.2,15.7,2c0,1.9-12,2-15.7,2S211,181.8,211,179.9z M226.8,178.8
	c-8.2,0-13.4,0.6-14.7,1.1c1.3,0.5,6.5,1.1,14.7,1.1c8.1,0,13.4-0.6,14.6-1.1C240.2,179.4,234.9,178.8,226.8,178.8z"/>
<path class="st9" d="M241.6,165.9c0.8,1.8,1.2,3.8,1.2,6c0,8.8-7.2,16-16,16c-8.9,0-16.1-7.2-16.1-16c0-2.2,0.4-4.2,1.2-6H241.6z"/>
<path d="M226.8,163.5c8.2,0,14.8,1.1,14.8,2.4c0,1.3-6.6,2.3-14.8,2.3c-8.3,0-14.9-1-14.9-2.3C211.9,164.6,218.5,163.5,226.8,163.5z
	"/>
<path class="st10" d="M226.8,164.1c7.4,0,13.4,0.8,13.4,1.8c0,0.9-6,1.7-13.4,1.7c-7.5,0-13.5-0.8-13.5-1.7
	C213.3,164.9,219.3,164.1,226.8,164.1z"/>
<path class="st11" d="M213.3,171.3c0.1-1.2,1.9-1.2,1.9,0c-0.1,2.8,0.3,5.7,2.3,7.8c0.9,0.9-0.4,2.2-1.3,1.4
	C213.8,178,213.2,174.6,213.3,171.3z"/>
<path d="M211,179.9h0.9c-0.1-0.1-0.1-0.1-0.1-0.1c0.5,0.5,6,1.2,15,1.2c8.9,0,14.4-0.7,14.9-1.2c0,0,0,0,0,0.1h0.8
	c0,1.9-12,2-15.7,2S211,181.8,211,179.9z"/>
<path d="M241.4,180.2h0.9l3.3,28.2h-0.8L241.4,180.2z"/>
<path d="M208.6,208.4l2.8-28.1h0.9l-2.8,28.1H208.6z"/>
<path d="M223.6,208.4l0.5-26.9h0.9l-0.5,27L223.6,208.4z"/>
<path class="st7" d="M226.7,167.4c-0.3,0-0.5,0-0.8,0c-0.6,0-1.2,0-1.8-0.1c-0.3,0-0.6,0-0.9,0c-0.4,0-0.8,0-1.1,0
	c-0.3-0.1-0.5-0.1-0.8-0.1h-0.1c-6-0.3-7.6-1.1-7.6-1.3c0-0.2,1.5-1,7.2-1.3c0.1,0,0.3,0,0.4-0.1c0.1,0,0.3,0,0.4,0
	c0.5,0,0.9,0,1.3,0l0.8-0.1c0.9,0,1.8,0,2.7,0h0.9c1.5,0,3,0,4.3,0.1l0.9,0.1c5.9,0.3,7.4,1.1,7.4,1.3c0,0.3-2.3,1.1-8.7,1.4h-0.9
	c-1.1,0.1-2.3,0.1-3.5,0.1H226.7z"/>
<path class="st8" d="M231.6,164.3c0.3,0,0.6,0,0.9,0c4.5,0.3,7.7,0.9,7.7,1.6c0,0.7-3.8,1.4-9,1.6c-0.3,0-0.6,0-0.9,0.1
	c-1.1,0-2.3,0-3.5,0h-0.1c-0.3,0-0.5,0-0.8,0c-0.6,0-1.2,0-1.9,0c-0.3,0-0.5,0-0.8,0c-0.4-0.1-0.8-0.1-1.2-0.1c-0.3,0-0.5,0-0.8,0
	c-4.6-0.3-7.9-0.9-7.9-1.6c0-0.7,3.1-1.3,7.5-1.6c0.3,0,0.5,0,0.8,0c0.4-0.1,0.8-0.1,1.3-0.1c0.3,0,0.5,0,0.8,0
	c0.9-0.1,1.8-0.1,2.7-0.1h0.9C228.8,164.1,230.3,164.2,231.6,164.3z M226.4,164.6c-0.8,0-1.7,0-2.6,0.1c-0.1,0-0.3,0-0.4,0
	c-0.2,0-0.4,0-0.5,0c-0.4,0-0.8,0-1.3,0.1c-0.1,0-0.3,0-0.4,0c-0.1,0-0.3,0-0.4,0c-4.4,0.3-6.2,0.8-6.8,1.1c0.6,0.3,2.5,0.8,7.2,1.1
	c0.3,0,0.6,0,0.9,0c0.4,0,0.8,0,1.1,0.1c0.3,0,0.6,0,0.9,0c0.6,0,1.2,0,1.8,0c0.3,0,0.5,0,0.8,0c1.2,0,2.4,0,3.6,0
	c0.1-0.1,0.3-0.1,0.5-0.1c0.1,0,0.3,0,0.4,0c5-0.2,7.6-0.7,8.3-1.1c-0.6-0.3-2.5-0.8-7-1.1h-0.1h-0.8c-1.3-0.1-2.8-0.2-4.3-0.2
	H226.4z"/>
<path class="st8" d="M217.6,150.7c1.4,2.9-1.4,5.7-4.1,6.5c-1.7,0.5-3.5,0.7-5.3,0.4c0.8-0.9,1.5-1.9,2.2-3c0.7-1.1,1.6-2.1,2.3-3.1
	c0.5-0.7,1.1-1.6,0.9-2.6c-0.2-0.5-0.6-1.3-1.2-1.3c-1.4-0.1-2.1,2.6-2.4,3.6c-0.9,2.4-2.3,4.3-4.2,5.9c-1-0.3-1.9-0.8-2.7-1.4
	c-2.6-1.7-4.4-4.4-4.9-7.5c-0.1-0.6-0.2-1.4-0.3-2.3c1.5,0.7,3,1.3,4.6,1.5c0.9,0.1,2.4,0.2,3-0.4c0.8-0.7-0.3-1.5-1-1.6
	c-0.8-0.2-1.7,0-2.5,0.1c-1.3,0.1-2.7-0.1-3.9-0.6c-0.1,0-0.1,0-0.2,0c-0.1-3.1,0.3-7.3,2.1-11c1.5,1.7,3.4,3.1,5.2,4.6
	c0.8,0.6,1.8,1.5,2.8,1.7c0.4,0,1.3,0,1.5-0.5c0.3-1-2.2-2.1-2.8-2.4c-2.1-1.1-5.6-2-5.9-4.8c0,0,0,0-0.1-0.1c1-1.6,2.3-3.1,4-4.2
	c1-0.7,2-1.2,3-1.5c0.1,1,0.2,3.5,1.2,3.5c0.9-0.1,1.2-1.5,1.1-2.2c-0.1-0.6-0.5-1.2-1-1.7c1.8-0.4,3.5-0.3,5.2,0.1
	c0.7,0.9,1.3,2,1.7,3.1c0.4,1.3,0.4,2.5,0.4,3.9c0.1,0.5,0,1.7,0.6,2.1c0.3,0.2,0.8,0,1.1-0.3c0.8-1.1-0.1-3.5-0.5-4.7
	c-0.3-1.1-0.7-2.3-1.2-3.4c2.6,1.1,5,3,7,5.3c-0.2,0.7-0.4,1.4-0.7,2.1c-0.4,1-0.9,1.8-1.4,2.7c-0.1,0.1-0.1,0.1-0.1,0.2
	c0,0,0,0-0.1,0.1c0,0.1,0,0.1,0,0.1c-0.1,0.7,0.1,1.5,0.9,1.2c0.8-0.3,1.5-1.7,1.9-2.4c0.4-0.5,0.8-1.3,1.1-2.1
	c2.2,3.1,3.8,6.3,4.2,8.6c0.4,2,0.2,4.3-1,5.9c-0.8-0.3-1.6-0.9-2.1-1.5c-0.4-0.5-0.7-1.2-1.2-1.7c-0.6-0.5-1.5-0.3-1.5,0.6
	c0,1,1,2.1,1.7,2.8c0.4,0.4,1,0.9,1.6,1.3C224,151.8,220.4,151.4,217.6,150.7z M203.6,141.4c-0.1-0.5-0.6-1.1-1.2-1.2
	c-0.5-0.1-0.7,0.4-0.7,0.8c0,0.1,0,0.3,0.1,0.5c-0.1,0.1-0.1,0.1,0,0.2c0,0.3,0.2,0.7,0.5,0.9c0.1,0,0.1,0,0.1,0.1
	c0.1,0.1,0.3,0.1,0.3,0c0.1,0,0.1,0,0.2-0.1C203.4,142.5,203.6,141.9,203.6,141.4z M220.4,142c-0.3-0.3-0.9-0.3-1.3-0.1
	c0,0,0,0-0.1,0s-0.1,0-0.1,0.1c-0.1,0.5,0,1.1,0.4,1.4c0.3,0.3,0.8,0.3,1.1-0.1C220.7,142.9,220.9,142.3,220.4,142z"/>
<path class="st12" d="M240.6,145c-1.7,0-4-0.3-5.6-1.9c-1.2-1.2-1.8-2.9-1.7-5v-0.2h-0.4l-0.1,0.1c-1.7,0.8-2.9,1-3.6,1
	c-0.9,0-1.7-0.3-2.2-0.8c-0.7-0.8-1.1-2.1-1.2-3.9c0.3,0.1,0.5,0.2,0.7,0.3l0.2,0.1c0.6,0.2,1.6,0.7,2.4,0.7c0.4,0,0.7-0.1,1-0.3
	c0.4-0.3,0.6-0.6,0.5-1.1c0-0.8-0.8-1.8-1.4-2.2c-0.3-0.2-0.7-0.4-1-0.6c-0.7-0.4-1.4-0.8-1.9-1.4c-0.8-0.7-1.5-1.6-2.3-2.8
	c-0.2-1.5-0.1-2.9,0.2-4.2c0.9-3.1,3.4-5.1,5.7-6.5c-0.2,0.7-0.3,1.5-0.4,2.3l-0.1,0.8c-0.1,1.4-0.2,2.9,0.1,4.3
	c0.2,0.9,1.3,4.1,3.1,4.1c0.1,0,0.1,0,0.2,0c0.5-0.1,0.7-0.4,0.8-0.6c0.4-0.9-0.7-2.4-1.3-3.3c-0.1-0.1-0.1-0.2-0.2-0.3
	c-1.6-2.6-1.9-5.5-0.6-8.2c3.1-1.6,6.5-2.8,10.9-3.7c-1.2,1.6-2,3.3-2.5,4.9c-0.3,0.8-1,3.5-0.2,5c0.2,0.4,0.5,0.7,1,0.8
	c0.1,0.1,0.3,0.1,0.4,0.1c0.3,0,0.5-0.1,0.8-0.4c0.7-0.7,0.6-2.6,0.6-3.7c0-0.3,0-0.5,0-0.6c0.2-2.5,1.3-4.7,3.4-6.8
	c1.8-0.3,3.7-0.5,5.3-0.7c0.4,1.7,0.8,3.5,1.1,5.2c-0.1,0.3-0.2,0.6-0.3,0.9c-0.1,0.2-0.2,0.4-0.4,0.7c-0.2,0.3-0.4,0.6-0.5,0.9
	c-0.1,0.3,0,0.7,0.2,0.9c0.1,0.2,0.3,0.3,0.5,0.3h0.1c0.5-0.1,0.8-0.5,1-0.9c0.5,2.2,0.8,4.2,1,6l0.1,0.7c-0.9,1.1-2.3,2-3.7,2.4
	c-0.5,0.2-0.9,0.3-1.4,0.3c-1,0.2-2,0.4-2.9,1.1c-0.1,0.1-0.1,0.2-0.2,0.3c0,0.1,0.1,0.3,0.2,0.4c0.4,0.5,1,0.7,1.7,0.7
	c1.1,0,2.3-0.6,3-0.9c1.3-0.6,2.4-1.4,3.5-2.5c0.3,2.7,0.4,5.7-0.4,8.5c-1.4-0.2-2.8-0.6-4.2-1.1h-0.1h-0.1c-0.2,0-0.4,0.1-0.4,0.4
	c-0.1,0.2,0,0.4,0.3,0.5c1.3,0.5,2.7,0.9,4.2,1.1c-0.1,0.3-0.3,0.7-0.4,1.1c-0.3,0-0.6,0-0.9,0c-1.5,0-2.9-0.4-4.3-1.1
	c-1.5-0.7-2.9-1.1-4.3-1.1c-0.1,0-0.3,0-0.5,0s-0.3,0.1-0.4,0.2c-0.1,0.1-0.1,0.3,0,0.5c0.7,1.5,2.9,1.9,4.3,2.2
	c1.7,0.2,3.4,0.4,5.4,0.5c-0.9,1.6-2.3,3.1-3.9,4.2c-0.2,0.1-0.4,0.3-0.6,0.4c-0.1,0-0.2,0-0.3,0c-2.2,0-4.5-1.1-6-1.9h-0.1
	c-0.4-0.3-1.1-0.7-1.7-0.7c-0.5,0-0.8,0.3-0.8,0.8c-0.3,1.5,1.1,2.3,2.5,2.6c0.6,0.1,1.2,0.1,1.7,0.2c0.5,0.1,0.9,0.1,1.3,0.2
	c0.2,0,0.4,0,0.6,0.1C243.6,144.8,242.1,145,240.6,145z M235.4,139c-0.1,0.1-0.1,0.2-0.1,0.3c0,0.1,0.1,0.3,0.2,0.4
	c0.2,0.1,0.4,0.2,0.6,0.2c0.3,0,0.5-0.1,0.8-0.3c0.3-0.3,0.6-0.8,0.3-1.3c-0.2-0.2-0.5-0.4-0.8-0.4c-0.2,0-0.4,0.1-0.6,0.3
	C235.6,138.4,235.5,138.7,235.4,139z M242.1,129.3c-0.2,0-0.4,0.2-0.5,0.4c-0.1,0.7,0.2,1.3,0.8,1.5c0.1,0.1,0.3,0.1,0.5,0.1
	c0.4,0,0.7-0.1,0.9-0.4c0.4-0.4,0.2-1.2-0.3-1.6c-0.2-0.2-0.4-0.3-0.6-0.3C242.6,129,242.3,129.1,242.1,129.3z M235.6,123
	c0.1,0.8,0.4,1.2,0.9,1.2c0.1,0,0.3,0,0.4-0.1c0.7-0.3,0.9-1.4,1-1.7c0.1-0.9-0.2-1.6-0.8-2c-0.2-0.1-0.4-0.2-0.7-0.2
	c-0.7,0-1.1,0.4-1.2,1C235.1,121.7,235.3,122.4,235.6,123L235.6,123z M246.5,117.8c-0.1,0.1-0.1,0.2-0.2,0.3
	c-0.1,0.8,0.2,1.3,0.7,1.5c0.1,0.1,0.3,0.1,0.4,0.1c0.4,0,0.8-0.2,1.1-0.4c0.5-0.4,0.6-0.9,0.4-1.4s-0.7-0.9-1.3-0.9
	c-0.1,0-0.1,0-0.2,0C246.9,117.1,246.6,117.4,246.5,117.8z"/>
<path class="st8" d="M251.4,110.2c0.4,1.7,0.8,3.5,1.2,5.3c-0.1,0.3-0.2,0.7-0.3,1c-0.3,0.6-0.8,1-1,1.6c-0.1,0.3,0.1,0.9,0.5,0.9
	c0,0,0,0,0.1-0.1c0.5,0,0.9-0.9,1.1-1.3c0,0,0,0,0-0.1c0.5,2.3,0.9,4.5,1.2,6.8c0,0.3,0,0.5,0,0.8c-0.9,1.2-2.4,2.1-3.8,2.6
	c-1.4,0.4-3,0.3-4.2,1.3c-0.1,0.1-0.1,0.2,0,0.3c0.4,0.5,0.9,0.7,1.5,0.7c1,0,2.1-0.6,2.9-0.9c1.5-0.7,2.7-1.7,3.8-2.8
	c0.3,3.1,0.4,6.3-0.4,9.2c-1.5-0.1-3-0.5-4.5-1.1c-0.1,0-0.1,0-0.1,0c-0.2,0-0.3,0.4-0.1,0.5c1.5,0.5,3,0.9,4.6,1.1
	c-0.1,0-0.1,0-0.1,0.1c-0.1,0.5-0.3,0.9-0.6,1.4c-0.3,0.1-0.7,0.1-1,0.1c-1.5-0.1-3-0.5-4.4-1.2c-1.3-0.7-2.7-1.1-4.2-1.1
	c-0.1,0-0.3,0-0.5,0c-0.2,0-0.3,0.2-0.2,0.4c0.7,1.4,2.8,1.8,4.2,2c1.9,0.3,3.8,0.5,5.8,0.5c-1,1.9-2.5,3.5-4.2,4.7
	c-0.3,0.2-0.5,0.4-0.7,0.5c-0.1,0-0.3,0-0.4,0c-2.1,0-4.3-1-6.1-2c-0.4-0.2-1.1-0.6-1.7-0.6c-0.3,0-0.5,0.1-0.6,0.6
	c-0.2,1.3,1.3,2,2.3,2.2c1,0.2,2.1,0.3,3,0.4c0.5,0.1,1.1,0.2,1.6,0.3c-1.7,0.6-3.6,1-5.5,1c-3.9,0-7.6-1.8-7.6-7.2
	c0,0-2,1.2-3.8,1.2c-1.9,0-3.7-1.1-3.6-5.4c0.3,0.1,0.7,0.3,1,0.5c0.6,0.2,1.6,0.7,2.5,0.7c0.3,0,0.6-0.1,0.9-0.2
	c1.1-0.8-0.2-2.4-0.9-2.9c-1.1-0.7-2.1-1.1-3-2c-0.9-0.9-1.7-1.9-2.4-2.9c-0.1-1.4-0.1-2.9,0.3-4.3c0.8-3.2,3.4-5.3,6.2-7
	c0,0,0,0,0.1,0c-0.3,0.9-0.5,1.8-0.6,2.8c-0.1,1.7-0.3,3.4,0.1,5.1c0.2,1.1,1.3,3.9,2.8,3.9c0.1,0,0.1,0,0.1-0.1
	c1.9-0.3-0.4-3.1-0.8-3.7c-1.7-2.8-1.9-5.8-0.6-8.6c3.7-2,7.6-3.1,11.7-3.9c-1.2,1.6-2.3,3.4-2.9,5.4c-0.4,1.2-1.3,4.9,0.7,5.5
	c0.1,0,0.2,0,0.3,0c1.5,0,1.1-3.7,1.2-4.5c0.2-2.8,1.6-5,3.5-6.9c1.8-0.3,3.6-0.5,5.3-0.8c0.1,0,0.1,0,0.1,0
	C251.3,110,251.4,110.1,251.4,110.2z M246,111.3c-2,2-3.1,4.1-3.2,6.5c-0.1,0.1,0,0.3,0,0.6c0,1.6,0,3.2-0.8,3.9
	c-0.3,0.3-0.6,0.4-0.9,0.4c-0.1,0-0.3,0-0.4,0c-0.5-0.2-1-0.5-1.3-1c-0.8-1.5-0.1-4.1,0.2-5.2c0.5-1.5,1.2-3,2.2-4.5
	c-4,0.9-7.2,2-10.1,3.5c-1.2,2.7-1,5.4,0.7,8c0,0.1,0,0.2,0.1,0.3c0.9,1.2,1.7,2.6,1.3,3.5c-0.1,0.3-0.3,0.6-1,0.7
	c-0.1,0.1-0.1,0.1-0.2,0.1c-1.9,0-3.1-3.4-3.3-4.3c-0.4-1.5-0.2-3-0.1-4.4c0-0.3,0-0.5,0-0.8c0.1-0.6,0.2-1.2,0.3-1.8
	c-2.1,1.4-4.3,3.3-5,6.1c-0.3,1.2-0.4,2.5-0.3,4c0.8,1.2,1.5,2,2.2,2.8c0.6,0.5,1.2,0.9,1.9,1.3c0.3,0.2,0.7,0.4,1,0.6
	c0.7,0.4,1.6,1.5,1.6,2.4c0,0.5-0.2,1-0.6,1.3c-0.3,0.2-0.7,0.3-1.2,0.3c-0.9,0-1.9-0.4-2.5-0.7l-0.2-0.1c-0.1,0-0.2,0-0.3-0.1
	c0.1,1.5,0.4,2.6,1.1,3.3c0.5,0.5,1.1,0.8,2,0.8c0.7,0,1.8-0.2,3.5-1.1c0.1,0,0.2-0.1,0.3-0.1h0.5v0.5c0,2.1,0.6,3.7,1.7,4.8
	c1.5,1.6,3.8,1.9,5.4,1.9c1.1,0,2.2-0.1,3.2-0.4c-0.2,0-0.4,0-0.6,0c-0.6-0.1-1.2-0.2-1.7-0.3c-1.5-0.3-3.1-1.2-2.8-2.8
	c0.1-0.7,0.5-1,1.1-1c0.7,0,1.4,0.4,1.8,0.6l0.1,0.1c1.5,0.8,3.7,1.9,5.9,1.9c0.1,0,0.1,0,0.2,0c0.2-0.1,0.4-0.3,0.6-0.4
	c1.4-1,2.7-2.3,3.6-3.8c-1.9-0.1-3.5-0.2-5-0.5s-3.8-0.7-4.6-2.3c-0.1-0.3-0.1-0.5,0.1-0.7c0.1-0.2,0.3-0.4,0.6-0.4
	c0.1,0,0.3,0,0.5,0c1.5,0,2.9,0.4,4.4,1.2c1.4,0.7,2.8,1.1,4.2,1.1c0.2,0,0.4,0,0.7-0.1c0.1-0.2,0.2-0.4,0.3-0.6
	c-1.4-0.2-2.7-0.6-4-1.1c-0.4-0.1-0.6-0.4-0.5-0.8c0.1-0.3,0.3-0.6,0.7-0.6c0.1,0,0.1,0,0.2,0.1c1.3,0.5,2.7,0.8,4,1
	c0.7-2.5,0.6-5.2,0.4-7.6c-1,0.9-2.1,1.6-3.2,2.1c-0.8,0.4-2,1-3.1,1c-0.8,0-1.4-0.3-1.9-0.9c-0.1-0.1-0.2-0.3-0.2-0.5
	c0-0.2,0.1-0.4,0.2-0.5c0.9-0.7,2-0.9,3-1.1c0.5-0.1,1-0.2,1.4-0.3c1.4-0.4,2.7-1.3,3.5-2.3v-0.5c-0.3-1.7-0.5-3.5-0.9-5.5
	c-0.2,0.3-0.5,0.5-0.8,0.5c-0.1,0.1-0.1,0.1-0.2,0.1c-0.3,0-0.6-0.1-0.7-0.4c-0.3-0.3-0.4-0.7-0.3-1.1c0.2-0.4,0.4-0.8,0.6-1.1
	c0.2-0.2,0.3-0.4,0.4-0.6c0.1-0.3,0.2-0.5,0.3-0.8c-0.4-1.7-0.8-3.4-1.1-5C249.2,110.8,247.6,111,246,111.3z M235,121.2
	c0.1-0.8,0.6-1.3,1.4-1.3c0.3,0,0.6,0.1,0.9,0.3c0.7,0.4,1,1.2,0.8,2.2c-0.1,0.5-0.3,1.6-1.1,2c-0.2,0.1-0.4,0.1-0.5,0.1
	c-0.6,0-1.1-0.5-1.2-1.4c0-0.1,0-0.1,0-0.1C235,122.4,234.9,121.7,235,121.2z M242.9,128.7c0.3,0,0.5,0.1,0.8,0.4
	c0.5,0.5,0.8,1.4,0.3,2c-0.3,0.3-0.7,0.5-1.1,0.5c-0.2,0-0.4-0.1-0.6-0.2c-0.7-0.2-1-0.9-0.9-1.7c0-0.3,0.3-0.6,0.6-0.6
	C242.3,128.8,242.6,128.7,242.9,128.7z M235.6,138c0.2-0.3,0.5-0.4,0.8-0.4c0.4,0,0.8,0.3,1,0.6c0.4,0.6,0.1,1.3-0.4,1.6
	c-0.3,0.2-0.6,0.3-0.9,0.4c-0.3-0.1-0.5-0.2-0.8-0.3c-0.2-0.2-0.3-0.4-0.2-0.6c0-0.1,0-0.3,0.1-0.4
	C235.2,138.6,235.4,138.2,235.6,138z M247.3,116.8c0.1-0.1,0.1-0.1,0.2-0.1c0.7,0,1.3,0.5,1.6,1.1c0.2,0.6,0,1.2-0.5,1.6
	c-0.4,0.3-0.8,0.5-1.3,0.5c-0.1,0-0.3,0-0.5-0.1c-0.6-0.2-0.9-0.9-0.8-1.8c0-0.1,0-0.2,0.1-0.3C246.3,117.2,246.7,116.8,247.3,116.8
	z M248.3,119.1c0.8-0.7,0.2-1.9-0.8-1.9c-0.1,0-0.1,0-0.1,0c-0.5,0.1-0.7,0.4-0.8,0.8c-0.1,0-0.1,0-0.1,0.1c-0.1,0.5,0,1.1,0.5,1.3
	c0.1,0,0.2,0,0.3,0C247.7,119.4,248,119.3,248.3,119.1z M236.8,123.9c0.5-0.2,0.7-1,0.8-1.5c0.1-0.7,0-1.4-0.6-1.8
	c-0.2-0.1-0.4-0.2-0.6-0.2c-0.5,0-0.9,0.3-0.9,0.8c-0.1,0.6,0,1.2,0.3,1.7c0,0,0,0,0,0.1c0.1,0.4,0.3,1,0.7,1
	C236.6,124,236.7,124,236.8,123.9z M242.1,129.5c-0.1,0-0.2,0.1-0.2,0.3c-0.1,0.5,0.1,1,0.6,1.2c0.1,0.1,0.3,0.1,0.4,0.1
	c0.3,0,0.5-0.1,0.7-0.3c0.3-0.4,0.1-1-0.2-1.3c-0.2-0.2-0.4-0.3-0.5-0.3c-0.3,0-0.5,0.2-0.7,0.4
	C242.2,129.5,242.2,129.5,242.1,129.5z M236.7,139.4c0.3-0.2,0.5-0.6,0.3-0.9c-0.1-0.3-0.4-0.4-0.6-0.4c-0.1,0-0.3,0.1-0.4,0.2
	c-0.2,0.2-0.3,0.5-0.3,0.8c-0.1,0.1-0.2,0.3-0.1,0.4c0.2,0.1,0.4,0.2,0.5,0.2C236.3,139.6,236.5,139.5,236.7,139.4z"/>
<path class="st3" d="M211.1,168.4c0.5,0.9,0.8,1.8,1,2.8c-1.9,0.7-4.1,0.7-6.1,0.7c0.6-0.8,1.2-1.6,1.6-2.5c0.3-0.8,0.9-2.2,0-2.9
	c-0.1,0-0.2,0-0.2,0.1c-0.6,0.8-0.5,1.8-0.7,2.7c-0.2,0.9-0.8,1.9-1.6,2.6c-0.1,0-0.3,0-0.5-0.1c-1.5-0.1-3-0.2-4.5-0.3
	c0-0.1,0-0.1,0.1-0.1c0.2-0.1,0.7-0.4,0.8-0.7c0-0.3-0.4-0.4-0.6-0.3c-0.4,0.1-0.7,0.5-1,0.6c-0.2,0.1-0.4,0.2-0.7,0.3
	c-1.2-0.1-2.4-0.3-3.6-0.5l-0.1-0.1c0.1-1.1,0.2-2.3,0.3-3.5c1.2-1.3,2.6-2.3,4.4-2.5c0.5-0.1,3.3,0,2.9-1.2
	c-0.5-1.2-2.9-0.5-3.7-0.1c-1.3,0.4-2.4,1.2-3.4,2c0.3-2.6,0.9-5.1,2-7.5c1.8-1,3.8-1.1,5.7-0.1c0.4,0.2,2.4,1.5,2.5,0.3
	c0.1-0.9-1.9-1.5-2.6-1.6c-1.2-0.2-2.3,0-3.4,0.2c-0.7,0.1-1.3,0.2-1.9,0.5c0-0.1,0-0.1,0.1-0.1c0.9-1.8,2.2-3.6,4.3-4.2
	c0.9-0.4,1.9-0.5,2.8-0.4c0.7,0.4,1.4,0.8,2.1,1.3c0.6,0.5,0.9,1.2,1.4,1.8c0.4,0.4,1.5,1.1,2,0.4c0.3-0.6-0.3-1.6-0.5-2.1
	c-0.1-0.2-0.3-0.4-0.4-0.6c5.8-0.5,3.1,4.5,3.2,4.5c5.2-0.5,5.7,4.7,4.7,7.9c-0.1-0.3-0.2-0.6-0.3-0.9c-0.1-0.7-0.2-1.3-0.4-1.9
	c-0.2-0.7-0.7-1.6-1.6-1.4c-0.8,0.2-0.1,1.1,0.2,1.5c0.8,1.1,1.5,2.5,1.6,4c-0.1,0.1-0.2,0.3-0.3,0.4c-0.7,1.2-1.7,2.2-2.9,2.9
	c-0.1-1.2-0.3-2.4-0.6-3.6c-0.2-0.8-0.6-2.2-1.6-2.6c-0.1,0-0.2,0.1-0.2,0.2c0,1,0.4,2,0.9,2.9c0.7,1.1,1.1,2.2,1,3.4
	c-0.3,0.1-0.6,0.3-0.9,0.4c0,0.1,0,0.1-0.1,0.1c-0.1-1-0.4-1.9-0.9-2.8C211.3,168.1,211,168.2,211.1,168.4z M200.2,167.3
	C200.1,167.3,200.1,167.3,200.2,167.3c-0.4,0.1-0.5,0.3-0.6,0.6c0,0.7,0.8,1.1,1.3,0.5c0.1-0.2,0.2-0.6,0.1-0.8
	C200.9,167.2,200.5,167.2,200.2,167.3z M213.8,160.1c0.2-0.3,0.2-0.5,0-0.7c-0.1-0.1-0.2-0.1-0.2,0c-0.2,0-0.4,0.1-0.6,0.2
	c-0.1,0.2-0.1,0.6,0.2,0.7C213.4,160.4,213.7,160.2,213.8,160.1z M202.5,161.5c0.4-0.1,0.9-0.3,1-0.6c0.2-0.5-0.3-0.6-0.6-0.6
	c-0.1,0-0.1,0-0.1,0c-0.4-0.1-0.8-0.2-1.1-0.1c-0.5,0.1-0.6,0.6-0.3,1C201.6,161.6,202.1,161.6,202.5,161.5z M208.4,164.8
	c0.2-0.1,0.2-0.4,0.1-0.7c-0.2-0.3-0.5-0.4-0.8-0.3c-0.2,0-0.2,0.2-0.2,0.2c-0.2,0.2-0.2,0.6,0,0.8
	C207.8,165,208.2,165.1,208.4,164.8z"/>
<path class="st3" d="M255.1,152.6c-0.2,0.1-0.4,0.3-0.6,0.4c-0.9,0.3-1.7,0.4-2.6,0.3c-1.1-0.1-2.1-0.4-3.2-0.6
	c-0.7-0.1-3.1,0-2.5,1.5c0.3,0.9,1.8,1.1,2.8,1.2c-0.5,0.2-1,0.4-1.5,0.7c-1.3,0.6-2.2,1.6-3.1,2.7c-0.8,0.3-1.6,0.6-2.4,0.5
	c-0.8,0-1.2-0.3-1.8-0.6c-0.6-0.2-1.3-0.1-1,0.7c0.2,0.8,1.5,0.9,2.2,0.9c0.5,0.1,1.1,0.1,1.7,0c-0.7,0.5-1.4,1-2.2,1.1
	c-2.4,0.3-4.3-1.7-4.2-4.1c-2.5,1.9-5.6,1.2-7.7-0.9c-0.9-1-1.4-2.1-1.2-3.4c1.3,1.4,3.7,3.3,4.7,1.7c0.5-0.8-0.5-1.5-1.1-1.8
	c-1.1-0.6-2.3-0.9-3.3-1.6c0.3-1.5,0.7-3,1.2-4.4c0.6-1.4,1.3-2.8,2.1-4c0.1,2.1,0.3,4.2,0.9,6.2c0.2,0.6,0.7,2.1,1.5,1.3
	c1.3-1.1,0-3.2-0.5-4.3c-0.6-1.6-0.7-3.3-0.4-5c0.5-0.5,1-0.9,1.5-1.3c1.7-1.2,3.7-1.9,5.7-2.4c-0.3,0.6-0.5,1.2-0.6,1.8
	c-0.5,1.3-1.2,3.1-0.9,4.5c0.2,0.7,1.2,1.5,1.7,0.6c0.3-0.6,0.1-1.5,0.1-2.1c0.2-1.8,1.1-3.5,1.9-5c0-0.1,0-0.1,0-0.1
	c0.3,0,0.6,0,0.9-0.1c1.5-0.1,3.2-0.1,4.9,0.1c-0.9,0.6-1.7,1.7-1.6,2.9c0.1,1,0.8,2.3,1.9,2c1.5-0.4,1.8-2.9,1.5-4.6
	c1.1,0.2,2.2,0.5,3.2,1c1.3,0.7,2.3,1.8,3,3.1c-1.3,1.6-2.9,2.6-4.6,3.7c-0.4,0.3-1.7,1.2-1,1.8c0.7,0.5,2.1-0.8,2.6-1.2
	c1.3-1.1,2.2-2.5,3.2-3.9c0.3,0.9,0.5,1.9,0.6,2.9c0.2,1.2,0.2,2.7,0,4.1c-1.8-0.1-3.7-1.7-5.3-0.2c-0.2,0.1-0.1,0.2,0,0.3
	c0.9,0.8,2.4,0.6,3.5,0.7c0.5,0,1.1,0,1.6,0.1C256.4,150.9,255.9,151.9,255.1,152.6z M238.8,149.7c0.1-0.6-0.1-1.3-0.4-1.7
	c-0.2-0.1-0.4-0.2-0.6-0.2c-0.4,0.1-0.5,0.5-0.6,0.8c0,0,0,0,0,0.1c-0.2,0.3-0.3,0.7-0.2,1.2c0,0.4,0.2,1,0.7,1
	C238.3,150.9,238.7,150.2,238.8,149.7z M244.9,145.5c0.5-0.3,0.7-1,0.4-1.6c-0.3-0.5-0.8-0.5-1.2-0.2c0,0,0,0-0.1,0
	c-0.4,0.4-0.6,1-0.4,1.5C243.9,145.7,244.4,145.8,244.9,145.5z M241.2,154.6c-0.1,0.1-0.1,0.3,0,0.4c-0.2,0.4-0.2,0.9,0.1,1.2
	c0.4,0.5,1.1,0.3,1.4-0.2C243.3,155,242,153.9,241.2,154.6z"/>
<path d="M231.6,164.3c0.1-0.1,0.1-0.3,0.2-0.4c2-4.3,5.1-8,8.9-11c0.4-0.3,1,0.3,0.6,0.6c-3.7,2.9-6.7,6.6-8.8,10.8
	c-0.1,0.2-0.2,0.4-0.3,0.7c-0.4,0.8-0.7,1.6-1,2.5c-0.3,0-0.6,0-0.9,0.1C230.7,166.5,231.1,165.4,231.6,164.3z"/>
<path d="M226.4,164.1c0.3-1.8,0.7-3.6,1.1-5.4c1-4.7,2.3-9.3,3.5-14c1.1-3.9,2.3-7.7,4.7-11c0.3-0.4,1,0,0.7,0.4
	c-2.5,3.4-3.7,7.5-4.8,11.5c-1.1,4.2-2.2,8.3-3.1,12.5c-0.5,2-0.9,4-1.2,6c-0.2,1.2-0.4,2.4-0.6,3.5c-0.3,0-0.5,0-0.8,0
	C226,166.5,226.2,165.3,226.4,164.1z"/>
<path d="M216.7,148.1c1.2,2.5,2.2,5.1,3,7.8c0.1,0.4,0.3,0.8,0.4,1.3c0.6,2.3,1.1,4.7,1.5,7.1c0.1,1.1,0.3,2.1,0.4,3.2
	c-0.3,0-0.5,0-0.8,0c-0.1-1.1-0.3-2.1-0.4-3.2c-0.5-2.7-1.1-5.3-1.8-7.9c-0.1-0.3-0.2-0.7-0.3-1c-0.7-2.3-1.6-4.6-2.7-6.9
	C215.8,148,216.5,147.6,216.7,148.1z"/>
<path d="M207.9,160.6c1.5-1,3-2,4.5-3c1.1-0.7,2.3-1.7,3.5-2.2c1-0.4,1.9-0.3,2.8,0c0.3,0.1,0.7,0.2,1,0.5c0.4,0.2,0.8,0.5,1.1,0.9
	c1.8,1.8,2.6,4.6,2.9,7.4c0.2,1.1,0.3,2.3,0.3,3.4c-0.3,0-0.5,0-0.8,0c-0.1-1.1-0.2-2.3-0.3-3.4c-0.2-2-0.7-4-1.7-5.7
	c-0.3-0.5-0.7-0.9-1.1-1.3c-0.3-0.3-0.7-0.6-1.1-0.8c-0.1-0.1-0.3-0.1-0.4-0.2c-1.5-0.6-2.7,0-3.9,0.8c-2.1,1.4-4.3,2.9-6.4,4.3
	C207.8,161.6,207.4,160.9,207.9,160.6z"/>
<path d="M194.1,208.2h-3.6V39.8c0-1,0.8-1.8,1.8-1.8s1.8,0.8,1.8,1.8V208.2z"/>
<path d="M233.5,84.6l-75.3-11.8l-0.8-2.3l2.7-20.6l76.3,1.2l18.2,16.2l0.7,2.3L233.5,84.6z"/>
<path class="st9" d="M232.8,82.3l-75.4-11.8l2-22.9l76.3,1.2l18.9,18.5L232.8,82.3z"/>
<path d="M131,103.5l-1.7-2L151,86.4l74.6,1.7l1.6,2l0.5,23.1l-76,6.7L131,103.5z"/>
<path class="st7" d="M129.7,101.5l19.8-16.9l75.8,3.7l0.5,22.6l-75.7,6.7L129.7,101.5z"/>
<path class="st8" d="M225.6,88.1l0.4,23l-76,6.8l-20.7-16.4l20.1-17.2L225.6,88.1z M130.1,101.5l20.1,15.9l75.3-6.7l-0.4-22.1
	l-75.5-3.8L130.1,101.5z"/>
<path class="st8" d="M175.6,66.7l1.1-11.5l3.8,0.4c1.4,0.1,2.3,0.3,2.7,0.4c0.7,0.2,1.2,0.6,1.6,1.3c0.3,0.6,0.5,1.4,0.4,2.3
	c-0.1,0.7-0.2,1.2-0.5,1.7c-0.3,0.5-0.7,0.8-1.1,1.1c-0.5,0.2-0.9,0.3-1.3,0.4c-0.5,0.1-1.3,0-2.4-0.1l-1.5-0.1l-0.5,4.3L175.6,66.7
	z M178.9,57.4l-0.3,3.3l1.3,0.1c0.9,0.1,1.5,0.1,1.8,0c0.3-0.1,0.6-0.3,0.8-0.5c0.2-0.3,0.3-0.6,0.3-0.9c0.1-0.4,0-0.8-0.2-1.1
	c-0.3-0.3-0.6-0.5-0.9-0.6c-0.3-0.1-0.8-0.1-1.7-0.2L178.9,57.4z"/>
<path d="M186.3,67.7l1.1-11.5l2.2,0.2l-1.1,11.5L186.3,67.7z"/>
<path class="st8" d="M193,62.5l-2-0.5c0.3-0.8,0.8-1.4,1.4-1.7c0.6-0.3,1.4-0.4,2.5-0.3c1,0.1,1.7,0.2,2.1,0.5c0.5,0.3,0.8,0.6,1,1
	c0.1,0.4,0.2,1.1,0.1,2l-0.3,2.6c-0.1,0.7-0.1,1.3,0,1.6c0,0.3,0.1,0.7,0.2,1.2l-2.1-0.2c-0.1-0.2-0.1-0.4-0.2-0.7
	c0-0.1,0-0.2,0-0.3c-0.5,0.3-0.9,0.6-1.3,0.7c-0.5,0.1-0.9,0.2-1.4,0.2c-0.9-0.1-1.5-0.4-2-0.9c-0.5-0.5-0.7-1.2-0.6-1.9
	c0.1-0.5,0.2-0.9,0.5-1.2c0.3-0.3,0.6-0.6,1-0.7c0.5-0.2,1.1-0.3,1.8-0.4c1.1-0.1,1.8-0.2,2.2-0.3V63c0.1-0.5,0-0.8-0.2-1
	s-0.6-0.3-1.1-0.4c-0.4,0-0.7,0.1-1,0.2C193.4,61.9,193.2,62.2,193,62.5z M195.8,64.6c-0.3,0.1-0.8,0.1-1.4,0.2
	c-0.6,0.1-1,0.2-1.2,0.3c-0.3,0.1-0.5,0.4-0.5,0.7c-0.1,0.3,0,0.6,0.2,0.9c0.2,0.2,0.5,0.3,0.9,0.4c0.4,0,0.8-0.1,1.2-0.3
	c0.3-0.2,0.4-0.4,0.5-0.7c0.1-0.2,0.2-0.6,0.2-1.1L195.8,64.6z"/>
<path d="M207.3,69.8l-2.2-0.2l0.4-4.3c0.1-0.9,0.2-1.5,0.1-1.8c-0.1-0.3-0.3-0.5-0.4-0.6c-0.2-0.2-0.5-0.3-0.8-0.3
	c-0.4-0.1-0.8,0-1.1,0.2c-0.3,0.2-0.5,0.5-0.7,0.8c-0.1,0.3-0.2,1-0.3,1.9l-0.4,3.7l-2.2-0.2l0.8-8.3l2.1,0.2l-0.1,1.2
	c0.8-0.9,1.7-1.2,2.8-1.1c0.5,0,1,0.1,1.3,0.4c0.4,0.2,0.7,0.4,0.9,0.7c0.2,0.3,0.3,0.7,0.3,1c0.1,0.3,0.1,0.8,0,1.5L207.3,69.8z"/>
<path class="st8" d="M227.9,73.3l-3-0.3l-0.8-3.3l-5.5-0.7l-1.6,3l-2.9-0.4l7.1-13.1l2.9,0.4L227.9,73.3z M223.3,67.1l-1.1-4.8
	l-2.3,4.3L223.3,67.1z"/>
<path class="st8" d="M151.4,107.3l-0.3-11.7l3.8-0.1c1.5,0,2.4,0,2.8,0.1c0.7,0.2,1.2,0.6,1.7,1.1c0.5,0.6,0.7,1.4,0.8,2.3
	c0,0.7-0.1,1.3-0.4,1.8c-0.2,0.5-0.5,0.9-0.9,1.2c-0.4,0.3-0.8,0.5-1.2,0.6c-0.6,0.1-1.4,0.1-2.5,0.2h-1.5l0.1,4.4L151.4,107.3z
	 M153.5,97.6l0.1,3.3l1.3-0.1c0.9,0,1.5-0.1,1.8-0.2c0.3-0.1,0.6-0.3,0.8-0.6c0.1-0.3,0.2-0.6,0.2-0.9c0-0.4-0.1-0.7-0.4-1
	c-0.3-0.3-0.6-0.4-1-0.5c-0.3-0.1-0.8-0.1-1.7-0.1L153.5,97.6z"/>
<path d="M162.3,107L162,95.3h2.2l0.3,11.7H162.3z"/>
<path class="st8" d="M168.4,101l-2.1-0.3c0.2-0.9,0.6-1.5,1.1-1.9c0.6-0.4,1.4-0.6,2.5-0.6c1-0.1,1.8,0,2.3,0.3
	c0.5,0.2,0.8,0.5,1,0.8c0.2,0.4,0.3,1.1,0.4,2v2.7c0,0.7,0,1.3,0.1,1.6c0.1,0.3,0.3,0.7,0.5,1.1l-2.2,0.1c-0.1-0.1-0.2-0.4-0.3-0.7
	c0-0.1,0-0.2-0.1-0.2c-0.3,0.3-0.7,0.6-1.2,0.8c-0.4,0.2-0.8,0.3-1.3,0.3c-0.9,0.1-1.6-0.1-2.1-0.6c-0.5-0.5-0.8-1.1-0.8-1.8
	c0-0.5,0.1-0.9,0.3-1.3c0.2-0.4,0.5-0.7,0.9-0.9c0.4-0.2,1-0.4,1.8-0.5c1.1-0.3,1.8-0.5,2.2-0.6l-0.1-0.3c0-0.4-0.1-0.7-0.3-0.9
	c-0.2-0.1-0.6-0.2-1.2-0.2c-0.4,0-0.7,0.1-0.9,0.2C168.6,100.3,168.5,100.6,168.4,101z M171.4,102.7c-0.3,0.1-0.7,0.3-1.4,0.4
	c-0.6,0.1-1,0.3-1.2,0.4c-0.3,0.2-0.4,0.5-0.4,0.8c0,0.3,0.1,0.6,0.4,0.8c0.2,0.3,0.5,0.4,0.9,0.3c0.4,0,0.8-0.1,1.1-0.4
	c0.3-0.2,0.4-0.4,0.5-0.7c0.1-0.2,0.1-0.6,0.1-1.1V102.7z"/>
<path d="M183.6,106.5h-2.2l-0.2-4.3c0-0.9,0-1.4-0.1-1.7c-0.1-0.3-0.3-0.5-0.5-0.7c-0.3-0.1-0.5-0.2-0.8-0.2c-0.4,0.1-0.7,0.2-1,0.4
	c-0.3,0.2-0.6,0.5-0.7,0.8c-0.1,0.4-0.1,1.1-0.1,2l0.1,3.8l-2.2,0.1l-0.2-8.5h2l0.1,1.2c0.7-1,1.6-1.5,2.7-1.5c0.5,0,1,0.1,1.4,0.2
	c0.4,0.2,0.7,0.4,0.9,0.7c0.3,0.3,0.4,0.6,0.5,0.9c0.1,0.3,0.1,0.8,0.2,1.5L183.6,106.5z"/>
<path class="st8" d="M193.4,93.9l5.3-0.2c1.1,0,1.9,0,2.4,0.1c0.5,0.1,0.9,0.2,1.4,0.5c0.4,0.3,0.7,0.6,1,1.1c0.3,0.5,0.4,1,0.5,1.5
	c0,0.7-0.2,1.3-0.5,1.8c-0.3,0.5-0.8,0.9-1.3,1.2c0.8,0.2,1.4,0.6,1.9,1.1c0.4,0.6,0.6,1.3,0.7,2c0,0.6-0.1,1.2-0.4,1.8
	c-0.3,0.5-0.6,1-1.1,1.4c-0.5,0.3-1.1,0.5-1.8,0.6c-0.5,0.1-1.6,0.1-3.3,0.2l-4.5,0.1L193.4,93.9z M196.2,96.1v3h1.8
	c1.1,0,1.7,0,1.9-0.1c0.5-0.1,0.8-0.2,1.1-0.5c0.3-0.3,0.4-0.6,0.4-1c0-0.5-0.1-0.8-0.4-1c-0.2-0.3-0.5-0.4-1-0.5c-0.3,0-1,0-2.3,0
	L196.2,96.1z M196.3,101.4l0.1,3.6l2.5-0.1c1,0,1.6,0,1.8-0.1c0.4-0.1,0.7-0.3,1-0.6c0.3-0.3,0.4-0.6,0.4-1.1
	c-0.1-0.4-0.2-0.7-0.4-1c-0.2-0.3-0.5-0.5-0.8-0.6c-0.4-0.1-1.2-0.2-2.4-0.1H196.3z"/>
<path class="st7" d="M100.7,204.4c-1.3,0-3.8-0.6-4.2-1c-0.7-0.7-0.2-4.9-0.2-5.3c0.1-0.6,4.2-0.7,4.2-0.7c1.5,0,1.8,0.2,2,0.4
	c0.3,0.4,0.1,2.1-0.4,5c-0.1,0.5-0.1,0.9-0.1,1C101.9,204.2,101.5,204.4,100.7,204.4z"/>
<path class="st8" d="M102.7,197.6c0.4,0.5,0.3,1.7-0.3,5.2c-0.1,0.5-0.2,0.9-0.2,1.1c-0.1,0.5-0.6,0.8-1.5,0.8
	c-1.3,0-3.9-0.6-4.4-1.1c-0.8-0.8-0.2-5.5-0.2-5.5c0.1-0.9,3.4-0.9,4.4-0.9C102.1,197.2,102.5,197.4,102.7,197.6z M96.6,198.2
	c-0.2,0.9-0.4,4.6,0.1,5c0.3,0.4,2.6,1,4,1c0.6,0,1-0.1,1-0.4c0.1-0.8,1-5.3,0.6-5.9c-0.2-0.2-0.9-0.2-1.8-0.2
	C98.9,197.7,96.6,197.9,96.6,198.2z"/>
<path d="M101.9,202.9c0,0,3.6,0,6.8,0.4c3.2,0.3,3.2,4.9,3.2,4.9c-3.8,0.6-16.3,0-16.3,0c-1.7-2.7,0.7-6.1,0.7-6.1
	C98.6,204.7,101.9,202.9,101.9,202.9z"/>
<path class="st7" d="M73,204.8c-1.2,0-3.7-1-4.1-1.4c-0.7-0.7-0.2-4.9-0.2-5.3c0.1-0.6,3.6-0.7,3.7-0.7c1.3,0,1.6,0.2,1.8,0.4
	c0.3,0.4,0.2,2-0.3,5.8c-0.1,0.3-0.1,0.6-0.1,0.7C73.8,204.5,73.6,204.8,73,204.8z"/>
<path class="st8" d="M74.3,197.6c0.4,0.5,0.5,1.6-0.2,6.1c0,0.3,0,0.6-0.1,0.7c0,0.1-0.1,0.7-1,0.7c-1.2,0-3.8-1-4.3-1.5
	c-0.8-0.8-0.2-5.5-0.2-5.5c0.1-0.9,3.3-0.9,3.9-0.9C73.8,197.2,74.2,197.4,74.3,197.6z M69,198.2c-0.2,0.9-0.4,4.6,0.1,5
	c0.3,0.4,2.8,1.4,3.9,1.4c0.3,0,0.5-0.1,0.6-0.3c0-0.8,0.8-5.8,0.4-6.3c-0.2-0.3-0.9-0.3-1.6-0.3C70.9,197.7,69,197.9,69,198.2z"/>
<path d="M90.5,135.5c-2.2-5.6-3.8-14.1-3-15c1.8-2.1,17.2-13.6,21.1-5.3c4.1,8.9,5.1,27.4,5.1,38.6c0,11.1-7.2,36.3-10.9,47.5
	l-6.9-0.7c0,0,0-17,0-17.5c0.6-7.4,1.1-22.2,0.5-29.5C96.1,149.7,93,142.1,90.5,135.5z"/>
<path d="M95.4,183c0.4-7.3,1.6-22.1,1-29.4c-0.3-3.9-5.1-15.3-7.6-21.8c0.7-2-0.2-6.4,1.5-7.5c1.4-0.9,6.7,5.2,7.3,7
	c0.5,1.4-0.4,3.2-0.5,4.6c-0.2,2.6,0.5,5.2,1.7,7.5c1.9,3.3,4.3,6,5.3,9.8c2.1,7.4,0.5,15.2-1.3,22.5c-1.1,4.6-2.3,9.2-2.5,13.9
	c-0.2,2.8-0.6,8.7-0.2,11.4l-4.2-0.4C95.9,200.6,95,190.3,95.4,183z"/>
<path d="M70.6,179.1c1.9-6.8,0.1-14.9,0.3-21.5c0-0.9,0-1.8,0-2.7c0.1-15.9-4.2-23.2,0.9-35.4c0.8-1.9,1.8-3.9,3.1-6.1
	c0.4-0.6,1.3-0.9,2.6-0.7c3.1,0.4,10.3,2.4,14.5,7.6c0,0,0,0.4,0,1.1c-0.1,4.5-2.5,23-4.4,40.2c-1.3,11-9.8,29.1-13,39.7l-6.1-0.7
	C68.5,200.6,66.9,192.5,70.6,179.1z"/>
<path d="M69.4,178.7c1.1-7.1,1.3-14.5,1.5-21.1c0-0.9,0-1.8,0-2.7c0.1-15.9-4.2-23.6,0.9-35.8c0-2.5,5.8-3.6,5.8-2.2
	c0.1,1.9-0.2,3.6-0.4,5.4c-0.5,3-1.2,6.1-0.8,9.2c0.7,5,2.3,9.6,2.6,14.6c0.6,9.2-1.5,17.6-4.6,26.2c-1.9,5.3-3.5,10.6-4.1,16.2
	c-0.4,3.6-0.5,8.6-0.5,12.2l-1.3-0.1C68.5,200.6,66.8,195.5,69.4,178.7z"/>
<path d="M73.8,202.7c0,0,4.1,0.2,7.3,0.6c3.3,0.3,3.2,4.9,3.2,4.9c-3.8,0.6-16.3,0-16.3,0c-1.7-2.7,0.7-6.1,0.7-6.1
	C71.1,204.7,73.8,202.7,73.8,202.7z"/>
<path d="M102.3,67.6c0,0,9.5,7.4,15.4,26.9L102.3,98l-0.1-19.4L102.3,67.6z"/>
<path class="st9" d="M111.7,120.5c-0.2,0.6-7.4,3.1-14.6,4.2c-8.3,1.3-21.5-1.9-24.9-2.5c-1.4-0.3-2.3-0.7-2.5-1.1
	c-0.6-1.4,1.7-15.2,1.4-24.4C71,95,71,93.2,71,91.4c-0.1-9.2,0.6-17.8,2.7-19.4c0.5-0.4,1-0.8,1.6-1.2c0.5-0.3,1.1-0.7,1.7-1.1
	c0.5-0.3,0.9-0.5,1.4-0.8c1.9-0.9,4.1-1.8,6.5-2.5c3.8-0.9,8.2-1.3,13-0.2c0,0,0,0,0,0.1c1.1,0.2,2.3,0.5,3.6,1
	c0.3,0.1,0.5,0.2,0.8,0.3c4.1,1.7,3.5,10.5,2.9,18c-0.3,3.4-0.6,6.5-0.5,8.5c0,0.7,0.1,1.3,0.2,2C105.8,101.5,111,116.6,111.7,120.5
	z"/>
<path class="st7" d="M93.9,67.8c-2.1,0-4.6-1.9-4.7-2l-0.1-0.1v-6.6l5.6,2.3v4.1c0.1,0.3,0.6,1.3,0.3,1.8c-0.1,0.3-0.3,0.4-0.5,0.4
	C94.3,67.8,94.1,67.8,93.9,67.8z"/>
<path class="st8" d="M89.6,59l5,2.1l0.3,0.2v4.1c0.2,0.5,0.6,1.4,0.3,2c-0.1,0.3-0.4,0.5-0.7,0.6c-0.2,0-0.4,0-0.6,0
	c-2.2,0-4.7-1.9-4.8-2l-0.2-0.2v-7L89.6,59z M89.4,65.5c0,0,2.5,1.9,4.5,1.9c0.2,0,0.4,0,0.5,0c1-0.2,0-1.9,0-1.9v-4l-5-2.1V65.5z"
	/>
<path class="st7" d="M93.9,63c-1.1,0-2.2-0.4-3.3-1.2c-4.2-3.1-3.9-8.6-3.9-8.7l0.1-0.2l8.5-1.7l0.1,0.1c0,0,2.3,3.6,3.2,7
	c0.2,0.8,0,1.8-0.7,2.7C96.9,62.2,95.4,63,93.9,63z"/>
<path class="st8" d="M95.6,51.2c0.1,0.1,2.4,3.6,3.3,7c0.2,1-0.1,2-0.8,3c-1,1.3-2.6,2-4.2,2c-1.2,0-2.3-0.4-3.4-1.2
	c-4.3-3.1-4-8.7-4-8.9v-0.4l0.4-0.1l8.2-1.7h0.3L95.6,51.2z M87,53.1c0,0-0.4,5.5,3.8,8.5c1.1,0.8,2.1,1.1,3.1,1.1
	c2.8,0,5-2.5,4.5-4.3c-0.9-3.4-3.2-7-3.2-7L87,53.1z"/>
<path d="M84.5,53.7c-0.7-0.9-0.3-1.9,0.3-2.4c-0.3-1.2,0.8-2.6,1.8-2.2c0.2-0.4,0.5-0.7,0.9-1c0.3-0.1,0.5-0.2,0.8-0.1
	c0-0.3,0.1-0.7,0.3-0.9c0.6-0.7,1.5-0.4,2.3-0.1c0.5-1.2,2.2-1.5,3.2-0.8c2.2-0.3,4.2,0.9,3,3.5c-1.3,2.8-5.6,3.6-8.8,4
	c0.3,0.8,0.6,1.8,0.7,2.1c0.3,0.8,0.8,1.8,1,2.7c0.6,0.4,1.1,0.7,1.8,0.8c1.3,0.3,1.8-0.1,2.6-1c0.2-0.3,0.6-0.3,0.9,0
	c0.8,0.7,2.8-0.7,3.2,0.6c0.4,1-0.6,3-1.8,3.6c-2.9,1.3-5.3,0-7.3-1.6C88,62,87,60.7,87,59.3c-0.1-0.1-0.2-0.2-0.2-0.3
	c-1.4-0.2-2.8-0.9-2.2-2.1C83.5,56.1,83.4,54.7,84.5,53.7z"/>
<path d="M102.8,96.4c0,0,11.7-11.2,13.1-7.5c1.8,4.8,3.3,9.1,1.9,12.6c-1.5,3.7-15.4,2.2-15.4,2.2L102.8,96.4z"/>
<path d="M95.7,95.9c-0.9,1.1-0.8,7.4-2.2,7.5c-7.9,0.7-11.7-7.8-12.4-7c-0.3,0.3-0.4,2.2-0.5,2.8c-0.7,3.8-1.5,7.6-2.7,11.4
	c-0.1,0.3-0.2,0.8-0.4,1.2c0.4,1.6-4.9,9.1-5.3,10.4c-1.4-0.3-2.3-0.7-2.5-1.1c-0.6-1.4,1.7-15.2,1.4-24.4C71,95,71,93.2,71,91.4
	c-0.1-9.2,0.6-15.5,2.2-18.8c0.2-0.6,1.5-1.4,2.1-1.8c0.5-0.3,1.3,2.6,1.9,2.3c4.4-1.4,7.2,2.1,10.9,4.3
	c3.9,2.4,12.5,12.8,12.6,13.2C101.6,93.4,97.4,94,95.7,95.9z"/>
<path class="st7" d="M106.2,69.7L106.2,69.7c-0.5-1.7-0.4-1.8-0.4-1.9c0,0,0-0.1,0.1-0.3c-0.5-0.3-0.9-0.6-0.9-0.7
	c-0.6-0.5-0.6-1.2-0.6-1.8c0-0.4,0.3-0.7,0.7-0.7c0.2,0,0.4,0.1,0.5,0.2c-0.2-1.4,0-2.7,0.2-3.5c0.4-1.7,0.8-2.7,1.3-3
	c0.1-0.1,0.3-0.1,0.4-0.1c0.3,0,0.5,0.1,0.6,0.3c0.1,0.3,0.2,0.6,0,0.9c-0.2,0.5-0.4,1.3-0.5,2c0.1-0.1,0.3-0.1,0.4-0.1
	c0.5,0,1,0.4,1.2,0.8c0.1,0,0.1,0,0.1,0c0.4,0,0.9,0.4,1,1c0.2,0,0.5,0.2,0.7,0.4c0.2,0.2,0.5,0.8,0.3,1.8c-0.1,1.1-0.2,1.5-0.7,2.1
	c-0.1,0.1-0.2,0.2-0.3,0.3l0.2,0.5l-0.3,1.5l-2.4,1.2L106.2,69.7z"/>
<path class="st8" d="M108.3,58.1c0.2,0.3,0.2,0.7,0.1,1.1c-0.2,0.4-0.4,1-0.5,1.6c0.1,0,0.1,0,0.1,0c0.5,0,1.1,0.3,1.4,0.7
	c0.4,0,0.9,0.5,1.1,1.1c0.3,0.1,0.5,0.2,0.7,0.4c0.2,0.3,0.6,1,0.4,2c-0.2,1.2-0.3,1.6-0.9,2.3c0,0.1,0,0.1-0.1,0.2l0.1,0.3v0.1V68
	l-0.2,1.3l-0.1,0.3l-0.2,0.1l-2.2,1.1l-0.2,0.1l-0.3-0.1l-1.3-0.9l-0.2-0.1v-0.1c-0.5-1.7-0.5-1.8-0.4-1.9c0-0.1,0-0.1,0-0.2
	c-0.3-0.2-0.8-0.6-0.8-0.6c-0.6-0.6-0.7-1.3-0.6-2c0-0.5,0.4-0.9,0.9-0.9c0.1,0,0.1,0,0.2,0c-0.1-1.3,0.1-2.5,0.2-3.2
	c0.6-2.3,1.1-2.8,1.4-3.1c0.2-0.1,0.4-0.2,0.6-0.2C107.8,57.6,108.1,57.8,108.3,58.1z M107.2,58.3c-0.6,0.3-1,2-1.2,2.7
	c-0.3,1.5-0.4,3.2,0.2,4.6c-0.1,0.1-0.2,0.1-0.3,0.1c-0.1-0.2-0.2-0.4-0.2-0.7c-0.1-0.3-0.3-0.4-0.6-0.4c-0.2,0-0.4,0.1-0.4,0.4
	c-0.1,0.6,0,1.2,0.4,1.6c0.1,0.1,0.5,0.4,1,0.8c0,0.2-0.1,0.5-0.1,0.5c0,0.1,0.5,1.6,0.5,1.6l1.3,0.8l2.2-1.1l0.2-1.3l-0.2-0.6
	c0.1-0.1,0.3-0.2,0.4-0.3c0.4-0.6,0.6-0.9,0.7-2c0.2-1.3-0.5-1.9-0.8-1.9c-0.1,0-0.1,0-0.2,0.1c0-0.7-0.4-1.2-0.8-1.2
	c-0.1,0-0.1,0-0.2,0.1c-0.1-0.4-0.6-0.8-1.1-0.8c-0.3,0-0.6,0.2-0.6,0.7c-0.1-0.8,0.2-2.3,0.5-3c0.2-0.5,0-0.9-0.4-0.9
	C107.4,58.1,107.3,58.2,107.2,58.3z"/>
<path class="st9" d="M84.1,98C78,91.7,73.4,83,72.4,76.8c-0.5-3.1,1.1-6.1,4.2-6.2c2.2,0,5,0.3,7.7,2c5.4,3.4,14.2,19.2,15.5,19.6
	c2.8,0.9,5.6-23.7,5.9-23.9l5.1-0.5c0,0,4.3,33.4-6.3,35.8C95.4,105.6,90.7,104.9,84.1,98z"/>
<path class="st7" d="M98.2,105.3c-0.3,0-0.7-0.2-1-0.4c-0.2-0.3-0.4-0.7-0.4-1.2c0.1-0.4,0.3-1,0.8-1.1c0-0.1,0-0.3,0-0.5
	c0.1-0.5,0.4-1.2,1-1.2c0.1,0,0.3,0,0.4,0.1c0.1,0.1,0.3,0.2,0.4,0.3c0.1-0.4,0.4-0.7,0.7-0.9c0.2-0.1,0.4-0.1,0.6-0.1
	c0.3,0,0.5,0.1,0.7,0.3c0.1-0.5,0.4-0.8,0.8-0.8c0.1,0,0.3,0,0.4,0.1c0.4,0.2,0.7,0.7,1,1.1l0.1,0.1c0.3,0.5,0.9,1.5,0.8,2.1
	c0,0.7-0.5,1.3-1.1,1.3c-0.2,0-0.4-0.1-0.6-0.2c-0.1,0-0.1,0-0.1,0c-0.1,0.5-0.4,0.8-0.7,0.9c-0.1,0.1-0.3,0.1-0.4,0.1
	c-0.4,0-0.8-0.2-1.1-0.6c-0.1,0.2-0.4,0.5-0.7,0.5c-0.3,0-0.5-0.1-0.7-0.2C98.8,105.2,98.5,105.3,98.2,105.3z"/>
<path class="st8" d="M102.7,99.7c0.5,0.2,0.8,0.7,1.1,1.1l0.1,0.2c0,0,0.9,1.4,0.9,2.2c-0.1,0.8-0.6,1.6-1.4,1.6
	c-0.2,0-0.4,0-0.6-0.1c-0.1,0.4-0.5,0.6-0.7,0.7c-0.2,0.1-0.4,0.1-0.5,0.1c-0.3,0-0.7-0.1-1.1-0.4c-0.1,0.2-0.4,0.3-0.7,0.4
	c0,0,0,0-0.1,0c-0.2,0-0.4-0.1-0.6-0.2c-0.3,0.1-0.6,0.2-0.9,0.2c-0.4,0-0.8-0.1-1.1-0.5c-0.4-0.3-0.5-0.8-0.5-1.3
	c0-0.4,0.3-1.1,0.8-1.3c0-0.1,0-0.2,0-0.3c0-0.7,0.5-1.5,1.2-1.5c0.2,0,0.4,0.1,0.5,0.2c0.1,0,0.1,0,0.2,0.1
	c0.1-0.3,0.4-0.5,0.7-0.7c0.2-0.1,0.4-0.2,0.7-0.2c0.2,0,0.4,0.1,0.6,0.2c0.2-0.5,0.6-0.6,0.9-0.6C102.4,99.6,102.6,99.6,102.7,99.7
	z M101.5,101.3c-0.2-0.4-0.4-0.8-0.8-0.8c-0.1,0-0.3,0.1-0.5,0.2c-0.4,0.2-0.6,0.7-0.7,1.1c-0.1-0.3-0.3-0.5-0.6-0.6
	c-0.1-0.1-0.2-0.1-0.3-0.1c-0.4,0-0.7,0.6-0.7,1.1c-0.1,0.2-0.1,0.4,0,0.7c-0.1-0.1-0.1-0.1-0.1-0.1s0,0-0.1,0c-0.4,0-0.6,0.6-0.6,1
	c-0.1,0.7,0.5,1.2,1.1,1.2c0.3,0.1,0.5,0,0.8-0.2c0-0.1,0-0.1,0-0.2c0.2,0.2,0.5,0.4,0.7,0.4c0,0,0,0,0.1,0c0.3-0.1,0.5-0.4,0.6-0.7
	c0,0,0,0,0-0.1c0.4,0.5,0.8,0.8,1.2,0.8c0.1,0,0.2,0,0.3,0c0.5-0.2,0.6-0.8,0.5-1.3c0.1,0.2,0.3,0.3,0.5,0.4
	c0.1,0.1,0.3,0.2,0.5,0.2c0.5,0,0.8-0.6,0.9-1.1c0-0.5-0.5-1.4-0.8-2c-0.3-0.3-0.6-0.9-1-1.1c-0.1,0-0.2,0-0.3,0
	C101.7,100.1,101.6,100.8,101.5,101.3z"/>
<path d="M99.3,6.9l34.3-0.2c3.6-0.1,6,2.5,6.1,5.3l-2.1,18.3c0.1,2.1-1.7,3.9-3.8,3.9l-20.9,0.1c-0.1,2.4-2.4,5-5,7.9l0.4,0.2
	l-2.3,4.7l-2.3-1.7c0,0,2.7-6.5,0.9-11l-4.3-0.1l-0.7,1l-2.1-1.5c-0.2-0.1-0.4-0.3-0.6-0.5l-0.1-0.1c-0.7-0.6-1.1-1.6-1.1-2.7
	l-0.2-19.8C95.5,8.6,97.2,6.9,99.3,6.9z"/>
<path class="st7" d="M106.4,46.8c0.5-1.5,2.3-6.8,0.7-10.8v-0.1l-5.3-0.1c-2,0-3.6-1.6-3.6-3.6l-0.1-19.7c0-2,1.6-3.6,3.5-3.7
	l34.3-0.1c2,0,3.6,1.6,3.7,3.6l0.1,19.7c0,2-1.6,3.6-3.5,3.6L115,35.8V36C114.8,39.5,111.5,46,106.4,46.8z"/>
<path class="st8" d="M139.8,12.3L140,32c0,2.1-1.7,3.9-3.8,3.9l-21,0.1c-0.1,3.4-3.6,10.6-9.2,11.1c0,0,2.7-6.5,0.9-11l-5.1-0.1
	c-2.1,0-3.8-1.7-3.8-3.8l-0.2-19.7c0-2.2,1.7-3.9,3.8-3.9l34.3-0.1c0.1,0,0.1,0,0.1,0C138.1,8.5,139.8,10.2,139.8,12.3z M136,9
	l-34.4,0.1c-1.8,0-3.3,1.5-3.3,3.4l0.2,19.7c0,1.8,1.5,3.3,3.3,3.3l5.1,0.1h0.3l0.2,0.3c1.4,3.8,0,8.6-0.6,10.6
	c5-1.1,7.8-7.7,7.9-10.5l0.1-0.5h0.4l21-0.1c1.8,0,3.3-1.5,3.3-3.4l-0.2-19.7C139.3,10.4,137.8,9,136,9V8.5V9z"/>
<path d="M130.3,18.4c1.4,0,2.4,1.1,2.5,2.4c0,1.3-1.1,2.4-2.4,2.5c-1.3,0-2.4-1.1-2.4-2.4C127.9,19.6,129,18.5,130.3,18.4z"/>
<path d="M119.1,18.7c1.3,0,2.4,1.1,2.4,2.4c0,1.3-1.1,2.4-2.4,2.4c-1.3,0.1-2.4-1-2.4-2.3C116.7,19.8,117.7,18.8,119.1,18.7z"/>
<path d="M107.6,18.7c1.4,0,2.5,1.1,2.5,2.4c0,1.3-1.1,2.4-2.4,2.5c-1.3,0-2.4-1.1-2.4-2.4C105.3,19.9,106.3,18.8,107.6,18.7z"/>
<path class="st9" d="M173.2,207.6c0,0.6-0.5,1-1,1h-6.6l-30.9,0.1c-0.6,0-1-0.4-1-0.9v-3.4c0-0.5,0.4-0.9,0.9-0.9h3.3l27.6-0.1
	l6.7-0.1c0.1,0,0.3,0,0.4,0.1c0.3,0.2,0.6,0.5,0.6,0.9V207.6z"/>
<path class="st8" d="M134.7,208.9c-0.7,0-1.1-0.5-1.1-1.1l-0.1-3.4c0-0.6,0.5-1.1,1.1-1.1l37.6-0.1c0.1,0,0.3,0,0.4,0.1
	c0.4,0.1,0.7,0.5,0.7,1v3.3c0,0.6-0.5,1.1-1.1,1.1L134.7,208.9z M172.3,203.6l-37.6,0.1c-0.4,0-0.7,0.4-0.7,0.8v3.3
	c0,0.5,0.3,0.8,0.7,0.8l37.6-0.1c0.4,0,0.8-0.4,0.8-0.8v-3.3c0-0.4-0.2-0.6-0.5-0.7C172.5,203.6,172.4,203.6,172.3,203.6z"/>
<path class="st9" d="M176.7,202.5c0,0.5-0.4,0.9-0.9,0.9h-3.2h-7l-27.4,0.1c-0.1,0-0.2,0-0.3,0c-0.4-0.2-0.6-0.5-0.6-0.9v-3.4
	c0-0.5,0.4-0.9,0.9-0.9l25-0.1h12.6c0.5,0,0.9,0.4,0.9,0.9V202.5z"/>
<path class="st8" d="M138.2,203.7c-0.1,0-0.3,0-0.4-0.1c-0.4-0.2-0.7-0.6-0.7-1v-3.4c0-0.3,0.1-0.5,0.3-0.7c0.2-0.3,0.5-0.4,0.8-0.4
	l37.6-0.1c0.3,0,0.5,0.1,0.7,0.3c0.3,0.3,0.4,0.5,0.4,0.8v3.4c0,0.6-0.5,1.1-1.1,1.1L138.2,203.7z M175.8,198.3l-37.6,0.1
	c-0.2,0-0.4,0.1-0.6,0.3c-0.1,0.1-0.2,0.3-0.2,0.5v3.4c0,0.3,0.2,0.6,0.5,0.7c0.1,0,0.2,0,0.3,0l37.6-0.1c0.4,0,0.7-0.3,0.7-0.7
	v-3.4c0-0.2-0.1-0.4-0.2-0.5C176.2,198.4,176,198.3,175.8,198.3z"/>
<path class="st9" d="M174.2,197.2c0,0.6-0.4,1-0.9,1h-10.1c-0.1,0-0.1,0-0.1,0l-27.4,0.1c-0.5,0-0.9-0.4-0.9-0.9V194
	c0-0.4,0.2-0.7,0.6-0.9c0.1,0,0.2,0,0.3,0l22.2-0.1h12.9h2.5c0.5,0,0.9,0.4,0.9,0.9V197.2z"/>
<path class="st8" d="M135.7,198.5c-0.6,0-1.1-0.5-1.1-1.1V194c0-0.5,0.3-0.9,0.7-1c0.1-0.1,0.3-0.1,0.4-0.1l37.6-0.1
	c0.6,0,1.1,0.5,1.1,1.1v3.3c0,0.3-0.1,0.6-0.3,0.8s-0.5,0.3-0.8,0.3L135.7,198.5z M173.3,193.2l-37.6,0.1c-0.1,0-0.2,0-0.3,0.1
	c-0.3,0.1-0.5,0.4-0.5,0.7v3.4c0,0.4,0.4,0.7,0.8,0.7l27.4-0.1h0.1h10.1c0.4,0,0.8-0.3,0.7-0.8V194
	C174,193.6,173.7,193.2,173.3,193.2z"/>
<path class="st9" d="M173.2,176.5c0,0.5-0.5,0.9-1,0.9h-6.6l-30.9,0.1c-0.6,0-1-0.4-1-0.9v-3.4c0-0.5,0.4-0.9,0.9-0.9h3.3l27.6-0.1
	h6.7c0.1,0,0.3,0,0.4,0c0.3,0.2,0.6,0.5,0.6,0.9V176.5z"/>
<path class="st8" d="M134.7,177.7c-0.7,0-1.1-0.5-1.1-1.1l-0.1-3.4c0-0.6,0.5-1.1,1.1-1.1l37.6-0.1c0.1,0,0.3,0,0.4,0.1
	c0.4,0.2,0.7,0.6,0.7,1v3.4c0,0.6-0.5,1.1-1.1,1.1L134.7,177.7z M172.3,172.3l-37.6,0.1c-0.4,0-0.7,0.4-0.7,0.8v3.4
	c0,0.4,0.3,0.7,0.7,0.7l37.6-0.1c0.4,0,0.8-0.3,0.8-0.7v-3.4c0-0.3-0.2-0.6-0.5-0.7C172.5,172.3,172.4,172.3,172.3,172.3z"/>
<path class="st9" d="M176.7,171.3c0,0.5-0.4,0.9-0.9,0.9h-3.2l-7,0.1l-27.4,0.1c-0.1-0.1-0.2-0.1-0.3-0.1c-0.4-0.2-0.6-0.5-0.6-0.9
	v-3.3c0-0.6,0.4-1,0.9-1l25-0.1h12.6c0.5,0,0.9,0.4,0.9,0.9V171.3z"/>
<path class="st8" d="M138.2,172.5c-0.1,0-0.3,0-0.4-0.1c-0.4-0.1-0.7-0.5-0.7-1v-3.3c0-0.3,0.1-0.6,0.3-0.8s0.5-0.3,0.8-0.3
	l37.6-0.2c0.3,0,0.5,0.2,0.7,0.4c0.3,0.2,0.4,0.4,0.4,0.7v3.4c0,0.6-0.5,1.1-1.1,1.1L138.2,172.5z M175.8,167.2l-37.6,0.1
	c-0.2,0-0.4,0.1-0.6,0.2c-0.1,0.1-0.2,0.3-0.2,0.5v3.4c0,0.3,0.2,0.6,0.5,0.7c0.1,0.1,0.2,0.1,0.3,0.1l37.6-0.2
	c0.4,0,0.7-0.3,0.7-0.7v-3.4c0-0.2-0.1-0.4-0.2-0.5C176.2,167.3,176,167.2,175.8,167.2z"/>
<path class="st9" d="M174.2,166.1c0,0.5-0.4,0.9-0.9,0.9h-10.1c-0.1,0-0.1,0-0.1,0l-27.4,0.1c-0.5,0-0.9-0.4-0.9-0.9v-3.4
	c0-0.4,0.2-0.7,0.6-0.8c0.1-0.1,0.2-0.1,0.3-0.1l22.2-0.1h12.9h2.5c0.5,0,0.9,0.4,0.9,0.9V166.1z"/>
<path class="st8" d="M135.7,167.3c-0.6,0-1.1-0.5-1.1-1.1v-3.4c0-0.4,0.3-0.9,0.7-1c0.1-0.1,0.3-0.1,0.4-0.1l37.6-0.1
	c0.6,0,1.1,0.5,1.1,1.1v3.4c0,0.3-0.1,0.5-0.3,0.8c-0.2,0.2-0.5,0.3-0.8,0.3L135.7,167.3z M173.3,161.9l-37.6,0.1
	c-0.1,0-0.2,0-0.3,0.1c-0.3,0.1-0.5,0.4-0.5,0.7v3.4c0,0.4,0.4,0.7,0.8,0.7h27.4l0.1-0.1v0.1l10.1-0.1c0.4,0,0.8-0.3,0.7-0.7v-3.4
	C174,162.3,173.7,161.9,173.3,161.9z"/>
<path class="st9" d="M171.5,192.1c0,0.4-0.3,0.7-0.7,0.9c-0.1,0-0.2,0-0.3,0l-12.5,0.1h-22.6H133c-0.6,0-1-0.4-1-0.9v-3.4
	c0-0.5,0.4-0.9,0.9-0.9h5.1l22.8-0.1h9.7c0.1,0,0.1,0,0.2,0c0.4,0.1,0.8,0.5,0.8,0.9V192.1z"/>
<path class="st8" d="M133,193.3c-0.6,0-1.1-0.5-1.1-1.1v-3.4c0-0.6,0.4-1.1,1-1.1h28l9.6-0.1c0.1,0,0.2,0,0.3,0.1
	c0.5,0.1,0.8,0.5,0.8,1v3.4c0,0.5-0.3,0.9-0.7,1c-0.1,0.1-0.3,0.1-0.4,0.1L133,193.3z M160.8,188l-27.8,0.1c-0.4,0-0.7,0.3-0.7,0.7
	v3.4c0,0.4,0.3,0.7,0.7,0.7l37.6-0.1c0.1,0,0.2,0,0.3,0c0.3-0.1,0.5-0.4,0.5-0.7v-3.4c0-0.4-0.3-0.7-0.6-0.7
	c-0.1-0.1-0.1-0.1-0.2-0.1L160.8,188L160.8,188z"/>
<path class="st9" d="M176.7,186.9c0,0.5-0.4,0.9-0.9,0.9h-5.1h-9.9l-22.6,0.1c-0.1,0-0.1,0-0.2,0c-0.4-0.1-0.7-0.5-0.7-0.9v-3.4
	c0-0.4,0.3-0.8,0.7-0.9c0.1,0,0.1,0,0.2,0l21.4-0.1h16.2c0.1,0,0.1,0,0.2,0c0.4,0.1,0.7,0.5,0.7,0.9V186.9z"/>
<path class="st8" d="M138.2,188.1c-0.1,0-0.1,0-0.2,0c-0.5-0.2-0.9-0.6-0.9-1.1v-3.4c0-0.5,0.3-0.9,0.8-1c0.1-0.1,0.2-0.1,0.3-0.1
	l37.6-0.1c0.1,0,0.2,0,0.3,0c0.4,0.2,0.8,0.6,0.8,1.1v3.4c0,0.6-0.5,1.1-1.1,1.1L138.2,188.1z M175.8,182.7l-37.6,0.1
	c-0.1,0-0.1,0-0.2,0.1c-0.3,0.1-0.6,0.4-0.6,0.7v3.4c0,0.3,0.3,0.6,0.6,0.7c0.1,0,0.1,0,0.2,0l37.6-0.1c0.4,0,0.7-0.3,0.7-0.7v-3.4
	c0-0.4-0.2-0.7-0.5-0.7C175.9,182.7,175.9,182.7,175.8,182.7z"/>
<path class="st9" d="M176.7,181.7c0,0.4-0.3,0.8-0.7,0.9c-0.1,0-0.1,0-0.2,0l-16.1,0.1l-21.5,0.1c-0.1,0-0.1,0-0.2-0.1
	c-0.4-0.1-0.7-0.4-0.7-0.9v-3.3c0-0.6,0.4-1,0.9-1h4h12.9l20.7-0.1c0,0,0,0,0.1,0c0.5,0.1,0.8,0.5,0.8,0.9V181.7z"/>
<path class="st8" d="M138.2,182.9c-0.1,0-0.2,0-0.3,0c-0.4-0.1-0.8-0.6-0.8-1.1v-3.3c0-0.3,0.1-0.6,0.3-0.8s0.5-0.3,0.8-0.3
	l37.6-0.2c0.1,0,0.1,0,0.1,0.1c0.6,0,1,0.5,1,1v3.4c0,0.5-0.4,1-0.8,1.1c-0.1,0-0.2,0-0.3,0L138.2,182.9z M175.8,177.6l-37.6,0.1
	c-0.2,0-0.4,0.1-0.6,0.2c-0.1,0.1-0.2,0.3-0.2,0.5v3.4c0,0.4,0.3,0.7,0.6,0.7c0.1,0.1,0.1,0.1,0.2,0.1l37.6-0.1c0.1,0,0.1,0,0.2-0.1
	c0.3,0,0.5-0.4,0.5-0.7v-3.4c0-0.3-0.3-0.7-0.6-0.7C175.8,177.6,175.8,177.6,175.8,177.6z"/>
<path class="st13" d="M202.5,204.3v3.4c0,0.6-0.4,1-1,1.1l-37.6,0.1c-0.3,0-0.6-0.1-0.8-0.4c-0.2-0.2-0.3-0.4-0.3-0.7v-3.4
	c0-0.3,0.1-0.5,0.3-0.8c0.1,0,0.1,0,0.2-0.1c-0.3-0.2-0.5-0.5-0.5-0.9v-3.4c0-0.3,0.1-0.5,0.3-0.7h-1.6c-0.6,0-1.1-0.5-1.1-1.1V194
	c0-0.3,0.1-0.5,0.3-0.7h-4.4c-0.6,0-1.1-0.5-1.1-1.1v-3.4c0-0.3,0.1-0.5,0.3-0.8c0.2-0.2,0.5-0.3,0.8-0.3l37.6-0.1
	c0.3,0,0.5,0.1,0.7,0.3c0.2,0.2,0.3,0.5,0.4,0.8v3.4c0,0.3-0.1,0.5-0.3,0.7h4.4c0.6,0,1.1,0.5,1.1,1.1v3.4c0,0.3-0.1,0.5-0.3,0.7
	h1.5c0.3,0,0.6,0.1,0.8,0.3c0.2,0.3,0.3,0.5,0.3,0.8v3.4c0,0.3-0.1,0.5-0.3,0.8c-0.1,0-0.1,0-0.2,0.1
	C202.3,203.6,202.5,203.9,202.5,204.3z"/>
<path class="st9" d="M206.2,208.6l-37.6,0.1c-0.5,0-0.9-0.4-0.9-0.9l-0.1-3.4c0-0.5,0.5-0.9,1-0.9l37.6-0.1c0.5,0,0.9,0.4,0.9,0.9
	v3.4C207.1,208.2,206.7,208.6,206.2,208.6z"/>
<path class="st8" d="M168.6,208.9c-0.3,0-0.6-0.1-0.8-0.4c-0.2-0.2-0.3-0.4-0.3-0.7v-3.4c0-0.3,0.1-0.5,0.3-0.8
	c0.2-0.2,0.5-0.3,0.8-0.3l37.6-0.1c0.6,0,1.1,0.5,1.1,1.1v3.4c0,0.6-0.5,1-1.1,1.1L168.6,208.9z M206.2,203.5l-37.6,0.1
	c-0.2,0-0.4,0.1-0.6,0.3c-0.1,0.1-0.2,0.3-0.2,0.5v3.4c0,0.2,0.1,0.4,0.2,0.5c0.2,0.1,0.4,0.2,0.6,0.2l37.6-0.1
	c0.4,0,0.7-0.3,0.7-0.7v-3.4C206.9,203.9,206.6,203.5,206.2,203.5z"/>
<path class="st14" d="M198.6,193l-37.6,0.1c-0.5,0-0.9-0.4-0.9-0.9v-3.4c0-0.5,0.4-0.9,0.9-0.9l37.6-0.1c0.5,0,0.9,0.4,0.9,0.9v3.4
	C199.5,192.6,199.1,193,198.6,193z"/>
<path class="st8" d="M161,193.3c-0.6,0-1.1-0.5-1.1-1.1v-3.4c0-0.3,0.1-0.5,0.3-0.8c0.2-0.2,0.5-0.3,0.8-0.3l37.6-0.1
	c0.3,0,0.5,0.1,0.8,0.3c0.2,0.2,0.3,0.5,0.3,0.8v3.4c0,0.3-0.1,0.5-0.3,0.7c-0.3,0.3-0.5,0.4-0.8,0.4L161,193.3z M198.6,187.9
	L161,188c-0.2,0.1-0.4,0.2-0.5,0.3c-0.2,0.1-0.3,0.3-0.3,0.5v3.4c0,0.2,0.1,0.4,0.3,0.5c0.1,0.1,0.3,0.2,0.5,0.2l37.6-0.1
	c0.2,0,0.4-0.1,0.5-0.2c0.2-0.1,0.3-0.3,0.3-0.5l-0.1-3.4c0-0.2-0.1-0.4-0.2-0.5C199,188,198.8,187.9,198.6,187.9z"/>
<path class="st9" d="M206.2,203.4l-37.6,0.1c-0.5,0-0.9-0.4-0.9-0.9l-0.1-3.4c0-0.5,0.5-0.9,1-0.9l37.6-0.1c0.5,0,0.9,0.4,0.9,0.9
	v3.4C207.1,203,206.7,203.4,206.2,203.4z"/>
<path class="st8" d="M168.6,203.7c-0.6,0-1.1-0.5-1.1-1.1v-3.4c0-0.3,0.1-0.5,0.3-0.7s0.5-0.3,0.8-0.4l37.6-0.1
	c0.3,0,0.5,0.1,0.7,0.3c0.3,0.3,0.4,0.5,0.4,0.8v3.4c0,0.3-0.1,0.5-0.3,0.8c-0.3,0.2-0.5,0.3-0.8,0.3L168.6,203.7z M206.2,198.4
	l-37.6,0.1c-0.2,0-0.4,0.1-0.6,0.2c-0.1,0.1-0.2,0.3-0.2,0.5v3.4c0,0.2,0.1,0.4,0.2,0.5c0.2,0.2,0.4,0.3,0.6,0.3l37.6-0.1
	c0.2,0,0.4-0.1,0.5-0.3c0.1-0.1,0.2-0.3,0.2-0.5v-3.4c0-0.2-0.1-0.4-0.2-0.5C206.6,198.5,206.4,198.4,206.2,198.4z"/>
<path class="st14" d="M203.8,198.2l-37.6,0.1c-0.5,0-0.9-0.4-0.9-0.9V194c0-0.5,0.4-0.9,0.9-0.9l37.6-0.1c0.5,0,0.9,0.4,0.9,0.9
	l0.1,3.4C204.8,197.8,204.3,198.2,203.8,198.2z"/>
<path class="st8" d="M166.2,198.5c-0.6,0-1.1-0.5-1.1-1.1V194c0-0.3,0.1-0.5,0.4-0.8c0.2-0.2,0.4-0.3,0.7-0.3l37.6-0.1
	c0.6,0,1.1,0.5,1.1,1.1v3.4c0,0.6-0.5,1.1-1.1,1.1L166.2,198.5z M203.8,193.1l-37.6,0.2c-0.4,0-0.7,0.3-0.7,0.7v3.4
	c0,0.4,0.3,0.7,0.7,0.7l37.6-0.1c0.4,0,0.8-0.3,0.8-0.7v-3.4C204.6,193.5,204.2,193.1,203.8,193.1z"/>
<path d="M127.5,205.4c-5.1-4.7-6.3-13.5-2.5-21.4c3.7-7.9,11.3-12.4,18.1-11.5l0.2-0.5l3.5,1.7c7.6,3.6,10.1,14.1,5.6,23.5
	c-4.4,9.3-14.2,14-21.8,10.3l-3.4-1.5L127.5,205.4z"/>
<path class="st9" d="M143.3,172c7.6,3.6,10.1,14.2,5.6,23.5c-4.4,9.4-14.1,14.1-21.7,10.5c-7.6-3.7-10.2-14.3-5.7-23.7
	C126,173,135.7,168.3,143.3,172z"/>
<path class="st9" d="M141.9,175c6.2,3,8.3,11.7,4.6,19.3c-3.7,7.7-11.7,11.6-17.9,8.6c-6.2-2.9-8.4-11.7-4.7-19.4
	C127.6,175.8,135.6,172,141.9,175z"/>
<path class="st8" d="M138.3,195.5c-0.5,0.5-1,0.8-1.6,1.1c-0.6,0.2-1.2,0.3-1.9,0.4c-0.7,0-1.3-0.1-2-0.2l-0.9,2.9l-2.1-0.7l1-2.9
	c-0.6-0.3-1.1-0.8-1.5-1.3c-0.2-0.3-0.4-0.5-0.6-0.8c-0.1-0.1-0.1-0.1-0.1-0.2c-0.1-0.1-0.1-0.2-0.1-0.3c-0.1-0.1-0.1-0.3-0.2-0.4
	c-0.3-0.5-0.4-1.1-0.5-1.7c0-0.1,0-0.1,0-0.2c0,0,0,0,0-0.1c-0.1,0-0.1,0,0,0c-0.1,0-0.1,0-0.1-0.1c0,0,0,0,0-0.1
	c-0.1-0.7,0-1.3,0.1-2l2.2,0.7c-0.1,0.5-0.1,0.9-0.1,1.4c0.1,0.3,0.1,0.7,0.2,1c0,0.1,0,0.1,0.1,0.2c0,0.1,0,0.2,0.1,0.3
	c0.1,0.3,0.2,0.5,0.4,0.7c0.2,0.3,0.5,0.6,0.8,0.8l0.3-1v-0.2h0.1v-0.2l1.6-4.8c-0.5-0.4-1-0.8-1.4-1.3c0,0,0,0-0.1-0.1
	c-0.1-0.1-0.2-0.2-0.3-0.3c-0.1-0.1-0.1-0.2-0.2-0.3c-0.2-0.3-0.4-0.5-0.5-0.7c-0.3-0.5-0.5-1.1-0.6-1.6c-0.1-0.4-0.1-0.8,0-1.3
	c0.1-0.2,0.1-0.4,0.2-0.6c0.1-0.4,0.3-0.8,0.6-1.2c0.1-0.1,0.2-0.2,0.3-0.3c0.4-0.4,0.8-0.7,1.3-0.9c0.5-0.3,1.1-0.4,1.8-0.5
	c0.6-0.1,1.2-0.1,1.8,0l0.6-1.8l2.1,0.7l-0.6,1.8c0.5,0.3,1,0.6,1.5,1c0.4,0.3,0.8,0.8,1.1,1.3c0.3,0.5,0.5,1,0.6,1.6
	c0.1,0.6,0.2,1.3,0.1,2l-2.1-0.6c0-0.8-0.2-1.5-0.5-2c-0.3-0.5-0.7-1-1.3-1.3l-1.9,5.7c0.3,0.3,0.7,0.6,1.1,0.9
	c0.3,0.3,0.6,0.7,0.9,1c0.3,0.3,0.6,0.7,0.8,1c0.3,0.3,0.5,0.7,0.6,1.1c0.1,0.4,0.2,0.8,0.2,1.2c0,0.5-0.1,0.9-0.2,1.3
	C139.1,194.4,138.8,195,138.3,195.5z M132.7,183.1c0,0.3,0.1,0.6,0.2,0.9c0.1,0.3,0.3,0.5,0.5,0.8c0.3,0.3,0.5,0.5,0.8,0.8l1.6-4.9
	c-0.8-0.1-1.5,0-2,0.3c-0.5,0.3-0.9,0.7-1,1.3C132.7,182.6,132.6,182.8,132.7,183.1z M137.2,193c0.1-0.3,0.2-0.6,0.1-0.9
	c-0.1-0.3-0.2-0.6-0.4-0.9c-0.2-0.3-0.4-0.7-0.7-1c-0.3-0.3-0.6-0.6-0.9-0.9l-1.8,5.5c0.5,0.1,0.9,0.2,1.3,0.1
	c0.4-0.1,0.8-0.2,1.1-0.4c0.3-0.1,0.6-0.3,0.8-0.6C136.9,193.6,137.1,193.3,137.2,193z"/>
<path class="st8" d="M130.5,203.8c-0.7-0.2-1.3-0.4-2-0.7c-3-1.5-5.2-4.3-6.1-8.1c-0.9-3.7-0.4-7.8,1.4-11.6
	c1.8-3.7,4.6-6.7,8.1-8.3c3.4-1.6,7-1.7,10-0.2c6.3,3,8.4,11.8,4.7,19.5c-1.8,3.8-4.6,6.7-8,8.4
	C135.9,204.1,133.1,204.4,130.5,203.8z M124.1,183.6c-1.8,3.7-2.3,7.7-1.4,11.3c0.9,3.7,3,6.5,6,7.9c2.9,1.4,6.4,1.3,9.7-0.3
	c3.4-1.6,6.2-4.5,7.9-8.2c3.7-7.6,1.6-16.2-4.5-19.1c-3-1.5-6.4-1.4-9.8,0.2C128.6,177,125.8,179.9,124.1,183.6z"/>
<path class="st2" d="M158.6,204.6l-0.1-29.8c0-2.1,1.8-3.9,3.9-3.9l39.4-0.1c2.1,0,3.9,1.7,3.9,3.9l0.1,29.7c0,2.2-1.7,3.9-3.9,3.9
	l-39.4,0.1C160.4,208.5,158.6,206.7,158.6,204.6z"/>
<path class="st8" d="M172.4,175.9v-3.4c-0.1-4.1,3.3-7.4,7.4-7.4l4.6-0.1c4.1,0,7.4,3.4,7.4,7.5l0.1,3.4c0,1.4-1.2,2.5-2.6,2.5
	l-14.3,0.1C173.5,178.5,172.4,177.3,172.4,175.9z M179.8,167.6c-2.7,0-4.9,2.2-4.9,4.9v3.4c0,0.1,0,0.1,0.1,0.1l14.3-0.1v-3.4
	c0-2.7-2.2-4.9-4.9-4.9H179.8z"/>
<path class="st7" d="M158.6,188c-1.8,0-3.2-1.4-3.2-3.2v-11c0-0.8,0.3-1.6,0.9-2.2c0.6-0.6,1.4-0.9,2.2-0.9l47.2-0.2
	c1.7,0,3.2,1.4,3.2,3.2v11c0,1.7-1.4,3.1-3.2,3.2L158.6,188z"/>
<path class="st8" d="M209.1,173.7v11c0,1.9-1.5,3.4-3.4,3.4l-47.1,0.1c-1.9,0-3.5-1.5-3.5-3.4v-11c0-1.8,1.5-3.4,3.4-3.4l47.2-0.1
	C207.6,170.3,209.1,171.8,209.1,173.7z M205.7,170.8l-47.2,0.1c-1.6,0-2.9,1.3-2.9,2.9v11c0,1.6,1.3,2.9,3,2.9l47.1-0.1
	c1.6,0,2.9-1.3,2.9-2.9v-11C208.6,172.1,207.3,170.8,205.7,170.8z"/>
<path d="M174.9,187.7c0-1.1,0.9-2,2-2l10.4-0.1c1.2,0,2.1,0.9,2.1,2c0,1.2-0.9,2.1-2,2.1h-10.5C175.8,189.7,174.9,188.8,174.9,187.7
	z"/>
</svg>
