<?xml version="1.0" encoding="utf-8"?>
<!-- Generator: Adobe Illustrator 27.0.0, SVG Export Plug-In . SVG Version: 6.00 Build 0)  -->
<svg version="1.1" id="Layer_1" xmlns="http://www.w3.org/2000/svg" xmlns:xlink="http://www.w3.org/1999/xlink" x="0px" y="0px"
	 viewBox="0 0 275 205" style="enable-background:new 0 0 275 205;" xml:space="preserve">
<style type="text/css">
	.st0{fill:#E6EBF0;}
	.st1{fill:#C6D0DB;}
	.st2{fill:#AAB6C2;}
	.st3{fill-rule:evenodd;clip-rule:evenodd;fill:#F58634;}
	.st4{fill-rule:evenodd;clip-rule:evenodd;}
	.st5{fill-rule:evenodd;clip-rule:evenodd;fill:#AAB6C2;}
	.st6{fill:#FFFFFF;}
	.st7{fill:#F58634;}
	.st8{fill:#835F59;}
	.st9{opacity:0.4;fill:#FFFFFF;enable-background:new    ;}
	.st10{fill-rule:evenodd;clip-rule:evenodd;fill:#FFFFFF;}
	.st11{opacity:0.3;enable-background:new    ;}
	.st12{fill:#FD3D53;}
	.st13{fill:#7977C6;}
</style>
<path class="st0" d="M93.6,5.5c27.5,5.4,41.6,36.6,85.9,64.3c44.2,27.6,34.5,135.9-35.5,118.2c-66.7-16.8-69.8-15.5-113.5-13.9
	C-24.2,176.1,6.5-11.6,93.6,5.5z"/>
<path class="st0" d="M168.2,51.2c-13-10.2-23.7-28.2-17.6-45.4c6.1-17.3,18.7,14.8,28.9,25.6C194.2,46.8,195.2,72.7,168.2,51.2z"/>
<path d="M199.4,191.4H8.6v-1.3h190.8V191.4z"/>
<path class="st1" d="M47.4,61.7v-7.1h11.9V20.4h3.2v34.2h12.8v7.1h6.8v143.2H32.9V61.7H47.4z"/>
<path class="st2" d="M32.9,61.7h6.8v128.8h-6.8V61.7z"/>
<path class="st1" d="M57.6,95.8h49.3v109.1H57.6V95.8z"/>
<path class="st2" d="M57.6,95.8h6.8v109.1h-6.8V95.8z"/>
<path class="st2" d="M92.9,100.5h7.1v2.9h-7.1V100.5z"/>
<path class="st2" d="M81,100.5h7.1v2.9H81V100.5z"/>
<path class="st2" d="M92.9,111.1h7.1v2.9h-7.1V111.1z"/>
<path class="st2" d="M81,111.1h7.1v2.9H81V111.1z"/>
<path class="st2" d="M69.1,111.1h7v2.9h-7V111.1z"/>
<path class="st2" d="M92.9,121.8h7.1v2.9h-7.1V121.8z"/>
<path class="st2" d="M69.1,121.8h7v2.9h-7V121.8z"/>
<path class="st2" d="M81,127.2h7.1v2.9H81V127.2z"/>
<path class="st2" d="M92.9,132.5h7.1v2.9h-7.1V132.5z"/>
<path class="st2" d="M81,137.9h7.1v2.9H81V137.9z"/>
<path class="st2" d="M92.9,143.2h7.1v2.9h-7.1V143.2z"/>
<path class="st2" d="M69.1,143.2h7v2.9h-7V143.2z"/>
<path class="st2" d="M92.9,153.1h7.1v2.9h-7.1V153.1z"/>
<path class="st2" d="M81,153.1h7.1v2.9H81V153.1z"/>
<path class="st2" d="M92.9,163.8h7.1v2.9h-7.1V163.8z"/>
<path class="st2" d="M81,163.8h7.1v2.9H81V163.8z"/>
<path class="st2" d="M69.1,163.8h7v2.9h-7V163.8z"/>
<path class="st2" d="M92.9,174.4h7.1v2.9h-7.1V174.4z"/>
<path class="st2" d="M69.1,174.4h7v2.9h-7V174.4z"/>
<path class="st2" d="M81,179.8h7.1v2.9H81V179.8z"/>
<path class="st2" d="M69.1,179.8h7v2.9h-7V179.8z"/>
<path class="st2" d="M92.9,185.1h7.1v2.9h-7.1V185.1z"/>
<path class="st2" d="M81,190.5h7.1v2.9H81V190.5z"/>
<path class="st2" d="M92.9,195.8h7.1v2.9h-7.1V195.8z"/>
<path class="st2" d="M69.1,195.8h7v2.9h-7V195.8z"/>
<path class="st1" d="M175.5,95.8h49.3v109.1h-49.3V95.8z"/>
<path class="st2" d="M175.5,95.8h6.8v109.1h-6.8V95.8z"/>
<path class="st1" d="M105.5,43.9h66.2v161h-66.2V43.9z"/>
<path class="st2" d="M105.5,43.9h6.8v161h-6.8V43.9z"/>
<path class="st2" d="M154.3,51.6h10.3v4.3h-10.3V51.6z"/>
<path class="st2" d="M136.9,51.6h10.3v4.3h-10.3V51.6z"/>
<path class="st2" d="M154.3,67.2h10.3v4.3h-10.3V67.2z"/>
<path class="st2" d="M136.9,67.2h10.3v4.3h-10.3V67.2z"/>
<path class="st2" d="M119.5,67.2h10.4v4.3h-10.4V67.2z"/>
<path class="st2" d="M154.3,82.9h10.3v4.2h-10.3V82.9z"/>
<path class="st2" d="M119.5,82.9h10.4v4.2h-10.4V82.9z"/>
<path class="st2" d="M136.9,90.7h10.3v4.2h-10.3V90.7z"/>
<path class="st2" d="M154.3,98.4h10.3v4.3h-10.3V98.4z"/>
<path class="st2" d="M136.9,106.3h10.3v4.3h-10.3V106.3z"/>
<path class="st2" d="M154.3,114.1h10.3v4.2h-10.3V114.1z"/>
<path class="st2" d="M119.5,114.1h10.4v4.2h-10.4V114.1z"/>
<path class="st2" d="M154.3,128.5h10.3v4.3h-10.3V128.5z"/>
<path class="st2" d="M136.9,128.5h10.3v4.3h-10.3V128.5z"/>
<path class="st2" d="M154.3,144.1h10.3v4.2h-10.3V144.1z"/>
<path class="st2" d="M136.9,144.1h10.3v4.2h-10.3V144.1z"/>
<path class="st2" d="M119.5,144.1h10.4v4.2h-10.4V144.1z"/>
<path class="st2" d="M154.3,159.7h10.3v4.3h-10.3V159.7z"/>
<path class="st2" d="M119.5,159.7h10.4v4.3h-10.4V159.7z"/>
<path class="st2" d="M136.9,167.5h10.3v4.2h-10.3V167.5z"/>
<path class="st2" d="M119.5,167.5h10.4v4.2h-10.4V167.5z"/>
<path class="st2" d="M154.3,175.4h10.3v4.2h-10.3V175.4z"/>
<path class="st2" d="M136.9,183.1h10.3v4.3h-10.3V183.1z"/>
<path class="st2" d="M154.3,190.9h10.3v4.3h-10.3V190.9z"/>
<path class="st2" d="M119.5,190.9h10.4v4.3h-10.4V190.9z"/>
<path class="st1" d="M209.5,55.9h64.8v148.9h-64.8V55.9z"/>
<path class="st2" d="M209.5,55.9h6.6v148.9h-6.6V55.9z"/>
<path class="st2" d="M257.3,63h10.1v4h-10.1V63z"/>
<path class="st2" d="M240.3,63h10.1v4h-10.1V63z"/>
<path class="st2" d="M257.3,77.5h10.1v4h-10.1V77.5z"/>
<path class="st2" d="M240.3,77.5h10.1v4h-10.1V77.5z"/>
<path class="st2" d="M223.3,77.5h10.1v4h-10.1V77.5z"/>
<path class="st2" d="M257.3,92h10.1v4h-10.1V92z"/>
<path class="st2" d="M223.3,92h10.1v4h-10.1V92z"/>
<path class="st2" d="M240.3,99.2h10.1v4h-10.1V99.2z"/>
<path class="st2" d="M257.3,106.3h10.1v4h-10.1V106.3z"/>
<path class="st2" d="M240.3,113.6h10.1v4h-10.1V113.6z"/>
<path class="st2" d="M257.3,120.8h10.1v4h-10.1V120.8z"/>
<path class="st2" d="M223.3,120.8h10.1v4h-10.1V120.8z"/>
<path class="st2" d="M257.3,134.2h10.1v4h-10.1V134.2z"/>
<path class="st2" d="M240.3,134.2h10.1v4h-10.1V134.2z"/>
<path class="st2" d="M257.3,148.6h10.1v4h-10.1V148.6z"/>
<path class="st2" d="M240.3,148.6h10.1v4h-10.1V148.6z"/>
<path class="st2" d="M223.3,148.6h10.1v4h-10.1V148.6z"/>
<path class="st2" d="M257.3,163.1h10.1v4h-10.1V163.1z"/>
<path class="st2" d="M223.3,163.1h10.1v4h-10.1V163.1z"/>
<path class="st2" d="M240.3,170.3h10.1v4h-10.1V170.3z"/>
<path class="st2" d="M223.3,170.3h10.1v4h-10.1V170.3z"/>
<path class="st2" d="M257.3,177.6h10.1v4h-10.1V177.6z"/>
<path class="st2" d="M240.3,184.8h10.1v4h-10.1V184.8z"/>
<path class="st2" d="M257.3,191.9h10.1v4h-10.1V191.9z"/>
<path class="st2" d="M223.3,191.9h10.1v4h-10.1V191.9z"/>
<path class="st1" d="M0,103.2h41.7v101.6H0V103.2z"/>
<path class="st2" d="M0,103.2h4.2v101.6H0V103.2z"/>
<path class="st2" d="M30.8,108.1h6.5v2.8h-6.5V108.1z"/>
<path class="st2" d="M19.8,108.1h6.5v2.8h-6.5V108.1z"/>
<path class="st2" d="M30.8,118h6.5v2.8h-6.5V118z"/>
<path class="st2" d="M19.8,118h6.5v2.8h-6.5V118z"/>
<path class="st2" d="M8.8,118h6.5v2.8H8.8V118z"/>
<path class="st2" d="M30.8,127.8h6.5v2.8h-6.5V127.8z"/>
<path class="st2" d="M8.8,127.8h6.5v2.8H8.8V127.8z"/>
<path class="st2" d="M19.8,132.8h6.5v2.7h-6.5V132.8z"/>
<path class="st2" d="M30.8,137.7h6.5v2.7h-6.5V137.7z"/>
<path class="st2" d="M19.8,142.7h6.5v2.7h-6.5V142.7z"/>
<path class="st2" d="M30.8,147.5h6.5v2.7h-6.5V147.5z"/>
<path class="st2" d="M8.8,147.5h6.5v2.7H8.8V147.5z"/>
<path class="st2" d="M30.8,156.7h6.5v2.7h-6.5V156.7z"/>
<path class="st2" d="M19.8,156.7h6.5v2.7h-6.5V156.7z"/>
<path class="st2" d="M30.8,166.5h6.5v2.7h-6.5V166.5z"/>
<path class="st2" d="M19.8,166.5h6.5v2.7h-6.5V166.5z"/>
<path class="st2" d="M8.8,166.5h6.5v2.7H8.8V166.5z"/>
<path class="st2" d="M30.8,176.4h6.5v2.7h-6.5V176.4z"/>
<path class="st2" d="M8.8,176.4h6.5v2.7H8.8V176.4z"/>
<path class="st2" d="M19.8,181.3h6.5v2.8h-6.5V181.3z"/>
<path class="st2" d="M8.8,181.3h6.5v2.8H8.8V181.3z"/>
<path class="st2" d="M30.8,186.2h6.5v2.7h-6.5V186.2z"/>
<path class="st2" d="M19.8,191.1h6.5v2.8h-6.5V191.1z"/>
<path class="st2" d="M30.8,196.1h6.5v2.7h-6.5V196.1z"/>
<path class="st2" d="M8.8,196.1h6.5v2.7H8.8V196.1z"/>
<path class="st3" d="M181.1,55.2c-0.9,1.8-2.1,3.4-3.5,4.8l1.8,3.9l-5.8,3.5l-2.5-3.5c-1.9,0.6-3.9,1-6,0.9l-1.4,4.1l-6.5-1.6
	l0.6-4.3c-1.8-0.8-3.5-2.1-4.8-3.5l-3.9,1.9l-3.6-5.9l3.5-2.5c-0.6-1.9-0.9-3.9-0.9-5.9l-4.1-1.5l1.7-6.5l4.2,0.6
	c0.9-1.8,2.1-3.4,3.6-4.8l-1.9-3.9l5.8-3.6l2.6,3.5c1.8-0.6,3.9-0.9,5.9-0.8l1.4-4.1l6.6,1.7l-0.6,4.2c1.8,0.9,3.4,2.1,4.8,3.6
	l3.9-1.9l3.5,5.8l-3.5,2.6c0.6,1.8,1,3.9,0.9,5.9l4.1,1.4l-1.6,6.6L181.1,55.2z M177.5,50.4c1.6-6.5-2.4-13.3-9-14.9
	c-6.6-1.6-13.3,2.4-14.9,9c-1.6,6.6,2.4,13.3,9,14.9C169.3,61,175.9,57.1,177.5,50.4z"/>
<path class="st4" d="M75.7,52.1c-0.7,1.5-1.8,2.9-2.9,4l1.5,3.1L69.7,62l-2-2.9c-1.6,0.6-3.1,0.7-4.8,0.7l-1.2,3.3l-5.3-1.3l0.6-3.5
	c-1.5-0.7-2.8-1.8-3.9-2.9l-3.1,1.6L47,52.4l2.8-2c-0.5-1.6-0.7-3.1-0.7-4.8l-3.3-1.1l1.4-5.4l3.4,0.6c0.7-1.5,1.8-2.8,2.9-3.9
	l-1.6-3.1l4.7-2.9l2,2.8c1.6-0.5,3.2-0.7,4.9-0.6l1.1-3.3l5.3,1.3l-0.6,3.5c1.5,0.6,2.8,1.7,4,2.9l3.1-1.6l2.9,4.7l-2.9,2.1
	c0.5,1.5,0.7,3.1,0.7,4.8l3.3,1.1l-1.4,5.3L75.7,52.1z M72.9,48.2c1.3-5.3-1.9-10.8-7.3-12.1c-5.3-1.3-10.8,1.9-12.2,7.3
	c-1.3,5.3,2,10.8,7.4,12.1C66.2,56.9,71.5,53.6,72.9,48.2z"/>
<path class="st5" d="M92.3,21.9c-0.4,0.9-1,1.7-1.7,2.3l0.9,1.8l-2.9,1.8l-1.2-1.7c-0.9,0.3-1.9,0.4-2.9,0.4l-0.6,2l-3.1-0.8l0.3-2
	c-0.9-0.4-1.6-1-2.3-1.8L77,24.8L75.4,22l1.7-1.2c-0.3-0.9-0.5-1.9-0.5-2.9l-1.9-0.6l0.7-3.2l2.1,0.4c0.4-0.9,1-1.6,1.7-2.3
	l-0.9-1.8L81,8.6l1.3,1.7c0.9-0.3,1.8-0.4,2.8-0.4l0.7-1.9l3.1,0.7l-0.3,2c0.9,0.4,1.6,1,2.3,1.8l1.8-0.9l1.7,2.8l-1.7,1.2
	c0.3,0.9,0.5,1.9,0.5,2.9l1.9,0.6l-0.8,3.2L92.3,21.9z M90.7,19.6c0.7-3.1-1.2-6.4-4.3-7.2c-3.1-0.7-6.4,1.2-7.2,4.3
	c-0.7,3.2,1.2,6.4,4.3,7.2C86.7,24.6,89.8,22.7,90.7,19.6z"/>
<path class="st2" d="M66.3,44.2h93.3c3.7,0.1,6.6,3,6.6,6.6l-0.1,133c0,3.7-2.9,6.6-6.6,6.6l-93.3-0.1c-3.7,0-6.6-2.9-6.6-6.5
	l0.1-133C59.7,47.2,62.7,44.2,66.3,44.2z"/>
<path class="st6" d="M68.7,187.1c-1.3,0-2.5-0.5-3.4-1.4c-0.9-0.9-1.4-2.1-1.4-3.4L64,52.5c0-2.6,2.1-4.8,4.8-4.8l88.4,0.1
	c2.7,0,4.8,2.1,4.8,4.8l-0.1,129.8c0,2.6-2.1,4.8-4.8,4.8L68.7,187.1z"/>
<path class="st4" d="M68.8,47.5h88.4c2.8,0,5.1,2.3,5.1,5.1l-0.1,129.8c0,2.8-2.3,5-5.1,5H68.7c-2.8,0-5.1-2.3-5.1-5.1l0.1-129.8
	C63.8,49.7,66.1,47.5,68.8,47.5z M68.8,47.9c-2.6,0-4.6,2-4.6,4.5l-0.1,129.8c0,2.5,2,4.6,4.6,4.6h88.4c2.6,0,4.6-2,4.6-4.5
	l0.1-129.8c0-2.5-2.1-4.6-4.6-4.6H68.8z"/>
<path class="st3" d="M98.2,35.6h4.1c0.6,0,1-0.5,0.9-1c0-0.2,0-0.4,0-0.6c0-5.9,5.3-10.5,11.3-9.4c4.5,0.8,7.8,4.9,7.8,9.4
	c-0.1,0.2-0.1,0.4-0.1,0.6c0,0.6,0.5,1,1,1h4.1c1.6,0,2.9,1,3.3,2.5l3.5,11.8c0.5,1.6-0.6,3-2.2,3H93.6c-1.7,0-2.8-1.6-2.3-3
	l3.5-11.8C95.3,36.6,96.7,35.6,98.2,35.6z M117.8,34c0-2.9-2.3-5.1-5.2-4.9c-2.7,0.1-4.8,2.4-4.6,5.1c0,0.5,0.1,1,0.2,1.4
	c0.7,1.9,2.6,3.3,4.7,3.3c2.1,0,4-1.4,4.6-3.3C117.7,35.1,117.8,34.6,117.8,34z"/>
<path class="st4" d="M86.3,78.4V62.8h4.8c1.8,0,3,0.1,3.6,0.2c0.8,0.2,1.5,0.8,2.1,1.6c0.6,0.8,0.8,1.8,0.8,3c0,1-0.2,1.8-0.5,2.4
	c-0.4,0.7-0.8,1.2-1.3,1.6c-0.5,0.4-1,0.6-1.6,0.7c-0.7,0.2-1.7,0.3-3,0.3h-1.9v5.9H86.3z M89.3,65.3v4.5h1.7c1.2,0,1.9-0.1,2.3-0.3
	c0.4-0.2,0.7-0.4,0.9-0.7c0.2-0.4,0.4-0.8,0.4-1.3c0-0.6-0.2-1-0.5-1.4c-0.3-0.4-0.7-0.6-1.2-0.6c-0.4-0.1-1.1-0.2-2.2-0.2H89.3z"/>
<path d="M100.1,78.4V62.9h3v12.9h7.4v2.7H100.1z"/>
<path class="st4" d="M126,78.4h-3.2l-1.3-3.6h-6l-1.2,3.6h-3.1l5.7-15.7h3.2L126,78.4z M120.5,72.2l-2-5.8l-2,5.8H120.5z"/>
<path d="M127.6,78.4V62.8h2.9l6,10.4V62.8h2.8v15.7h-2.9l-6-10.2v10.2H127.6z"/>
<path d="M153.1,93.9l-0.1,1.7H88.9v-1.7H153.1z"/>
<path d="M122.5,97.5v1.7H88.9v-1.7H122.5z"/>
<path d="M80,102.2h-2.2v-7.6c-0.8,0.7-1.8,1.3-2.9,1.6v-1.8c0.6-0.2,1.3-0.5,1.9-1c0.6-0.4,1.1-1,1.4-1.7H80V102.2z"/>
<path d="M138.6,118.9l-0.1,1.7H88.9v-1.7H138.6z"/>
<path d="M145.5,122.5v1.7H88.9v-1.7H145.5z"/>
<path d="M82.4,124.9v1.9h-7.6c0.1-0.7,0.3-1.4,0.7-2c0.4-0.6,1.2-1.5,2.4-2.6c1-0.8,1.6-1.4,1.8-1.7c0.3-0.4,0.5-0.9,0.5-1.3
	s-0.1-0.8-0.4-1c-0.3-0.2-0.7-0.4-1.1-0.4c-0.5,0-0.9,0.1-1.1,0.4c-0.2,0.2-0.4,0.7-0.5,1.3l-2.2-0.2c0.1-1.1,0.6-1.9,1.3-2.4
	c0.7-0.5,1.5-0.7,2.5-0.7c1.2,0,2.1,0.3,2.7,0.8c0.7,0.6,1,1.3,1,2.1c0,0.4-0.1,0.9-0.3,1.3c-0.2,0.4-0.5,0.9-0.9,1.4
	c-0.2,0.3-0.7,0.8-1.4,1.4c-0.7,0.6-1.2,0.9-1.4,1.1c-0.2,0.2-0.3,0.4-0.4,0.6H82.4z"/>
<path d="M153.1,144.7l-0.1,1.7H88.9v-1.7H153.1z"/>
<path d="M147.1,148.4v1.6H88.9v-1.6H147.1z"/>
<path d="M74.9,148.6l2.1-0.2c0.1,0.5,0.2,0.9,0.6,1.1c0.3,0.2,0.7,0.4,1.1,0.4c0.4,0,0.8-0.2,1.1-0.5c0.3-0.3,0.5-0.7,0.5-1.3
	c0-0.5-0.2-0.9-0.5-1.2c-0.2-0.3-0.6-0.5-1-0.5c-0.3,0-0.6,0.1-1,0.2l0.2-1.7c0.6,0,1.1-0.1,1.4-0.4c0.3-0.2,0.5-0.6,0.5-1
	c0-0.4-0.1-0.6-0.3-0.8c-0.2-0.2-0.6-0.3-0.9-0.3c-0.4,0-0.7,0.1-1,0.4c-0.2,0.2-0.4,0.5-0.5,1l-2-0.4c0.1-0.6,0.3-1.1,0.6-1.5
	c0.3-0.4,0.7-0.7,1.2-0.9c0.5-0.2,1-0.3,1.7-0.3c1.1,0,2,0.3,2.6,0.9c0.6,0.5,0.8,1.1,0.8,1.8c0,0.9-0.6,1.7-1.7,2.2
	c0.7,0.1,1.2,0.4,1.6,0.8c0.4,0.5,0.6,1,0.6,1.7c0,0.9-0.4,1.7-1.1,2.4c-0.7,0.6-1.7,0.9-2.8,0.9c-1,0-1.9-0.3-2.6-0.8
	C75.4,150.2,75,149.5,74.9,148.6z"/>
<path d="M110,168.2l-0.1,1.7h-21v-1.7H110z"/>
<path d="M122.5,171.8v1.7H88.9v-1.7H122.5z"/>
<path class="st4" d="M79.1,176.1V174h-4.6v-1.8l4.9-6.7h1.8v6.7h1.5v1.8h-1.5v2.1H79.1z M79.1,172.2v-3.6l-2.6,3.6H79.1z"/>
<path d="M84.2,102.2h-1.9v-1.7h1.9V102.2z"/>
<path d="M86,126.8h-2v-1.7h2V126.8z"/>
<path d="M86,151.5h-2v-1.7h2V151.5z"/>
<path d="M86,176.1h-2v-1.7h2V176.1z"/>
<path d="M177.8,162.7h0.9l1.3,27.6h-0.9L177.8,162.7z"/>
<path class="st4" d="M158.6,161.2c0-1.9,12.3-2,16.1-2s16.1,0.1,16.1,2c0,1.8-12.3,2-16.1,2S158.6,163,158.6,161.2z M174.7,160
	c-8.3,0-13.7,0.6-15,1.2c1.3,0.5,6.7,1.1,15,1.1c8.3,0,13.7-0.6,15-1.1C188.4,160.6,183,160,174.7,160z"/>
<path class="st7" d="M190,146.8c0.7,1.8,1.1,4,1.1,6.1c0,9.1-7.3,16.4-16.4,16.4c-9,0-16.4-7.3-16.4-16.4c0-2.1,0.4-4.2,1.2-6.1H190
	z"/>
<path d="M174.7,144.3c8.5,0,15.3,1.1,15.3,2.5c0,1.3-6.8,2.4-15.3,2.4c-8.4,0-15.2-1.1-15.2-2.4
	C159.5,145.4,166.3,144.3,174.7,144.3z"/>
<path class="st8" d="M174.7,145c7.6,0,13.7,0.8,13.7,1.8c0,0.9-6.1,1.8-13.7,1.8c-7.6,0-13.7-0.8-13.7-1.8
	C161,145.8,167.1,145,174.7,145z"/>
<path class="st9" d="M161,152.3c0-1.3,1.9-1.3,1.9,0c-0.1,2.9,0.3,5.8,2.4,8c0.8,0.9-0.6,2.2-1.4,1.4
	C161.4,159.1,160.9,155.7,161,152.3z"/>
<path d="M158.6,161.2h0.9c0-0.1-0.1-0.2-0.1-0.2c0.6,0.6,6.2,1.3,15.3,1.3c9.1,0,14.7-0.7,15.3-1.3c0,0,0,0.1,0,0.2h0.8
	c0,1.8-12.3,2-16.1,2S158.6,163,158.6,161.2z"/>
<path d="M189.7,161.4l0.9-0.1l3.4,28.9l-0.9,0.1L189.7,161.4z"/>
<path d="M156.2,190.3l2.9-28.8l0.8,0.1l-2.9,28.8L156.2,190.3z"/>
<path d="M171.5,190.4l0.6-27.6h0.9l-0.6,27.6H171.5z"/>
<path class="st6" d="M174.7,148.3c-0.3,0-0.6,0-0.8,0c-0.7,0-1.3,0-1.9,0c-0.3,0-0.6,0-0.8,0c-0.4,0-0.8,0-1.2-0.1
	c-0.2,0-0.5,0-0.7,0h-0.1c-6-0.4-7.9-1.1-7.9-1.4c0-0.3,1.8-1,7.5-1.4c0.1,0,0.2,0,0.4-0.1c0.1,0,0.3,0,0.5,0c0.4,0,0.9,0,1.4,0
	l0.8-0.1c0.9,0,1.8,0,2.8,0h0.8c1.6,0,3.1,0,4.4,0.1l0.9,0.1c5.7,0.3,7.6,1.1,7.6,1.4c0,0.3-2.3,1.1-9,1.4l-0.8,0.1
	C177.1,148.3,175.9,148.3,174.7,148.3z"/>
<path class="st4" d="M179.7,145.1c0.3,0,0.6,0,0.9,0c4.6,0.3,7.8,0.9,7.8,1.7s-3.8,1.4-9.2,1.7c-0.2,0-0.5,0-0.8,0
	c-1.2,0.1-2.4,0.1-3.7,0.1c-0.3,0-0.6,0-0.8,0c-0.7,0-1.3,0-1.9,0c-0.3-0.1-0.6-0.1-0.8-0.1c-0.4,0-0.8,0-1.2,0
	c-0.3,0-0.6,0-0.9-0.1c-4.7-0.3-8-0.8-8-1.6s3-1.4,7.6-1.7c0.3,0,0.6,0,0.9,0c0.4-0.1,0.9-0.1,1.4-0.1c0.2,0,0.5,0,0.8,0
	c0.9-0.1,1.8-0.1,2.8-0.1h0.8C176.8,145,178.3,145,179.7,145.1z M174.4,145.4c-0.9,0-1.8,0-2.8,0.1c-0.2,0-0.3,0-0.5,0
	c-0.1,0-0.2,0-0.4,0c-0.5,0-1,0-1.4,0.1c-0.1,0-0.3,0-0.5,0c-0.1,0-0.2,0-0.4,0c-4.8,0.4-6.6,0.9-7.1,1.2c0.6,0.3,2.5,0.8,7.6,1.1
	c0.2,0.1,0.5,0.1,0.8,0.1c0.4,0,0.8,0,1.2,0c0.3,0,0.6,0,0.8,0.1c0.6,0,1.3,0,1.9,0c0.2,0,0.5,0,0.8,0c1.2,0,2.5,0,3.7-0.1
	c0.1,0,0.3,0,0.5,0c0.1,0,0.2,0,0.4,0c5.3-0.3,8-0.8,8.7-1.2c-0.5-0.3-2.4-0.9-7.3-1.2h-0.1h-0.8c-1.4-0.1-2.8-0.2-4.4-0.2H174.4z"
	/>
<path class="st4" d="M165.3,131.2c1.5,2.9-1.4,5.8-4.1,6.6c-1.8,0.6-3.6,0.7-5.4,0.5c0.8-1,1.5-2,2.2-3.1c0.8-1.1,1.7-2.1,2.4-3.1
	c0.5-0.7,1.1-1.8,0.8-2.7c-0.1-0.6-0.6-1.3-1.2-1.4c-1.4-0.1-2.1,2.7-2.5,3.7c-0.8,2.6-2.3,4.4-4.2,6.1c-1-0.4-1.9-0.8-2.8-1.4
	c-2.7-1.8-4.5-4.6-5.1-7.7c-0.1-0.6-0.2-1.4-0.2-2.3c1.5,0.7,2.9,1.3,4.7,1.5c0.8,0.1,2.4,0.3,3-0.4c0.8-0.7-0.3-1.6-1-1.7
	c-0.8-0.2-1.8,0-2.6,0.1c-1.4,0.2-2.8-0.1-4-0.6c-0.1,0-0.2,0-0.3,0c0-3.1,0.4-7.5,2.1-11.2c1.6,1.8,3.5,3.2,5.4,4.7
	c0.8,0.6,1.8,1.6,2.9,1.8c0.4,0.1,1.3,0.1,1.5-0.5c0.3-1-2.2-2.2-2.9-2.5c-2.1-1.1-5.7-2.1-6.1-4.9c0-0.1,0-0.1,0-0.1
	c1-1.7,2.3-3.2,4.1-4.3c1-0.7,2.1-1.2,3-1.6c0.1,1,0.2,3.6,1.3,3.6c0.8-0.1,1.2-1.6,1.1-2.2c-0.1-0.6-0.5-1.3-1-1.8
	c1.8-0.5,3.6-0.4,5.3,0c0.7,1,1.4,2.1,1.8,3.2c0.5,1.4,0.5,2.6,0.5,4c0,0.6,0,1.8,0.6,2.2c0.4,0.2,0.9,0,1.1-0.4
	c0.9-1.1,0-3.6-0.4-4.7c-0.4-1.1-0.7-2.4-1.3-3.6c2.7,1.2,5.2,3.1,7.2,5.4c-0.2,0.7-0.5,1.5-0.7,2.2c-0.5,0.9-1,1.8-1.5,2.8
	c-0.1,0.1-0.1,0.1-0.1,0.2c0,0,0,0-0.1,0.1c0,0,0,0,0,0.1c0,0,0,0,0,0.1c-0.1,0.6,0.1,1.5,0.9,1.1c0.8-0.3,1.6-1.7,2-2.4
	c0.3-0.6,0.7-1.3,1-2.1c2.3,3.1,3.9,6.4,4.3,8.8c0.5,2,0.2,4.4-0.9,6.1c-0.9-0.4-1.8-0.9-2.3-1.6c-0.4-0.6-0.6-1.3-1.2-1.8
	c-0.6-0.5-1.5-0.3-1.5,0.6c0,1.1,1,2.2,1.8,2.9c0.4,0.5,0.9,0.9,1.6,1.3C171.8,132.3,168.2,131.9,165.3,131.2z M150.9,121.7
	c0-0.6-0.6-1.2-1.2-1.3c-0.5-0.1-0.6,0.4-0.6,0.8c0,0.2,0,0.4,0,0.6c0,0.1,0,0.1,0,0.2c0.1,0.3,0.3,0.7,0.6,0.9c0.1,0,0.1,0,0.1,0.1
	c0.2,0.1,0.3,0.1,0.4,0c0.1-0.1,0.1-0.1,0.2-0.1C150.7,122.8,151,122.2,150.9,121.7z M168.2,122.3c-0.4-0.3-1-0.3-1.4-0.1
	c-0.1,0-0.1,0-0.1,0c-0.1,0-0.1,0-0.1,0.1c-0.2,0.6-0.1,1.1,0.4,1.5c0.4,0.4,0.8,0.3,1.2-0.1C168.5,123.3,168.7,122.7,168.2,122.3z"
	/>
<path class="st10" d="M188.9,125.4c-1.8,0-4.1-0.3-5.8-1.9c-1.2-1.2-1.8-2.9-1.8-5.2v-0.2h-0.2c-0.1,0-0.1,0-0.3,0
	c-1.7,0.9-2.9,1.1-3.7,1.1c-0.9,0-1.7-0.3-2.2-0.8c-0.8-0.8-1.2-2.2-1.2-4.1c0.2,0.1,0.4,0.2,0.6,0.4l0.2,0.1
	c0.7,0.3,1.7,0.6,2.5,0.6c0.4,0,0.8-0.1,1-0.3c0.4-0.2,0.6-0.6,0.6-1c0-0.9-0.8-1.8-1.5-2.3c-0.4-0.2-0.7-0.5-1-0.6
	c-0.7-0.4-1.4-0.7-2-1.4c-0.7-0.7-1.5-1.7-2.3-2.9c-0.2-1.6-0.1-3,0.3-4.3c0.8-3.2,3.5-5.3,5.8-6.7c-0.2,0.7-0.3,1.5-0.4,2.4
	l-0.1,0.8c-0.1,1.5-0.2,2.9,0.1,4.4c0.2,0.8,1.4,4.1,3.1,4.1c0.1,0,0.1,0,0.2,0c0.4-0.1,0.7-0.2,0.8-0.6c0.4-0.9-0.7-2.5-1.3-3.4
	c-0.1-0.1-0.1-0.2-0.2-0.3c-1.8-2.8-1.9-5.7-0.6-8.5c3.1-1.7,6.6-2.9,11.1-3.8c-1.2,1.7-2,3.3-2.6,5.1c-0.2,0.8-1,3.6-0.2,5.1
	c0.2,0.4,0.6,0.7,1,0.8c0.2,0.1,0.3,0.1,0.5,0.1c0.2,0,0.5-0.1,0.7-0.4c0.7-0.7,0.6-2.7,0.6-3.8c0-0.3,0-0.5,0-0.6
	c0.2-2.6,1.4-4.8,3.5-6.9c1.8-0.3,3.5-0.6,5.3-0.8c0.5,1.8,0.9,3.6,1.3,5.4c-0.1,0.3-0.2,0.6-0.4,0.9c-0.1,0.2-0.3,0.5-0.4,0.6
	c-0.3,0.3-0.5,0.6-0.6,1c-0.1,0.3,0,0.6,0.2,0.9c0.1,0.1,0.3,0.2,0.6,0.3l0.1-0.1c0.5,0,0.7-0.6,1-0.9c0.5,2.3,0.8,4.3,1,6.3
	l0.1,0.6c-0.9,1.1-2.3,2-3.8,2.5c-0.5,0.2-1,0.3-1.5,0.4c-1,0.2-2,0.4-2.9,1.1c-0.1,0.1-0.1,0.2-0.1,0.3c-0.1,0.1,0,0.2,0.1,0.4
	c0.4,0.5,1,0.7,1.8,0.7c1.1,0,2.3-0.6,3.1-0.9c1.2-0.6,2.4-1.5,3.5-2.6c0.3,2.8,0.5,5.8-0.4,8.8c-1.5-0.2-2.9-0.6-4.4-1.1l-0.1-0.1
	c-0.3,0-0.4,0.2-0.5,0.4c0,0.3,0.1,0.5,0.3,0.6c1.5,0.6,2.9,0.9,4.4,1.1c-0.1,0.4-0.3,0.7-0.5,1.2c-0.3,0-0.6,0-0.9,0
	c-1.5,0-2.9-0.4-4.4-1.1c-1.5-0.8-2.9-1.2-4.3-1.2c-0.2,0-0.4,0-0.6,0.1c-0.1,0-0.2,0.1-0.4,0.2c-0.1,0.1-0.1,0.3,0,0.5
	c0.7,1.6,2.9,1.9,4.5,2.2c1.7,0.3,3.4,0.5,5.5,0.6c-1,1.7-2.4,3.2-4.1,4.3c-0.2,0.2-0.4,0.3-0.6,0.5c-0.1,0-0.2,0-0.3,0
	c-2.3,0-4.6-1.1-6.2-1.9l-0.1-0.1c-0.5-0.3-1.1-0.6-1.8-0.6c-0.5,0-0.7,0.3-0.8,0.8c-0.3,1.5,1.2,2.3,2.6,2.6
	c0.6,0.1,1.2,0.1,1.8,0.2c0.4,0.1,0.9,0.1,1.3,0.2c0.2,0.1,0.5,0.1,0.7,0.1C192,125.2,190.4,125.4,188.9,125.4z M183.6,119.2
	c-0.1,0.1-0.1,0.2-0.2,0.3c0,0.2,0.1,0.3,0.2,0.4c0.2,0.2,0.4,0.3,0.6,0.3c0.3-0.1,0.6-0.2,0.7-0.4c0.4-0.3,0.6-0.7,0.4-1.3
	c-0.2-0.2-0.5-0.4-0.7-0.4c-0.2,0-0.5,0.1-0.6,0.3C183.8,118.6,183.6,119,183.6,119.2z M190.4,109.3c-0.3,0-0.5,0.2-0.5,0.5
	c-0.1,0.6,0.2,1.2,0.7,1.5c0.2,0.1,0.4,0.1,0.6,0.1c0.4,0,0.6-0.1,0.8-0.4c0.5-0.5,0.2-1.2-0.2-1.7c-0.2-0.2-0.5-0.3-0.7-0.3
	C190.9,109,190.7,109.1,190.4,109.3z M183.7,102.8C183.7,102.8,183.7,102.8,183.7,102.8c0.1,0.8,0.5,1.4,0.9,1.4
	c0.1,0,0.2-0.1,0.4-0.2c0.7-0.3,1-1.4,1-1.8c0.2-0.9-0.1-1.7-0.7-2c-0.2-0.1-0.5-0.2-0.7-0.2c-0.6,0-1.1,0.4-1.2,1
	C183.4,101.6,183.4,102.2,183.7,102.8z M194.8,97.6c-0.1,0.1-0.1,0.1-0.1,0.2c-0.1,0.8,0.1,1.4,0.6,1.6c0.1,0.1,0.3,0.1,0.5,0.1
	c0.4,0,0.7-0.2,1.1-0.5c0.5-0.4,0.6-0.8,0.4-1.4c-0.2-0.6-0.7-0.9-1.3-0.9c-0.1,0-0.1,0-0.2,0.1C195.2,96.8,195,97.1,194.8,97.6z"/>
<path class="st4" d="M199.9,89.7c0.4,1.8,0.8,3.7,1.2,5.5c-0.1,0.3-0.2,0.6-0.4,1c-0.2,0.6-0.7,1-0.9,1.6c-0.1,0.4,0.1,0.9,0.6,0.9
	c0.6-0.1,0.9-0.9,1.1-1.4c0.1,0,0.1,0,0.1-0.1c0.5,2.3,0.9,4.6,1.2,6.9c0,0.3,0,0.6,0.1,0.8c-1,1.2-2.6,2.2-4,2.7
	c-1.5,0.5-3.1,0.4-4.3,1.4c-0.1,0.1-0.1,0.2,0,0.3c0.4,0.5,0.9,0.6,1.6,0.6c1,0,2.2-0.6,2.9-0.9c1.6-0.6,2.8-1.7,3.9-2.8
	c0.4,3.1,0.5,6.4-0.4,9.4c-1.6-0.2-3.1-0.6-4.6-1.1c-0.1,0-0.1,0-0.1,0c-0.3,0-0.3,0.4-0.1,0.5c1.5,0.6,3.1,0.9,4.6,1.1
	c0,0.1,0,0.1,0,0.1c-0.2,0.5-0.4,1-0.6,1.5c-0.4,0.1-0.7,0.1-1.1,0.1c-1.6,0-3-0.5-4.5-1.2c-1.4-0.6-2.8-1.1-4.2-1.1
	c-0.2,0-0.4,0-0.6,0c-0.2,0-0.3,0.2-0.3,0.4c0.7,1.5,2.9,1.8,4.3,2.1c2,0.3,4,0.5,5.9,0.5c-1,1.9-2.5,3.6-4.2,4.8
	c-0.2,0.2-0.5,0.3-0.7,0.5c-0.1,0.1-0.2,0.1-0.4,0.1c-2.2,0-4.4-1-6.3-2c-0.4-0.2-1.2-0.6-1.8-0.6c-0.3,0-0.6,0.1-0.6,0.6
	c-0.2,1.4,1.4,2.1,2.5,2.3c1,0.2,2,0.3,3,0.5c0.5,0.1,1,0.2,1.6,0.3c-1.7,0.6-3.7,1-5.6,1c-4.1,0-7.8-1.8-7.7-7.4
	c-0.1,0-2,1.2-4,1.2c-1.9,0-3.8-1.1-3.7-5.5c0.4,0.2,0.7,0.3,1,0.5c0.6,0.3,1.8,0.8,2.6,0.8c0.4,0,0.7-0.1,0.9-0.3
	c1.1-0.8-0.2-2.4-0.9-2.9c-1.1-0.6-2.1-1.1-3-2c-0.9-0.9-1.8-1.9-2.4-2.9c-0.2-1.6-0.2-3,0.2-4.5c0.9-3.2,3.6-5.4,6.4-7.1
	c0.1,0,0.1,0,0.1-0.1c-0.3,1-0.5,1.9-0.6,2.9c-0.1,1.8-0.4,3.5,0.1,5.3c0.2,1.1,1.4,4,2.9,4c0.1,0,0.1,0,0.2-0.1
	c1.8-0.3-0.5-3.2-0.8-3.8c-1.8-2.9-2-5.9-0.6-8.8c3.7-2,7.7-3.1,11.9-4c-1.2,1.7-2.2,3.5-2.9,5.4c-0.5,1.3-1.4,5.2,0.6,5.7
	c0.1,0,0.2,0,0.4,0c1.6,0,1.1-3.8,1.1-4.6c0.3-2.9,1.7-5.2,3.7-7.1c1.8-0.2,3.7-0.5,5.4-0.7c0,0,0,0,0.1,0
	C199.8,89.6,199.9,89.6,199.9,89.7z M194.4,90.8c-2,2.1-3.1,4.2-3.4,6.7c0,0.1,0,0.4,0,0.6c0.1,1.6,0.1,3.2-0.6,4
	c-0.3,0.2-0.6,0.4-0.9,0.4c-0.2,0-0.3,0-0.5,0c-0.6-0.2-1-0.5-1.2-1c-0.8-1.5-0.2-4.1,0.2-5.3c0.5-1.6,1.2-3,2.3-4.7
	c-4.2,0.9-7.6,2.1-10.5,3.7c-1.3,2.7-1,5.5,0.6,8.2c0.1,0.1,0.1,0.2,0.2,0.3c0.8,1.2,1.8,2.6,1.3,3.6c-0.1,0.2-0.4,0.6-0.9,0.6
	c-0.1,0.1-0.2,0.1-0.3,0.1c-1.9,0-3.1-3.4-3.3-4.3c-0.4-1.6-0.3-3-0.1-4.6c0-0.2,0-0.5,0-0.7c0.1-0.7,0.2-1.3,0.3-1.9
	c-2.1,1.4-4.4,3.4-5.3,6.4c-0.3,1.2-0.4,2.6-0.3,4.1c0.8,1.2,1.6,2,2.3,2.8c0.6,0.6,1.2,1,1.9,1.4c0.4,0.2,0.7,0.4,1,0.6
	c0.6,0.5,1.6,1.5,1.7,2.4c0,0.6-0.2,1-0.6,1.3c-0.3,0.2-0.7,0.4-1.2,0.4c-0.8,0-1.8-0.5-2.5-0.7l-0.3-0.1c-0.1-0.1-0.2-0.1-0.4-0.2
	c0.1,1.7,0.4,2.8,1.1,3.5c0.6,0.6,1.3,0.8,2.1,0.8c0.7,0,1.9-0.2,3.6-1.1c0.2,0,0.2-0.1,0.4-0.1h0.5v0.5c-0.1,2.1,0.5,3.8,1.7,5
	c1.6,1.6,4,1.9,5.6,1.9c1.2,0,2.4-0.2,3.6-0.5c-0.3-0.1-0.6-0.1-0.9-0.1c-0.6-0.1-1.2-0.2-1.8-0.3c-1.5-0.3-3-1.2-2.9-2.9
	c0.2-0.6,0.6-0.9,1.1-0.9c0.6,0,1.4,0.4,1.8,0.6l0.1,0.1c1.6,0.8,3.8,1.9,6.1,1.9c0.1,0,0.1,0,0.2,0c0.2-0.2,0.5-0.3,0.6-0.5
	c1.5-1,2.8-2.4,3.8-4c-1.9-0.1-3.7-0.3-5.2-0.5c-1.7-0.3-4-0.7-4.7-2.4c-0.1-0.3-0.1-0.5,0-0.6c0.1-0.2,0.4-0.4,0.6-0.4
	c0.2,0,0.5,0,0.6,0c1.5,0,2.9,0.4,4.4,1.2c1.5,0.7,2.9,1.1,4.3,1.1c0.2,0,0.5,0,0.7-0.1c0.1-0.2,0.2-0.5,0.4-0.7
	c-1.5-0.2-2.9-0.5-4.2-1c-0.3-0.2-0.5-0.5-0.4-0.8c0-0.4,0.3-0.6,0.6-0.6c0.1,0,0.1,0,0.2,0c1.4,0.6,2.7,0.9,4.1,1.1
	c0.7-2.7,0.6-5.4,0.4-8c-1,1-2.1,1.8-3.2,2.3c-0.8,0.4-2.1,0.9-3.2,0.9c-0.8,0-1.4-0.3-1.9-0.8c-0.1-0.1-0.2-0.3-0.2-0.5
	c0-0.2,0.1-0.3,0.3-0.5c0.9-0.7,1.9-0.9,3-1.2c0.5,0,0.9-0.1,1.4-0.3c1.4-0.5,2.8-1.3,3.6-2.4v-0.6c-0.3-1.8-0.6-3.6-0.9-5.7
	c-0.3,0.4-0.6,0.6-0.9,0.6c-0.1,0-0.1,0-0.1,0c-0.3,0-0.6-0.1-0.7-0.4c-0.3-0.3-0.4-0.7-0.3-1.1c0.2-0.4,0.4-0.7,0.6-1
	c0.1-0.3,0.3-0.5,0.4-0.6c0.1-0.3,0.2-0.6,0.3-0.9c-0.4-1.7-0.7-3.5-1.1-5.1C197.6,90.3,196.1,90.5,194.4,90.8z M183.2,101
	c0.1-0.7,0.6-1.3,1.4-1.3c0.3,0,0.6,0.1,0.9,0.3c0.6,0.5,1,1.3,0.8,2.3c-0.1,0.5-0.4,1.5-1.2,1.9c-0.1,0.1-0.3,0.1-0.5,0.1
	c-0.6,0-1-0.6-1.1-1.5C183.2,102.2,183.1,101.6,183.2,101z M191.2,108.7c0.3,0,0.6,0.2,0.8,0.4c0.6,0.6,0.8,1.4,0.3,2
	c-0.3,0.3-0.6,0.5-1,0.5c-0.2,0-0.5-0.1-0.6-0.2c-0.6-0.3-1-0.9-0.9-1.8c0.1-0.3,0.4-0.6,0.6-0.6
	C190.6,108.9,190.9,108.7,191.2,108.7z M183.8,118.2c0.2-0.2,0.5-0.4,0.8-0.4c0.4,0,0.7,0.3,0.9,0.6c0.4,0.6,0.1,1.3-0.4,1.6
	c-0.3,0.3-0.6,0.4-0.9,0.4c-0.3,0-0.6-0.1-0.7-0.3c-0.2-0.1-0.3-0.3-0.3-0.6c0-0.1,0-0.2,0.1-0.4
	C183.4,118.8,183.5,118.4,183.8,118.2z M195.7,96.5c0.1,0,0.2,0,0.3,0c0.7,0,1.3,0.4,1.6,1c0.2,0.6,0,1.2-0.6,1.7
	c-0.4,0.3-0.7,0.5-1.2,0.5c-0.2,0-0.4,0-0.6-0.1c-0.6-0.2-0.9-0.9-0.8-1.8c0.1-0.1,0.1-0.2,0.2-0.4C194.8,97,195.1,96.6,195.7,96.5z
	 M196.7,98.8c0.8-0.6,0.3-1.8-0.7-1.8c-0.1,0-0.1,0-0.2,0c-0.5,0.1-0.7,0.4-0.8,0.7c0,0,0,0.1-0.1,0.2c0,0.5,0,1,0.6,1.2
	c0.1,0.1,0.2,0.1,0.4,0.1C196.2,99.2,196.4,99,196.7,98.8z M184.9,103.8c0.6-0.3,0.8-1,0.9-1.6c0.1-0.6,0-1.5-0.6-1.8
	c-0.2-0.1-0.5-0.2-0.6-0.2c-0.5,0-0.8,0.3-0.9,0.8c-0.1,0.6,0.1,1.2,0.4,1.8c0,0,0,0,0,0.1c0,0.4,0.2,1,0.6,1
	C184.8,103.9,184.9,103.8,184.9,103.8z M190.4,109.6c-0.1,0-0.3,0.1-0.3,0.2c0,0.6,0.2,1,0.6,1.3c0.1,0.1,0.3,0.1,0.5,0.1
	c0.3,0,0.5-0.1,0.6-0.3c0.4-0.5,0.2-1.1-0.2-1.4c-0.2-0.2-0.4-0.3-0.6-0.3C190.9,109.2,190.7,109.4,190.4,109.6
	C190.5,109.6,190.5,109.6,190.4,109.6z M184.9,119.6c0.3-0.2,0.5-0.6,0.3-0.9c-0.2-0.3-0.4-0.4-0.6-0.4c-0.2,0-0.3,0.1-0.5,0.2
	c-0.3,0.3-0.4,0.6-0.4,0.8c-0.1,0.1-0.2,0.3,0,0.4c0.1,0.1,0.3,0.2,0.5,0.2C184.5,119.9,184.7,119.8,184.9,119.6z"/>
<path class="st10" d="M153.9,152.7c0.6-0.7,1.1-1.5,1.5-2.3c0.3-0.8,0.9-2.4-0.2-3.1c-0.1-0.1-0.1-0.1-0.2-0.1
	c-0.1,0-0.2,0.1-0.4,0.2c-0.4,0.6-0.5,1.3-0.6,1.9c0,0.3-0.1,0.6-0.2,0.9c-0.2,0.9-0.7,1.8-1.4,2.5l-0.5-0.1c-1.2,0-2.5-0.1-4-0.3
	c0.3-0.2,0.5-0.4,0.5-0.6c0-0.1,0-0.2-0.1-0.4c-0.1-0.1-0.3-0.2-0.6-0.2c-0.1,0-0.2,0-0.3,0c-0.3,0.1-0.5,0.3-0.6,0.5
	c-0.1,0.1-0.2,0.2-0.4,0.3c-0.2,0.1-0.4,0.1-0.6,0.2c-1.2-0.1-2.3-0.3-3.5-0.5c0.1-1.1,0.2-2.2,0.3-3.3c1.3-1.5,2.7-2.3,4.3-2.6
	c0.1,0,0.2,0,0.5,0c1.1-0.1,2.2-0.2,2.6-0.7c0.1-0.1,0.2-0.4,0.1-0.7c-0.2-0.4-0.6-0.8-1.6-0.8c-1,0-2.1,0.4-2.6,0.6
	c-1,0.4-2,1-3,1.8c0.4-2.9,1-5.1,1.9-7.1c0.9-0.4,1.8-0.6,2.8-0.6c0.9,0,1.8,0.2,2.8,0.6c0.1,0.1,0.1,0.1,0.2,0.1
	c0.5,0.3,1.4,0.7,2,0.7c0.4,0,0.6-0.2,0.7-0.6c0.1-1.3-2.3-1.9-2.9-2c-0.3,0-0.6,0-0.8,0c-0.7,0-1.5,0.1-2.1,0.2l-0.6,0.1
	c-0.5,0.1-1,0.2-1.4,0.3c0.8-1.5,2-3.1,4-3.8c0.8-0.2,1.7-0.4,2.6-0.4h0.3c0.8,0.5,1.5,0.8,2,1.3c0.4,0.4,0.6,0.7,0.9,1.2
	c0.2,0.2,0.4,0.4,0.6,0.6c0.3,0.4,0.9,0.8,1.6,0.8c0.3,0,0.6-0.2,0.7-0.5c0.5-0.6-0.1-1.7-0.5-2.2c0,0-0.2-0.4-0.2-0.5
	c0.1,0,0.2,0,0.4,0c1.3,0,2.1,0.3,2.5,0.9c0.5,0.7,0.4,1.9-0.2,3.3l-0.1,0.1l0.1,0.2v0.1h0.2c0.2,0,0.4,0,0.6,0
	c1.5,0,2.6,0.5,3.4,1.5c1.1,1.6,1.1,3.8,0.7,5.5c0-0.1,0-0.1,0-0.1c-0.1-0.3-0.1-0.6-0.2-0.8c-0.1-0.4-0.2-0.7-0.3-1.1
	c-0.2-0.8-0.7-1.7-1.7-1.7c-0.1,0-0.2,0-0.3,0.1c-0.3,0.1-0.5,0.2-0.5,0.4c-0.2,0.5,0.2,1,0.5,1.4c0.7,1,1.6,2.5,1.7,4
	c-0.1,0.1-0.2,0.3-0.3,0.5c-0.6,1-1.6,1.9-2.6,2.7c-0.1-1.3-0.4-2.4-0.6-3.4c-0.3-0.9-0.6-2.4-1.8-2.8h-0.1h-0.1
	c-0.2,0-0.4,0.2-0.4,0.4c0,1,0.3,2.1,1,3.1c0.6,1,1,2.1,0.9,3.2c-0.2,0.1-0.4,0.2-0.6,0.3c-0.2-0.9-0.6-1.8-0.9-2.7
	c-0.1-0.1-0.3-0.2-0.4-0.2c-0.2,0-0.3,0.1-0.4,0.2c-0.1,0.1-0.1,0.2,0,0.3c0.4,0.9,0.7,1.8,0.9,2.7c-1.4,0.5-2.9,0.6-5,0.6
	C154.2,152.7,154.1,152.7,153.9,152.7z M147.2,148.1c-0.3,0.1-0.6,0.4-0.6,0.7c0,0.2,0.1,0.5,0.3,0.7c0.2,0.2,0.5,0.3,0.6,0.3
	c0.3,0,0.6-0.1,0.7-0.4c0.3-0.4,0.4-0.7,0.2-1.1c-0.1-0.3-0.4-0.4-0.7-0.4c-0.1,0-0.2,0-0.4,0C147.4,148,147.3,148,147.2,148.1z
	 M154.8,144.8c-0.1,0.2-0.2,0.3-0.2,0.5c0,0.2,0.1,0.4,0.3,0.6c0.2,0.2,0.5,0.3,0.6,0.3c0.2,0,0.4-0.1,0.6-0.2
	c0.3-0.3,0.3-0.6,0.1-1c-0.2-0.3-0.5-0.5-0.8-0.5c-0.1,0-0.2,0-0.3,0c-0.1,0.1-0.2,0.1-0.3,0.2C154.8,144.6,154.8,144.7,154.8,144.8
	z M149.4,140.6c-0.1,0-0.2,0-0.4,0.1c-0.3,0.1-0.5,0.2-0.6,0.5c-0.1,0.3,0,0.6,0.2,0.9c0.2,0.3,0.6,0.5,1,0.5c0.1,0,0.3,0,0.5-0.1
	c0.2,0,0.9-0.3,1.1-0.7c0.1-0.3,0.1-0.5,0-0.6c-0.2-0.3-0.6-0.4-0.8-0.4h-0.1C149.9,140.7,149.7,140.6,149.4,140.6z M161.1,139.9
	c-0.2,0.1-0.5,0.2-0.6,0.4c-0.1,0.1-0.2,0.3-0.2,0.5c0.1,0.3,0.2,0.5,0.4,0.6c0.1,0,0.2,0,0.3,0c0.3,0,0.5-0.1,0.6-0.4
	c0.3-0.3,0.3-0.7,0-1c-0.1-0.1-0.2-0.1-0.3-0.1C161.2,139.8,161.1,139.8,161.1,139.9z"/>
<path class="st4" d="M152.5,133.1c0.6,0.4,1.4,0.8,2,1.3c0.6,0.6,1,1.2,1.6,1.8c0.2,0.4,0.8,0.7,1.4,0.7c0.2,0,0.4-0.1,0.6-0.3
	c0.4-0.6-0.2-1.7-0.6-2.2c-0.1-0.2-0.2-0.4-0.3-0.6c0.2-0.1,0.5-0.1,0.7-0.1c4.9,0,2.4,4.6,2.5,4.6c0.2,0,0.4,0,0.6,0
	c4.9,0,5.3,5,4.2,8.2c-0.1-0.3-0.2-0.6-0.3-1c-0.2-0.6-0.2-1.3-0.4-1.9c-0.2-0.6-0.6-1.4-1.5-1.4c-0.1,0-0.1,0-0.2,0
	c-0.8,0.2-0.1,1.1,0.2,1.5c0.7,1.2,1.6,2.7,1.6,4.1c-0.1,0.1-0.2,0.3-0.3,0.5c-0.7,1.2-1.8,2.2-2.9,2.9c-0.1-1.2-0.3-2.5-0.6-3.7
	c-0.2-0.9-0.6-2.3-1.6-2.7c-0.1,0-0.1,0-0.1,0c-0.1,0-0.2,0.1-0.2,0.2c0,1.1,0.5,2.1,1,2.9c0.7,1.1,1,2.3,1,3.5
	c-0.3,0.2-0.6,0.3-0.9,0.5c-0.1,0-0.1,0-0.1,0c-0.2-1-0.5-1.9-1-2.9c0-0.1,0-0.1-0.1-0.1c-0.1,0-0.2,0.1-0.2,0.2
	c0.5,0.9,0.8,1.9,1,2.9c-1.7,0.6-3.5,0.8-5.3,0.8c-0.4,0-0.7,0-1-0.1c0.7-0.7,1.3-1.6,1.7-2.6c0.4-0.8,0.9-2.2,0-2.9
	c-0.1,0-0.1,0-0.1,0c-0.1,0-0.1,0-0.2,0c-0.6,0.8-0.5,1.8-0.6,2.8c-0.3,1-0.8,2-1.6,2.7c-0.2,0-0.4,0-0.6,0
	c-1.5-0.1-3.1-0.2-4.6-0.4c0-0.1,0-0.1,0-0.1c0.3-0.1,0.8-0.4,0.9-0.7c0-0.3-0.3-0.4-0.5-0.4c-0.1,0-0.1,0-0.2,0.1
	c-0.4,0.1-0.6,0.5-1,0.6c-0.2,0.1-0.5,0.2-0.6,0.3c-1.2-0.2-2.5-0.3-3.7-0.5c-0.1-0.1-0.2-0.2-0.2-0.2c0.1-1.2,0.2-2.3,0.3-3.5
	c1.2-1.4,2.7-2.4,4.5-2.7c0.6-0.1,3.4,0,2.9-1.2c-0.2-0.5-0.6-0.6-1.3-0.6c-0.9,0-1.9,0.4-2.5,0.6c-1.3,0.5-2.4,1.2-3.5,2
	c0.4-2.6,0.9-5.3,2.1-7.6c0.9-0.6,1.9-0.8,2.9-0.8c1,0,1.9,0.2,2.9,0.7c0.4,0.2,1.4,0.8,2.1,0.8c0.3,0,0.5-0.1,0.5-0.5
	c0.2-1-1.9-1.7-2.7-1.8c-0.3-0.1-0.6-0.1-0.8-0.1c-0.9,0-1.8,0.2-2.7,0.3c-0.7,0.1-1.3,0.3-1.9,0.6c0.1,0,0.1,0,0.1-0.1
	c0.9-1.8,2.3-3.7,4.4-4.3c0.8-0.3,1.8-0.5,2.6-0.5C152.2,133,152.4,133,152.5,133.1z M149.6,133.9c-1.7,0.6-2.8,1.8-3.6,3.1
	c0.3-0.1,0.6-0.1,0.9-0.2c0.1,0,0.3,0,0.5,0c0.7-0.2,1.5-0.3,2.2-0.3c0.3,0,0.6,0,0.8,0.1c0.9,0.1,3.3,0.8,3.1,2.2
	c0,0.6-0.4,0.9-0.9,0.9c-0.6,0-1.5-0.4-2.1-0.7c-0.1-0.1-0.1-0.1-0.2-0.2c-0.9-0.4-1.8-0.6-2.7-0.6c-0.9,0-1.8,0.2-2.6,0.6
	c-0.8,1.8-1.5,3.9-1.8,6.4c0.9-0.6,1.8-1.1,2.8-1.5c0.4-0.2,1.6-0.6,2.6-0.6c1.1,0,1.6,0.6,1.8,0.9c0.2,0.5,0,0.7-0.1,0.9
	c-0.5,0.7-1.7,0.8-2.8,0.9c-0.2,0-0.3,0-0.5,0c-1.6,0.3-2.9,1-4.1,2.4c-0.1,1-0.2,1.9-0.2,3c1,0.2,2.1,0.3,3.2,0.5
	c0.2-0.1,0.4-0.2,0.6-0.3c0.1-0.1,0.2-0.1,0.4-0.2c0.2-0.2,0.4-0.4,0.6-0.5c0.1-0.1,0.2-0.1,0.4-0.1c0.3,0,0.6,0.1,0.6,0.3
	c0.2,0.2,0.3,0.4,0.3,0.6c-0.1,0.2-0.1,0.3-0.2,0.5c1.2,0.2,2.4,0.2,3.4,0.3h0.3h0.1c0.6-0.6,1.1-1.5,1.3-2.3
	c0.1-0.2,0.1-0.5,0.2-0.8c0-0.7,0.1-1.5,0.6-2.1c0.1-0.1,0.3-0.2,0.6-0.2c0.1,0,0.2,0,0.4,0.1c1.2,0.8,0.6,2.6,0.2,3.4
	c-0.2,0.7-0.6,1.4-1.1,2c1.9,0,3.4-0.2,4.7-0.6c-0.2-0.8-0.5-1.6-0.8-2.4c-0.1-0.2-0.1-0.4,0-0.6c0.1-0.2,0.3-0.3,0.6-0.3
	c0.2,0,0.5,0.2,0.6,0.4c0.4,0.8,0.6,1.6,0.8,2.4c0.1,0,0.2,0,0.3-0.1c0-1-0.3-2-0.9-2.9c-0.7-1-1.1-2.1-1.1-3.2
	c0-0.4,0.3-0.6,0.6-0.6c0.1,0,0.1,0,0.2,0.1c1.3,0.4,1.7,1.9,1.9,2.9c0.3,0.9,0.5,1.9,0.6,3c0.9-0.6,1.7-1.5,2.2-2.4
	c0.1-0.1,0.1-0.2,0.2-0.3c-0.1-1.5-0.9-2.9-1.6-3.8v-0.1c-0.3-0.4-0.7-1-0.6-1.6c0.1-0.2,0.3-0.5,0.7-0.6c0.1,0,0.2,0,0.3,0
	c1,0,1.7,0.9,1.8,1.8c0.1,0.2,0.2,0.5,0.2,0.8c0.2-1.5-0.1-3-0.8-4.1c-0.7-1-1.8-1.5-3.3-1.5c-0.2,0-0.4,0-0.6,0l-0.3,0.1l-0.2-0.3
	c-0.1-0.2,0-0.4,0-0.5c0.6-1.3,0.7-2.5,0.3-3.1c-0.4-0.6-1.1-0.8-2.3-0.8l0.1,0.1c0.3,0.6,0.9,1.8,0.4,2.6c-0.2,0.3-0.6,0.5-0.9,0.5
	c-0.7,0-1.5-0.6-1.8-0.9c-0.2-0.2-0.4-0.4-0.6-0.6c-0.3-0.4-0.6-0.7-0.9-1.1c-0.6-0.4-1.1-0.8-1.9-1.3c-0.1,0-0.1,0-0.2,0
	C151.2,133.4,150.4,133.6,149.6,133.9z M148.3,142.2c-0.3-0.3-0.4-0.7-0.2-1.1c0.1-0.3,0.4-0.6,0.8-0.6c0.1,0,0.2,0,0.4,0
	c0.3,0,0.6,0.1,0.9,0.2c0.3,0,0.8,0.1,1,0.5c0.1,0.2,0.2,0.5,0.1,0.7c-0.3,0.6-1,0.8-1.4,0.9c-0.2,0-0.3,0-0.5,0
	C149,142.7,148.6,142.6,148.3,142.2z M154.6,144.5c0.1-0.2,0.2-0.3,0.5-0.3c0.1-0.1,0.2-0.1,0.3-0.1c0.5,0,0.8,0.3,1,0.6
	c0.3,0.4,0.2,0.9-0.1,1.3c-0.2,0.1-0.4,0.2-0.7,0.3c-0.3,0-0.6-0.2-0.8-0.4c-0.2-0.2-0.3-0.4-0.4-0.7c0-0.2,0.1-0.4,0.2-0.6
	C154.6,144.6,154.6,144.6,154.6,144.5z M147.3,147.8c0.2-0.1,0.3-0.1,0.5-0.1c0.5,0,0.8,0.2,0.9,0.6c0.2,0.5,0.2,0.9-0.2,1.3
	c-0.2,0.4-0.6,0.6-0.9,0.6c-0.3,0-0.6-0.2-0.8-0.5c-0.3-0.2-0.4-0.6-0.3-0.8c0-0.5,0.3-0.7,0.6-0.9
	C147.2,147.8,147.3,147.8,147.3,147.8z M161.3,139.6c0.2,0,0.3,0.1,0.5,0.2c0.3,0.4,0.3,0.8,0,1.3c-0.2,0.3-0.6,0.5-0.8,0.5
	c-0.1,0-0.2,0-0.4-0.1c-0.3-0.2-0.5-0.4-0.5-0.6c-0.1-0.3,0-0.6,0.2-0.7c0.2-0.2,0.4-0.3,0.6-0.4
	C161.1,139.6,161.2,139.6,161.3,139.6z M161.4,140.8c0.2-0.3,0.2-0.6,0-0.7c-0.1,0-0.1,0-0.1,0c-0.1,0-0.1,0-0.2,0.1
	c-0.2,0-0.4,0.1-0.5,0.2c-0.2,0.2-0.2,0.6,0.1,0.6c0.1,0.1,0.1,0.1,0.2,0.1C161.1,141.1,161.3,140.9,161.4,140.8z M149.9,142.3
	c0.4-0.1,0.8-0.3,1-0.6c0.2-0.5-0.4-0.6-0.6-0.6c-0.1,0-0.1,0-0.1,0c-0.3-0.1-0.6-0.2-0.8-0.2c-0.1,0-0.2,0-0.3,0
	c-0.6,0.1-0.6,0.6-0.4,1c0.2,0.3,0.5,0.4,0.8,0.4C149.7,142.3,149.8,142.3,149.9,142.3z M155.9,145.7c0.2-0.2,0.2-0.5,0.1-0.7
	c-0.1-0.2-0.4-0.4-0.6-0.4c-0.1,0-0.1,0-0.2,0.1c-0.2,0-0.2,0.1-0.1,0.2c-0.3,0.2-0.3,0.6-0.1,0.7c0.2,0.2,0.4,0.3,0.6,0.3
	C155.7,145.9,155.8,145.8,155.9,145.7z M148.2,149.3c0.2-0.2,0.3-0.6,0.2-0.8c-0.1-0.2-0.4-0.3-0.6-0.3c-0.1,0-0.2,0-0.3,0
	c-0.1,0.1-0.1,0.1-0.2,0.1c-0.2,0.1-0.4,0.3-0.4,0.6c-0.1,0.5,0.3,0.8,0.6,0.8C147.9,149.7,148.1,149.6,148.2,149.3z"/>
<path class="st5" d="M203.7,133.2c-0.2,0.1-0.4,0.2-0.6,0.4c-0.9,0.3-1.8,0.4-2.8,0.4c-1.1-0.1-2.1-0.5-3.2-0.6
	c-0.7-0.1-3.1,0-2.6,1.6c0.4,0.9,1.8,1.1,2.9,1.2c-0.5,0.2-1,0.4-1.6,0.7c-1.3,0.6-2.2,1.7-3.1,2.8c-0.8,0.3-1.7,0.6-2.5,0.6
	c-0.7,0-1.2-0.4-1.8-0.6c-0.6-0.2-1.3-0.2-1,0.6c0.3,0.9,1.6,1,2.3,1c0.6,0,1.1,0,1.7-0.1c-0.6,0.6-1.4,1-2.2,1.2
	c-2.5,0.4-4.3-1.8-4.2-4.2c-2.6,1.9-5.8,1.2-7.9-0.9c-0.9-1-1.4-2.1-1.3-3.5c1.4,1.5,3.8,3.5,4.9,1.8c0.6-0.8-0.6-1.5-1.1-1.8
	c-1.1-0.6-2.4-1-3.4-1.8c0.3-1.5,0.7-3,1.3-4.4c0.6-1.5,1.2-2.9,2.1-4.1c0.1,2.1,0.3,4.3,0.9,6.4c0.2,0.6,0.6,2.2,1.6,1.4
	c1.2-1.2-0.1-3.3-0.6-4.4c-0.6-1.7-0.6-3.4-0.5-5.2c0.5-0.5,1-1,1.6-1.4c1.8-1.2,3.8-1.9,5.8-2.3c-0.2,0.6-0.5,1.1-0.6,1.8
	c-0.5,1.3-1.1,3.1-0.8,4.6c0.2,0.7,1.2,1.6,1.8,0.6c0.3-0.6,0-1.5,0.1-2.1c0.2-1.8,1.1-3.5,1.8-5.1c0.1-0.1,0.1-0.1,0.1-0.1
	c0.3-0.1,0.6-0.1,0.8-0.1c1.7-0.2,3.4-0.2,5.1,0c-0.9,0.7-1.7,1.8-1.6,3c0,1,0.7,2.3,1.8,2c1.7-0.5,1.9-3,1.7-4.7
	c1.1,0.2,2.2,0.6,3.1,1c1.5,0.7,2.5,1.8,3.1,3.1c-1.3,1.7-2.9,2.8-4.7,3.9c-0.4,0.3-1.8,1.2-0.9,1.8c0.6,0.6,2-0.7,2.6-1.2
	c1.3-1,2.2-2.5,3.2-3.9c0.4,0.9,0.6,1.8,0.7,2.9c0.1,1.2,0.1,2.7-0.1,4.1c-1.8-0.1-3.8-1.8-5.4-0.3c-0.2,0.1-0.1,0.3,0,0.4
	c0.9,0.7,2.5,0.6,3.6,0.6c0.6,0.1,1.1,0.1,1.6,0.2C205,131.4,204.5,132.4,203.7,133.2z M187,130.1c0.1-0.6-0.1-1.2-0.5-1.7
	c-0.2-0.2-0.4-0.3-0.6-0.2c-0.3,0.1-0.5,0.5-0.6,0.7c0,0.1,0,0.1,0,0.1c-0.2,0.5-0.3,0.8-0.2,1.3c0,0.5,0.3,1,0.7,1
	C186.5,131.4,186.9,130.7,187,130.1z M193.2,125.9c0.6-0.4,0.7-1,0.5-1.6c-0.3-0.6-0.7-0.6-1.2-0.3c-0.1,0-0.1,0-0.1,0
	c-0.5,0.4-0.6,1-0.4,1.6C192.2,126.1,192.8,126.3,193.2,125.9z M189.5,135.3c-0.2,0.1-0.1,0.2-0.1,0.3c-0.1,0.5-0.1,1,0.2,1.3
	c0.5,0.5,1.1,0.3,1.4-0.3C191.6,135.6,190.4,134.5,189.5,135.3z"/>
<path d="M179.7,145.1c0.1-0.1,0.1-0.2,0.2-0.4c2.1-4.4,5.3-8.3,9.1-11.3c0.4-0.3,1,0.3,0.6,0.6c-3.8,2.9-6.8,6.7-8.9,11.1
	c-0.1,0.2-0.2,0.5-0.3,0.7c-0.4,0.9-0.8,1.7-1.1,2.6c-0.2,0-0.5,0-0.8,0C178.7,147.4,179.1,146.2,179.7,145.1z"/>
<path d="M174.4,145c0.3-1.8,0.6-3.7,1-5.5c1.1-4.8,2.3-9.6,3.6-14.3c1.1-4.1,2.4-8,4.8-11.3c0.4-0.5,1.1,0,0.7,0.4
	c-2.6,3.6-3.8,7.7-4.9,11.9c-1.1,4.2-2.2,8.5-3.2,12.8c-0.4,2-0.8,4.1-1.2,6.1c-0.2,1.2-0.4,2.4-0.6,3.6c-0.3,0-0.6,0-0.8,0
	C174,147.4,174.2,146.2,174.4,145z"/>
<path d="M164.4,128.6c1.3,2.6,2.3,5.3,3.1,7.9c0.1,0.4,0.2,0.9,0.4,1.4c0.6,2.4,1.1,4.8,1.6,7.3c0.2,1.1,0.3,2.2,0.5,3.3
	c-0.3,0-0.6,0-0.9-0.1c-0.1-1-0.3-2.1-0.5-3.2c-0.4-2.8-1-5.5-1.8-8.1c-0.1-0.4-0.2-0.7-0.3-1c-0.7-2.4-1.7-4.7-2.9-7
	C163.5,128.5,164.2,128.1,164.4,128.6z"/>
<path d="M155.3,141.4c1.5-1,3.1-2.1,4.6-3c1.2-0.8,2.4-1.8,3.7-2.3c0.9-0.4,1.9-0.4,2.9,0c0.3,0.1,0.6,0.3,1,0.5
	c0.4,0.2,0.7,0.6,1.1,0.9c1.8,1.9,2.7,4.7,3,7.6c0.1,1.1,0.2,2.3,0.3,3.5c-0.3-0.1-0.6-0.1-0.8-0.1c-0.1-1.1-0.2-2.3-0.3-3.4
	c-0.3-2.1-0.8-4.1-1.8-5.8c-0.3-0.5-0.6-1-1.1-1.4c-0.3-0.4-0.7-0.6-1.1-0.8c-0.1-0.1-0.3-0.1-0.5-0.2c-1.5-0.6-2.7,0-4,0.8
	c-2.2,1.5-4.3,2.9-6.5,4.4C155.3,142.4,154.9,141.6,155.3,141.4z"/>
<path d="M172.5,189.8h-60c-1.6,0-2.9-1.4-2.9-3v-42.4c0-1.6,1.4-2.9,2.9-2.9h60c1.7,0,2.9,1.4,2.9,2.9v42.4
	C175.4,188.4,174.1,189.8,172.5,189.8z"/>
<path class="st6" d="M109.9,190c-1.8,0-3.2-1.4-3.2-3.2v-42.4c0-1.8,1.5-3.1,3.2-3.1h60c1.8,0,3.1,1.4,3.1,3.1v42.4
	c0,1.8-1.4,3.2-3.1,3.2H109.9z"/>
<path class="st4" d="M173.3,144.4v42.4c0,1.9-1.6,3.5-3.4,3.5h-60c-1.8,0-3.4-1.6-3.4-3.5v-42.4c0-1.8,1.6-3.4,3.4-3.4h60
	C171.7,141,173.3,142.6,173.3,144.4z M109.9,141.5c-1.7,0-2.9,1.4-2.9,2.9v42.4c0,1.7,1.3,3,2.9,3h60c1.6,0,2.9-1.4,2.9-3v-42.4
	c0-1.6-1.4-2.9-2.9-2.9H109.9z"/>
<path class="st2" d="M118,189.8h-0.6V151h0.6V189.8z"/>
<path class="st2" d="M172.8,161.9H107v-0.6h65.9V161.9z"/>
<path class="st2" d="M172.8,171.3H107v-0.6h65.9V171.3z"/>
<path class="st2" d="M172.8,180.7H107v-0.5h65.9V180.7z"/>
<path class="st2" d="M129,189.8h-0.5V151h0.5V189.8z"/>
<path class="st2" d="M140,189.8h-0.6V151h0.6V189.8z"/>
<path class="st2" d="M151,189.8h-0.5V151h0.5V189.8z"/>
<path class="st2" d="M162.1,189.8h-0.6V151h0.6V189.8z"/>
<path d="M132.9,169.1H132v-3.6c-0.4,0.4-0.8,0.6-1.2,0.7v-0.8c0.2-0.1,0.5-0.3,0.7-0.5c0.3-0.2,0.5-0.5,0.6-0.8h0.7V169.1z"/>
<path class="st4" d="M137.6,165.4l-0.9,0.1c0-0.2-0.1-0.3-0.2-0.5c-0.1-0.1-0.2-0.1-0.3-0.1c-0.2,0-0.4,0.1-0.6,0.3
	c-0.1,0.1-0.2,0.5-0.3,1.1c0.2-0.3,0.6-0.5,0.9-0.5c0.4,0,0.7,0.2,1,0.5c0.2,0.3,0.4,0.7,0.4,1.2c0,0.5-0.2,0.9-0.5,1.2
	c-0.2,0.3-0.6,0.5-1.1,0.5c-0.5,0-0.9-0.2-1.2-0.6c-0.3-0.4-0.5-1.1-0.5-1.9c0-0.9,0.2-1.6,0.5-1.9c0.3-0.4,0.7-0.6,1.3-0.6
	c0.4,0,0.7,0.1,0.9,0.4C137.3,164.7,137.5,165,137.6,165.4z M135.4,167.4c0,0.3,0.1,0.6,0.2,0.7c0.2,0.1,0.4,0.2,0.6,0.2
	c0.1,0,0.2-0.1,0.4-0.2s0.2-0.3,0.2-0.6c0-0.3-0.1-0.6-0.2-0.7c-0.1-0.1-0.3-0.2-0.5-0.2c-0.2,0-0.3,0.1-0.5,0.2
	S135.4,167.1,135.4,167.4z"/>
<path class="st7" d="M154.8,169.1h-0.9v-3.6c-0.4,0.4-0.8,0.6-1.2,0.7v-0.8c0.2-0.1,0.5-0.3,0.7-0.5c0.3-0.2,0.5-0.5,0.6-0.8h0.7
	V169.1z"/>
<path class="st3" d="M157,166.4c-0.2-0.1-0.4-0.3-0.5-0.5c-0.1-0.1-0.2-0.3-0.2-0.6c0-0.4,0.1-0.7,0.4-0.9c0.2-0.2,0.6-0.4,1.1-0.4
	c0.4,0,0.8,0.1,1.1,0.4c0.2,0.2,0.4,0.6,0.4,0.9c0,0.2-0.1,0.5-0.2,0.6c-0.1,0.2-0.3,0.3-0.5,0.4c0.2,0.1,0.4,0.3,0.6,0.5
	c0.2,0.2,0.3,0.5,0.3,0.7c0,0.5-0.2,0.9-0.5,1.1c-0.3,0.3-0.7,0.5-1.2,0.5c-0.4,0-0.8-0.1-1.1-0.4c-0.4-0.2-0.6-0.6-0.6-1.1
	c0-0.3,0.1-0.6,0.3-0.7C156.6,166.7,156.8,166.5,157,166.4z M157.2,167.6c0,0.2,0.1,0.4,0.2,0.6c0.1,0.2,0.3,0.3,0.5,0.3
	c0.2,0,0.3-0.1,0.5-0.3c0.1-0.1,0.2-0.3,0.2-0.6s-0.1-0.4-0.2-0.6c-0.1-0.2-0.3-0.3-0.5-0.3c-0.2,0-0.4,0.1-0.6,0.3
	C157.2,167.3,157.2,167.4,157.2,167.6z M157.3,165.5c0,0.2,0,0.3,0.1,0.5c0.1,0.1,0.3,0.1,0.5,0.1c0.2,0,0.3-0.1,0.5-0.2
	c0.1-0.1,0.1-0.2,0.1-0.4c0-0.2,0-0.3-0.1-0.5c-0.1-0.1-0.3-0.2-0.5-0.2c-0.2,0-0.3,0.1-0.5,0.2
	C157.3,165.2,157.3,165.3,157.3,165.5z"/>
<path class="st7" d="M144.9,177.9v0.8h-3.3c0-0.3,0.1-0.6,0.3-0.9c0.2-0.3,0.6-0.7,1.1-1.2c0.4-0.4,0.7-0.6,0.7-0.7
	c0.1-0.2,0.2-0.5,0.2-0.6s0-0.3-0.1-0.5c-0.1-0.1-0.3-0.2-0.5-0.2c-0.2,0-0.4,0.1-0.6,0.2c-0.1,0.1-0.1,0.3-0.2,0.6l-0.9-0.2
	c0.1-0.5,0.2-0.9,0.6-1.1c0.3-0.2,0.7-0.3,1.1-0.3c0.5,0,0.9,0.1,1.1,0.4c0.3,0.2,0.5,0.6,0.5,1c0,0.2-0.1,0.4-0.2,0.6
	c-0.1,0.2-0.2,0.5-0.4,0.6c-0.1,0.2-0.2,0.4-0.6,0.6c-0.3,0.3-0.5,0.5-0.6,0.6c-0.1,0.1-0.2,0.2-0.3,0.3H144.9z"/>
<path class="st7" d="M145.5,177.4l0.9-0.1c0.1,0.2,0.2,0.4,0.3,0.6c0.1,0.1,0.3,0.2,0.5,0.2c0.2,0,0.3-0.1,0.5-0.3
	c0.1-0.1,0.2-0.3,0.2-0.6c0-0.2-0.1-0.4-0.2-0.6c-0.1-0.2-0.3-0.3-0.5-0.3c-0.1,0-0.2,0-0.4,0.1l0.1-0.7c0.2,0,0.4-0.1,0.6-0.2
	c0.1-0.1,0.2-0.3,0.2-0.5c0-0.2,0-0.3-0.1-0.4c-0.1-0.1-0.3-0.2-0.5-0.2c-0.1,0-0.2,0.1-0.4,0.2c-0.1,0.1-0.2,0.3-0.2,0.5l-0.9-0.1
	c0.1-0.3,0.2-0.6,0.3-0.7c0.1-0.2,0.3-0.3,0.6-0.5c0.2-0.1,0.4-0.1,0.7-0.1c0.4,0,0.8,0.1,1.1,0.4c0.2,0.2,0.3,0.5,0.3,0.8
	c0,0.4-0.2,0.8-0.6,1.1c0.2,0.1,0.5,0.2,0.6,0.4c0.2,0.2,0.3,0.4,0.3,0.7c0,0.4-0.2,0.8-0.5,1.1c-0.3,0.3-0.7,0.5-1.2,0.5
	c-0.4,0-0.8-0.1-1.1-0.4C145.7,178.2,145.5,177.8,145.5,177.4z"/>
<path d="M122.9,186.7v0.8h-3.3c0.1-0.3,0.2-0.6,0.4-0.9c0.2-0.3,0.5-0.7,1-1.2c0.4-0.4,0.7-0.6,0.8-0.8c0.1-0.2,0.2-0.4,0.2-0.6
	c0-0.2-0.1-0.3-0.2-0.5c-0.1-0.1-0.3-0.2-0.5-0.2c-0.2,0-0.3,0.1-0.5,0.2c-0.1,0.1-0.2,0.3-0.2,0.6l-1-0.1c0.1-0.5,0.2-0.9,0.6-1.1
	c0.3-0.2,0.7-0.3,1.1-0.3c0.5,0,0.9,0.1,1.2,0.4c0.2,0.2,0.4,0.6,0.4,1c0,0.2,0,0.4-0.1,0.6c-0.1,0.2-0.2,0.5-0.4,0.6
	c-0.1,0.2-0.3,0.4-0.6,0.6s-0.5,0.4-0.6,0.6c-0.1,0.1-0.1,0.2-0.2,0.3H122.9z"/>
<path d="M123.6,183.6v-0.8h3.2v0.6c-0.2,0.2-0.5,0.6-0.8,1.1c-0.2,0.5-0.4,1-0.6,1.6c-0.2,0.6-0.3,1-0.3,1.5h-0.9
	c0.1-0.7,0.2-1.4,0.5-2c0.2-0.7,0.6-1.4,1-1.9H123.6z"/>
<path class="st2" d="M111.3,169.1h-1v-3.6c-0.3,0.4-0.7,0.6-1.2,0.7v-0.8c0.2-0.1,0.5-0.3,0.8-0.5c0.2-0.2,0.4-0.5,0.6-0.8h0.8
	V169.1z"/>
<path class="st5" d="M114.5,169.1v-1h-2v-0.8l2.1-3.1h0.8v3.1h0.6v0.8h-0.6v1H114.5z M114.5,167.3v-1.7l-1.1,1.7H114.5z"/>
<path class="st2" d="M172.8,152.1H107v-7.6c0-1.6,1.3-2.9,2.9-2.9h60c1.6,0,2.9,1.4,2.9,2.9V152.1z"/>
<path class="st7" d="M120.1,190c0,0.4-0.3,0.6-0.6,0.6l-4,0.1H97.2c-0.4,0-0.6-0.2-0.6-0.6v-1.9c0-0.4,0.2-0.6,0.5-0.6l1.9-0.1h16.4
	h4.1c0.1,0,0.1,0,0.2,0c0.2,0.1,0.4,0.3,0.4,0.6V190z"/>
<path class="st4" d="M97.2,190.7c-0.4,0-0.6-0.3-0.6-0.6l-0.1-1.9c0-0.4,0.4-0.7,0.6-0.7h22.4c0.1,0,0.1,0,0.2,0
	c0.3,0.1,0.5,0.4,0.5,0.6v1.9c0,0.4-0.3,0.7-0.6,0.7H97.2z M119.5,187.5l-22.3,0.1c-0.3,0-0.5,0.2-0.5,0.5v1.9
	c0,0.3,0.2,0.5,0.5,0.5h22.3c0.3,0,0.5-0.3,0.5-0.5v-2c0-0.2-0.1-0.4-0.3-0.5C119.6,187.5,119.6,187.5,119.5,187.5z"/>
<path class="st7" d="M122.2,187c0,0.3-0.3,0.6-0.6,0.6h-1.9h-4.1l-16.3,0.1c-0.1,0-0.1,0-0.2-0.1c-0.2,0-0.4-0.3-0.4-0.5v-2
	c0-0.3,0.3-0.6,0.6-0.6h14.8h7.6c0.3-0.1,0.6,0.2,0.6,0.5V187z"/>
<path class="st4" d="M99.2,187.7c-0.1,0-0.1,0-0.2-0.1c-0.3-0.1-0.5-0.3-0.5-0.6v-2c0-0.2,0.1-0.3,0.2-0.5c0.1-0.1,0.3-0.2,0.5-0.2
	l22.4-0.1c0.1,0,0.3,0.1,0.5,0.2c0.1,0.2,0.2,0.3,0.2,0.5v2c0,0.4-0.3,0.6-0.6,0.6L99.2,187.7z M121.5,184.6l-22.3,0.1
	c-0.1,0-0.2,0-0.4,0.1c-0.1,0.1-0.1,0.2-0.1,0.3v2c0,0.2,0.1,0.4,0.3,0.5c0.1,0,0.1,0,0.2,0l22.3-0.1c0.3,0,0.5-0.2,0.5-0.5V185
	c0-0.1-0.1-0.2-0.2-0.4C121.7,184.6,121.6,184.6,121.5,184.6z"/>
<path class="st7" d="M120.7,183.8c0,0.4-0.3,0.6-0.6,0.6h-6.1H97.8c-0.3,0-0.6-0.2-0.6-0.6V182c0-0.3,0.2-0.5,0.4-0.6
	c0.1,0,0.1,0,0.2,0l13.3-0.1h7.6h1.5c0.3,0,0.6,0.2,0.6,0.6V183.8z"/>
<path class="st4" d="M97.8,184.6c-0.3,0-0.6-0.3-0.6-0.6V182c0-0.3,0.2-0.6,0.5-0.6c0.1-0.1,0.1-0.1,0.2,0l22.4-0.1
	c0.3,0,0.6,0.3,0.6,0.6v1.9c0,0.2-0.1,0.3-0.2,0.5c-0.1,0.2-0.3,0.3-0.5,0.3H97.8z M120.1,181.4l-22.3,0.1c-0.1,0-0.1,0-0.2,0
	c-0.2,0.1-0.3,0.3-0.3,0.5v2c0,0.2,0.2,0.4,0.5,0.4H114h0.1h6c0.3,0,0.5-0.3,0.5-0.5v-2C120.5,181.5,120.3,181.4,120.1,181.4z"/>
<path class="st7" d="M120.1,171.6c0,0.3-0.3,0.6-0.6,0.6h-4H97.2c-0.4,0-0.6-0.2-0.6-0.6v-1.9c0-0.4,0.2-0.6,0.5-0.6H99l16.4-0.1
	h4.1c0.1,0,0.1,0,0.2,0c0.2,0.1,0.4,0.3,0.4,0.6V171.6z"/>
<path class="st4" d="M97.2,172.2c-0.4,0-0.6-0.3-0.6-0.6l-0.1-1.9c0-0.4,0.4-0.6,0.6-0.6l22.4-0.1c0.1,0,0.1,0,0.2,0
	c0.3,0.1,0.5,0.4,0.5,0.6v2c0,0.3-0.3,0.6-0.6,0.6H97.2z M119.5,169l-22.3,0.1c-0.3,0-0.5,0.2-0.5,0.5v2c0,0.2,0.2,0.4,0.5,0.4h22.3
	c0.3,0,0.5-0.2,0.5-0.5v-2c0-0.2-0.1-0.4-0.3-0.4C119.6,169,119.6,169,119.5,169z"/>
<path class="st7" d="M122.2,168.5c0,0.4-0.3,0.6-0.6,0.6h-1.9h-4.1l-16.3,0.1c-0.1,0-0.1,0-0.2,0c-0.2-0.1-0.4-0.3-0.4-0.6v-2
	c0-0.3,0.3-0.6,0.6-0.6h14.8h7.6c0.3,0,0.6,0.2,0.6,0.6V168.5z"/>
<path class="st4" d="M99.2,169.2c-0.1,0-0.1,0-0.2,0c-0.3-0.2-0.5-0.4-0.5-0.6v-2c0-0.2,0.1-0.3,0.2-0.5c0.1-0.1,0.3-0.2,0.5-0.2
	h22.4c0.1,0,0.3,0.1,0.5,0.2c0.1,0.1,0.2,0.3,0.2,0.5v1.9c0,0.4-0.3,0.6-0.6,0.6L99.2,169.2z M121.5,166.1l-22.3,0.1
	c-0.1,0-0.2,0-0.4,0.1c-0.1,0.1-0.1,0.2-0.1,0.4v1.9c0,0.2,0.1,0.4,0.3,0.5c0.1,0,0.1,0,0.2,0l22.3-0.1c0.3,0,0.5-0.2,0.5-0.5v-1.9
	c0-0.1-0.1-0.2-0.2-0.4C121.7,166.1,121.6,166.1,121.5,166.1z"/>
<path class="st7" d="M120.7,165.4c0,0.3-0.3,0.6-0.6,0.6h-6.1H97.8c-0.3,0-0.6-0.2-0.6-0.6v-1.9c0-0.3,0.2-0.5,0.4-0.6
	c0.1,0,0.1,0,0.2,0l13.3-0.1h7.6h1.5c0.3,0,0.6,0.3,0.6,0.6V165.4z"/>
<path class="st4" d="M97.8,166.1c-0.3,0-0.6-0.3-0.6-0.6v-1.9c0-0.3,0.2-0.6,0.5-0.6c0.1,0,0.1,0,0.2,0l22.4-0.1
	c0.3,0,0.6,0.3,0.6,0.6v2c0,0.1-0.1,0.3-0.2,0.5c-0.1,0.1-0.3,0.2-0.5,0.2H97.8z M120.1,162.8l-22.3,0.1c-0.1,0-0.1,0-0.2,0
	c-0.2,0.1-0.3,0.3-0.3,0.5v2c0,0.2,0.2,0.5,0.5,0.5l16.2-0.1h0.1h6c0.3,0,0.5-0.2,0.5-0.5v-2C120.5,163,120.3,162.8,120.1,162.8z"/>
<path class="st7" d="M119,180.8c0,0.3-0.2,0.5-0.4,0.6c-0.1,0-0.1,0-0.2,0H111l-13.5,0.1h-1.4c-0.4,0-0.6-0.3-0.6-0.6v-2
	c0-0.3,0.2-0.6,0.6-0.6h2.9h13.5h5.8c0.1,0,0.1,0,0.1,0c0.3,0,0.5,0.3,0.5,0.6V180.8z"/>
<path class="st4" d="M96.2,181.5c-0.4,0-0.6-0.3-0.6-0.6v-2c0-0.4,0.3-0.6,0.6-0.6h16.6l5.7-0.1c0.1,0,0.1,0,0.1,0.1
	c0.4,0,0.6,0.3,0.6,0.6v1.9c0,0.3-0.2,0.6-0.5,0.6c-0.1,0-0.1,0-0.2,0L96.2,181.5z M112.7,178.4l-16.5,0.1c-0.3,0-0.5,0.2-0.5,0.5
	v1.9c0,0.3,0.2,0.5,0.5,0.5l22.3-0.1c0.1,0,0.1,0,0.2,0c0.2-0.1,0.3-0.2,0.3-0.5v-1.9c0-0.3-0.2-0.5-0.4-0.5c0,0,0,0-0.1,0H112.7
	L112.7,178.4z"/>
<path class="st7" d="M122.2,177.8c0,0.3-0.3,0.6-0.6,0.6h-3h-5.9H99.2c0,0,0,0-0.1,0c-0.2,0-0.4-0.3-0.5-0.6v-1.9
	c0-0.3,0.2-0.6,0.5-0.6c0.1,0,0.1,0,0.1,0l12.8-0.1h9.6c0,0,0,0,0.1,0c0.3,0.1,0.5,0.3,0.5,0.6V177.8z"/>
<path class="st4" d="M99.2,178.4C99.2,178.4,99.2,178.4,99.2,178.4c-0.4,0-0.6-0.3-0.6-0.6v-1.9c0-0.4,0.3-0.6,0.6-0.6
	c0,0,0,0,0.1,0l22.4-0.1c0.1,0,0.1,0,0.1,0c0.4,0.1,0.6,0.4,0.6,0.6v2c0,0.3-0.3,0.6-0.6,0.6H99.2z M121.5,175.2l-22.3,0.1
	c-0.1,0-0.1,0-0.1,0c-0.3,0.1-0.4,0.3-0.4,0.5v2c0,0.2,0.1,0.4,0.4,0.4c0,0.1,0,0.1,0.1,0.1l22.3-0.1c0.3,0,0.5-0.2,0.5-0.5v-2
	C122,175.5,121.8,175.3,121.5,175.2C121.6,175.2,121.6,175.2,121.5,175.2z"/>
<path class="st7" d="M122.2,174.6c0,0.3-0.2,0.5-0.5,0.6c0,0,0,0-0.1,0l-9.6,0.1H99.2c0,0,0,0-0.1,0c-0.3-0.1-0.4-0.3-0.5-0.6v-2
	c0-0.3,0.3-0.6,0.6-0.6h2.4h7.6h12.3c0,0,0,0,0.1,0c0.2,0,0.5,0.3,0.5,0.6V174.6z"/>
<path class="st4" d="M99.2,175.4C99.2,175.4,99.2,175.4,99.2,175.4c-0.4-0.1-0.6-0.4-0.6-0.6v-2c0-0.2,0.1-0.3,0.2-0.5
	c0.1-0.1,0.3-0.2,0.5-0.2h22.4c0,0,0,0,0.1,0c0.3,0,0.6,0.3,0.6,0.6v1.9c0,0.4-0.2,0.6-0.6,0.6c0,0,0,0-0.1,0L99.2,175.4z
	 M121.5,172.2l-22.3,0.1c-0.1,0-0.2,0-0.4,0.1c-0.1,0.1-0.1,0.2-0.1,0.4v1.9c0,0.3,0.1,0.5,0.4,0.5c0,0,0,0,0.1,0l22.3-0.1
	c0.1,0,0.1,0,0.1,0c0.2,0,0.4-0.2,0.4-0.4v-2C122,172.4,121.8,172.2,121.5,172.2C121.6,172.2,121.5,172.2,121.5,172.2z"/>
<path class="st11" d="M137.5,188.1v2c0,0.3-0.3,0.6-0.6,0.6h-22.3c-0.2,0-0.3-0.1-0.5-0.2c-0.1-0.1-0.2-0.3-0.2-0.5v-1.9
	c0-0.2,0.1-0.3,0.2-0.5c0-0.1,0-0.1,0.1-0.1c-0.2-0.1-0.3-0.4-0.3-0.6v-2c0-0.2,0.1-0.3,0.2-0.5h-0.9c-0.4,0-0.6-0.3-0.6-0.6V182
	c0-0.2,0.1-0.3,0.2-0.5H110c-0.4,0-0.6-0.3-0.6-0.6v-2c0-0.2,0.1-0.3,0.2-0.5c0.1-0.1,0.3-0.2,0.5-0.2l22.3-0.1
	c0.2,0,0.3,0.1,0.5,0.2c0.1,0.1,0.2,0.3,0.2,0.5v2c0,0.2-0.1,0.3-0.2,0.5h2.7c0.4,0,0.6,0.3,0.6,0.6v2c0,0.2-0.1,0.3-0.2,0.5h0.9
	c0.2,0,0.3,0.1,0.5,0.2c0.1,0.1,0.2,0.3,0.2,0.5v1.9c0,0.2-0.1,0.3-0.2,0.5c0,0.1,0,0.1-0.1,0.1
	C137.4,187.6,137.5,187.8,137.5,188.1z"/>
<path class="st7" d="M139.7,190.7h-22.4c-0.3,0-0.6-0.2-0.6-0.6v-1.9c0-0.4,0.3-0.6,0.6-0.6l22.4-0.1c0.3,0,0.6,0.3,0.6,0.6v2
	C140.2,190.4,139.9,190.7,139.7,190.7z"/>
<path class="st4" d="M117.3,190.8c-0.2,0-0.3-0.1-0.5-0.2s-0.2-0.3-0.2-0.5v-1.9c0-0.2,0.1-0.3,0.2-0.5s0.3-0.2,0.5-0.2l22.4-0.1
	c0.3,0,0.6,0.3,0.6,0.6v2c0,0.3-0.3,0.6-0.6,0.6H117.3z M139.7,187.6l-22.4,0.1c-0.1,0-0.2,0-0.3,0.1c-0.1,0.1-0.2,0.2-0.2,0.4v1.9
	c0,0.1,0.1,0.2,0.2,0.4c0.1,0.1,0.2,0.1,0.3,0.1l22.4-0.1c0.2,0,0.5-0.2,0.5-0.4l-0.1-2C140,187.8,139.9,187.6,139.7,187.6z"/>
<path class="st7" d="M135.2,181.4l-22.4,0.1c-0.3,0-0.6-0.3-0.6-0.6v-2c0-0.3,0.3-0.6,0.6-0.6l22.4-0.1c0.3,0,0.6,0.3,0.6,0.6v2
	C135.7,181.1,135.4,181.4,135.2,181.4z"/>
<path class="st4" d="M112.8,181.5c-0.3,0-0.6-0.3-0.6-0.6v-2c0-0.2,0.1-0.3,0.2-0.5c0.1-0.1,0.3-0.2,0.5-0.2l22.4-0.1
	c0.2,0,0.3,0.1,0.5,0.2c0.1,0.1,0.2,0.3,0.2,0.5v2c0,0.2-0.1,0.3-0.2,0.5c-0.1,0.1-0.3,0.2-0.5,0.2L112.8,181.5z M135.2,178.3
	l-22.4,0.1c-0.1,0-0.2,0.1-0.3,0.2c-0.1,0.1-0.1,0.2-0.2,0.3l0.1,2c0,0.1,0,0.2,0.1,0.3c0.1,0.1,0.2,0.2,0.3,0.2l22.4-0.1
	c0.1,0,0.2,0,0.3-0.1c0.1-0.1,0.2-0.2,0.2-0.4v-2c0-0.1-0.1-0.2-0.2-0.3C135.4,178.4,135.3,178.3,135.2,178.3z"/>
<path class="st7" d="M139.7,187.5l-22.4,0.1c-0.3,0-0.6-0.3-0.6-0.6v-2c0-0.3,0.3-0.6,0.6-0.6h22.4c0.3,0,0.6,0.2,0.6,0.6v1.9
	C140.2,187.3,139.9,187.5,139.7,187.5z"/>
<path class="st4" d="M117.3,187.7c-0.4,0-0.6-0.3-0.6-0.6v-2c0-0.2,0.1-0.3,0.2-0.5c0.1-0.1,0.3-0.2,0.5-0.2h22.4
	c0.1,0,0.2,0.1,0.4,0.2c0.2,0.1,0.3,0.3,0.3,0.5v1.9c0,0.2-0.1,0.3-0.2,0.5c-0.1,0.1-0.3,0.2-0.5,0.2L117.3,187.7z M139.7,184.6
	h-22.4c-0.1,0-0.2,0.1-0.3,0.2c-0.1,0.1-0.2,0.2-0.2,0.3v2c0,0.1,0.1,0.2,0.2,0.4c0.1,0.1,0.2,0.1,0.3,0.1l22.4-0.1
	c0.1,0,0.2,0,0.3-0.1c0.1-0.1,0.1-0.2,0.2-0.4L140,185c0-0.1,0-0.2-0.1-0.4C139.9,184.6,139.8,184.6,139.7,184.6z"/>
<path class="st7" d="M138.2,184.5h-22.3c-0.3,0-0.6-0.2-0.6-0.6V182c0-0.4,0.3-0.6,0.6-0.6l22.3-0.1c0.4,0,0.6,0.3,0.6,0.6v2
	C138.8,184.2,138.6,184.5,138.2,184.5z"/>
<path class="st4" d="M115.9,184.6c-0.4,0-0.6-0.3-0.6-0.6V182c0-0.2,0.1-0.3,0.2-0.5s0.3-0.2,0.5-0.2l22.3-0.1
	c0.4,0,0.6,0.3,0.6,0.6v2c0.1,0.3-0.3,0.6-0.6,0.6H115.9z M138.2,181.4l-22.3,0.1c-0.3,0-0.5,0.2-0.5,0.5v1.9c0,0.3,0.2,0.5,0.5,0.5
	h22.3c0.3,0,0.5-0.3,0.5-0.5v-2C138.7,181.6,138.5,181.4,138.2,181.4z"/>
<path d="M92.9,188.7c-2.9-2.8-3.7-8-1.5-12.7c2.2-4.7,6.7-7.4,10.8-6.8l0.2-0.3l2,0.9c4.5,2.2,6,8.5,3.3,14c-2.7,5.5-8.5,8.3-13,6.2
	l-2-0.9L92.9,188.7z"/>
<path class="st7" d="M102.4,168.9c4.4,2.1,6,8.4,3.3,13.9c-2.7,5.5-8.5,8.4-13,6.3c-4.5-2.2-6-8.5-3.3-14.1
	C92,169.5,97.8,166.7,102.4,168.9z"/>
<path class="st7" d="M101.4,170.7c3.7,1.8,5,6.9,2.8,11.5c-2.2,4.5-6.9,6.8-10.6,5.1c-3.8-1.8-5-7-2.9-11.5
	C93,171.1,97.8,168.9,101.4,170.7z"/>
<path class="st4" d="M99.3,182.8c-0.3,0.3-0.6,0.5-0.9,0.6c-0.4,0.1-0.8,0.2-1.2,0.3c-0.4,0-0.7,0-1.1-0.1l-0.6,1.7l-1.2-0.4
	l0.6-1.8c-0.4-0.2-0.7-0.4-0.9-0.7c-0.1-0.2-0.2-0.4-0.4-0.6c0,0,0,0-0.1-0.1c0-0.1,0-0.1,0-0.1c-0.1-0.1-0.1-0.2-0.2-0.3
	c-0.1-0.3-0.2-0.6-0.3-1c0-0.1,0-0.1,0-0.1c0-0.1,0-0.1,0-0.1s0,0,0-0.1c-0.1-0.4-0.1-0.8,0-1.2l1.3,0.4c0,0.3,0,0.6,0,0.8
	c0,0.2,0,0.4,0.1,0.6c0,0,0,0,0.1,0.1c0,0.1,0,0.1,0,0.2c0.1,0.1,0.2,0.3,0.3,0.5c0.1,0.2,0.3,0.3,0.5,0.5l0.2-0.6l0.1-0.1v-0.1
	l0.9-2.9c-0.3-0.2-0.6-0.5-0.8-0.8c-0.1-0.1-0.1-0.1-0.2-0.2c-0.1-0.1-0.1-0.2-0.2-0.3c-0.1-0.1-0.2-0.2-0.3-0.4
	c-0.2-0.3-0.3-0.6-0.4-0.9c0-0.2,0-0.5,0-0.7c0.1-0.1,0.1-0.2,0.1-0.4c0.1-0.2,0.2-0.5,0.4-0.7c0.1-0.1,0.1-0.1,0.2-0.2
	c0.2-0.2,0.5-0.4,0.8-0.6c0.3-0.2,0.6-0.3,1-0.3c0.4-0.1,0.7-0.1,1.1,0l0.4-1.1l1.2,0.5l-0.4,1c0.4,0.2,0.7,0.4,0.9,0.6
	c0.2,0.2,0.5,0.4,0.6,0.7c0.2,0.3,0.3,0.6,0.4,1c0.1,0.4,0.1,0.8,0,1.2l-1.2-0.5c0-0.4-0.1-0.8-0.3-1.1c-0.2-0.4-0.5-0.6-0.8-0.8
	l-1.1,3.4c0.2,0.2,0.5,0.4,0.6,0.6c0.2,0.2,0.4,0.4,0.6,0.6c0.2,0.2,0.4,0.4,0.6,0.6c0.1,0.2,0.2,0.4,0.3,0.6
	c0.1,0.2,0.1,0.5,0.1,0.7c0,0.2,0,0.5-0.1,0.7C99.8,182.2,99.6,182.6,99.3,182.8z M96,175.5c0,0.1,0,0.3,0.1,0.5
	c0.1,0.2,0.2,0.3,0.4,0.5c0.1,0.2,0.3,0.4,0.5,0.6l0.9-2.9c-0.5-0.1-0.9,0-1.2,0.2c-0.3,0.1-0.5,0.4-0.6,0.7
	C95.9,175.2,95.9,175.4,96,175.5z M98.7,181.4c0.1-0.2,0.1-0.4,0-0.6c0-0.2-0.1-0.4-0.2-0.6c-0.1-0.2-0.3-0.4-0.5-0.6
	c-0.1-0.2-0.3-0.4-0.5-0.6l-1.1,3.3c0.2,0.1,0.5,0.1,0.7,0c0.2,0,0.5-0.1,0.6-0.2c0.2-0.1,0.4-0.2,0.6-0.4
	C98.5,181.7,98.6,181.5,98.7,181.4z"/>
<path class="st4" d="M94.7,187.8c-0.4-0.1-0.8-0.3-1.2-0.5c-1.8-0.8-3.1-2.6-3.6-4.8c-0.6-2.2-0.3-4.6,0.8-6.9c1-2.2,2.8-4,4.8-4.9
	c2-1,4.1-1,6-0.2c3.7,1.8,5,7,2.8,11.6c-1.1,2.2-2.8,4.1-4.8,5C97.9,188,96.2,188.2,94.7,187.8z M90.8,175.7c-1,2.2-1.3,4.6-0.7,6.8
	c0.5,2.1,1.8,3.8,3.5,4.6c1.8,0.8,3.8,0.8,5.8-0.2c1.9-0.9,3.7-2.7,4.7-4.9c2.1-4.5,0.9-9.6-2.7-11.3c-1.8-0.8-3.9-0.8-5.8,0.2
	C93.6,171.9,92,173.6,90.8,175.7z"/>
<path class="st7" d="M43.6,69.7c7.1,0.4,8.2,18.2,9.5,23c0.6,2.5,0.3,3.1,1.8,3.1c2.4,0.2,5.1-2.2,7.6-5c2.2-2.5,3.8-4.7,3.8-4.7
	l2.9,1.1c0.4,5.3-8.6,23.2-15.2,21.6C43.9,106.3,28.4,69,43.6,69.7z"/>
<path d="M40.2,90.1l5.2-9.4c0,0,0.4,4,1.5,17.1c0.6,2.6,6,8.4,7.5,8.5c2.4,0.1,7-2.1,9.5-4.9c-0.1,0.3-5.7,8.7-10.6,7.1
	C47.4,106.7,40.2,90.1,40.2,90.1z"/>
<path class="st6" d="M43.7,181.4l-0.8,5h-2.4l-1.1-5.5L43.7,181.4z"/>
<path class="st4" d="M43,186.6h-2.8l-1.2-6l4.9,0.6L43,186.6z M40.6,186.1h2l0.8-4.5l-3.9-0.5L40.6,186.1z"/>
<path d="M53.1,107.3c0,0,1.8,18.6-1.7,40.4c-2.6,16-7.4,35-7.4,35l-4.7,0.4c0,0-1.8-22.9-2.8-36.6c-0.8-12.9-4.5-37.7-4.5-37.7
	L53.1,107.3z"/>
<path d="M46.7,104.8c0,0-0.4,10.8-2.1,29c-1.8,19-6,41.3-6,41.3s-1.5-23.3-2.4-33.4c-0.7-8.4-4.1-33-4.1-33L46.7,104.8z"/>
<path d="M43.1,184.8c0,0,10.3,0,12.3,5.3H42.9l-1.4-1.2l-1.1,1.2h-1.8c0,0-1.4-3.7,1.6-5.1C40.2,184.9,41.4,186,43.1,184.8z"/>
<path class="st6" d="M21.6,181.8l-1.8,4.8h-2.3l-0.1-5.3L21.6,181.8z"/>
<path class="st4" d="M19.8,186.8h-2.7l-0.1-5.7l4.8,0.6L19.8,186.8z M17.6,186.3h1.9l1.8-4.3l-3.7-0.5V186.3z"/>
<path d="M41.1,108.6c0,0,1.3,17-3.6,41.2c-2.8,14.1-16,32.1-16,32.1h-4.1c0,0,5.6-15.2,5.2-34.9c-0.4-16.5-7.2-28.8-4.7-36
	C19,107.3,41.1,108.6,41.1,108.6z"/>
<path d="M16.5,182.9c-0.8-0.3,0-0.8,0-0.8s-0.6-0.3-0.3-1.2c0.4-0.8,6.8-0.3,6.9,0c0.1,0.4-0.1,1-0.1,1c0.4,1-0.6,1.4-0.6,1.4
	C20.3,183.8,17.3,183.1,16.5,182.9z"/>
<path d="M38.7,183.3c-0.8-0.2,0-0.8,0-0.8s-0.6-0.3-0.3-1.1c0.4-0.9,6.8-0.3,6.9,0c0.1,0.3-0.1,1-0.1,1c0.4,0.9-0.6,1.3-0.6,1.3
	C42.5,184.3,39.5,183.6,38.7,183.3z"/>
<path class="st7" d="M55.5,109.4c0,0-13,6.5-39.1,1.8c0,0-0.1-45.8,24-42.5C58,71.2,47.1,92.8,55.5,109.4z"/>
<path class="st6" d="M42.7,69.2c0,0,0.3,2-0.9,4.1c-1.7-2.2-3.7-3.6-5.4-4.6c0,0,0.9-2.6,0.1-5.3l5.2,1.2
	C41.6,64.5,40.9,66.7,42.7,69.2z"/>
<path class="st4" d="M41.8,73.6l-0.2-0.3c-1.6-2.1-3.5-3.4-5.3-4.5l-0.2-0.1l0.1-0.2c0,0,0.8-2.5,0.1-5.2L36.2,63l5.7,1.5l-0.1,0.2
	c0,0-0.6,2.1,1.1,4.4l0.1,0.1v0.1c0,0.1,0.2,2.1-1,4.1L41.8,73.6z M36.7,68.5c1.8,1.1,3.6,2.4,5.1,4.3c0.8-1.6,0.8-3.2,0.8-3.6
	c-1.6-2-1.3-3.9-1.2-4.5l-4.5-1.1C37.4,65.9,36.8,67.9,36.7,68.5z"/>
<path class="st6" d="M43,57.9c1.6,3.4,0.7,7.1-1.7,8.2c-2.5,1-5.7-0.8-7.2-4.3c-1.6-3.4-0.7-7.1,1.7-8.1
	C38.3,52.5,41.5,54.5,43,57.9z"/>
<path class="st4" d="M39.9,66.6c-0.8,0-1.8-0.3-2.6-0.8c-1.5-0.8-2.6-2.2-3.4-4c-1.5-3.5-0.7-7.3,1.8-8.5c2.6-1.1,6,0.8,7.6,4.4
	c1.5,3.6,0.6,7.4-1.8,8.5C41,66.5,40.4,66.6,39.9,66.6z M35.9,53.8c-2.3,1-3,4.5-1.6,7.8c0.7,1.7,1.8,2.9,3.1,3.8
	c1.3,0.7,2.6,0.9,3.8,0.5c2.3-1.1,3-4.6,1.6-7.9C41.4,54.7,38.3,52.8,35.9,53.8z"/>
<path class="st12" d="M41.1,55.1c0,0,1,1,1.3,1.6c0,0-1.6,0.8-3.5,0c-2.9-1.2-5.2,1.2-5.2,1.2l-0.2-2.2l6.5-2.9L41.1,55.1z"/>
<path d="M19,58.1c0.7-0.2,1.6-0.2,2.2-0.6c1.8-0.9,1.2-1.5,1.8-2.8c0.4-0.8,1.1-1.5,1.9-1.8c2.2-1,4.4,0,6,1.6c1-1.4,3-3,7.1-3.3
	c1.5-0.1,5.9,3.7,5,4.5c-1.3,1-2.6,0.9-4,0.5c-1.4-0.4-3.1-0.2-3.2,1.3c-0.2,1.4-1.4,1.6-1.4,1.6c-0.5,1.7,2.9,5.3,0.1,6
	c-1.8,0.5-2.4-1-3.1-1.8c-0.5-0.5-0.9-1.8-1.2-3.2c-0.7,0.9-1.7,1.8-2.5,2.6c-0.9,0.8-1.8,1.6-1.5,2.9c0.3,0.6,0.8,1.3,1.1,2
	c0.4,1.1,0.7,2.4,0.6,3.6c-0.3,2.4-2.4,3-4.5,2.3c-0.9-0.4-1.8-0.9-2.3-1.8c-0.9-1.2-0.9-2.2-2.7-3.1c-0.5-0.2-1-0.2-1.5-0.4
	C11.9,65.7,15,59.5,19,58.1z"/>
<path class="st6" d="M35.7,62.7c-1.1,1.1-2.8-1.3-2.2-2.3c0.6-1,1.8-0.2,1.8-0.2S36.8,61.5,35.7,62.7z"/>
<path class="st4" d="M35,63.2c-0.3,0-0.6-0.1-0.8-0.4c-0.8-0.6-1.4-1.8-0.9-2.7c0.2-0.3,0.4-0.5,0.7-0.6c0.6-0.1,1.3,0.4,1.4,0.4
	c0,0.1,0.8,0.7,0.9,1.7c0,0.4-0.2,0.8-0.5,1.2C35.6,63.1,35.3,63.2,35,63.2z M34.3,60.1c-0.1,0-0.1,0-0.2,0
	c-0.2,0.1-0.3,0.2-0.5,0.4c-0.3,0.5,0.2,1.6,0.8,2c0.4,0.3,0.7,0.3,1,0c0.2-0.2,0.4-0.5,0.4-0.8c-0.1-0.6-0.7-1.2-0.7-1.3
	C35,60.4,34.6,60.1,34.3,60.1z"/>
<path class="st6" d="M35.2,59.6c0.1-0.1,1,0.2,1,0.2s0.7,0.3,0.9,0.7c0.1,0.4-0.1,2.2-0.1,2.2s-1.5,0.6-1.5,0.4s-1-2.6-1-2.6
	l-0.2-0.9C34.4,59.6,35,59.6,35.2,59.6z"/>
<path d="M39.8,112.7c-10,1.2-23.4-1.4-23.4-1.4s0-17.8,5.1-28.5l11.3-9.5c0,0,4.3,9.4-7.7,21.6C21.6,98.2,39.8,112.7,39.8,112.7z"/>
<path d="M37,51.3c0,0,5.4-1.1,7.1,4.8c0,0-8.2,3.7-10.7,3l-1.4-3.6L37,51.3z"/>
<path class="st7" d="M29.7,60c0-1.9,0.3-3.8,0.8-5.6c0.2-0.6,1.2-0.4,1,0.3c-0.5,1.8-0.7,3.6-0.7,5.3C30.7,60.6,29.6,60.7,29.7,60z"
	/>
<path class="st6" d="M36.4,68.7c0,0,4.1,2.1,5.4,4.6l-2,2.4c0,0-2.1-5.4-4.2-6.9C35.6,68.8,36,68.4,36.4,68.7z"/>
<path class="st4" d="M39.7,76.1l-0.1-0.4c0-0.1-2.2-5.3-4.1-6.8l-0.3-0.2l0.3-0.2c0,0,0.6-0.4,1.1-0.1c0.2,0.1,4.1,2.1,5.4,4.7
	l0.1,0.1L39.7,76.1z M35.9,68.8c1.8,1.6,3.4,5.3,3.9,6.4l1.7-2c-1.3-2.3-5.2-4.3-5.2-4.4C36.2,68.8,36,68.8,35.9,68.8z"/>
<path class="st6" d="M43.2,69.4c1,2.1,0.6,6.3,0.6,6.3l-2-2.4c0.8-1,0.9-4.1,0.9-4.1L43.2,69.4z"/>
<path class="st4" d="M44,76.2l-2.6-2.9l0.2-0.2c0.7-0.9,0.9-3.9,0.9-3.9v-0.4l0.7,0.4h0.1c1.1,2.2,0.7,6.3,0.6,6.4V76.2z M42.1,73.3
	l1.6,1.8c0.1-1.2,0.2-4-0.6-5.5C43,70.3,42.7,72.4,42.1,73.3z"/>
<path d="M41.5,79.3c0-0.5,0.4-0.8,0.8-0.8c0.5,0,0.8,0.4,0.8,0.8c0,0.4-0.4,0.8-0.8,0.8C41.9,80.1,41.5,79.7,41.5,79.3z"/>
<path d="M42,84.9c0-0.5,0.4-0.8,0.8-0.8c0.5,0,0.8,0.4,0.8,0.8s-0.4,0.8-0.8,0.8C42.4,85.7,42,85.3,42,84.9z"/>
<path d="M42,94.9c0-0.5,0.4-0.8,0.8-0.8c0.5,0,0.8,0.4,0.8,0.8c0,0.4-0.4,0.8-0.8,0.8C42.4,95.8,42,95.3,42,94.9z"/>
<path d="M42,89.6c0-0.5,0.4-0.8,0.8-0.8c0.5,0,0.8,0.4,0.8,0.8c0,0.5-0.4,0.8-0.8,0.8C42.4,90.4,42,90,42,89.6z"/>
<path d="M42,100.5c0-0.5,0.4-0.8,0.8-0.8c0.5,0,0.8,0.4,0.8,0.8c0,0.4-0.4,0.7-0.8,0.7C42.4,101.3,42,100.8,42,100.5z"/>
<path d="M20.4,184.8c0,0,10.3,0,12.3,5.3H20.3l-1.5-1.2l-1.1,1.2h-1.8c0,0-1.3-3.7,1.6-5.1C17.4,184.9,18.6,186,20.4,184.8z"/>
<path class="st6" d="M38,115.6c-1.2,0.3-2.3-1.5-2.7-2.4c-0.6-1.2-0.6-2.5,0.5-3.4c0.8-0.7,2.5-1.3,3.5-0.9c0.1,0.1,0.2,0.1,0.3,0.2
	c0.2-0.1,0.5-0.1,0.6,0.2c0.6,0.6,2.9,2.6,1.7,3.6c-0.1,0.1-0.2,0.1-0.4,0.2c0.1,0.4,0,0.7-0.3,1c-0.4,0.4-0.7,0.4-1.1,0.2
	c-0.1,0.1-0.1,0.1-0.1,0.2c-0.4,0.5-0.8,0.6-1.4,0.5C38.7,115.2,38.5,115.5,38,115.6z"/>
<path class="st4" d="M37.8,115.8c-1.1,0-2-1.4-2.7-2.6c-0.6-1.4-0.5-2.8,0.6-3.7c0.9-0.8,2.6-1.4,3.7-0.9c0.1,0.1,0.1,0.1,0.2,0.1
	c0.3-0.1,0.6,0,0.8,0.3c0.1,0.1,0.2,0.3,0.4,0.5c0.7,0.6,1.8,1.8,1.7,2.7c0,0.3-0.2,0.6-0.5,0.8c-0.1,0.1-0.1,0.1-0.2,0.1
	c0,0.5-0.2,0.9-0.5,1.1c-0.2,0.3-0.6,0.5-1.1,0.3c-0.4,0.4-0.8,0.6-1.4,0.6c-0.1,0.4-0.3,0.6-0.8,0.7
	C38,115.8,37.9,115.8,37.8,115.8z M38.5,108.9c-0.8,0-1.8,0.5-2.5,1c-0.9,0.7-1.1,1.9-0.5,3.1c0.4,0.7,1.4,2.5,2.4,2.3
	c0.4-0.1,0.6-0.2,0.6-0.6v-0.3h0.3c0.5,0.1,0.9,0,1.1-0.4c0-0.1,0-0.1,0.1-0.1l0.1-0.2l0.2,0.1c0.3,0.1,0.6,0.1,0.8-0.1
	c0.2-0.2,0.3-0.6,0.3-0.9l-0.1-0.2l0.2-0.1c0.1,0,0.2,0,0.3-0.1c0.2-0.1,0.3-0.3,0.3-0.6c0.1-0.6-0.9-1.7-1.6-2.3
	c-0.1-0.2-0.2-0.3-0.4-0.5c-0.1-0.1-0.3-0.2-0.5-0.1l-0.1,0.1l-0.1-0.1c-0.1-0.1-0.1-0.1-0.2-0.1C39,109,38.8,108.9,38.5,108.9z"/>
<path class="st6" d="M42.6,111.3c-0.3-0.5-0.6-1-1-1.3c-0.5-0.2-0.8,0.1-1.2,0.1c-1,0.1-3-0.6-3.1-1.4c-0.1-0.7-0.6-1.7-0.2-1.3
	c0.9,0,4.7,0.5,5.5,1c0.8,0.6,1.2,1.5,1.3,2.5C43.8,111.7,42.8,112,42.6,111.3z"/>
<path class="st4" d="M43.1,111.9c-0.4,0-0.6-0.2-0.8-0.5c-0.2-0.5-0.5-1-0.8-1.2c-0.3-0.1-0.5,0-0.7,0.1c-0.1,0-0.2,0-0.4,0.1
	c-1,0.1-3.2-0.6-3.4-1.7c0-0.3-0.1-0.6-0.2-0.8c-0.2-0.4-0.2-0.6,0-0.7c0.1-0.1,0.3,0,0.4,0.1c0.9,0,4.7,0.4,5.6,1
	c0.8,0.6,1.2,1.4,1.3,2.7c0.1,0.5-0.2,0.7-0.6,0.9C43.3,111.9,43.2,111.9,43.1,111.9z M41.2,109.8c0.1,0,0.3,0,0.5,0.1
	c0.6,0.3,0.8,0.8,1.1,1.4c0.1,0.2,0.4,0.2,0.6,0.2c0.1-0.1,0.3-0.2,0.3-0.5c-0.1-1-0.4-1.8-1.1-2.3c-0.7-0.5-4.1-0.9-5.3-0.9
	c0.1,0,0.1,0,0.1,0.1c0.1,0.3,0.2,0.6,0.2,0.8c0.2,0.6,1.9,1.4,2.9,1.3c0.1-0.1,0.2-0.1,0.4-0.1C40.8,109.8,41,109.8,41.2,109.8z"/>
<path class="st6" d="M38.2,108c0,0,0.4-0.2,1.1-0.2c0.7,0,1.7,1.3,1.5,1.9c-0.1,0.4,0.4,0.6,0.6,1.1c0.4,0.5-1.8,0.6-1.8,0.6
	l-4.4-0.2c0,0,0.1-0.5-0.3-1.3c-0.3-0.8,2.3-2.9,2.3-2.9L38.2,108z"/>
<path class="st7" d="M33.4,73.3c2.2,4.5-6.3,12.9-9.9,16.6c-1.9,2-3,3.7-2.8,5.2c0.4,2.9,4.6,5.1,7.9,7.2c0.1,0,0.1,0,0,0
	c3,1.9,7.2,5.3,7.2,5.3l-0.7,3.8c-6.4-1.7-23-5.5-25.6-11.6C5.6,90.7,26.9,59.8,33.4,73.3z"/>
<path class="st7" d="M37.5,107.1l-1.9,5.7l-1.7-1.5l1.9-4.9L37.5,107.1z"/>
<path class="st6" d="M75.9,87.5l1.1,1l-0.3,0.8l-1.4,0.2L75.9,87.5z"/>
<path class="st4" d="M77.3,88.4l-0.4,1.1L75,89.8l0.8-2.7L77.3,88.4z M75.6,89.2l0.9-0.1l0.2-0.6l-0.6-0.6L75.6,89.2z"/>
<path class="st7" d="M58.9,81.9l-0.7,2.8l-1-0.4c-0.3-0.1-0.5-0.4-0.4-0.6l0.6-1.8c0.1-0.2,0.4-0.4,0.6-0.3L58.9,81.9z"/>
<path class="st2" d="M75.5,89.5c-0.1,0.2-0.4,0.4-0.6,0.3l-17-5.2l0.3-0.8l16.9,5.1C75.5,88.9,75.6,89.2,75.5,89.5z"/>
<path d="M75.8,88.6c-0.1,0.2-0.4,0.4-0.6,0.3l-16.9-5.1l0.3-0.9l16.9,5.1C75.7,88,75.9,88.3,75.8,88.6z"/>
<path class="st2" d="M76.1,87.6c-0.1,0.3-0.4,0.4-0.6,0.3l-16.9-5.1l0.3-0.9l16.9,5.2C76,87.1,76.2,87.4,76.1,87.6z"/>
<path class="st6" d="M59.1,82l-0.7,2.7l-0.6-0.2l0.7-2.7L59.1,82z"/>
<path class="st4" d="M58.4,85l-1-0.3l1-3.1l1,0.3L58.4,85z M57.9,84.4L57.9,84.4l0.8-2.3h-0.2L57.9,84.4z"/>
<path class="st13" d="M77.8,89.4l-0.8,0.1l0.4-1.1l0.6,0.6C78,89.1,77.9,89.3,77.8,89.4z"/>
<path class="st6" d="M71.5,84.3c0.3,0.6,0,1.3-0.2,1.8c-0.2,0.4-0.8,0.6-1.1,0.1c-0.2,0.3-0.5,0.5-0.9,0.3c-0.3-0.1-0.5-0.3-0.6-0.5
	c-0.2,0.2-0.5,0.3-0.8,0.2c-0.3-0.2-0.4-0.4-0.5-0.6c-0.1,0.2-0.1,0.3-0.2,0.4c-0.1,0.3-0.4,0.3-0.6,0.3c-0.3,0-0.6-0.1-0.6-0.5
	c-0.2-0.7-0.7-3,0.8-2.9c0.4,0,0.6,0.1,0.7,0.4c0.1,0,0.3-0.2,0.4-0.3c0.6-0.4,0.8-0.2,1,0.3c0.1,0,0.1,0,0.1,0
	c0.2-0.1,0.4-0.1,0.7,0c0.3,0,0.4,0.2,0.6,0.4c0.2,0,0.5,0.1,0.6,0.2c0.1,0.1,0.1,0.1,0.1,0.1C71.3,84,71.4,84.1,71.5,84.3z"/>
<path class="st4" d="M69.7,86.8c-0.1,0-0.2,0-0.4,0c-0.2-0.1-0.5-0.2-0.6-0.4c-0.2,0.1-0.5,0.1-0.8,0c-0.1-0.1-0.2-0.2-0.4-0.3
	c-0.2,0.3-0.5,0.4-0.7,0.4c-0.4,0-0.7-0.3-0.8-0.6c-0.2-0.7-0.6-2.2,0.1-2.9c0.2-0.2,0.5-0.4,0.9-0.4c0.3,0,0.6,0.1,0.8,0.3
	c0.1-0.1,0.1-0.1,0.2-0.1c0.3-0.2,0.6-0.2,0.8-0.2c0.2,0.1,0.3,0.2,0.5,0.4c0.2-0.1,0.4-0.1,0.6,0c0.4,0.1,0.6,0.3,0.6,0.5
	c0.2-0.1,0.5,0,0.7,0.2c0,0.1,0,0.1,0.1,0.1c0.2,0.2,0.4,0.4,0.5,0.6c0.2,0.6-0.1,1.5-0.3,2c-0.1,0.3-0.5,0.5-0.7,0.6
	c-0.2,0-0.4-0.1-0.6-0.2C70,86.8,69.8,86.8,69.7,86.8z M68.8,85.7l0.1,0.3c0.1,0.2,0.3,0.3,0.5,0.4c0.4,0.1,0.6,0,0.6-0.2l0.2-0.4
	l0.2,0.4c0.1,0.1,0.2,0.2,0.3,0.2c0.2,0,0.4-0.2,0.4-0.3c0.2-0.3,0.5-1.1,0.3-1.7c-0.1-0.2-0.2-0.3-0.3-0.4L70.9,84
	c-0.2-0.1-0.4-0.2-0.6-0.1h-0.1l-0.1-0.1c-0.1-0.2-0.3-0.3-0.5-0.4c-0.2-0.1-0.4-0.1-0.6,0l-0.1,0.1L69,83.4c0,0,0,0-0.1,0h-0.1
	v-0.1c-0.1-0.1-0.1-0.3-0.3-0.3c-0.1-0.1-0.3,0-0.5,0.1c0,0,0,0-0.1,0.1c-0.2,0.2-0.3,0.2-0.4,0.2h-0.1l-0.1-0.1
	c-0.1-0.2-0.3-0.3-0.6-0.3c-0.2,0-0.4,0.1-0.6,0.2c-0.5,0.6-0.2,1.9,0,2.5c0,0.4,0.3,0.4,0.4,0.4c0.1,0,0.3,0,0.4-0.2
	c0.1-0.1,0.1-0.2,0.2-0.4l0.3-0.6l0.1,0.6c0.1,0.2,0.2,0.3,0.4,0.4c0.2,0.1,0.4,0.2,0.6-0.1L68.8,85.7z"/>
</svg>
